<?xml version="1.0" encoding="utf-8"?>
<!-- Generator: Adobe Illustrator 16.0.4, SVG Export Plug-In . SVG Version: 6.00 Build 0)  -->
<!DOCTYPE svg PUBLIC "-//W3C//DTD SVG 1.1//EN" "http://www.w3.org/Graphics/SVG/1.1/DTD/svg11.dtd">
<svg version="1.1" xmlns="http://www.w3.org/2000/svg" xmlns:xlink="http://www.w3.org/1999/xlink" x="0px" y="0px" width="460.2px"
	 height="267.8px" viewBox="0 0 460.2 267.8" enable-background="new 0 0 460.2 267.8" xml:space="preserve">
<g id="Layer_2">
	<g>
		<g>
			<path d="M32.8,3c4.3,0,8.1,0.8,11.5,2.4c3.3,1.6,6.1,4,8.3,7.3l-6.4,6.9c-1.7-2.4-3.6-4.2-5.8-5.5c-2.2-1.2-4.6-1.8-7.2-1.8
				c-3.1,0-5.8,0.9-8,2.6C23,16.7,21.2,19,19.7,22c-1.5,3-2.6,6.5-3.4,10.4c-0.7,4-1.1,8.2-1.1,12.5c0,4.6,0.4,8.9,1.2,12.9
				c0.8,4,2,7.4,3.5,10.3c1.6,2.9,3.5,5.2,5.8,6.9c2.3,1.7,5.1,2.5,8.3,2.5c4.2,0,7.5-0.9,9.7-2.7V50H33.2v-8.9h20.4v39.2
				c-2.3,2-5.1,3.5-8.2,4.7c-3.1,1.2-7,1.8-11.5,1.8c-4.6,0-8.7-1-12.4-3c-3.6-2-6.7-4.8-9.3-8.5c-2.5-3.6-4.5-8-5.8-13.2
				c-1.3-5.1-2-10.9-2-17.1c0-6.1,0.6-11.6,1.9-16.7c1.3-5.1,3.1-9.5,5.6-13.3c2.4-3.7,5.4-6.7,8.9-8.8C24.4,4.1,28.4,3,32.8,3z"/>
			<path d="M117.5,45c0,6.3-0.6,12-1.9,17.2c-1.2,5.2-3.1,9.6-5.5,13.3c-2.4,3.7-5.3,6.6-8.6,8.6c-3.4,2-7.2,3.1-11.5,3.1
				s-8.2-1-11.6-3.1c-3.4-2-6.3-4.9-8.7-8.6c-2.4-3.7-4.2-8.2-5.5-13.3C63.1,57,62.5,51.3,62.5,45c0-6.3,0.6-12,1.8-17.2
				c1.2-5.2,3-9.6,5.3-13.3C72,10.9,74.9,8,78.3,6c3.4-2,7.4-3,11.8-3c4.3,0,8.2,1,11.5,3c3.4,2,6.2,4.8,8.6,8.5
				c2.4,3.7,4.2,8.1,5.5,13.3C116.9,33,117.5,38.7,117.5,45z M106.7,45c0-4.5-0.4-8.8-1.1-12.8c-0.7-4-1.8-7.5-3.2-10.4
				c-1.4-3-3.1-5.3-5.2-7c-2.1-1.7-4.5-2.6-7.2-2.6c-2.8,0-5.3,0.9-7.4,2.6c-2.1,1.7-3.9,4-5.3,7c-1.4,3-2.4,6.4-3.1,10.4
				c-0.7,4-1,8.3-1,12.8s0.3,8.8,1,12.8c0.7,4,1.7,7.5,3.1,10.4c1.4,3,3.2,5.3,5.3,7c2.1,1.7,4.6,2.6,7.4,2.6c2.7,0,5.1-0.9,7.2-2.6
				c2.1-1.7,3.8-4,5.2-7c1.4-3,2.5-6.4,3.2-10.4C106.4,53.8,106.7,49.6,106.7,45z"/>
			<path d="M176.2,43.1c1.4,0.3,3,0.9,4.6,1.8c1.6,0.9,3.1,2.2,4.5,3.8c1.4,1.6,2.5,3.6,3.4,6c0.9,2.4,1.4,5.2,1.4,8.5
				c0,4.2-0.7,7.6-2,10.4c-1.4,2.8-3.1,5.1-5.2,6.8c-2.1,1.7-4.5,3-7.1,3.7c-2.6,0.8-5.1,1.1-7.5,1.1h-21.7V4.9h19.3
				c2.3,0,4.7,0.3,7.2,0.9c2.5,0.6,4.9,1.6,7,3.1c2.1,1.5,3.9,3.6,5.2,6.1c1.4,2.6,2,5.8,2,9.8c0,2.7-0.3,5-0.9,6.9
				c-0.6,2-1.4,3.7-2.4,5.2c-1,1.5-2.2,2.7-3.5,3.7c-1.3,1-2.7,1.7-4.1,2.3V43.1z M177.7,26.3c0-2.4-0.4-4.5-1.1-6.1
				c-0.8-1.6-1.7-3-3-4c-1.2-1-2.6-1.7-4.1-2.2c-1.6-0.4-3.2-0.6-4.8-0.6h-8.5v26h8.7c1.5,0,3-0.2,4.6-0.7c1.6-0.5,2.9-1.3,4.1-2.3
				c1.2-1,2.2-2.4,3-4C177.3,30.7,177.7,28.7,177.7,26.3z M179.9,62.6c0-2.7-0.4-5.1-1.3-7c-0.9-1.9-2-3.5-3.3-4.7
				c-1.4-1.2-2.9-2-4.6-2.6s-3.4-0.8-5.1-0.8h-9.4v29.3h9.9c1.9,0,3.7-0.3,5.4-0.9c1.7-0.6,3.2-1.4,4.4-2.6c1.2-1.1,2.2-2.6,3-4.4
				C179.5,67.2,179.9,65.1,179.9,62.6z"/>
			<path d="M199.9,85.3V4.9h33.8V14h-24v25.3h22.4v8.5h-22.4v28.3h25.1v9.2H199.9z"/>
			<path d="M265.8,53.2v32.1h-10.2V53.2l-20-48.3h11.1l14,37.8l14.4-37.8H286L265.8,53.2z"/>
			<path d="M339.2,45c0,6.3-0.6,12-1.9,17.2c-1.2,5.2-3.1,9.6-5.4,13.3c-2.4,3.7-5.3,6.6-8.6,8.6c-3.4,2-7.2,3.1-11.5,3.1
				s-8.2-1-11.6-3.1s-6.3-4.9-8.7-8.6c-2.4-3.7-4.2-8.2-5.5-13.3c-1.2-5.2-1.9-10.9-1.9-17.2c0-6.3,0.6-12,1.8-17.2
				c1.2-5.2,3-9.6,5.3-13.3c2.3-3.7,5.2-6.5,8.7-8.5c3.4-2,7.4-3,11.8-3c4.3,0,8.2,1,11.5,3c3.4,2,6.2,4.8,8.6,8.5
				c2.4,3.7,4.2,8.1,5.4,13.3C338.6,33,339.2,38.7,339.2,45z M328.4,45c0-4.5-0.4-8.8-1.1-12.8c-0.7-4-1.8-7.5-3.2-10.4
				s-3.1-5.3-5.2-7c-2.1-1.7-4.5-2.6-7.2-2.6c-2.8,0-5.3,0.9-7.4,2.6s-3.9,4-5.3,7c-1.4,3-2.4,6.4-3.1,10.4c-0.7,4-1,8.3-1,12.8
				s0.3,8.8,1,12.8c0.7,4,1.7,7.5,3.1,10.4c1.4,3,3.2,5.3,5.3,7s4.6,2.6,7.4,2.6c2.7,0,5.1-0.9,7.2-2.6c2.1-1.7,3.8-4,5.2-7
				s2.5-6.4,3.2-10.4C328,53.8,328.4,49.6,328.4,45z"/>
			<path d="M385.4,85.3L359.7,23h-0.3v62.3H350V4.9h12.3l25.3,62.5h0.3V4.9h9.4v80.4H385.4z"/>
			<path d="M460.2,45.2c0,13-2.7,23-7.9,29.8c-5.3,6.9-12.7,10.3-22.3,10.3h-18.4V4.9h18.5c9.5,0,16.9,3.4,22.2,10.3
				C457.6,22.2,460.2,32.1,460.2,45.2z M450,45.2c0-5.3-0.5-9.9-1.5-13.9c-1-3.9-2.4-7.2-4.2-9.8c-1.8-2.6-3.9-4.5-6.3-5.8
				c-2.4-1.3-5.1-1.9-7.9-1.9h-8.3v62.5h8.3c2.8,0,5.4-0.6,7.9-1.9c2.5-1.3,4.6-3.2,6.3-5.8c1.8-2.6,3.2-5.8,4.2-9.7
				C449.5,55,450,50.5,450,45.2z"/>
		</g>
		<g>
			<path d="M24.6,144.6l0.2-19.7h-0.2l-4.8,19.7h-4.6L10.6,125h-0.1l0.2,19.7H4.8V116H13l4.6,18.5h0.2l4.5-18.5h8.7v28.7H24.6z"/>
			<path d="M48.6,144.6l-1.2-5.2h-6.4l-1.2,5.2h-6.5l7-28.7h8.1l6.9,28.7H48.6z M44.3,122.2h-0.2l-2.4,12.2h4.9L44.3,122.2z"/>
			<path d="M69.3,142.7c-1.3,1.7-3.4,2.6-6.3,2.6c-2,0-3.7-0.6-5.1-1.7c-1.4-1.1-2.3-2.6-2.8-4.5l5.3-2.3c0.2,0.6,0.4,1.2,0.8,1.7
				c0.4,0.5,0.9,0.7,1.5,0.7c0.9,0,1.5-0.4,1.8-1.1c0.3-0.7,0.4-1.7,0.4-3V116h6.4v19.6C71.3,138.6,70.6,141,69.3,142.7z"/>
			<path d="M96.5,130.2c0,2.3-0.3,4.3-0.8,6.2c-0.5,1.9-1.2,3.5-2.2,4.8c-0.9,1.3-2.1,2.3-3.5,3.1c-1.4,0.7-2.9,1.1-4.6,1.1
				c-1.7,0-3.2-0.4-4.6-1.1c-1.4-0.7-2.5-1.8-3.5-3.1c-0.9-1.3-1.7-2.9-2.2-4.8c-0.5-1.9-0.8-3.9-0.8-6.2c0-2.3,0.2-4.3,0.7-6.2
				c0.5-1.8,1.2-3.4,2.2-4.7c0.9-1.3,2.1-2.3,3.5-3c1.4-0.7,2.9-1.1,4.6-1.1c1.7,0,3.2,0.4,4.6,1.1c1.4,0.7,2.5,1.7,3.5,3
				c0.9,1.3,1.7,2.9,2.2,4.7C96.3,125.9,96.5,127.9,96.5,130.2z M89.9,130.2c0-1.2-0.1-2.4-0.3-3.5c-0.2-1.1-0.5-2-0.8-2.8
				c-0.4-0.8-0.8-1.4-1.4-1.8c-0.5-0.4-1.2-0.7-1.9-0.7s-1.4,0.2-1.9,0.7c-0.6,0.4-1,1.1-1.4,1.8c-0.4,0.8-0.6,1.7-0.8,2.8
				c-0.2,1.1-0.3,2.2-0.3,3.5s0.1,2.4,0.3,3.5c0.2,1.1,0.4,2,0.8,2.8c0.4,0.8,0.8,1.4,1.4,1.9c0.6,0.5,1.2,0.7,1.9,0.7
				s1.4-0.2,1.9-0.7c0.5-0.5,1-1.1,1.4-1.9c0.4-0.8,0.6-1.7,0.8-2.8C89.8,132.6,89.9,131.5,89.9,130.2z"/>
			<path d="M111.8,144.6l-3.8-11.4h-1.9v11.4h-6.2V116h9.2c2.8,0,4.9,0.7,6.5,2.2c1.5,1.4,2.3,3.6,2.3,6.5c0,1.1-0.1,2-0.4,2.8
				c-0.2,0.8-0.6,1.6-0.9,2.1c-0.4,0.6-0.8,1.1-1.3,1.5c-0.5,0.4-1,0.6-1.4,0.8l4.9,12.8H111.8z M111.4,125c0-0.7-0.1-1.3-0.3-1.8
				c-0.2-0.5-0.5-0.8-0.8-1.1c-0.3-0.3-0.7-0.5-1.1-0.5c-0.4-0.1-0.8-0.1-1.2-0.1h-2v7.2h1.9c0.9,0,1.7-0.3,2.4-0.9
				C111.1,127.2,111.4,126.2,111.4,125z"/>
			<path d="M133.4,122.8c-0.5-0.6-1.1-1-1.7-1.3s-1.3-0.5-2-0.5c-0.7,0-1.4,0.2-2,0.7c-0.6,0.5-0.9,1.2-0.9,2.3
				c0,0.9,0.3,1.6,0.9,2.1c0.6,0.5,1.5,1,2.6,1.6c0.7,0.3,1.3,0.7,2.1,1.2s1.4,1,2,1.6s1.1,1.4,1.5,2.3c0.4,0.9,0.6,2,0.6,3.2
				c0,1.5-0.2,2.9-0.7,4.1c-0.5,1.2-1.1,2.1-2,2.9c-0.8,0.8-1.8,1.4-2.9,1.7c-1.1,0.4-2.2,0.6-3.4,0.6c-1.7,0-3.3-0.3-4.7-1
				c-1.4-0.6-2.6-1.4-3.4-2.3l3.3-4.9c0.6,0.6,1.3,1.2,2.1,1.6c0.8,0.4,1.6,0.6,2.5,0.6c0.8,0,1.4-0.3,2-0.8
				c0.5-0.5,0.8-1.2,0.8-2.1c0-0.9-0.3-1.7-1-2.2c-0.6-0.6-1.6-1.1-2.8-1.8c-0.8-0.4-1.5-0.8-2.2-1.3s-1.3-1-1.8-1.7
				c-0.5-0.6-0.9-1.4-1.2-2.3c-0.3-0.9-0.4-1.9-0.4-3.1c0-1.6,0.3-3,0.8-4.1c0.5-1.1,1.2-2.1,2.1-2.8s1.8-1.3,2.8-1.6
				c1-0.4,2.1-0.5,3.1-0.5c1.6,0,3,0.3,4.2,0.8c1.2,0.5,2.3,1.2,3.1,2.1L133.4,122.8z"/>
			<path d="M141.6,149.4h-4.7l2.4-11.5h5.5L141.6,149.4z"/>
			<path d="M171.4,144.3c-1.3,0.7-2.9,1.1-4.9,1.1c-1.7,0-3.2-0.4-4.6-1.1c-1.4-0.7-2.5-1.8-3.5-3.1c-1-1.3-1.7-2.9-2.3-4.8
				c-0.5-1.8-0.8-3.9-0.8-6.1c0-2.2,0.3-4.3,0.8-6.2c0.5-1.9,1.3-3.5,2.3-4.8c1-1.3,2.1-2.3,3.5-3.1c1.4-0.7,2.9-1.1,4.6-1.1
				c1.9,0,3.5,0.3,4.8,1c1.3,0.7,2.3,1.5,3.1,2.6l-3.5,4.7c-0.5-0.6-1-1.2-1.6-1.5s-1.4-0.6-2.3-0.6c-0.9,0-1.6,0.2-2.2,0.7
				c-0.6,0.5-1.2,1.1-1.6,1.9c-0.4,0.8-0.8,1.7-1,2.8c-0.2,1.1-0.3,2.3-0.3,3.5c0,1.2,0.1,2.4,0.3,3.5c0.2,1.1,0.5,2,1,2.8
				c0.4,0.8,1,1.4,1.6,1.9s1.4,0.7,2.3,0.7c0.9,0,1.6-0.2,2.3-0.6c0.6-0.4,1.2-0.9,1.5-1.5l3.6,4.5
				C173.7,142.6,172.7,143.5,171.4,144.3z"/>
			<path d="M177.1,144.6V116h6.6v22.7h12.6v6H177.1z"/>
			<path d="M206.8,144.6l-1.2-5.2h-6.4l-1.2,5.2h-6.5l7-28.7h8.1l6.9,28.7H206.8z M202.5,122.2h-0.2l-2.4,12.2h4.9L202.5,122.2z"/>
			<path d="M227.7,122.8c-0.5-0.6-1.1-1-1.7-1.3s-1.3-0.5-2-0.5c-0.7,0-1.4,0.2-2,0.7c-0.6,0.5-0.9,1.2-0.9,2.3
				c0,0.9,0.3,1.6,0.9,2.1c0.6,0.5,1.5,1,2.6,1.6c0.7,0.3,1.3,0.7,2.1,1.2s1.4,1,2,1.6s1.1,1.4,1.5,2.3c0.4,0.9,0.6,2,0.6,3.2
				c0,1.5-0.2,2.9-0.7,4.1c-0.5,1.2-1.1,2.1-2,2.9c-0.8,0.8-1.8,1.4-2.9,1.7c-1.1,0.4-2.2,0.6-3.4,0.6c-1.7,0-3.3-0.3-4.7-1
				c-1.4-0.6-2.6-1.4-3.4-2.3l3.3-4.9c0.6,0.6,1.3,1.2,2.1,1.6c0.8,0.4,1.6,0.6,2.5,0.6c0.8,0,1.4-0.3,2-0.8
				c0.5-0.5,0.8-1.2,0.8-2.1c0-0.9-0.3-1.7-1-2.2c-0.6-0.6-1.6-1.1-2.8-1.8c-0.8-0.4-1.5-0.8-2.2-1.3s-1.3-1-1.8-1.7
				c-0.5-0.6-0.9-1.4-1.2-2.3c-0.3-0.9-0.4-1.9-0.4-3.1c0-1.6,0.3-3,0.8-4.1c0.5-1.1,1.2-2.1,2.1-2.8s1.8-1.3,2.8-1.6
				c1-0.4,2.1-0.5,3.1-0.5c1.6,0,3,0.3,4.2,0.8c1.2,0.5,2.3,1.2,3.1,2.1L227.7,122.8z"/>
			<path d="M246.2,122.8c-0.5-0.6-1.1-1-1.7-1.3c-0.6-0.3-1.3-0.5-2-0.5c-0.7,0-1.4,0.2-2,0.7c-0.6,0.5-0.9,1.2-0.9,2.3
				c0,0.9,0.3,1.6,0.9,2.1c0.6,0.5,1.5,1,2.6,1.6c0.7,0.3,1.3,0.7,2.1,1.2s1.4,1,2,1.6s1.1,1.4,1.5,2.3c0.4,0.9,0.6,2,0.6,3.2
				c0,1.5-0.2,2.9-0.7,4.1c-0.5,1.2-1.1,2.1-2,2.9c-0.8,0.8-1.8,1.4-2.9,1.7c-1.1,0.4-2.2,0.6-3.4,0.6c-1.7,0-3.3-0.3-4.7-1
				c-1.4-0.6-2.6-1.4-3.4-2.3l3.3-4.9c0.6,0.6,1.3,1.2,2.1,1.6c0.8,0.4,1.6,0.6,2.5,0.6c0.8,0,1.4-0.3,2-0.8s0.8-1.2,0.8-2.1
				c0-0.9-0.3-1.7-1-2.2c-0.6-0.6-1.6-1.1-2.8-1.8c-0.8-0.4-1.5-0.8-2.2-1.3s-1.3-1-1.8-1.7c-0.5-0.6-0.9-1.4-1.2-2.3
				c-0.3-0.9-0.4-1.9-0.4-3.1c0-1.6,0.3-3,0.8-4.1c0.5-1.1,1.2-2.1,2.1-2.8c0.9-0.7,1.8-1.3,2.8-1.6c1-0.4,2.1-0.5,3.1-0.5
				c1.6,0,3,0.3,4.2,0.8c1.2,0.5,2.3,1.2,3.1,2.1L246.2,122.8z"/>
			<path d="M252.8,144.6V116h13.8v5.7H259v5.6h7v5.3h-7v6.2h8.1v5.8H252.8z"/>
			<path d="M282.6,122.8c-0.5-0.6-1.1-1-1.7-1.3c-0.6-0.3-1.3-0.5-2-0.5c-0.7,0-1.4,0.2-2,0.7c-0.6,0.5-0.9,1.2-0.9,2.3
				c0,0.9,0.3,1.6,0.9,2.1c0.6,0.5,1.5,1,2.6,1.6c0.7,0.3,1.3,0.7,2.1,1.2s1.4,1,2,1.6s1.1,1.4,1.5,2.3c0.4,0.9,0.6,2,0.6,3.2
				c0,1.5-0.2,2.9-0.7,4.1c-0.5,1.2-1.1,2.1-2,2.9c-0.8,0.8-1.8,1.4-2.9,1.7c-1.1,0.4-2.2,0.6-3.4,0.6c-1.7,0-3.3-0.3-4.7-1
				c-1.4-0.6-2.6-1.4-3.4-2.3l3.3-4.9c0.6,0.6,1.3,1.2,2.1,1.6c0.8,0.4,1.6,0.6,2.5,0.6c0.8,0,1.4-0.3,2-0.8s0.8-1.2,0.8-2.1
				c0-0.9-0.3-1.7-1-2.2c-0.6-0.6-1.6-1.1-2.8-1.8c-0.8-0.4-1.5-0.8-2.2-1.3s-1.3-1-1.8-1.7c-0.5-0.6-0.9-1.4-1.2-2.3
				c-0.3-0.9-0.4-1.9-0.4-3.1c0-1.6,0.3-3,0.8-4.1c0.5-1.1,1.2-2.1,2.1-2.8c0.9-0.7,1.8-1.3,2.8-1.6c1-0.4,2.1-0.5,3.1-0.5
				c1.6,0,3,0.3,4.2,0.8c1.2,0.5,2.3,1.2,3.1,2.1L282.6,122.8z"/>
			<path d="M290.8,149.4h-4.7l2.4-11.5h5.5L290.8,149.4z"/>
			<path d="M320.4,144.6l-1.7-2.4c-0.5,0.8-1.3,1.5-2.4,2.1c-1,0.6-2.3,0.9-3.8,0.9c-2.5,0-4.5-0.7-6-2.2c-1.5-1.5-2.2-3.6-2.2-6.4
				c0-1.9,0.4-3.6,1.3-4.9c0.9-1.3,2-2.3,3.4-3.1c-0.6-0.9-1.2-1.8-1.5-2.8c-0.4-1-0.5-2.1-0.5-3.2c0-1.2,0.2-2.2,0.6-3.1
				s0.9-1.7,1.6-2.4c0.7-0.6,1.5-1.1,2.4-1.5c0.9-0.4,1.9-0.5,3-0.5c1,0,2,0.2,2.8,0.5c0.9,0.3,1.6,0.8,2.2,1.4
				c0.6,0.6,1.1,1.4,1.5,2.2c0.4,0.9,0.5,1.9,0.5,3c0,0.9-0.1,1.7-0.4,2.5c-0.3,0.7-0.7,1.4-1.2,2s-1,1.2-1.7,1.7
				c-0.6,0.5-1.3,1-2,1.4l2.4,3.3l2-4.3h6.1l-4.6,8.6l5.1,7.1H320.4z M312,132.7c-0.4,0.2-0.8,0.6-1.1,1.2s-0.6,1.4-0.6,2.3
				c0,1.1,0.3,2,0.8,2.7c0.5,0.7,1.2,1,2.1,1c0.7,0,1.3-0.2,1.7-0.6c0.4-0.4,0.7-0.8,0.9-1.3L312,132.7z M316.6,122.6
				c0-0.8-0.1-1.4-0.4-2c-0.3-0.5-0.7-0.8-1.3-0.8c-0.6,0-1.1,0.3-1.5,0.9c-0.4,0.6-0.5,1.2-0.5,2c0,1.4,0.5,2.6,1.4,3.7
				c0.6-0.4,1.2-0.9,1.7-1.6C316.4,124.2,316.6,123.5,316.6,122.6z"/>
			<path d="M352.6,144.6c-1.3,0.4-2.8,0.6-4.6,0.6c-1.8,0-3.4-0.4-4.8-1.1c-1.4-0.7-2.6-1.7-3.6-3.1c-1-1.3-1.7-2.9-2.3-4.7
				s-0.8-3.9-0.8-6.1c0-2.2,0.3-4.3,0.8-6.1s1.3-3.4,2.2-4.8c1-1.3,2.1-2.4,3.5-3.1c1.4-0.7,2.9-1.1,4.6-1.1c1.9,0,3.6,0.3,4.9,1
				c1.3,0.7,2.3,1.5,3.1,2.5l-3.5,4.7c-1-1.4-2.3-2-4-2c-0.9,0-1.7,0.2-2.3,0.7c-0.7,0.5-1.2,1.1-1.6,1.9c-0.4,0.8-0.8,1.8-1,2.8
				s-0.3,2.2-0.3,3.4c0,1.2,0.1,2.4,0.3,3.4c0.2,1.1,0.5,2,0.9,2.8c0.4,0.8,1,1.5,1.6,1.9s1.4,0.7,2.3,0.7c1,0,1.7-0.2,2.3-0.6v-5.3
				h-3.1v-5.6h8.7v15.3C355,143.6,353.9,144.2,352.6,144.6z"/>
			<path d="M372.1,144.6l-3.8-11.4h-1.9v11.4h-6.2V116h9.2c2.8,0,4.9,0.7,6.5,2.2s2.3,3.6,2.3,6.5c0,1.1-0.1,2-0.4,2.8
				s-0.6,1.6-0.9,2.1c-0.4,0.6-0.8,1.1-1.3,1.5s-1,0.6-1.4,0.8l4.9,12.8H372.1z M371.7,125c0-0.7-0.1-1.3-0.3-1.8s-0.5-0.8-0.8-1.1
				c-0.3-0.3-0.7-0.5-1.1-0.5c-0.4-0.1-0.8-0.1-1.2-0.1h-2v7.2h1.9c0.9,0,1.7-0.3,2.4-0.9C371.4,127.2,371.7,126.2,371.7,125z"/>
			<path d="M394.6,144.6l-1.2-5.2H387l-1.2,5.2h-6.5l7-28.7h8.1l6.9,28.7H394.6z M390.3,122.2h-0.2l-2.4,12.2h4.9L390.3,122.2z"/>
			<path d="M423.6,130.4c0,2.2-0.2,4.1-0.7,5.9c-0.5,1.8-1.2,3.3-2.2,4.5c-1,1.2-2.2,2.2-3.7,2.9c-1.5,0.7-3.3,1-5.3,1h-8.1V116h8.1
				c2.1,0,3.8,0.3,5.3,1c1.5,0.7,2.7,1.6,3.7,2.9c1,1.3,1.7,2.8,2.2,4.5C423.4,126.2,423.6,128.2,423.6,130.4z M417.1,130.4
				c0-2.9-0.5-5.1-1.5-6.5s-2.3-2.2-3.8-2.2h-1.6V139h1.6c1.6,0,2.8-0.7,3.8-2.2S417.1,133.2,417.1,130.4z"/>
			<path d="M427.3,144.6V116h13.8v5.7h-7.7v5.6h7v5.3h-7v6.2h8.1v5.8H427.3z"/>
			<path d="M457.1,122.8c-0.5-0.6-1.1-1-1.7-1.3c-0.6-0.3-1.3-0.5-2-0.5c-0.7,0-1.4,0.2-2,0.7c-0.6,0.5-0.9,1.2-0.9,2.3
				c0,0.9,0.3,1.6,0.9,2.1c0.6,0.5,1.5,1,2.6,1.6c0.7,0.3,1.3,0.7,2.1,1.2s1.4,1,2,1.6s1.1,1.4,1.5,2.3c0.4,0.9,0.6,2,0.6,3.2
				c0,1.5-0.2,2.9-0.7,4.1c-0.5,1.2-1.1,2.1-2,2.9c-0.8,0.8-1.8,1.4-2.9,1.7c-1.1,0.4-2.2,0.6-3.4,0.6c-1.7,0-3.3-0.3-4.7-1
				c-1.4-0.6-2.6-1.4-3.4-2.3l3.3-4.9c0.6,0.6,1.3,1.2,2.1,1.6c0.8,0.4,1.6,0.6,2.5,0.6c0.8,0,1.4-0.3,2-0.8s0.8-1.2,0.8-2.1
				c0-0.9-0.3-1.7-1-2.2c-0.6-0.6-1.6-1.1-2.8-1.8c-0.8-0.4-1.5-0.8-2.2-1.3s-1.3-1-1.8-1.7c-0.5-0.6-0.9-1.4-1.2-2.3
				c-0.3-0.9-0.4-1.9-0.4-3.1c0-1.6,0.3-3,0.8-4.1c0.5-1.1,1.2-2.1,2.1-2.8c0.9-0.7,1.8-1.3,2.8-1.6c1-0.4,2.1-0.5,3.1-0.5
				c1.6,0,3,0.3,4.2,0.8c1.2,0.5,2.3,1.2,3.1,2.1L457.1,122.8z"/>
		</g>
		<g>
			<path d="M13.1,201.5c-0.1-0.6-0.2-1.2-0.2-1.9c-0.1-0.6-0.1-1.1-0.1-1.5h-0.1c-0.3,1.2-0.8,2.2-1.6,2.9s-1.8,1-3.2,1
				c-0.6,0-1.1-0.1-1.7-0.3c-0.6-0.2-1.1-0.6-1.6-1.1c-0.5-0.5-0.9-1.1-1.2-1.9C3,198,2.9,197.1,2.9,196c0-1.5,0.3-2.7,0.8-3.6
				c0.5-0.9,1.2-1.7,2-2.2c0.8-0.5,1.7-0.9,2.7-1.1c1-0.2,1.9-0.3,2.8-0.3h1.3V188c0-1.6-0.3-2.7-0.9-3.5c-0.6-0.7-1.4-1.1-2.5-1.1
				c-0.8,0-1.5,0.2-2.1,0.6c-0.6,0.4-1.2,0.9-1.7,1.5l-1.7-2.1c0.7-0.9,1.6-1.6,2.6-2.1c1.1-0.5,2.1-0.7,3.2-0.7
				c1.2,0,2.1,0.2,2.9,0.6s1.4,0.9,1.9,1.7c0.5,0.7,0.8,1.6,1,2.7s0.3,2.3,0.3,3.6v8.2c0,0.7,0,1.5,0.1,2.3c0.1,0.8,0.1,1.5,0.2,2
				H13.1z M12.5,191.5H11c-0.6,0-1.2,0.1-1.8,0.2c-0.6,0.1-1.1,0.3-1.6,0.6c-0.5,0.3-0.8,0.7-1.1,1.3c-0.3,0.5-0.4,1.2-0.4,2.1
				c0,1.2,0.3,2.2,0.8,2.7c0.5,0.6,1.2,0.9,1.9,0.9c0.7,0,1.3-0.2,1.8-0.6c0.5-0.4,0.9-1,1.2-1.6c0.3-0.6,0.5-1.4,0.6-2.1
				s0.2-1.5,0.2-2.2V191.5z"/>
			<path d="M31.4,201.5v-13c0-0.6,0-1.1-0.1-1.7c-0.1-0.6-0.2-1.1-0.4-1.6c-0.2-0.5-0.5-0.9-0.9-1.2c-0.4-0.3-0.9-0.4-1.5-0.4
				c-0.6,0-1.1,0.2-1.6,0.5c-0.5,0.3-0.9,0.7-1.3,1.3c-0.4,0.6-0.6,1.2-0.8,2c-0.2,0.8-0.3,1.6-0.3,2.5v11.7h-3.4v-15.2
				c0-0.8,0-1.7,0-2.6c0-0.9-0.1-1.8-0.1-2.5h3.3c0.1,0.7,0.1,1.4,0.2,2s0.1,1.2,0.1,1.5h0.1c0.4-1.2,1-2.2,1.9-3
				c0.9-0.8,2-1.2,3.2-1.2c1.1,0,2,0.2,2.7,0.7c0.7,0.5,1.2,1.1,1.6,1.8c0.4,0.8,0.6,1.6,0.7,2.6c0.1,1,0.2,2,0.2,3v13H31.4z"/>
			<path d="M51.1,201.5v-3.2H51c-0.3,1.1-0.8,2-1.6,2.8c-0.7,0.7-1.8,1.1-3.2,1.1c-1,0-1.9-0.3-2.8-0.8c-0.8-0.6-1.5-1.3-2-2.3
				c-0.6-1-1-2.1-1.3-3.5c-0.3-1.3-0.4-2.8-0.4-4.4c0-1.6,0.1-3,0.4-4.3c0.3-1.3,0.7-2.4,1.2-3.4c0.6-1,1.2-1.7,2-2.2
				c0.8-0.5,1.7-0.8,2.8-0.8c1.2,0,2.2,0.3,3,1s1.4,1.5,1.7,2.6H51v-13.2h3.4v30.6H51.1z M51.1,191.4c0-1.1-0.1-2.1-0.2-3.1
				s-0.4-1.8-0.7-2.5c-0.3-0.7-0.7-1.3-1.2-1.7c-0.5-0.4-1.1-0.6-1.7-0.6c-0.7,0-1.2,0.2-1.7,0.6c-0.5,0.4-0.9,1-1.2,1.7
				c-0.3,0.7-0.5,1.5-0.7,2.5c-0.1,1-0.2,2-0.2,3.1c0,1.1,0.1,2.1,0.2,3.1c0.1,0.9,0.4,1.8,0.7,2.5c0.3,0.7,0.7,1.3,1.2,1.7
				c0.5,0.4,1,0.6,1.7,0.6c0.6,0,1.2-0.2,1.7-0.6c0.5-0.4,0.9-1,1.2-1.7c0.3-0.7,0.6-1.5,0.7-2.5C51,193.5,51.1,192.5,51.1,191.4z"
				/>
			<path d="M71.2,192.2c0,1,0.1,1.9,0.3,2.7c0.2,0.8,0.4,1.6,0.8,2.2c0.3,0.6,0.8,1.1,1.3,1.5c0.5,0.4,1.1,0.5,1.8,0.5
				c0.9,0,1.6-0.3,2.2-0.9c0.5-0.6,1-1.2,1.3-2l2.6,1.5c-0.5,1.3-1.3,2.3-2.3,3.2c-1,0.8-2.3,1.2-3.9,1.2c-2.3,0-4.1-1-5.5-2.9
				c-1.3-1.9-2-4.6-2-8c0-1.6,0.2-3.1,0.5-4.4c0.4-1.3,0.9-2.5,1.5-3.4s1.4-1.7,2.3-2.2s1.9-0.8,3-0.8c1.2,0,2.3,0.3,3.2,0.8
				c0.9,0.5,1.6,1.2,2.1,2.1c0.6,0.9,1,2,1.2,3.2c0.2,1.2,0.4,2.5,0.4,3.9v1.7H71.2z M78.5,189.4c0-1.8-0.3-3.2-0.8-4.3
				c-0.6-1.1-1.4-1.6-2.6-1.6c-0.7,0-1.3,0.2-1.8,0.6c-0.5,0.4-0.9,0.9-1.2,1.5c-0.3,0.6-0.5,1.2-0.6,1.9c-0.1,0.7-0.2,1.3-0.2,1.8
				H78.5z"/>
			<path d="M90,190.8l-4.9-9.6h3.8l3.2,7.1l3.1-7.1h3.7l-4.9,9.6l5.4,10.7h-3.8l-3.6-7.9l-3.6,7.9h-3.7L90,190.8z"/>
			<path d="M106.6,181.2v3.2h0.1c0.3-1.1,0.8-2,1.6-2.8c0.7-0.7,1.8-1.1,3.2-1.1c1,0,1.9,0.3,2.8,0.8c0.8,0.6,1.5,1.3,2,2.3
				c0.6,1,1,2.1,1.3,3.5c0.3,1.3,0.4,2.8,0.4,4.4c0,1.6-0.1,3-0.4,4.3c-0.3,1.3-0.7,2.5-1.2,3.4c-0.6,0.9-1.2,1.7-2,2.2
				c-0.8,0.5-1.7,0.8-2.8,0.8c-1.2,0-2.2-0.3-3-1c-0.8-0.7-1.4-1.6-1.7-2.6h-0.1v12.7h-3.4v-30.1H106.6z M106.6,191.3
				c0,1.1,0.1,2.1,0.2,3.1c0.2,1,0.4,1.8,0.7,2.5c0.3,0.7,0.7,1.3,1.2,1.7c0.5,0.4,1.1,0.6,1.7,0.6c0.7,0,1.2-0.2,1.7-0.6
				c0.5-0.4,0.9-1,1.2-1.7c0.3-0.7,0.5-1.5,0.7-2.5c0.1-1,0.2-2,0.2-3.1c0-1.1-0.1-2.1-0.2-3s-0.4-1.8-0.7-2.5
				c-0.3-0.7-0.7-1.3-1.2-1.7c-0.5-0.4-1-0.6-1.7-0.6c-0.6,0-1.2,0.2-1.7,0.6c-0.5,0.4-0.9,1-1.2,1.7c-0.3,0.7-0.6,1.5-0.7,2.5
				S106.6,190.3,106.6,191.3z"/>
			<path d="M125.4,192.2c0,1,0.1,1.9,0.3,2.7c0.2,0.8,0.4,1.6,0.8,2.2c0.3,0.6,0.8,1.1,1.3,1.5c0.5,0.4,1.1,0.5,1.8,0.5
				c0.9,0,1.6-0.3,2.2-0.9c0.5-0.6,1-1.2,1.3-2l2.6,1.5c-0.5,1.3-1.3,2.3-2.3,3.2c-1,0.8-2.3,1.2-3.9,1.2c-2.3,0-4.1-1-5.5-2.9
				c-1.3-1.9-2-4.6-2-8c0-1.6,0.2-3.1,0.5-4.4c0.4-1.3,0.9-2.5,1.5-3.4s1.4-1.7,2.3-2.2s1.9-0.8,3-0.8c1.2,0,2.3,0.3,3.2,0.8
				c0.9,0.5,1.6,1.2,2.1,2.1c0.6,0.9,1,2,1.2,3.2c0.2,1.2,0.4,2.5,0.4,3.9v1.7H125.4z M132.7,189.4c0-1.8-0.3-3.2-0.8-4.3
				c-0.6-1.1-1.4-1.6-2.6-1.6c-0.7,0-1.3,0.2-1.8,0.6c-0.5,0.4-0.9,0.9-1.2,1.5c-0.3,0.6-0.5,1.2-0.6,1.9c-0.1,0.7-0.2,1.3-0.2,1.8
				H132.7z"/>
			<path d="M146.4,181.7c0.8-0.8,1.7-1.2,2.7-1.2c0.2,0,0.4,0,0.5,0l-0.2,3.6c-0.1,0-0.2,0-0.3-0.1c-0.1,0-0.2,0-0.4,0
				c-0.6,0-1.2,0.2-1.7,0.6c-0.5,0.4-0.9,1-1.3,1.6c-0.3,0.7-0.6,1.4-0.8,2.3c-0.2,0.9-0.3,1.7-0.3,2.6v10.3h-3.5v-15.2
				c0-0.8,0-1.7,0-2.6c0-0.9-0.1-1.8-0.1-2.5h3.3c0.1,0.7,0.1,1.4,0.2,2.1c0,0.7,0.1,1.4,0.1,2.1h0.1
				C145,183.7,145.6,182.5,146.4,181.7z"/>
			<path d="M157,175.1c0,0.7-0.2,1.2-0.6,1.7c-0.4,0.4-0.9,0.6-1.5,0.6c-0.6,0-1.1-0.2-1.5-0.6c-0.4-0.4-0.6-1-0.6-1.7
				c0-0.6,0.2-1.2,0.6-1.6c0.4-0.4,0.9-0.7,1.5-0.7c0.6,0,1.1,0.2,1.5,0.7C156.7,174,157,174.5,157,175.1z M153.1,201.5v-20.3h3.4
				v20.3H153.1z"/>
			<path d="M165.2,192.2c0,1,0.1,1.9,0.3,2.7c0.2,0.8,0.4,1.6,0.8,2.2c0.3,0.6,0.8,1.1,1.3,1.5c0.5,0.4,1.1,0.5,1.8,0.5
				c0.9,0,1.6-0.3,2.2-0.9c0.5-0.6,1-1.2,1.3-2l2.6,1.5c-0.5,1.3-1.3,2.3-2.3,3.2c-1,0.8-2.3,1.2-3.9,1.2c-2.3,0-4.1-1-5.5-2.9
				c-1.3-1.9-2-4.6-2-8c0-1.6,0.2-3.1,0.5-4.4c0.4-1.3,0.9-2.5,1.5-3.4s1.4-1.7,2.3-2.2s1.9-0.8,3-0.8c1.2,0,2.3,0.3,3.2,0.8
				c0.9,0.5,1.6,1.2,2.1,2.1c0.6,0.9,1,2,1.2,3.2c0.2,1.2,0.4,2.5,0.4,3.9v1.7H165.2z M172.5,189.4c0-1.8-0.3-3.2-0.8-4.3
				c-0.6-1.1-1.4-1.6-2.6-1.6c-0.7,0-1.3,0.2-1.8,0.6c-0.5,0.4-0.9,0.9-1.2,1.5c-0.3,0.6-0.5,1.2-0.6,1.9c-0.1,0.7-0.2,1.3-0.2,1.8
				H172.5z"/>
			<path d="M191.3,201.5v-13c0-0.6,0-1.1-0.1-1.7c-0.1-0.6-0.2-1.1-0.4-1.6c-0.2-0.5-0.5-0.9-0.9-1.2c-0.4-0.3-0.9-0.4-1.5-0.4
				c-0.6,0-1.1,0.2-1.6,0.5c-0.5,0.3-0.9,0.7-1.3,1.3c-0.4,0.6-0.6,1.2-0.8,2c-0.2,0.8-0.3,1.6-0.3,2.5v11.7H181v-15.2
				c0-0.8,0-1.7,0-2.6c0-0.9-0.1-1.8-0.1-2.5h3.3c0.1,0.7,0.1,1.4,0.2,2s0.1,1.2,0.1,1.5h0.1c0.4-1.2,1-2.2,1.9-3
				c0.9-0.8,2-1.2,3.2-1.2c1.1,0,2,0.2,2.7,0.7c0.7,0.5,1.2,1.1,1.6,1.8c0.4,0.8,0.6,1.6,0.7,2.6c0.1,1,0.2,2,0.2,3v13H191.3z"/>
			<path d="M207.1,202.2c-1.2,0-2.3-0.3-3.2-0.8c-0.9-0.5-1.7-1.3-2.3-2.2c-0.6-1-1.1-2.1-1.4-3.4c-0.3-1.3-0.5-2.8-0.5-4.4
				c0-1.6,0.2-3.1,0.5-4.4c0.3-1.3,0.8-2.5,1.4-3.4c0.6-1,1.4-1.7,2.3-2.2c0.9-0.5,2-0.8,3.2-0.8c1.1,0,2,0.2,2.7,0.5
				c0.7,0.4,1.3,0.8,1.8,1.2l-1.7,2.6c-0.3-0.4-0.7-0.7-1.1-0.9c-0.4-0.2-1-0.4-1.6-0.4c-0.6,0-1.2,0.2-1.7,0.6
				c-0.5,0.4-0.9,0.9-1.2,1.6c-0.3,0.7-0.5,1.5-0.7,2.5c-0.2,0.9-0.2,2-0.2,3.1s0.1,2.2,0.2,3.1c0.1,0.9,0.4,1.7,0.7,2.4
				c0.3,0.7,0.7,1.2,1.3,1.6c0.5,0.4,1.1,0.6,1.9,0.6c0.6,0,1.2-0.1,1.6-0.4c0.4-0.2,0.8-0.6,1.2-1l1.5,2.7
				C210.6,201.6,209,202.2,207.1,202.2z"/>
			<path d="M217.5,192.2c0,1,0.1,1.9,0.3,2.7c0.2,0.8,0.4,1.6,0.8,2.2c0.3,0.6,0.8,1.1,1.3,1.5c0.5,0.4,1.1,0.5,1.8,0.5
				c0.9,0,1.6-0.3,2.2-0.9c0.5-0.6,1-1.2,1.3-2l2.6,1.5c-0.5,1.3-1.3,2.3-2.3,3.2c-1,0.8-2.3,1.2-3.9,1.2c-2.3,0-4.1-1-5.5-2.9
				c-1.3-1.9-2-4.6-2-8c0-1.6,0.2-3.1,0.5-4.4c0.4-1.3,0.9-2.5,1.5-3.4s1.4-1.7,2.3-2.2s1.9-0.8,3-0.8c1.2,0,2.3,0.3,3.2,0.8
				c0.9,0.5,1.6,1.2,2.1,2.1c0.6,0.9,1,2,1.2,3.2c0.2,1.2,0.4,2.5,0.4,3.9v1.7H217.5z M224.8,189.4c0-1.8-0.3-3.2-0.8-4.3
				c-0.6-1.1-1.4-1.6-2.6-1.6c-0.7,0-1.3,0.2-1.8,0.6c-0.5,0.4-0.9,0.9-1.2,1.5c-0.3,0.6-0.5,1.2-0.6,1.9c-0.1,0.7-0.2,1.3-0.2,1.8
				H224.8z"/>
			<path d="M247.6,205.2c-0.2,0.9-0.5,1.7-0.8,2.5c-0.3,0.7-0.7,1.4-1.1,1.9s-1,0.9-1.6,1.2c-0.6,0.3-1.4,0.4-2.2,0.4
				c-0.5,0-0.9,0-1.3-0.1c-0.4-0.1-0.8-0.1-1.1-0.2l0.4-3.1c0.5,0.2,1.1,0.3,1.6,0.3c0.8,0,1.4-0.2,1.8-0.7s0.7-1.2,0.9-2l0.8-3.2
				l-6-20.9h3.6l4,16.3h0.1l3.6-16.3h3.5L247.6,205.2z"/>
			<path d="M270.9,191.4c0,1.6-0.2,3.1-0.5,4.4c-0.3,1.3-0.8,2.5-1.5,3.4c-0.6,0.9-1.4,1.7-2.3,2.2s-2,0.8-3.1,0.8
				c-1.1,0-2.2-0.3-3.1-0.8s-1.7-1.3-2.3-2.2c-0.6-0.9-1.1-2.1-1.5-3.4c-0.3-1.3-0.5-2.8-0.5-4.4s0.2-3.1,0.5-4.5
				c0.3-1.3,0.8-2.5,1.4-3.4s1.4-1.7,2.3-2.2c0.9-0.5,2-0.8,3.1-0.8s2.2,0.3,3.1,0.8s1.7,1.3,2.3,2.2c0.6,0.9,1.1,2.1,1.5,3.4
				C270.7,188.3,270.9,189.8,270.9,191.4z M267.4,191.4c0-1.1-0.1-2.1-0.2-3.1s-0.4-1.8-0.7-2.5s-0.7-1.3-1.2-1.7
				c-0.5-0.4-1.1-0.6-1.7-0.6c-0.6,0-1.2,0.2-1.7,0.6c-0.5,0.4-0.9,1-1.2,1.7c-0.3,0.7-0.5,1.5-0.7,2.5s-0.2,2-0.2,3.1
				c0,1.1,0.1,2.1,0.2,3.1c0.1,0.9,0.4,1.8,0.7,2.5c0.3,0.7,0.7,1.3,1.2,1.7c0.5,0.4,1.1,0.6,1.7,0.6c0.7,0,1.3-0.2,1.7-0.6
				c0.5-0.4,0.9-1,1.2-1.7c0.3-0.7,0.5-1.5,0.7-2.5C267.3,193.5,267.4,192.5,267.4,191.4z"/>
			<path d="M279.4,181.2v13c0,0.6,0,1.1,0.1,1.7c0.1,0.6,0.2,1.1,0.4,1.6c0.2,0.5,0.5,0.9,0.9,1.2c0.4,0.3,0.9,0.4,1.5,0.4
				c0.6,0,1.1-0.2,1.6-0.5s0.9-0.7,1.3-1.3c0.4-0.6,0.6-1.2,0.8-2c0.2-0.8,0.3-1.6,0.3-2.5v-11.7h3.4v15.2c0,0.8,0,1.7,0,2.6
				c0,0.9,0.1,1.8,0.1,2.5h-3.3c-0.1-0.7-0.1-1.3-0.2-2c0-0.7-0.1-1.2-0.1-1.5h-0.1c-0.4,1.2-1,2.2-1.9,3c-0.9,0.8-2,1.2-3.2,1.2
				c-1.1,0-2-0.2-2.7-0.7c-0.7-0.5-1.2-1.1-1.6-1.8c-0.4-0.7-0.6-1.6-0.7-2.6c-0.1-1-0.2-2-0.2-3v-13H279.4z"/>
			<path d="M301.2,181.7c0.8-0.8,1.7-1.2,2.7-1.2c0.2,0,0.4,0,0.5,0l-0.2,3.6c-0.1,0-0.2,0-0.3-0.1c-0.1,0-0.2,0-0.4,0
				c-0.6,0-1.2,0.2-1.7,0.6c-0.5,0.4-0.9,1-1.3,1.6c-0.3,0.7-0.6,1.4-0.8,2.3c-0.2,0.9-0.3,1.7-0.3,2.6v10.3h-3.5v-15.2
				c0-0.8,0-1.7,0-2.6c0-0.9-0.1-1.8-0.1-2.5h3.3c0.1,0.7,0.1,1.4,0.2,2.1c0,0.7,0.1,1.4,0.1,2.1h0.1
				C299.9,183.7,300.4,182.5,301.2,181.7z"/>
			<path d="M318.3,192.2c0,1,0.1,1.9,0.3,2.7c0.2,0.8,0.4,1.6,0.8,2.2c0.3,0.6,0.8,1.1,1.3,1.5c0.5,0.4,1.1,0.5,1.8,0.5
				c0.9,0,1.6-0.3,2.2-0.9c0.5-0.6,1-1.2,1.3-2l2.6,1.5c-0.5,1.3-1.3,2.3-2.3,3.2c-1,0.8-2.3,1.2-3.9,1.2c-2.3,0-4.1-1-5.5-2.9
				s-2-4.6-2-8c0-1.6,0.2-3.1,0.5-4.4c0.4-1.3,0.9-2.5,1.5-3.4c0.6-1,1.4-1.7,2.3-2.2s1.9-0.8,3-0.8c1.2,0,2.3,0.3,3.2,0.8
				s1.6,1.2,2.1,2.1c0.6,0.9,1,2,1.2,3.2s0.4,2.5,0.4,3.9v1.7H318.3z M325.6,189.4c0-1.8-0.3-3.2-0.8-4.3c-0.6-1.1-1.4-1.6-2.6-1.6
				c-0.7,0-1.3,0.2-1.8,0.6c-0.5,0.4-0.9,0.9-1.2,1.5c-0.3,0.6-0.5,1.2-0.6,1.9c-0.1,0.7-0.2,1.3-0.2,1.8H325.6z"/>
			<path d="M344.3,201.5v-3.2h-0.1c-0.3,1.1-0.8,2-1.6,2.8c-0.7,0.7-1.8,1.1-3.2,1.1c-1,0-1.9-0.3-2.8-0.8c-0.8-0.6-1.5-1.3-2-2.3
				c-0.6-1-1-2.1-1.3-3.5c-0.3-1.3-0.4-2.8-0.4-4.4c0-1.6,0.1-3,0.4-4.3c0.3-1.3,0.7-2.4,1.2-3.4c0.6-1,1.2-1.7,2-2.2
				c0.8-0.5,1.7-0.8,2.8-0.8c1.2,0,2.2,0.3,3,1c0.8,0.7,1.4,1.5,1.7,2.6h0.1v-13.2h3.4v30.6H344.3z M344.3,191.4
				c0-1.1-0.1-2.1-0.2-3.1s-0.4-1.8-0.7-2.5c-0.3-0.7-0.7-1.3-1.2-1.7c-0.5-0.4-1.1-0.6-1.7-0.6c-0.7,0-1.2,0.2-1.7,0.6
				c-0.5,0.4-0.9,1-1.2,1.7c-0.3,0.7-0.5,1.5-0.7,2.5s-0.2,2-0.2,3.1c0,1.1,0.1,2.1,0.2,3.1c0.1,0.9,0.4,1.8,0.7,2.5
				c0.3,0.7,0.7,1.3,1.2,1.7c0.5,0.4,1,0.6,1.7,0.6c0.6,0,1.2-0.2,1.7-0.6c0.5-0.4,0.9-1,1.2-1.7c0.3-0.7,0.6-1.5,0.7-2.5
				C344.2,193.5,344.3,192.5,344.3,191.4z"/>
			<path d="M356.6,181.2v13c0,0.6,0,1.1,0.1,1.7c0.1,0.6,0.2,1.1,0.4,1.6c0.2,0.5,0.5,0.9,0.9,1.2c0.4,0.3,0.9,0.4,1.5,0.4
				c0.6,0,1.1-0.2,1.6-0.5s0.9-0.7,1.3-1.3c0.4-0.6,0.6-1.2,0.8-2c0.2-0.8,0.3-1.6,0.3-2.5v-11.7h3.4v15.2c0,0.8,0,1.7,0,2.6
				c0,0.9,0.1,1.8,0.1,2.5h-3.3c-0.1-0.7-0.1-1.3-0.2-2c0-0.7-0.1-1.2-0.1-1.5h-0.1c-0.4,1.2-1,2.2-1.9,3c-0.9,0.8-2,1.2-3.2,1.2
				c-1.1,0-2-0.2-2.7-0.7c-0.7-0.5-1.2-1.1-1.6-1.8c-0.4-0.7-0.6-1.6-0.7-2.6c-0.1-1-0.2-2-0.2-3v-13H356.6z"/>
			<path d="M378.8,202.2c-1.2,0-2.3-0.3-3.2-0.8s-1.7-1.3-2.3-2.2c-0.6-1-1.1-2.1-1.4-3.4c-0.3-1.3-0.5-2.8-0.5-4.4
				c0-1.6,0.2-3.1,0.5-4.4c0.3-1.3,0.8-2.5,1.4-3.4s1.4-1.7,2.3-2.2c0.9-0.5,2-0.8,3.2-0.8c1.1,0,2,0.2,2.7,0.5
				c0.7,0.4,1.3,0.8,1.8,1.2l-1.7,2.6c-0.3-0.4-0.7-0.7-1.1-0.9c-0.4-0.2-1-0.4-1.6-0.4c-0.6,0-1.2,0.2-1.7,0.6
				c-0.5,0.4-0.9,0.9-1.2,1.6c-0.3,0.7-0.5,1.5-0.7,2.5c-0.2,0.9-0.2,2-0.2,3.1s0.1,2.2,0.2,3.1c0.1,0.9,0.4,1.7,0.7,2.4
				c0.3,0.7,0.7,1.2,1.3,1.6s1.1,0.6,1.9,0.6c0.6,0,1.2-0.1,1.6-0.4c0.4-0.2,0.8-0.6,1.2-1l1.5,2.7
				C382.3,201.6,380.7,202.2,378.8,202.2z"/>
			<path d="M395.7,201.5c-0.1-0.6-0.2-1.2-0.2-1.9c-0.1-0.6-0.1-1.1-0.1-1.5h-0.1c-0.3,1.2-0.8,2.2-1.6,2.9s-1.8,1-3.2,1
				c-0.6,0-1.1-0.1-1.7-0.3c-0.6-0.2-1.1-0.6-1.6-1.1c-0.5-0.5-0.9-1.1-1.2-1.9c-0.3-0.8-0.5-1.7-0.5-2.8c0-1.5,0.3-2.7,0.8-3.6
				c0.5-0.9,1.2-1.7,2-2.2c0.8-0.5,1.7-0.9,2.7-1.1c1-0.2,1.9-0.3,2.8-0.3h1.3V188c0-1.6-0.3-2.7-0.9-3.5c-0.6-0.7-1.4-1.1-2.5-1.1
				c-0.8,0-1.5,0.2-2.1,0.6c-0.6,0.4-1.2,0.9-1.7,1.5l-1.7-2.1c0.7-0.9,1.6-1.6,2.6-2.1c1.1-0.5,2.1-0.7,3.2-0.7
				c1.2,0,2.1,0.2,2.9,0.6c0.8,0.4,1.4,0.9,1.9,1.7c0.5,0.7,0.8,1.6,1,2.7s0.3,2.3,0.3,3.6v8.2c0,0.7,0,1.5,0.1,2.3
				c0.1,0.8,0.1,1.5,0.2,2H395.7z M395.1,191.5h-1.5c-0.6,0-1.2,0.1-1.8,0.2c-0.6,0.1-1.1,0.3-1.6,0.6c-0.5,0.3-0.8,0.7-1.1,1.3
				c-0.3,0.5-0.4,1.2-0.4,2.1c0,1.2,0.3,2.2,0.8,2.7c0.5,0.6,1.2,0.9,1.9,0.9c0.7,0,1.3-0.2,1.8-0.6c0.5-0.4,0.9-1,1.2-1.6
				c0.3-0.6,0.5-1.4,0.6-2.1c0.1-0.8,0.2-1.5,0.2-2.2V191.5z"/>
			<path d="M410.2,201.9c-0.5,0.1-1,0.2-1.5,0.2c-1.6,0-2.7-0.5-3.3-1.5c-0.7-1-1-2.4-1-4.2V184h-2.6v-2.8h2.6v-5.4h3.4v5.4h3.6v2.8
				h-3.6v11.7c0,1.2,0.2,2,0.5,2.6c0.4,0.5,0.9,0.8,1.6,0.8c0.2,0,0.5,0,0.8-0.1c0.3-0.1,0.5-0.1,0.7-0.2l0.1,2.8
				C411,201.6,410.6,201.8,410.2,201.9z"/>
			<path d="M419,175.1c0,0.7-0.2,1.2-0.6,1.7c-0.4,0.4-0.9,0.6-1.5,0.6c-0.6,0-1.1-0.2-1.5-0.6c-0.4-0.4-0.6-1-0.6-1.7
				c0-0.6,0.2-1.2,0.6-1.6s0.9-0.7,1.5-0.7c0.6,0,1.1,0.2,1.5,0.7C418.8,174,419,174.5,419,175.1z M415.1,201.5v-20.3h3.4v20.3
				H415.1z"/>
			<path d="M438.5,191.4c0,1.6-0.2,3.1-0.5,4.4c-0.3,1.3-0.8,2.5-1.5,3.4c-0.6,0.9-1.4,1.7-2.3,2.2s-2,0.8-3.1,0.8
				c-1.1,0-2.2-0.3-3.1-0.8s-1.7-1.3-2.3-2.2c-0.6-0.9-1.1-2.1-1.5-3.4c-0.3-1.3-0.5-2.8-0.5-4.4s0.2-3.1,0.5-4.5
				c0.3-1.3,0.8-2.5,1.4-3.4s1.4-1.7,2.3-2.2c0.9-0.5,2-0.8,3.1-0.8s2.2,0.3,3.1,0.8s1.7,1.3,2.3,2.2c0.6,0.9,1.1,2.1,1.5,3.4
				C438.4,188.3,438.5,189.8,438.5,191.4z M435,191.4c0-1.1-0.1-2.1-0.2-3.1s-0.4-1.8-0.7-2.5s-0.7-1.3-1.2-1.7
				c-0.5-0.4-1.1-0.6-1.7-0.6c-0.6,0-1.2,0.2-1.7,0.6c-0.5,0.4-0.9,1-1.2,1.7c-0.3,0.7-0.5,1.5-0.7,2.5s-0.2,2-0.2,3.1
				c0,1.1,0.1,2.1,0.2,3.1c0.1,0.9,0.4,1.8,0.7,2.5c0.3,0.7,0.7,1.3,1.2,1.7c0.5,0.4,1.1,0.6,1.7,0.6c0.7,0,1.3-0.2,1.7-0.6
				c0.5-0.4,0.9-1,1.2-1.7c0.3-0.7,0.5-1.5,0.7-2.5C434.9,193.5,435,192.5,435,191.4z"/>
			<path d="M454,201.5v-13c0-0.6,0-1.1-0.1-1.7c-0.1-0.6-0.2-1.1-0.4-1.6s-0.5-0.9-0.9-1.2c-0.4-0.3-0.9-0.4-1.5-0.4
				c-0.6,0-1.1,0.2-1.6,0.5c-0.5,0.3-0.9,0.7-1.3,1.3c-0.4,0.6-0.6,1.2-0.8,2c-0.2,0.8-0.3,1.6-0.3,2.5v11.7h-3.4v-15.2
				c0-0.8,0-1.7,0-2.6c0-0.9-0.1-1.8-0.1-2.5h3.3c0.1,0.7,0.1,1.4,0.2,2c0,0.7,0.1,1.2,0.1,1.5h0.1c0.4-1.2,1-2.2,1.9-3
				c0.9-0.8,2-1.2,3.2-1.2c1.1,0,2,0.2,2.7,0.7c0.7,0.5,1.2,1.1,1.6,1.8c0.4,0.8,0.6,1.6,0.7,2.6c0.1,1,0.2,2,0.2,3v13H454z"/>
			<path d="M10.4,258.9c-0.5,0.1-1,0.2-1.5,0.2c-1.6,0-2.7-0.5-3.3-1.5c-0.7-1-1-2.4-1-4.2V241H2v-2.8h2.6v-5.4h3.4v5.4h3.6v2.8H7.9
				v11.7c0,1.2,0.2,2,0.5,2.6c0.4,0.5,0.9,0.8,1.6,0.8c0.2,0,0.5,0,0.8-0.1c0.3-0.1,0.5-0.1,0.7-0.2l0.1,2.8
				C11.3,258.6,10.9,258.8,10.4,258.9z"/>
			<path d="M18.8,258.5h-3.5v-30.6h3.5v13.7h0.1c0.4-1.1,1-2.1,1.8-2.9c0.9-0.8,1.9-1.2,3.2-1.2c1.1,0,2,0.2,2.7,0.7
				c0.7,0.5,1.2,1.1,1.6,1.8c0.4,0.8,0.6,1.6,0.7,2.6c0.1,1,0.2,2,0.2,3v13h-3.5v-13c0-0.6,0-1.1-0.1-1.7c-0.1-0.6-0.2-1.1-0.4-1.6
				s-0.5-0.9-0.9-1.2c-0.4-0.3-0.9-0.4-1.5-0.4c-0.6,0-1.1,0.2-1.6,0.5c-0.5,0.3-0.9,0.7-1.3,1.3c-0.4,0.6-0.6,1.2-0.8,2
				c-0.2,0.8-0.3,1.6-0.3,2.5V258.5z"/>
			<path d="M37.6,249.2c0,1,0.1,1.9,0.3,2.7c0.2,0.8,0.4,1.6,0.8,2.2c0.3,0.6,0.8,1.1,1.3,1.5c0.5,0.4,1.1,0.5,1.8,0.5
				c0.9,0,1.6-0.3,2.2-0.9c0.5-0.6,1-1.2,1.3-2l2.6,1.5c-0.5,1.3-1.3,2.3-2.3,3.2c-1,0.8-2.3,1.2-3.9,1.2c-2.3,0-4.1-1-5.5-2.9
				c-1.3-1.9-2-4.6-2-8c0-1.6,0.2-3.1,0.5-4.4c0.4-1.3,0.9-2.5,1.5-3.4s1.4-1.7,2.3-2.2s1.9-0.8,3-0.8c1.2,0,2.3,0.3,3.2,0.8
				c0.9,0.5,1.6,1.2,2.1,2.1c0.6,0.9,1,2,1.2,3.2c0.2,1.2,0.4,2.5,0.4,3.9v1.7H37.6z M44.9,246.4c0-1.8-0.3-3.2-0.8-4.3
				c-0.6-1.1-1.4-1.6-2.6-1.6c-0.7,0-1.3,0.2-1.8,0.6c-0.5,0.4-0.9,0.9-1.2,1.5c-0.3,0.6-0.5,1.2-0.6,1.9c-0.1,0.7-0.2,1.3-0.2,1.8
				H44.9z"/>
			<path d="M77.7,258.5h-4l-3.1-15.4h0l-3.2,15.4h-3.8l-4.2-20.3h3.5l2.8,16.4h0.1l3.3-16.4h3.2l3.4,16.4h0l2.9-16.4H82L77.7,258.5z
				"/>
			<path d="M94.9,258.5c-0.1-0.6-0.2-1.2-0.2-1.9c-0.1-0.6-0.1-1.1-0.1-1.5h-0.1c-0.3,1.2-0.8,2.2-1.6,2.9s-1.8,1-3.2,1
				c-0.6,0-1.1-0.1-1.7-0.3c-0.6-0.2-1.1-0.6-1.6-1.1c-0.5-0.5-0.9-1.1-1.2-1.9c-0.3-0.8-0.5-1.7-0.5-2.8c0-1.5,0.3-2.7,0.8-3.6
				c0.5-0.9,1.2-1.7,2-2.2c0.8-0.5,1.7-0.9,2.7-1.1c1-0.2,1.9-0.3,2.8-0.3h1.3V245c0-1.6-0.3-2.7-0.9-3.5c-0.6-0.7-1.4-1.1-2.5-1.1
				c-0.8,0-1.5,0.2-2.1,0.6c-0.6,0.4-1.2,0.9-1.7,1.5l-1.7-2.1c0.7-0.9,1.6-1.6,2.6-2.1c1.1-0.5,2.1-0.7,3.2-0.7
				c1.2,0,2.1,0.2,2.9,0.6s1.4,0.9,1.9,1.7c0.5,0.7,0.8,1.6,1,2.7s0.3,2.3,0.3,3.6v8.2c0,0.7,0,1.5,0.1,2.3c0.1,0.8,0.1,1.5,0.2,2
				H94.9z M94.3,248.5h-1.5c-0.6,0-1.2,0.1-1.8,0.2c-0.6,0.1-1.1,0.3-1.6,0.6c-0.5,0.3-0.8,0.7-1.1,1.3c-0.3,0.5-0.4,1.2-0.4,2.1
				c0,1.2,0.3,2.2,0.8,2.7c0.5,0.6,1.2,0.9,1.9,0.9c0.7,0,1.3-0.2,1.8-0.6c0.5-0.4,0.9-1,1.2-1.6c0.3-0.6,0.5-1.4,0.6-2.1
				s0.2-1.5,0.2-2.2V248.5z"/>
			<path d="M109.5,262.2c-0.2,0.9-0.5,1.7-0.8,2.5c-0.3,0.7-0.7,1.4-1.1,1.9c-0.4,0.5-1,0.9-1.6,1.2s-1.4,0.4-2.2,0.4
				c-0.5,0-0.9,0-1.3-0.1c-0.4-0.1-0.8-0.1-1.1-0.2l0.4-3.1c0.5,0.2,1.1,0.3,1.6,0.3c0.8,0,1.4-0.2,1.8-0.7c0.4-0.5,0.7-1.2,0.9-2
				l0.8-3.2l-6-20.9h3.6l4,16.3h0.1l3.6-16.3h3.5L109.5,262.2z"/>
			<path d="M134,262.2c-0.2,0.9-0.5,1.7-0.8,2.5c-0.3,0.7-0.7,1.4-1.1,1.9c-0.4,0.5-1,0.9-1.6,1.2s-1.4,0.4-2.2,0.4
				c-0.5,0-0.9,0-1.3-0.1c-0.4-0.1-0.8-0.1-1.1-0.2l0.4-3.1c0.5,0.2,1.1,0.3,1.6,0.3c0.8,0,1.4-0.2,1.8-0.7c0.4-0.5,0.7-1.2,0.9-2
				l0.8-3.2l-6-20.9h3.6l4,16.3h0.1l3.6-16.3h3.5L134,262.2z"/>
			<path d="M157.8,248.4c0,1.6-0.2,3.1-0.5,4.4c-0.3,1.3-0.8,2.5-1.5,3.4c-0.6,0.9-1.4,1.7-2.3,2.2c-0.9,0.5-2,0.8-3.1,0.8
				c-1.1,0-2.2-0.3-3.1-0.8c-0.9-0.5-1.7-1.3-2.3-2.2c-0.6-0.9-1.1-2.1-1.5-3.4c-0.3-1.3-0.5-2.8-0.5-4.4s0.2-3.1,0.5-4.5
				c0.3-1.3,0.8-2.5,1.4-3.4c0.6-0.9,1.4-1.7,2.3-2.2c0.9-0.5,2-0.8,3.1-0.8c1.2,0,2.2,0.3,3.1,0.8c0.9,0.5,1.7,1.3,2.3,2.2
				c0.6,0.9,1.1,2.1,1.5,3.4C157.6,245.3,157.8,246.8,157.8,248.4z M154.2,248.4c0-1.1-0.1-2.1-0.2-3.1c-0.1-1-0.4-1.8-0.7-2.5
				c-0.3-0.7-0.7-1.3-1.2-1.7c-0.5-0.4-1.1-0.6-1.7-0.6s-1.2,0.2-1.7,0.6c-0.5,0.4-0.9,1-1.2,1.7c-0.3,0.7-0.5,1.5-0.7,2.5
				c-0.1,1-0.2,2-0.2,3.1c0,1.1,0.1,2.1,0.2,3.1c0.1,0.9,0.4,1.8,0.7,2.5c0.3,0.7,0.7,1.3,1.2,1.7c0.5,0.4,1.1,0.6,1.7,0.6
				c0.7,0,1.3-0.2,1.7-0.6c0.5-0.4,0.9-1,1.2-1.7c0.3-0.7,0.5-1.5,0.7-2.5C154.2,250.5,154.2,249.5,154.2,248.4z"/>
			<path d="M166.3,238.2v13c0,0.6,0,1.1,0.1,1.7c0.1,0.6,0.2,1.1,0.4,1.6c0.2,0.5,0.5,0.9,0.9,1.2c0.4,0.3,0.9,0.4,1.5,0.4
				c0.6,0,1.1-0.2,1.6-0.5s0.9-0.7,1.3-1.3c0.4-0.6,0.6-1.2,0.8-2s0.3-1.6,0.3-2.5v-11.7h3.4v15.2c0,0.8,0,1.7,0,2.6
				c0,0.9,0.1,1.8,0.1,2.5h-3.3c-0.1-0.7-0.1-1.3-0.2-2c0-0.7-0.1-1.2-0.1-1.5h-0.1c-0.4,1.2-1,2.2-1.9,3c-0.9,0.8-2,1.2-3.2,1.2
				c-1.1,0-2-0.2-2.7-0.7c-0.7-0.5-1.2-1.1-1.6-1.8c-0.4-0.7-0.6-1.6-0.7-2.6c-0.1-1-0.2-2-0.2-3v-13H166.3z"/>
			<path d="M191.1,258.5v-28.7h3.6v28.7H191.1z"/>
			<path d="M221.1,258.5v-23.7h-0.1l-6.4,23.7h-3.3l-6.3-23.7h-0.1v23.7h-3.4v-28.7h5.4l6.1,22.8h0.2l6-22.8h5.6v28.7H221.1z"/>
			<path d="M243.8,258.5l-1.6-6.7h-8.3l-1.7,6.7h-3.7l7.2-28.7h4.8l7,28.7H243.8z M238.1,233.2H238l-3.6,15.7h7.3L238.1,233.2z"/>
			<path d="M260.3,229.2c1.5,0,2.9,0.3,4.1,0.9c1.2,0.6,2.2,1.4,3,2.6l-2.3,2.5c-0.6-0.9-1.3-1.5-2.1-1.9c-0.8-0.4-1.6-0.6-2.6-0.6
				c-1.1,0-2.1,0.3-2.9,0.9c-0.8,0.6-1.5,1.5-2,2.5c-0.5,1.1-0.9,2.3-1.2,3.7c-0.3,1.4-0.4,2.9-0.4,4.5c0,1.6,0.1,3.2,0.4,4.6
				c0.3,1.4,0.7,2.6,1.3,3.7c0.6,1,1.2,1.9,2.1,2.5s1.8,0.9,3,0.9c1.5,0,2.7-0.3,3.4-1v-8.9h-3.8v-3.2h7.3v14
				c-0.8,0.7-1.8,1.3-2.9,1.7c-1.1,0.4-2.5,0.6-4.1,0.6c-1.6,0-3.1-0.4-4.4-1.1s-2.4-1.7-3.3-3c-0.9-1.3-1.6-2.9-2.1-4.7
				c-0.5-1.8-0.7-3.9-0.7-6.1c0-2.2,0.2-4.2,0.7-6c0.5-1.8,1.1-3.4,2-4.7c0.9-1.3,1.9-2.4,3.2-3.1S258.7,229.2,260.3,229.2z"/>
			<path d="M273.7,258.5v-28.7h3.6v28.7H273.7z"/>
			<path d="M296.7,258.5l-9.2-22.2h-0.1v22.2H284v-28.7h4.4l9,22.3h0.1v-22.3h3.4v28.7H296.7z"/>
			<path d="M307.6,258.5v-28.7h12.1v3.2h-8.5v9h8v3h-8v10.1h9v3.3H307.6z"/>
		</g>
	</g>
</g>
<g id="Layer_1">
	<g>
		<g>
			<path fill="#FFFFFF" d="M30.8,0c4.3,0,8.1,0.8,11.5,2.4c3.3,1.6,6.1,4,8.3,7.3l-6.4,6.9c-1.7-2.4-3.6-4.2-5.8-5.5
				c-2.2-1.2-4.6-1.8-7.2-1.8c-3.1,0-5.8,0.9-8,2.6C21,13.7,19.2,16,17.7,19c-1.5,3-2.6,6.5-3.4,10.4c-0.7,4-1.1,8.2-1.1,12.5
				c0,4.6,0.4,8.9,1.2,12.9c0.8,4,2,7.4,3.5,10.3c1.6,2.9,3.5,5.2,5.8,6.9c2.3,1.7,5.1,2.5,8.3,2.5c4.2,0,7.5-0.9,9.7-2.7V47H31.2
				v-8.9h20.4v39.2c-2.3,2-5.1,3.5-8.2,4.7c-3.1,1.2-7,1.8-11.5,1.8c-4.6,0-8.7-1-12.4-3c-3.6-2-6.7-4.8-9.3-8.5
				c-2.5-3.6-4.5-8-5.8-13.2c-1.3-5.1-2-10.9-2-17.1c0-6.1,0.6-11.6,1.9-16.7c1.3-5.1,3.1-9.5,5.6-13.3c2.4-3.7,5.4-6.7,8.9-8.8
				C22.4,1.1,26.4,0,30.8,0z"/>
			<path fill="#FFFFFF" d="M115.5,42c0,6.3-0.6,12-1.9,17.2c-1.2,5.2-3.1,9.6-5.5,13.3c-2.4,3.7-5.3,6.6-8.6,8.6
				c-3.4,2-7.2,3.1-11.5,3.1s-8.2-1-11.6-3.1c-3.4-2-6.3-4.9-8.7-8.6c-2.4-3.7-4.2-8.2-5.5-13.3C61.1,54,60.5,48.3,60.5,42
				c0-6.3,0.6-12,1.8-17.2c1.2-5.2,3-9.6,5.3-13.3C70,7.9,72.9,5,76.3,3c3.4-2,7.4-3,11.8-3c4.3,0,8.2,1,11.5,3
				c3.4,2,6.2,4.8,8.6,8.5c2.4,3.7,4.2,8.1,5.5,13.3C114.9,30,115.5,35.7,115.5,42z M104.7,42c0-4.5-0.4-8.8-1.1-12.8
				c-0.7-4-1.8-7.5-3.2-10.4c-1.4-3-3.1-5.3-5.2-7c-2.1-1.7-4.5-2.6-7.2-2.6c-2.8,0-5.3,0.9-7.4,2.6c-2.1,1.7-3.9,4-5.3,7
				c-1.4,3-2.4,6.4-3.1,10.4c-0.7,4-1,8.3-1,12.8s0.3,8.8,1,12.8c0.7,4,1.7,7.5,3.1,10.4c1.4,3,3.2,5.3,5.3,7
				c2.1,1.7,4.6,2.6,7.4,2.6c2.7,0,5.1-0.9,7.2-2.6c2.1-1.7,3.8-4,5.2-7c1.4-3,2.5-6.4,3.2-10.4C104.4,50.8,104.7,46.6,104.7,42z"/>
			<path fill="#FFFFFF" d="M174.2,40.1c1.4,0.3,3,0.9,4.6,1.8c1.6,0.9,3.1,2.2,4.5,3.8c1.4,1.6,2.5,3.6,3.4,6
				c0.9,2.4,1.4,5.2,1.4,8.5c0,4.2-0.7,7.6-2,10.4c-1.4,2.8-3.1,5.1-5.2,6.8c-2.1,1.7-4.5,3-7.1,3.7c-2.6,0.8-5.1,1.1-7.5,1.1h-21.7
				V1.9h19.3c2.3,0,4.7,0.3,7.2,0.9c2.5,0.6,4.9,1.6,7,3.1c2.1,1.5,3.9,3.6,5.2,6.1c1.4,2.6,2,5.8,2,9.8c0,2.7-0.3,5-0.9,6.9
				c-0.6,2-1.4,3.7-2.4,5.2c-1,1.5-2.2,2.7-3.5,3.7c-1.3,1-2.7,1.7-4.1,2.3V40.1z M175.7,23.3c0-2.4-0.4-4.5-1.1-6.1
				c-0.8-1.6-1.7-3-3-4c-1.2-1-2.6-1.7-4.1-2.2c-1.6-0.4-3.2-0.6-4.8-0.6h-8.5v26h8.7c1.5,0,3-0.2,4.6-0.7c1.6-0.5,2.9-1.3,4.1-2.3
				c1.2-1,2.2-2.4,3-4C175.3,27.7,175.7,25.7,175.7,23.3z M177.9,59.6c0-2.7-0.4-5.1-1.3-7c-0.9-1.9-2-3.5-3.3-4.7
				c-1.4-1.2-2.9-2-4.6-2.6s-3.4-0.8-5.1-0.8h-9.4v29.3h9.9c1.9,0,3.7-0.3,5.4-0.9c1.7-0.6,3.2-1.4,4.4-2.6c1.2-1.1,2.2-2.6,3-4.4
				C177.5,64.2,177.9,62.1,177.9,59.6z"/>
			<path fill="#FFFFFF" d="M197.9,82.3V1.9h33.8V11h-24v25.3h22.4v8.5h-22.4v28.3h25.1v9.2H197.9z"/>
			<path fill="#FFFFFF" d="M263.8,50.2v32.1h-10.2V50.2l-20-48.3h11.1l14,37.8l14.4-37.8H284L263.8,50.2z"/>
			<path fill="#FFFFFF" d="M337.2,42c0,6.3-0.6,12-1.9,17.2c-1.2,5.2-3.1,9.6-5.4,13.3c-2.4,3.7-5.3,6.6-8.6,8.6
				c-3.4,2-7.2,3.1-11.5,3.1s-8.2-1-11.6-3.1s-6.3-4.9-8.7-8.6c-2.4-3.7-4.2-8.2-5.5-13.3c-1.2-5.2-1.9-10.9-1.9-17.2
				c0-6.3,0.6-12,1.8-17.2c1.2-5.2,3-9.6,5.3-13.3c2.3-3.7,5.2-6.5,8.7-8.5c3.4-2,7.4-3,11.8-3c4.3,0,8.2,1,11.5,3
				c3.4,2,6.2,4.8,8.6,8.5c2.4,3.7,4.2,8.1,5.4,13.3C336.6,30,337.2,35.7,337.2,42z M326.4,42c0-4.5-0.4-8.8-1.1-12.8
				c-0.7-4-1.8-7.5-3.2-10.4s-3.1-5.3-5.2-7c-2.1-1.7-4.5-2.6-7.2-2.6c-2.8,0-5.3,0.9-7.4,2.6s-3.9,4-5.3,7c-1.4,3-2.4,6.4-3.1,10.4
				c-0.7,4-1,8.3-1,12.8s0.3,8.8,1,12.8c0.7,4,1.7,7.5,3.1,10.4c1.4,3,3.2,5.3,5.3,7s4.6,2.6,7.4,2.6c2.7,0,5.1-0.9,7.2-2.6
				c2.1-1.7,3.8-4,5.2-7s2.5-6.4,3.2-10.4C326,50.8,326.4,46.6,326.4,42z"/>
			<path fill="#FFFFFF" d="M383.4,82.3L357.7,20h-0.3v62.3H348V1.9h12.3l25.3,62.5h0.3V1.9h9.4v80.4H383.4z"/>
			<path fill="#FFFFFF" d="M458.2,42.2c0,13-2.7,23-7.9,29.8c-5.3,6.9-12.7,10.3-22.3,10.3h-18.4V1.9h18.5c9.5,0,16.9,3.4,22.2,10.3
				C455.6,19.2,458.2,29.1,458.2,42.2z M448,42.2c0-5.3-0.5-9.9-1.5-13.9c-1-3.9-2.4-7.2-4.2-9.8c-1.8-2.6-3.9-4.5-6.3-5.8
				c-2.4-1.3-5.1-1.9-7.9-1.9h-8.3v62.5h8.3c2.8,0,5.4-0.6,7.9-1.9c2.5-1.3,4.6-3.2,6.3-5.8c1.8-2.6,3.2-5.8,4.2-9.7
				C447.5,52,448,47.5,448,42.2z"/>
		</g>
		<g>
			<path fill="#FFFFFF" d="M22.6,141.6l0.2-19.7h-0.2l-4.8,19.7h-4.6L8.6,122H8.5l0.2,19.7H2.8V113H11l4.6,18.5h0.2l4.5-18.5h8.7
				v28.7H22.6z"/>
			<path fill="#FFFFFF" d="M46.6,141.6l-1.2-5.2h-6.4l-1.2,5.2h-6.5l7-28.7h8.1l6.9,28.7H46.6z M42.3,119.2h-0.2l-2.4,12.2h4.9
				L42.3,119.2z"/>
			<path fill="#FFFFFF" d="M67.3,139.7c-1.3,1.7-3.4,2.6-6.3,2.6c-2,0-3.7-0.6-5.1-1.7c-1.4-1.1-2.3-2.6-2.8-4.5l5.3-2.3
				c0.2,0.6,0.4,1.2,0.8,1.7c0.4,0.5,0.9,0.7,1.5,0.7c0.9,0,1.5-0.4,1.8-1.1c0.3-0.7,0.4-1.7,0.4-3V113h6.4v19.6
				C69.3,135.6,68.6,138,67.3,139.7z"/>
			<path fill="#FFFFFF" d="M94.5,127.2c0,2.3-0.3,4.3-0.8,6.2c-0.5,1.9-1.2,3.5-2.2,4.8c-0.9,1.3-2.1,2.3-3.5,3.1
				c-1.4,0.7-2.9,1.1-4.6,1.1c-1.7,0-3.2-0.4-4.6-1.1c-1.4-0.7-2.5-1.8-3.5-3.1c-0.9-1.3-1.7-2.9-2.2-4.8c-0.5-1.9-0.8-3.9-0.8-6.2
				c0-2.3,0.2-4.3,0.7-6.2c0.5-1.8,1.2-3.4,2.2-4.7c0.9-1.3,2.1-2.3,3.5-3c1.4-0.7,2.9-1.1,4.6-1.1c1.7,0,3.2,0.4,4.6,1.1
				c1.4,0.7,2.5,1.7,3.5,3c0.9,1.3,1.7,2.9,2.2,4.7C94.3,122.9,94.5,124.9,94.5,127.2z M87.9,127.2c0-1.2-0.1-2.4-0.3-3.5
				c-0.2-1.1-0.5-2-0.8-2.8c-0.4-0.8-0.8-1.4-1.4-1.8c-0.5-0.4-1.2-0.7-1.9-0.7s-1.4,0.2-1.9,0.7c-0.6,0.4-1,1.1-1.4,1.8
				c-0.4,0.8-0.6,1.7-0.8,2.8c-0.2,1.1-0.3,2.2-0.3,3.5s0.1,2.4,0.3,3.5c0.2,1.1,0.4,2,0.8,2.8c0.4,0.8,0.8,1.4,1.4,1.9
				c0.6,0.5,1.2,0.7,1.9,0.7s1.4-0.2,1.9-0.7c0.5-0.5,1-1.1,1.4-1.9c0.4-0.8,0.6-1.7,0.8-2.8C87.8,129.6,87.9,128.5,87.9,127.2z"/>
			<path fill="#FFFFFF" d="M109.8,141.6l-3.8-11.4h-1.9v11.4h-6.2V113h9.2c2.8,0,4.9,0.7,6.5,2.2c1.5,1.4,2.3,3.6,2.3,6.5
				c0,1.1-0.1,2-0.4,2.8c-0.2,0.8-0.6,1.6-0.9,2.1c-0.4,0.6-0.8,1.1-1.3,1.5c-0.5,0.4-1,0.6-1.4,0.8l4.9,12.8H109.8z M109.4,122
				c0-0.7-0.1-1.3-0.3-1.8c-0.2-0.5-0.5-0.8-0.8-1.1c-0.3-0.3-0.7-0.5-1.1-0.5c-0.4-0.1-0.8-0.1-1.2-0.1h-2v7.2h1.9
				c0.9,0,1.7-0.3,2.4-0.9C109.1,124.2,109.4,123.2,109.4,122z"/>
			<path fill="#FFFFFF" d="M131.4,119.8c-0.5-0.6-1.1-1-1.7-1.3s-1.3-0.5-2-0.5c-0.7,0-1.4,0.2-2,0.7c-0.6,0.5-0.9,1.2-0.9,2.3
				c0,0.9,0.3,1.6,0.9,2.1c0.6,0.5,1.5,1,2.6,1.6c0.7,0.3,1.3,0.7,2.1,1.2s1.4,1,2,1.6s1.1,1.4,1.5,2.3c0.4,0.9,0.6,2,0.6,3.2
				c0,1.5-0.2,2.9-0.7,4.1c-0.5,1.2-1.1,2.1-2,2.9c-0.8,0.8-1.8,1.4-2.9,1.7c-1.1,0.4-2.2,0.6-3.4,0.6c-1.7,0-3.3-0.3-4.7-1
				c-1.4-0.6-2.6-1.4-3.4-2.3l3.3-4.9c0.6,0.6,1.3,1.2,2.1,1.6c0.8,0.4,1.6,0.6,2.5,0.6c0.8,0,1.4-0.3,2-0.8
				c0.5-0.5,0.8-1.2,0.8-2.1c0-0.9-0.3-1.7-1-2.2c-0.6-0.6-1.6-1.1-2.8-1.8c-0.8-0.4-1.5-0.8-2.2-1.3s-1.3-1-1.8-1.7
				c-0.5-0.6-0.9-1.4-1.2-2.3c-0.3-0.9-0.4-1.9-0.4-3.1c0-1.6,0.3-3,0.8-4.1c0.5-1.1,1.2-2.1,2.1-2.8s1.8-1.3,2.8-1.6
				c1-0.4,2.1-0.5,3.1-0.5c1.6,0,3,0.3,4.2,0.8c1.2,0.5,2.3,1.2,3.1,2.1L131.4,119.8z"/>
			<path fill="#FFFFFF" d="M139.6,146.4h-4.7l2.4-11.5h5.5L139.6,146.4z"/>
			<path fill="#FFFFFF" d="M169.4,141.3c-1.3,0.7-2.9,1.1-4.9,1.1c-1.7,0-3.2-0.4-4.6-1.1c-1.4-0.7-2.5-1.8-3.5-3.1
				c-1-1.3-1.7-2.9-2.3-4.8c-0.5-1.8-0.8-3.9-0.8-6.1c0-2.2,0.3-4.3,0.8-6.2c0.5-1.9,1.3-3.5,2.3-4.8c1-1.3,2.1-2.3,3.5-3.1
				c1.4-0.7,2.9-1.1,4.6-1.1c1.9,0,3.5,0.3,4.8,1c1.3,0.7,2.3,1.5,3.1,2.6l-3.5,4.7c-0.5-0.6-1-1.2-1.6-1.5s-1.4-0.6-2.3-0.6
				c-0.9,0-1.6,0.2-2.2,0.7c-0.6,0.5-1.2,1.1-1.6,1.9c-0.4,0.8-0.8,1.7-1,2.8c-0.2,1.1-0.3,2.3-0.3,3.5c0,1.2,0.1,2.4,0.3,3.5
				c0.2,1.1,0.5,2,1,2.8c0.4,0.8,1,1.4,1.6,1.9s1.4,0.7,2.3,0.7c0.9,0,1.6-0.2,2.3-0.6c0.6-0.4,1.2-0.9,1.5-1.5l3.6,4.5
				C171.7,139.6,170.7,140.5,169.4,141.3z"/>
			<path fill="#FFFFFF" d="M175.1,141.6V113h6.6v22.7h12.6v6H175.1z"/>
			<path fill="#FFFFFF" d="M204.8,141.6l-1.2-5.2h-6.4l-1.2,5.2h-6.5l7-28.7h8.1l6.9,28.7H204.8z M200.5,119.2h-0.2l-2.4,12.2h4.9
				L200.5,119.2z"/>
			<path fill="#FFFFFF" d="M225.7,119.8c-0.5-0.6-1.1-1-1.7-1.3s-1.3-0.5-2-0.5c-0.7,0-1.4,0.2-2,0.7c-0.6,0.5-0.9,1.2-0.9,2.3
				c0,0.9,0.3,1.6,0.9,2.1c0.6,0.5,1.5,1,2.6,1.6c0.7,0.3,1.3,0.7,2.1,1.2s1.4,1,2,1.6s1.1,1.4,1.5,2.3c0.4,0.9,0.6,2,0.6,3.2
				c0,1.5-0.2,2.9-0.7,4.1c-0.5,1.2-1.1,2.1-2,2.9c-0.8,0.8-1.8,1.4-2.9,1.7c-1.1,0.4-2.2,0.6-3.4,0.6c-1.7,0-3.3-0.3-4.7-1
				c-1.4-0.6-2.6-1.4-3.4-2.3l3.3-4.9c0.6,0.6,1.3,1.2,2.1,1.6c0.8,0.4,1.6,0.6,2.5,0.6c0.8,0,1.4-0.3,2-0.8
				c0.5-0.5,0.8-1.2,0.8-2.1c0-0.9-0.3-1.7-1-2.2c-0.6-0.6-1.6-1.1-2.8-1.8c-0.8-0.4-1.5-0.8-2.2-1.3s-1.3-1-1.8-1.7
				c-0.5-0.6-0.9-1.4-1.2-2.3c-0.3-0.9-0.4-1.9-0.4-3.1c0-1.6,0.3-3,0.8-4.1c0.5-1.1,1.2-2.1,2.1-2.8s1.8-1.3,2.8-1.6
				c1-0.4,2.1-0.5,3.1-0.5c1.6,0,3,0.3,4.2,0.8c1.2,0.5,2.3,1.2,3.1,2.1L225.7,119.8z"/>
			<path fill="#FFFFFF" d="M244.2,119.8c-0.5-0.6-1.1-1-1.7-1.3c-0.6-0.3-1.3-0.5-2-0.5c-0.7,0-1.4,0.2-2,0.7
				c-0.6,0.5-0.9,1.2-0.9,2.3c0,0.9,0.3,1.6,0.9,2.1c0.6,0.5,1.5,1,2.6,1.6c0.7,0.3,1.3,0.7,2.1,1.2s1.4,1,2,1.6s1.1,1.4,1.5,2.3
				c0.4,0.9,0.6,2,0.6,3.2c0,1.5-0.2,2.9-0.7,4.1c-0.5,1.2-1.1,2.1-2,2.9c-0.8,0.8-1.8,1.4-2.9,1.7c-1.1,0.4-2.2,0.6-3.4,0.6
				c-1.7,0-3.3-0.3-4.7-1c-1.4-0.6-2.6-1.4-3.4-2.3l3.3-4.9c0.6,0.6,1.3,1.2,2.1,1.6c0.8,0.4,1.6,0.6,2.5,0.6c0.8,0,1.4-0.3,2-0.8
				s0.8-1.2,0.8-2.1c0-0.9-0.3-1.7-1-2.2c-0.6-0.6-1.6-1.1-2.8-1.8c-0.8-0.4-1.5-0.8-2.2-1.3s-1.3-1-1.8-1.7
				c-0.5-0.6-0.9-1.4-1.2-2.3c-0.3-0.9-0.4-1.9-0.4-3.1c0-1.6,0.3-3,0.8-4.1c0.5-1.1,1.2-2.1,2.1-2.8c0.9-0.7,1.8-1.3,2.8-1.6
				c1-0.4,2.1-0.5,3.1-0.5c1.6,0,3,0.3,4.2,0.8c1.2,0.5,2.3,1.2,3.1,2.1L244.2,119.8z"/>
			<path fill="#FFFFFF" d="M250.8,141.6V113h13.8v5.7H257v5.6h7v5.3h-7v6.2h8.1v5.8H250.8z"/>
			<path fill="#FFFFFF" d="M280.6,119.8c-0.5-0.6-1.1-1-1.7-1.3c-0.6-0.3-1.3-0.5-2-0.5c-0.7,0-1.4,0.2-2,0.7
				c-0.6,0.5-0.9,1.2-0.9,2.3c0,0.9,0.3,1.6,0.9,2.1c0.6,0.5,1.5,1,2.6,1.6c0.7,0.3,1.3,0.7,2.1,1.2s1.4,1,2,1.6s1.1,1.4,1.5,2.3
				c0.4,0.9,0.6,2,0.6,3.2c0,1.5-0.2,2.9-0.7,4.1c-0.5,1.2-1.1,2.1-2,2.9c-0.8,0.8-1.8,1.4-2.9,1.7c-1.1,0.4-2.2,0.6-3.4,0.6
				c-1.7,0-3.3-0.3-4.7-1c-1.4-0.6-2.6-1.4-3.4-2.3l3.3-4.9c0.6,0.6,1.3,1.2,2.1,1.6c0.8,0.4,1.6,0.6,2.5,0.6c0.8,0,1.4-0.3,2-0.8
				s0.8-1.2,0.8-2.1c0-0.9-0.3-1.7-1-2.2c-0.6-0.6-1.6-1.1-2.8-1.8c-0.8-0.4-1.5-0.8-2.2-1.3s-1.3-1-1.8-1.7
				c-0.5-0.6-0.9-1.4-1.2-2.3c-0.3-0.9-0.4-1.9-0.4-3.1c0-1.6,0.3-3,0.8-4.1c0.5-1.1,1.2-2.1,2.1-2.8c0.9-0.7,1.8-1.3,2.8-1.6
				c1-0.4,2.1-0.5,3.1-0.5c1.6,0,3,0.3,4.2,0.8c1.2,0.5,2.3,1.2,3.1,2.1L280.6,119.8z"/>
			<path fill="#FFFFFF" d="M288.8,146.4h-4.7l2.4-11.5h5.5L288.8,146.4z"/>
			<path fill="#FFFFFF" d="M318.4,141.6l-1.7-2.4c-0.5,0.8-1.3,1.5-2.4,2.1c-1,0.6-2.3,0.9-3.8,0.9c-2.5,0-4.5-0.7-6-2.2
				c-1.5-1.5-2.2-3.6-2.2-6.4c0-1.9,0.4-3.6,1.3-4.9c0.9-1.3,2-2.3,3.4-3.1c-0.6-0.9-1.2-1.8-1.5-2.8c-0.4-1-0.5-2.1-0.5-3.2
				c0-1.2,0.2-2.2,0.6-3.1s0.9-1.7,1.6-2.4c0.7-0.6,1.5-1.1,2.4-1.5c0.9-0.4,1.9-0.5,3-0.5c1,0,2,0.2,2.8,0.5
				c0.9,0.3,1.6,0.8,2.2,1.4c0.6,0.6,1.1,1.4,1.5,2.2c0.4,0.9,0.5,1.9,0.5,3c0,0.9-0.1,1.7-0.4,2.5c-0.3,0.7-0.7,1.4-1.2,2
				s-1,1.2-1.7,1.7c-0.6,0.5-1.3,1-2,1.4l2.4,3.3l2-4.3h6.1l-4.6,8.6l5.1,7.1H318.4z M310,129.7c-0.4,0.2-0.8,0.6-1.1,1.2
				s-0.6,1.4-0.6,2.3c0,1.1,0.3,2,0.8,2.7c0.5,0.7,1.2,1,2.1,1c0.7,0,1.3-0.2,1.7-0.6c0.4-0.4,0.7-0.8,0.9-1.3L310,129.7z
				 M314.6,119.6c0-0.8-0.1-1.4-0.4-2c-0.3-0.5-0.7-0.8-1.3-0.8c-0.6,0-1.1,0.3-1.5,0.9c-0.4,0.6-0.5,1.2-0.5,2
				c0,1.4,0.5,2.6,1.4,3.7c0.6-0.4,1.2-0.9,1.7-1.6C314.4,121.2,314.6,120.5,314.6,119.6z"/>
			<path fill="#FFFFFF" d="M350.6,141.6c-1.3,0.4-2.8,0.6-4.6,0.6c-1.8,0-3.4-0.4-4.8-1.1c-1.4-0.7-2.6-1.7-3.6-3.1
				c-1-1.3-1.7-2.9-2.3-4.7s-0.8-3.9-0.8-6.1c0-2.2,0.3-4.3,0.8-6.1s1.3-3.4,2.2-4.8c1-1.3,2.1-2.4,3.5-3.1c1.4-0.7,2.9-1.1,4.6-1.1
				c1.9,0,3.6,0.3,4.9,1c1.3,0.7,2.3,1.5,3.1,2.5l-3.5,4.7c-1-1.4-2.3-2-4-2c-0.9,0-1.7,0.2-2.3,0.7c-0.7,0.5-1.2,1.1-1.6,1.9
				c-0.4,0.8-0.8,1.8-1,2.8s-0.3,2.2-0.3,3.4c0,1.2,0.1,2.4,0.3,3.4c0.2,1.1,0.5,2,0.9,2.8c0.4,0.8,1,1.5,1.6,1.9s1.4,0.7,2.3,0.7
				c1,0,1.7-0.2,2.3-0.6v-5.3h-3.1v-5.6h8.7v15.3C353,140.6,351.9,141.2,350.6,141.6z"/>
			<path fill="#FFFFFF" d="M370.1,141.6l-3.8-11.4h-1.9v11.4h-6.2V113h9.2c2.8,0,4.9,0.7,6.5,2.2s2.3,3.6,2.3,6.5
				c0,1.1-0.1,2-0.4,2.8s-0.6,1.6-0.9,2.1c-0.4,0.6-0.8,1.1-1.3,1.5s-1,0.6-1.4,0.8l4.9,12.8H370.1z M369.7,122
				c0-0.7-0.1-1.3-0.3-1.8s-0.5-0.8-0.8-1.1c-0.3-0.3-0.7-0.5-1.1-0.5c-0.4-0.1-0.8-0.1-1.2-0.1h-2v7.2h1.9c0.9,0,1.7-0.3,2.4-0.9
				C369.4,124.2,369.7,123.2,369.7,122z"/>
			<path fill="#FFFFFF" d="M392.6,141.6l-1.2-5.2H385l-1.2,5.2h-6.5l7-28.7h8.1l6.9,28.7H392.6z M388.3,119.2h-0.2l-2.4,12.2h4.9
				L388.3,119.2z"/>
			<path fill="#FFFFFF" d="M421.6,127.4c0,2.2-0.2,4.1-0.7,5.9c-0.5,1.8-1.2,3.3-2.2,4.5c-1,1.2-2.2,2.2-3.7,2.9
				c-1.5,0.7-3.3,1-5.3,1h-8.1V113h8.1c2.1,0,3.8,0.3,5.3,1c1.5,0.7,2.7,1.6,3.7,2.9c1,1.3,1.7,2.8,2.2,4.5
				C421.4,123.2,421.6,125.2,421.6,127.4z M415.1,127.4c0-2.9-0.5-5.1-1.5-6.5s-2.3-2.2-3.8-2.2h-1.6V136h1.6c1.6,0,2.8-0.7,3.8-2.2
				S415.1,130.2,415.1,127.4z"/>
			<path fill="#FFFFFF" d="M425.3,141.6V113h13.8v5.7h-7.7v5.6h7v5.3h-7v6.2h8.1v5.8H425.3z"/>
			<path fill="#FFFFFF" d="M455.1,119.8c-0.5-0.6-1.1-1-1.7-1.3c-0.6-0.3-1.3-0.5-2-0.5c-0.7,0-1.4,0.2-2,0.7
				c-0.6,0.5-0.9,1.2-0.9,2.3c0,0.9,0.3,1.6,0.9,2.1c0.6,0.5,1.5,1,2.6,1.6c0.7,0.3,1.3,0.7,2.1,1.2s1.4,1,2,1.6s1.1,1.4,1.5,2.3
				c0.4,0.9,0.6,2,0.6,3.2c0,1.5-0.2,2.9-0.7,4.1c-0.5,1.2-1.1,2.1-2,2.9c-0.8,0.8-1.8,1.4-2.9,1.7c-1.1,0.4-2.2,0.6-3.4,0.6
				c-1.7,0-3.3-0.3-4.7-1c-1.4-0.6-2.6-1.4-3.4-2.3l3.3-4.9c0.6,0.6,1.3,1.2,2.1,1.6c0.8,0.4,1.6,0.6,2.5,0.6c0.8,0,1.4-0.3,2-0.8
				s0.8-1.2,0.8-2.1c0-0.9-0.3-1.7-1-2.2c-0.6-0.6-1.6-1.1-2.8-1.8c-0.8-0.4-1.5-0.8-2.2-1.3s-1.3-1-1.8-1.7
				c-0.5-0.6-0.9-1.4-1.2-2.3c-0.3-0.9-0.4-1.9-0.4-3.1c0-1.6,0.3-3,0.8-4.1c0.5-1.1,1.2-2.1,2.1-2.8c0.9-0.7,1.8-1.3,2.8-1.6
				c1-0.4,2.1-0.5,3.1-0.5c1.6,0,3,0.3,4.2,0.8c1.2,0.5,2.3,1.2,3.1,2.1L455.1,119.8z"/>
		</g>
		<g>
			<path fill="#FFFFFF" d="M11.1,198.5c-0.1-0.6-0.2-1.2-0.2-1.9c-0.1-0.6-0.1-1.1-0.1-1.5h-0.1c-0.3,1.2-0.8,2.2-1.6,2.9
				s-1.8,1-3.2,1c-0.6,0-1.1-0.1-1.7-0.3c-0.6-0.2-1.1-0.6-1.6-1.1c-0.5-0.5-0.9-1.1-1.2-1.9C1,195,0.9,194.1,0.9,193
				c0-1.5,0.3-2.7,0.8-3.6c0.5-0.9,1.2-1.7,2-2.2c0.8-0.5,1.7-0.9,2.7-1.1c1-0.2,1.9-0.3,2.8-0.3h1.3V185c0-1.6-0.3-2.7-0.9-3.5
				c-0.6-0.7-1.4-1.1-2.5-1.1c-0.8,0-1.5,0.2-2.1,0.6c-0.6,0.4-1.2,0.9-1.7,1.5l-1.7-2.1c0.7-0.9,1.6-1.6,2.6-2.1
				c1.1-0.5,2.1-0.7,3.2-0.7c1.2,0,2.1,0.2,2.9,0.6s1.4,0.9,1.9,1.7c0.5,0.7,0.8,1.6,1,2.7s0.3,2.3,0.3,3.6v8.2c0,0.7,0,1.5,0.1,2.3
				c0.1,0.8,0.1,1.5,0.2,2H11.1z M10.5,188.5H9c-0.6,0-1.2,0.1-1.8,0.2c-0.6,0.1-1.1,0.3-1.6,0.6c-0.5,0.3-0.8,0.7-1.1,1.3
				c-0.3,0.5-0.4,1.2-0.4,2.1c0,1.2,0.3,2.2,0.8,2.7c0.5,0.6,1.2,0.9,1.9,0.9c0.7,0,1.3-0.2,1.8-0.6c0.5-0.4,0.9-1,1.2-1.6
				c0.3-0.6,0.5-1.4,0.6-2.1s0.2-1.5,0.2-2.2V188.5z"/>
			<path fill="#FFFFFF" d="M29.4,198.5v-13c0-0.6,0-1.1-0.1-1.7c-0.1-0.6-0.2-1.1-0.4-1.6c-0.2-0.5-0.5-0.9-0.9-1.2
				c-0.4-0.3-0.9-0.4-1.5-0.4c-0.6,0-1.1,0.2-1.6,0.5c-0.5,0.3-0.9,0.7-1.3,1.3c-0.4,0.6-0.6,1.2-0.8,2c-0.2,0.8-0.3,1.6-0.3,2.5
				v11.7h-3.4v-15.2c0-0.8,0-1.7,0-2.6c0-0.9-0.1-1.8-0.1-2.5h3.3c0.1,0.7,0.1,1.4,0.2,2s0.1,1.2,0.1,1.5h0.1c0.4-1.2,1-2.2,1.9-3
				c0.9-0.8,2-1.2,3.2-1.2c1.1,0,2,0.2,2.7,0.7c0.7,0.5,1.2,1.1,1.6,1.8c0.4,0.8,0.6,1.6,0.7,2.6c0.1,1,0.2,2,0.2,3v13H29.4z"/>
			<path fill="#FFFFFF" d="M49.1,198.5v-3.2H49c-0.3,1.1-0.8,2-1.6,2.8c-0.7,0.7-1.8,1.1-3.2,1.1c-1,0-1.9-0.3-2.8-0.8
				c-0.8-0.6-1.5-1.3-2-2.3c-0.6-1-1-2.1-1.3-3.5c-0.3-1.3-0.4-2.8-0.4-4.4c0-1.6,0.1-3,0.4-4.3c0.3-1.3,0.7-2.4,1.2-3.4
				c0.6-1,1.2-1.7,2-2.2c0.8-0.5,1.7-0.8,2.8-0.8c1.2,0,2.2,0.3,3,1s1.4,1.5,1.7,2.6H49v-13.2h3.4v30.6H49.1z M49.1,188.4
				c0-1.1-0.1-2.1-0.2-3.1s-0.4-1.8-0.7-2.5c-0.3-0.7-0.7-1.3-1.2-1.7c-0.5-0.4-1.1-0.6-1.7-0.6c-0.7,0-1.2,0.2-1.7,0.6
				c-0.5,0.4-0.9,1-1.2,1.7c-0.3,0.7-0.5,1.5-0.7,2.5c-0.1,1-0.2,2-0.2,3.1c0,1.1,0.1,2.1,0.2,3.1c0.1,0.9,0.4,1.8,0.7,2.5
				c0.3,0.7,0.7,1.3,1.2,1.7c0.5,0.4,1,0.6,1.7,0.6c0.6,0,1.2-0.2,1.7-0.6c0.5-0.4,0.9-1,1.2-1.7c0.3-0.7,0.6-1.5,0.7-2.5
				C49,190.5,49.1,189.5,49.1,188.4z"/>
			<path fill="#FFFFFF" d="M69.2,189.2c0,1,0.1,1.9,0.3,2.7c0.2,0.8,0.4,1.6,0.8,2.2c0.3,0.6,0.8,1.1,1.3,1.5
				c0.5,0.4,1.1,0.5,1.8,0.5c0.9,0,1.6-0.3,2.2-0.9c0.5-0.6,1-1.2,1.3-2l2.6,1.5c-0.5,1.3-1.3,2.3-2.3,3.2c-1,0.8-2.3,1.2-3.9,1.2
				c-2.3,0-4.1-1-5.5-2.9c-1.3-1.9-2-4.6-2-8c0-1.6,0.2-3.1,0.5-4.4c0.4-1.3,0.9-2.5,1.5-3.4s1.4-1.7,2.3-2.2s1.9-0.8,3-0.8
				c1.2,0,2.3,0.3,3.2,0.8c0.9,0.5,1.6,1.2,2.1,2.1c0.6,0.9,1,2,1.2,3.2c0.2,1.2,0.4,2.5,0.4,3.9v1.7H69.2z M76.5,186.4
				c0-1.8-0.3-3.2-0.8-4.3c-0.6-1.1-1.4-1.6-2.6-1.6c-0.7,0-1.3,0.2-1.8,0.6c-0.5,0.4-0.9,0.9-1.2,1.5c-0.3,0.6-0.5,1.2-0.6,1.9
				c-0.1,0.7-0.2,1.3-0.2,1.8H76.5z"/>
			<path fill="#FFFFFF" d="M88,187.8l-4.9-9.6h3.8l3.2,7.1l3.1-7.1h3.7l-4.9,9.6l5.4,10.7h-3.8l-3.6-7.9l-3.6,7.9h-3.7L88,187.8z"/>
			<path fill="#FFFFFF" d="M104.6,178.2v3.2h0.1c0.3-1.1,0.8-2,1.6-2.8c0.7-0.7,1.8-1.1,3.2-1.1c1,0,1.9,0.3,2.8,0.8
				c0.8,0.6,1.5,1.3,2,2.3c0.6,1,1,2.1,1.3,3.5c0.3,1.3,0.4,2.8,0.4,4.4c0,1.6-0.1,3-0.4,4.3c-0.3,1.3-0.7,2.5-1.2,3.4
				c-0.6,0.9-1.2,1.7-2,2.2c-0.8,0.5-1.7,0.8-2.8,0.8c-1.2,0-2.2-0.3-3-1c-0.8-0.7-1.4-1.6-1.7-2.6h-0.1v12.7h-3.4v-30.1H104.6z
				 M104.6,188.3c0,1.1,0.1,2.1,0.2,3.1c0.2,1,0.4,1.8,0.7,2.5c0.3,0.7,0.7,1.3,1.2,1.7c0.5,0.4,1.1,0.6,1.7,0.6
				c0.7,0,1.2-0.2,1.7-0.6c0.5-0.4,0.9-1,1.2-1.7c0.3-0.7,0.5-1.5,0.7-2.5c0.1-1,0.2-2,0.2-3.1c0-1.1-0.1-2.1-0.2-3
				s-0.4-1.8-0.7-2.5c-0.3-0.7-0.7-1.3-1.2-1.7c-0.5-0.4-1-0.6-1.7-0.6c-0.6,0-1.2,0.2-1.7,0.6c-0.5,0.4-0.9,1-1.2,1.7
				c-0.3,0.7-0.6,1.5-0.7,2.5S104.6,187.3,104.6,188.3z"/>
			<path fill="#FFFFFF" d="M123.4,189.2c0,1,0.1,1.9,0.3,2.7c0.2,0.8,0.4,1.6,0.8,2.2c0.3,0.6,0.8,1.1,1.3,1.5
				c0.5,0.4,1.1,0.5,1.8,0.5c0.9,0,1.6-0.3,2.2-0.9c0.5-0.6,1-1.2,1.3-2l2.6,1.5c-0.5,1.3-1.3,2.3-2.3,3.2c-1,0.8-2.3,1.2-3.9,1.2
				c-2.3,0-4.1-1-5.5-2.9c-1.3-1.9-2-4.6-2-8c0-1.6,0.2-3.1,0.5-4.4c0.4-1.3,0.9-2.5,1.5-3.4s1.4-1.7,2.3-2.2s1.9-0.8,3-0.8
				c1.2,0,2.3,0.3,3.2,0.8c0.9,0.5,1.6,1.2,2.1,2.1c0.6,0.9,1,2,1.2,3.2c0.2,1.2,0.4,2.5,0.4,3.9v1.7H123.4z M130.7,186.4
				c0-1.8-0.3-3.2-0.8-4.3c-0.6-1.1-1.4-1.6-2.6-1.6c-0.7,0-1.3,0.2-1.8,0.6c-0.5,0.4-0.9,0.9-1.2,1.5c-0.3,0.6-0.5,1.2-0.6,1.9
				c-0.1,0.7-0.2,1.3-0.2,1.8H130.7z"/>
			<path fill="#FFFFFF" d="M144.4,178.7c0.8-0.8,1.7-1.2,2.7-1.2c0.2,0,0.4,0,0.5,0l-0.2,3.6c-0.1,0-0.2,0-0.3-0.1
				c-0.1,0-0.2,0-0.4,0c-0.6,0-1.2,0.2-1.7,0.6c-0.5,0.4-0.9,1-1.3,1.6c-0.3,0.7-0.6,1.4-0.8,2.3c-0.2,0.9-0.3,1.7-0.3,2.6v10.3
				h-3.5v-15.2c0-0.8,0-1.7,0-2.6c0-0.9-0.1-1.8-0.1-2.5h3.3c0.1,0.7,0.1,1.4,0.2,2.1c0,0.7,0.1,1.4,0.1,2.1h0.1
				C143,180.7,143.6,179.5,144.4,178.7z"/>
			<path fill="#FFFFFF" d="M155,172.1c0,0.7-0.2,1.2-0.6,1.7c-0.4,0.4-0.9,0.6-1.5,0.6c-0.6,0-1.1-0.2-1.5-0.6
				c-0.4-0.4-0.6-1-0.6-1.7c0-0.6,0.2-1.2,0.6-1.6c0.4-0.4,0.9-0.7,1.5-0.7c0.6,0,1.1,0.2,1.5,0.7C154.7,171,155,171.5,155,172.1z
				 M151.1,198.5v-20.3h3.4v20.3H151.1z"/>
			<path fill="#FFFFFF" d="M163.2,189.2c0,1,0.1,1.9,0.3,2.7c0.2,0.8,0.4,1.6,0.8,2.2c0.3,0.6,0.8,1.1,1.3,1.5
				c0.5,0.4,1.1,0.5,1.8,0.5c0.9,0,1.6-0.3,2.2-0.9c0.5-0.6,1-1.2,1.3-2l2.6,1.5c-0.5,1.3-1.3,2.3-2.3,3.2c-1,0.8-2.3,1.2-3.9,1.2
				c-2.3,0-4.1-1-5.5-2.9c-1.3-1.9-2-4.6-2-8c0-1.6,0.2-3.1,0.5-4.4c0.4-1.3,0.9-2.5,1.5-3.4s1.4-1.7,2.3-2.2s1.9-0.8,3-0.8
				c1.2,0,2.3,0.3,3.2,0.8c0.9,0.5,1.6,1.2,2.1,2.1c0.6,0.9,1,2,1.2,3.2c0.2,1.2,0.4,2.5,0.4,3.9v1.7H163.2z M170.5,186.4
				c0-1.8-0.3-3.2-0.8-4.3c-0.6-1.1-1.4-1.6-2.6-1.6c-0.7,0-1.3,0.2-1.8,0.6c-0.5,0.4-0.9,0.9-1.2,1.5c-0.3,0.6-0.5,1.2-0.6,1.9
				c-0.1,0.7-0.2,1.3-0.2,1.8H170.5z"/>
			<path fill="#FFFFFF" d="M189.3,198.5v-13c0-0.6,0-1.1-0.1-1.7c-0.1-0.6-0.2-1.1-0.4-1.6c-0.2-0.5-0.5-0.9-0.9-1.2
				c-0.4-0.3-0.9-0.4-1.5-0.4c-0.6,0-1.1,0.2-1.6,0.5c-0.5,0.3-0.9,0.7-1.3,1.3c-0.4,0.6-0.6,1.2-0.8,2c-0.2,0.8-0.3,1.6-0.3,2.5
				v11.7H179v-15.2c0-0.8,0-1.7,0-2.6c0-0.9-0.1-1.8-0.1-2.5h3.3c0.1,0.7,0.1,1.4,0.2,2s0.1,1.2,0.1,1.5h0.1c0.4-1.2,1-2.2,1.9-3
				c0.9-0.8,2-1.2,3.2-1.2c1.1,0,2,0.2,2.7,0.7c0.7,0.5,1.2,1.1,1.6,1.8c0.4,0.8,0.6,1.6,0.7,2.6c0.1,1,0.2,2,0.2,3v13H189.3z"/>
			<path fill="#FFFFFF" d="M205.1,199.2c-1.2,0-2.3-0.3-3.2-0.8c-0.9-0.5-1.7-1.3-2.3-2.2c-0.6-1-1.1-2.1-1.4-3.4
				c-0.3-1.3-0.5-2.8-0.5-4.4c0-1.6,0.2-3.1,0.5-4.4c0.3-1.3,0.8-2.5,1.4-3.4c0.6-1,1.4-1.7,2.3-2.2c0.9-0.5,2-0.8,3.2-0.8
				c1.1,0,2,0.2,2.7,0.5c0.7,0.4,1.3,0.8,1.8,1.2l-1.7,2.6c-0.3-0.4-0.7-0.7-1.1-0.9c-0.4-0.2-1-0.4-1.6-0.4c-0.6,0-1.2,0.2-1.7,0.6
				c-0.5,0.4-0.9,0.9-1.2,1.6c-0.3,0.7-0.5,1.5-0.7,2.5c-0.2,0.9-0.2,2-0.2,3.1s0.1,2.2,0.2,3.1c0.1,0.9,0.4,1.7,0.7,2.4
				c0.3,0.7,0.7,1.2,1.3,1.6c0.5,0.4,1.1,0.6,1.9,0.6c0.6,0,1.2-0.1,1.6-0.4c0.4-0.2,0.8-0.6,1.2-1l1.5,2.7
				C208.6,198.6,207,199.2,205.1,199.2z"/>
			<path fill="#FFFFFF" d="M215.5,189.2c0,1,0.1,1.9,0.3,2.7c0.2,0.8,0.4,1.6,0.8,2.2c0.3,0.6,0.8,1.1,1.3,1.5
				c0.5,0.4,1.1,0.5,1.8,0.5c0.9,0,1.6-0.3,2.2-0.9c0.5-0.6,1-1.2,1.3-2l2.6,1.5c-0.5,1.3-1.3,2.3-2.3,3.2c-1,0.8-2.3,1.2-3.9,1.2
				c-2.3,0-4.1-1-5.5-2.9c-1.3-1.9-2-4.6-2-8c0-1.6,0.2-3.1,0.5-4.4c0.4-1.3,0.9-2.5,1.5-3.4s1.4-1.7,2.3-2.2s1.9-0.8,3-0.8
				c1.2,0,2.3,0.3,3.2,0.8c0.9,0.5,1.6,1.2,2.1,2.1c0.6,0.9,1,2,1.2,3.2c0.2,1.2,0.4,2.5,0.4,3.9v1.7H215.5z M222.8,186.4
				c0-1.8-0.3-3.2-0.8-4.3c-0.6-1.1-1.4-1.6-2.6-1.6c-0.7,0-1.3,0.2-1.8,0.6c-0.5,0.4-0.9,0.9-1.2,1.5c-0.3,0.6-0.5,1.2-0.6,1.9
				c-0.1,0.7-0.2,1.3-0.2,1.8H222.8z"/>
			<path fill="#FFFFFF" d="M245.6,202.2c-0.2,0.9-0.5,1.7-0.8,2.5c-0.3,0.7-0.7,1.4-1.1,1.9s-1,0.9-1.6,1.2
				c-0.6,0.3-1.4,0.4-2.2,0.4c-0.5,0-0.9,0-1.3-0.1c-0.4-0.1-0.8-0.1-1.1-0.2l0.4-3.1c0.5,0.2,1.1,0.3,1.6,0.3
				c0.8,0,1.4-0.2,1.8-0.7s0.7-1.2,0.9-2l0.8-3.2l-6-20.9h3.6l4,16.3h0.1l3.6-16.3h3.5L245.6,202.2z"/>
			<path fill="#FFFFFF" d="M268.9,188.4c0,1.6-0.2,3.1-0.5,4.4c-0.3,1.3-0.8,2.5-1.5,3.4c-0.6,0.9-1.4,1.7-2.3,2.2s-2,0.8-3.1,0.8
				c-1.1,0-2.2-0.3-3.1-0.8s-1.7-1.3-2.3-2.2c-0.6-0.9-1.1-2.1-1.5-3.4c-0.3-1.3-0.5-2.8-0.5-4.4s0.2-3.1,0.5-4.5
				c0.3-1.3,0.8-2.5,1.4-3.4s1.4-1.7,2.3-2.2c0.9-0.5,2-0.8,3.1-0.8s2.2,0.3,3.1,0.8s1.7,1.3,2.3,2.2c0.6,0.9,1.1,2.1,1.5,3.4
				C268.7,185.3,268.9,186.8,268.9,188.4z M265.4,188.4c0-1.1-0.1-2.1-0.2-3.1s-0.4-1.8-0.7-2.5s-0.7-1.3-1.2-1.7
				c-0.5-0.4-1.1-0.6-1.7-0.6c-0.6,0-1.2,0.2-1.7,0.6c-0.5,0.4-0.9,1-1.2,1.7c-0.3,0.7-0.5,1.5-0.7,2.5s-0.2,2-0.2,3.1
				c0,1.1,0.1,2.1,0.2,3.1c0.1,0.9,0.4,1.8,0.7,2.5c0.3,0.7,0.7,1.3,1.2,1.7c0.5,0.4,1.1,0.6,1.7,0.6c0.7,0,1.3-0.2,1.7-0.6
				c0.5-0.4,0.9-1,1.2-1.7c0.3-0.7,0.5-1.5,0.7-2.5C265.3,190.5,265.4,189.5,265.4,188.4z"/>
			<path fill="#FFFFFF" d="M277.4,178.2v13c0,0.6,0,1.1,0.1,1.7c0.1,0.6,0.2,1.1,0.4,1.6c0.2,0.5,0.5,0.9,0.9,1.2
				c0.4,0.3,0.9,0.4,1.5,0.4c0.6,0,1.1-0.2,1.6-0.5s0.9-0.7,1.3-1.3c0.4-0.6,0.6-1.2,0.8-2c0.2-0.8,0.3-1.6,0.3-2.5v-11.7h3.4v15.2
				c0,0.8,0,1.7,0,2.6c0,0.9,0.1,1.8,0.1,2.5h-3.3c-0.1-0.7-0.1-1.3-0.2-2c0-0.7-0.1-1.2-0.1-1.5h-0.1c-0.4,1.2-1,2.2-1.9,3
				c-0.9,0.8-2,1.2-3.2,1.2c-1.1,0-2-0.2-2.7-0.7c-0.7-0.5-1.2-1.1-1.6-1.8c-0.4-0.7-0.6-1.6-0.7-2.6c-0.1-1-0.2-2-0.2-3v-13H277.4z
				"/>
			<path fill="#FFFFFF" d="M299.2,178.7c0.8-0.8,1.7-1.2,2.7-1.2c0.2,0,0.4,0,0.5,0l-0.2,3.6c-0.1,0-0.2,0-0.3-0.1
				c-0.1,0-0.2,0-0.4,0c-0.6,0-1.2,0.2-1.7,0.6c-0.5,0.4-0.9,1-1.3,1.6c-0.3,0.7-0.6,1.4-0.8,2.3c-0.2,0.9-0.3,1.7-0.3,2.6v10.3
				h-3.5v-15.2c0-0.8,0-1.7,0-2.6c0-0.9-0.1-1.8-0.1-2.5h3.3c0.1,0.7,0.1,1.4,0.2,2.1c0,0.7,0.1,1.4,0.1,2.1h0.1
				C297.9,180.7,298.4,179.5,299.2,178.7z"/>
			<path fill="#FFFFFF" d="M316.3,189.2c0,1,0.1,1.9,0.3,2.7c0.2,0.8,0.4,1.6,0.8,2.2c0.3,0.6,0.8,1.1,1.3,1.5
				c0.5,0.4,1.1,0.5,1.8,0.5c0.9,0,1.6-0.3,2.2-0.9c0.5-0.6,1-1.2,1.3-2l2.6,1.5c-0.5,1.3-1.3,2.3-2.3,3.2c-1,0.8-2.3,1.2-3.9,1.2
				c-2.3,0-4.1-1-5.5-2.9s-2-4.6-2-8c0-1.6,0.2-3.1,0.5-4.4c0.4-1.3,0.9-2.5,1.5-3.4c0.6-1,1.4-1.7,2.3-2.2s1.9-0.8,3-0.8
				c1.2,0,2.3,0.3,3.2,0.8s1.6,1.2,2.1,2.1c0.6,0.9,1,2,1.2,3.2s0.4,2.5,0.4,3.9v1.7H316.3z M323.6,186.4c0-1.8-0.3-3.2-0.8-4.3
				c-0.6-1.1-1.4-1.6-2.6-1.6c-0.7,0-1.3,0.2-1.8,0.6c-0.5,0.4-0.9,0.9-1.2,1.5c-0.3,0.6-0.5,1.2-0.6,1.9c-0.1,0.7-0.2,1.3-0.2,1.8
				H323.6z"/>
			<path fill="#FFFFFF" d="M342.3,198.5v-3.2h-0.1c-0.3,1.1-0.8,2-1.6,2.8c-0.7,0.7-1.8,1.1-3.2,1.1c-1,0-1.9-0.3-2.8-0.8
				c-0.8-0.6-1.5-1.3-2-2.3c-0.6-1-1-2.1-1.3-3.5c-0.3-1.3-0.4-2.8-0.4-4.4c0-1.6,0.1-3,0.4-4.3c0.3-1.3,0.7-2.4,1.2-3.4
				c0.6-1,1.2-1.7,2-2.2c0.8-0.5,1.7-0.8,2.8-0.8c1.2,0,2.2,0.3,3,1c0.8,0.7,1.4,1.5,1.7,2.6h0.1v-13.2h3.4v30.6H342.3z
				 M342.3,188.4c0-1.1-0.1-2.1-0.2-3.1s-0.4-1.8-0.7-2.5c-0.3-0.7-0.7-1.3-1.2-1.7c-0.5-0.4-1.1-0.6-1.7-0.6
				c-0.7,0-1.2,0.2-1.7,0.6c-0.5,0.4-0.9,1-1.2,1.7c-0.3,0.7-0.5,1.5-0.7,2.5s-0.2,2-0.2,3.1c0,1.1,0.1,2.1,0.2,3.1
				c0.1,0.9,0.4,1.8,0.7,2.5c0.3,0.7,0.7,1.3,1.2,1.7c0.5,0.4,1,0.6,1.7,0.6c0.6,0,1.2-0.2,1.7-0.6c0.5-0.4,0.9-1,1.2-1.7
				c0.3-0.7,0.6-1.5,0.7-2.5C342.2,190.5,342.3,189.5,342.3,188.4z"/>
			<path fill="#FFFFFF" d="M354.6,178.2v13c0,0.6,0,1.1,0.1,1.7c0.1,0.6,0.2,1.1,0.4,1.6c0.2,0.5,0.5,0.9,0.9,1.2
				c0.4,0.3,0.9,0.4,1.5,0.4c0.6,0,1.1-0.2,1.6-0.5s0.9-0.7,1.3-1.3c0.4-0.6,0.6-1.2,0.8-2c0.2-0.8,0.3-1.6,0.3-2.5v-11.7h3.4v15.2
				c0,0.8,0,1.7,0,2.6c0,0.9,0.1,1.8,0.1,2.5h-3.3c-0.1-0.7-0.1-1.3-0.2-2c0-0.7-0.1-1.2-0.1-1.5h-0.1c-0.4,1.2-1,2.2-1.9,3
				c-0.9,0.8-2,1.2-3.2,1.2c-1.1,0-2-0.2-2.7-0.7c-0.7-0.5-1.2-1.1-1.6-1.8c-0.4-0.7-0.6-1.6-0.7-2.6c-0.1-1-0.2-2-0.2-3v-13H354.6z
				"/>
			<path fill="#FFFFFF" d="M376.8,199.2c-1.2,0-2.3-0.3-3.2-0.8s-1.7-1.3-2.3-2.2c-0.6-1-1.1-2.1-1.4-3.4c-0.3-1.3-0.5-2.8-0.5-4.4
				c0-1.6,0.2-3.1,0.5-4.4c0.3-1.3,0.8-2.5,1.4-3.4s1.4-1.7,2.3-2.2c0.9-0.5,2-0.8,3.2-0.8c1.1,0,2,0.2,2.7,0.5
				c0.7,0.4,1.3,0.8,1.8,1.2l-1.7,2.6c-0.3-0.4-0.7-0.7-1.1-0.9c-0.4-0.2-1-0.4-1.6-0.4c-0.6,0-1.2,0.2-1.7,0.6
				c-0.5,0.4-0.9,0.9-1.2,1.6c-0.3,0.7-0.5,1.5-0.7,2.5c-0.2,0.9-0.2,2-0.2,3.1s0.1,2.2,0.2,3.1c0.1,0.9,0.4,1.7,0.7,2.4
				c0.3,0.7,0.7,1.2,1.3,1.6s1.1,0.6,1.9,0.6c0.6,0,1.2-0.1,1.6-0.4c0.4-0.2,0.8-0.6,1.2-1l1.5,2.7
				C380.3,198.6,378.7,199.2,376.8,199.2z"/>
			<path fill="#FFFFFF" d="M393.7,198.5c-0.1-0.6-0.2-1.2-0.2-1.9c-0.1-0.6-0.1-1.1-0.1-1.5h-0.1c-0.3,1.2-0.8,2.2-1.6,2.9
				s-1.8,1-3.2,1c-0.6,0-1.1-0.1-1.7-0.3c-0.6-0.2-1.1-0.6-1.6-1.1c-0.5-0.5-0.9-1.1-1.2-1.9c-0.3-0.8-0.5-1.7-0.5-2.8
				c0-1.5,0.3-2.7,0.8-3.6c0.5-0.9,1.2-1.7,2-2.2c0.8-0.5,1.7-0.9,2.7-1.1c1-0.2,1.9-0.3,2.8-0.3h1.3V185c0-1.6-0.3-2.7-0.9-3.5
				c-0.6-0.7-1.4-1.1-2.5-1.1c-0.8,0-1.5,0.2-2.1,0.6c-0.6,0.4-1.2,0.9-1.7,1.5l-1.7-2.1c0.7-0.9,1.6-1.6,2.6-2.1
				c1.1-0.5,2.1-0.7,3.2-0.7c1.2,0,2.1,0.2,2.9,0.6c0.8,0.4,1.4,0.9,1.9,1.7c0.5,0.7,0.8,1.6,1,2.7s0.3,2.3,0.3,3.6v8.2
				c0,0.7,0,1.5,0.1,2.3c0.1,0.8,0.1,1.5,0.2,2H393.7z M393.1,188.5h-1.5c-0.6,0-1.2,0.1-1.8,0.2c-0.6,0.1-1.1,0.3-1.6,0.6
				c-0.5,0.3-0.8,0.7-1.1,1.3c-0.3,0.5-0.4,1.2-0.4,2.1c0,1.2,0.3,2.2,0.8,2.7c0.5,0.6,1.2,0.9,1.9,0.9c0.7,0,1.3-0.2,1.8-0.6
				c0.5-0.4,0.9-1,1.2-1.6c0.3-0.6,0.5-1.4,0.6-2.1c0.1-0.8,0.2-1.5,0.2-2.2V188.5z"/>
			<path fill="#FFFFFF" d="M408.2,198.9c-0.5,0.1-1,0.2-1.5,0.2c-1.6,0-2.7-0.5-3.3-1.5c-0.7-1-1-2.4-1-4.2V181h-2.6v-2.8h2.6v-5.4
				h3.4v5.4h3.6v2.8h-3.6v11.7c0,1.2,0.2,2,0.5,2.6c0.4,0.5,0.9,0.8,1.6,0.8c0.2,0,0.5,0,0.8-0.1c0.3-0.1,0.5-0.1,0.7-0.2l0.1,2.8
				C409,198.6,408.6,198.8,408.2,198.9z"/>
			<path fill="#FFFFFF" d="M417,172.1c0,0.7-0.2,1.2-0.6,1.7c-0.4,0.4-0.9,0.6-1.5,0.6c-0.6,0-1.1-0.2-1.5-0.6
				c-0.4-0.4-0.6-1-0.6-1.7c0-0.6,0.2-1.2,0.6-1.6s0.9-0.7,1.5-0.7c0.6,0,1.1,0.2,1.5,0.7C416.8,171,417,171.5,417,172.1z
				 M413.1,198.5v-20.3h3.4v20.3H413.1z"/>
			<path fill="#FFFFFF" d="M436.5,188.4c0,1.6-0.2,3.1-0.5,4.4c-0.3,1.3-0.8,2.5-1.5,3.4c-0.6,0.9-1.4,1.7-2.3,2.2s-2,0.8-3.1,0.8
				c-1.1,0-2.2-0.3-3.1-0.8s-1.7-1.3-2.3-2.2c-0.6-0.9-1.1-2.1-1.5-3.4c-0.3-1.3-0.5-2.8-0.5-4.4s0.2-3.1,0.5-4.5
				c0.3-1.3,0.8-2.5,1.4-3.4s1.4-1.7,2.3-2.2c0.9-0.5,2-0.8,3.1-0.8s2.2,0.3,3.1,0.8s1.7,1.3,2.3,2.2c0.6,0.9,1.1,2.1,1.5,3.4
				C436.4,185.3,436.5,186.8,436.5,188.4z M433,188.4c0-1.1-0.1-2.1-0.2-3.1s-0.4-1.8-0.7-2.5s-0.7-1.3-1.2-1.7
				c-0.5-0.4-1.1-0.6-1.7-0.6c-0.6,0-1.2,0.2-1.7,0.6c-0.5,0.4-0.9,1-1.2,1.7c-0.3,0.7-0.5,1.5-0.7,2.5s-0.2,2-0.2,3.1
				c0,1.1,0.1,2.1,0.2,3.1c0.1,0.9,0.4,1.8,0.7,2.5c0.3,0.7,0.7,1.3,1.2,1.7c0.5,0.4,1.1,0.6,1.7,0.6c0.7,0,1.3-0.2,1.7-0.6
				c0.5-0.4,0.9-1,1.2-1.7c0.3-0.7,0.5-1.5,0.7-2.5C432.9,190.5,433,189.5,433,188.4z"/>
			<path fill="#FFFFFF" d="M452,198.5v-13c0-0.6,0-1.1-0.1-1.7c-0.1-0.6-0.2-1.1-0.4-1.6s-0.5-0.9-0.9-1.2c-0.4-0.3-0.9-0.4-1.5-0.4
				c-0.6,0-1.1,0.2-1.6,0.5c-0.5,0.3-0.9,0.7-1.3,1.3c-0.4,0.6-0.6,1.2-0.8,2c-0.2,0.8-0.3,1.6-0.3,2.5v11.7h-3.4v-15.2
				c0-0.8,0-1.7,0-2.6c0-0.9-0.1-1.8-0.1-2.5h3.3c0.1,0.7,0.1,1.4,0.2,2c0,0.7,0.1,1.2,0.1,1.5h0.1c0.4-1.2,1-2.2,1.9-3
				c0.9-0.8,2-1.2,3.2-1.2c1.1,0,2,0.2,2.7,0.7c0.7,0.5,1.2,1.1,1.6,1.8c0.4,0.8,0.6,1.6,0.7,2.6c0.1,1,0.2,2,0.2,3v13H452z"/>
			<path fill="#FFFFFF" d="M8.4,255.9c-0.5,0.1-1,0.2-1.5,0.2c-1.6,0-2.7-0.5-3.3-1.5c-0.7-1-1-2.4-1-4.2V238H0v-2.8h2.6v-5.4h3.4
				v5.4h3.6v2.8H5.9v11.7c0,1.2,0.2,2,0.5,2.6c0.4,0.5,0.9,0.8,1.6,0.8c0.2,0,0.5,0,0.8-0.1c0.3-0.1,0.5-0.1,0.7-0.2l0.1,2.8
				C9.3,255.6,8.9,255.8,8.4,255.9z"/>
			<path fill="#FFFFFF" d="M16.8,255.5h-3.5v-30.6h3.5v13.7h0.1c0.4-1.1,1-2.1,1.8-2.9c0.9-0.8,1.9-1.2,3.2-1.2c1.1,0,2,0.2,2.7,0.7
				c0.7,0.5,1.2,1.1,1.6,1.8c0.4,0.8,0.6,1.6,0.7,2.6c0.1,1,0.2,2,0.2,3v13h-3.5v-13c0-0.6,0-1.1-0.1-1.7c-0.1-0.6-0.2-1.1-0.4-1.6
				s-0.5-0.9-0.9-1.2c-0.4-0.3-0.9-0.4-1.5-0.4c-0.6,0-1.1,0.2-1.6,0.5c-0.5,0.3-0.9,0.7-1.3,1.3c-0.4,0.6-0.6,1.2-0.8,2
				c-0.2,0.8-0.3,1.6-0.3,2.5V255.5z"/>
			<path fill="#FFFFFF" d="M35.6,246.2c0,1,0.1,1.9,0.3,2.7c0.2,0.8,0.4,1.6,0.8,2.2c0.3,0.6,0.8,1.1,1.3,1.5
				c0.5,0.4,1.1,0.5,1.8,0.5c0.9,0,1.6-0.3,2.2-0.9c0.5-0.6,1-1.2,1.3-2l2.6,1.5c-0.5,1.3-1.3,2.3-2.3,3.2c-1,0.8-2.3,1.2-3.9,1.2
				c-2.3,0-4.1-1-5.5-2.9c-1.3-1.9-2-4.6-2-8c0-1.6,0.2-3.1,0.5-4.4c0.4-1.3,0.9-2.5,1.5-3.4s1.4-1.7,2.3-2.2s1.9-0.8,3-0.8
				c1.2,0,2.3,0.3,3.2,0.8c0.9,0.5,1.6,1.2,2.1,2.1c0.6,0.9,1,2,1.2,3.2c0.2,1.2,0.4,2.5,0.4,3.9v1.7H35.6z M42.9,243.4
				c0-1.8-0.3-3.2-0.8-4.3c-0.6-1.1-1.4-1.6-2.6-1.6c-0.7,0-1.3,0.2-1.8,0.6c-0.5,0.4-0.9,0.9-1.2,1.5c-0.3,0.6-0.5,1.2-0.6,1.9
				c-0.1,0.7-0.2,1.3-0.2,1.8H42.9z"/>
			<path fill="#FFFFFF" d="M75.7,255.5h-4l-3.1-15.4h0l-3.2,15.4h-3.8l-4.2-20.3h3.5l2.8,16.4h0.1l3.3-16.4h3.2l3.4,16.4h0l2.9-16.4
				H80L75.7,255.5z"/>
			<path fill="#FFFFFF" d="M92.9,255.5c-0.1-0.6-0.2-1.2-0.2-1.9c-0.1-0.6-0.1-1.1-0.1-1.5h-0.1c-0.3,1.2-0.8,2.2-1.6,2.9
				s-1.8,1-3.2,1c-0.6,0-1.1-0.1-1.7-0.3c-0.6-0.2-1.1-0.6-1.6-1.1c-0.5-0.5-0.9-1.1-1.2-1.9c-0.3-0.8-0.5-1.7-0.5-2.8
				c0-1.5,0.3-2.7,0.8-3.6c0.5-0.9,1.2-1.7,2-2.2c0.8-0.5,1.7-0.9,2.7-1.1c1-0.2,1.9-0.3,2.8-0.3h1.3V242c0-1.6-0.3-2.7-0.9-3.5
				c-0.6-0.7-1.4-1.1-2.5-1.1c-0.8,0-1.5,0.2-2.1,0.6c-0.6,0.4-1.2,0.9-1.7,1.5l-1.7-2.1c0.7-0.9,1.6-1.6,2.6-2.1
				c1.1-0.5,2.1-0.7,3.2-0.7c1.2,0,2.1,0.2,2.9,0.6s1.4,0.9,1.9,1.7c0.5,0.7,0.8,1.6,1,2.7s0.3,2.3,0.3,3.6v8.2c0,0.7,0,1.5,0.1,2.3
				c0.1,0.8,0.1,1.5,0.2,2H92.9z M92.3,245.5h-1.5c-0.6,0-1.2,0.1-1.8,0.2c-0.6,0.1-1.1,0.3-1.6,0.6c-0.5,0.3-0.8,0.7-1.1,1.3
				c-0.3,0.5-0.4,1.2-0.4,2.1c0,1.2,0.3,2.2,0.8,2.7c0.5,0.6,1.2,0.9,1.9,0.9c0.7,0,1.3-0.2,1.8-0.6c0.5-0.4,0.9-1,1.2-1.6
				c0.3-0.6,0.5-1.4,0.6-2.1s0.2-1.5,0.2-2.2V245.5z"/>
			<path fill="#FFFFFF" d="M107.5,259.2c-0.2,0.9-0.5,1.7-0.8,2.5c-0.3,0.7-0.7,1.4-1.1,1.9c-0.4,0.5-1,0.9-1.6,1.2
				s-1.4,0.4-2.2,0.4c-0.5,0-0.9,0-1.3-0.1c-0.4-0.1-0.8-0.1-1.1-0.2l0.4-3.1c0.5,0.2,1.1,0.3,1.6,0.3c0.8,0,1.4-0.2,1.8-0.7
				c0.4-0.5,0.7-1.2,0.9-2l0.8-3.2l-6-20.9h3.6l4,16.3h0.1l3.6-16.3h3.5L107.5,259.2z"/>
			<path fill="#FFFFFF" d="M132,259.2c-0.2,0.9-0.5,1.7-0.8,2.5c-0.3,0.7-0.7,1.4-1.1,1.9c-0.4,0.5-1,0.9-1.6,1.2s-1.4,0.4-2.2,0.4
				c-0.5,0-0.9,0-1.3-0.1c-0.4-0.1-0.8-0.1-1.1-0.2l0.4-3.1c0.5,0.2,1.1,0.3,1.6,0.3c0.8,0,1.4-0.2,1.8-0.7c0.4-0.5,0.7-1.2,0.9-2
				l0.8-3.2l-6-20.9h3.6l4,16.3h0.1l3.6-16.3h3.5L132,259.2z"/>
			<path fill="#FFFFFF" d="M155.8,245.4c0,1.6-0.2,3.1-0.5,4.4c-0.3,1.3-0.8,2.5-1.5,3.4c-0.6,0.9-1.4,1.7-2.3,2.2
				c-0.9,0.5-2,0.8-3.1,0.8c-1.1,0-2.2-0.3-3.1-0.8c-0.9-0.5-1.7-1.3-2.3-2.2c-0.6-0.9-1.1-2.1-1.5-3.4c-0.3-1.3-0.5-2.8-0.5-4.4
				s0.2-3.1,0.5-4.5c0.3-1.3,0.8-2.5,1.4-3.4c0.6-0.9,1.4-1.7,2.3-2.2c0.9-0.5,2-0.8,3.1-0.8c1.2,0,2.2,0.3,3.1,0.8
				c0.9,0.5,1.7,1.3,2.3,2.2c0.6,0.9,1.1,2.1,1.5,3.4C155.6,242.3,155.8,243.8,155.8,245.4z M152.2,245.4c0-1.1-0.1-2.1-0.2-3.1
				c-0.1-1-0.4-1.8-0.7-2.5c-0.3-0.7-0.7-1.3-1.2-1.7c-0.5-0.4-1.1-0.6-1.7-0.6s-1.2,0.2-1.7,0.6c-0.5,0.4-0.9,1-1.2,1.7
				c-0.3,0.7-0.5,1.5-0.7,2.5c-0.1,1-0.2,2-0.2,3.1c0,1.1,0.1,2.1,0.2,3.1c0.1,0.9,0.4,1.8,0.7,2.5c0.3,0.7,0.7,1.3,1.2,1.7
				c0.5,0.4,1.1,0.6,1.7,0.6c0.7,0,1.3-0.2,1.7-0.6c0.5-0.4,0.9-1,1.2-1.7c0.3-0.7,0.5-1.5,0.7-2.5
				C152.2,247.5,152.2,246.5,152.2,245.4z"/>
			<path fill="#FFFFFF" d="M164.3,235.2v13c0,0.6,0,1.1,0.1,1.7c0.1,0.6,0.2,1.1,0.4,1.6c0.2,0.5,0.5,0.9,0.9,1.2
				c0.4,0.3,0.9,0.4,1.5,0.4c0.6,0,1.1-0.2,1.6-0.5s0.9-0.7,1.3-1.3c0.4-0.6,0.6-1.2,0.8-2s0.3-1.6,0.3-2.5v-11.7h3.4v15.2
				c0,0.8,0,1.7,0,2.6c0,0.9,0.1,1.8,0.1,2.5h-3.3c-0.1-0.7-0.1-1.3-0.2-2c0-0.7-0.1-1.2-0.1-1.5h-0.1c-0.4,1.2-1,2.2-1.9,3
				c-0.9,0.8-2,1.2-3.2,1.2c-1.1,0-2-0.2-2.7-0.7c-0.7-0.5-1.2-1.1-1.6-1.8c-0.4-0.7-0.6-1.6-0.7-2.6c-0.1-1-0.2-2-0.2-3v-13H164.3z
				"/>
			<path fill="#FFFFFF" d="M189.1,255.5v-28.7h3.6v28.7H189.1z"/>
			<path fill="#FFFFFF" d="M219.1,255.5v-23.7h-0.1l-6.4,23.7h-3.3l-6.3-23.7h-0.1v23.7h-3.4v-28.7h5.4l6.1,22.8h0.2l6-22.8h5.6
				v28.7H219.1z"/>
			<path fill="#FFFFFF" d="M241.8,255.5l-1.6-6.7h-8.3l-1.7,6.7h-3.7l7.2-28.7h4.8l7,28.7H241.8z M236.1,230.2H236l-3.6,15.7h7.3
				L236.1,230.2z"/>
			<path fill="#FFFFFF" d="M258.3,226.2c1.5,0,2.9,0.3,4.1,0.9c1.2,0.6,2.2,1.4,3,2.6l-2.3,2.5c-0.6-0.9-1.3-1.5-2.1-1.9
				c-0.8-0.4-1.6-0.6-2.6-0.6c-1.1,0-2.1,0.3-2.9,0.9c-0.8,0.6-1.5,1.5-2,2.5c-0.5,1.1-0.9,2.3-1.2,3.7c-0.3,1.4-0.4,2.9-0.4,4.5
				c0,1.6,0.1,3.2,0.4,4.6c0.3,1.4,0.7,2.6,1.3,3.7c0.6,1,1.2,1.9,2.1,2.5s1.8,0.9,3,0.9c1.5,0,2.7-0.3,3.4-1v-8.9h-3.8v-3.2h7.3v14
				c-0.8,0.7-1.8,1.3-2.9,1.7c-1.1,0.4-2.5,0.6-4.1,0.6c-1.6,0-3.1-0.4-4.4-1.1s-2.4-1.7-3.3-3c-0.9-1.3-1.6-2.9-2.1-4.7
				c-0.5-1.8-0.7-3.9-0.7-6.1c0-2.2,0.2-4.2,0.7-6c0.5-1.8,1.1-3.4,2-4.7c0.9-1.3,1.9-2.4,3.2-3.1S256.7,226.2,258.3,226.2z"/>
			<path fill="#FFFFFF" d="M271.7,255.5v-28.7h3.6v28.7H271.7z"/>
			<path fill="#FFFFFF" d="M294.7,255.5l-9.2-22.2h-0.1v22.2H282v-28.7h4.4l9,22.3h0.1v-22.3h3.4v28.7H294.7z"/>
			<path fill="#FFFFFF" d="M305.6,255.5v-28.7h12.1v3.2h-8.5v9h8v3h-8v10.1h9v3.3H305.6z"/>
		</g>
	</g>
</g>
</svg>
