<?xml version="1.0" encoding="utf-8"?>
<!-- Generator: Adobe Illustrator 16.0.4, SVG Export Plug-In . SVG Version: 6.00 Build 0)  -->
<!DOCTYPE svg PUBLIC "-//W3C//DTD SVG 1.1//EN" "http://www.w3.org/Graphics/SVG/1.1/DTD/svg11.dtd">
<svg version="1.1" xmlns="http://www.w3.org/2000/svg" xmlns:xlink="http://www.w3.org/1999/xlink" x="0px" y="0px" width="667.3px"
	 height="292.8px" viewBox="0 0 667.3 292.8" enable-background="new 0 0 667.3 292.8" xml:space="preserve">
<g id="Layer_1">
	<g>
		<g>
			<path d="M67.3,85.7c-5.3,1.3-11,1.9-17.2,1.9c-6.4,0-12.4-1-17.8-3.1c-5.4-2-10.1-4.9-14-8.6c-3.9-3.7-6.9-8.2-9.1-13.3
				C7.1,57.4,6,51.6,6,45.2C6,38.8,7.1,33,9.3,27.8c2.2-5.2,5.3-9.7,9.3-13.3c3.9-3.7,8.6-6.5,13.9-8.5c5.3-2,11-3,17.1-3
				c6.4,0,12.3,1,17.7,2.9c5.5,1.9,9.9,4.5,13.3,7.8l-12.3,14c-1.9-2.2-4.4-4-7.5-5.4c-3.1-1.4-6.6-2.1-10.6-2.1
				c-3.4,0-6.5,0.6-9.4,1.9c-2.9,1.2-5.4,3-7.5,5.2c-2.1,2.2-3.8,4.9-4.9,7.9c-1.2,3.1-1.8,6.4-1.8,10c0,3.7,0.5,7.1,1.6,10.2
				c1.1,3.1,2.6,5.8,4.7,8c2.1,2.2,4.7,4,7.7,5.2s6.6,1.9,10.5,1.9c2.3,0,4.4-0.2,6.5-0.5c2-0.3,3.9-0.9,5.7-1.6V53.8H48V38.1h33.2
				v42.6C77.2,82.7,72.6,84.4,67.3,85.7z"/>
			<path d="M176.9,45c0,6.4-1.1,12.2-3.3,17.4c-2.2,5.3-5.2,9.8-9.1,13.5c-3.9,3.7-8.5,6.6-13.9,8.7c-5.4,2-11.2,3.1-17.5,3.1
				c-6.3,0-12.1-1-17.4-3.1s-10-4.9-13.9-8.7c-3.9-3.7-6.9-8.2-9.1-13.5c-2.2-5.3-3.3-11.1-3.3-17.4c0-6.4,1.1-12.2,3.3-17.4
				c2.2-5.2,5.2-9.6,9.1-13.2c3.9-3.6,8.5-6.4,13.9-8.4c5.3-2,11.1-3,17.4-3c6.3,0,12.1,1,17.5,3c5.4,2,10,4.8,13.9,8.4
				c3.9,3.6,6.9,8,9.1,13.2C175.8,32.8,176.9,38.6,176.9,45z M156.1,45c0-3.5-0.6-6.7-1.7-9.8c-1.1-3-2.7-5.6-4.7-7.8
				c-2-2.2-4.4-3.9-7.3-5.1s-6-1.9-9.4-1.9c-3.4,0-6.5,0.6-9.3,1.9c-2.8,1.2-5.2,3-7.3,5.1c-2,2.2-3.6,4.8-4.7,7.8
				c-1.1,3-1.6,6.3-1.6,9.8c0,3.6,0.6,7,1.7,10c1.1,3.1,2.7,5.7,4.7,7.9c2,2.2,4.4,3.9,7.2,5.2c2.8,1.2,5.9,1.9,9.3,1.9
				c3.4,0,6.5-0.6,9.3-1.9c2.8-1.2,5.2-3,7.3-5.2c2-2.2,3.6-4.8,4.8-7.9C155.5,52,156.1,48.6,156.1,45z"/>
			<path d="M272.8,62.2c0,4.4-0.9,8.1-2.6,11.1c-1.7,3-4.1,5.4-6.9,7.2c-2.9,1.8-6.2,3.1-9.8,3.9c-3.7,0.8-7.4,1.2-11.3,1.2h-32V5.2
				h32c3.1,0,6.3,0.3,9.5,1c3.3,0.6,6.2,1.7,8.9,3.3c2.6,1.6,4.8,3.7,6.5,6.3c1.7,2.7,2.5,6,2.5,10.1c0,4.5-1.2,8.2-3.6,11.1
				c-2.4,2.9-5.6,5-9.5,6.3v0.2c2.3,0.4,4.4,1.1,6.4,2.1c2,1,3.7,2.3,5.2,3.9c1.5,1.6,2.6,3.4,3.5,5.6
				C272.4,57.1,272.8,59.5,272.8,62.2z M250.8,28.4c0-2.7-1-4.7-3.1-6c-2.1-1.2-5.2-1.9-9.3-1.9h-9.5v16.6h10.4
				c3.6,0,6.5-0.7,8.5-2.2C249.8,33.5,250.8,31.3,250.8,28.4z M253.4,60.3c0-3.3-1.2-5.6-3.7-6.9c-2.5-1.3-5.8-1.9-10-1.9h-10.8
				v18.4h10.9c1.5,0,3.1-0.1,4.7-0.4c1.6-0.3,3.1-0.7,4.4-1.4c1.3-0.7,2.4-1.6,3.2-2.9C253,63.9,253.4,62.3,253.4,60.3z"/>
			<path d="M281.7,85.6V5.2H356v16.4h-55.6v15.2h33.4v15.6h-33.4V69h37.4v16.6H281.7z"/>
			<path d="M385.7,51.5v34.1h-19.4V51.5L336.1,5.2h23.5l17.1,29.8l17.1-29.8h22.7L385.7,51.5z"/>
			<path d="M497.6,45c0,6.4-1.1,12.2-3.3,17.4c-2.2,5.3-5.2,9.8-9.1,13.5c-3.9,3.7-8.5,6.6-13.9,8.7c-5.4,2-11.2,3.1-17.5,3.1
				c-6.3,0-12.1-1-17.4-3.1s-10-4.9-13.9-8.7c-3.9-3.7-6.9-8.2-9.1-13.5c-2.2-5.3-3.3-11.1-3.3-17.4c0-6.4,1.1-12.2,3.3-17.4
				c2.2-5.2,5.2-9.6,9.1-13.2c3.9-3.6,8.5-6.4,13.9-8.4c5.3-2,11.1-3,17.4-3c6.3,0,12.1,1,17.5,3c5.4,2,10,4.8,13.9,8.4
				c3.9,3.6,6.9,8,9.1,13.2C496.5,32.8,497.6,38.6,497.6,45z M476.9,45c0-3.5-0.6-6.7-1.7-9.8c-1.1-3-2.7-5.6-4.7-7.8
				c-2-2.2-4.4-3.9-7.3-5.1s-6-1.9-9.4-1.9c-3.4,0-6.5,0.6-9.3,1.9c-2.8,1.2-5.2,3-7.3,5.1c-2,2.2-3.6,4.8-4.7,7.8
				c-1.1,3-1.6,6.3-1.6,9.8c0,3.6,0.6,7,1.7,10c1.1,3.1,2.7,5.7,4.7,7.9c2,2.2,4.4,3.9,7.2,5.2c2.8,1.2,5.9,1.9,9.3,1.9
				c3.4,0,6.5-0.6,9.3-1.9c2.8-1.2,5.2-3,7.3-5.2c2-2.2,3.6-4.8,4.8-7.9C476.3,52,476.9,48.6,476.9,45z"/>
			<path d="M557.6,85.6L525.2,33h-0.3l0.5,52.6h-18.8V5.2h22.1l32.2,52.5h0.3l-0.5-52.5h18.8v80.4H557.6z"/>
			<path d="M667.3,45.1c0,7-1.3,13.1-3.9,18.2c-2.6,5.1-6.1,9.3-10.3,12.6c-4.3,3.3-9.1,5.7-14.5,7.3c-5.4,1.6-10.8,2.3-16.4,2.3
				h-30V5.2h29.1c5.7,0,11.3,0.7,16.8,2c5.5,1.3,10.4,3.5,14.8,6.6c4.3,3.1,7.8,7.2,10.4,12.3C666,31.2,667.3,37.6,667.3,45.1z
				 M647.1,45.1c0-4.5-0.7-8.3-2.2-11.3c-1.5-3-3.4-5.4-5.9-7.2c-2.5-1.8-5.3-3-8.4-3.8c-3.1-0.8-6.4-1.1-9.7-1.1h-9.7v47h9.2
				c3.5,0,6.8-0.4,10-1.2c3.2-0.8,6.1-2.1,8.5-3.9c2.5-1.8,4.4-4.2,5.9-7.3C646.3,53.3,647.1,49.6,647.1,45.1z"/>
		</g>
		<g>
			<path d="M38.2,160.4l0.1-34.8h-0.2L29,160.4h-6l-8.9-34.8h-0.2l0.1,34.8h-7v-45.3h10.3l8.7,33.1h0.3l8.5-33.1h10.8v45.3H38.2z"/>
			<path d="M72.5,160.4l-2.2-9.6H58.4l-2.3,9.6h-7.7l11.3-45.3h9.8l11.1,45.3H72.5z M64.5,122.4h-0.3l-4.9,22.5h10L64.5,122.4z"/>
			<path d="M100.8,157.8c-1.9,2.5-4.9,3.8-8.9,3.8c-2.9,0-5.4-0.8-7.3-2.4c-1.9-1.6-3.2-3.7-3.8-6.4l6.4-2.8c0.3,1.1,0.8,2.1,1.5,3
				c0.7,0.9,1.7,1.4,3,1.4c1.7,0,2.9-0.7,3.5-2.1c0.6-1.4,0.9-3.3,0.9-5.8v-31.4h7.6v32.1C103.6,151.8,102.7,155.3,100.8,157.8z"/>
			<path d="M141.2,137.7c0,3.6-0.4,6.8-1.1,9.8c-0.7,2.9-1.8,5.4-3.2,7.5c-1.4,2.1-3.1,3.7-5.1,4.9c-2,1.2-4.3,1.7-6.8,1.7
				c-2.6,0-4.8-0.6-6.8-1.7c-2-1.2-3.7-2.8-5.1-4.9c-1.4-2.1-2.5-4.6-3.2-7.5c-0.7-2.9-1.1-6.2-1.1-9.8c0-3.6,0.4-6.8,1.1-9.7
				c0.7-2.9,1.8-5.4,3.2-7.5c1.4-2.1,3.1-3.7,5.1-4.8c2-1.1,4.3-1.7,6.9-1.7c2.5,0,4.8,0.6,6.8,1.7c2,1.1,3.7,2.7,5.1,4.8
				c1.4,2.1,2.5,4.6,3.2,7.5C140.9,130.9,141.2,134.2,141.2,137.7z M133.3,137.7c0-2.3-0.2-4.5-0.5-6.5c-0.4-2-0.9-3.8-1.6-5.2
				s-1.6-2.6-2.6-3.5c-1-0.9-2.2-1.3-3.6-1.3c-1.4,0-2.6,0.4-3.7,1.3c-1,0.9-1.9,2-2.6,3.5s-1.2,3.2-1.6,5.2c-0.3,2-0.5,4.2-0.5,6.5
				s0.2,4.5,0.5,6.5c0.3,2,0.9,3.8,1.6,5.3c0.7,1.5,1.6,2.7,2.6,3.5c1,0.9,2.3,1.3,3.7,1.3s2.6-0.4,3.7-1.3c1-0.9,1.9-2,2.6-3.5
				c0.7-1.5,1.2-3.3,1.6-5.3C133.1,142.2,133.3,140,133.3,137.7z"/>
			<path d="M165.2,160.4l-7-19.3h-4.3v19.3h-7.4v-45.3h12.9c1.9,0,3.6,0.2,5.2,0.7c1.6,0.5,2.9,1.3,4.1,2.3c1.1,1.1,2,2.4,2.7,4
				c0.6,1.6,1,3.6,1,5.8c0,1.7-0.2,3.3-0.7,4.6s-1,2.5-1.7,3.4c-0.7,0.9-1.4,1.7-2.3,2.3s-1.7,1-2.5,1.2l8.1,20.9H165.2z
				 M164.7,128.5c0-1.4-0.2-2.5-0.6-3.4c-0.4-0.9-0.9-1.6-1.5-2.1c-0.6-0.5-1.3-0.9-2.1-1.1c-0.8-0.2-1.5-0.3-2.3-0.3h-4.4v13.9h4.4
				c1.9,0,3.4-0.6,4.6-1.8C164.1,132.6,164.7,130.8,164.7,128.5z"/>
			<path d="M195.2,123.9c-1.7-2-3.8-3-6.3-3c-0.7,0-1.4,0.1-2.1,0.4c-0.7,0.2-1.3,0.6-1.9,1.1c-0.6,0.5-1,1.2-1.3,2
				c-0.3,0.8-0.5,1.8-0.5,2.9c0,1.9,0.6,3.4,1.7,4.4c1.2,1,2.7,2,4.5,3c1.1,0.6,2.2,1.2,3.4,1.9c1.2,0.7,2.2,1.6,3.1,2.6
				c0.9,1,1.7,2.2,2.3,3.6c0.6,1.4,0.9,3.1,0.9,5c0,2.2-0.4,4.2-1.1,5.9c-0.7,1.7-1.6,3.1-2.8,4.3c-1.2,1.2-2.5,2.1-4.1,2.7
				c-1.6,0.6-3.2,0.9-5,0.9c-2.5,0-4.8-0.5-7-1.5c-2.1-1-3.8-2.2-5.1-3.7l4.2-5.6c1,1.2,2.2,2.1,3.5,2.8c1.4,0.7,2.8,1,4.3,1
				c1.6,0,3-0.6,4-1.7c1.1-1.1,1.6-2.7,1.6-4.7c0-2-0.6-3.5-1.9-4.7c-1.3-1.2-2.9-2.2-4.9-3.2c-1.2-0.6-2.4-1.3-3.5-2
				c-1.1-0.7-2-1.6-2.9-2.6c-0.8-1-1.5-2.2-2-3.5c-0.5-1.3-0.7-3-0.7-4.8c0-2.3,0.4-4.4,1.1-6c0.7-1.7,1.7-3.1,2.9-4.2
				c1.2-1.1,2.6-1.9,4.1-2.5c1.5-0.5,3.1-0.8,4.7-0.8c2.3,0,4.4,0.4,6.2,1.1c1.8,0.7,3.3,1.8,4.6,3.3L195.2,123.9z"/>
			<path d="M207.3,168.4h-5.7l3.7-17.2h6.8L207.3,168.4z"/>
			<path d="M250.2,159.9c-1.9,1.1-4.2,1.7-7,1.7c-2.6,0-4.9-0.6-6.9-1.8c-2.1-1.2-3.8-2.8-5.2-5c-1.4-2.1-2.5-4.6-3.3-7.5
				c-0.8-2.9-1.2-6.1-1.2-9.5c0-3.5,0.4-6.6,1.2-9.6c0.8-2.9,1.9-5.4,3.4-7.5c1.4-2.1,3.2-3.8,5.3-4.9c2.1-1.2,4.4-1.8,6.9-1.8
				c2.6,0,4.9,0.5,6.8,1.4c2,1,3.6,2.3,4.8,4.1l-4.4,5.4c-1.7-2.5-4-3.8-6.8-3.8c-1.5,0-2.9,0.4-4,1.3c-1.2,0.9-2.1,2.1-2.9,3.6
				c-0.8,1.5-1.3,3.3-1.7,5.3c-0.4,2-0.6,4.2-0.6,6.5c0,2.3,0.2,4.4,0.6,6.4c0.4,2,1,3.8,1.7,5.3c0.8,1.5,1.7,2.7,2.9,3.5
				c1.2,0.9,2.5,1.3,4.1,1.3c1.5,0,2.8-0.4,3.9-1.2s2-1.7,2.7-2.8l4.4,5.2C253.6,157.4,252.1,158.8,250.2,159.9z"/>
			<path d="M258.3,160.4v-45.3h7.7v38.2h17.2v7.1H258.3z"/>
			<path d="M301.2,160.4l-2.2-9.6h-11.9l-2.3,9.6h-7.7l11.3-45.3h9.8l11.1,45.3H301.2z M293.2,122.4H293l-4.9,22.5h10L293.2,122.4z"
				/>
			<path d="M330.8,123.9c-1.7-2-3.8-3-6.3-3c-0.7,0-1.4,0.1-2.1,0.4c-0.7,0.2-1.3,0.6-1.9,1.1c-0.6,0.5-1,1.2-1.3,2
				c-0.3,0.8-0.5,1.8-0.5,2.9c0,1.9,0.6,3.4,1.7,4.4c1.2,1,2.7,2,4.5,3c1.1,0.6,2.2,1.2,3.4,1.9c1.2,0.7,2.2,1.6,3.1,2.6
				c0.9,1,1.7,2.2,2.3,3.6c0.6,1.4,0.9,3.1,0.9,5c0,2.2-0.4,4.2-1.1,5.9c-0.7,1.7-1.6,3.1-2.8,4.3c-1.2,1.2-2.5,2.1-4.1,2.7
				c-1.6,0.6-3.2,0.9-5,0.9c-2.5,0-4.8-0.5-7-1.5c-2.1-1-3.8-2.2-5.1-3.7l4.2-5.6c1,1.2,2.2,2.1,3.5,2.8c1.4,0.7,2.8,1,4.3,1
				c1.6,0,3-0.6,4-1.7c1.1-1.1,1.6-2.7,1.6-4.7c0-2-0.6-3.5-1.9-4.7c-1.3-1.2-2.9-2.2-4.9-3.2c-1.2-0.6-2.4-1.3-3.5-2
				c-1.1-0.7-2-1.6-2.9-2.6c-0.8-1-1.5-2.2-2-3.5c-0.5-1.3-0.7-3-0.7-4.8c0-2.3,0.4-4.4,1.1-6c0.7-1.7,1.7-3.1,2.9-4.2
				c1.2-1.1,2.6-1.9,4.1-2.5c1.5-0.5,3.1-0.8,4.7-0.8c2.3,0,4.4,0.4,6.2,1.1c1.8,0.7,3.3,1.8,4.6,3.3L330.8,123.9z"/>
			<path d="M357.6,123.9c-1.7-2-3.8-3-6.3-3c-0.7,0-1.4,0.1-2.1,0.4c-0.7,0.2-1.3,0.6-1.9,1.1c-0.6,0.5-1,1.2-1.3,2
				c-0.3,0.8-0.5,1.8-0.5,2.9c0,1.9,0.6,3.4,1.7,4.4c1.2,1,2.7,2,4.5,3c1.1,0.6,2.2,1.2,3.4,1.9c1.2,0.7,2.2,1.6,3.1,2.6
				c0.9,1,1.7,2.2,2.3,3.6c0.6,1.4,0.9,3.1,0.9,5c0,2.2-0.4,4.2-1.1,5.9c-0.7,1.7-1.6,3.1-2.8,4.3c-1.2,1.2-2.5,2.1-4.1,2.7
				c-1.6,0.6-3.2,0.9-5,0.9c-2.5,0-4.8-0.5-7-1.5c-2.1-1-3.8-2.2-5.1-3.7l4.2-5.6c1,1.2,2.2,2.1,3.5,2.8c1.4,0.7,2.8,1,4.3,1
				c1.6,0,3-0.6,4-1.7c1.1-1.1,1.6-2.7,1.6-4.7c0-2-0.6-3.5-1.9-4.7c-1.3-1.2-2.9-2.2-4.9-3.2c-1.2-0.6-2.4-1.3-3.5-2
				c-1.1-0.7-2-1.6-2.9-2.6c-0.8-1-1.5-2.2-2-3.5c-0.5-1.3-0.7-3-0.7-4.8c0-2.3,0.4-4.4,1.1-6c0.7-1.7,1.7-3.1,2.9-4.2
				c1.2-1.1,2.6-1.9,4.1-2.5c1.5-0.5,3.1-0.8,4.7-0.8c2.3,0,4.4,0.4,6.2,1.1c1.8,0.7,3.3,1.8,4.6,3.3L357.6,123.9z"/>
			<path d="M366.6,160.4v-45.3h20.3v6.8H374v12h12v6.3h-12v13.4h13.6v6.8H366.6z"/>
			<path d="M410.3,123.9c-1.7-2-3.8-3-6.3-3c-0.7,0-1.4,0.1-2.1,0.4c-0.7,0.2-1.3,0.6-1.9,1.1c-0.6,0.5-1,1.2-1.3,2
				c-0.3,0.8-0.5,1.8-0.5,2.9c0,1.9,0.6,3.4,1.7,4.4c1.2,1,2.7,2,4.5,3c1.1,0.6,2.2,1.2,3.4,1.9c1.2,0.7,2.2,1.6,3.1,2.6
				c0.9,1,1.7,2.2,2.3,3.6s0.9,3.1,0.9,5c0,2.2-0.4,4.2-1.1,5.9c-0.7,1.7-1.6,3.1-2.8,4.3s-2.5,2.1-4.1,2.7c-1.6,0.6-3.2,0.9-5,0.9
				c-2.5,0-4.8-0.5-7-1.5s-3.8-2.2-5.1-3.7l4.2-5.6c1,1.2,2.2,2.1,3.5,2.8c1.4,0.7,2.8,1,4.3,1c1.6,0,3-0.6,4-1.7
				c1.1-1.1,1.6-2.7,1.6-4.7c0-2-0.6-3.5-1.9-4.7c-1.3-1.2-2.9-2.2-4.9-3.2c-1.2-0.6-2.4-1.3-3.5-2c-1.1-0.7-2-1.6-2.9-2.6
				c-0.8-1-1.5-2.2-2-3.5s-0.7-3-0.7-4.8c0-2.3,0.4-4.4,1.1-6c0.7-1.7,1.7-3.1,2.9-4.2c1.2-1.1,2.6-1.9,4.1-2.5
				c1.5-0.5,3.1-0.8,4.7-0.8c2.3,0,4.4,0.4,6.2,1.1c1.8,0.7,3.3,1.8,4.6,3.3L410.3,123.9z"/>
			<path d="M422.4,168.4h-5.7l3.7-17.2h6.8L422.4,168.4z"/>
			<path d="M466.3,160.4l-3.3-4.7c-0.9,1.6-2.1,2.9-3.7,4c-1.6,1.1-3.6,1.7-6.1,1.7c-3.6,0-6.5-1.2-8.7-3.5
				c-2.2-2.3-3.3-5.6-3.3-9.9c0-3.1,0.7-5.7,2.2-7.8c1.5-2.1,3.3-3.8,5.5-5.1c-1.2-1.7-2.1-3.3-2.6-4.9c-0.6-1.6-0.8-3.3-0.8-5.1
				c0-1.7,0.3-3.3,0.8-4.7s1.3-2.6,2.3-3.6c1-1,2.1-1.7,3.4-2.3c1.3-0.5,2.8-0.8,4.3-0.8c1.5,0,2.8,0.2,4.1,0.7
				c1.2,0.5,2.3,1.2,3.2,2.1c0.9,0.9,1.6,2,2.1,3.4c0.5,1.3,0.8,2.8,0.8,4.5c0,1.5-0.2,2.8-0.7,4c-0.5,1.2-1.1,2.3-1.9,3.3
				c-0.8,1-1.7,1.9-2.7,2.7c-1,0.8-2.1,1.6-3.2,2.2l5.2,7.5l3.5-8.4h7.5l-6.7,13.8l7.6,10.8L466.3,160.4z M452.4,140.3
				c-0.9,0.6-1.8,1.5-2.6,2.7c-0.8,1.2-1.2,2.8-1.2,4.7c0,2.3,0.5,4,1.5,5.3c1,1.3,2.3,2,3.9,2c1.4,0,2.5-0.5,3.4-1.4
				c0.9-1,1.5-2,1.9-3.1L452.4,140.3z M459.9,125c0-1.5-0.3-2.8-0.9-3.8c-0.6-1-1.5-1.5-2.6-1.5c-1.1,0-2.1,0.5-2.8,1.6
				c-0.7,1.1-1,2.4-1,3.9c0,1.3,0.2,2.5,0.6,3.6c0.4,1.1,1.1,2.3,1.9,3.5c1.3-0.9,2.4-1.9,3.3-3C459.4,128.2,459.9,126.7,459.9,125z
				"/>
			<path d="M510.7,160.4c-1.9,0.7-4.2,1-6.8,1c-2.7,0-5.1-0.6-7.2-1.7c-2.1-1.1-3.9-2.7-5.4-4.8c-1.5-2.1-2.6-4.6-3.4-7.5
				s-1.2-6.1-1.2-9.7c0-3.5,0.4-6.6,1.2-9.5c0.8-2.9,1.9-5.4,3.3-7.5c1.4-2.1,3.2-3.8,5.2-4.9c2-1.2,4.3-1.8,6.9-1.8
				c2.7,0,5,0.5,7,1.4c2,1,3.6,2.3,4.8,4.1l-4.4,5.4c-1.7-2.5-4-3.7-6.9-3.7c-1.6,0-3,0.4-4.1,1.3c-1.2,0.9-2.1,2.1-2.9,3.6
				c-0.8,1.5-1.3,3.3-1.7,5.3c-0.4,2-0.6,4.1-0.6,6.3c0,2.3,0.2,4.5,0.6,6.5c0.4,2,1,3.8,1.7,5.3s1.7,2.7,2.9,3.5
				c1.2,0.9,2.6,1.3,4.2,1.3c1,0,2-0.1,2.8-0.4c0.8-0.2,1.5-0.5,2-0.9v-11.7h-5.5v-6.7h12.5v23C514.2,158.8,512.6,159.7,510.7,160.4
				z"/>
			<path d="M540.6,160.4l-7-19.3h-4.3v19.3h-7.4v-45.3h12.9c1.9,0,3.6,0.2,5.2,0.7c1.6,0.5,2.9,1.3,4.1,2.3c1.1,1.1,2,2.4,2.7,4
				c0.6,1.6,1,3.6,1,5.8c0,1.7-0.2,3.3-0.7,4.6s-1,2.5-1.7,3.4c-0.7,0.9-1.4,1.7-2.3,2.3s-1.7,1-2.5,1.2l8.1,20.9H540.6z
				 M540.1,128.5c0-1.4-0.2-2.5-0.6-3.4c-0.4-0.9-0.9-1.6-1.5-2.1c-0.6-0.5-1.3-0.9-2.1-1.1c-0.8-0.2-1.5-0.3-2.3-0.3h-4.3v13.9h4.3
				c1.9,0,3.4-0.6,4.6-1.8C539.5,132.6,540.1,130.8,540.1,128.5z"/>
			<path d="M573.3,160.4l-2.2-9.6h-11.9l-2.3,9.6h-7.7l11.3-45.3h9.8l11.1,45.3H573.3z M565.3,122.4h-0.3l-4.9,22.5h10L565.3,122.4z
				"/>
			<path d="M613.3,137.9c0,7.2-1.5,12.7-4.5,16.7s-7.4,5.9-13.3,5.9h-11.3v-45.3h11.4c5.8,0,10.2,2,13.2,6
				C611.7,125.1,613.3,130.7,613.3,137.9z M605.6,137.9c0-2.7-0.2-5-0.7-7c-0.5-2-1.2-3.7-2.1-5c-0.9-1.3-2-2.3-3.2-3
				c-1.2-0.7-2.6-1-4-1h-3.6v31.9h3.6c1.4,0,2.8-0.3,4-1c1.2-0.7,2.3-1.7,3.2-3c0.9-1.3,1.6-3,2.1-5
				C605.3,142.8,605.6,140.5,605.6,137.9z"/>
			<path d="M618.6,160.4v-45.3h20.3v6.8H626v12h12v6.3h-12v13.4h13.6v6.8H618.6z"/>
			<path d="M662.4,123.9c-1.7-2-3.8-3-6.3-3c-0.7,0-1.4,0.1-2.1,0.4c-0.7,0.2-1.3,0.6-1.9,1.1s-1,1.2-1.3,2
				c-0.3,0.8-0.5,1.8-0.5,2.9c0,1.9,0.6,3.4,1.7,4.4c1.2,1,2.7,2,4.5,3c1.1,0.6,2.2,1.2,3.4,1.9c1.2,0.7,2.2,1.6,3.1,2.6
				s1.7,2.2,2.3,3.6s0.9,3.1,0.9,5c0,2.2-0.4,4.2-1.1,5.9c-0.7,1.7-1.6,3.1-2.8,4.3c-1.2,1.2-2.5,2.1-4.1,2.7
				c-1.6,0.6-3.2,0.9-5,0.9c-2.5,0-4.8-0.5-7-1.5s-3.8-2.2-5.1-3.7l4.2-5.6c1,1.2,2.2,2.1,3.6,2.8c1.4,0.7,2.8,1,4.3,1
				c1.6,0,3-0.6,4-1.7c1.1-1.1,1.6-2.7,1.6-4.7c0-2-0.6-3.5-1.9-4.7c-1.3-1.2-2.9-2.2-4.9-3.2c-1.2-0.6-2.4-1.3-3.5-2
				c-1.1-0.7-2-1.6-2.9-2.6c-0.8-1-1.5-2.2-2-3.5s-0.7-3-0.7-4.8c0-2.3,0.4-4.4,1.1-6c0.7-1.7,1.7-3.1,2.9-4.2
				c1.2-1.1,2.6-1.9,4.1-2.5c1.5-0.5,3.1-0.8,4.7-0.8c2.3,0,4.4,0.4,6.2,1.1c1.8,0.7,3.3,1.8,4.6,3.3L662.4,123.9z"/>
		</g>
		<path d="M21.2,218.3h-0.1c-0.6,1.1-1.6,1.9-2.9,2.6c-1.3,0.7-2.8,1-4.5,1c-1,0-2-0.1-3-0.4c-1-0.2-2-0.7-2.9-1.2
			c-0.9-0.6-1.6-1.3-2.2-2.3c-0.6-0.9-0.9-2.1-0.9-3.5c0-1.8,0.5-3.2,1.5-4.3c1-1.1,2.3-1.9,3.9-2.4s3.4-0.9,5.3-1.1
			c1.9-0.2,3.8-0.3,5.7-0.3v-0.6c0-1.5-0.5-2.6-1.6-3.3c-1.1-0.7-2.4-1.1-3.8-1.1c-1.3,0-2.5,0.3-3.6,0.8c-1.2,0.5-2.1,1.2-2.9,1.9
			l-3.1-3.6c1.4-1.3,2.9-2.2,4.7-2.8c1.8-0.6,3.6-0.9,5.4-0.9c2.1,0,3.9,0.3,5.2,0.9c1.4,0.6,2.5,1.4,3.3,2.3c0.8,1,1.3,2,1.7,3.2
			c0.3,1.2,0.5,2.4,0.5,3.6v14.5h-5.6V218.3z M21.1,210.4h-1.3c-1,0-2,0-3,0.1c-1.1,0.1-2,0.3-2.9,0.5c-0.9,0.3-1.6,0.7-2.2,1.2
			c-0.6,0.5-0.9,1.2-0.9,2.1c0,0.6,0.1,1,0.4,1.4c0.2,0.4,0.6,0.7,1,0.9c0.4,0.2,0.8,0.4,1.3,0.5s1,0.1,1.5,0.1
			c2.1,0,3.6-0.5,4.7-1.6c1.1-1.1,1.6-2.6,1.6-4.5V210.4z"/>
		<path d="M32,197.5h5.7v3.8h0.1c0.5-1.2,1.4-2.2,2.8-3.2c1.3-0.9,2.9-1.4,4.6-1.4c1.6,0,2.9,0.3,4,0.8c1.1,0.5,2,1.3,2.7,2.2
			c0.7,0.9,1.2,1.9,1.6,3.1c0.3,1.2,0.5,2.4,0.5,3.6v14.9h-6v-13.2c0-0.7,0-1.4-0.1-2.2c-0.1-0.8-0.3-1.4-0.6-2.1
			c-0.3-0.6-0.8-1.1-1.4-1.5c-0.6-0.4-1.3-0.6-2.3-0.6c-1,0-1.8,0.2-2.5,0.6c-0.7,0.4-1.3,0.9-1.7,1.5c-0.4,0.6-0.8,1.3-1,2.1
			c-0.2,0.8-0.3,1.6-0.3,2.4v13.1h-6V197.5z"/>
		<path d="M83.4,221.3h-5.7v-3.6h-0.1c-0.8,1.4-2,2.4-3.5,3.2c-1.5,0.7-3.1,1.1-4.7,1.1c-1.8,0-3.5-0.3-4.9-1
			c-1.4-0.7-2.7-1.6-3.7-2.7c-1-1.1-1.8-2.5-2.3-4c-0.5-1.5-0.8-3.2-0.8-4.9c0-1.8,0.3-3.4,0.8-4.9c0.6-1.5,1.4-2.8,2.4-4
			c1-1.1,2.3-2,3.7-2.7c1.4-0.6,3-1,4.7-1c1.1,0,2.1,0.1,2.9,0.4c0.9,0.2,1.6,0.6,2.3,0.9c0.6,0.4,1.2,0.8,1.7,1.2
			c0.5,0.4,0.8,0.8,1.1,1.2h0.1v-16.7h6V221.3z M63.8,209.3c0,0.9,0.1,1.9,0.4,2.8s0.7,1.8,1.3,2.5c0.6,0.7,1.3,1.3,2.1,1.8
			c0.9,0.5,1.9,0.7,3,0.7c1.1,0,2.1-0.2,2.9-0.7c0.9-0.4,1.6-1,2.2-1.8c0.6-0.7,1.1-1.5,1.4-2.5c0.3-0.9,0.5-1.8,0.5-2.8
			c0-0.9-0.2-1.9-0.5-2.8c-0.3-0.9-0.8-1.8-1.4-2.5c-0.6-0.7-1.3-1.3-2.2-1.8c-0.9-0.5-1.8-0.7-2.9-0.7c-1.2,0-2.2,0.2-3,0.7
			c-0.9,0.4-1.6,1-2.1,1.8c-0.6,0.7-1,1.5-1.3,2.5C63.9,207.5,63.8,208.4,63.8,209.3z"/>
		<path d="M122.3,209.7c0,0.3,0,0.5,0,0.8c0,0.3,0,0.5,0,0.8h-18.1c0.1,0.9,0.3,1.6,0.7,2.4c0.4,0.7,0.9,1.3,1.5,1.8
			c0.6,0.5,1.3,0.9,2.1,1.2c0.8,0.3,1.6,0.4,2.5,0.4c1.5,0,2.7-0.3,3.8-0.8c1-0.5,1.9-1.3,2.5-2.3l4,3.2c-2.4,3.2-5.8,4.8-10.2,4.8
			c-1.9,0-3.6-0.3-5.1-0.9c-1.6-0.6-2.9-1.4-4-2.5c-1.1-1.1-2-2.4-2.7-3.9c-0.6-1.5-1-3.3-1-5.2c0-1.9,0.3-3.7,1-5.2
			c0.6-1.6,1.5-2.9,2.7-4c1.1-1.1,2.5-2,4-2.6c1.5-0.6,3.2-0.9,5-0.9c1.7,0,3.2,0.3,4.6,0.8c1.4,0.5,2.6,1.4,3.6,2.4
			c1,1.1,1.8,2.4,2.4,4C122,205.7,122.3,207.5,122.3,209.7z M116.3,207c0-0.8-0.1-1.5-0.3-2.2c-0.2-0.7-0.6-1.3-1-1.8
			c-0.5-0.5-1.1-1-1.8-1.3c-0.7-0.3-1.5-0.5-2.5-0.5c-1.8,0-3.3,0.5-4.5,1.6c-1.2,1.1-1.9,2.5-2.1,4.1H116.3z"/>
		<path d="M132.4,208.7l-8.6-11.2h7.1l5.2,7.4l5.3-7.4h6.9l-8.5,11.2l9.7,12.7h-7.2l-6.2-8.7l-6.3,8.7h-7.1L132.4,208.7z"/>
		<path d="M157,197.5v3.3h0.1c0.3-0.5,0.7-0.9,1.2-1.4c0.5-0.5,1.1-0.9,1.8-1.3c0.7-0.4,1.5-0.7,2.4-0.9c0.9-0.2,1.9-0.4,3-0.4
			c1.7,0,3.2,0.3,4.7,1c1.4,0.6,2.6,1.5,3.7,2.7c1,1.1,1.8,2.4,2.4,4c0.6,1.5,0.8,3.2,0.8,4.9c0,1.8-0.3,3.4-0.8,4.9
			c-0.5,1.5-1.3,2.9-2.3,4c-1,1.1-2.2,2.1-3.7,2.7c-1.4,0.7-3.1,1-4.9,1c-1.7,0-3.2-0.3-4.6-1c-1.4-0.7-2.5-1.6-3.3-2.8h-0.1v15.1
			h-6v-35.7H157z M170.9,209.3c0-0.9-0.1-1.8-0.4-2.8c-0.3-0.9-0.7-1.7-1.3-2.5c-0.6-0.7-1.3-1.3-2.1-1.8c-0.9-0.4-1.9-0.7-3-0.7
			c-1.1,0-2.1,0.2-2.9,0.7c-0.9,0.5-1.6,1.1-2.2,1.8c-0.6,0.7-1.1,1.6-1.4,2.5c-0.3,0.9-0.5,1.9-0.5,2.8c0,0.9,0.2,1.8,0.5,2.8
			c0.3,0.9,0.8,1.7,1.4,2.5c0.6,0.7,1.3,1.3,2.2,1.8c0.9,0.4,1.8,0.7,2.9,0.7c1.2,0,2.2-0.2,3-0.7c0.9-0.5,1.6-1.1,2.1-1.8
			c0.6-0.7,1-1.6,1.3-2.5C170.7,211.2,170.9,210.2,170.9,209.3z"/>
		<path d="M203.7,209.7c0,0.3,0,0.5,0,0.8c0,0.3,0,0.5,0,0.8h-18.1c0.1,0.9,0.3,1.6,0.7,2.4c0.4,0.7,0.9,1.3,1.5,1.8
			c0.6,0.5,1.3,0.9,2.1,1.2c0.8,0.3,1.6,0.4,2.5,0.4c1.5,0,2.7-0.3,3.8-0.8c1-0.5,1.9-1.3,2.5-2.3l4,3.2c-2.4,3.2-5.8,4.8-10.2,4.8
			c-1.9,0-3.6-0.3-5.1-0.9c-1.6-0.6-2.9-1.4-4-2.5c-1.1-1.1-2-2.4-2.7-3.9c-0.6-1.5-1-3.3-1-5.2c0-1.9,0.3-3.7,1-5.2
			c0.6-1.6,1.5-2.9,2.7-4c1.1-1.1,2.5-2,4-2.6c1.5-0.6,3.2-0.9,5-0.9c1.7,0,3.2,0.3,4.6,0.8c1.4,0.5,2.6,1.4,3.6,2.4
			c1,1.1,1.8,2.4,2.4,4C203.4,205.7,203.7,207.5,203.7,209.7z M197.7,207c0-0.8-0.1-1.5-0.3-2.2c-0.2-0.7-0.6-1.3-1-1.8
			c-0.5-0.5-1.1-1-1.8-1.3c-0.7-0.3-1.5-0.5-2.5-0.5c-1.8,0-3.3,0.5-4.5,1.6c-1.2,1.1-1.9,2.5-2.1,4.1H197.7z"/>
		<path d="M207.7,197.5h5.7v4h0.1c0.7-1.4,1.6-2.5,2.8-3.4c1.2-0.9,2.6-1.3,4.2-1.3c0.2,0,0.5,0,0.7,0c0.3,0,0.5,0.1,0.7,0.1v5.5
			c-0.4-0.1-0.7-0.2-1-0.2c-0.3,0-0.6,0-0.8,0c-1.4,0-2.4,0.2-3.3,0.7c-0.8,0.5-1.5,1.1-1.9,1.8c-0.5,0.7-0.8,1.4-0.9,2.1
			c-0.2,0.7-0.2,1.3-0.2,1.7v12.8h-6V197.5z"/>
		<path d="M223.3,189.4c0-1,0.4-1.8,1.1-2.5c0.7-0.7,1.6-1.1,2.7-1.1s2,0.3,2.8,1c0.7,0.7,1.1,1.5,1.1,2.6c0,1-0.4,1.9-1.1,2.6
			c-0.7,0.7-1.7,1-2.8,1s-2-0.4-2.7-1.1C223.6,191.2,223.3,190.3,223.3,189.4z M224.1,197.5h6v23.8h-6V197.5z"/>
		<path d="M258.3,209.7c0,0.3,0,0.5,0,0.8c0,0.3,0,0.5,0,0.8h-18.1c0.1,0.9,0.3,1.6,0.7,2.4c0.4,0.7,0.9,1.3,1.5,1.8
			c0.6,0.5,1.3,0.9,2.1,1.2c0.8,0.3,1.6,0.4,2.5,0.4c1.5,0,2.7-0.3,3.8-0.8c1-0.5,1.9-1.3,2.5-2.3l4,3.2c-2.4,3.2-5.8,4.8-10.2,4.8
			c-1.9,0-3.6-0.3-5.1-0.9c-1.6-0.6-2.9-1.4-4-2.5c-1.1-1.1-2-2.4-2.7-3.9c-0.6-1.5-1-3.3-1-5.2c0-1.9,0.3-3.7,1-5.2
			c0.6-1.6,1.5-2.9,2.7-4c1.1-1.1,2.5-2,4-2.6c1.5-0.6,3.2-0.9,5-0.9c1.7,0,3.2,0.3,4.6,0.8c1.4,0.5,2.6,1.4,3.6,2.4
			c1,1.1,1.8,2.4,2.4,4C258,205.7,258.3,207.5,258.3,209.7z M252.4,207c0-0.8-0.1-1.5-0.3-2.2c-0.2-0.7-0.6-1.3-1-1.8
			c-0.5-0.5-1.1-1-1.8-1.3c-0.7-0.3-1.5-0.5-2.5-0.5c-1.8,0-3.3,0.5-4.5,1.6c-1.2,1.1-1.9,2.5-2.1,4.1H252.4z"/>
		<path d="M262.4,197.5h5.7v3.8h0.1c0.5-1.2,1.4-2.2,2.8-3.2c1.3-0.9,2.9-1.4,4.6-1.4c1.6,0,2.9,0.3,4,0.8c1.1,0.5,2,1.3,2.7,2.2
			c0.7,0.9,1.2,1.9,1.6,3.1c0.3,1.2,0.5,2.4,0.5,3.6v14.9h-6v-13.2c0-0.7,0-1.4-0.1-2.2c-0.1-0.8-0.3-1.4-0.6-2.1
			c-0.3-0.6-0.8-1.1-1.4-1.5c-0.6-0.4-1.3-0.6-2.3-0.6c-1,0-1.8,0.2-2.5,0.6c-0.7,0.4-1.3,0.9-1.7,1.5c-0.4,0.6-0.8,1.3-1,2.1
			c-0.2,0.8-0.3,1.6-0.3,2.4v13.1h-6V197.5z"/>
		<path d="M305.8,204.1c-0.5-0.7-1.2-1.2-2.1-1.7c-0.9-0.4-1.9-0.7-2.8-0.7c-1.1,0-2.1,0.2-2.9,0.7c-0.8,0.4-1.5,1-2.1,1.8
			c-0.5,0.7-1,1.5-1.2,2.5c-0.3,0.9-0.4,1.8-0.4,2.8c0,0.9,0.1,1.8,0.4,2.8c0.3,0.9,0.7,1.7,1.3,2.5c0.6,0.7,1.3,1.3,2.1,1.8
			c0.8,0.4,1.8,0.7,3,0.7c0.9,0,1.9-0.2,2.8-0.5c0.9-0.4,1.7-0.9,2.2-1.6l3.7,3.8c-1,1.1-2.3,1.9-3.8,2.5s-3.2,0.9-5,0.9
			c-1.8,0-3.4-0.3-5-0.8c-1.6-0.6-2.9-1.4-4.1-2.5c-1.2-1.1-2.1-2.4-2.8-4c-0.7-1.6-1-3.3-1-5.3c0-1.9,0.3-3.7,1-5.2
			c0.7-1.6,1.6-2.9,2.8-4c1.2-1.1,2.5-1.9,4-2.5c1.5-0.6,3.2-0.9,4.9-0.9c1.8,0,3.5,0.3,5.1,1c1.6,0.7,2.9,1.6,3.9,2.7L305.8,204.1z
			"/>
		<path d="M334.7,209.7c0,0.3,0,0.5,0,0.8c0,0.3,0,0.5,0,0.8h-18.1c0.1,0.9,0.3,1.6,0.7,2.4c0.4,0.7,0.9,1.3,1.5,1.8
			c0.6,0.5,1.3,0.9,2.1,1.2c0.8,0.3,1.6,0.4,2.5,0.4c1.5,0,2.7-0.3,3.8-0.8c1-0.5,1.9-1.3,2.5-2.3l4,3.2c-2.4,3.2-5.8,4.8-10.2,4.8
			c-1.9,0-3.6-0.3-5.1-0.9c-1.6-0.6-2.9-1.4-4-2.5c-1.1-1.1-2-2.4-2.7-3.9c-0.6-1.5-1-3.3-1-5.2c0-1.9,0.3-3.7,1-5.2
			c0.6-1.6,1.5-2.9,2.7-4c1.1-1.1,2.5-2,4-2.6c1.5-0.6,3.2-0.9,5-0.9c1.7,0,3.2,0.3,4.6,0.8c1.4,0.5,2.6,1.4,3.6,2.4
			c1,1.1,1.8,2.4,2.4,4C334.5,205.7,334.7,207.5,334.7,209.7z M328.8,207c0-0.8-0.1-1.5-0.3-2.2c-0.2-0.7-0.6-1.3-1-1.8
			c-0.5-0.5-1.1-1-1.8-1.3c-0.7-0.3-1.5-0.5-2.5-0.5c-1.8,0-3.3,0.5-4.5,1.6c-1.2,1.1-1.9,2.5-2.1,4.1H328.8z"/>
		<path d="M345.9,197.5h6.6l6.7,17.3h0.1l5.9-17.3h6.2l-11.3,28.9c-0.4,1.1-0.9,2.1-1.4,2.9c-0.5,0.8-1.1,1.6-1.8,2.1
			c-0.7,0.6-1.5,1-2.5,1.3s-2.1,0.4-3.4,0.4c-0.5,0-1,0-1.5-0.1s-1-0.1-1.6-0.3l0.5-5.2c0.4,0.1,0.8,0.2,1.2,0.3
			c0.4,0,0.7,0.1,1.1,0.1c0.6,0,1.2-0.1,1.6-0.2c0.4-0.1,0.8-0.4,1.1-0.7c0.3-0.3,0.6-0.7,0.8-1.2c0.2-0.5,0.5-1,0.7-1.6l1.2-3
			L345.9,197.5z"/>
		<path d="M371.8,209.3c0-1.9,0.3-3.6,1-5.1c0.7-1.5,1.6-2.9,2.8-3.9c1.2-1.1,2.5-1.9,4.1-2.5c1.6-0.6,3.3-0.9,5.1-0.9
			c1.8,0,3.5,0.3,5.1,0.9c1.6,0.6,3,1.4,4.1,2.5s2.1,2.4,2.8,3.9c0.7,1.5,1,3.3,1,5.1s-0.3,3.6-1,5.2c-0.7,1.6-1.6,2.9-2.8,4
			c-1.2,1.1-2.5,2-4.1,2.6c-1.6,0.6-3.3,0.9-5.1,0.9c-1.8,0-3.5-0.3-5.1-0.9c-1.6-0.6-3-1.5-4.1-2.6c-1.2-1.1-2.1-2.4-2.8-4
			C372.1,212.9,371.8,211.2,371.8,209.3z M377.8,209.3c0,0.9,0.1,1.9,0.4,2.8s0.7,1.8,1.3,2.5c0.6,0.7,1.3,1.3,2.1,1.8
			c0.9,0.5,1.9,0.7,3.1,0.7c1.2,0,2.2-0.2,3.1-0.7c0.9-0.5,1.6-1.1,2.1-1.8c0.6-0.7,1-1.6,1.3-2.5s0.4-1.9,0.4-2.8s-0.1-1.8-0.4-2.8
			c-0.3-0.9-0.7-1.7-1.3-2.5c-0.6-0.7-1.3-1.3-2.1-1.8c-0.9-0.4-1.9-0.7-3.1-0.7c-1.2,0-2.2,0.2-3.1,0.7c-0.9,0.4-1.6,1-2.1,1.8
			c-0.6,0.7-1,1.5-1.3,2.5C378,207.5,377.8,208.4,377.8,209.3z"/>
		<path d="M423.5,221.3h-5.7v-3.8h-0.1c-0.5,1.2-1.4,2.2-2.8,3.2c-1.3,0.9-2.9,1.4-4.6,1.4c-1.6,0-2.9-0.3-4-0.8s-2-1.3-2.7-2.2
			c-0.7-0.9-1.2-1.9-1.6-3.1c-0.3-1.2-0.5-2.3-0.5-3.6v-14.9h6v13.2c0,0.7,0,1.4,0.1,2.2c0.1,0.8,0.3,1.4,0.6,2.1
			c0.3,0.6,0.8,1.1,1.4,1.5c0.6,0.4,1.3,0.6,2.3,0.6c0.9,0,1.7-0.2,2.5-0.6c0.7-0.4,1.3-0.9,1.7-1.5c0.4-0.6,0.8-1.3,1-2.1
			c0.2-0.8,0.3-1.6,0.3-2.4v-13.1h6V221.3z"/>
		<path d="M428.9,197.5h5.7v4h0.1c0.7-1.4,1.6-2.5,2.8-3.4c1.2-0.9,2.6-1.3,4.2-1.3c0.2,0,0.5,0,0.7,0c0.3,0,0.5,0.1,0.7,0.1v5.5
			c-0.4-0.1-0.7-0.2-1-0.2c-0.3,0-0.6,0-0.8,0c-1.4,0-2.5,0.2-3.3,0.7c-0.8,0.5-1.5,1.1-1.9,1.8c-0.5,0.7-0.8,1.4-0.9,2.1
			c-0.2,0.7-0.2,1.3-0.2,1.7v12.8h-6V197.5z"/>
		<path d="M478.6,209.7c0,0.3,0,0.5,0,0.8c0,0.3,0,0.5,0,0.8h-18.1c0.1,0.9,0.3,1.6,0.7,2.4c0.4,0.7,0.9,1.3,1.5,1.8
			c0.6,0.5,1.3,0.9,2.1,1.2c0.8,0.3,1.6,0.4,2.5,0.4c1.5,0,2.7-0.3,3.8-0.8c1-0.5,1.9-1.3,2.5-2.3l4,3.2c-2.4,3.2-5.8,4.8-10.2,4.8
			c-1.9,0-3.6-0.3-5.1-0.9s-2.9-1.4-4-2.5c-1.1-1.1-2-2.4-2.7-3.9s-1-3.3-1-5.2c0-1.9,0.3-3.7,1-5.2c0.6-1.6,1.5-2.9,2.7-4
			c1.1-1.1,2.5-2,4-2.6c1.5-0.6,3.2-0.9,5-0.9c1.7,0,3.2,0.3,4.6,0.8c1.4,0.5,2.6,1.4,3.6,2.4c1,1.1,1.8,2.4,2.4,4
			C478.3,205.7,478.6,207.5,478.6,209.7z M472.7,207c0-0.8-0.1-1.5-0.3-2.2c-0.2-0.7-0.6-1.3-1-1.8c-0.5-0.5-1.1-1-1.8-1.3
			c-0.7-0.3-1.5-0.5-2.5-0.5c-1.8,0-3.3,0.5-4.5,1.6c-1.2,1.1-1.9,2.5-2.1,4.1H472.7z"/>
		<path d="M506.9,221.3h-5.7v-3.6h-0.1c-0.8,1.4-2,2.4-3.5,3.2c-1.5,0.7-3.1,1.1-4.7,1.1c-1.8,0-3.5-0.3-4.9-1
			c-1.4-0.7-2.7-1.6-3.7-2.7c-1-1.1-1.8-2.5-2.3-4s-0.8-3.2-0.8-4.9c0-1.8,0.3-3.4,0.8-4.9s1.4-2.8,2.4-4c1-1.1,2.2-2,3.7-2.7
			c1.4-0.6,3-1,4.7-1c1.1,0,2.1,0.1,2.9,0.4c0.9,0.2,1.6,0.6,2.3,0.9c0.6,0.4,1.2,0.8,1.7,1.2c0.5,0.4,0.8,0.8,1.1,1.2h0.1v-16.7h6
			V221.3z M487.3,209.3c0,0.9,0.1,1.9,0.4,2.8c0.3,0.9,0.7,1.8,1.3,2.5c0.6,0.7,1.3,1.3,2.1,1.8c0.9,0.5,1.9,0.7,3,0.7
			c1.1,0,2.1-0.2,2.9-0.7c0.9-0.4,1.6-1,2.2-1.8c0.6-0.7,1.1-1.5,1.4-2.5c0.3-0.9,0.5-1.8,0.5-2.8c0-0.9-0.2-1.9-0.5-2.8
			c-0.3-0.9-0.8-1.8-1.4-2.5c-0.6-0.7-1.3-1.3-2.2-1.8c-0.9-0.5-1.8-0.7-2.9-0.7c-1.2,0-2.2,0.2-3,0.7c-0.9,0.4-1.6,1-2.1,1.8
			c-0.6,0.7-1,1.5-1.3,2.5C487.4,207.5,487.3,208.4,487.3,209.3z"/>
		<path d="M534.1,221.3h-5.7v-3.8h-0.1c-0.5,1.2-1.4,2.2-2.8,3.2c-1.3,0.9-2.9,1.4-4.6,1.4c-1.6,0-2.9-0.3-4-0.8
			c-1.1-0.5-2-1.3-2.7-2.2c-0.7-0.9-1.2-1.9-1.6-3.1c-0.3-1.2-0.5-2.3-0.5-3.6v-14.9h6v13.2c0,0.7,0,1.4,0.1,2.2
			c0.1,0.8,0.3,1.4,0.6,2.1c0.3,0.6,0.8,1.1,1.4,1.5c0.6,0.4,1.3,0.6,2.3,0.6c0.9,0,1.7-0.2,2.5-0.6c0.7-0.4,1.3-0.9,1.7-1.5
			c0.4-0.6,0.8-1.3,1-2.1c0.2-0.8,0.3-1.6,0.3-2.4v-13.1h6V221.3z"/>
		<path d="M555.8,204.1c-0.5-0.7-1.2-1.2-2.1-1.7c-0.9-0.4-1.9-0.7-2.8-0.7c-1.1,0-2.1,0.2-2.9,0.7c-0.8,0.4-1.5,1-2.1,1.8
			c-0.5,0.7-1,1.5-1.2,2.5c-0.3,0.9-0.4,1.8-0.4,2.8c0,0.9,0.1,1.8,0.4,2.8c0.3,0.9,0.7,1.7,1.3,2.5c0.6,0.7,1.3,1.3,2.1,1.8
			c0.8,0.4,1.8,0.7,3,0.7c0.9,0,1.9-0.2,2.8-0.5s1.7-0.9,2.2-1.6l3.7,3.8c-1,1.1-2.3,1.9-3.8,2.5s-3.2,0.9-5,0.9
			c-1.8,0-3.4-0.3-5-0.8c-1.6-0.6-2.9-1.4-4.1-2.5c-1.2-1.1-2.1-2.4-2.8-4c-0.7-1.6-1-3.3-1-5.3c0-1.9,0.3-3.7,1-5.2
			c0.7-1.6,1.6-2.9,2.8-4c1.2-1.1,2.5-1.9,4-2.5c1.5-0.6,3.2-0.9,4.9-0.9c1.8,0,3.5,0.3,5.1,1c1.6,0.7,2.9,1.6,3.9,2.7L555.8,204.1z
			"/>
		<path d="M576.8,218.3h-0.1c-0.6,1.1-1.6,1.9-2.9,2.6c-1.3,0.7-2.8,1-4.5,1c-1,0-2-0.1-3-0.4c-1-0.2-2-0.7-2.9-1.2
			c-0.9-0.6-1.6-1.3-2.2-2.3c-0.6-0.9-0.9-2.1-0.9-3.5c0-1.8,0.5-3.2,1.5-4.3c1-1.1,2.3-1.9,3.9-2.4c1.6-0.6,3.4-0.9,5.3-1.1
			s3.8-0.3,5.7-0.3v-0.6c0-1.5-0.5-2.6-1.6-3.3c-1.1-0.7-2.4-1.1-3.8-1.1c-1.3,0-2.5,0.3-3.6,0.8c-1.2,0.5-2.1,1.2-2.9,1.9l-3.1-3.6
			c1.4-1.3,2.9-2.2,4.7-2.8c1.8-0.6,3.6-0.9,5.4-0.9c2.1,0,3.9,0.3,5.2,0.9c1.4,0.6,2.5,1.4,3.3,2.3c0.8,1,1.3,2,1.7,3.2
			c0.3,1.2,0.5,2.4,0.5,3.6v14.5h-5.6V218.3z M576.7,210.4h-1.3c-1,0-2,0-3,0.1c-1.1,0.1-2,0.3-2.9,0.5c-0.9,0.3-1.6,0.7-2.2,1.2
			c-0.6,0.5-0.9,1.2-0.9,2.1c0,0.6,0.1,1,0.4,1.4c0.2,0.4,0.6,0.7,1,0.9c0.4,0.2,0.8,0.4,1.3,0.5s1,0.1,1.5,0.1
			c2.1,0,3.6-0.5,4.7-1.6c1.1-1.1,1.6-2.6,1.6-4.5V210.4z"/>
		<path d="M584.2,202.2v-4.8h4.2v-6.9h5.9v6.9h6v4.8h-6v11.1c0,1.1,0.2,1.9,0.6,2.6c0.4,0.7,1.2,1,2.6,1c0.4,0,0.8,0,1.3-0.1
			c0.5-0.1,0.9-0.2,1.2-0.4l0.2,4.7c-0.5,0.2-1.2,0.4-1.9,0.5c-0.7,0.1-1.4,0.2-2.1,0.2c-1.6,0-2.9-0.2-3.9-0.7
			c-1-0.4-1.8-1.1-2.4-1.8c-0.6-0.8-1-1.7-1.2-2.7c-0.2-1-0.3-2.1-0.3-3.3v-11.1H584.2z"/>
		<path d="M602,189.4c0-1,0.4-1.8,1.1-2.5c0.7-0.7,1.6-1.1,2.7-1.1c1.1,0,2,0.3,2.8,1c0.7,0.7,1.1,1.5,1.1,2.6c0,1-0.4,1.9-1.1,2.6
			c-0.7,0.7-1.7,1-2.8,1c-1.1,0-2-0.4-2.7-1.1C602.3,191.2,602,190.3,602,189.4z M602.8,197.5h6v23.8h-6V197.5z"/>
		<path d="M612.9,209.3c0-1.9,0.3-3.6,1-5.1c0.7-1.5,1.6-2.9,2.8-3.9c1.2-1.1,2.5-1.9,4.1-2.5c1.6-0.6,3.3-0.9,5.1-0.9
			s3.5,0.3,5.1,0.9c1.6,0.6,3,1.4,4.1,2.5s2.1,2.4,2.8,3.9c0.7,1.5,1,3.3,1,5.1s-0.3,3.6-1,5.2c-0.7,1.6-1.6,2.9-2.8,4
			c-1.2,1.1-2.5,2-4.1,2.6c-1.6,0.6-3.3,0.9-5.1,0.9s-3.5-0.3-5.1-0.9c-1.6-0.6-3-1.5-4.1-2.6c-1.2-1.1-2.1-2.4-2.8-4
			C613.3,212.9,612.9,211.2,612.9,209.3z M619,209.3c0,0.9,0.1,1.9,0.4,2.8c0.3,0.9,0.7,1.8,1.3,2.5c0.6,0.7,1.3,1.3,2.1,1.8
			c0.9,0.5,1.9,0.7,3.1,0.7s2.2-0.2,3.1-0.7c0.9-0.5,1.6-1.1,2.1-1.8c0.6-0.7,1-1.6,1.3-2.5c0.3-0.9,0.4-1.9,0.4-2.8
			s-0.1-1.8-0.4-2.8c-0.3-0.9-0.7-1.7-1.3-2.5s-1.3-1.3-2.1-1.8c-0.9-0.4-1.9-0.7-3.1-0.7s-2.2,0.2-3.1,0.7c-0.9,0.4-1.6,1-2.1,1.8
			c-0.6,0.7-1,1.5-1.3,2.5C619.1,207.5,619,208.4,619,209.3z"/>
		<path d="M642.9,197.5h5.7v3.8h0.1c0.5-1.2,1.4-2.2,2.8-3.2c1.3-0.9,2.9-1.4,4.6-1.4c1.6,0,2.9,0.3,4,0.8c1.1,0.5,2,1.3,2.7,2.2
			c0.7,0.9,1.2,1.9,1.6,3.1c0.3,1.2,0.5,2.4,0.5,3.6v14.9h-6v-13.2c0-0.7,0-1.4-0.1-2.2c-0.1-0.8-0.3-1.4-0.6-2.1s-0.8-1.1-1.4-1.5
			c-0.6-0.4-1.3-0.6-2.3-0.6s-1.8,0.2-2.5,0.6c-0.7,0.4-1.3,0.9-1.7,1.5c-0.4,0.6-0.8,1.3-1,2.1c-0.2,0.8-0.3,1.6-0.3,2.4v13.1h-6
			V197.5z"/>
		<path d="M3,261.8v-4.8h4.2v-6.9H13v6.9h6v4.8h-6v11.1c0,1.1,0.2,1.9,0.6,2.6c0.4,0.7,1.2,1,2.6,1c0.4,0,0.8,0,1.3-0.1
			c0.5-0.1,0.9-0.2,1.2-0.4l0.2,4.7c-0.5,0.2-1.2,0.4-1.9,0.5c-0.7,0.1-1.4,0.2-2.1,0.2c-1.6,0-2.9-0.2-3.9-0.7
			c-1-0.4-1.8-1.1-2.4-1.8c-0.6-0.8-1-1.7-1.2-2.7c-0.2-1-0.3-2.1-0.3-3.3v-11.1H3z"/>
		<path d="M34.8,256.4c1.6,0,2.9,0.3,4,0.8c1.1,0.5,2,1.3,2.7,2.2c0.7,0.9,1.2,1.9,1.6,3.1c0.3,1.2,0.5,2.4,0.5,3.6v14.9h-6v-13.1
			c0-0.7,0-1.4-0.1-2.2c-0.1-0.7-0.3-1.4-0.6-2c-0.3-0.6-0.8-1.1-1.3-1.5c-0.6-0.4-1.3-0.6-2.3-0.6c-1,0-1.8,0.2-2.5,0.5
			c-0.7,0.4-1.3,0.9-1.7,1.5c-0.5,0.6-0.8,1.3-1,2.1c-0.2,0.8-0.3,1.5-0.3,2.3v13h-6v-37.5h6v17h0.1c0.2-0.5,0.6-1,1-1.5
			c0.4-0.5,1-0.9,1.6-1.3c0.6-0.4,1.3-0.7,2-0.9C33.1,256.5,33.9,256.4,34.8,256.4z"/>
		<path d="M71.6,269.3c0,0.3,0,0.5,0,0.8c0,0.3,0,0.5,0,0.8H53.4c0.1,0.9,0.3,1.6,0.7,2.4c0.4,0.7,0.9,1.3,1.5,1.8
			c0.6,0.5,1.3,0.9,2.1,1.2c0.8,0.3,1.6,0.4,2.5,0.4c1.5,0,2.7-0.3,3.8-0.8c1-0.5,1.9-1.3,2.5-2.3l4,3.2c-2.4,3.2-5.8,4.8-10.2,4.8
			c-1.9,0-3.6-0.3-5.1-0.9c-1.6-0.6-2.9-1.4-4-2.5c-1.1-1.1-2-2.4-2.7-3.9c-0.6-1.5-1-3.3-1-5.2c0-1.9,0.3-3.7,1-5.2
			c0.6-1.6,1.5-2.9,2.7-4c1.1-1.1,2.5-2,4-2.6s3.2-0.9,5-0.9c1.7,0,3.2,0.3,4.6,0.8c1.4,0.5,2.6,1.4,3.6,2.4c1,1.1,1.8,2.4,2.4,4
			C71.3,265.2,71.6,267.1,71.6,269.3z M65.6,266.6c0-0.8-0.1-1.5-0.3-2.2c-0.2-0.7-0.6-1.3-1-1.8c-0.5-0.5-1.1-1-1.8-1.3
			c-0.7-0.3-1.5-0.5-2.5-0.5c-1.8,0-3.3,0.5-4.5,1.6c-1.2,1.1-1.9,2.5-2.1,4.1H65.6z"/>
		<path d="M82.9,257.1h6.5l5,17.1h0.1l5.1-17.1h6.4l5.2,17.1h0.1l5.1-17.1h6.2l-8.2,23.8h-6.1l-5.4-16.7h-0.1l-5.4,16.7h-6.1
			L82.9,257.1z"/>
		<path d="M139.2,277.9h-0.1c-0.6,1.1-1.6,1.9-2.9,2.6c-1.3,0.7-2.8,1-4.5,1c-1,0-2-0.1-3-0.4c-1-0.2-2-0.7-2.9-1.2
			c-0.9-0.6-1.6-1.3-2.2-2.3c-0.6-0.9-0.9-2.1-0.9-3.5c0-1.8,0.5-3.2,1.5-4.3c1-1.1,2.3-1.9,3.9-2.4s3.4-0.9,5.3-1.1
			c1.9-0.2,3.8-0.3,5.7-0.3v-0.6c0-1.5-0.5-2.6-1.6-3.3c-1.1-0.7-2.4-1.1-3.8-1.1c-1.3,0-2.5,0.3-3.6,0.8c-1.2,0.5-2.1,1.2-2.9,1.9
			l-3.1-3.6c1.4-1.3,2.9-2.2,4.7-2.8c1.8-0.6,3.6-0.9,5.4-0.9c2.1,0,3.9,0.3,5.2,0.9c1.4,0.6,2.5,1.4,3.3,2.3s1.3,2,1.7,3.2
			c0.3,1.2,0.5,2.4,0.5,3.6v14.5h-5.6V277.9z M139.1,270h-1.3c-1,0-2,0-3,0.1c-1.1,0.1-2,0.3-2.9,0.5c-0.9,0.3-1.6,0.7-2.2,1.2
			c-0.6,0.5-0.9,1.2-0.9,2.1c0,0.6,0.1,1,0.4,1.4c0.2,0.4,0.6,0.7,1,0.9c0.4,0.2,0.8,0.4,1.3,0.5s1,0.1,1.5,0.1
			c2.1,0,3.6-0.5,4.7-1.6c1.1-1.1,1.6-2.6,1.6-4.5V270z"/>
		<path d="M146.4,257.1h6.6l6.7,17.3h0.1l5.9-17.3h6.2L160.6,286c-0.4,1.1-0.9,2.1-1.4,2.9c-0.5,0.8-1.1,1.6-1.8,2.1
			c-0.7,0.6-1.5,1-2.5,1.3s-2.1,0.4-3.4,0.4c-0.5,0-1,0-1.5-0.1s-1-0.1-1.6-0.3l0.5-5.2c0.4,0.1,0.8,0.2,1.2,0.3
			c0.4,0,0.7,0.1,1.1,0.1c0.6,0,1.2-0.1,1.6-0.2c0.4-0.1,0.8-0.4,1.1-0.7c0.3-0.3,0.6-0.7,0.8-1.2c0.2-0.5,0.5-1,0.7-1.6l1.2-3
			L146.4,257.1z"/>
		<path d="M180.8,257.1h6.6l6.7,17.3h0.1l5.9-17.3h6.2L195,286c-0.4,1.1-0.9,2.1-1.4,2.9c-0.5,0.8-1.1,1.6-1.8,2.1
			c-0.7,0.6-1.5,1-2.5,1.3s-2.1,0.4-3.4,0.4c-0.5,0-1,0-1.5-0.1s-1-0.1-1.6-0.3l0.5-5.2c0.4,0.1,0.8,0.2,1.2,0.3
			c0.4,0,0.7,0.1,1.1,0.1c0.6,0,1.2-0.1,1.6-0.2c0.4-0.1,0.8-0.4,1.1-0.7c0.3-0.3,0.6-0.7,0.8-1.2c0.2-0.5,0.5-1,0.7-1.6l1.2-3
			L180.8,257.1z"/>
		<path d="M206.8,268.9c0-1.9,0.3-3.6,1-5.1c0.7-1.5,1.6-2.9,2.8-3.9c1.2-1.1,2.5-1.9,4.1-2.5s3.3-0.9,5.1-0.9
			c1.8,0,3.5,0.3,5.1,0.9c1.6,0.6,3,1.4,4.1,2.5c1.2,1.1,2.1,2.4,2.8,3.9c0.7,1.5,1,3.3,1,5.1s-0.3,3.6-1,5.2
			c-0.7,1.6-1.6,2.9-2.8,4c-1.2,1.1-2.5,2-4.1,2.6c-1.6,0.6-3.3,0.9-5.1,0.9c-1.8,0-3.5-0.3-5.1-0.9c-1.6-0.6-3-1.5-4.1-2.6
			c-1.2-1.1-2.1-2.4-2.8-4C207.1,272.5,206.8,270.8,206.8,268.9z M212.8,268.9c0,0.9,0.1,1.9,0.4,2.8c0.3,0.9,0.7,1.8,1.3,2.5
			c0.6,0.7,1.3,1.3,2.1,1.8c0.9,0.5,1.9,0.7,3.1,0.7c1.2,0,2.2-0.2,3.1-0.7c0.9-0.5,1.6-1.1,2.1-1.8c0.6-0.7,1-1.6,1.3-2.5
			s0.4-1.9,0.4-2.8s-0.1-1.8-0.4-2.8c-0.3-0.9-0.7-1.7-1.3-2.5c-0.6-0.7-1.3-1.3-2.1-1.8c-0.9-0.4-1.9-0.7-3.1-0.7
			c-1.2,0-2.2,0.2-3.1,0.7c-0.9,0.4-1.6,1-2.1,1.8c-0.6,0.7-1,1.5-1.3,2.5C213,267,212.8,267.9,212.8,268.9z"/>
		<path d="M258.4,280.9h-5.7v-3.8h-0.1c-0.5,1.2-1.4,2.2-2.8,3.2c-1.3,0.9-2.9,1.4-4.6,1.4c-1.6,0-2.9-0.3-4-0.8
			c-1.1-0.5-2-1.3-2.7-2.2c-0.7-0.9-1.2-1.9-1.6-3.1c-0.3-1.2-0.5-2.3-0.5-3.6v-14.9h6v13.2c0,0.7,0,1.4,0.1,2.2
			c0.1,0.8,0.3,1.4,0.6,2.1c0.3,0.6,0.8,1.1,1.4,1.5c0.6,0.4,1.3,0.6,2.3,0.6c0.9,0,1.7-0.2,2.5-0.6c0.7-0.4,1.3-0.9,1.7-1.5
			s0.8-1.3,1-2.1c0.2-0.8,0.3-1.6,0.3-2.4v-13.1h6V280.9z"/>
		<path d="M274.8,245.7h6.3v35.2h-6.3V245.7z"/>
		<path d="M287.1,245.7h9.8l9.1,25h0.1l9-25h9.8v35.2h-6.2v-28.2h-0.1L308,280.9h-4.4l-10.5-28.2H293v28.2h-6V245.7z"/>
		<path d="M342,245.7h5.4l15.1,35.2h-7.1l-3.3-8h-15.2l-3.2,8h-7L342,245.7z M350,267.5l-5.4-14.3l-5.5,14.3H350z"/>
		<path d="M393.1,279.1c-1.8,0.9-3.7,1.5-5.9,2s-4.6,0.7-7.4,0.7c-2.8,0-5.4-0.5-7.8-1.4c-2.3-0.9-4.4-2.2-6.1-3.8
			c-1.7-1.6-3-3.6-3.9-5.9c-0.9-2.3-1.4-4.8-1.4-7.5c0-2.8,0.5-5.4,1.5-7.6c1-2.3,2.3-4.2,4-5.8c1.7-1.6,3.7-2.8,6-3.7
			c2.3-0.9,4.8-1.3,7.5-1.3c2.8,0,5.4,0.4,7.7,1.2c2.3,0.8,4.2,1.9,5.6,3.2l-4.3,4.7c-0.9-1-2.1-1.8-3.7-2.5s-3.4-1-5.2-1
			c-1.9,0-3.5,0.3-5,1c-1.5,0.7-2.8,1.6-3.8,2.7c-1.1,1.2-1.9,2.5-2.5,4.1c-0.6,1.6-0.9,3.2-0.9,5.1c0,1.9,0.3,3.6,0.9,5.2
			c0.6,1.6,1.4,2.9,2.5,4.1c1.1,1.2,2.4,2.1,3.9,2.7s3.3,1,5.2,1c2.7,0,5-0.4,7-1.2V266h-7.4v-5.2h13.5V279.1z"/>
		<path d="M399,245.7h6.3v35.2H399V245.7z"/>
		<path d="M411.2,245.7h8.3l16.3,26.3h0.1v-26.3h6.3v35.2h-7.9l-16.7-27.2h-0.1v27.2h-6.3V245.7z"/>
		<path d="M448.2,245.7h23.3v5.5h-17v8.9h16.1v5.3h-16.1v9.9h17.9v5.6h-24.2V245.7z"/>
	</g>
</g>
<g id="Layer_1_copy">
	<g>
		<g>
			<path fill="#FFFFFF" d="M64.3,82.7c-5.3,1.3-11,1.9-17.2,1.9c-6.4,0-12.4-1-17.8-3.1c-5.4-2-10.1-4.9-14-8.6
				c-3.9-3.7-6.9-8.2-9.1-13.3C4.1,54.4,3,48.6,3,42.2C3,35.8,4.1,30,6.3,24.8c2.2-5.2,5.3-9.7,9.3-13.3c3.9-3.7,8.6-6.5,13.9-8.5
				c5.3-2,11-3,17.1-3c6.4,0,12.3,1,17.7,2.9c5.5,1.9,9.9,4.5,13.3,7.8l-12.3,14c-1.9-2.2-4.4-4-7.5-5.4c-3.1-1.4-6.6-2.1-10.6-2.1
				c-3.4,0-6.5,0.6-9.4,1.9c-2.9,1.2-5.4,3-7.5,5.2c-2.1,2.2-3.8,4.9-4.9,7.9c-1.2,3.1-1.8,6.4-1.8,10c0,3.7,0.5,7.1,1.6,10.2
				c1.1,3.1,2.6,5.8,4.7,8c2.1,2.2,4.7,4,7.7,5.2s6.6,1.9,10.5,1.9c2.3,0,4.4-0.2,6.5-0.5c2-0.3,3.9-0.9,5.7-1.6V50.8H45V35.1h33.2
				v42.6C74.2,79.7,69.6,81.4,64.3,82.7z"/>
			<path fill="#FFFFFF" d="M173.9,42c0,6.4-1.1,12.2-3.3,17.4c-2.2,5.3-5.2,9.8-9.1,13.5c-3.9,3.7-8.5,6.6-13.9,8.7
				c-5.4,2-11.2,3.1-17.5,3.1c-6.3,0-12.1-1-17.4-3.1s-10-4.9-13.9-8.7c-3.9-3.7-6.9-8.2-9.1-13.5c-2.2-5.3-3.3-11.1-3.3-17.4
				c0-6.4,1.1-12.2,3.3-17.4c2.2-5.2,5.2-9.6,9.1-13.2c3.9-3.6,8.5-6.4,13.9-8.4c5.3-2,11.1-3,17.4-3c6.3,0,12.1,1,17.5,3
				c5.4,2,10,4.8,13.9,8.4c3.9,3.6,6.9,8,9.1,13.2C172.8,29.8,173.9,35.6,173.9,42z M153.1,42c0-3.5-0.6-6.7-1.7-9.8
				c-1.1-3-2.7-5.6-4.7-7.8c-2-2.2-4.4-3.9-7.3-5.1s-6-1.9-9.4-1.9c-3.4,0-6.5,0.6-9.3,1.9c-2.8,1.2-5.2,3-7.3,5.1
				c-2,2.2-3.6,4.8-4.7,7.8c-1.1,3-1.6,6.3-1.6,9.8c0,3.6,0.6,7,1.7,10c1.1,3.1,2.7,5.7,4.7,7.9c2,2.2,4.4,3.9,7.2,5.2
				c2.8,1.2,5.9,1.9,9.3,1.9c3.4,0,6.5-0.6,9.3-1.9c2.8-1.2,5.2-3,7.3-5.2c2-2.2,3.6-4.8,4.8-7.9C152.5,49,153.1,45.6,153.1,42z"/>
			<path fill="#FFFFFF" d="M269.8,59.2c0,4.4-0.9,8.1-2.6,11.1c-1.7,3-4.1,5.4-6.9,7.2c-2.9,1.8-6.2,3.1-9.8,3.9
				c-3.7,0.8-7.4,1.2-11.3,1.2h-32V2.2h32c3.1,0,6.3,0.3,9.5,1c3.3,0.6,6.2,1.7,8.9,3.3c2.6,1.6,4.8,3.7,6.5,6.3
				c1.7,2.7,2.5,6,2.5,10.1c0,4.5-1.2,8.2-3.6,11.1c-2.4,2.9-5.6,5-9.5,6.3v0.2c2.3,0.4,4.4,1.1,6.4,2.1c2,1,3.7,2.3,5.2,3.9
				c1.5,1.6,2.6,3.4,3.5,5.6C269.4,54.1,269.8,56.5,269.8,59.2z M247.8,25.4c0-2.7-1-4.7-3.1-6c-2.1-1.2-5.2-1.9-9.3-1.9h-9.5v16.6
				h10.4c3.6,0,6.5-0.7,8.5-2.2C246.8,30.5,247.8,28.3,247.8,25.4z M250.4,57.3c0-3.3-1.2-5.6-3.7-6.9c-2.5-1.3-5.8-1.9-10-1.9
				h-10.8v18.4h10.9c1.5,0,3.1-0.1,4.7-0.4c1.6-0.3,3.1-0.7,4.4-1.4c1.3-0.7,2.4-1.6,3.2-2.9C250,60.9,250.4,59.3,250.4,57.3z"/>
			<path fill="#FFFFFF" d="M278.7,82.6V2.2H353v16.4h-55.6v15.2h33.4v15.6h-33.4V66h37.4v16.6H278.7z"/>
			<path fill="#FFFFFF" d="M382.7,48.5v34.1h-19.4V48.5L333.1,2.2h23.5l17.1,29.8l17.1-29.8h22.7L382.7,48.5z"/>
			<path fill="#FFFFFF" d="M494.6,42c0,6.4-1.1,12.2-3.3,17.4c-2.2,5.3-5.2,9.8-9.1,13.5c-3.9,3.7-8.5,6.6-13.9,8.7
				c-5.4,2-11.2,3.1-17.5,3.1c-6.3,0-12.1-1-17.4-3.1s-10-4.9-13.9-8.7c-3.9-3.7-6.9-8.2-9.1-13.5c-2.2-5.3-3.3-11.1-3.3-17.4
				c0-6.4,1.1-12.2,3.3-17.4c2.2-5.2,5.2-9.6,9.1-13.2c3.9-3.6,8.5-6.4,13.9-8.4c5.3-2,11.1-3,17.4-3c6.3,0,12.1,1,17.5,3
				c5.4,2,10,4.8,13.9,8.4c3.9,3.6,6.9,8,9.1,13.2C493.5,29.8,494.6,35.6,494.6,42z M473.9,42c0-3.5-0.6-6.7-1.7-9.8
				c-1.1-3-2.7-5.6-4.7-7.8c-2-2.2-4.4-3.9-7.3-5.1s-6-1.9-9.4-1.9c-3.4,0-6.5,0.6-9.3,1.9c-2.8,1.2-5.2,3-7.3,5.1
				c-2,2.2-3.6,4.8-4.7,7.8c-1.1,3-1.6,6.3-1.6,9.8c0,3.6,0.6,7,1.7,10c1.1,3.1,2.7,5.7,4.7,7.9c2,2.2,4.4,3.9,7.2,5.2
				c2.8,1.2,5.9,1.9,9.3,1.9c3.4,0,6.5-0.6,9.3-1.9c2.8-1.2,5.2-3,7.3-5.2c2-2.2,3.6-4.8,4.8-7.9C473.3,49,473.9,45.6,473.9,42z"/>
			<path fill="#FFFFFF" d="M554.6,82.6L522.2,30h-0.3l0.5,52.6h-18.8V2.2h22.1l32.2,52.5h0.3l-0.5-52.5h18.8v80.4H554.6z"/>
			<path fill="#FFFFFF" d="M664.3,42.1c0,7-1.3,13.1-3.9,18.2c-2.6,5.1-6.1,9.3-10.3,12.6c-4.3,3.3-9.1,5.7-14.5,7.3
				c-5.4,1.6-10.8,2.3-16.4,2.3h-30V2.2h29.1c5.7,0,11.3,0.7,16.8,2c5.5,1.3,10.4,3.5,14.8,6.6c4.3,3.1,7.8,7.2,10.4,12.3
				C663,28.2,664.3,34.6,664.3,42.1z M644.1,42.1c0-4.5-0.7-8.3-2.2-11.3c-1.5-3-3.4-5.4-5.9-7.2c-2.5-1.8-5.3-3-8.4-3.8
				c-3.1-0.8-6.4-1.1-9.7-1.1h-9.7v47h9.2c3.5,0,6.8-0.4,10-1.2c3.2-0.8,6.1-2.1,8.5-3.9c2.5-1.8,4.4-4.2,5.9-7.3
				C643.3,50.3,644.1,46.6,644.1,42.1z"/>
		</g>
		<g>
			<path fill="#FFFFFF" d="M35.2,157.4l0.1-34.8h-0.2L26,157.4h-6l-8.9-34.8h-0.2l0.1,34.8h-7v-45.3h10.3l8.7,33.1h0.3l8.5-33.1
				h10.8v45.3H35.2z"/>
			<path fill="#FFFFFF" d="M69.5,157.4l-2.2-9.6H55.4l-2.3,9.6h-7.7l11.3-45.3h9.8l11.1,45.3H69.5z M61.5,119.4h-0.3l-4.9,22.5h10
				L61.5,119.4z"/>
			<path fill="#FFFFFF" d="M97.8,154.8c-1.9,2.5-4.9,3.8-8.9,3.8c-2.9,0-5.4-0.8-7.3-2.4c-1.9-1.6-3.2-3.7-3.8-6.4l6.4-2.8
				c0.3,1.1,0.8,2.1,1.5,3c0.7,0.9,1.7,1.4,3,1.4c1.7,0,2.9-0.7,3.5-2.1c0.6-1.4,0.9-3.3,0.9-5.8v-31.4h7.6v32.1
				C100.6,148.8,99.7,152.3,97.8,154.8z"/>
			<path fill="#FFFFFF" d="M138.2,134.7c0,3.6-0.4,6.8-1.1,9.8c-0.7,2.9-1.8,5.4-3.2,7.5c-1.4,2.1-3.1,3.7-5.1,4.9
				c-2,1.2-4.3,1.7-6.8,1.7c-2.6,0-4.8-0.6-6.8-1.7c-2-1.2-3.7-2.8-5.1-4.9c-1.4-2.1-2.5-4.6-3.2-7.5c-0.7-2.9-1.1-6.2-1.1-9.8
				c0-3.6,0.4-6.8,1.1-9.7c0.7-2.9,1.8-5.4,3.2-7.5c1.4-2.1,3.1-3.7,5.1-4.8c2-1.1,4.3-1.7,6.9-1.7c2.5,0,4.8,0.6,6.8,1.7
				c2,1.1,3.7,2.7,5.1,4.8c1.4,2.1,2.5,4.6,3.2,7.5C137.9,127.9,138.2,131.2,138.2,134.7z M130.3,134.7c0-2.3-0.2-4.5-0.5-6.5
				c-0.4-2-0.9-3.8-1.6-5.2s-1.6-2.6-2.6-3.5c-1-0.9-2.2-1.3-3.6-1.3c-1.4,0-2.6,0.4-3.7,1.3c-1,0.9-1.9,2-2.6,3.5s-1.2,3.2-1.6,5.2
				c-0.3,2-0.5,4.2-0.5,6.5s0.2,4.5,0.5,6.5c0.3,2,0.9,3.8,1.6,5.3c0.7,1.5,1.6,2.7,2.6,3.5c1,0.9,2.3,1.3,3.7,1.3s2.6-0.4,3.7-1.3
				c1-0.9,1.9-2,2.6-3.5c0.7-1.5,1.2-3.3,1.6-5.3C130.1,139.2,130.3,137,130.3,134.7z"/>
			<path fill="#FFFFFF" d="M162.2,157.4l-7-19.3h-4.3v19.3h-7.4v-45.3h12.9c1.9,0,3.6,0.2,5.2,0.7c1.6,0.5,2.9,1.3,4.1,2.3
				c1.1,1.1,2,2.4,2.7,4c0.6,1.6,1,3.6,1,5.8c0,1.7-0.2,3.3-0.7,4.6s-1,2.5-1.7,3.4c-0.7,0.9-1.4,1.7-2.3,2.3s-1.7,1-2.5,1.2
				l8.1,20.9H162.2z M161.7,125.5c0-1.4-0.2-2.5-0.6-3.4c-0.4-0.9-0.9-1.6-1.5-2.1c-0.6-0.5-1.3-0.9-2.1-1.1
				c-0.8-0.2-1.5-0.3-2.3-0.3h-4.4v13.9h4.4c1.9,0,3.4-0.6,4.6-1.8C161.1,129.6,161.7,127.8,161.7,125.5z"/>
			<path fill="#FFFFFF" d="M192.2,120.9c-1.7-2-3.8-3-6.3-3c-0.7,0-1.4,0.1-2.1,0.4c-0.7,0.2-1.3,0.6-1.9,1.1c-0.6,0.5-1,1.2-1.3,2
				c-0.3,0.8-0.5,1.8-0.5,2.9c0,1.9,0.6,3.4,1.7,4.4c1.2,1,2.7,2,4.5,3c1.1,0.6,2.2,1.2,3.4,1.9c1.2,0.7,2.2,1.6,3.1,2.6
				c0.9,1,1.7,2.2,2.3,3.6c0.6,1.4,0.9,3.1,0.9,5c0,2.2-0.4,4.2-1.1,5.9c-0.7,1.7-1.6,3.1-2.8,4.3c-1.2,1.2-2.5,2.1-4.1,2.7
				c-1.6,0.6-3.2,0.9-5,0.9c-2.5,0-4.8-0.5-7-1.5c-2.1-1-3.8-2.2-5.1-3.7l4.2-5.6c1,1.2,2.2,2.1,3.5,2.8c1.4,0.7,2.8,1,4.3,1
				c1.6,0,3-0.6,4-1.7c1.1-1.1,1.6-2.7,1.6-4.7c0-2-0.6-3.5-1.9-4.7s-2.9-2.2-4.9-3.2c-1.2-0.6-2.4-1.3-3.5-2
				c-1.1-0.7-2-1.6-2.9-2.6c-0.8-1-1.5-2.2-2-3.5c-0.5-1.3-0.7-3-0.7-4.8c0-2.3,0.4-4.4,1.1-6c0.7-1.7,1.7-3.1,2.9-4.2
				c1.2-1.1,2.6-1.9,4.1-2.5c1.5-0.5,3.1-0.8,4.7-0.8c2.3,0,4.4,0.4,6.2,1.1c1.8,0.7,3.3,1.8,4.6,3.3L192.2,120.9z"/>
			<path fill="#FFFFFF" d="M204.3,165.4h-5.7l3.7-17.2h6.8L204.3,165.4z"/>
			<path fill="#FFFFFF" d="M247.2,156.9c-1.9,1.1-4.2,1.7-7,1.7c-2.6,0-4.9-0.6-6.9-1.8c-2.1-1.2-3.8-2.8-5.2-5
				c-1.4-2.1-2.5-4.6-3.3-7.5c-0.8-2.9-1.2-6.1-1.2-9.5c0-3.5,0.4-6.6,1.2-9.6c0.8-2.9,1.9-5.4,3.4-7.5c1.4-2.1,3.2-3.8,5.3-4.9
				c2.1-1.2,4.4-1.8,6.9-1.8c2.6,0,4.9,0.5,6.8,1.4c2,1,3.6,2.3,4.8,4.1l-4.4,5.4c-1.7-2.5-4-3.8-6.8-3.8c-1.5,0-2.9,0.4-4,1.3
				c-1.2,0.9-2.1,2.1-2.9,3.6c-0.8,1.5-1.3,3.3-1.7,5.3c-0.4,2-0.6,4.2-0.6,6.5c0,2.3,0.2,4.4,0.6,6.4c0.4,2,1,3.8,1.7,5.3
				c0.8,1.5,1.7,2.7,2.9,3.5c1.2,0.9,2.5,1.3,4.1,1.3c1.5,0,2.8-0.4,3.9-1.2s2-1.7,2.7-2.8l4.4,5.2
				C250.6,154.4,249.1,155.8,247.2,156.9z"/>
			<path fill="#FFFFFF" d="M255.3,157.4v-45.3h7.7v38.2h17.2v7.1H255.3z"/>
			<path fill="#FFFFFF" d="M298.2,157.4l-2.2-9.6h-11.9l-2.3,9.6h-7.7l11.3-45.3h9.8l11.1,45.3H298.2z M290.2,119.4H290l-4.9,22.5
				h10L290.2,119.4z"/>
			<path fill="#FFFFFF" d="M327.8,120.9c-1.7-2-3.8-3-6.3-3c-0.7,0-1.4,0.1-2.1,0.4c-0.7,0.2-1.3,0.6-1.9,1.1c-0.6,0.5-1,1.2-1.3,2
				c-0.3,0.8-0.5,1.8-0.5,2.9c0,1.9,0.6,3.4,1.7,4.4c1.2,1,2.7,2,4.5,3c1.1,0.6,2.2,1.2,3.4,1.9c1.2,0.7,2.2,1.6,3.1,2.6
				c0.9,1,1.7,2.2,2.3,3.6c0.6,1.4,0.9,3.1,0.9,5c0,2.2-0.4,4.2-1.1,5.9c-0.7,1.7-1.6,3.1-2.8,4.3c-1.2,1.2-2.5,2.1-4.1,2.7
				c-1.6,0.6-3.2,0.9-5,0.9c-2.5,0-4.8-0.5-7-1.5c-2.1-1-3.8-2.2-5.1-3.7l4.2-5.6c1,1.2,2.2,2.1,3.5,2.8c1.4,0.7,2.8,1,4.3,1
				c1.6,0,3-0.6,4-1.7c1.1-1.1,1.6-2.7,1.6-4.7c0-2-0.6-3.5-1.9-4.7s-2.9-2.2-4.9-3.2c-1.2-0.6-2.4-1.3-3.5-2
				c-1.1-0.7-2-1.6-2.9-2.6c-0.8-1-1.5-2.2-2-3.5c-0.5-1.3-0.7-3-0.7-4.8c0-2.3,0.4-4.4,1.1-6c0.7-1.7,1.7-3.1,2.9-4.2
				c1.2-1.1,2.6-1.9,4.1-2.5c1.5-0.5,3.1-0.8,4.7-0.8c2.3,0,4.4,0.4,6.2,1.1c1.8,0.7,3.3,1.8,4.6,3.3L327.8,120.9z"/>
			<path fill="#FFFFFF" d="M354.6,120.9c-1.7-2-3.8-3-6.3-3c-0.7,0-1.4,0.1-2.1,0.4c-0.7,0.2-1.3,0.6-1.9,1.1c-0.6,0.5-1,1.2-1.3,2
				c-0.3,0.8-0.5,1.8-0.5,2.9c0,1.9,0.6,3.4,1.7,4.4c1.2,1,2.7,2,4.5,3c1.1,0.6,2.2,1.2,3.4,1.9c1.2,0.7,2.2,1.6,3.1,2.6
				c0.9,1,1.7,2.2,2.3,3.6c0.6,1.4,0.9,3.1,0.9,5c0,2.2-0.4,4.2-1.1,5.9c-0.7,1.7-1.6,3.1-2.8,4.3c-1.2,1.2-2.5,2.1-4.1,2.7
				c-1.6,0.6-3.2,0.9-5,0.9c-2.5,0-4.8-0.5-7-1.5c-2.1-1-3.8-2.2-5.1-3.7l4.2-5.6c1,1.2,2.2,2.1,3.5,2.8c1.4,0.7,2.8,1,4.3,1
				c1.6,0,3-0.6,4-1.7c1.1-1.1,1.6-2.7,1.6-4.7c0-2-0.6-3.5-1.9-4.7s-2.9-2.2-4.9-3.2c-1.2-0.6-2.4-1.3-3.5-2
				c-1.1-0.7-2-1.6-2.9-2.6c-0.8-1-1.5-2.2-2-3.5c-0.5-1.3-0.7-3-0.7-4.8c0-2.3,0.4-4.4,1.1-6c0.7-1.7,1.7-3.1,2.9-4.2
				c1.2-1.1,2.6-1.9,4.1-2.5c1.5-0.5,3.1-0.8,4.7-0.8c2.3,0,4.4,0.4,6.2,1.1c1.8,0.7,3.3,1.8,4.6,3.3L354.6,120.9z"/>
			<path fill="#FFFFFF" d="M363.6,157.4v-45.3h20.3v6.8H371v12h12v6.3h-12v13.4h13.6v6.8H363.6z"/>
			<path fill="#FFFFFF" d="M407.3,120.9c-1.7-2-3.8-3-6.3-3c-0.7,0-1.4,0.1-2.1,0.4c-0.7,0.2-1.3,0.6-1.9,1.1c-0.6,0.5-1,1.2-1.3,2
				c-0.3,0.8-0.5,1.8-0.5,2.9c0,1.9,0.6,3.4,1.7,4.4c1.2,1,2.7,2,4.5,3c1.1,0.6,2.2,1.2,3.4,1.9c1.2,0.7,2.2,1.6,3.1,2.6
				c0.9,1,1.7,2.2,2.3,3.6s0.9,3.1,0.9,5c0,2.2-0.4,4.2-1.1,5.9c-0.7,1.7-1.6,3.1-2.8,4.3s-2.5,2.1-4.1,2.7c-1.6,0.6-3.2,0.9-5,0.9
				c-2.5,0-4.8-0.5-7-1.5s-3.8-2.2-5.1-3.7l4.2-5.6c1,1.2,2.2,2.1,3.5,2.8c1.4,0.7,2.8,1,4.3,1c1.6,0,3-0.6,4-1.7
				c1.1-1.1,1.6-2.7,1.6-4.7c0-2-0.6-3.5-1.9-4.7s-2.9-2.2-4.9-3.2c-1.2-0.6-2.4-1.3-3.5-2c-1.1-0.7-2-1.6-2.9-2.6
				c-0.8-1-1.5-2.2-2-3.5s-0.7-3-0.7-4.8c0-2.3,0.4-4.4,1.1-6c0.7-1.7,1.7-3.1,2.9-4.2c1.2-1.1,2.6-1.9,4.1-2.5
				c1.5-0.5,3.1-0.8,4.7-0.8c2.3,0,4.4,0.4,6.2,1.1c1.8,0.7,3.3,1.8,4.6,3.3L407.3,120.9z"/>
			<path fill="#FFFFFF" d="M419.4,165.4h-5.7l3.7-17.2h6.8L419.4,165.4z"/>
			<path fill="#FFFFFF" d="M463.3,157.4l-3.3-4.7c-0.9,1.6-2.1,2.9-3.7,4c-1.6,1.1-3.6,1.7-6.1,1.7c-3.6,0-6.5-1.2-8.7-3.5
				c-2.2-2.3-3.3-5.6-3.3-9.9c0-3.1,0.7-5.7,2.2-7.8c1.5-2.1,3.3-3.8,5.5-5.1c-1.2-1.7-2.1-3.3-2.6-4.9c-0.6-1.6-0.8-3.3-0.8-5.1
				c0-1.7,0.3-3.3,0.8-4.7s1.3-2.6,2.3-3.6c1-1,2.1-1.7,3.4-2.3c1.3-0.5,2.8-0.8,4.3-0.8c1.5,0,2.8,0.2,4.1,0.7
				c1.2,0.5,2.3,1.2,3.2,2.1c0.9,0.9,1.6,2,2.1,3.4c0.5,1.3,0.8,2.8,0.8,4.5c0,1.5-0.2,2.8-0.7,4c-0.5,1.2-1.1,2.3-1.9,3.3
				c-0.8,1-1.7,1.9-2.7,2.7c-1,0.8-2.1,1.6-3.2,2.2l5.2,7.5l3.5-8.4h7.5l-6.7,13.8l7.6,10.8L463.3,157.4z M449.4,137.3
				c-0.9,0.6-1.8,1.5-2.6,2.7c-0.8,1.2-1.2,2.8-1.2,4.7c0,2.3,0.5,4,1.5,5.3c1,1.3,2.3,2,3.9,2c1.4,0,2.5-0.5,3.4-1.4
				c0.9-1,1.5-2,1.9-3.1L449.4,137.3z M456.9,122c0-1.5-0.3-2.8-0.9-3.8c-0.6-1-1.5-1.5-2.6-1.5c-1.1,0-2.1,0.5-2.8,1.6
				c-0.7,1.1-1,2.4-1,3.9c0,1.3,0.2,2.5,0.6,3.6c0.4,1.1,1.1,2.3,1.9,3.5c1.3-0.9,2.4-1.9,3.3-3C456.4,125.2,456.9,123.7,456.9,122z
				"/>
			<path fill="#FFFFFF" d="M507.7,157.4c-1.9,0.7-4.2,1-6.8,1c-2.7,0-5.1-0.6-7.2-1.7c-2.1-1.1-3.9-2.7-5.4-4.8
				c-1.5-2.1-2.6-4.6-3.4-7.5c-0.8-2.9-1.2-6.1-1.2-9.7c0-3.5,0.4-6.6,1.2-9.5c0.8-2.9,1.9-5.4,3.3-7.5c1.4-2.1,3.2-3.8,5.2-4.9
				c2-1.2,4.3-1.8,6.9-1.8c2.7,0,5,0.5,7,1.4c2,1,3.6,2.3,4.8,4.1l-4.4,5.4c-1.7-2.5-4-3.7-6.9-3.7c-1.6,0-3,0.4-4.1,1.3
				c-1.2,0.9-2.1,2.1-2.9,3.6c-0.8,1.5-1.3,3.3-1.7,5.3c-0.4,2-0.6,4.1-0.6,6.3c0,2.3,0.2,4.5,0.6,6.5c0.4,2,1,3.8,1.7,5.3
				s1.7,2.7,2.9,3.5c1.2,0.9,2.6,1.3,4.2,1.3c1,0,2-0.1,2.8-0.4c0.8-0.2,1.5-0.5,2-0.9v-11.7h-5.5v-6.7h12.5v23
				C511.2,155.8,509.6,156.7,507.7,157.4z"/>
			<path fill="#FFFFFF" d="M537.6,157.4l-7-19.3h-4.3v19.3h-7.4v-45.3h12.9c1.9,0,3.6,0.2,5.2,0.7c1.6,0.5,2.9,1.3,4.1,2.3
				c1.1,1.1,2,2.4,2.7,4c0.6,1.6,1,3.6,1,5.8c0,1.7-0.2,3.3-0.7,4.6s-1,2.5-1.7,3.4c-0.7,0.9-1.4,1.7-2.3,2.3s-1.7,1-2.5,1.2
				l8.1,20.9H537.6z M537.1,125.5c0-1.4-0.2-2.5-0.6-3.4c-0.4-0.9-0.9-1.6-1.5-2.1c-0.6-0.5-1.3-0.9-2.1-1.1
				c-0.8-0.2-1.5-0.3-2.3-0.3h-4.3v13.9h4.3c1.9,0,3.4-0.6,4.6-1.8C536.5,129.6,537.1,127.8,537.1,125.5z"/>
			<path fill="#FFFFFF" d="M570.3,157.4l-2.2-9.6h-11.9l-2.3,9.6h-7.7l11.3-45.3h9.8l11.1,45.3H570.3z M562.3,119.4h-0.3l-4.9,22.5
				h10L562.3,119.4z"/>
			<path fill="#FFFFFF" d="M610.3,134.9c0,7.2-1.5,12.7-4.5,16.7s-7.4,5.9-13.3,5.9h-11.3v-45.3h11.4c5.8,0,10.2,2,13.2,6
				C608.7,122.1,610.3,127.7,610.3,134.9z M602.6,134.9c0-2.7-0.2-5-0.7-7c-0.5-2-1.2-3.7-2.1-5c-0.9-1.3-2-2.3-3.2-3
				c-1.2-0.7-2.6-1-4-1h-3.6v31.9h3.6c1.4,0,2.8-0.3,4-1c1.2-0.7,2.3-1.7,3.2-3c0.9-1.3,1.6-3,2.1-5S602.6,137.5,602.6,134.9z"/>
			<path fill="#FFFFFF" d="M615.6,157.4v-45.3h20.3v6.8H623v12h12v6.3h-12v13.4h13.6v6.8H615.6z"/>
			<path fill="#FFFFFF" d="M659.4,120.9c-1.7-2-3.8-3-6.3-3c-0.7,0-1.4,0.1-2.1,0.4c-0.7,0.2-1.3,0.6-1.9,1.1s-1,1.2-1.3,2
				c-0.3,0.8-0.5,1.8-0.5,2.9c0,1.9,0.6,3.4,1.7,4.4c1.2,1,2.7,2,4.5,3c1.1,0.6,2.2,1.2,3.4,1.9c1.2,0.7,2.2,1.6,3.1,2.6
				s1.7,2.2,2.3,3.6s0.9,3.1,0.9,5c0,2.2-0.4,4.2-1.1,5.9c-0.7,1.7-1.6,3.1-2.8,4.3c-1.2,1.2-2.5,2.1-4.1,2.7
				c-1.6,0.6-3.2,0.9-5,0.9c-2.5,0-4.8-0.5-7-1.5s-3.8-2.2-5.1-3.7l4.2-5.6c1,1.2,2.2,2.1,3.6,2.8c1.4,0.7,2.8,1,4.3,1
				c1.6,0,3-0.6,4-1.7c1.1-1.1,1.6-2.7,1.6-4.7c0-2-0.6-3.5-1.9-4.7s-2.9-2.2-4.9-3.2c-1.2-0.6-2.4-1.3-3.5-2
				c-1.1-0.7-2-1.6-2.9-2.6c-0.8-1-1.5-2.2-2-3.5s-0.7-3-0.7-4.8c0-2.3,0.4-4.4,1.1-6c0.7-1.7,1.7-3.1,2.9-4.2
				c1.2-1.1,2.6-1.9,4.1-2.5c1.5-0.5,3.1-0.8,4.7-0.8c2.3,0,4.4,0.4,6.2,1.1c1.8,0.7,3.3,1.8,4.6,3.3L659.4,120.9z"/>
		</g>
		<path fill="#FFFFFF" d="M18.2,215.3h-0.1c-0.6,1.1-1.6,1.9-2.9,2.6c-1.3,0.7-2.8,1-4.5,1c-1,0-2-0.1-3-0.4c-1-0.2-2-0.7-2.9-1.2
			c-0.9-0.6-1.6-1.3-2.2-2.3c-0.6-0.9-0.9-2.1-0.9-3.5c0-1.8,0.5-3.2,1.5-4.3c1-1.1,2.3-1.9,3.9-2.4s3.4-0.9,5.3-1.1
			c1.9-0.2,3.8-0.3,5.7-0.3v-0.6c0-1.5-0.5-2.6-1.6-3.3c-1.1-0.7-2.4-1.1-3.8-1.1c-1.3,0-2.5,0.3-3.6,0.8c-1.2,0.5-2.1,1.2-2.9,1.9
			l-3.1-3.6c1.4-1.3,2.9-2.2,4.7-2.8c1.8-0.6,3.6-0.9,5.4-0.9c2.1,0,3.9,0.3,5.2,0.9c1.4,0.6,2.5,1.4,3.3,2.3c0.8,1,1.3,2,1.7,3.2
			c0.3,1.2,0.5,2.4,0.5,3.6v14.5h-5.6V215.3z M18.1,207.4h-1.3c-1,0-2,0-3,0.1c-1.1,0.1-2,0.3-2.9,0.5c-0.9,0.3-1.6,0.7-2.2,1.2
			c-0.6,0.5-0.9,1.2-0.9,2.1c0,0.6,0.1,1,0.4,1.4c0.2,0.4,0.6,0.7,1,0.9c0.4,0.2,0.8,0.4,1.3,0.5s1,0.1,1.5,0.1
			c2.1,0,3.6-0.5,4.7-1.6c1.1-1.1,1.6-2.6,1.6-4.5V207.4z"/>
		<path fill="#FFFFFF" d="M29,194.5h5.7v3.8h0.1c0.5-1.2,1.4-2.2,2.8-3.2c1.3-0.9,2.9-1.4,4.6-1.4c1.6,0,2.9,0.3,4,0.8
			c1.1,0.5,2,1.3,2.7,2.2c0.7,0.9,1.2,1.9,1.6,3.1c0.3,1.2,0.5,2.4,0.5,3.6v14.9h-6v-13.2c0-0.7,0-1.4-0.1-2.2
			c-0.1-0.8-0.3-1.4-0.6-2.1c-0.3-0.6-0.8-1.1-1.4-1.5c-0.6-0.4-1.3-0.6-2.3-0.6c-1,0-1.8,0.2-2.5,0.6c-0.7,0.4-1.3,0.9-1.7,1.5
			c-0.4,0.6-0.8,1.3-1,2.1c-0.2,0.8-0.3,1.6-0.3,2.4v13.1h-6V194.5z"/>
		<path fill="#FFFFFF" d="M80.4,218.3h-5.7v-3.6h-0.1c-0.8,1.4-2,2.4-3.5,3.2c-1.5,0.7-3.1,1.1-4.7,1.1c-1.8,0-3.5-0.3-4.9-1
			c-1.4-0.7-2.7-1.6-3.7-2.7c-1-1.1-1.8-2.5-2.3-4c-0.5-1.5-0.8-3.2-0.8-4.9c0-1.8,0.3-3.4,0.8-4.9c0.6-1.5,1.4-2.8,2.4-4
			c1-1.1,2.3-2,3.7-2.7c1.4-0.6,3-1,4.7-1c1.1,0,2.1,0.1,2.9,0.4c0.9,0.2,1.6,0.6,2.3,0.9c0.6,0.4,1.2,0.8,1.7,1.2
			c0.5,0.4,0.8,0.8,1.1,1.2h0.1v-16.7h6V218.3z M60.8,206.3c0,0.9,0.1,1.9,0.4,2.8s0.7,1.8,1.3,2.5c0.6,0.7,1.3,1.3,2.1,1.8
			c0.9,0.5,1.9,0.7,3,0.7c1.1,0,2.1-0.2,2.9-0.7c0.9-0.4,1.6-1,2.2-1.8c0.6-0.7,1.1-1.5,1.4-2.5c0.3-0.9,0.5-1.8,0.5-2.8
			c0-0.9-0.2-1.9-0.5-2.8c-0.3-0.9-0.8-1.8-1.4-2.5c-0.6-0.7-1.3-1.3-2.2-1.8c-0.9-0.5-1.8-0.7-2.9-0.7c-1.2,0-2.2,0.2-3,0.7
			c-0.9,0.4-1.6,1-2.1,1.8c-0.6,0.7-1,1.5-1.3,2.5C60.9,204.5,60.8,205.4,60.8,206.3z"/>
		<path fill="#FFFFFF" d="M119.3,206.7c0,0.3,0,0.5,0,0.8c0,0.3,0,0.5,0,0.8h-18.1c0.1,0.9,0.3,1.6,0.7,2.4c0.4,0.7,0.9,1.3,1.5,1.8
			c0.6,0.5,1.3,0.9,2.1,1.2c0.8,0.3,1.6,0.4,2.5,0.4c1.5,0,2.7-0.3,3.8-0.8c1-0.5,1.9-1.3,2.5-2.3l4,3.2c-2.4,3.2-5.8,4.8-10.2,4.8
			c-1.9,0-3.6-0.3-5.1-0.9c-1.6-0.6-2.9-1.4-4-2.5c-1.1-1.1-2-2.4-2.7-3.9c-0.6-1.5-1-3.3-1-5.2c0-1.9,0.3-3.7,1-5.2
			c0.6-1.6,1.5-2.9,2.7-4c1.1-1.1,2.5-2,4-2.6c1.5-0.6,3.2-0.9,5-0.9c1.7,0,3.2,0.3,4.6,0.8c1.4,0.5,2.6,1.4,3.6,2.4
			c1,1.1,1.8,2.4,2.4,4C119,202.7,119.3,204.5,119.3,206.7z M113.3,204c0-0.8-0.1-1.5-0.3-2.2c-0.2-0.7-0.6-1.3-1-1.8
			c-0.5-0.5-1.1-1-1.8-1.3c-0.7-0.3-1.5-0.5-2.5-0.5c-1.8,0-3.3,0.5-4.5,1.6c-1.2,1.1-1.9,2.5-2.1,4.1H113.3z"/>
		<path fill="#FFFFFF" d="M129.4,205.7l-8.6-11.2h7.1l5.2,7.4l5.3-7.4h6.9l-8.5,11.2l9.7,12.7h-7.2l-6.2-8.7l-6.3,8.7h-7.1
			L129.4,205.7z"/>
		<path fill="#FFFFFF" d="M154,194.5v3.3h0.1c0.3-0.5,0.7-0.9,1.2-1.4c0.5-0.5,1.1-0.9,1.8-1.3c0.7-0.4,1.5-0.7,2.4-0.9
			c0.9-0.2,1.9-0.4,3-0.4c1.7,0,3.2,0.3,4.7,1c1.4,0.6,2.6,1.5,3.7,2.7c1,1.1,1.8,2.4,2.4,4c0.6,1.5,0.8,3.2,0.8,4.9
			c0,1.8-0.3,3.4-0.8,4.9c-0.5,1.5-1.3,2.9-2.3,4c-1,1.1-2.2,2.1-3.7,2.7c-1.4,0.7-3.1,1-4.9,1c-1.7,0-3.2-0.3-4.6-1
			c-1.4-0.7-2.5-1.6-3.3-2.8h-0.1v15.1h-6v-35.7H154z M167.9,206.3c0-0.9-0.1-1.8-0.4-2.8c-0.3-0.9-0.7-1.7-1.3-2.5
			c-0.6-0.7-1.3-1.3-2.1-1.8c-0.9-0.4-1.9-0.7-3-0.7c-1.1,0-2.1,0.2-2.9,0.7c-0.9,0.5-1.6,1.1-2.2,1.8c-0.6,0.7-1.1,1.6-1.4,2.5
			c-0.3,0.9-0.5,1.9-0.5,2.8c0,0.9,0.2,1.8,0.5,2.8c0.3,0.9,0.8,1.7,1.4,2.5c0.6,0.7,1.3,1.3,2.2,1.8c0.9,0.4,1.8,0.7,2.9,0.7
			c1.2,0,2.2-0.2,3-0.7c0.9-0.5,1.6-1.1,2.1-1.8c0.6-0.7,1-1.6,1.3-2.5C167.7,208.2,167.9,207.2,167.9,206.3z"/>
		<path fill="#FFFFFF" d="M200.7,206.7c0,0.3,0,0.5,0,0.8c0,0.3,0,0.5,0,0.8h-18.1c0.1,0.9,0.3,1.6,0.7,2.4c0.4,0.7,0.9,1.3,1.5,1.8
			c0.6,0.5,1.3,0.9,2.1,1.2c0.8,0.3,1.6,0.4,2.5,0.4c1.5,0,2.7-0.3,3.8-0.8c1-0.5,1.9-1.3,2.5-2.3l4,3.2c-2.4,3.2-5.8,4.8-10.2,4.8
			c-1.9,0-3.6-0.3-5.1-0.9c-1.6-0.6-2.9-1.4-4-2.5c-1.1-1.1-2-2.4-2.7-3.9c-0.6-1.5-1-3.3-1-5.2c0-1.9,0.3-3.7,1-5.2
			c0.6-1.6,1.5-2.9,2.7-4c1.1-1.1,2.5-2,4-2.6c1.5-0.6,3.2-0.9,5-0.9c1.7,0,3.2,0.3,4.6,0.8c1.4,0.5,2.6,1.4,3.6,2.4
			c1,1.1,1.8,2.4,2.4,4C200.4,202.7,200.7,204.5,200.7,206.7z M194.7,204c0-0.8-0.1-1.5-0.3-2.2c-0.2-0.7-0.6-1.3-1-1.8
			c-0.5-0.5-1.1-1-1.8-1.3c-0.7-0.3-1.5-0.5-2.5-0.5c-1.8,0-3.3,0.5-4.5,1.6c-1.2,1.1-1.9,2.5-2.1,4.1H194.7z"/>
		<path fill="#FFFFFF" d="M204.7,194.5h5.7v4h0.1c0.7-1.4,1.6-2.5,2.8-3.4c1.2-0.9,2.6-1.3,4.2-1.3c0.2,0,0.5,0,0.7,0
			c0.3,0,0.5,0.1,0.7,0.1v5.5c-0.4-0.1-0.7-0.2-1-0.2c-0.3,0-0.6,0-0.8,0c-1.4,0-2.4,0.2-3.3,0.7c-0.8,0.5-1.5,1.1-1.9,1.8
			c-0.5,0.7-0.8,1.4-0.9,2.1c-0.2,0.7-0.2,1.3-0.2,1.7v12.8h-6V194.5z"/>
		<path fill="#FFFFFF" d="M220.3,186.4c0-1,0.4-1.8,1.1-2.5c0.7-0.7,1.6-1.1,2.7-1.1s2,0.3,2.8,1c0.7,0.7,1.1,1.5,1.1,2.6
			c0,1-0.4,1.9-1.1,2.6c-0.7,0.7-1.7,1-2.8,1s-2-0.4-2.7-1.1C220.6,188.2,220.3,187.3,220.3,186.4z M221.1,194.5h6v23.8h-6V194.5z"
			/>
		<path fill="#FFFFFF" d="M255.3,206.7c0,0.3,0,0.5,0,0.8c0,0.3,0,0.5,0,0.8h-18.1c0.1,0.9,0.3,1.6,0.7,2.4c0.4,0.7,0.9,1.3,1.5,1.8
			c0.6,0.5,1.3,0.9,2.1,1.2c0.8,0.3,1.6,0.4,2.5,0.4c1.5,0,2.7-0.3,3.8-0.8c1-0.5,1.9-1.3,2.5-2.3l4,3.2c-2.4,3.2-5.8,4.8-10.2,4.8
			c-1.9,0-3.6-0.3-5.1-0.9c-1.6-0.6-2.9-1.4-4-2.5c-1.1-1.1-2-2.4-2.7-3.9c-0.6-1.5-1-3.3-1-5.2c0-1.9,0.3-3.7,1-5.2
			c0.6-1.6,1.5-2.9,2.7-4c1.1-1.1,2.5-2,4-2.6c1.5-0.6,3.2-0.9,5-0.9c1.7,0,3.2,0.3,4.6,0.8c1.4,0.5,2.6,1.4,3.6,2.4
			c1,1.1,1.8,2.4,2.4,4C255,202.7,255.3,204.5,255.3,206.7z M249.4,204c0-0.8-0.1-1.5-0.3-2.2c-0.2-0.7-0.6-1.3-1-1.8
			c-0.5-0.5-1.1-1-1.8-1.3c-0.7-0.3-1.5-0.5-2.5-0.5c-1.8,0-3.3,0.5-4.5,1.6c-1.2,1.1-1.9,2.5-2.1,4.1H249.4z"/>
		<path fill="#FFFFFF" d="M259.4,194.5h5.7v3.8h0.1c0.5-1.2,1.4-2.2,2.8-3.2c1.3-0.9,2.9-1.4,4.6-1.4c1.6,0,2.9,0.3,4,0.8
			c1.1,0.5,2,1.3,2.7,2.2c0.7,0.9,1.2,1.9,1.6,3.1c0.3,1.2,0.5,2.4,0.5,3.6v14.9h-6v-13.2c0-0.7,0-1.4-0.1-2.2
			c-0.1-0.8-0.3-1.4-0.6-2.1c-0.3-0.6-0.8-1.1-1.4-1.5c-0.6-0.4-1.3-0.6-2.3-0.6c-1,0-1.8,0.2-2.5,0.6c-0.7,0.4-1.3,0.9-1.7,1.5
			c-0.4,0.6-0.8,1.3-1,2.1c-0.2,0.8-0.3,1.6-0.3,2.4v13.1h-6V194.5z"/>
		<path fill="#FFFFFF" d="M302.8,201.1c-0.5-0.7-1.2-1.2-2.1-1.7c-0.9-0.4-1.9-0.7-2.8-0.7c-1.1,0-2.1,0.2-2.9,0.7
			c-0.8,0.4-1.5,1-2.1,1.8c-0.5,0.7-1,1.5-1.2,2.5c-0.3,0.9-0.4,1.8-0.4,2.8c0,0.9,0.1,1.8,0.4,2.8c0.3,0.9,0.7,1.7,1.3,2.5
			c0.6,0.7,1.3,1.3,2.1,1.8c0.8,0.4,1.8,0.7,3,0.7c0.9,0,1.9-0.2,2.8-0.5c0.9-0.4,1.7-0.9,2.2-1.6l3.7,3.8c-1,1.1-2.3,1.9-3.8,2.5
			s-3.2,0.9-5,0.9c-1.8,0-3.4-0.3-5-0.8c-1.6-0.6-2.9-1.4-4.1-2.5c-1.2-1.1-2.1-2.4-2.8-4c-0.7-1.6-1-3.3-1-5.3c0-1.9,0.3-3.7,1-5.2
			c0.7-1.6,1.6-2.9,2.8-4c1.2-1.1,2.5-1.9,4-2.5c1.5-0.6,3.2-0.9,4.9-0.9c1.8,0,3.5,0.3,5.1,1c1.6,0.7,2.9,1.6,3.9,2.7L302.8,201.1z
			"/>
		<path fill="#FFFFFF" d="M331.7,206.7c0,0.3,0,0.5,0,0.8c0,0.3,0,0.5,0,0.8h-18.1c0.1,0.9,0.3,1.6,0.7,2.4c0.4,0.7,0.9,1.3,1.5,1.8
			c0.6,0.5,1.3,0.9,2.1,1.2c0.8,0.3,1.6,0.4,2.5,0.4c1.5,0,2.7-0.3,3.8-0.8c1-0.5,1.9-1.3,2.5-2.3l4,3.2c-2.4,3.2-5.8,4.8-10.2,4.8
			c-1.9,0-3.6-0.3-5.1-0.9c-1.6-0.6-2.9-1.4-4-2.5c-1.1-1.1-2-2.4-2.7-3.9c-0.6-1.5-1-3.3-1-5.2c0-1.9,0.3-3.7,1-5.2
			c0.6-1.6,1.5-2.9,2.7-4c1.1-1.1,2.5-2,4-2.6c1.5-0.6,3.2-0.9,5-0.9c1.7,0,3.2,0.3,4.6,0.8c1.4,0.5,2.6,1.4,3.6,2.4
			c1,1.1,1.8,2.4,2.4,4C331.5,202.7,331.7,204.5,331.7,206.7z M325.8,204c0-0.8-0.1-1.5-0.3-2.2c-0.2-0.7-0.6-1.3-1-1.8
			c-0.5-0.5-1.1-1-1.8-1.3c-0.7-0.3-1.5-0.5-2.5-0.5c-1.8,0-3.3,0.5-4.5,1.6c-1.2,1.1-1.9,2.5-2.1,4.1H325.8z"/>
		<path fill="#FFFFFF" d="M342.9,194.5h6.6l6.7,17.3h0.1l5.9-17.3h6.2l-11.3,28.9c-0.4,1.1-0.9,2.1-1.4,2.9
			c-0.5,0.8-1.1,1.6-1.8,2.1c-0.7,0.6-1.5,1-2.5,1.3s-2.1,0.4-3.4,0.4c-0.5,0-1,0-1.5-0.1s-1-0.1-1.6-0.3l0.5-5.2
			c0.4,0.1,0.8,0.2,1.2,0.3c0.4,0,0.7,0.1,1.1,0.1c0.6,0,1.2-0.1,1.6-0.2c0.4-0.1,0.8-0.4,1.1-0.7c0.3-0.3,0.6-0.7,0.8-1.2
			c0.2-0.5,0.5-1,0.7-1.6l1.2-3L342.9,194.5z"/>
		<path fill="#FFFFFF" d="M368.8,206.3c0-1.9,0.3-3.6,1-5.1c0.7-1.5,1.6-2.9,2.8-3.9c1.2-1.1,2.5-1.9,4.1-2.5
			c1.6-0.6,3.3-0.9,5.1-0.9c1.8,0,3.5,0.3,5.1,0.9c1.6,0.6,3,1.4,4.1,2.5s2.1,2.4,2.8,3.9c0.7,1.5,1,3.3,1,5.1s-0.3,3.6-1,5.2
			c-0.7,1.6-1.6,2.9-2.8,4c-1.2,1.1-2.5,2-4.1,2.6c-1.6,0.6-3.3,0.9-5.1,0.9c-1.8,0-3.5-0.3-5.1-0.9c-1.6-0.6-3-1.5-4.1-2.6
			c-1.2-1.1-2.1-2.4-2.8-4C369.1,209.9,368.8,208.2,368.8,206.3z M374.8,206.3c0,0.9,0.1,1.9,0.4,2.8s0.7,1.8,1.3,2.5
			c0.6,0.7,1.3,1.3,2.1,1.8c0.9,0.5,1.9,0.7,3.1,0.7c1.2,0,2.2-0.2,3.1-0.7c0.9-0.5,1.6-1.1,2.1-1.8c0.6-0.7,1-1.6,1.3-2.5
			s0.4-1.9,0.4-2.8s-0.1-1.8-0.4-2.8c-0.3-0.9-0.7-1.7-1.3-2.5c-0.6-0.7-1.3-1.3-2.1-1.8c-0.9-0.4-1.9-0.7-3.1-0.7
			c-1.2,0-2.2,0.2-3.1,0.7c-0.9,0.4-1.6,1-2.1,1.8c-0.6,0.7-1,1.5-1.3,2.5C375,204.5,374.8,205.4,374.8,206.3z"/>
		<path fill="#FFFFFF" d="M420.5,218.3h-5.7v-3.8h-0.1c-0.5,1.2-1.4,2.2-2.8,3.2c-1.3,0.9-2.9,1.4-4.6,1.4c-1.6,0-2.9-0.3-4-0.8
			s-2-1.3-2.7-2.2c-0.7-0.9-1.2-1.9-1.6-3.1c-0.3-1.2-0.5-2.3-0.5-3.6v-14.9h6v13.2c0,0.7,0,1.4,0.1,2.2c0.1,0.8,0.3,1.4,0.6,2.1
			c0.3,0.6,0.8,1.1,1.4,1.5c0.6,0.4,1.3,0.6,2.3,0.6c0.9,0,1.7-0.2,2.5-0.6c0.7-0.4,1.3-0.9,1.7-1.5c0.4-0.6,0.8-1.3,1-2.1
			c0.2-0.8,0.3-1.6,0.3-2.4v-13.1h6V218.3z"/>
		<path fill="#FFFFFF" d="M425.9,194.5h5.7v4h0.1c0.7-1.4,1.6-2.5,2.8-3.4c1.2-0.9,2.6-1.3,4.2-1.3c0.2,0,0.5,0,0.7,0
			c0.3,0,0.5,0.1,0.7,0.1v5.5c-0.4-0.1-0.7-0.2-1-0.2c-0.3,0-0.6,0-0.8,0c-1.4,0-2.5,0.2-3.3,0.7c-0.8,0.5-1.5,1.1-1.9,1.8
			c-0.5,0.7-0.8,1.4-0.9,2.1c-0.2,0.7-0.2,1.3-0.2,1.7v12.8h-6V194.5z"/>
		<path fill="#FFFFFF" d="M475.6,206.7c0,0.3,0,0.5,0,0.8c0,0.3,0,0.5,0,0.8h-18.1c0.1,0.9,0.3,1.6,0.7,2.4c0.4,0.7,0.9,1.3,1.5,1.8
			c0.6,0.5,1.3,0.9,2.1,1.2c0.8,0.3,1.6,0.4,2.5,0.4c1.5,0,2.7-0.3,3.8-0.8c1-0.5,1.9-1.3,2.5-2.3l4,3.2c-2.4,3.2-5.8,4.8-10.2,4.8
			c-1.9,0-3.6-0.3-5.1-0.9s-2.9-1.4-4-2.5c-1.1-1.1-2-2.4-2.7-3.9s-1-3.3-1-5.2c0-1.9,0.3-3.7,1-5.2c0.6-1.6,1.5-2.9,2.7-4
			c1.1-1.1,2.5-2,4-2.6c1.5-0.6,3.2-0.9,5-0.9c1.7,0,3.2,0.3,4.6,0.8c1.4,0.5,2.6,1.4,3.6,2.4c1,1.1,1.8,2.4,2.4,4
			C475.3,202.7,475.6,204.5,475.6,206.7z M469.7,204c0-0.8-0.1-1.5-0.3-2.2c-0.2-0.7-0.6-1.3-1-1.8c-0.5-0.5-1.1-1-1.8-1.3
			c-0.7-0.3-1.5-0.5-2.5-0.5c-1.8,0-3.3,0.5-4.5,1.6c-1.2,1.1-1.9,2.5-2.1,4.1H469.7z"/>
		<path fill="#FFFFFF" d="M503.9,218.3h-5.7v-3.6h-0.1c-0.8,1.4-2,2.4-3.5,3.2c-1.5,0.7-3.1,1.1-4.7,1.1c-1.8,0-3.5-0.3-4.9-1
			c-1.4-0.7-2.7-1.6-3.7-2.7c-1-1.1-1.8-2.5-2.3-4s-0.8-3.2-0.8-4.9c0-1.8,0.3-3.4,0.8-4.9s1.4-2.8,2.4-4c1-1.1,2.2-2,3.7-2.7
			c1.4-0.6,3-1,4.7-1c1.1,0,2.1,0.1,2.9,0.4c0.9,0.2,1.6,0.6,2.3,0.9c0.6,0.4,1.2,0.8,1.7,1.2c0.5,0.4,0.8,0.8,1.1,1.2h0.1v-16.7h6
			V218.3z M484.3,206.3c0,0.9,0.1,1.9,0.4,2.8c0.3,0.9,0.7,1.8,1.3,2.5c0.6,0.7,1.3,1.3,2.1,1.8c0.9,0.5,1.9,0.7,3,0.7
			c1.1,0,2.1-0.2,2.9-0.7c0.9-0.4,1.6-1,2.2-1.8c0.6-0.7,1.1-1.5,1.4-2.5c0.3-0.9,0.5-1.8,0.5-2.8c0-0.9-0.2-1.9-0.5-2.8
			c-0.3-0.9-0.8-1.8-1.4-2.5c-0.6-0.7-1.3-1.3-2.2-1.8c-0.9-0.5-1.8-0.7-2.9-0.7c-1.2,0-2.2,0.2-3,0.7c-0.9,0.4-1.6,1-2.1,1.8
			c-0.6,0.7-1,1.5-1.3,2.5C484.4,204.5,484.3,205.4,484.3,206.3z"/>
		<path fill="#FFFFFF" d="M531.1,218.3h-5.7v-3.8h-0.1c-0.5,1.2-1.4,2.2-2.8,3.2c-1.3,0.9-2.9,1.4-4.6,1.4c-1.6,0-2.9-0.3-4-0.8
			c-1.1-0.5-2-1.3-2.7-2.2c-0.7-0.9-1.2-1.9-1.6-3.1c-0.3-1.2-0.5-2.3-0.5-3.6v-14.9h6v13.2c0,0.7,0,1.4,0.1,2.2
			c0.1,0.8,0.3,1.4,0.6,2.1c0.3,0.6,0.8,1.1,1.4,1.5c0.6,0.4,1.3,0.6,2.3,0.6c0.9,0,1.7-0.2,2.5-0.6c0.7-0.4,1.3-0.9,1.7-1.5
			c0.4-0.6,0.8-1.3,1-2.1c0.2-0.8,0.3-1.6,0.3-2.4v-13.1h6V218.3z"/>
		<path fill="#FFFFFF" d="M552.8,201.1c-0.5-0.7-1.2-1.2-2.1-1.7c-0.9-0.4-1.9-0.7-2.8-0.7c-1.1,0-2.1,0.2-2.9,0.7
			c-0.8,0.4-1.5,1-2.1,1.8c-0.5,0.7-1,1.5-1.2,2.5c-0.3,0.9-0.4,1.8-0.4,2.8c0,0.9,0.1,1.8,0.4,2.8c0.3,0.9,0.7,1.7,1.3,2.5
			c0.6,0.7,1.3,1.3,2.1,1.8c0.8,0.4,1.8,0.7,3,0.7c0.9,0,1.9-0.2,2.8-0.5s1.7-0.9,2.2-1.6l3.7,3.8c-1,1.1-2.3,1.9-3.8,2.5
			s-3.2,0.9-5,0.9c-1.8,0-3.4-0.3-5-0.8c-1.6-0.6-2.9-1.4-4.1-2.5c-1.2-1.1-2.1-2.4-2.8-4c-0.7-1.6-1-3.3-1-5.3c0-1.9,0.3-3.7,1-5.2
			c0.7-1.6,1.6-2.9,2.8-4c1.2-1.1,2.5-1.9,4-2.5c1.5-0.6,3.2-0.9,4.9-0.9c1.8,0,3.5,0.3,5.1,1c1.6,0.7,2.9,1.6,3.9,2.7L552.8,201.1z
			"/>
		<path fill="#FFFFFF" d="M573.8,215.3h-0.1c-0.6,1.1-1.6,1.9-2.9,2.6c-1.3,0.7-2.8,1-4.5,1c-1,0-2-0.1-3-0.4c-1-0.2-2-0.7-2.9-1.2
			c-0.9-0.6-1.6-1.3-2.2-2.3c-0.6-0.9-0.9-2.1-0.9-3.5c0-1.8,0.5-3.2,1.5-4.3c1-1.1,2.3-1.9,3.9-2.4c1.6-0.6,3.4-0.9,5.3-1.1
			s3.8-0.3,5.7-0.3v-0.6c0-1.5-0.5-2.6-1.6-3.3c-1.1-0.7-2.4-1.1-3.8-1.1c-1.3,0-2.5,0.3-3.6,0.8c-1.2,0.5-2.1,1.2-2.9,1.9l-3.1-3.6
			c1.4-1.3,2.9-2.2,4.7-2.8c1.8-0.6,3.6-0.9,5.4-0.9c2.1,0,3.9,0.3,5.2,0.9c1.4,0.6,2.5,1.4,3.3,2.3c0.8,1,1.3,2,1.7,3.2
			c0.3,1.2,0.5,2.4,0.5,3.6v14.5h-5.6V215.3z M573.7,207.4h-1.3c-1,0-2,0-3,0.1c-1.1,0.1-2,0.3-2.9,0.5c-0.9,0.3-1.6,0.7-2.2,1.2
			c-0.6,0.5-0.9,1.2-0.9,2.1c0,0.6,0.1,1,0.4,1.4c0.2,0.4,0.6,0.7,1,0.9c0.4,0.2,0.8,0.4,1.3,0.5s1,0.1,1.5,0.1
			c2.1,0,3.6-0.5,4.7-1.6c1.1-1.1,1.6-2.6,1.6-4.5V207.4z"/>
		<path fill="#FFFFFF" d="M581.2,199.2v-4.8h4.2v-6.9h5.9v6.9h6v4.8h-6v11.1c0,1.1,0.2,1.9,0.6,2.6c0.4,0.7,1.2,1,2.6,1
			c0.4,0,0.8,0,1.3-0.1c0.5-0.1,0.9-0.2,1.2-0.4l0.2,4.7c-0.5,0.2-1.2,0.4-1.9,0.5c-0.7,0.1-1.4,0.2-2.1,0.2c-1.6,0-2.9-0.2-3.9-0.7
			c-1-0.4-1.8-1.1-2.4-1.8c-0.6-0.8-1-1.7-1.2-2.7c-0.2-1-0.3-2.1-0.3-3.3v-11.1H581.2z"/>
		<path fill="#FFFFFF" d="M599,186.4c0-1,0.4-1.8,1.1-2.5c0.7-0.7,1.6-1.1,2.7-1.1c1.1,0,2,0.3,2.8,1c0.7,0.7,1.1,1.5,1.1,2.6
			c0,1-0.4,1.9-1.1,2.6c-0.7,0.7-1.7,1-2.8,1c-1.1,0-2-0.4-2.7-1.1C599.3,188.2,599,187.3,599,186.4z M599.8,194.5h6v23.8h-6V194.5z
			"/>
		<path fill="#FFFFFF" d="M609.9,206.3c0-1.9,0.3-3.6,1-5.1c0.7-1.5,1.6-2.9,2.8-3.9c1.2-1.1,2.5-1.9,4.1-2.5
			c1.6-0.6,3.3-0.9,5.1-0.9s3.5,0.3,5.1,0.9c1.6,0.6,3,1.4,4.1,2.5s2.1,2.4,2.8,3.9c0.7,1.5,1,3.3,1,5.1s-0.3,3.6-1,5.2
			c-0.7,1.6-1.6,2.9-2.8,4c-1.2,1.1-2.5,2-4.1,2.6c-1.6,0.6-3.3,0.9-5.1,0.9s-3.5-0.3-5.1-0.9c-1.6-0.6-3-1.5-4.1-2.6
			c-1.2-1.1-2.1-2.4-2.8-4C610.3,209.9,609.9,208.2,609.9,206.3z M616,206.3c0,0.9,0.1,1.9,0.4,2.8c0.3,0.9,0.7,1.8,1.3,2.5
			c0.6,0.7,1.3,1.3,2.1,1.8c0.9,0.5,1.9,0.7,3.1,0.7s2.2-0.2,3.1-0.7c0.9-0.5,1.6-1.1,2.1-1.8c0.6-0.7,1-1.6,1.3-2.5
			c0.3-0.9,0.4-1.9,0.4-2.8s-0.1-1.8-0.4-2.8c-0.3-0.9-0.7-1.7-1.3-2.5s-1.3-1.3-2.1-1.8c-0.9-0.4-1.9-0.7-3.1-0.7s-2.2,0.2-3.1,0.7
			c-0.9,0.4-1.6,1-2.1,1.8c-0.6,0.7-1,1.5-1.3,2.5C616.1,204.5,616,205.4,616,206.3z"/>
		<path fill="#FFFFFF" d="M639.9,194.5h5.7v3.8h0.1c0.5-1.2,1.4-2.2,2.8-3.2c1.3-0.9,2.9-1.4,4.6-1.4c1.6,0,2.9,0.3,4,0.8
			c1.1,0.5,2,1.3,2.7,2.2c0.7,0.9,1.2,1.9,1.6,3.1c0.3,1.2,0.5,2.4,0.5,3.6v14.9h-6v-13.2c0-0.7,0-1.4-0.1-2.2
			c-0.1-0.8-0.3-1.4-0.6-2.1s-0.8-1.1-1.4-1.5c-0.6-0.4-1.3-0.6-2.3-0.6s-1.8,0.2-2.5,0.6c-0.7,0.4-1.3,0.9-1.7,1.5
			c-0.4,0.6-0.8,1.3-1,2.1c-0.2,0.8-0.3,1.6-0.3,2.4v13.1h-6V194.5z"/>
		<path fill="#FFFFFF" d="M0,258.8v-4.8h4.2v-6.9H10v6.9h6v4.8h-6v11.1c0,1.1,0.2,1.9,0.6,2.6c0.4,0.7,1.2,1,2.6,1
			c0.4,0,0.8,0,1.3-0.1c0.5-0.1,0.9-0.2,1.2-0.4l0.2,4.7c-0.5,0.2-1.2,0.4-1.9,0.5c-0.7,0.1-1.4,0.2-2.1,0.2c-1.6,0-2.9-0.2-3.9-0.7
			c-1-0.4-1.8-1.1-2.4-1.8c-0.6-0.8-1-1.7-1.2-2.7c-0.2-1-0.3-2.1-0.3-3.3v-11.1H0z"/>
		<path fill="#FFFFFF" d="M31.8,253.4c1.6,0,2.9,0.3,4,0.8c1.1,0.5,2,1.3,2.7,2.2c0.7,0.9,1.2,1.9,1.6,3.1c0.3,1.2,0.5,2.4,0.5,3.6
			v14.9h-6v-13.1c0-0.7,0-1.4-0.1-2.2c-0.1-0.7-0.3-1.4-0.6-2c-0.3-0.6-0.8-1.1-1.3-1.5c-0.6-0.4-1.3-0.6-2.3-0.6
			c-1,0-1.8,0.2-2.5,0.5c-0.7,0.4-1.3,0.9-1.7,1.5c-0.5,0.6-0.8,1.3-1,2.1c-0.2,0.8-0.3,1.5-0.3,2.3v13h-6v-37.5h6v17h0.1
			c0.2-0.5,0.6-1,1-1.5c0.4-0.5,1-0.9,1.6-1.3c0.6-0.4,1.3-0.7,2-0.9C30.1,253.5,30.9,253.4,31.8,253.4z"/>
		<path fill="#FFFFFF" d="M68.6,266.3c0,0.3,0,0.5,0,0.8c0,0.3,0,0.5,0,0.8H50.4c0.1,0.9,0.3,1.6,0.7,2.4c0.4,0.7,0.9,1.3,1.5,1.8
			c0.6,0.5,1.3,0.9,2.1,1.2c0.8,0.3,1.6,0.4,2.5,0.4c1.5,0,2.7-0.3,3.8-0.8c1-0.5,1.9-1.3,2.5-2.3l4,3.2c-2.4,3.2-5.8,4.8-10.2,4.8
			c-1.9,0-3.6-0.3-5.1-0.9c-1.6-0.6-2.9-1.4-4-2.5c-1.1-1.1-2-2.4-2.7-3.9c-0.6-1.5-1-3.3-1-5.2c0-1.9,0.3-3.7,1-5.2
			c0.6-1.6,1.5-2.9,2.7-4c1.1-1.1,2.5-2,4-2.6s3.2-0.9,5-0.9c1.7,0,3.2,0.3,4.6,0.8c1.4,0.5,2.6,1.4,3.6,2.4c1,1.1,1.8,2.4,2.4,4
			C68.3,262.2,68.6,264.1,68.6,266.3z M62.6,263.6c0-0.8-0.1-1.5-0.3-2.2c-0.2-0.7-0.6-1.3-1-1.8c-0.5-0.5-1.1-1-1.8-1.3
			c-0.7-0.3-1.5-0.5-2.5-0.5c-1.8,0-3.3,0.5-4.5,1.6c-1.2,1.1-1.9,2.5-2.1,4.1H62.6z"/>
		<path fill="#FFFFFF" d="M79.9,254.1h6.5l5,17.1h0.1l5.1-17.1h6.4l5.2,17.1h0.1l5.1-17.1h6.2l-8.2,23.8h-6.1l-5.4-16.7h-0.1
			l-5.4,16.7h-6.1L79.9,254.1z"/>
		<path fill="#FFFFFF" d="M136.2,274.9h-0.1c-0.6,1.1-1.6,1.9-2.9,2.6c-1.3,0.7-2.8,1-4.5,1c-1,0-2-0.1-3-0.4c-1-0.2-2-0.7-2.9-1.2
			c-0.9-0.6-1.6-1.3-2.2-2.3c-0.6-0.9-0.9-2.1-0.9-3.5c0-1.8,0.5-3.2,1.5-4.3c1-1.1,2.3-1.9,3.9-2.4s3.4-0.9,5.3-1.1
			c1.9-0.2,3.8-0.3,5.7-0.3v-0.6c0-1.5-0.5-2.6-1.6-3.3c-1.1-0.7-2.4-1.1-3.8-1.1c-1.3,0-2.5,0.3-3.6,0.8c-1.2,0.5-2.1,1.2-2.9,1.9
			l-3.1-3.6c1.4-1.3,2.9-2.2,4.7-2.8c1.8-0.6,3.6-0.9,5.4-0.9c2.1,0,3.9,0.3,5.2,0.9c1.4,0.6,2.5,1.4,3.3,2.3s1.3,2,1.7,3.2
			c0.3,1.2,0.5,2.4,0.5,3.6v14.5h-5.6V274.9z M136.1,267h-1.3c-1,0-2,0-3,0.1c-1.1,0.1-2,0.3-2.9,0.5c-0.9,0.3-1.6,0.7-2.2,1.2
			c-0.6,0.5-0.9,1.2-0.9,2.1c0,0.6,0.1,1,0.4,1.4c0.2,0.4,0.6,0.7,1,0.9c0.4,0.2,0.8,0.4,1.3,0.5s1,0.1,1.5,0.1
			c2.1,0,3.6-0.5,4.7-1.6c1.1-1.1,1.6-2.6,1.6-4.5V267z"/>
		<path fill="#FFFFFF" d="M143.4,254.1h6.6l6.7,17.3h0.1l5.9-17.3h6.2L157.6,283c-0.4,1.1-0.9,2.1-1.4,2.9c-0.5,0.8-1.1,1.6-1.8,2.1
			c-0.7,0.6-1.5,1-2.5,1.3s-2.1,0.4-3.4,0.4c-0.5,0-1,0-1.5-0.1s-1-0.1-1.6-0.3l0.5-5.2c0.4,0.1,0.8,0.2,1.2,0.3
			c0.4,0,0.7,0.1,1.1,0.1c0.6,0,1.2-0.1,1.6-0.2c0.4-0.1,0.8-0.4,1.1-0.7c0.3-0.3,0.6-0.7,0.8-1.2c0.2-0.5,0.5-1,0.7-1.6l1.2-3
			L143.4,254.1z"/>
		<path fill="#FFFFFF" d="M177.8,254.1h6.6l6.7,17.3h0.1l5.9-17.3h6.2L192,283c-0.4,1.1-0.9,2.1-1.4,2.9c-0.5,0.8-1.1,1.6-1.8,2.1
			c-0.7,0.6-1.5,1-2.5,1.3s-2.1,0.4-3.4,0.4c-0.5,0-1,0-1.5-0.1s-1-0.1-1.6-0.3l0.5-5.2c0.4,0.1,0.8,0.2,1.2,0.3
			c0.4,0,0.7,0.1,1.1,0.1c0.6,0,1.2-0.1,1.6-0.2c0.4-0.1,0.8-0.4,1.1-0.7c0.3-0.3,0.6-0.7,0.8-1.2c0.2-0.5,0.5-1,0.7-1.6l1.2-3
			L177.8,254.1z"/>
		<path fill="#FFFFFF" d="M203.8,265.9c0-1.9,0.3-3.6,1-5.1c0.7-1.5,1.6-2.9,2.8-3.9c1.2-1.1,2.5-1.9,4.1-2.5s3.3-0.9,5.1-0.9
			c1.8,0,3.5,0.3,5.1,0.9c1.6,0.6,3,1.4,4.1,2.5c1.2,1.1,2.1,2.4,2.8,3.9c0.7,1.5,1,3.3,1,5.1s-0.3,3.6-1,5.2
			c-0.7,1.6-1.6,2.9-2.8,4c-1.2,1.1-2.5,2-4.1,2.6c-1.6,0.6-3.3,0.9-5.1,0.9c-1.8,0-3.5-0.3-5.1-0.9c-1.6-0.6-3-1.5-4.1-2.6
			c-1.2-1.1-2.1-2.4-2.8-4C204.1,269.5,203.8,267.8,203.8,265.9z M209.8,265.9c0,0.9,0.1,1.9,0.4,2.8c0.3,0.9,0.7,1.8,1.3,2.5
			c0.6,0.7,1.3,1.3,2.1,1.8c0.9,0.5,1.9,0.7,3.1,0.7c1.2,0,2.2-0.2,3.1-0.7c0.9-0.5,1.6-1.1,2.1-1.8c0.6-0.7,1-1.6,1.3-2.5
			s0.4-1.9,0.4-2.8s-0.1-1.8-0.4-2.8c-0.3-0.9-0.7-1.7-1.3-2.5c-0.6-0.7-1.3-1.3-2.1-1.8c-0.9-0.4-1.9-0.7-3.1-0.7
			c-1.2,0-2.2,0.2-3.1,0.7c-0.9,0.4-1.6,1-2.1,1.8c-0.6,0.7-1,1.5-1.3,2.5C210,264,209.8,264.9,209.8,265.9z"/>
		<path fill="#FFFFFF" d="M255.4,277.9h-5.7v-3.8h-0.1c-0.5,1.2-1.4,2.2-2.8,3.2c-1.3,0.9-2.9,1.4-4.6,1.4c-1.6,0-2.9-0.3-4-0.8
			c-1.1-0.5-2-1.3-2.7-2.2c-0.7-0.9-1.2-1.9-1.6-3.1c-0.3-1.2-0.5-2.3-0.5-3.6v-14.9h6v13.2c0,0.7,0,1.4,0.1,2.2
			c0.1,0.8,0.3,1.4,0.6,2.1c0.3,0.6,0.8,1.1,1.4,1.5c0.6,0.4,1.3,0.6,2.3,0.6c0.9,0,1.7-0.2,2.5-0.6c0.7-0.4,1.3-0.9,1.7-1.5
			s0.8-1.3,1-2.1c0.2-0.8,0.3-1.6,0.3-2.4v-13.1h6V277.9z"/>
		<path fill="#FFFFFF" d="M271.8,242.7h6.3v35.2h-6.3V242.7z"/>
		<path fill="#FFFFFF" d="M284.1,242.7h9.8l9.1,25h0.1l9-25h9.8v35.2h-6.2v-28.2h-0.1L305,277.9h-4.4l-10.5-28.2H290v28.2h-6V242.7z
			"/>
		<path fill="#FFFFFF" d="M339,242.7h5.4l15.1,35.2h-7.1l-3.3-8h-15.2l-3.2,8h-7L339,242.7z M347,264.5l-5.4-14.3l-5.5,14.3H347z"/>
		<path fill="#FFFFFF" d="M390.1,276.1c-1.8,0.9-3.7,1.5-5.9,2s-4.6,0.7-7.4,0.7c-2.8,0-5.4-0.5-7.8-1.4c-2.3-0.9-4.4-2.2-6.1-3.8
			c-1.7-1.6-3-3.6-3.9-5.9c-0.9-2.3-1.4-4.8-1.4-7.5c0-2.8,0.5-5.4,1.5-7.6c1-2.3,2.3-4.2,4-5.8c1.7-1.6,3.7-2.8,6-3.7
			c2.3-0.9,4.8-1.3,7.5-1.3c2.8,0,5.4,0.4,7.7,1.2c2.3,0.8,4.2,1.9,5.6,3.2l-4.3,4.7c-0.9-1-2.1-1.8-3.7-2.5s-3.4-1-5.2-1
			c-1.9,0-3.5,0.3-5,1c-1.5,0.7-2.8,1.6-3.8,2.7c-1.1,1.2-1.9,2.5-2.5,4.1c-0.6,1.6-0.9,3.2-0.9,5.1c0,1.9,0.3,3.6,0.9,5.2
			c0.6,1.6,1.4,2.9,2.5,4.1c1.1,1.2,2.4,2.1,3.9,2.7s3.3,1,5.2,1c2.7,0,5-0.4,7-1.2V263h-7.4v-5.2h13.5V276.1z"/>
		<path fill="#FFFFFF" d="M396,242.7h6.3v35.2H396V242.7z"/>
		<path fill="#FFFFFF" d="M408.2,242.7h8.3l16.3,26.3h0.1v-26.3h6.3v35.2h-7.9l-16.7-27.2h-0.1v27.2h-6.3V242.7z"/>
		<path fill="#FFFFFF" d="M445.2,242.7h23.3v5.5h-17v8.9h16.1v5.3h-16.1v9.9h17.9v5.6h-24.2V242.7z"/>
	</g>
</g>
</svg>
