<?xml version="1.0" encoding="utf-8"?>
<!-- Generator: Adobe Illustrator 22.0.0, SVG Export Plug-In . SVG Version: 6.00 Build 0)  -->
<svg version="1.1" id="Layer_1" xmlns="http://www.w3.org/2000/svg" xmlns:xlink="http://www.w3.org/1999/xlink" x="0px" y="0px"
	 width="16px" height="16px" viewBox="0 0 16 16" style="enable-background:new 0 0 16 16;" xml:space="preserve">
<g>
	<path d="M5.2,3.1C4.9,2.5,4.1,2.3,3.4,2.6S2.6,3.8,3,4.4s1.2,0.8,1.8,0.4l0,0C5.4,4.5,5.6,3.7,5.2,3.1z M4.8,3.9
		C4.6,4.2,4.2,4.4,3.8,4.4C3.5,4.2,3.3,3.8,3.3,3.4c0.1-0.4,0.4-0.6,0.8-0.5c0.1,0,0.1,0,0.2,0C4.7,3.1,5,3.4,4.8,3.9z"/>
	<path d="M15.7,8c0-0.9-0.1-1.8-0.1-2.9c0-0.9,0-1.8-0.1-2.7c-0.1-1.3-0.5-2.1-2-2.3C11.9,0,10.2,0,8.5,0H7H6.3C5.8,0,5.4,0,5,0
		c-0.6,0-1.2,0-1.9,0.1C1.2,0.3,0.5,1,0.4,2.9c0,0.5,0,1.1-0.1,1.6c-0.2,2.9-0.2,5.8,0,8.7c0.1,1.1,0.4,2.3,2.2,2.5
		c1.6,0.2,3.3,0.4,5,0.3c2,0,4-0.1,5.9-0.3c1.9-0.1,2.1-1.3,2.2-2.9l0-0.2C15.8,11.1,15.8,9.5,15.7,8z M1,4.5c0-0.5,0-1.1,0.1-1.6
		C1.2,1.4,1.6,1,3.2,0.8C3.8,0.7,4.4,0.7,5,0.7c0.2,0,0.5,0,0.7,0H7h1.5c1.7-0.1,3.3,0,5,0.1c1,0.1,1.3,0.5,1.4,1.7
		C15,3.4,15,4.3,15,5.2c0,1.1,0,2,0.1,2.9c0,1,0.1,1.9,0,2.9c-0.4-0.4-0.9-0.8-1.4-1.1c-0.7-0.5-1.4-1-2.1-1.4c0,0,0,0,0,0
		c0.1,0.1,0.3,0.1,0.5,0.1c0.2,0,0.3,0.1,0.5,0.2c0.2,0.1,0.6-0.1,0.2-0.3c-0.2-0.1-0.4-0.3-0.6-0.5c-0.1-0.1-0.6-0.1-0.7-0.4
		c0-0.1,0-0.2,0-0.2c0.1,0,0.2,0.1,0.3,0.1c0.1,0.1,0.4,0.1,0.5,0c0-0.2-0.8-0.4-0.8-0.7c0-0.1,0-0.2,0-0.2c0.2,0,0.4,0.1,0.5,0.2
		c0.2,0.1,0.4,0.2,0.6,0.1c0.2,0,0.1-0.3-0.3-0.5c-0.3-0.2-0.3-0.4-0.7-0.6c-0.2-0.1-0.1-0.4-0.1-0.4c0.1,0.1,0.3,0,0.5,0.1
		c0.2,0.2,0.4,0.1,0.3,0c-0.2-0.3-0.5-0.5-0.7-0.8c-0.1-0.2-0.2-0.4-0.2-0.6c0,0,0.4,0.2,0.3,0c-0.1-0.2-0.3-0.3-0.3-0.6
		c0.1,0,0.3,0.1,0.3,0c0-0.1-0.2-0.2-0.3-0.4c-0.1-0.2-0.2-0.4-0.2-0.7c0-0.1-0.1-0.1-0.1-0.1c0,0-0.1,0-0.1,0.1
		c-0.1,0.4-0.1,0.9-0.4,1.2c-0.2,0.2-0.7,0.9-0.4,0.8c0.1,0,0.2,0,0.3,0c0,0.3-0.5,0.7-0.5,0.8s-0.1,0.2,0,0.2c0.1,0,0.2,0,0.3-0.1
		c0,0.1,0,0.2-0.1,0.2c-0.2,0.2-0.6,0.3-0.6,0.6c0,0.1,0.2,0.1,0.4,0C10.4,6,10.6,6.1,10.8,6c0.1-0.1,0.1,0.1,0,0.2
		C10.5,6.6,9.9,6.8,9.9,7c0,0.1,0.3,0,0.5,0c0.2,0,0.2-0.2,0.4,0c0,0.1,0,0.2-0.1,0.3c0,0.1-0.1,0.2-0.2,0.3
		C10.3,7.5,10,7.3,9.8,7.1C9.5,6.9,9.3,6.6,9,6.4C8.7,6.2,8.4,6.4,8.1,6.4C7.5,6.4,7.5,6,7,6.3C6.6,6.5,6.3,6.7,5.9,7
		C5.7,7.1,4.5,8.3,4.3,8.4C4.1,8.5,3.9,8.6,3.7,8.7C3.2,9.1,3.1,9.4,2.4,9.6c-0.3,0.1-1.1,0.3-1,0.7C1.9,10,2.5,9.9,3.1,9.8
		c0.3,0,0.6-0.1,0.9-0.3c0.6-0.3,0.7-0.8,1.4-1.3c0.3-0.3,0.7-0.5,1-0.7C6.6,7.7,6,8.9,5.8,9c-0.3,0.3-1,0.5-1,1.1
		c0.2,0,0.5-0.3,1.1-0.6c0.3-0.1,0.5-0.6,0.7-0.9C6.8,8.8,6.8,9,6.8,9.2c0,0.4-0.1,0.8-0.3,1.1c-0.1,0.2-0.7,0.6-0.8,0.7
		c-0.1,0.2,0,0.2,0.2,0.3c0.2-0.1,0.4-0.3,0.6-0.5C6.8,10.4,7,9.9,7.1,9.5c0.1-0.4-0.2-2.1,0.2-2.3l0.1-0.1C7.7,7,8,7,8.3,7
		c0.3,0.1,1.3,0.8,1.7,1.1L10,8.1C9.8,8.3,9.3,8.7,9.5,8.8c0.3,0.1,0.3,0,0.4,0c0.1,0,0.2,0,0.4-0.1c0.1-0.1,0.4-0.1,0.4,0
		c0,0.2-0.1,0.5-0.5,0.5c-0.3,0-0.4,0.4-0.8,0.6c-0.4,0.2,0,0.4,0.2,0.3c0.3-0.1,0.3,0.1,0.6,0c0.4-0.2,0.6-0.3,0.6-0.3
		c0,0.3,0,0.7-0.7,0.8c-0.5,0.1-0.5,0.7-0.8,0.8c-0.2,0.1,0.1,0.4,0.3,0.3c0.1-0.1,0.3-0.2,0.5-0.2c0.2,0,0.3-0.1,0.6-0.2
		c0,0,0,0.2-0.1,0.3c-0.1,0-0.1,0-0.3,0.1c-0.1,0-0.2,0.3-0.4,0.3c-0.3,0-0.5,0.2-0.7,0.3c-0.3,0.2-0.2,0.5,0,0.3
		c0.6-0.3,1.3-0.2,1.4-0.3c0,0,0,0.2-0.1,0.3c-0.3,0.1-0.7,0.2-1,0.3c-0.4,0.1-1.1,0.6-0.8,0.8c0.2,0.1,0.8-0.2,0.8-0.1
		c0,0.1-0.5,0.3,0,0.5c0.2,0.1,0.8-0.4,1.1-0.4v1.2c-0.7-0.2-1.7-0.7-3.4-0.7c-1.3,0-2.8-0.5-3.1-1c-0.1-0.3,0-0.7,0.3-0.8
		c0.2-0.1-0.7-0.7-1.5-0.6c-0.6,0.1-1.7,0.5-2.3-0.3C0.8,9.3,0.9,7,1,4.5z M15,12.8c-0.2,1.6-0.2,2.2-1.6,2.3l-1.7,0.1v-1.3
		c0.2,0,0.3,0,0.5,0.1c1.1,0.5,0.8,0.1,1.1,0.1c0.3,0,0.1-0.3-0.5-0.5c-0.3-0.1-1.1-0.3-1.1-0.7c0,0,0.1,0.2,0.6,0.1
		c0.2-0.1,0.4,0,0.6,0.1c0.2,0.1,0.8-0.2,0.4-0.4c-0.2-0.1-0.3,0-0.5-0.1c-0.3-0.2-0.6-0.3-0.9-0.4c-0.2,0-0.3-0.3-0.3-0.3
		c0.2,0,0.1,0.1,0.5,0.1c0.1,0,0.4-0.1,0.5-0.1c0.3,0,0.5,0.1,0.6,0.1c0.1-0.2-0.2-0.5-0.8-0.6c-0.3,0-0.5-0.1-0.7-0.3
		c-0.1-0.1-0.1-0.3-0.1-0.3c0.2,0.1,0.8,0.3,0.5-0.1c-0.1-0.1,0.3,0.2,0.6,0.3c0.3,0.1,0.3-0.3-0.2-0.6c-0.1-0.1-0.2-0.4-0.6-0.4
		c-0.2,0-0.3-0.2-0.5-0.3c0-0.1,0-0.2,0-0.2c0,0,0,0,0,0c0.2,0.1,1.5,0.8,1.7,0.9c0.4,0.2,0.4,0.3,0.7,0.6c0.3,0.2,0.6,0.4,0.9,0.7
		C15,11.9,15,12.3,15,12.8L15,12.8z"/>
</g>
</svg>
