<?xml version="1.0" encoding="utf-8"?>
<!-- Generator: Adobe Illustrator 22.0.0, SVG Export Plug-In . SVG Version: 6.00 Build 0)  -->
<svg version="1.1" id="Layer_1" xmlns="http://www.w3.org/2000/svg" xmlns:xlink="http://www.w3.org/1999/xlink" x="0px" y="0px"
	 width="48px" height="48px" viewBox="0 0 48 48" style="enable-background:new 0 0 48 48;" xml:space="preserve">
<style type="text/css">
	.st0{fill:#FFFFFF;}
	.st1{fill:#266726;}
</style>
<title>favicons</title>
<g>
	<path class="st0" d="M41.19466,45.75H6.80534c-2.41377,0-4.38867-1.9749-4.38867-4.38867V6.30534
		c0-2.41377,1.9749-4.38867,4.38867-4.38867h34.38932c2.41377,0,4.38867,1.9749,4.38867,4.38867v35.05599
		C45.58333,43.7751,43.60843,45.75,41.19466,45.75z"/>
	<g>
		<path class="st1" d="M15.62405,8.99387c-1.16278-1.88868-3.63647-2.47713-5.52514-1.31436s-2.47713,3.63647-1.31435,5.52515
			c1.16278,1.88867,3.63647,2.47713,5.52514,1.31435c0.00109-0.00067,0.00217-0.00134,0.00325-0.00201
			C16.19924,13.35322,16.78604,10.88127,15.62405,8.99387z M14.22003,11.44057c-0.44555,1.1504-1.66681,1.80056-2.86997,1.5279
			c-1.0978-0.50219-1.72057-1.67994-1.51757-2.86997c0.19863-1.12288,1.26993-1.87214,2.39281-1.67351
			c0.16435,0.02907,0.32457,0.07797,0.47715,0.14561C13.91033,9.04549,14.94269,10.0985,14.22003,11.44057z"/>
		<path class="st1" d="M47.14207,24.03539c-0.12388-2.6222-0.23744-5.34764-0.21679-8.59958
			c0.03607-2.67395-0.06731-5.34795-0.30971-8.01113c-0.4336-3.90233-1.58984-6.4213-5.99803-6.91683
			c-5.04472-0.45848-10.11284-0.60673-15.17573-0.44392h-4.54239h-2.00278c-1.38337,0-2.69447,0-4.04686,0
			c-1.8376,0-3.74748,0.08259-5.62638,0.26841C3.5867,0.95176,1.52197,3.08875,1.29485,8.5706
			c-0.06194,1.57951-0.13421,3.15903-0.19615,4.73854C0.57627,21.9822,0.52802,30.67733,0.95417,39.35565
			c0.2168,3.28291,1.16657,6.75165,6.5555,7.60851c4.92795,0.72956,9.90519,1.07473,14.88667,1.03236
			c5.99803,0,12.08897-0.37165,17.71534-0.81557c5.8122-0.44392,6.19418-3.90233,6.731-8.69249l0.07227-0.61942
			C47.38177,33.27255,47.45775,28.64474,47.14207,24.03539z M3.08084,13.39173c0.06194-1.57951,0.13421-3.15903,0.19615-4.74887
			c0.16518-4.47013,1.4866-5.82253,6.19418-6.27676c1.80663-0.18583,3.67521-0.22712,5.53346-0.26841c0.72265,0,1.45563,0,2.19893,0
			h3.74748h4.56304c4.97954-0.17035,9.96484-0.03589,14.92796,0.40262c2.89062,0.34068,3.84039,1.50725,4.25333,5.16181
			c0.23546,2.58768,0.33539,5.1859,0.29939,7.78401c0,3.30356,0.10324,6.04965,0.2168,8.70282
			c0.13421,2.99385,0.24777,5.72961,0.13421,8.75443c-1.19846-1.31531-2.57032-2.46142-4.07784-3.4068
			c-1.97507-1.57486-4.06256-3.00332-6.24579-4.27398c0-0.08259,0-0.13421,0.07227-0.11356
			c0.42815,0.21198,0.90991,0.29108,1.38337,0.22712c0.52038,0.1252,1.00905,0.35723,1.43498,0.68136
			c0.49554,0.25809,1.7034-0.36133,0.71233-0.87751c-0.64894-0.36417-1.22335-0.84751-1.69307-1.42466
			c-0.27874-0.42327-1.68275-0.24777-1.96149-1.24916c-0.08259-0.29939,0-0.5678,0-0.5678
			c0.3699,0.00233,0.72189,0.15961,0.97042,0.43359c0.25809,0.41294,1.34207,0.33036,1.35239,0.06194
			c0-0.49553-2.28152-1.21819-2.30217-2.06473c0-0.22712,0-0.55748,0.07226-0.5678c0.54697,0.12438,1.07001,0.33708,1.54855,0.62974
			c0.45435,0.4158,1.09776,0.55396,1.68275,0.36133c0.48521-0.08259,0.1755-0.90848-0.84653-1.35239
			s-1.03236-1.25948-2.12667-1.67243c-0.64006-0.22712-0.33035-1.30078-0.22712-1.24916
			c0.34068,0.18583,1.03236-0.05162,1.46595,0.42327s1.15624,0.16518,1.03236-0.07227
			c-0.65751-0.83268-1.38636-1.60644-2.17828-2.31249c-0.35183-0.54682-0.5514-1.1776-0.57812-1.82728
			c0-0.06194,1.30077,0.57812,1.03236-0.09291c-0.26841-0.67104-0.82589-1.03236-0.9601-1.75502
			c0.16518,0.10324,0.89816,0.25809,0.84653,0c-0.05162-0.25809-0.49553-0.66071-0.80524-1.26981
			c-0.29965-0.62892-0.52486-1.29067-0.67104-1.97181c-0.04305-0.15964-0.20736-0.25417-0.367-0.21112
			c-0.10295,0.02776-0.18337,0.10817-0.21112,0.21112c-0.34068,1.21819-0.43359,2.80803-1.10463,3.64424
			c-0.5265,0.65039-1.97181,2.67382-1.14592,2.51896c0.34464-0.05935,0.69311-0.09385,1.0427-0.10323
			c0,0.80524-1.43498,2.06472-1.61049,2.29185c-0.1755,0.22712-0.20647,0.49553,0,0.49553
			c0.27423-0.03326,0.54416-0.09556,0.80524-0.18583c0.00285,0.24939-0.09812,0.48873-0.27874,0.66071
			c-0.53683,0.50586-1.71372,0.92913-1.9202,1.73437c-0.07226,0.27874,0.59877,0.42327,1.08398,0.08259
			c0.73298-0.49553,1.25948-0.1755,1.76534-0.73298c0.21679-0.23744,0.1755,0.37165,0,0.62974
			c-0.86719,1.19754-2.6222,1.75502-2.56026,2.58091c0,0.3923,0.86719-0.10324,1.41434,0c0.71233,0.14453,0.55748-0.45424,1.18722,0
			c-0.00544,0.35025-0.06107,0.6979-0.16518,1.03236c-0.11362,0.31626-0.29308,0.6048-0.52651,0.84654
			c-0.79583-0.43692-1.56149-0.92667-2.29185-1.46596c-0.77262-0.80489-1.5858-1.56983-2.43638-2.29184
			c-0.90848-0.51618-1.82728,0.22712-2.7977,0.19615c-1.6621-0.06194-1.58984-1.26981-3.33453-0.46457
			c-1.09904,0.62634-2.13606,1.35572-3.09709,2.17829c-0.55748,0.41294-4.19139,3.76812-4.77984,4.19139
			c-0.58845,0.42327-1.38337,0.61942-1.85825,1.03236c-1.56919,1.18722-1.78599,1.90987-3.84039,2.64285
			c-1.03236,0.38198-3.32421,0.90848-3.09709,2.06473c1.63576-0.78268,3.37333-1.33176,5.16181-1.63113
			c0.96391-0.06052,1.90213-0.33564,2.74608-0.80524c1.80663-0.85686,2.06472-2.38476,4.26366-3.96427
			c0.95435-0.82814,1.99231-1.55471,3.09709-2.16796c0.351,0.72265-1.56919,4.27398-2.06473,4.75919
			c-0.79492,0.7846-2.9732,1.64146-2.96288,3.19c0.59877,0,1.50725-1.03236,3.44809-1.82728
			c1.03236-0.40262,1.37304-1.85825,2.16796-2.82867c0.29523,0.5724,0.47749,1.19629,0.53683,1.83761
			c-0.03692,1.15828-0.31098,2.29668-0.80524,3.34485c-0.43359,0.73298-2.21958,1.74469-2.36411,2.06472
			c-0.26842,0.68136,0.09291,0.73298,0.53683,0.79492c0.63344-0.42015,1.22466-0.90072,1.76534-1.43499
			c0.68787-1.23805,1.29145-2.52109,1.80663-3.84039c0.351-1.10463-0.66071-6.19417,0.68136-6.90651l0.29939-0.16518
			c0.82701-0.3268,1.71297-0.47797,2.60155-0.44392c0.83621,0.15485,3.9746,2.36411,5.2444,3.2313l-0.23744,0.16518
			c-0.65039,0.42327-2.00278,1.77566-1.44531,2.06472c0.84654,0.43359,0.7846,0.14453,1.33175-0.11356
			c0.26842-0.13421,0.67104-0.07227,1.14592-0.41294s1.32143-0.27874,1.29045-0.08259
			c-0.10324,0.67104-0.20647,1.44531-1.3524,1.64146c-0.89816,0-1.20786,1.19754-2.42605,1.85825
			c-1.21819,0.66071-0.13421,1.22851,0.47489,0.93945c0.79492-0.38198,0.86718,0.3923,1.65178,0.08259
			c1.3111-0.51618,1.72404-0.89816,1.72404-0.7846c0,0.77427,0.12388,2.00278-2.15764,2.37444
			c-1.42466,0.23744-1.42466,2.00278-2.25055,2.51896c-0.49553,0.30971,0.33036,1.23883,1.03236,0.85686
			c0.45-0.34599,0.99249-0.55077,1.55887-0.58844c0.7433,0,0.97042-0.28906,1.69308-0.51618
			c0.11356,0,0.09291,0.58844-0.2168,0.82589c-0.15485,0.11356-0.26841,0-0.82589,0.29939
			c-0.29939,0.13421-0.5678,0.76395-1.22851,0.78459c-0.78193,0.11129-1.50654,0.47359-2.06473,1.03236
			c-0.83621,0.70201-0.54715,1.3524,0.08259,1.03236c1.9202-0.9188,3.98492-0.7433,4.33592-1.03236
			c0.07227-0.06194,0.10323,0.73298-0.19615,0.85686c-1.01678,0.35073-2.05043,0.65048-3.09709,0.89815
			c-1.20786,0.35101-3.15903,1.84793-2.39508,2.36411c0.58845,0.41294,2.37443-0.60909,2.53961-0.25809
			s-1.36272,0.94977-0.09291,1.57951c0.73298,0.37165,2.43638-1.16657,3.33453-1.11495v3.61327
			c-1.97181-0.62974-5.01728-2.20926-10.32363-2.06472c-3.89201,0.12388-8.2589-1.40401-9.19835-3.09709
			c-0.35501-0.9602,0.09682-2.03103,1.03236-2.4467c0.49553-0.2168-2.14731-2.06472-4.44948-1.72404
			c-1.85825,0.23744-5.16181,1.46595-6.83424-0.80524C2.48207,27.96869,2.77113,20.85571,3.08084,13.39173z M44.8812,38.26134
			c-0.53683,4.81081-0.73298,6.61745-4.91405,6.93748l-5.07922,0.36132v-3.7578c0.50327-0.05561,1.01194,0.03394,1.46595,0.25809
			c3.20032,1.55887,2.37443,0.18583,3.29324,0.27874c0.9188,0.09291,0.43359-1.03236-1.54855-1.54855
			c-0.97042-0.24777-3.41712-1.03236-3.16935-2.19893c0,0,0.34068,0.49553,1.92019,0.25809
			c0.62746-0.18855,1.30593-0.09432,1.85825,0.25809c0.58844,0.29939,2.54993-0.68136,1.34207-1.33175
			c-0.5678-0.30971-0.9188-0.13421-1.44531-0.3923c-0.80999-0.61748-1.76732-1.0125-2.77705-1.14592
			c-0.71233-0.10323-0.88783-1.03236-0.78459-1.03236c0.51618,0,0.19615,0.15485,1.5279,0.28906
			c0.36132,0,1.17689-0.33036,1.52789-0.28906c0.93945,0.09291,1.51757,0.41294,1.66211,0.1755
			c0.32003-0.50586-0.55748-1.61049-2.32281-1.79631c-0.7517-0.09191-1.46485-0.3843-2.06472-0.84653
			c-0.42327-0.32003-0.38197-0.89816-0.32003-0.85686c0.61942,0.37165,2.40541,0.93945,1.64146-0.20647
			c-0.15486-0.21679,1.03236,0.47489,1.93052,0.75362c1.03236,0.34068,1.03236-1.03236-0.51618-1.89955
			c-0.3923-0.20647-0.70201-1.1356-1.68275-1.22851c-0.5572-0.12209-1.04765-0.45029-1.37304-0.91879
			c-0.06194-0.23744-0.14453-0.64007,0-0.62974c0,0,0,0,0.08259,0.06194c0.6091,0.3923,4.42884,2.42605,5.16182,2.73576
			c1.33175,0.59877,1.12527,0.9188,2.06472,1.74469c1.0003,0.60107,1.94366,1.29219,2.81835,2.06473
			c-0.06194,1.03236-0.15485,2.06473-0.27874,3.21065L44.8812,38.26134z"/>
	</g>
</g>
</svg>
