<?xml version="1.0" encoding="utf-8"?>
<!-- Generator: Adobe Illustrator 16.0.4, SVG Export Plug-In . SVG Version: 6.00 Build 0)  -->
<!DOCTYPE svg PUBLIC "-//W3C//DTD SVG 1.1//EN" "http://www.w3.org/Graphics/SVG/1.1/DTD/svg11.dtd">
<svg version="1.1" id="Layer_1" xmlns="http://www.w3.org/2000/svg" xmlns:xlink="http://www.w3.org/1999/xlink" x="0px" y="0px"
	 width="61.7px" height="63.9px" viewBox="0 0 61.7 63.9" enable-background="new 0 0 61.7 63.9" xml:space="preserve">
<g>
	<path fill="#64933F" d="M15.2,37.3c0.5,4.6,2.3,8.1,5.3,10.7s6.7,3.8,11,3.8c3.8,0,7-0.8,9.6-2.3c2.6-1.6,4.8-3.5,6.8-5.9l10.9,8.2
		c-3.6,4.4-7.5,7.5-11.9,9.4s-9,2.8-13.8,2.8c-4.6,0-8.9-0.8-12.9-2.3c-4.1-1.5-7.6-3.7-10.5-6.5c-3-2.8-5.3-6.2-7-10.1
		C0.9,41.2,0,36.8,0,32c0-4.8,0.9-9.2,2.6-13.1c1.7-3.9,4.1-7.3,7-10.1c3-2.8,6.5-4.9,10.5-6.5C24.2,0.8,28.5,0,33.1,0
		c4.2,0,8.1,0.7,11.6,2.2c3.5,1.5,6.5,3.6,9,6.4c2.5,2.8,4.4,6.2,5.8,10.3c1.4,4.1,2.1,8.8,2.1,14.1v4.2H15.2z M46.4,25.9
		c-0.1-4.5-1.5-8-4.2-10.6c-2.7-2.6-6.5-3.9-11.3-3.9c-4.6,0-8.2,1.3-10.8,3.9c-2.7,2.6-4.3,6.1-4.9,10.5H46.4z"/>
</g>
</svg>
