<?xml version="1.0" encoding="utf-8"?>
<!-- Generator: Adobe Illustrator 16.0.4, SVG Export Plug-In . SVG Version: 6.00 Build 0)  -->
<!DOCTYPE svg PUBLIC "-//W3C//DTD SVG 1.1//EN" "http://www.w3.org/Graphics/SVG/1.1/DTD/svg11.dtd">
<svg version="1.1" id="Layer_1" xmlns="http://www.w3.org/2000/svg" xmlns:xlink="http://www.w3.org/1999/xlink" x="0px" y="0px"
	 width="60.901px" height="63.7px" viewBox="0.399 0.1 60.901 63.7" enable-background="new 0.399 0.1 60.901 63.7"
	 xml:space="preserve">
<g>
	<path fill="#64933F" d="M12.699,36.1c0,2.6,0.601,5.1,1.7,7.199c1.101,2.1,2.7,4,4.5,5.6c1.9,1.5,4.101,2.701,6.5,3.602
		c2.5,0.898,5,1.299,7.699,1.299c3.6,0,6.701-0.799,9.301-2.5c2.6-1.699,5.1-3.9,7.299-6.6l8.701,6.699C52,59.7,43,63.8,31.5,63.8
		c-4.801,0-9.1-0.799-13-2.4c-3.9-1.6-7.2-3.898-9.9-6.699c-2.7-2.9-4.8-6.199-6.2-10.1c-1.3-4-2-8.201-2-12.701s0.8-8.699,2.4-12.6
		c1.5-3.9,3.7-7.3,6.5-10.1c2.8-2.9,6.1-5.1,9.899-6.7c3.801-1.6,8-2.4,12.5-2.4c5.4,0,9.9,0.9,13.602,2.8
		C49,4.8,52.099,7.2,54.5,10.3c2.4,3,4.1,6.4,5.199,10.2C60.8,24.3,61.3,28.2,61.3,32.1v4.1H12.699V36.1z M49,26.899
		c-0.1-2.6-0.5-4.899-1.199-7c-0.701-2.1-1.801-4-3.301-5.6s-3.301-2.8-5.4-3.7S34.4,9.2,31.5,9.2c-2.801,0-5.4,0.5-7.699,1.6
		c-2.3,1.1-4.3,2.5-6,4.2c-1.601,1.7-2.9,3.601-3.8,5.7c-0.9,2.1-1.301,4.199-1.301,6.199H49z"/>
</g>
</svg>
