<?xml version="1.0" encoding="utf-8"?>
<!-- Generator: Adobe Illustrator 22.0.0, SVG Export Plug-In . SVG Version: 6.00 Build 0)  -->
<svg version="1.1" id="Layer_1" xmlns="http://www.w3.org/2000/svg" xmlns:xlink="http://www.w3.org/1999/xlink" x="0px" y="0px"
	 viewBox="0 0 554.74744 669" style="enable-background:new 0 0 554.74744 669;" xml:space="preserve">
<style type="text/css">
	.st0{fill:#FFFFFF;}
	.st1{fill:none;stroke:#FFFFFF;stroke-width:5;stroke-miterlimit:10;}
</style>
<g>
	<path d="M46.64978,205.84949v30H29.54919v-30l-26.59961-40.7998h20.7002l15.09961,26.19971l15.10059-26.19971h20
		L46.64978,205.84949z"/>
	<path d="M149.74841,200.14929c0,5.6001-0.9668,10.71729-2.89941,15.3501c-1.93457,4.63428-4.61719,8.6001-8.0498,11.8999
		c-3.43457,3.30029-7.51758,5.8501-12.25,7.65039c-4.73438,1.7998-9.86719,2.69971-15.40039,2.69971
		c-5.53418,0-10.65039-0.8999-15.34961-2.69971c-4.7002-1.80029-8.76758-4.3501-12.2002-7.65039
		c-3.43457-3.2998-6.11719-7.26562-8.0498-11.8999c-1.93457-4.63281-2.90039-9.75-2.90039-15.3501
		c0-5.66553,0.96582-10.78271,2.90039-15.34961c1.93262-4.56592,4.61523-8.4502,8.0498-11.65039
		c3.43262-3.19971,7.5-5.66553,12.2002-7.3999c4.69922-1.73291,9.81543-2.6001,15.34961-2.6001
		c5.5332,0,10.66602,0.86719,15.40039,2.6001c4.73242,1.73438,8.81543,4.2002,12.25,7.3999
		c3.43262,3.2002,6.11523,7.08447,8.0498,11.65039C148.78162,189.36658,149.74841,194.48376,149.74841,200.14929z
		 M131.44861,200.14929c0-3.06543-0.5-5.93262-1.5-8.59961c-1-2.66602-2.38379-4.9502-4.14941-6.8501
		c-1.76758-1.8999-3.90039-3.3999-6.40039-4.5s-5.25-1.6499-8.25-1.6499s-5.73438,0.5498-8.2002,1.6499
		c-2.4668,1.1001-4.59961,2.6001-6.39941,4.5c-1.80078,1.8999-3.18457,4.18408-4.15039,6.8501
		c-0.9668,2.66699-1.4502,5.53418-1.4502,8.59961c0,3.2002,0.5,6.15039,1.5,8.8501c1,2.7002,2.38281,5.01709,4.15039,6.9502
		c1.76562,1.93408,3.88281,3.44971,6.34961,4.5498c2.46582,1.1001,5.2002,1.6499,8.2002,1.6499s5.73242-0.5498,8.2002-1.6499
		c2.46582-1.1001,4.59961-2.61572,6.39941-4.5498c1.80078-1.93311,3.2002-4.25,4.2002-6.9502
		C130.94861,206.29968,131.44861,203.34949,131.44861,200.14929z"/>
	<path d="M218.8988,220.79968c-1.43457,3.5-3.48438,6.5-6.15039,9c-2.66699,2.5-5.88477,4.44971-9.65039,5.84961
		c-3.7666,1.40039-7.94922,2.1001-12.5498,2.1001c-4.66699,0-8.86719-0.69971-12.59961-2.1001
		c-3.73438-1.3999-6.90039-3.34961-9.5-5.84961c-2.60059-2.5-4.60059-5.5-6-9c-1.40039-3.5-2.10059-7.38281-2.10059-11.65039
		v-44.09961h17v42.69971c0,1.93457,0.25,3.76709,0.75,5.5c0.5,1.73438,1.26562,3.28467,2.30078,4.6499
		c1.03223,1.36719,2.39941,2.4502,4.09961,3.25c1.7002,0.80029,3.75,1.2002,6.15039,1.2002c2.39941,0,4.44922-0.3999,6.14941-1.2002
		c1.7002-0.7998,3.08301-1.88281,4.15039-3.25c1.06543-1.36523,1.83301-2.91553,2.2998-4.6499
		c0.46582-1.73291,0.7002-3.56543,0.7002-5.5v-42.69971h17.09961v44.09961
		C221.04822,213.41687,220.33142,217.29968,218.8988,220.79968z"/>
	<path d="M272.74841,235.84949l-15.37207-28.1001h-5.82812v28.1001h-16.7002v-70.7998h27c3.40039,0,6.71582,0.34961,9.9502,1.0498
		c3.23242,0.7002,6.13281,1.88428,8.7002,3.5498c2.56543,1.66748,4.61523,3.86719,6.14941,6.6001
		c1.5332,2.73438,2.30078,6.13428,2.30078,10.2002c0,4.7998-1.30078,8.83447-3.90039,12.1001
		c-2.59961,3.26709-6.2002,5.59961-10.7998,7l18.5,30.2998H272.74841z M272.04822,186.74939
		c0-1.66553-0.35352-3.01562-1.05664-4.0498c-0.70312-1.03271-1.60742-1.83301-2.71191-2.3999
		c-1.10645-0.56592-2.3457-0.9502-3.71875-1.15039c-1.37402-0.19971-2.69727-0.2998-3.96875-0.2998h-9.14355v16.5h8.13867
		c1.40625,0,2.84668-0.11572,4.32227-0.3501c1.47266-0.23291,2.8125-0.6499,4.01855-1.25s2.19336-1.46533,2.96387-2.6001
		C271.66248,190.01648,272.04822,188.54968,272.04822,186.74939z"/>
	<path d="M399.94763,235.84949h-16.89941l-14-47.8999h-0.30078l-14,47.8999h-17l-20.09961-70.7998h18.40039l11.19922,47.09961
		h0.30078l12.59961-47.09961h17.7998l12.7002,47.09961h0.2998l11.40039-47.09961h17.7998L399.94763,235.84949z"/>
	<path d="M474.24744,235.84949l-5.5-13.8999h-27.39941l-5.2002,13.8999h-18.60059l29.7002-70.7998h16.60059l29.39941,70.7998
		H474.24744z M455.24744,183.94958l-9,24.2998h17.7998L455.24744,183.94958z"/>
	<path d="M527.54724,205.84949v30h-17.10059v-30l-26.59961-40.7998h20.7002l15.09961,26.19971l15.10059-26.19971h20
		L527.54724,205.84949z"/>
	<path d="M136.24939,299.64929V355.849h-17.09961v-56.19971h-20v-14.59961h57.09961v14.59961H136.24939z"/>
	<path d="M234.849,320.14929c0,5.6001-0.9668,10.71729-2.89941,15.3501c-1.93457,4.63379-4.61719,8.59961-8.0498,11.89941
		c-3.43457,3.30078-7.51758,5.85059-12.25,7.65039c-4.73438,1.7998-9.86719,2.7002-15.40039,2.7002
		c-5.53418,0-10.65039-0.90039-15.34961-2.7002c-4.7002-1.7998-8.76758-4.34961-12.2002-7.65039
		c-3.43457-3.2998-6.11719-7.26562-8.0498-11.89941c-1.93457-4.63281-2.90039-9.75-2.90039-15.3501
		c0-5.66553,0.96582-10.78271,2.90039-15.34961c1.93262-4.56592,4.61523-8.4502,8.0498-11.65039
		c3.43262-3.19971,7.5-5.66553,12.2002-7.3999c4.69922-1.73291,9.81543-2.6001,15.34961-2.6001
		c5.5332,0,10.66602,0.86719,15.40039,2.6001c4.73242,1.73438,8.81543,4.2002,12.25,7.3999
		c3.43262,3.2002,6.11523,7.08447,8.0498,11.65039C233.8822,309.36658,234.849,314.48376,234.849,320.14929z M216.54919,320.14929
		c0-3.06543-0.5-5.93262-1.5-8.59961c-1-2.66602-2.38379-4.9502-4.14941-6.8501c-1.76758-1.8999-3.90039-3.3999-6.40039-4.5
		s-5.25-1.6499-8.25-1.6499s-5.73438,0.5498-8.2002,1.6499c-2.4668,1.1001-4.59961,2.6001-6.39941,4.5
		c-1.80078,1.8999-3.18457,4.18408-4.15039,6.8501c-0.9668,2.66699-1.4502,5.53418-1.4502,8.59961c0,3.2002,0.5,6.15039,1.5,8.8501
		c1,2.7002,2.38281,5.01709,4.15039,6.9502c1.76562,1.93408,3.88281,3.44922,6.34961,4.5498
		c2.46582,1.09961,5.2002,1.64941,8.2002,1.64941s5.73242-0.5498,8.2002-1.64941c2.46582-1.10059,4.59961-2.61572,6.39941-4.5498
		c1.80078-1.93311,3.2002-4.25,4.2002-6.9502C216.04919,326.29968,216.54919,323.34949,216.54919,320.14929z"/>
	<path d="M299.05017,299.64929V355.849h-17.09961v-56.19971h-20v-14.59961h57.09961v14.59961H299.05017z"/>
	<path d="M371.55017,355.849v-29.59961h-27.59961V355.849h-17.10059v-70.79932h17.10059v26.7998h27.59961v-26.7998h17.09961V355.849
		H371.55017z"/>
	<path d="M403.24841,355.849v-70.79932H450.849v14.3999h-31.10059v13.3999h29.40039v13.7002h-29.40039v14.69971h32.90039V355.849
		H403.24841z"/>
	<path d="M168.59998,475.849h-16.89941l-14-47.89941h-0.30078l-14,47.89941h-17l-20.09961-70.7998h18.40039l11.19922,47.09961
		h0.30078l12.59961-47.09961h17.7998l12.7002,47.09961h0.2998l11.40039-47.09961h17.7998L168.59998,475.849z"/>
	<path d="M268.69958,440.1488c0,5.60059-0.9668,10.71777-2.89941,15.35059c-1.93457,4.63379-4.61719,8.59961-8.0498,11.89941
		c-3.43457,3.30078-7.51758,5.85059-12.25,7.65039c-4.73438,1.7998-9.86719,2.7002-15.40039,2.7002
		c-5.53418,0-10.65039-0.90039-15.34961-2.7002c-4.7002-1.7998-8.76758-4.34961-12.2002-7.65039
		c-3.43457-3.2998-6.11719-7.26562-8.0498-11.89941c-1.93457-4.63281-2.90039-9.75-2.90039-15.35059
		c0-5.66504,0.96582-10.78223,2.90039-15.34961c1.93262-4.56543,4.61523-8.4502,8.0498-11.65039
		c3.43262-3.19922,7.5-5.66504,12.2002-7.39941c4.69922-1.7334,9.81543-2.60059,15.34961-2.60059
		c5.5332,0,10.66602,0.86719,15.40039,2.60059c4.73242,1.73438,8.81543,4.2002,12.25,7.39941
		c3.43262,3.2002,6.11523,7.08496,8.0498,11.65039C267.73279,429.36658,268.69958,434.48376,268.69958,440.1488z
		 M250.39978,440.1488c0-3.06543-0.5-5.93262-1.5-8.59961c-1-2.66602-2.38379-4.9502-4.14941-6.84961
		c-1.76758-1.90039-3.90039-3.40039-6.40039-4.5c-2.5-1.10059-5.25-1.65039-8.25-1.65039s-5.73438,0.5498-8.2002,1.65039
		c-2.4668,1.09961-4.59961,2.59961-6.39941,4.5c-1.80078,1.89941-3.18457,4.18359-4.15039,6.84961
		c-0.9668,2.66699-1.4502,5.53418-1.4502,8.59961c0,3.2002,0.5,6.15039,1.5,8.85059s2.38281,5.0166,4.15039,6.9502
		c1.76562,1.93359,3.88281,3.44922,6.34961,4.5498c2.46582,1.09961,5.2002,1.64941,8.2002,1.64941s5.73242-0.5498,8.2002-1.64941
		c2.46582-1.10059,4.59961-2.61621,6.39941-4.5498c1.80078-1.93359,3.2002-4.25,4.2002-6.9502S250.39978,443.349,250.39978,440.1488
		z"/>
	<path d="M317.89978,475.849l-15.37207-28.09961h-5.82812V475.849h-16.7002v-70.7998h27c3.40039,0,6.71582,0.34961,9.9502,1.0498
		c3.23242,0.7002,6.13281,1.88477,8.7002,3.5498c2.56543,1.66797,4.61523,3.86719,6.14941,6.60059
		c1.5332,2.73438,2.30078,6.13379,2.30078,10.2002c0,4.7998-1.30078,8.83398-3.90039,12.09961
		c-2.59961,3.26758-6.2002,5.59961-10.7998,7l18.5,30.2998H317.89978z M317.19958,426.74939
		c0-1.66602-0.35352-3.01562-1.05664-4.0498c-0.70312-1.0332-1.60742-1.83301-2.71191-2.40039
		c-1.10645-0.56543-2.3457-0.9502-3.71875-1.15039c-1.37402-0.19922-2.69727-0.2998-3.96875-0.2998h-9.14355v16.5h8.13867
		c1.40625,0,2.84668-0.11523,4.32227-0.34961c1.47266-0.2334,2.8125-0.65039,4.01855-1.25
		c1.20605-0.60059,2.19336-1.46582,2.96387-2.60059C316.81384,430.01599,317.19958,428.54919,317.19958,426.74939z"/>
	<path d="M346.29919,475.849v-70.7998h17.2002v55.90039h27.40039V475.849H346.29919z"/>
	<path d="M464.99841,440.24939c0,6.2002-1.15039,11.5498-3.4502,16.0498s-5.33496,8.2002-9.10059,11.09961
		c-3.7666,2.90039-8.0166,5.03516-12.75,6.40039c-4.73438,1.36719-9.53418,2.0498-14.39941,2.0498h-26.40039v-70.7998h25.60059
		c5,0,9.93262,0.58398,14.7998,1.75c4.86523,1.16699,9.2002,3.09961,13,5.7998s6.86523,6.31738,9.2002,10.85059
		C463.83044,427.98376,464.99841,433.58337,464.99841,440.24939z M447.19763,440.24939c0-4-0.64941-7.31543-1.94922-9.9502
		c-1.30078-2.63281-3.03516-4.73242-5.2002-6.2998c-2.16699-1.56543-4.63477-2.68262-7.40039-3.35059
		c-2.7666-0.66504-5.61719-1-8.5498-1h-8.5v41.40039h8.09961c3.06641,0,6.01562-0.34961,8.85059-1.0498
		c2.83301-0.7002,5.33301-1.85059,7.5-3.4502c2.16504-1.59961,3.89941-3.73242,5.2002-6.40039
		C446.54822,447.48376,447.19763,444.18396,447.19763,440.24939z"/>
</g>
<g>
	<path class="st0" d="M43.7002,202.8999v30H26.59961v-30L0,162.1001h20.7002L35.7998,188.2998l15.10059-26.19971h20
		L43.7002,202.8999z"/>
	<path class="st0" d="M146.79883,197.19971c0,5.6001-0.9668,10.71729-2.89941,15.3501
		c-1.93457,4.63428-4.61719,8.6001-8.0498,11.8999c-3.43457,3.30029-7.51758,5.8501-12.25,7.65039
		c-4.73438,1.7998-9.86719,2.69971-15.40039,2.69971c-5.53418,0-10.65039-0.8999-15.34961-2.69971
		c-4.7002-1.80029-8.76758-4.3501-12.2002-7.65039c-3.43457-3.2998-6.11719-7.26562-8.0498-11.8999
		c-1.93457-4.63281-2.90039-9.75-2.90039-15.3501c0-5.66553,0.96582-10.78271,2.90039-15.34961
		c1.93262-4.56592,4.61523-8.4502,8.0498-11.65039c3.43262-3.19971,7.5-5.66553,12.2002-7.3999
		c4.69922-1.73291,9.81543-2.6001,15.34961-2.6001c5.5332,0,10.66602,0.86719,15.40039,2.6001
		c4.73242,1.73438,8.81543,4.2002,12.25,7.3999c3.43262,3.2002,6.11523,7.08447,8.0498,11.65039
		C145.83203,186.41699,146.79883,191.53418,146.79883,197.19971z M128.49902,197.19971c0-3.06543-0.5-5.93262-1.5-8.59961
		c-1-2.66602-2.38379-4.9502-4.14941-6.8501c-1.76758-1.8999-3.90039-3.3999-6.40039-4.5s-5.25-1.6499-8.25-1.6499
		s-5.73438,0.5498-8.2002,1.6499c-2.4668,1.1001-4.59961,2.6001-6.39941,4.5c-1.80078,1.8999-3.18457,4.18408-4.15039,6.8501
		c-0.9668,2.66699-1.4502,5.53418-1.4502,8.59961c0,3.2002,0.5,6.15039,1.5,8.8501c1,2.7002,2.38281,5.01709,4.15039,6.9502
		c1.76562,1.93408,3.88281,3.44971,6.34961,4.5498c2.46582,1.1001,5.2002,1.6499,8.2002,1.6499s5.73242-0.5498,8.2002-1.6499
		c2.46582-1.1001,4.59961-2.61572,6.39941-4.5498c1.80078-1.93311,3.2002-4.25,4.2002-6.9502
		C127.99902,203.3501,128.49902,200.3999,128.49902,197.19971z"/>
	<path class="st0" d="M215.94922,217.8501c-1.43457,3.5-3.48438,6.5-6.15039,9c-2.66699,2.5-5.88477,4.44971-9.65039,5.84961
		c-3.7666,1.40039-7.94922,2.1001-12.5498,2.1001c-4.66699,0-8.86719-0.69971-12.59961-2.1001
		c-3.73438-1.3999-6.90039-3.34961-9.5-5.84961c-2.60059-2.5-4.60059-5.5-6-9c-1.40039-3.5-2.10059-7.38281-2.10059-11.65039
		V162.1001h17v42.69971c0,1.93457,0.25,3.76709,0.75,5.5c0.5,1.73438,1.26562,3.28467,2.30078,4.6499
		c1.03223,1.36719,2.39941,2.4502,4.09961,3.25c1.7002,0.80029,3.75,1.2002,6.15039,1.2002c2.39941,0,4.44922-0.3999,6.14941-1.2002
		c1.7002-0.7998,3.08301-1.88281,4.15039-3.25c1.06543-1.36523,1.83301-2.91553,2.2998-4.6499
		c0.46582-1.73291,0.7002-3.56543,0.7002-5.5V162.1001h17.09961v44.09961
		C218.09863,210.46729,217.38184,214.3501,215.94922,217.8501z"/>
	<path class="st0" d="M269.79883,232.8999l-15.37207-28.1001h-5.82812v28.1001h-16.7002v-70.7998h27
		c3.40039,0,6.71582,0.34961,9.9502,1.0498c3.23242,0.7002,6.13281,1.88428,8.7002,3.5498
		c2.56543,1.66748,4.61523,3.86719,6.14941,6.6001c1.5332,2.73438,2.30078,6.13428,2.30078,10.2002
		c0,4.7998-1.30078,8.83447-3.90039,12.1001c-2.59961,3.26709-6.2002,5.59961-10.7998,7l18.5,30.2998H269.79883z
		 M269.09863,183.7998c0-1.66553-0.35352-3.01562-1.05664-4.0498c-0.70312-1.03271-1.60742-1.83301-2.71191-2.3999
		c-1.10645-0.56592-2.3457-0.9502-3.71875-1.15039c-1.37402-0.19971-2.69727-0.2998-3.96875-0.2998h-9.14355v16.5h8.13867
		c1.40625,0,2.84668-0.11572,4.32227-0.3501c1.47266-0.23291,2.8125-0.6499,4.01855-1.25s2.19336-1.46533,2.96387-2.6001
		C268.71289,187.06689,269.09863,185.6001,269.09863,183.7998z"/>
	<path class="st0" d="M396.99805,232.8999h-16.89941l-14-47.8999h-0.30078l-14,47.8999h-17l-20.09961-70.7998h18.40039
		l11.19922,47.09961h0.30078l12.59961-47.09961h17.7998l12.7002,47.09961h0.2998l11.40039-47.09961h17.7998L396.99805,232.8999z"/>
	<path class="st0" d="M471.29785,232.8999l-5.5-13.8999h-27.39941l-5.2002,13.8999h-18.60059l29.7002-70.7998h16.60059
		l29.39941,70.7998H471.29785z M452.29785,181l-9,24.2998h17.7998L452.29785,181z"/>
	<path class="st0" d="M524.59766,202.8999v30h-17.10059v-30l-26.59961-40.7998h20.7002l15.09961,26.19971l15.10059-26.19971h20
		L524.59766,202.8999z"/>
	<path class="st0" d="M133.2998,296.69971v56.19971H116.2002v-56.19971h-20V282.1001h57.09961v14.59961H133.2998z"/>
	<path class="st0" d="M231.89941,317.19971c0,5.6001-0.9668,10.71729-2.89941,15.3501
		c-1.93457,4.63379-4.61719,8.59961-8.0498,11.89941c-3.43457,3.30078-7.51758,5.85059-12.25,7.65039
		c-4.73438,1.7998-9.86719,2.7002-15.40039,2.7002c-5.53418,0-10.65039-0.90039-15.34961-2.7002
		c-4.7002-1.7998-8.76758-4.34961-12.2002-7.65039c-3.43457-3.2998-6.11719-7.26562-8.0498-11.89941
		c-1.93457-4.63281-2.90039-9.75-2.90039-15.3501c0-5.66553,0.96582-10.78271,2.90039-15.34961
		c1.93262-4.56592,4.61523-8.4502,8.0498-11.65039c3.43262-3.19971,7.5-5.66553,12.2002-7.3999
		c4.69922-1.73291,9.81543-2.6001,15.34961-2.6001c5.5332,0,10.66602,0.86719,15.40039,2.6001
		c4.73242,1.73438,8.81543,4.2002,12.25,7.3999c3.43262,3.2002,6.11523,7.08447,8.0498,11.65039
		C230.93262,306.41699,231.89941,311.53418,231.89941,317.19971z M213.59961,317.19971c0-3.06543-0.5-5.93262-1.5-8.59961
		c-1-2.66602-2.38379-4.9502-4.14941-6.8501c-1.76758-1.8999-3.90039-3.3999-6.40039-4.5s-5.25-1.6499-8.25-1.6499
		s-5.73438,0.5498-8.2002,1.6499c-2.4668,1.1001-4.59961,2.6001-6.39941,4.5c-1.80078,1.8999-3.18457,4.18408-4.15039,6.8501
		c-0.9668,2.66699-1.4502,5.53418-1.4502,8.59961c0,3.2002,0.5,6.15039,1.5,8.8501c1,2.7002,2.38281,5.01709,4.15039,6.9502
		c1.76562,1.93408,3.88281,3.44922,6.34961,4.5498c2.46582,1.09961,5.2002,1.64941,8.2002,1.64941s5.73242-0.5498,8.2002-1.64941
		c2.46582-1.10059,4.59961-2.61572,6.39941-4.5498c1.80078-1.93311,3.2002-4.25,4.2002-6.9502
		C213.09961,323.3501,213.59961,320.3999,213.59961,317.19971z"/>
	<path class="st0" d="M296.10059,296.69971v56.19971h-17.09961v-56.19971h-20V282.1001h57.09961v14.59961H296.10059z"/>
	<path class="st0" d="M368.60059,352.89941V323.2998h-27.59961v29.59961h-17.10059V282.1001h17.10059v26.7998h27.59961v-26.7998
		h17.09961v70.79932H368.60059z"/>
	<path class="st0" d="M400.29883,352.89941V282.1001h47.60059V296.5h-31.10059v13.3999h29.40039v13.7002h-29.40039v14.69971
		h32.90039v14.59961H400.29883z"/>
	<path class="st0" d="M165.65039,472.89941h-16.89941l-14-47.89941h-0.30078l-14,47.89941h-17l-20.09961-70.7998h18.40039
		l11.19922,47.09961h0.30078l12.59961-47.09961h17.7998l12.7002,47.09961h0.2998l11.40039-47.09961h17.7998L165.65039,472.89941z"/>
	<path class="st0" d="M265.75,437.19922c0,5.60059-0.9668,10.71777-2.89941,15.35059
		c-1.93457,4.63379-4.61719,8.59961-8.0498,11.89941c-3.43457,3.30078-7.51758,5.85059-12.25,7.65039
		c-4.73438,1.7998-9.86719,2.7002-15.40039,2.7002c-5.53418,0-10.65039-0.90039-15.34961-2.7002
		c-4.7002-1.7998-8.76758-4.34961-12.2002-7.65039c-3.43457-3.2998-6.11719-7.26562-8.0498-11.89941
		c-1.93457-4.63281-2.90039-9.75-2.90039-15.35059c0-5.66504,0.96582-10.78223,2.90039-15.34961
		c1.93262-4.56543,4.61523-8.4502,8.0498-11.65039c3.43262-3.19922,7.5-5.66504,12.2002-7.39941
		c4.69922-1.7334,9.81543-2.60059,15.34961-2.60059c5.5332,0,10.66602,0.86719,15.40039,2.60059
		c4.73242,1.73438,8.81543,4.2002,12.25,7.39941c3.43262,3.2002,6.11523,7.08496,8.0498,11.65039
		C264.7832,426.41699,265.75,431.53418,265.75,437.19922z M247.4502,437.19922c0-3.06543-0.5-5.93262-1.5-8.59961
		c-1-2.66602-2.38379-4.9502-4.14941-6.84961c-1.76758-1.90039-3.90039-3.40039-6.40039-4.5c-2.5-1.10059-5.25-1.65039-8.25-1.65039
		s-5.73438,0.5498-8.2002,1.65039c-2.4668,1.09961-4.59961,2.59961-6.39941,4.5c-1.80078,1.89941-3.18457,4.18359-4.15039,6.84961
		c-0.9668,2.66699-1.4502,5.53418-1.4502,8.59961c0,3.2002,0.5,6.15039,1.5,8.85059s2.38281,5.0166,4.15039,6.9502
		c1.76562,1.93359,3.88281,3.44922,6.34961,4.5498c2.46582,1.09961,5.2002,1.64941,8.2002,1.64941s5.73242-0.5498,8.2002-1.64941
		c2.46582-1.10059,4.59961-2.61621,6.39941-4.5498c1.80078-1.93359,3.2002-4.25,4.2002-6.9502
		S247.4502,440.39941,247.4502,437.19922z"/>
	<path class="st0" d="M314.9502,472.89941l-15.37207-28.09961H293.75v28.09961h-16.7002v-70.7998h27
		c3.40039,0,6.71582,0.34961,9.9502,1.0498c3.23242,0.7002,6.13281,1.88477,8.7002,3.5498
		c2.56543,1.66797,4.61523,3.86719,6.14941,6.60059c1.5332,2.73438,2.30078,6.13379,2.30078,10.2002
		c0,4.7998-1.30078,8.83398-3.90039,12.09961c-2.59961,3.26758-6.2002,5.59961-10.7998,7l18.5,30.2998H314.9502z M314.25,423.7998
		c0-1.66602-0.35352-3.01562-1.05664-4.0498c-0.70312-1.0332-1.60742-1.83301-2.71191-2.40039
		c-1.10645-0.56543-2.3457-0.9502-3.71875-1.15039c-1.37402-0.19922-2.69727-0.2998-3.96875-0.2998h-9.14355v16.5h8.13867
		c1.40625,0,2.84668-0.11523,4.32227-0.34961c1.47266-0.2334,2.8125-0.65039,4.01855-1.25
		c1.20605-0.60059,2.19336-1.46582,2.96387-2.60059C313.86426,427.06641,314.25,425.59961,314.25,423.7998z"/>
	<path class="st0" d="M343.34961,472.89941v-70.7998h17.2002V458h27.40039v14.89941H343.34961z"/>
	<path class="st0" d="M462.04883,437.2998c0,6.2002-1.15039,11.5498-3.4502,16.0498s-5.33496,8.2002-9.10059,11.09961
		c-3.7666,2.90039-8.0166,5.03516-12.75,6.40039c-4.73438,1.36719-9.53418,2.0498-14.39941,2.0498h-26.40039v-70.7998h25.60059
		c5,0,9.93262,0.58398,14.7998,1.75c4.86523,1.16699,9.2002,3.09961,13,5.7998s6.86523,6.31738,9.2002,10.85059
		C460.88086,425.03418,462.04883,430.63379,462.04883,437.2998z M444.24805,437.2998c0-4-0.64941-7.31543-1.94922-9.9502
		c-1.30078-2.63281-3.03516-4.73242-5.2002-6.2998c-2.16699-1.56543-4.63477-2.68262-7.40039-3.35059
		c-2.7666-0.66504-5.61719-1-8.5498-1h-8.5v41.40039h8.09961c3.06641,0,6.01562-0.34961,8.85059-1.0498
		c2.83301-0.7002,5.33301-1.85059,7.5-3.4502c2.16504-1.59961,3.89941-3.73242,5.2002-6.40039
		C443.59863,444.53418,444.24805,441.23438,444.24805,437.2998z"/>
</g>
<g>
	<line class="st1" x1="193.13138" y1="504.79044" x2="358.66714" y2="504.79044"/>
	<line class="st1" x1="275.89926" y1="669" x2="275.89926" y2="504.79044"/>
</g>
<g>
	<line class="st1" x1="358.66714" y1="134.20956" x2="193.13138" y2="134.20956"/>
	<line class="st1" x1="275.89926" y1="0" x2="275.89926" y2="134.20956"/>
</g>
</svg>
