<?xml version="1.0" encoding="utf-8"?>
<!-- Generator: Adobe Illustrator 16.0.4, SVG Export Plug-In . SVG Version: 6.00 Build 0)  -->
<!DOCTYPE svg PUBLIC "-//W3C//DTD SVG 1.1//EN" "http://www.w3.org/Graphics/SVG/1.1/DTD/svg11.dtd">
<svg version="1.1" id="Layer_1" xmlns="http://www.w3.org/2000/svg" xmlns:xlink="http://www.w3.org/1999/xlink" x="0px" y="0px"
	 width="78.2px" height="19.8px" viewBox="0 0 78.2 19.8" enable-background="new 0 0 78.2 19.8" xml:space="preserve">
<g>
	<path d="M32,4.7c0,0.2-0.1,0.4-0.2,0.6c-0.2,0.1-0.3,0.2-0.5,0.2c-0.2,0-0.4-0.1-0.5-0.2c-0.1-0.2-0.2-0.4-0.2-0.6
		c0-0.2,0.1-0.4,0.2-0.6C30.8,4,31,3.9,31.2,3.9c0.2,0,0.4,0.1,0.5,0.2C31.9,4.3,32,4.5,32,4.7z M30.7,15.7V7.3h1.1v8.4H30.7z"/>
	<path d="M38.7,15.7v-5.4c0-0.3,0-0.5,0-0.8c0-0.3-0.1-0.5-0.2-0.7s-0.2-0.4-0.4-0.5S37.7,8,37.4,8c-0.3,0-0.5,0.1-0.8,0.2
		c-0.2,0.2-0.4,0.4-0.6,0.6c-0.2,0.3-0.3,0.6-0.4,0.9c-0.1,0.4-0.1,0.7-0.1,1.1v4.9h-1.1V9.4c0-0.2,0-0.4,0-0.6c0-0.2,0-0.4,0-0.6
		s0-0.4,0-0.5s0-0.3,0-0.4h1.1c0,0.2,0,0.5,0,0.8c0,0.3,0,0.6,0,0.9h0c0.2-0.6,0.4-1,0.8-1.4C36.7,7.2,37.2,7,37.7,7
		c0.4,0,0.8,0.1,1.1,0.3c0.3,0.2,0.5,0.4,0.6,0.8c0.1,0.3,0.2,0.7,0.3,1c0.1,0.4,0.1,0.8,0.1,1.2v5.4L38.7,15.7L38.7,15.7z"/>
	<path d="M49.8,15.7v-1.5h0c-0.1,0.5-0.4,0.9-0.7,1.3c-0.3,0.3-0.8,0.5-1.3,0.5c-0.4,0-0.8-0.1-1.1-0.3c-0.3-0.2-0.6-0.5-0.8-0.9
		c-0.2-0.4-0.4-0.9-0.5-1.4c-0.1-0.5-0.2-1.2-0.2-1.8s0.1-1.3,0.2-1.8c0.1-0.5,0.3-1,0.5-1.4c0.2-0.4,0.5-0.7,0.8-0.9
		C46.9,7.1,47.3,7,47.7,7c0.5,0,0.9,0.2,1.3,0.5c0.3,0.3,0.6,0.7,0.7,1.2h0V2.9h1.1v12.8H49.8z M49.8,11.5c0-0.5,0-1-0.1-1.4
		c-0.1-0.4-0.2-0.8-0.3-1.1c-0.2-0.3-0.3-0.6-0.6-0.7S48.3,8,48,8c-0.3,0-0.6,0.1-0.8,0.3S46.8,8.7,46.6,9c-0.1,0.3-0.2,0.7-0.3,1.1
		c-0.1,0.4-0.1,0.9-0.1,1.4s0,0.9,0.1,1.4c0.1,0.4,0.2,0.8,0.3,1.1c0.1,0.3,0.3,0.6,0.6,0.8c0.2,0.2,0.5,0.3,0.8,0.3
		c0.3,0,0.6-0.1,0.8-0.3c0.2-0.2,0.4-0.4,0.6-0.8c0.1-0.3,0.3-0.7,0.3-1.1C49.7,12.5,49.8,12,49.8,11.5z"/>
	<path d="M54.1,11.7c0,0.5,0,0.9,0.1,1.3c0.1,0.4,0.2,0.7,0.4,1c0.1,0.3,0.3,0.5,0.6,0.7c0.2,0.2,0.5,0.2,0.8,0.2
		c0.4,0,0.7-0.1,1-0.4s0.4-0.5,0.6-0.9l0.9,0.5c-0.2,0.5-0.5,0.9-0.9,1.3c-0.4,0.3-0.9,0.5-1.5,0.5c-0.9,0-1.7-0.4-2.2-1.2
		S53,12.9,53,11.5c0-0.7,0.1-1.3,0.2-1.8c0.1-0.6,0.3-1,0.6-1.4c0.2-0.4,0.6-0.7,0.9-0.9S55.5,7,55.9,7c0.5,0,0.9,0.1,1.3,0.3
		s0.6,0.5,0.8,0.9c0.2,0.4,0.4,0.8,0.5,1.3c0.1,0.5,0.1,1,0.1,1.6v0.6L54.1,11.7L54.1,11.7z M57.5,10.8c0-0.8-0.1-1.5-0.4-2
		S56.4,8,55.9,8c-0.3,0-0.6,0.1-0.8,0.3c-0.2,0.2-0.4,0.4-0.5,0.7c-0.1,0.3-0.2,0.6-0.3,0.9c-0.1,0.3-0.1,0.6-0.1,0.9L57.5,10.8
		L57.5,10.8z"/>
	<path d="M66.5,11.5c0,0.7-0.1,1.3-0.2,1.8c-0.1,0.5-0.3,1-0.5,1.4c-0.2,0.4-0.5,0.7-0.8,0.9c-0.3,0.2-0.7,0.3-1.2,0.3
		c-0.5,0-0.9-0.2-1.3-0.5c-0.3-0.3-0.6-0.7-0.7-1.2h0v5.5h-1.1V7.3h1.1v1.5h0c0.1-0.5,0.4-1,0.7-1.3C62.8,7.2,63.2,7,63.8,7
		c0.4,0,0.8,0.1,1.1,0.3c0.3,0.2,0.6,0.5,0.8,0.9c0.2,0.4,0.4,0.9,0.5,1.4C66.4,10.3,66.5,10.9,66.5,11.5z M65.3,11.5
		c0-0.5,0-0.9-0.1-1.4C65.1,9.7,65,9.3,64.9,9c-0.2-0.3-0.3-0.6-0.6-0.8S63.9,8,63.6,8c-0.3,0-0.6,0.1-0.8,0.3
		c-0.2,0.2-0.4,0.4-0.6,0.7c-0.2,0.3-0.3,0.7-0.3,1.1c-0.1,0.4-0.1,0.9-0.1,1.4c0,0.5,0,1,0.1,1.4c0.1,0.4,0.2,0.8,0.3,1.1
		c0.2,0.3,0.3,0.6,0.6,0.7s0.5,0.3,0.8,0.3c0.3,0,0.6-0.1,0.8-0.3s0.4-0.4,0.6-0.7c0.1-0.3,0.2-0.7,0.3-1.1
		C65.3,12.5,65.3,12,65.3,11.5z"/>
	<path d="M70.9,15.9c-0.2,0-0.4,0.1-0.6,0.1c-0.6,0-1-0.2-1.2-0.6c-0.2-0.4-0.4-1-0.4-1.6V8.2h-1.1V7.3h1.1V5h1.1v2.3h1.5v0.9h-1.5
		v5.3c0,0.5,0.1,0.9,0.2,1.1c0.2,0.2,0.4,0.4,0.7,0.4c0.1,0,0.2,0,0.3,0c0.1,0,0.2-0.1,0.3-0.1l0.1,0.9C71.2,15.8,71,15.8,70.9,15.9
		z"/>
	<path d="M77.1,15.7v-5.4c0-0.3,0-0.5,0-0.8C77,9.2,77,9,76.9,8.8s-0.2-0.4-0.4-0.5C76.3,8.1,76.1,8,75.8,8c-0.3,0-0.5,0.1-0.8,0.2
		c-0.2,0.2-0.4,0.4-0.6,0.6c-0.2,0.3-0.3,0.6-0.4,0.9c-0.1,0.4-0.1,0.7-0.1,1.1v4.9h-1.1V2.9h1.1v6h0c0.1-0.5,0.4-1,0.8-1.3
		C75.1,7.2,75.5,7,76.1,7c0.4,0,0.8,0.1,1.1,0.3c0.3,0.2,0.5,0.4,0.6,0.8c0.1,0.3,0.2,0.7,0.3,1.1c0.1,0.4,0.1,0.8,0.1,1.2v5.4H77.1
		z"/>
</g>
<rect x="12.5" y="3.7" fill="#FFFFFF" width="0.5" height="14.1"/>
<g>
	<path fill="#64933A" d="M25.4,2.6C24.1,1,21.7,0,19.2,0c-2.6,0-4.9,1-6.2,2.6c-0.1,0.1-0.2,0.3-0.2,0.5c0-0.2-0.1-0.4-0.2-0.5
		C11.3,1,9,0,6.4,0C3.8,0,1.5,1,0.2,2.6C0.1,2.7,0,2.9,0,3.1v16c0,0.3,0.2,0.6,0.5,0.8c0.3,0.1,0.7,0,0.9-0.3c1-1.2,2.9-2,5-2
		s4,0.8,5,2c0.2,0.2,0.4,0.3,0.6,0.3h1.6c0.2,0,0.5-0.1,0.6-0.3c1-1.2,2.9-2,5-2c2.1,0,4,0.8,5,2c0.2,0.3,0.6,0.4,0.9,0.3
		c0.3-0.1,0.5-0.4,0.5-0.8v-16C25.6,2.9,25.5,2.7,25.4,2.6L25.4,2.6z M11.2,17.3c-1.3-0.8-3-1.3-4.8-1.3c-1.8,0-3.5,0.5-4.8,1.3V3.4
		c1-1.1,2.8-1.8,4.8-1.8c2,0,3.8,0.7,4.8,1.8V17.3z M24,17.3c-1.3-0.8-3-1.3-4.8-1.3c-1.8,0-3.5,0.5-4.8,1.3V3.4
		c1-1.1,2.8-1.8,4.8-1.8c2,0,3.8,0.7,4.8,1.8V17.3z"/>
	<path fill="#64933A" d="M16,4.8h6.4v1.6H16V4.8z"/>
	<path fill="#64933A" d="M16,8h6.4v1.6H16V8z"/>
	<path fill="#64933A" d="M16,11.2h4.8v1.6H16V11.2z"/>
	<path fill="#64933A" d="M3.2,4.8h6.4v1.6H3.2V4.8z"/>
	<path fill="#64933A" d="M3.2,8h6.4v1.6H3.2V8z"/>
	<path fill="#64933A" d="M3.2,11.2H8v1.6H3.2V11.2z"/>
</g>
</svg>
