<?xml version="1.0" encoding="utf-8"?>
<!-- Generator: Adobe Illustrator 22.0.0, SVG Export Plug-In . SVG Version: 6.00 Build 0)  -->
<svg version="1.1" id="Layer_1" xmlns="http://www.w3.org/2000/svg" xmlns:xlink="http://www.w3.org/1999/xlink" x="0px" y="0px"
	 width="16px" height="16.00011px" viewBox="0 0 16 16.00011" style="enable-background:new 0 0 16 16.00011;" xml:space="preserve"
	>
<style type="text/css">
	.st0{fill:#610E22;}
</style>
<path class="st0" d="M15.85402,12.85412L15.85402,12.85412l-4.85407-4.85407l4.85376-4.85407c0,0,0,0,0.00031,0
	c0.05219-0.05219,0.09-0.11344,0.11438-0.17844c0.06625-0.17781,0.02844-0.38563-0.11438-0.52875l-2.29313-2.29282
	c-0.14281-0.14281-0.35094-0.18063-0.52844-0.11438c-0.065,0.02438-0.12625,0.06219-0.17844,0.11438l0,0L7.99994,5.00005
	L3.14619,0.14598l0,0c-0.0525-0.05219-0.11375-0.09-0.17875-0.11406C2.78962-0.03465,2.58181,0.00317,2.439,0.14598L0.14618,2.43911
	C0.00306,2.58192-0.03476,2.78973,0.03181,2.96755c0.02406,0.065,0.06188,0.12625,0.11406,0.17844l0,0l4.85407,4.85407
	l-4.85376,4.85407l0,0c-0.0525,0.05219-0.09031,0.11344-0.11438,0.17844c-0.06625,0.17781-0.02844,0.38563,0.11438,0.52875
	L2.439,15.85413c0.14313,0.14281,0.35094,0.18063,0.52875,0.11438c0.065-0.02437,0.12625-0.06219,0.17844-0.11438c0,0,0,0,0.00031,0
	l4.85345-4.85407l4.85376,4.85407c0,0,0,0,0.00031,0c0.05219,0.05219,0.11344,0.09,0.17844,0.11438
	c0.17781,0.06625,0.38563,0.02844,0.52844-0.11438l2.29282-2.29282c0.14281-0.14281,0.18094-0.35094,0.11438-0.52875
	C15.94402,12.96756,15.90621,12.90631,15.85402,12.85412z"/>
</svg>
