<?xml version="1.0" encoding="utf-8"?>
<!-- Generator: Adobe Illustrator 16.0.4, SVG Export Plug-In . SVG Version: 6.00 Build 0)  -->
<!DOCTYPE svg PUBLIC "-//W3C//DTD SVG 1.1//EN" "http://www.w3.org/Graphics/SVG/1.1/DTD/svg11.dtd">
<svg version="1.1" id="Layer_1" xmlns="http://www.w3.org/2000/svg" xmlns:xlink="http://www.w3.org/1999/xlink" x="0px" y="0px"
	 width="512px" height="512px" viewBox="0 0 512 512" enable-background="new 0 0 512 512" xml:space="preserve">
<path fill="#610E22" d="M507.33,411.33C507.33,411.33,507.33,411.33,507.33,411.33L352,256l155.32-155.33c0,0,0,0,0.01,0
	c1.67-1.67,2.88-3.63,3.66-5.71c2.12-5.69,0.91-12.34-3.66-16.92L433.95,4.67c-4.57-4.57-11.23-5.78-16.91-3.66
	C414.96,1.79,413,3,411.33,4.67c0,0,0,0,0,0L256,160L100.68,4.67c0,0,0,0,0,0C99,3,97.04,1.79,94.96,1.02
	C89.27-1.11,82.62,0.1,78.05,4.67L4.68,78.05C0.1,82.62-1.11,89.27,1.02,94.96C1.79,97.04,3,99,4.67,100.67c0,0,0,0,0,0L160,256
	L4.68,411.33c0,0,0,0,0,0C3,413,1.79,414.96,1.02,417.04c-2.12,5.69-0.91,12.34,3.66,16.92l73.37,73.37
	c4.58,4.57,11.23,5.78,16.92,3.66c2.08-0.78,4.04-1.99,5.71-3.66c0,0,0,0,0.01,0L256,352l155.32,155.33c0,0,0,0,0.01,0
	c1.67,1.67,3.63,2.88,5.71,3.66c5.69,2.12,12.34,0.91,16.91-3.66l73.37-73.37c4.57-4.57,5.79-11.23,3.66-16.92
	C510.21,414.96,509,413,507.33,411.33z"/>
</svg>
