<?xml version="1.0" encoding="utf-8"?>
<!-- Generator: Adobe Illustrator 16.0.4, SVG Export Plug-In . SVG Version: 6.00 Build 0)  -->
<!DOCTYPE svg PUBLIC "-//W3C//DTD SVG 1.1//EN" "http://www.w3.org/Graphics/SVG/1.1/DTD/svg11.dtd">
<svg version="1.1" id="Layer_1" xmlns="http://www.w3.org/2000/svg" xmlns:xlink="http://www.w3.org/1999/xlink" x="0px" y="0px"
	 width="512px" height="512px" viewBox="0 0 512 512" enable-background="new 0 0 512 512" xml:space="preserve">
<path d="M409.229,148.523c43.418,43.847,26.38,130.608-108.326,98.489c-33.723,5.096-105.852,15.438-114.96-35.078
	c-12.816,8.095-77.631-37.397-24.959-106.257C223.19,24.351,377.523,44.979,409.229,148.523z M111.44,430.812
	c-23.729-27.071-18.326-89.325-15.136-111.548H53.648c-10.956,0-20.243-5.693-24.239-14.858
	c-5.387-12.356-0.173-27.744,13.947-41.161c23.688-22.509,34.292-45.828,34.292-58.953l-0.006-1.412
	c-0.054-8.427-0.216-34.068,6.674-64.599c8.84-39.176,25.609-70.784,49.84-93.947C164.931,14.917,207.05,0,259.343,0
	c59.024,0,139.651,13.861,188.564,79.893c19.942,26.923,32.307,60.035,35.755,95.759c3.103,32.149-1.232,65.879-12.21,94.978
	c-13.068,34.642-38.651,53.142-50.635,69.462c-20.411,27.799-36.638,75.417-37.441,171.907h-32.001
	c0.85-106.11,19.6-157.165,43.198-189.304c11.374-15.494,35.13-31.506,46.756-62.324c9.436-25.016,13.153-54.117,10.466-81.942
	c-2.937-30.432-13.329-58.453-30.056-81.035c-15.083-20.362-35.235-36.361-59.898-47.551
	c-28.428-12.898-62.913-19.438-102.498-19.438c-23.371,0-44.291,3.433-62.178,10.205c-15.373,5.819-28.936,14.284-40.313,25.159
	c-19.837,18.961-33.714,45.502-41.247,78.885c-6.157,27.285-6.011,50.432-5.963,58.038c0.004,0.632,0.007,1.165,0.007,1.599
	c0,24.034-16.731,54.861-43.664,80.454c-1.58,1.5-2.807,2.886-3.752,4.112h72.223l-5.211,26.93
	c-0.032,0.17-3.485,18.516-3.807,39.705c-0.524,34.416,7.236,52.039,10.597,55.868c2.638,3.006,5.367,4.123,10.069,4.123
	c36.229,0,48.478,0.535,62.051,13.51c16.113,15.401,16.162,61.339,16.028,83.006h-32.001c0.107-17.136,0.113-55.035-6.722-61.57
	c-6.808-6.508-13.173-4.539-39.355-4.539C131.873,445.89,120.21,440.817,111.44,430.812z"/>
</svg>
