<?xml version="1.0" encoding="utf-8"?>
<!-- Generator: Adobe Illustrator 16.0.4, SVG Export Plug-In . SVG Version: 6.00 Build 0)  -->
<!DOCTYPE svg PUBLIC "-//W3C//DTD SVG 1.1//EN" "http://www.w3.org/Graphics/SVG/1.1/DTD/svg11.dtd">
<svg version="1.1" id="Layer_1" xmlns="http://www.w3.org/2000/svg" xmlns:xlink="http://www.w3.org/1999/xlink" x="0px" y="0px"
	 width="512px" height="512px" viewBox="0 0 512 512" enable-background="new 0 0 512 512" xml:space="preserve">
<path d="M335.333,158.667c-11.647,0-23.03,1.14-34.049,3.292c-0.873-0.659-1.763-1.314-2.694-1.958
	c13.614-9.414,21.41-20.342,21.41-32V96c0-35.346-71.634-64-160-64S0,60.654,0,96v32c0,11.658,7.796,22.586,21.41,32
	C7.796,169.414,0,180.342,0,192v32c0,11.658,7.796,22.586,21.411,32C7.796,265.414,0,276.343,0,288v32
	c0,11.658,7.796,22.586,21.41,32C7.796,361.414,0,372.343,0,384v32c0,35.347,71.634,64,160,64c23.616,0,46.021-2.057,66.2-5.73
	C256.244,497.902,294.143,512,335.333,512C432.904,512,512,432.903,512,335.333C512,237.763,432.904,158.667,335.333,158.667z
	 M16,96c0-9.523,14.447-21.456,36.805-30.399C81.18,54.251,119.25,48,160,48s78.82,6.251,107.195,17.601
	C289.553,74.544,304,86.477,304,96s-14.447,21.456-36.805,30.399c-9.23,3.692-19.492,6.841-30.533,9.414
	C213.763,141.15,187.495,144,160,144s-53.763-2.85-76.663-8.187c-11.041-2.573-21.302-5.722-30.532-9.414
	C30.447,117.456,16,105.523,16,96z M16,288c0-7.066,7.961-15.46,21.203-22.975C66.553,279.066,110.666,288,160,288
	c1.71,0,3.406-0.023,5.102-0.047c-4.188,15.08-6.436,30.967-6.436,47.38c0,0.22,0.007,0.438,0.008,0.658
	c-27.013-0.09-52.808-2.927-75.339-8.179c-11.04-2.572-21.301-5.723-30.531-9.412C30.447,309.457,16,297.523,16,288z M160,432
	c-40.75,0-78.82-6.25-107.195-17.6C30.447,405.457,16,393.523,16,384c0-7.067,7.961-15.46,21.203-22.975
	C66.553,375.066,110.666,384,160,384c1.824,0,3.635-0.023,5.443-0.05c4.82,16.873,12.088,32.713,21.391,47.114
	C178.073,431.677,169.108,432,160,432z M160,240c-27.494,0-53.763-2.85-76.662-8.187c-11.041-2.573-21.303-5.722-30.533-9.414
	C30.447,213.456,16,201.523,16,192c0-7.067,7.961-15.46,21.202-22.975C66.552,183.066,110.665,192,160,192
	c32.961,0,63.569-4.001,89.022-10.836c-24.988,14.02-46.22,33.935-61.811,57.865C178.33,239.66,169.241,240,160,240z
	 M335.333,479.879c-79.83,0-144.545-64.715-144.545-144.546c0-79.83,64.715-144.545,144.545-144.545
	c79.831,0,144.546,64.715,144.546,144.545C479.879,415.164,415.164,479.879,335.333,479.879z"/>
<g>
	<path d="M329.424,436.848c-11.718,0-22.834-1.953-33.34-5.857c-10.511-3.906-19.3-10.604-26.366-20.088l19.53-17.021
		c4.089,6.325,9.809,11.349,17.158,15.066c7.346,3.723,15.019,5.768,23.018,6.138V344.22c-7.254-1.855-14.229-4.323-20.925-7.394
		c-6.696-3.068-12.603-6.835-17.717-11.299c-5.117-4.466-9.163-9.81-12.136-16.043c-2.979-6.229-4.465-13.531-4.465-21.901
		c0-7.812,1.486-14.97,4.465-21.483c2.973-6.508,7.019-12.136,12.136-16.878c5.114-4.743,11.021-8.553,17.717-11.439
		c6.696-2.881,13.671-4.603,20.925-5.161v-18.414h13.393v18.414c10.045,0,19.949,1.861,29.714,5.58
		c9.766,3.723,17.899,9.394,24.413,17.019l-18.414,16.74c-4.281-5.58-9.486-9.903-15.624-12.974
		c-6.14-3.069-12.834-4.604-20.089-4.604v69.472c7.438,2.42,14.69,5.021,21.763,7.812c7.065,2.79,13.344,6.277,18.832,10.462
		c5.483,4.187,9.856,9.347,13.113,15.485c3.252,6.138,4.883,13.767,4.883,22.878c0,8.37-1.583,15.901-4.743,22.599
		c-3.165,6.696-7.395,12.464-12.693,17.298c-5.302,4.839-11.488,8.649-18.555,11.439c-7.07,2.79-14.604,4.464-22.6,5.021v19.811
		h-13.393V436.848z M329.424,254.382c-9.115,1.674-16.417,5.44-21.9,11.3c-5.488,5.859-8.23,13.252-8.23,22.18
		c0,4.841,0.789,8.93,2.371,12.277c1.578,3.348,3.719,6.233,6.417,8.648c2.694,2.42,5.858,4.512,9.485,6.277
		c3.627,1.77,7.578,3.486,11.857,5.161V254.382L329.424,254.382z M342.816,415.086c9.484-1.116,17.438-4.743,23.854-10.881
		s9.625-13.671,9.625-22.599c0-5.022-0.934-9.392-2.79-13.113c-1.86-3.719-4.372-6.879-7.532-9.486
		c-3.166-2.603-6.744-4.786-10.742-6.557c-4.002-1.767-8.139-3.3-12.414-4.604V415.086z"/>
</g>
</svg>
