<?xml version="1.0" encoding="utf-8"?>
<!-- Generator: Adobe Illustrator 16.0.4, SVG Export Plug-In . SVG Version: 6.00 Build 0)  -->
<!DOCTYPE svg PUBLIC "-//W3C//DTD SVG 1.1//EN" "http://www.w3.org/Graphics/SVG/1.1/DTD/svg11.dtd">
<svg version="1.1" id="Layer_1" xmlns="http://www.w3.org/2000/svg" xmlns:xlink="http://www.w3.org/1999/xlink" x="0px" y="0px"
	 width="640px" height="1536px" viewBox="0 0 640 1536" enable-background="new 0 0 640 1536" xml:space="preserve">
	<style type="text/css">
		path{
			fill: currentColor !important;
		}
	</style>
	<view id="icon-tools" viewBox="0 0 640 512" />
	<view id="icon-brain" viewBox="0 512 512 512" />
	<view id="icon-coins" viewBox="0 1024 512 512" />
<path d="M246.3,352.3l73.4,73.4l-58.3,74.9c-10.7,14-29.6,15.2-42.1,2.8l-50.7-50.7c-12.4-12.4-11.2-31.4,2.8-42.1L246.3,352.3z
	 M636.8,131.2L560,208l-96-96l76.8-76.8c-9.2-2.1-18.9-3.2-28.8-3.2c-70.7,0-128,57.3-128,128c0,25.5,7.5,49.3,20.3,69.2l-71.5,55.6
	L224,176L368,32H208l-71,71l-7-7H96v33.9l7,7L0,240l80,80l96-96l169.1,169.1L464,512l48-48L387.1,339.1l55.6-71.5
	c20,12.9,43.7,20.3,69.2,20.3c70.7,0,128-57.3,128-128C640,150.1,638.9,140.5,636.8,131.2z"/>
<path d="M409.2,660.5c43.4,43.8,26.4,130.6-108.3,98.5c-33.7,5.1-105.9,15.4-115-35.1c-12.8,8.1-77.6-37.4-25-106.3
	C223.2,536.4,377.5,557,409.2,660.5z M111.5,942.8c-23.7-27.1-18.3-89.3-15.1-111.5H53.7c-11,0-20.2-5.7-24.2-14.9
	c-5.4-12.4-0.2-27.7,13.9-41.2c23.7-22.5,34.3-45.8,34.3-59l0-1.4c-0.1-8.4-0.2-34.1,6.7-64.6c8.8-39.2,25.6-70.8,49.8-93.9
	c30.8-29.4,72.9-44.3,125.2-44.3c59,0,139.7,13.9,188.6,79.9c19.9,26.9,32.3,60,35.8,95.8c3.1,32.1-1.2,65.9-12.2,95
	c-13.1,34.6-38.7,53.1-50.6,69.5c-20.4,27.8-36.6,75.4-37.4,171.9h-32c0.8-106.1,19.6-157.2,43.2-189.3
	c11.4-15.5,35.1-31.5,46.8-62.3c9.4-25,13.2-54.1,10.5-81.9c-2.9-30.4-13.3-58.5-30.1-81c-15.1-20.4-35.2-36.4-59.9-47.6
	c-28.4-12.9-62.9-19.4-102.5-19.4c-23.4,0-44.3,3.4-62.2,10.2c-15.4,5.8-28.9,14.3-40.3,25.2c-19.8,19-33.7,45.5-41.2,78.9
	c-6.2,27.3-6,50.4-6,58c0,0.6,0,1.2,0,1.6c0,24-16.7,54.9-43.7,80.5c-1.6,1.5-2.8,2.9-3.8,4.1h72.2l-5.2,26.9
	c0,0.2-3.5,18.5-3.8,39.7c-0.5,34.4,7.2,52,10.6,55.9c2.6,3,5.4,4.1,10.1,4.1c36.2,0,48.5,0.5,62.1,13.5c16.1,15.4,16.2,61.3,16,83
	h-32c0.1-17.1,0.1-55-6.7-61.6c-6.8-6.5-13.2-4.5-39.4-4.5C131.9,957.9,120.2,952.8,111.5,942.8z"/>
<g>
	<path d="M335.3,1182.7c-11.6,0-23,1.1-34,3.3c-0.9-0.7-1.8-1.3-2.7-2c13.6-9.4,21.4-20.3,21.4-32v-32c0-35.3-71.6-64-160-64
		S0,1084.7,0,1120v32c0,11.7,7.8,22.6,21.4,32C7.8,1193.4,0,1204.3,0,1216v32c0,11.7,7.8,22.6,21.4,32C7.8,1289.4,0,1300.3,0,1312
		v32c0,11.7,7.8,22.6,21.4,32C7.8,1385.4,0,1396.3,0,1408v32c0,35.3,71.6,64,160,64c23.6,0,46-2.1,66.2-5.7
		c30,23.6,67.9,37.7,109.1,37.7c97.6,0,176.7-79.1,176.7-176.7C512,1261.8,432.9,1182.7,335.3,1182.7z M16,1120
		c0-9.5,14.4-21.5,36.8-30.4c28.4-11.4,66.4-17.6,107.2-17.6s78.8,6.3,107.2,17.6c22.4,8.9,36.8,20.9,36.8,30.4
		s-14.4,21.5-36.8,30.4c-9.2,3.7-19.5,6.8-30.5,9.4c-22.9,5.3-49.2,8.2-76.7,8.2s-53.8-2.8-76.7-8.2c-11-2.6-21.3-5.7-30.5-9.4
		C30.4,1141.5,16,1129.5,16,1120z M16,1312c0-7.1,8-15.5,21.2-23c29.4,14,73.5,23,122.8,23c1.7,0,3.4,0,5.1,0
		c-4.2,15.1-6.4,31-6.4,47.4c0,0.2,0,0.4,0,0.7c-27-0.1-52.8-2.9-75.3-8.2c-11-2.6-21.3-5.7-30.5-9.4C30.4,1333.5,16,1321.5,16,1312
		z M160,1456c-40.8,0-78.8-6.2-107.2-17.6c-22.4-8.9-36.8-20.9-36.8-30.4c0-7.1,8-15.5,21.2-23c29.4,14,73.5,23,122.8,23
		c1.8,0,3.6,0,5.4,0c4.8,16.9,12.1,32.7,21.4,47.1C178.1,1455.7,169.1,1456,160,1456z M160,1264c-27.5,0-53.8-2.8-76.7-8.2
		c-11-2.6-21.3-5.7-30.5-9.4c-22.4-8.9-36.8-20.9-36.8-30.4c0-7.1,8-15.5,21.2-23c29.3,14,73.5,23,122.8,23c33,0,63.6-4,89-10.8
		c-25,14-46.2,33.9-61.8,57.9C178.3,1263.7,169.2,1264,160,1264z M335.3,1503.9c-79.8,0-144.5-64.7-144.5-144.5
		c0-79.8,64.7-144.5,144.5-144.5c79.8,0,144.5,64.7,144.5,144.5C479.9,1439.2,415.2,1503.9,335.3,1503.9z"/>
	<g>
		<path d="M329.4,1460.8c-11.7,0-22.8-2-33.3-5.9c-10.5-3.9-19.3-10.6-26.4-20.1l19.5-17c4.1,6.3,9.8,11.3,17.2,15.1
			c7.3,3.7,15,5.8,23,6.1v-70.9c-7.3-1.9-14.2-4.3-20.9-7.4c-6.7-3.1-12.6-6.8-17.7-11.3c-5.1-4.5-9.2-9.8-12.1-16
			c-3-6.2-4.5-13.5-4.5-21.9c0-7.8,1.5-15,4.5-21.5c3-6.5,7-12.1,12.1-16.9c5.1-4.7,11-8.6,17.7-11.4c6.7-2.9,13.7-4.6,20.9-5.2
			v-18.4h13.4v18.4c10,0,19.9,1.9,29.7,5.6c9.8,3.7,17.9,9.4,24.4,17l-18.4,16.7c-4.3-5.6-9.5-9.9-15.6-13
			c-6.1-3.1-12.8-4.6-20.1-4.6v69.5c7.4,2.4,14.7,5,21.8,7.8c7.1,2.8,13.3,6.3,18.8,10.5c5.5,4.2,9.9,9.3,13.1,15.5
			c3.3,6.1,4.9,13.8,4.9,22.9c0,8.4-1.6,15.9-4.7,22.6c-3.2,6.7-7.4,12.5-12.7,17.3c-5.3,4.8-11.5,8.6-18.6,11.4
			c-7.1,2.8-14.6,4.5-22.6,5v19.8h-13.4V1460.8z M329.4,1278.4c-9.1,1.7-16.4,5.4-21.9,11.3c-5.5,5.9-8.2,13.3-8.2,22.2
			c0,4.8,0.8,8.9,2.4,12.3c1.6,3.3,3.7,6.2,6.4,8.6c2.7,2.4,5.9,4.5,9.5,6.3c3.6,1.8,7.6,3.5,11.9,5.2V1278.4L329.4,1278.4z
			 M342.8,1439.1c9.5-1.1,17.4-4.7,23.9-10.9s9.6-13.7,9.6-22.6c0-5-0.9-9.4-2.8-13.1c-1.9-3.7-4.4-6.9-7.5-9.5
			c-3.2-2.6-6.7-4.8-10.7-6.6c-4-1.8-8.1-3.3-12.4-4.6V1439.1L342.8,1439.1z"/>
	</g>
</g>
</svg>
