<?xml version="1.0" encoding="utf-8"?>
<!-- Generator: Adobe Illustrator 16.0.4, SVG Export Plug-In . SVG Version: 6.00 Build 0)  -->
<!DOCTYPE svg PUBLIC "-//W3C//DTD SVG 1.1//EN" "http://www.w3.org/Graphics/SVG/1.1/DTD/svg11.dtd">
<svg version="1.1" id="Layer_1" xmlns="http://www.w3.org/2000/svg" xmlns:xlink="http://www.w3.org/1999/xlink" x="0px" y="0px"
	 width="512px" height="512px" viewBox="0 0 512 512" enable-background="new 0 0 512 512" xml:space="preserve">
<path d="M459.975,256l45.606-56.965l-65.807-31.536l16.375-71.112l-72.975,0.14l-16.102-71.174L301.389,57.14L256,0l-45.389,57.14
	l-65.686-31.788l-16.102,71.174l-72.973-0.14l16.374,71.112L6.419,199.035L52.026,256L6.419,312.965l65.807,31.536l-16.374,71.112
	l72.973-0.141l16.102,71.176l65.686-31.788L256,512l45.389-57.14l65.687,31.788l16.102-71.176l72.975,0.141l-16.375-71.112
	l65.807-31.536L459.975,256z M256,420.5c-87.765,0-158.913-73.649-158.913-164.5c0-90.851,71.148-164.5,158.913-164.5
	c87.766,0,158.913,73.649,158.913,164.5C414.913,346.851,343.766,420.5,256,420.5z M128,256c0,70.692,57.308,128,128,128
	s128-57.308,128-128s-57.308-128-128-128S128,185.308,128,256z"/>
</svg>
