<?xml version="1.0" encoding="utf-8"?>
<!-- Generator: Adobe Illustrator 16.0.4, SVG Export Plug-In . SVG Version: 6.00 Build 0)  -->
<!DOCTYPE svg PUBLIC "-//W3C//DTD SVG 1.1//EN" "http://www.w3.org/Graphics/SVG/1.1/DTD/svg11.dtd">
<svg version="1.1" id="Layer_1" xmlns="http://www.w3.org/2000/svg" xmlns:xlink="http://www.w3.org/1999/xlink" x="0px" y="0px"
	 width="640px" height="512px" viewBox="0 0 640 512" enable-background="new 0 0 640 512" xml:space="preserve">
<path d="M246.278,352.277l73.445,73.444l-58.338,74.912c-10.691,13.981-29.621,15.237-42.066,2.793l-50.745-50.746
	c-12.445-12.443-11.188-31.374,2.792-42.064L246.278,352.277z M636.756,131.246L560,208.001l-96-96l76.756-76.755
	c-9.244-2.122-18.869-3.245-28.756-3.245c-70.692,0-128,57.308-128,128c0,25.498,7.458,49.253,20.309,69.208l-71.453,55.646
	L224,176.001l144-144H208l-71.029,71.029l-7.03-7.029H96v33.941l7.029,7.029L0,240.001l80,80l96-96l169.116,169.115L464,511.999
	l48-47.998L387.146,339.146l55.646-71.455c19.954,12.852,43.71,20.31,69.208,20.31c70.692,0,128-57.308,128-128
	C640,150.114,638.877,140.489,636.756,131.246z"/>
</svg>
