<?xml version="1.0" encoding="utf-8"?>
<!-- Generator: Adobe Illustrator 21.1.0, SVG Export Plug-In . SVG Version: 6.00 Build 0)  -->
<svg version="1.1" id="Layer_1" xmlns="http://www.w3.org/2000/svg" xmlns:xlink="http://www.w3.org/1999/xlink" x="0px" y="0px"
	 viewBox="0 0 512 512" style="enable-background:new 0 0 512 512;" xml:space="preserve">
<style type="text/css">
	.st0{fill:#64953F;}
</style>
<title>Artboard 1</title>
<path class="st0" d="M256,0C114.6,0,0,114.6,0,256s114.6,256,256,256s256-114.6,256-256S397.4,0,256,0z M256,464
	c-114.9,0-208-93.1-208-208S141.1,48,256,48s208,93.1,208,208S370.9,464,256,464z M224,128h64v64h-64V128z M320,384H192v-32h32v-96
	h-32v-32h96v128h32V384z"/>
</svg>
