<svg id="Layer_1" xmlns="http://www.w3.org/2000/svg" viewBox="0 0 64 64"><style>.st0{fill:#64953F;}</style><path class="st0" d="M32 0C14.328 0 0 14.328 0 32s14.328 32 32 32 32-14.328 32-32S49.672 0 32 0zm0 60c-3.936 0-7.68-.812-11.076-2.28l14.572-16.392c.324-.368.504-.84.504-1.328v-6c0-1.104-.896-2-2-2-7.06 0-14.512-7.34-14.584-7.416C19.04 24.208 18.532 24 18 24h-8c-1.104 0-2 .896-2 2v12c0 .756.428 1.452 1.104 1.788L16 43.236V54.98C8.748 49.92 4 41.516 4 32c0-4.296.968-8.364 2.696-12H14c.532 0 1.04-.212 1.416-.584l8-8c.376-.376.584-.884.584-1.416V5.16C26.536 4.404 29.22 4 32 4c4.4 0 8.564 1.016 12.268 2.824-.26.22-.512.448-.752.688C41.248 9.78 40 12.792 40 15.996s1.248 6.22 3.516 8.484c2.276 2.276 5.328 3.516 8.476 3.516.196 0 .396-.004.596-.016.864 3.236 2.42 11.668-.524 23.272-.028.108-.044.22-.052.328-5.084 5.192-12.168 8.416-20.008 8.416L32 60z"/></svg>