<svg id="Layer_1" xmlns="http://www.w3.org/2000/svg" viewBox="0 0 16 16"><style>.st0{fill:#64953F;}</style><path class="st0" d="M8 0C3.6 0 0 3.6 0 8s3.6 8 8 8 8-3.6 8-8-3.6-8-8-8zm0 15c-1 0-1.9-.2-2.8-.6l3.6-4.1c.2-.1.2-.2.2-.3V8.5c0-.3-.2-.5-.5-.5-1.8 0-3.6-1.8-3.6-1.9-.1 0-.3-.1-.4-.1h-2c-.3 0-.5.2-.5.5v3c0 .2.1.4.3.4l1.7.9v2.9C2.2 12.5 1 10.4 1 8c0-1.1.2-2.1.7-3h1.8c.1 0 .3-.1.4-.1l2-2c0-.1.1-.3.1-.4V1.3c.6-.2 1.3-.3 2-.3 1.1 0 2.1.3 3.1.7l-.2.2c-.6.5-.9 1.3-.9 2.1s.3 1.6.9 2.1c.5.6 1.3.9 2.1.9h.1c.2.8.6 2.9-.1 5.8v.1c-1.3 1.3-3 2.1-5 2.1z"/></svg>