<?xml version="1.0" encoding="utf-8"?>
<!-- Generator: Adobe Illustrator 21.1.0, SVG Export Plug-In . SVG Version: 6.00 Build 0)  -->
<svg version="1.1" id="Layer_1" xmlns="http://www.w3.org/2000/svg" xmlns:xlink="http://www.w3.org/1999/xlink" x="0px" y="0px"
	 viewBox="0 0 16 16" style="enable-background:new 0 0 16 16;" xml:space="preserve">
<style type="text/css">
	.st0{fill:#64953F;}
</style>
<path class="st0" d="M12.7,9.2L8.5,7.6C7.6,7.3,7.3,7,7.2,6.7C7,6.3,7,5.8,7,5V0.5C7,0.2,6.8,0,6.5,0h-6C0.2,0,0,0.2,0,0.5v9
	c0,1.5,0.9,2.8,2.3,3.3l8,3c0.4,0.1,0.8,0.2,1.2,0.2c1.5,0,2.8-0.9,3.3-2.3C15.5,11.9,14.5,9.9,12.7,9.2L12.7,9.2z M5,1h1v1H5V1z
	 M3,1h1v1H3V1z M1,1h1v1H1V1z M4.8,12.7C4.9,12.3,5,11.9,5,11.5C5,9.6,3.4,8,1.5,8C1.3,8,1.2,8,1,8V3h5v2c0,0.8,0,1.5,0.3,2.1
	c0.3,0.7,0.9,1.1,1.9,1.5l4.2,1.6c0.3,0.1,0.6,0.3,0.9,0.6C11.9,11.2,11,12.5,11,14c0,0.3,0,0.7,0.1,1c-0.2,0-0.3-0.1-0.5-0.1
	L4.8,12.7z"/>
</svg>
