<svg id="Layer_1" xmlns="http://www.w3.org/2000/svg" viewBox="0 0 64 64"><style>.st0{display:none;} .st1{display:inline;fill:#64953F;} .st2{fill:#64953F;}</style><g id="Arms" class="st0"><circle class="st1" cx="4.6" cy="2.5" r="2.5"/><circle class="st1" cx="12.2" cy="4.1" r="2.4"/><path class="st1" d="M6 5.5H2s-2 1-2 2v7.3s.3.8.8.8.8-.5.8-.8v-3.7s.2-2.4.2-2.5c0-.4.1-.6.2-.6h4.5v3s.5 1 1 1H10v-2H8.5S8 9.8 8 9.5v-2c0-1-1-2-2-2z"/><path class="st1" d="M14.5 7h-4S9 7.7 9 8.5v4.8s.4.7.8.7.8-.4.8-.8V8.5h4v4.7s.4.8.8.8.8-.4.8-.8V8.4S15.3 7 14.5 7z"/></g><g id="Bodies" class="st0"><path class="st1" d="M2 7.5h5V16H2zM10.5 7.5h4V16h-4z"/></g><g id="Heads"><circle class="st2" cx="18.4" cy="10" r="10"/><circle class="st2" cx="48.8" cy="16.4" r="9.6"/></g><path class="st2" d="M58 28H42s-6 2.8-6 6v6h-2c-.8 0-2-.8-2-2v-8c0-4-4-8-8-8H8s-8 4-8 8v29.2c0 1.2 1.2 3.2 3.2 3.2s3.2-1.2 3.2-3.2V44.4s.8-9.6.8-10c0-1.2.4-2.4.8-2.4v32h20V47.2c.8.4 1.2.8 2 .8h6v4.8c0 1.6 1 3.2 3 3.2s3-1.6 3-3.2V64h16V52.8c0 1.6 1 3.2 3 3.2s3-1.6 3-3.2V34s-2.8-6-6-6z" id="Bodies_w_x2F_Arms"/><path class="st2" d="M39.6 10.4v4.4c0 2 4 4.8 9.2 4.8s9.2-2.8 9.2-4.8v-4.4l-9.2 4.8-9.2-4.8zM48.8 0L34 7.6l14.8 7.6 12-6-.8 8h2V8.4l2-.8L48.8 0z" id="Hat"/></svg>