<?xml version="1.0" encoding="utf-8"?>
<!-- Generator: Adobe Illustrator 22.0.0, SVG Export Plug-In . SVG Version: 6.00 Build 0)  -->
<svg version="1.1" id="Layer_1" xmlns="http://www.w3.org/2000/svg" xmlns:xlink="http://www.w3.org/1999/xlink" x="0px" y="0px"
	 width="64px" height="64px" viewBox="0 0 64 64" style="enable-background:new 0 0 64 64;" xml:space="preserve">
<style type="text/css">
	.st0{display:none;}
	.st1{display:inline;fill:#64953F;}
	.st2{fill:#64953F;}
</style>
<g id="Arms" class="st0">
	<circle class="st1" cx="4.6" cy="2.5" r="2.5"/>
	<circle class="st1" cx="12.2" cy="4.1" r="2.4"/>
	<path class="st1" d="M6,5.5H2c0,0-2,1-2,2v7.3c0,0,0.3,0.8,0.8,0.8s0.8-0.5,0.8-0.8v-3.7c0,0,0.2-2.4,0.2-2.5C1.8,8.2,1.9,8,2,8
		h4.5v3c0,0,0.5,1,1,1H10v-2H8.5C8.5,10,8,9.8,8,9.5v-2C8,6.5,7,5.5,6,5.5z"/>
	<path class="st1" d="M14.5,7h-4C10.5,7,9,7.7,9,8.5v4.8c0,0,0.4,0.7,0.8,0.7s0.8-0.4,0.8-0.8V8.5h4v4.7c0,0,0.4,0.8,0.8,0.8
		s0.8-0.4,0.8-0.8V8.4C16.2,8.4,15.3,7,14.5,7z"/>
</g>
<g id="Bodies" class="st0">
	<path class="st1" d="M2,7.5h5V16H2V7.5z M10.5,7.5h4V16h-4V7.5z"/>
</g>
<g id="Heads">
	<circle class="st2" cx="18.4" cy="10" r="10"/>
	<circle class="st2" cx="48.8" cy="16.4" r="9.6"/>
</g>
<path id="Bodies_w_x2F_Arms" class="st2" d="M58,28c-4.00286,0-11.9914,0-16,0s-6,2.01622-6,6s0,6,0,6s-0.70413,0-2,0
	s-2-0.75484-2-2s0-8,0-8c0-4-4-8-8-8c0,0-11.96567,0-16,0s-8,4-8,8c0,0,0,28.5188,0,30.01064s0.98353,2.98747,2.99417,2.98747
	s3.01135-1.49519,3.01135-2.98747S6.4867,43.99841,6.4867,43.99841S7.2,34.8,7.2,34.4C7.2,33.2,7.6,32,8,32v32h20V46.4986
	c0.50408,0.50407,0.99077,0.5008,2,0.5008s6,0,6,0V52.8c0,1.6,1,3.2,3,3.2s3-1.6,3-3.2V64h16V52.8c0,1.6,1,3.2,3,3.2s3-1.6,3-3.2
	c0,0,0-14.81886,0-18.8S62.00286,28,58,28z"/>
<path id="Hat" class="st2" d="M39.6,10.4v4.4c0,2,4,4.8,9.2,4.8s9.2-2.8,9.2-4.8v-4.4l-9.2,4.8C48.8,15.2,39.6,10.4,39.6,10.4z
	 M48.8,0L34,7.6l14.8,7.6l12-6l-0.8,8h2V8.4l2-0.8L48.8,0z"/>
</svg>
