<?xml version="1.0" encoding="utf-8"?>
<!-- Generator: Adobe Illustrator 21.1.0, SVG Export Plug-In . SVG Version: 6.00 Build 0)  -->
<svg version="1.1" xmlns="http://www.w3.org/2000/svg" xmlns:xlink="http://www.w3.org/1999/xlink" x="0px" y="0px"
	 viewBox="0 0 16 16" style="enable-background:new 0 0 16 16;" xml:space="preserve">
<style type="text/css">
	.st0{fill-rule:evenodd;clip-rule:evenodd;fill:#64953F;}
</style>
<g id="Arms">
	<circle class="st0" cx="4.6" cy="2.5" r="2.5"/>
	<circle class="st0" cx="12.5" cy="3" r="2.5"/>
	<path class="st0" d="M6,5.5c-1,0-3,0-4,0s-2,1-2,2s0,6.5,0,7c0,0.5,0.5,1,1,1s1-0.5,1-1s0-7,0-7l5,0c0,0,0,3,0,3.5c0,0.5,0.5,1,1,1
		s1,0,1,0v-2c-0.5,0-1-0.5-1-1s0-1.1,0-1.5C8,6.5,7,5.5,6,5.5z"/>
	<path class="st0" d="M14.5,6c-0.8,0-3.2,0-4,0S9,6.7,9,7.5s0,5.4,0,5.8S9.4,14,9.8,14s0.8-0.4,0.8-0.8s0-5.7,0-5.7h4
		c0,0,0,5.4,0,5.7s0.4,0.8,0.8,0.8s0.8-0.4,0.8-0.8s0-5,0-5.8S15.3,6,14.5,6z"/>
</g>
<g id="Bodies">
	<rect x="2" y="7.5" class="st0" width="5" height="8.5"/>
	<rect x="10.5" y="7.5" class="st0" width="4" height="8.5"/>
</g>
</svg>
