<?xml version="1.0" encoding="utf-8"?>
<!-- Generator: Adobe Illustrator 21.1.0, SVG Export Plug-In . SVG Version: 6.00 Build 0)  -->
<svg version="1.1" id="Layer_1" xmlns="http://www.w3.org/2000/svg" xmlns:xlink="http://www.w3.org/1999/xlink" x="0px" y="0px"
	 viewBox="0 0 16 16" style="enable-background:new 0 0 16 16;" xml:space="preserve">
<style type="text/css">
	.st0{display:none;}
	.st1{display:inline;fill:#64953F;}
	.st2{fill:#64953F;}
</style>
<g id="Arms" class="st0">
	<circle class="st1" cx="4.6" cy="2.5" r="2.5"/>
	<circle class="st1" cx="12.2" cy="4.1" r="2.4"/>
	<path class="st1" d="M6,5.5c-1,0-3,0-4,0s-2,1-2,2s0,6.9,0,7.3s0.3,0.8,0.8,0.8s0.8-0.5,0.8-0.8c0-0.2,0-3.7,0-3.7s0.2-2.4,0.2-2.5
		C1.8,8.2,1.9,8,2,8c0.1,0,4.5,0,4.5,0s0,2.5,0,3s0.5,1,1,1s2.5,0,2.5,0v-2c0,0-1.3,0-1.5,0S8,9.8,8,9.5s0-1.6,0-2
		C8,6.5,7,5.5,6,5.5z"/>
	<path class="st1" d="M14.5,7c-0.8,0-3.2,0-4,0S9,7.7,9,8.5s0,4.4,0,4.8S9.4,14,9.8,14s0.8-0.4,0.8-0.8s0-4.7,0-4.7h4
		c0,0,0,4.4,0,4.7S15,14,15.4,14s0.8-0.4,0.8-0.8s0-4,0-4.8S15.3,7,14.5,7z"/>
</g>
<g id="Bodies" class="st0">
	<rect x="2" y="7.5" class="st1" width="5" height="8.5"/>
	<rect x="10.5" y="7.5" class="st1" width="4" height="8.5"/>
</g>
<g id="Heads">
	<circle class="st2" cx="4.6" cy="2.5" r="2.5"/>
	<circle class="st2" cx="12.2" cy="4.1" r="2.4"/>
</g>
<g id="Bodies_w_x2F_Arms">
	<path class="st2" d="M14.5,7c-0.8,0-3.2,0-4,0S9,7.7,9,8.5C9,8.8,9,9.3,9,10c-0.2,0-0.4,0-0.5,0C8.3,10,8,9.8,8,9.5s0-1.6,0-2
		c0-1-1-2-2-2s-3,0-4,0s-2,1-2,2s0,6.9,0,7.3c0,0.3,0.3,0.8,0.8,0.8s0.8-0.3,0.8-0.8s0-3.7,0-3.7s0.2-2.4,0.2-2.5C1.8,8.3,1.9,8,2,8
		v8h5v-4.2C7.2,11.9,7.3,12,7.5,12c0.3,0,0.9,0,1.5,0c0,0.6,0,1.1,0,1.2C9,13.6,9.3,14,9.8,14s0.8-0.4,0.8-0.8V16h4v-2.8
		c0,0.4,0.3,0.8,0.8,0.8s0.8-0.4,0.8-0.8s0-3.9,0-4.7S15.3,7,14.5,7z"/>
</g>
<g id="Hat">
	<path class="st2" d="M9.9,2.6v1.1c0,0.5,1,1.2,2.3,1.2s2.3-0.7,2.3-1.2V2.6l-2.3,1.2L9.9,2.6z M12.2,0L8.5,1.9l3.7,1.9l3-1.5
		l-0.2,2h0.5V2.1L16,1.9L12.2,0z"/>
</g>
</svg>
