<svg xmlns="http://www.w3.org/2000/svg" style="isolation:isolate" viewBox="0 0 16 16"><g id="Heads" fill="#64953F"><path d="M2.1 2.5C2.1 1.12 3.22 0 4.6 0s2.5 1.12 2.5 2.5S5.98 5 4.6 5 2.1 3.88 2.1 2.5zM9.8 4.1c0-1.325 1.075-2.4 2.4-2.4s2.4 1.075 2.4 2.4-1.075 2.4-2.4 2.4-2.4-1.075-2.4-2.4z"/></g><path d="M14.5 7h-4C9.7 7 9 7.695 9 8.5V10h-.5c-.2 0-.5-.2-.5-.5v-2c0-1-1-2-2-2H2c-1 0-2 1-2 2v7.3c0 .3.3.8.8.8s.8-.3.8-.8v-3.7s.2-2.4.2-2.5c0-.3.1-.6.2-.6v8h5v-4.2c.2.1.3.2.5.2H9v1.2c0 .4.25.8.75.8s.75-.4.75-.8V16h4v-2.8c0 .4.25.8.75.8s.75-.4.75-.8V8.5c0-.8-.7-1.5-1.5-1.5z" fill="#64953F" id="Bodies_w_x2F_Arms"/><path d="M9.9 2.6v1.1c0 .5 1 1.2 2.3 1.2 1.3 0 2.3-.7 2.3-1.2V2.6l-2.3 1.2-2.3-1.2zM12.2 0L8.5 1.9l3.7 1.9 3-1.5-.2 2h.5V2.1l.5-.2L12.2 0z" fill="#64953F" id="Hat"/></svg>