<?xml version="1.0" standalone="no"?><!-- Generator: Gravit.io --><svg xmlns="http://www.w3.org/2000/svg" xmlns:xlink="http://www.w3.org/1999/xlink" style="isolation:isolate" viewBox="0 0 16 16" width="16" height="16"><g id="Heads"><path d=" M 2.1 2.5 C 2.1 1.12 3.22 0 4.6 0 C 5.98 0 7.1 1.12 7.1 2.5 C 7.1 3.88 5.98 5 4.6 5 C 3.22 5 2.1 3.88 2.1 2.5 Z " fill="rgb(100,149,63)"/><path d=" M 9.8 4.1 C 9.8 2.775 10.875 1.7 12.2 1.7 C 13.525 1.7 14.6 2.775 14.6 4.1 C 14.6 5.425 13.525 6.5 12.2 6.5 C 10.875 6.5 9.8 5.425 9.8 4.1 Z " fill="rgb(100,149,63)"/></g><g id="Bodies_w_x2F_Arms"><path d=" M 14.5 7 C 13.7 7 11.3 7 10.5 7 C 9.7 7 9 7.695 9 8.5 C 9 9.305 9 9.3 9 10 C 8.8 10 8.6 10 8.5 10 C 8.3 10 8 9.8 8 9.5 C 8 9.2 8 7.9 8 7.5 C 8 6.5 7 5.5 6 5.5 C 5 5.5 3 5.5 2 5.5 C 1 5.5 0 6.5 0 7.5 C 0 8.5 0 14.4 0 14.8 C 0 15.1 0.3 15.6 0.8 15.6 C 1.3 15.6 1.6 15.3 1.6 14.8 C 1.6 14.3 1.6 11.1 1.6 11.1 C 1.6 11.1 1.8 8.7 1.8 8.6 C 1.8 8.3 1.9 8 2 8 L 2 16 L 7 16 L 7 11.8 C 7.2 11.9 7.3 12 7.5 12 C 7.8 12 8.4 12 9 12 C 9 12.6 9 12.8 9 13.2 C 9 13.6 9.25 14 9.75 14 C 10.25 14 10.5 13.6 10.5 13.2 Q 10.5 12.8 10.5 16 L 14.5 16 Q 14.5 12.8 14.5 13.2 C 14.5 13.6 14.75 14 15.25 14 C 15.75 14 16 13.6 16 13.2 C 16 12.8 16 9.3 16 8.5 C 16 7.7 15.3 7 14.5 7 Z " fill="rgb(100,149,63)"/></g><g id="Hat"><path d=" M 9.9 2.6 L 9.9 3.7 C 9.9 4.2 10.9 4.9 12.2 4.9 C 13.5 4.9 14.5 4.2 14.5 3.7 L 14.5 2.6 L 12.2 3.8 L 9.9 2.6 L 9.9 2.6 Z  M 12.2 0 L 8.5 1.9 L 12.2 3.8 L 15.2 2.3 L 15 4.3 L 15.5 4.3 L 15.5 2.1 L 16 1.9 L 12.2 0 L 12.2 0 Z " fill="rgb(100,149,63)"/></g></svg>