<?xml version="1.0" encoding="utf-8"?>
<!-- Generator: Adobe Illustrator 21.1.0, SVG Export Plug-In . SVG Version: 6.00 Build 0)  -->
<svg version="1.1" xmlns="http://www.w3.org/2000/svg" xmlns:xlink="http://www.w3.org/1999/xlink" x="0px" y="0px"
	 viewBox="0 0 16 16" style="enable-background:new 0 0 16 16;" xml:space="preserve">
<style type="text/css">
	.st0{fill-rule:evenodd;clip-rule:evenodd;fill:#64953F;}
	.st1{fill:#64953F;}
</style>
<g id="Arms">
	<circle class="st0" cx="4.6" cy="2.5" r="2.5"/>
	<circle class="st0" cx="12.2" cy="4.1" r="2.4"/>
	<path class="st0" d="M6,5.5c-1,0-3,0-4,0s-2,1-2,2s0,6.9,0,7.3s0.3,0.8,0.8,0.8s0.8-0.5,0.8-0.8c0-0.2,0-3.7,0-3.7s0.2-2.4,0.2-2.5
		C1.8,8.2,1.9,8,2,8s4.5,0,4.5,0s0,2.5,0,3s0.5,1,1,1S9,12,9,12v-2c0,0-0.3,0-0.5,0S8,9.8,8,9.5s0-1.6,0-2C8,6.5,7,5.5,6,5.5z"/>
	<path class="st0" d="M14.5,7c-0.8,0-3.2,0-4,0S9,7.7,9,8.5s0,4.4,0,4.8S9.4,14,9.8,14s0.8-0.4,0.8-0.8s0-4.7,0-4.7h4
		c0,0,0,4.4,0,4.7s0.4,0.8,0.8,0.8s0.8-0.4,0.8-0.8s0-4,0-4.8S15.3,7,14.5,7z"/>
</g>
<g id="Bodies">
	<rect x="2" y="7.5" class="st0" width="5" height="8.5"/>
	<rect x="10.5" y="7.5" class="st0" width="4" height="8.5"/>
</g>
<g id="Hat">
	<path class="st1" d="M9.9,2.6v1.1c0,0.5,1,1.2,2.3,1.2s2.3-0.7,2.3-1.2V2.6l-2.3,1.2L9.9,2.6z M12.2,0L8.5,1.9l3.7,1.9l3-1.5
		l-0.2,2h0.5V2.1L16,1.9L12.2,0z M12.2,1.8c-0.1,0-0.2-0.1-0.2-0.2s0.1-0.2,0.2-0.2s0.2,0.1,0.2,0.2S12.4,1.8,12.2,1.8z"/>
</g>
</svg>
