<?xml version="1.0" encoding="utf-8"?>
<!-- Generator: Adobe Illustrator 22.1.0, SVG Export Plug-In . SVG Version: 6.00 Build 0)  -->
<svg version="1.1" id="Layer_1" xmlns="http://www.w3.org/2000/svg" xmlns:xlink="http://www.w3.org/1999/xlink" x="0px" y="0px"
	 width="16px" height="16px" viewBox="0 0 16 16" style="enable-background:new 0 0 16 16;" xml:space="preserve">
<style type="text/css">
	.st0{fill:#286734;}
	.st1{display:none;}
	.st2{display:inline;}
</style>
<g id="Near_pin">
	<g id="Layer_1_1_">
		<path class="st0" d="M3.8,3.99998c-2.1,0-3.8,1.7-3.8,3.7c0,3.8,3.8,8.3,3.8,8.3s3.8-4.5,3.8-8.2
			C7.5,5.69998,5.8,3.99998,3.8,3.99998z M3.8,9.99998c-1.2,0-2.2-1-2.2-2.2s1-2.2,2.2-2.2s2.2,0.9,2.2,2.1S5,9.99998,3.8,9.99998z"
			/>
	</g>
</g>
<g id="Wandering_path" class="st1">
	<g id="Layer_2_1_" class="st2">
		<path d="M4.8,15.19998l-0.5,0.5c3.5,0,11.7-1.7,11.7-3.7s-7.5-1.7-7.5-4c0-1.7,2.5-2,2.5-2s-3,0-3,2c0,2.3,7,2.5,7,4
			C15,13.99998,7,15.19998,4.8,15.19998z"/>
	</g>
</g>
<g id="Layer_4">
	<path class="st0" d="M5,15.99998l1.5-2c2,0,8.5-2.5,8.5-5.5c0-2.5-4-2.5-4-2.5s5,0,5,3C16,12.49998,10,15.99998,5,15.99998z"/>
</g>
<g id="Far_pin">
	<path class="st0" d="M11-0.00002c-1,0-1.9,0.8-1.9,1.9c0,1.8,1.9,4.1,1.9,4.1s1.9-2.2,1.9-4.1
		C12.9,0.79998,12.1-0.00002,11-0.00002z M11,2.99998c-0.6,0-1.1-0.5-1.1-1.1s0.5-1.1,1.1-1.1s1.1,0.5,1.1,1.1
		S11.6,2.99998,11,2.99998z"/>
</g>
</svg>
