<?xml version="1.0" encoding="utf-8"?>
<!-- Generator: Adobe Illustrator 21.1.0, SVG Export Plug-In . SVG Version: 6.00 Build 0)  -->
<svg version="1.1" id="Layer_1" xmlns="http://www.w3.org/2000/svg" xmlns:xlink="http://www.w3.org/1999/xlink" x="0px" y="0px"
	 viewBox="0 0 16 16" style="enable-background:new 0 0 16 16;" xml:space="preserve">
<style type="text/css">
	.st0{fill:#64953F;}
</style>
<path class="st0" d="M13.9,2.6C12.4,1,10.3,0,8,0C3.6,0,0,3.6,0,8h1.5c0-3.6,2.9-6.5,6.5-6.5c1.9,0,3.6,0.8,4.8,2.2L10.5,6H16V0.5
	L13.9,2.6z"/>
<path class="st0" d="M14.5,8c0,3.6-2.9,6.5-6.5,6.5c-1.9,0-3.6-0.8-4.8-2.2L5.5,10H0v5.5l2.1-2.1C3.6,15,5.7,16,8,16
	c4.4,0,8-3.6,8-8H14.5z"/>
</svg>
