<svg xmlns="http://www.w3.org/2000/svg" viewBox="0 0 16 16"><style>.st0{display:none;} .st1{display:inline;} .st2{fill-rule:evenodd;clip-rule:evenodd;fill:#A4A4A4;} .st3{fill-rule:evenodd;clip-rule:evenodd;fill:#515151;} .st4{fill-rule:evenodd;clip-rule:evenodd;fill:#F8F8F8;} .st5{fill-rule:evenodd;clip-rule:evenodd;fill:#8E8E8E;} .st6{fill-rule:evenodd;clip-rule:evenodd;fill:#1B1B1B;} .st7{fill-rule:evenodd;clip-rule:evenodd;fill:#171717;} .st8{fill-rule:evenodd;clip-rule:evenodd;fill:#A7A7A7;} .st9{display:inline;fill-rule:evenodd;clip-rule:evenodd;fill:#BCBCBC;} .st10{display:inline;fill-rule:evenodd;clip-rule:evenodd;fill:#64953F;} .st11{fill:#64953F;} .st12{fill-rule:evenodd;clip-rule:evenodd;fill:#64953F;}</style><g id="Layer_1" class="st0"><g class="st1"><path class="st2" d="M-67.9-83c-4.1-6.2-1.1-11.2 2.6-16 2.2-2.8 4.9-4.9 8.3-6.1l-.1.1c.4-.3.8-.6 1.3-.7 2.6-.1 4.9.6 6.5 2.8 1.4 2 3.3 3.2 5.6 3.8 1.7.4 3 1.4 3.3 3.2-.8 3.3-3.4 3.4-6.1 3.3-3.7 0-7 .9-10.5 2.1-3.7 1.2-6.1 3.1-7.6 6.5-.4.9-.9 3.1-1.7 3.2-.2 0-.8-.9-1.1-1-.5-.3-.5-1.2-.5-1.2z"/><path class="st3" d="M76.5 108.5C70.7 95.7 66.1 82.4 62 69c-.7-10.1-2.6-20-6.9-29.2-.2-6.3-26.7-63.5-37-76.1C15.2-39.7 4.4-53.1-3-57c-.5-3.2-8.2-33.8-12.8-41.2-2.5-5.1-4.9-9.3-9.1-13.1-1.8-1.6-7.1-6-18.4-4.3-5.9.9-12.7 5.3-13.8 10.6.4 0 .8.1 1.2.1 2.6.2 4.7-1.3 6.8-2.5 8.8-5.2 16.5-4 23.5 3.4 1.6 1.7 3.2 3.4 4.6 5.2.9 1.2 1.9 2.4 3.5 2.5-.7 1-.5 2.2 0 3.4 3 6.7 4.1 14 5.9 21.1.7 2.6.6 5.8 3.7 7.2.3 0 .6 0 .8-.1 0 .1-.1.1-.1.2-1.3 2-1.7 3.7-1.2 5.2-3.5-2.3-6.9-1.9-11.3 1.3-2.7 2-5.7 2.8-6 6.9-1.6-2.7-2.2-5.4-3.2-8-1.3-3.3-3.8-4-6.7-1.8-1.9 1.5-3 3.6-3.9 5.7-1.5 3.7-3.1 7.3-5 11.5-.2-5.6.2-10.6-.3-15.5-.2-2.4-1.1-4.6-3.6-5.5-2.7-.9-4.3.8-5.9 2.6-.9 1-1.5 2.2-2.4 3.1 1.9-2.8 2.9-6.1 3.7-9.5.1-.4-.2-.8-.6-1.1 1.8-.4 2.3-2 3-3.5 2.3-4.8 1.8-10 2.2-15.2 4.2-.5 7.8-1.3 10.4-4.2 1.2-1.4 1.6-3.1.1-4.4-1.3-1.2-2.4-.5-3.1 1-2.7 2.7-6.1 2.2-9.4 2.3-6.8.2-12.5 2.2-15.6 8.9-.6 1.3-.4 3.8-.4 3.8s-3-4.4-3.2-5.2c.2 2 2 7.4 4.7 6.9 0-3.7.8-5.5 2.6-7.4 1.9-2 4.2-2.2 6.4-1.7 2.4.5 2 3.4 2.1 5.2.4 7.5-10.8 30.7-11.5 33.7-.9 3.9-1.9 7.9-2.1 11.8-1.3 30.1 14.6 56.1 26.6 75.8 4.9 8.1 9.4 14.8 12.3 18 2.7 2.9 5.7 4.7 2.7 9-.6.9.2 1.9.7 2.7 3.5.7 5.1 4.4 8.5 5.2 1.5 0 2.9.4 4.2 1.1.9.5 1.5 1.3 2.1 2.2 1.2 1.8 3.1 3 4.5 4.6 1.7 2 3.7 3.2 6.4 1.9C2 81.6 3.3 80.3 4.7 79c.9-2 5.1-9.3 8-6.9 4.5 8.1 7.5 16.8 10.9 25.4 1.3 3.3 6.7 10.9 6.7 10.9l1.2-8.9L44.9 119s-.2-7.9.3-6.9c.8 1.8 7.4 11.7 7.4 11.7s-.1-8.4-.4-10.7c.4.7 10.8 16 12.8 16.1-1.6-2.1.9-11.4.9-11.4s2.1 2.6 3.4 3.6c4 3 14.2 12 16.3 11.2.1-2.1-6.4-18-9.1-24.1z"/><path class="st4" d="M-4.4-56.2c-.1 1-2.2 6.9-2.2 6.9s-3.6-9.4-7.5-10.9c-1.4 2.7-.2 12-.2 12l-7.3-7.7s.1 11.8-3.6 16.3c-4.2-5.8-6.9-21.5-6.9-21.5s-8.5 21.5-15.7 29.6c-1.6-10.3 3.2-23-.4-31.6-3.8 3.7-9.6 7.8-14 15.3-.3-2.1 6.5-16.9 8.2-22.2 1.2-4.4 3-8.7 3-13.5 0-2.7.5-5.3-3.3-7.2 6.4-.9 12.8.9 16.3-5.3-1.2-1.3-2-.1-2.8 0-4.4-.7-8.9-1-11-6.1-.5-1.3-2.6-1.9-4-2.8 3.3-3.4 6.9-6.1 11.6-7.2 18.1-4.4 26 13.3 27.2 15.1 5.3 9.3 10.6 38.2 12.6 40.8z"/><path class="st5" d="M41.9 111.9L29.5 91.1l-1.1 9.7S15.6 72 16.4 71.1c4.7 3.5 12.3 10.8 16.9 14.5 1.2 1 8.6 26.3 8.6 26.3z"/><path class="st6" d="M-54.3-99.4c-.2 1.1-.8 1.8-1.9 2-1.2.2-1.8-.5-1.9-1.6-.1-1.1.5-1.9 1.7-1.9 1.2-.1 1.9.3 2.1 1.5z"/><path class="st7" d="M-30.9-102.3c-2.4.7-1.8-3.9-5.4-3 2.3 5.3-6.4 5.1-3.8-.2-2.8-1.1-3.9 3.8-5 2.3 1.3-3.1 2.5-4 6.1-4.2 3.9-.2 6.5 1.2 8.1 5.1z"/><path class="st8" d="M-16.1 71.1c-2.6-2-4.5-6-8.8-3.2 1.8 4.4-1.4 5.2-4.2 4.9-7.5-.9-12.9 1.2-16 1.7-.2.1-.4.2-.5.3-.1.1-.2.1-.3.2-.4.5-.8 1.1-1.2 1.7.1-.1.3-.2.4-.3.4-.2.8-.3 1.3-.3.3 0 .5.3.8.4.2.1 10.9-3.1 11.6 1.1-2.1.3-12.1 3.9-12.1 4-2.4 1.2-3.1 3.1-3.3 5.3.1 0 .1 0 .2-.1.4-.7 1-1.4 1.8-1.8 0 .4.6.6 1.2.7 3.2-.5 7.7-5.7 14.4-4.9-4.4 2.1-9.3 5.9-10.7 7.4l-.1.1c-.8 1.4-1.3 3-1 4.6h.1c.5-1 1.3-1.9 2.3-2.5 1.9.9 3.3-1.2 4.1-1.8 4.1-4 10-7.3 15.7-7.8 6.8-.7 7-.6 7.9-7.4-.8-1.8-2.3-1.1-3.6-2.3z"/><path class="st8" d="M4.5 96.9c-.2-.5-.4-1-.8-1.4-.6-.8-1.2-1.5-1.7-2.3V93c-1.6-2.5-4.8-4-4.6-7 .7-2.1 2.9-1.6 3.5-3.1-1.9 0-3.1-1.3-3.9-2.7-1.5-2.4-5.1-3.4-7.6-4.6-2.1 1.2-.2 2.8-.6 4.7-.6 2.7-1.9 4.1-4.9 3.5-6.8-1.2-17.9 6.8-18 6.8-.2.4-.3.8-.4 1.1-.5.7-.9 1.8-.5 2.5.3.5.8.8 1.2 1.2 0-.7 0-1.3.3-2h.1c1.7.3 5.1-4.4 8.9-4.9-.1 0-.3.2-.4.3-.1.1-.3.2-.4.3-.3.2-.5.4-.8.7-.5.5-.9.9-1.3 1.4-.9 1-1.7 2.1-2.6 3-.3.3-1.6 2.3-1.9 3-.4.8-.7 1.7-1 2.6-.1.2-.1.4-.2.6-.3.8-.5 1.9-.6 2.7v.7c.1.6.6 1.8.7 1.8-.3-1.1.1-2.2.9-3 .3.3.6.5.9.6.3.1.8-.1 1.1-.2.2-.1.4-.3.4-.6.1-.4.2-.9.4-1.3.3-.8.7-1.6 1.1-2.3.8-1.5 1.9-2.9 3.2-4 .8-.7 1.7-1.3 2.6-1.9.4 3.8-1.8 6.9-1.3 10.3-.8 1.9-.3 3.9-.2 5.9-.1-1.5.7-2.7 1.6-3.6.5.1 1.1-.4 1.5-1.4.8-2 1.4-4.1 2.3-6 2.8-6.2 8.3-7.8 13.8-3.9.8.5 2.7 1.8 4.4 1.8 0 0 1.6.1 2.4.3 1.1.4 1.8 1.1 2.3 1.9.1-.1.2-.1.3-.2-.2-.4-.2-.8-.2-1.1z"/></g><path class="st9" d="M36.4 77.1l.6-10.7c2 1.8 14.3 22.3 16.1 22.5 3.6-5.1 5.6-29.9 2.4-36.4-.6 1.6-.2 35.5-3.6 33.2-3.7-5.3-13.5-20.7-16.2-26.6-.3 3.8-1.6 7.3-1.7 10.9-.3 0-14.9-22.9-16.7-24.5-.7 2.4 9.9 18.9 9.9 18.9C13.8 48.3 2.6 30.8-8.3 13c-8-13-26.7-53.1 2.5-54.3 1.5-.1 3.5-.2 3.8-2.4-9.5-2.9-20.9 3.4-21.9 12.9-1.1 10.4 1.2 20.1 5.4 29.5 14.7 33.8 54.9 78.4 54.9 78.4z"/></g><path class="st0 st10" d="M16 16c-.8-1.5-1.5-2.7-2-3.4-.4-.5-2.2-2.7-3.4-3.3-.1-.5-1.3-5.4-2-6.5C8.2 2 7.8 1.4 7.1.7 6.9.5 6-.2 4.2.1 3.3.2 2.2.9 2 1.7h.2c.5-.5 1.1-1 1.9-1.1C7-.1 8.2 2.7 8.4 3 9 4 9.6 6.5 10 8.1c.2.7.3 1.2.4 1.4 0 .2-.4 1.1-.4 1.1S9.6 9.2 9 9c-.2.4 0 2 0 2L7.5 9.5s.1 1.8-.5 2.5c-.7-.9-1-3.5-1-3.5S4.6 11.7 3.5 13c-.3-1.6.6-3.1 0-4.5-.6.6-1.3.8-2 2-.1-.3.7-2.4 1-3.2.2-.7.5-1.4.5-2.1 0-.5.1-.9-.5-1.2 1-.1 2 .1 2.6-.8-.2-.2-.3 0-.5 0-.4.4-1 .3-1.5.4C2 3.6 1.1 3.9.6 5c-.1.2 0 .6 0 .6s-.5-.7-.5-.9c0 .3.3 1.2.8 1.1 0-.6.1-.9.4-1.2.3-.3.7-.4 1-.3.4.1.3.5.3.8C2.7 6.3.9 10 .8 10.4c-.1.6-.3 1.2-.3 1.9-.1 1.2.1 2.4.3 3.6L16 16z" id="Layer_2"/><path class="st11" d="M.5 16c0-.2-.5-4 0-5.6.2-.5.5-1.2.8-2C1.8 7.1 2.5 5.5 2.5 5c0-.7-.7-1.1-.7-1.1-.3-.1-.4-.4-.2-.6.1-.3.4-.4.6-.3.1 0 1.3.7 1.3 1.9 0 .7-.5 1.9-1.3 3.8-.3.7-.6 1.4-.8 1.9-.3 1-.2 3.5 0 4.8l.6.6H.5z" id="Body"/><path class="st12" d="M7.3 12.3c1.1-1.3 3.6-1.1 3.7-1.1.1 0 .2.1.2.3s-.1.2-.3.2c0 0-2.4-.2-3.3.9-.9 1.1 0 3.2 0 3.2v.1H16s-1-2.5-2-4-3.5-2.5-3.5-2.5l-.5 1L9 9v2L7.5 9.5 7 12 6 8.5 3.5 13V8.5L1 11v5h6.2c-.2-.5-.9-2.4.1-3.7z" id="Wing"/><g id="Eye"><path class="st11" d="M6 2.2c-.1 0-.1 0-.2-.1-.1 0-.5-.3-.8-.3-.3 0-.7.3-.8.4-.1.1-.3.1-.4 0-.1-.1-.1-.3 0-.4.1 0 .6-.6 1.2-.6s1.1.5 1.2.6c.1.1.1.3 0 .4H6z"/><circle class="st12" cx="5" cy="2" r=".5"/></g><path class="st12" d="M4 2.7C3.5 2.5 3 2 3 2l-1-.3S.9 2.4.5 2.9C.1 3.6 0 4.1 0 4.5 0 4.9 1 6 1 6s-.1-.7 0-1 .6-.7 1-1c.3-.2 1.2.2 2 0 .6-.2 1-1 1-1s-.5 0-1-.3zM2.2 3c-.1 0-.2-.1-.2-.3 0-.1.1-.2.2-.2s.2.1.2.2c.1.2 0 .3-.2.3z" id="Nostril"/><path class="st11" d="M10.5 10c-.2 0-.4-.2-.5-.4C9.5 7.2 7.5 1 5 1 2.8 1 2.5 2.1 2.5 2.1c-.1.3-.4.4-.6.4-.3-.1-.5-.3-.4-.6C1.5 1.8 1.9 0 5 0c3.8 0 5.8 8.4 6 9.4.1.3-.1.5-.4.6h-.1z" id="Head"/></svg>