<?xml version="1.0" encoding="utf-8"?>
<!-- Generator: Adobe Illustrator 21.1.0, SVG Export Plug-In . SVG Version: 6.00 Build 0)  -->
<svg version="1.1" xmlns="http://www.w3.org/2000/svg" xmlns:xlink="http://www.w3.org/1999/xlink" x="0px" y="0px"
	 viewBox="0 0 16 16" style="enable-background:new 0 0 16 16;" xml:space="preserve">
<style type="text/css">
	.st0{display:none;}
	.st1{display:inline;}
	.st2{fill-rule:evenodd;clip-rule:evenodd;fill:#A4A4A4;}
	.st3{fill-rule:evenodd;clip-rule:evenodd;fill:#515151;}
	.st4{fill-rule:evenodd;clip-rule:evenodd;fill:#F8F8F8;}
	.st5{fill-rule:evenodd;clip-rule:evenodd;fill:#8E8E8E;}
	.st6{fill-rule:evenodd;clip-rule:evenodd;fill:#1B1B1B;}
	.st7{fill-rule:evenodd;clip-rule:evenodd;fill:#171717;}
	.st8{fill-rule:evenodd;clip-rule:evenodd;fill:#A7A7A7;}
	.st9{display:inline;fill-rule:evenodd;clip-rule:evenodd;fill:#BCBCBC;}
	.st10{display:inline;fill-rule:evenodd;clip-rule:evenodd;fill:#64953F;}
	.st11{fill:#64953F;}
	.st12{fill-rule:evenodd;clip-rule:evenodd;fill:#64953F;}
</style>
<g id="Layer_1" class="st0">
	<g class="st1">
		<path class="st2" d="M-67.9-83c-4.1-6.2-1.1-11.2,2.6-16c2.2-2.8,4.9-4.9,8.3-6.1l-0.1,0.1c0.4-0.3,0.8-0.6,1.3-0.7
			c2.6-0.1,4.9,0.6,6.5,2.8c1.4,2,3.3,3.2,5.6,3.8c1.7,0.4,3,1.4,3.3,3.2c-0.8,3.3-3.4,3.4-6.1,3.3c-3.7,0-7,0.9-10.5,2.1
			c-3.7,1.2-6.1,3.1-7.6,6.5c-0.4,0.9-0.9,3.1-1.7,3.2c-0.2,0-0.8-0.9-1.1-1C-67.9-82.1-67.9-83-67.9-83z"/>
		<path class="st3" d="M76.5,108.5C70.7,95.7,66.1,82.4,62,69c-0.7-10.1-2.6-20-6.9-29.2c-0.2-6.3-26.7-63.5-37-76.1
			C15.2-39.7,4.4-53.1-3-57c-0.5-3.2-8.2-33.8-12.8-41.2c-2.5-5.1-4.9-9.3-9.1-13.1c-1.8-1.6-7.1-6-18.4-4.3
			c-5.9,0.9-12.7,5.3-13.8,10.6c0.4,0,0.8,0.1,1.2,0.1c2.6,0.2,4.7-1.3,6.8-2.5c8.8-5.2,16.5-4,23.5,3.4c1.6,1.7,3.2,3.4,4.6,5.2
			c0.9,1.2,1.9,2.4,3.5,2.5c-0.7,1-0.5,2.2,0,3.4c3,6.7,4.1,14,5.9,21.1c0.7,2.6,0.6,5.8,3.7,7.2c0.3,0,0.6,0,0.8-0.1
			c0,0.1-0.1,0.1-0.1,0.2c-1.3,2-1.7,3.7-1.2,5.2c-3.5-2.3-6.9-1.9-11.3,1.3c-2.7,2-5.7,2.8-6,6.9c-1.6-2.7-2.2-5.4-3.2-8
			c-1.3-3.3-3.8-4-6.7-1.8c-1.9,1.5-3,3.6-3.9,5.7c-1.5,3.7-3.1,7.3-5,11.5c-0.2-5.6,0.2-10.6-0.3-15.5c-0.2-2.4-1.1-4.6-3.6-5.5
			c-2.7-0.9-4.3,0.8-5.9,2.6c-0.9,1-1.5,2.2-2.4,3.1c1.9-2.8,2.9-6.1,3.7-9.5c0.1-0.4-0.2-0.8-0.6-1.1c1.8-0.4,2.3-2,3-3.5
			c2.3-4.8,1.8-10,2.2-15.2c4.2-0.5,7.8-1.3,10.4-4.2c1.2-1.4,1.6-3.1,0.1-4.4c-1.3-1.2-2.4-0.5-3.1,1c-2.7,2.7-6.1,2.2-9.4,2.3
			c-6.8,0.2-12.5,2.2-15.6,8.9c-0.6,1.3-0.4,3.8-0.4,3.8s-3-4.4-3.2-5.2c0.2,2,2,7.4,4.7,6.9c0-3.7,0.8-5.5,2.6-7.4
			c1.9-2,4.2-2.2,6.4-1.7c2.4,0.5,2,3.4,2.1,5.2c0.4,7.5-10.8,30.7-11.5,33.7c-0.9,3.9-1.9,7.9-2.1,11.8
			c-1.3,30.1,14.6,56.1,26.6,75.8c4.9,8.1,9.4,14.8,12.3,18c2.7,2.9,5.7,4.7,2.7,9c-0.6,0.9,0.2,1.9,0.7,2.7
			c3.5,0.7,5.1,4.4,8.5,5.2c1.5,0,2.9,0.4,4.2,1.1c0.9,0.5,1.5,1.3,2.1,2.2c1.2,1.8,3.1,3,4.5,4.6c1.7,2,3.7,3.2,6.4,1.9
			c1.4-1.3,2.7-2.6,4.1-3.9c0.9-2,5.1-9.3,8-6.9c4.5,8.1,7.5,16.8,10.9,25.4c1.3,3.3,6.7,10.9,6.7,10.9l1.2-8.9L44.9,119
			c0,0-0.2-7.9,0.3-6.9c0.8,1.8,7.4,11.7,7.4,11.7s-0.1-8.4-0.4-10.7c0.4,0.7,10.8,16,12.8,16.1c-1.6-2.1,0.9-11.4,0.9-11.4
			s2.1,2.6,3.4,3.6c4,3,14.2,12,16.3,11.2C85.7,130.5,79.2,114.6,76.5,108.5z"/>
		<path class="st4" d="M-4.4-56.2c-0.1,1-2.2,6.9-2.2,6.9s-3.6-9.4-7.5-10.9c-1.4,2.7-0.2,12-0.2,12l-7.3-7.7c0,0,0.1,11.8-3.6,16.3
			c-4.2-5.8-6.9-21.5-6.9-21.5s-8.5,21.5-15.7,29.6c-1.6-10.3,3.2-23-0.4-31.6c-3.8,3.7-9.6,7.8-14,15.3c-0.3-2.1,6.5-16.9,8.2-22.2
			c1.2-4.4,3-8.7,3-13.5c0-2.7,0.5-5.3-3.3-7.2c6.4-0.9,12.8,0.9,16.3-5.3c-1.2-1.3-2-0.1-2.8,0c-4.4-0.7-8.9-1-11-6.1
			c-0.5-1.3-2.6-1.9-4-2.8c3.3-3.4,6.9-6.1,11.6-7.2C-26.1-116.5-18.2-98.8-17-97C-11.7-87.7-6.4-58.8-4.4-56.2z"/>
		<path class="st5" d="M41.9,111.9L29.5,91.1l-1.1,9.7c0,0-12.8-28.8-12-29.7c4.7,3.5,12.3,10.8,16.9,14.5
			C34.5,86.6,41.9,111.9,41.9,111.9z"/>
		<path class="st6" d="M-54.3-99.4c-0.2,1.1-0.8,1.8-1.9,2c-1.2,0.2-1.8-0.5-1.9-1.6c-0.1-1.1,0.5-1.9,1.7-1.9
			C-55.2-101-54.5-100.6-54.3-99.4z"/>
		<path class="st7" d="M-30.9-102.3c-2.4,0.7-1.8-3.9-5.4-3c2.3,5.3-6.4,5.1-3.8-0.2c-2.8-1.1-3.9,3.8-5,2.3c1.3-3.1,2.5-4,6.1-4.2
			C-35.1-107.6-32.5-106.2-30.9-102.3z"/>
		<g>
			<path class="st8" d="M-16.1,71.1c-2.6-2-4.5-6-8.8-3.2c1.8,4.4-1.4,5.2-4.2,4.9c-7.5-0.9-12.9,1.2-16,1.7
				c-0.2,0.1-0.4,0.2-0.5,0.3c-0.1,0.1-0.2,0.1-0.3,0.2c-0.4,0.5-0.8,1.1-1.2,1.7c0.1-0.1,0.3-0.2,0.4-0.3c0.4-0.2,0.8-0.3,1.3-0.3
				c0.3,0,0.5,0.3,0.8,0.4c0.2,0.1,10.9-3.1,11.6,1.1c-2.1,0.3-12.1,3.9-12.1,4c-2.4,1.2-3.1,3.1-3.3,5.3c0.1,0,0.1,0,0.2-0.1
				c0.4-0.7,1-1.4,1.8-1.8c0,0.4,0.6,0.6,1.2,0.7c3.2-0.5,7.7-5.7,14.4-4.9c-4.4,2.1-9.3,5.9-10.7,7.4c0,0,0,0,0,0
				c0,0-0.1,0.1-0.1,0.1c-0.8,1.4-1.3,3-1,4.6c0,0,0,0,0.1,0c0.5-1,1.3-1.9,2.3-2.5c1.9,0.9,3.3-1.2,4.1-1.8c4.1-4,10-7.3,15.7-7.8
				c6.8-0.7,7-0.6,7.9-7.4C-13.3,71.6-14.8,72.3-16.1,71.1z"/>
			<path class="st8" d="M4.5,96.9c-0.2-0.5-0.4-1-0.8-1.4C3.1,94.7,2.5,94,2,93.2C2,93.1,2,93,2,93c-1.6-2.5-4.8-4-4.6-7
				c0.7-2.1,2.9-1.6,3.5-3.1c-1.9,0-3.1-1.3-3.9-2.7c-1.5-2.4-5.1-3.4-7.6-4.6c-2.1,1.2-0.2,2.8-0.6,4.7c-0.6,2.7-1.9,4.1-4.9,3.5
				c-6.8-1.2-17.9,6.8-18,6.8c-0.2,0.4-0.3,0.8-0.4,1.1c-0.5,0.7-0.9,1.8-0.5,2.5c0.3,0.5,0.8,0.8,1.2,1.2c0-0.7,0-1.3,0.3-2
				c0,0,0.1,0,0.1,0c1.7,0.3,5.1-4.4,8.9-4.9c-0.1,0-0.3,0.2-0.4,0.3c-0.1,0.1-0.3,0.2-0.4,0.3c-0.3,0.2-0.5,0.4-0.8,0.7
				c-0.5,0.5-0.9,0.9-1.3,1.4c-0.9,1-1.7,2.1-2.6,3c-0.3,0.3-1.6,2.3-1.9,3c-0.4,0.8-0.7,1.7-1,2.6c-0.1,0.2-0.1,0.4-0.2,0.6
				c-0.3,0.8-0.5,1.9-0.6,2.7c0,0.2,0,0.4,0,0.7c0.1,0.6,0.6,1.8,0.7,1.8c-0.3-1.1,0.1-2.2,0.9-3c0.3,0.3,0.6,0.5,0.9,0.6
				c0.3,0.1,0.8-0.1,1.1-0.2c0.2-0.1,0.4-0.3,0.4-0.6c0.1-0.4,0.2-0.9,0.4-1.3c0.3-0.8,0.7-1.6,1.1-2.3c0.8-1.5,1.9-2.9,3.2-4
				c0.8-0.7,1.7-1.3,2.6-1.9c0.4,3.8-1.8,6.9-1.3,10.3c-0.8,1.9-0.3,3.9-0.2,5.9c-0.1-1.5,0.7-2.7,1.6-3.6c0.5,0.1,1.1-0.4,1.5-1.4
				c0.8-2,1.4-4.1,2.3-6c2.8-6.2,8.3-7.8,13.8-3.9c0.8,0.5,2.7,1.8,4.4,1.8c0,0,1.6,0.1,2.4,0.3c1.1,0.4,1.8,1.1,2.3,1.9
				c0.1-0.1,0.2-0.1,0.3-0.2C4.5,97.6,4.5,97.2,4.5,96.9z"/>
		</g>
	</g>
	<path class="st9" d="M36.4,77.1l0.6-10.7c2,1.8,14.3,22.3,16.1,22.5c3.6-5.1,5.6-29.9,2.4-36.4c-0.6,1.6-0.2,35.5-3.6,33.2
		C48.2,80.4,38.4,65,35.7,59.1c-0.3,3.8-1.6,7.3-1.7,10.9c-0.3,0-14.9-22.9-16.7-24.5c-0.7,2.4,9.9,18.9,9.9,18.9
		C13.8,48.3,2.6,30.8-8.3,13c-8-13-26.7-53.1,2.5-54.3c1.5-0.1,3.5-0.2,3.8-2.4c-9.5-2.9-20.9,3.4-21.9,12.9
		c-1.1,10.4,1.2,20.1,5.4,29.5C-3.8,32.5,36.4,77.1,36.4,77.1z"/>
</g>
<g id="Layer_2" class="st0">
	<path class="st10" d="M16,16c-0.8-1.5-1.5-2.7-2-3.4c-0.4-0.5-2.2-2.7-3.4-3.3c-0.1-0.5-1.3-5.4-2-6.5C8.2,2,7.8,1.4,7.1,0.7
		C6.9,0.5,6-0.2,4.2,0.1C3.3,0.2,2.2,0.9,2,1.7c0.1,0,0.1,0,0.2,0c0.5-0.5,1.1-1,1.9-1.1C7-0.1,8.2,2.7,8.4,3C9,4,9.6,6.5,10,8.1
		c0,0,0,0,0,0c0,0,0,0,0,0c0.2,0.7,0.3,1.2,0.4,1.4c0,0.2-0.4,1.1-0.4,1.1S9.6,9.2,9,9c-0.2,0.4,0,2,0,2L7.5,9.5
		c0,0,0.1,1.8-0.5,2.5c-0.7-0.9-1-3.5-1-3.5S4.6,11.7,3.5,13c-0.3-1.6,0.6-3.1,0-4.5c-0.6,0.6-1.3,0.8-2,2c-0.1-0.3,0.7-2.4,1-3.2
		C2.7,6.6,3,5.9,3,5.2C3,4.7,3.1,4.3,2.5,4c1-0.1,2,0.1,2.6-0.8c-0.2-0.2-0.3,0-0.5,0c-0.4,0.4-1,0.3-1.5,0.4C2,3.6,1.1,3.9,0.6,5
		C0.5,5.2,0.6,5.6,0.6,5.6S0.1,4.9,0.1,4.7c0,0.3,0.3,1.2,0.8,1.1c0-0.6,0.1-0.9,0.4-1.2c0.3-0.3,0.7-0.4,1-0.3
		c0.4,0.1,0.3,0.5,0.3,0.8c0.1,1.2-1.7,4.9-1.8,5.3c-0.1,0.6-0.3,1.2-0.3,1.9c-0.1,1.2,0.1,2.4,0.3,3.6L16,16z"/>
</g>
<g id="Body">
	<path class="st11" d="M0.5,16c0-0.2-0.5-4,0-5.6c0.2-0.5,0.5-1.2,0.8-2C1.8,7.1,2.5,5.5,2.5,5c0-0.7-0.7-1.1-0.7-1.1
		C1.5,3.8,1.4,3.5,1.6,3.3C1.7,3,2,2.9,2.2,3c0.1,0,1.3,0.7,1.3,1.9c0,0.7-0.5,1.9-1.3,3.8c-0.3,0.7-0.6,1.4-0.8,1.9
		c-0.3,1-0.2,3.5,0,4.8L2,16H0.5z"/>
</g>
<g id="Wing">
	<path class="st12" d="M7.3,12.3c1.1-1.3,3.6-1.1,3.7-1.1c0.1,0,0.2,0.1,0.2,0.3s-0.1,0.2-0.3,0.2c0,0-2.4-0.2-3.3,0.9
		c-0.9,1.1,0,3.2,0,3.2c0,0,0,0.1,0,0.1c0,0,0,0,0,0H16c0,0-1-2.5-2-4s-3.5-2.5-3.5-2.5l-0.5,1L9,9v2L7.5,9.5L7,12L6,8.5L3.5,13
		l0-4.5L1,11v5h6.2C7,15.5,6.3,13.6,7.3,12.3z"/>
</g>
<g id="Eye">
	<path class="st11" d="M6,2.2c-0.1,0-0.1,0-0.2-0.1C5.7,2.1,5.3,1.8,5,1.8c-0.3,0-0.7,0.3-0.8,0.4c-0.1,0.1-0.3,0.1-0.4,0
		c-0.1-0.1-0.1-0.3,0-0.4C3.9,1.8,4.4,1.2,5,1.2c0.6,0,1.1,0.5,1.2,0.6c0.1,0.1,0.1,0.3,0,0.4C6.1,2.2,6.1,2.2,6,2.2z"/>
	<circle class="st12" cx="5" cy="2" r="0.5"/>
</g>
<g id="Nostril">
	<path class="st12" d="M4,2.7C3.5,2.5,3,2,3,2L2,1.7c0,0-1.1,0.7-1.5,1.2C0.1,3.6,0,4.1,0,4.5C0,4.9,1,6,1,6S0.9,5.3,1,5
		s0.6-0.7,1-1c0.3-0.2,1.2,0.2,2,0c0.6-0.2,1-1,1-1S4.5,3,4,2.7z M2.2,3C2.1,3,2,2.9,2,2.7c0-0.1,0.1-0.2,0.2-0.2s0.2,0.1,0.2,0.2
		C2.5,2.9,2.4,3,2.2,3z"/>
</g>
<g id="Head">
	<path class="st11" d="M10.5,10c-0.2,0-0.4-0.2-0.5-0.4C9.5,7.2,7.5,1,5,1C2.8,1,2.5,2.1,2.5,2.1C2.4,2.4,2.1,2.5,1.9,2.5
		C1.6,2.4,1.4,2.2,1.5,1.9C1.5,1.8,1.9,0,5,0c3.8,0,5.8,8.4,6,9.4c0.1,0.3-0.1,0.5-0.4,0.6C10.6,10,10.6,10,10.5,10z"/>
</g>
</svg>
