<svg xmlns="http://www.w3.org/2000/svg" display="none">
    <symbol id="icon-brain" viewBox="0 0 512 512">
        <title>Brain</title>
        <path d="M409.229,148.523c43.418,43.847,26.38,130.608-108.326,98.489c-33.723,5.096-105.852,15.438-114.96-35.078 c-12.816,8.095-77.631-37.397-24.959-106.257C223.19,24.351,377.523,44.979,409.229,148.523z M111.44,430.812 c-23.729-27.071-18.326-89.325-15.136-111.548H53.648c-10.956,0-20.243-5.693-24.239-14.858 c-5.387-12.356-0.173-27.744,13.947-41.161c23.688-22.509,34.292-45.828,34.292-58.953l-0.006-1.412 c-0.054-8.427-0.216-34.068,6.674-64.599c8.84-39.176,25.609-70.784,49.84-93.947C164.931,14.917,207.05,0,259.343,0 c59.024,0,139.651,13.861,188.564,79.893c19.942,26.923,32.307,60.035,35.755,95.759c3.103,32.149-1.232,65.879-12.21,94.978 c-13.068,34.642-38.651,53.142-50.635,69.462c-20.411,27.799-36.638,75.417-37.441,171.907h-32.001 c0.85-106.11,19.6-157.165,43.198-189.304c11.374-15.494,35.13-31.506,46.756-62.324c9.436-25.016,13.153-54.117,10.466-81.942 c-2.937-30.432-13.329-58.453-30.056-81.035c-15.083-20.362-35.235-36.361-59.898-47.551 c-28.428-12.898-62.913-19.438-102.498-19.438c-23.371,0-44.291,3.433-62.178,10.205c-15.373,5.819-28.936,14.284-40.313,25.159 c-19.837,18.961-33.714,45.502-41.247,78.885c-6.157,27.285-6.011,50.432-5.963,58.038c0.004,0.632,0.007,1.165,0.007,1.599 c0,24.034-16.731,54.861-43.664,80.454c-1.58,1.5-2.807,2.886-3.752,4.112h72.223l-5.211,26.93 c-0.032,0.17-3.485,18.516-3.807,39.705c-0.524,34.416,7.236,52.039,10.597,55.868c2.638,3.006,5.367,4.123,10.069,4.123 c36.229,0,48.478,0.535,62.051,13.51c16.113,15.401,16.162,61.339,16.028,83.006h-32.001c0.107-17.136,0.113-55.035-6.722-61.57 c-6.808-6.508-13.173-4.539-39.355-4.539C131.873,445.89,120.21,440.817,111.44,430.812z" />
    </symbol>
    <symbol id="icon-coins" viewBox="0 0 512 512">
        <title>Coins</title>
        <path d="M335.333,158.667c-11.647,0-23.03,1.14-34.049,3.292c-0.873-0.659-1.763-1.314-2.694-1.958 c13.614-9.414,21.41-20.342,21.41-32V96c0-35.346-71.634-64-160-64S0,60.654,0,96v32c0,11.658,7.796,22.586,21.41,32 C7.796,169.414,0,180.342,0,192v32c0,11.658,7.796,22.586,21.411,32C7.796,265.414,0,276.343,0,288v32 c0,11.658,7.796,22.586,21.41,32C7.796,361.414,0,372.343,0,384v32c0,35.347,71.634,64,160,64c23.616,0,46.021-2.057,66.2-5.73 C256.244,497.902,294.143,512,335.333,512C432.904,512,512,432.903,512,335.333C512,237.763,432.904,158.667,335.333,158.667z M16,96c0-9.523,14.447-21.456,36.805-30.399C81.18,54.251,119.25,48,160,48s78.82,6.251,107.195,17.601 C289.553,74.544,304,86.477,304,96s-14.447,21.456-36.805,30.399c-9.23,3.692-19.492,6.841-30.533,9.414 C213.763,141.15,187.495,144,160,144s-53.763-2.85-76.663-8.187c-11.041-2.573-21.302-5.722-30.532-9.414 C30.447,117.456,16,105.523,16,96z M16,288c0-7.066,7.961-15.46,21.203-22.975C66.553,279.066,110.666,288,160,288 c1.71,0,3.406-0.023,5.102-0.047c-4.188,15.08-6.436,30.967-6.436,47.38c0,0.22,0.007,0.438,0.008,0.658 c-27.013-0.09-52.808-2.927-75.339-8.179c-11.04-2.572-21.301-5.723-30.531-9.412C30.447,309.457,16,297.523,16,288z M160,432 c-40.75,0-78.82-6.25-107.195-17.6C30.447,405.457,16,393.523,16,384c0-7.067,7.961-15.46,21.203-22.975 C66.553,375.066,110.666,384,160,384c1.824,0,3.635-0.023,5.443-0.05c4.82,16.873,12.088,32.713,21.391,47.114 C178.073,431.677,169.108,432,160,432z M160,240c-27.494,0-53.763-2.85-76.662-8.187c-11.041-2.573-21.303-5.722-30.533-9.414 C30.447,213.456,16,201.523,16,192c0-7.067,7.961-15.46,21.202-22.975C66.552,183.066,110.665,192,160,192 c32.961,0,63.569-4.001,89.022-10.836c-24.988,14.02-46.22,33.935-61.811,57.865C178.33,239.66,169.241,240,160,240z M335.333,479.879c-79.83,0-144.545-64.715-144.545-144.546c0-79.83,64.715-144.545,144.545-144.545 c79.831,0,144.546,64.715,144.546,144.545C479.879,415.164,415.164,479.879,335.333,479.879z" />
        <g>
            <path d="M329.424,436.848c-11.718,0-22.834-1.953-33.34-5.857c-10.511-3.906-19.3-10.604-26.366-20.088l19.53-17.021 c4.089,6.325,9.809,11.349,17.158,15.066c7.346,3.723,15.019,5.768,23.018,6.138V344.22c-7.254-1.855-14.229-4.323-20.925-7.394 c-6.696-3.068-12.603-6.835-17.717-11.299c-5.117-4.466-9.163-9.81-12.136-16.043c-2.979-6.229-4.465-13.531-4.465-21.901 c0-7.812,1.486-14.97,4.465-21.483c2.973-6.508,7.019-12.136,12.136-16.878c5.114-4.743,11.021-8.553,17.717-11.439 c6.696-2.881,13.671-4.603,20.925-5.161v-18.414h13.393v18.414c10.045,0,19.949,1.861,29.714,5.58 c9.766,3.723,17.899,9.394,24.413,17.019l-18.414,16.74c-4.281-5.58-9.486-9.903-15.624-12.974 c-6.14-3.069-12.834-4.604-20.089-4.604v69.472c7.438,2.42,14.69,5.021,21.763,7.812c7.065,2.79,13.344,6.277,18.832,10.462 c5.483,4.187,9.856,9.347,13.113,15.485c3.252,6.138,4.883,13.767,4.883,22.878c0,8.37-1.583,15.901-4.743,22.599 c-3.165,6.696-7.395,12.464-12.693,17.298c-5.302,4.839-11.488,8.649-18.555,11.439c-7.07,2.79-14.604,4.464-22.6,5.021v19.811 h-13.393V436.848z M329.424,254.382c-9.115,1.674-16.417,5.44-21.9,11.3c-5.488,5.859-8.23,13.252-8.23,22.18 c0,4.841,0.789,8.93,2.371,12.277c1.578,3.348,3.719,6.233,6.417,8.648c2.694,2.42,5.858,4.512,9.485,6.277 c3.627,1.77,7.578,3.486,11.857,5.161V254.382L329.424,254.382z M342.816,415.086c9.484-1.116,17.438-4.743,23.854-10.881 s9.625-13.671,9.625-22.599c0-5.022-0.934-9.392-2.79-13.113c-1.86-3.719-4.372-6.879-7.532-9.486 c-3.166-2.603-6.744-4.786-10.742-6.557c-4.002-1.767-8.139-3.3-12.414-4.604V415.086z" />
        </g>
    </symbol>
    <symbol id="icon-sun2" viewBox="0 0 512 512">
        <title>Sun</title>
        <path d="M459.975,256l45.606-56.965l-65.807-31.536l16.375-71.112l-72.975,0.14l-16.102-71.174L301.389,57.14L256,0l-45.389,57.14 l-65.686-31.788l-16.102,71.174l-72.973-0.14l16.374,71.112L6.419,199.035L52.026,256L6.419,312.965l65.807,31.536l-16.374,71.112 l72.973-0.141l16.102,71.176l65.686-31.788L256,512l45.389-57.14l65.687,31.788l16.102-71.176l72.975,0.141l-16.375-71.112 l65.807-31.536L459.975,256z M256,420.5c-87.765,0-158.913-73.649-158.913-164.5c0-90.851,71.148-164.5,158.913-164.5 c87.766,0,158.913,73.649,158.913,164.5C414.913,346.851,343.766,420.5,256,420.5z M128,256c0,70.692,57.308,128,128,128 s128-57.308,128-128s-57.308-128-128-128S128,185.308,128,256z" />
    </symbol>
    <symbol id="icon-tools" viewBox="0 0 640 512">
        <title>Tools</title>
        <path d="M246.278,352.277l73.445,73.444l-58.338,74.912c-10.691,13.981-29.621,15.237-42.066,2.793l-50.745-50.746 c-12.445-12.443-11.188-31.374,2.792-42.064L246.278,352.277z M636.756,131.246L560,208.001l-96-96l76.756-76.755 c-9.244-2.122-18.869-3.245-28.756-3.245c-70.692,0-128,57.308-128,128c0,25.498,7.458,49.253,20.309,69.208l-71.453,55.646 L224,176.001l144-144H208l-71.029,71.029l-7.03-7.029H96v33.941l7.029,7.029L0,240.001l80,80l96-96l169.116,169.115L464,511.999 l48-47.998L387.146,339.146l55.646-71.455c19.954,12.852,43.71,20.31,69.208,20.31c70.692,0,128-57.308,128-128 C640,150.114,638.877,140.489,636.756,131.246z" />
    </symbol>
    <symbol id="icon-guitar" viewBox="0 0 512 512">
        <title>Guitar</title>
        <path d="M440,128l72-64c-6.038-32.334-31.666-57.962-64-64l-64,72v17.109l-90.734,90.735 c-47.035-38.417-79.562-33.168-100.676-15.795c-20.49,16.855-28.145,50.262-39.481,60.243 c-22.896,20.152-79.232-0.076-127.196,52.117C-29.588,336.807,14.208,401.2,62.504,449.496 c48.295,48.294,112.689,92.092,173.087,36.592c52.194-47.964,31.954-104.312,52.104-127.207c9.98-11.337,43.398-18.979,60.256-39.47 c17.371-21.114,22.619-53.642-15.796-100.676L422.891,128H440z M146.565,429.435l-64-64l26.87-26.868l64,64L146.565,429.435z M240,320c-26.51,0-48-21.49-48-48s21.49-48,48-48s48,21.49,48,48S266.51,320,240,320z" />
    </symbol>
    <symbol id="icon-speedy" viewBox="0 0 512 512">
    	<title>Speedy</title>
    	<path fill-rule="evenodd" clip-rule="evenodd" d="M512.6 132.8c-1.1 5.5-1.9 11-3.3 16.4-6.2 25.5-20.6 44.7-44.6 55.9-9.5 4.4-19.3 8.4-29.3 11.5-19.6 6.1-39.7 8-60.2 7.1-16.5-.7-33.1-1.4-49.6-1.9-1.6-.1-3.4.4-5 1-22.9 10.4-42.2 25.2-56.4 46.1-11.5 17-14.9 35.6-11.4 55.9 7.4 42.1 20.4 82.4 36.7 121.8.4 1.1.9 2.1 1.5 3.6-8.5 0-16.5.1-24.5-.1-.7 0-1.8-1.6-2.1-2.6-5.3-18.8-11.1-37.6-15.6-56.6-4.9-20.8-9-41.8-12.7-62.9-2-11.6-3-23.4-3.4-35.2-.5-16.2 6.5-29.7 17.1-41.5 9-10.1 19.8-18.1 31-25.5 5.7-3.8 11.3-7.8 17.4-12.1-1.5-.6-2.4-1-3.3-1.3-18.2-5.5-36.5-10.9-54.7-16.4-2.6-.8-3.7-.2-5.2 1.9-4.1 6.1-9.1 11.3-16.4 14.1 12.3-14.5 20.4-30.9 23.1-49.8 3.2 7.8.6 15.3-.6 23.2.8.3 1.7.8 2.6 1.2 19.6 7.4 39.9 12.1 60.5 15.4 30.5 4.8 61.2 5.2 91.9 5 19.6-.1 38.9-3.1 56.5-12.7 24-13 37.8-33.3 42.4-60 3.1-18 .7-35.2-10.2-50.3-7.3-10-17.1-17.5-26.9-24.9-22.6-17-48.2-27.2-75.6-33.1-23.5-5.1-47.2-7.9-71.2-7.1-72.8 2.6-138.6 24.7-195.2 71.5-37.5 31.2-61.6 71.3-73.1 118.6-5.8 23.8-9.9 48-14.3 72.1-3.6 19.7-6.4 39.5-9.6 59.3v1.7c4.5-.4 9-.4 13.3-1.2 15.7-2.9 31.3-6.3 46.9-9.2 16.5-3 33-1.7 49.1 2.6 41.7 11.3 74.5 35.1 98.6 70.9 8.9 13.2 16.5 27.1 22.8 41.7.4.9.7 1.8 1.2 3.1-7.1 0-13.9.1-20.7-.1-.8 0-1.8-1.6-2.2-2.6-7-16.3-15.7-31.7-26.6-45.8-20-25.8-46.4-40.7-78.4-46.3-22.1-3.8-44.2-3.5-66.3.1-.9.2-1.9.5-3.3.8 44.7 18.9 78 49.1 98.2 93.9h-16.2c-5.2 0-10.3-.1-15.5.1-2.2.1-3.2-.7-4.1-2.6-6.6-14-13.8-27.7-23.3-39.9-14.1-18.1-31.6-31.1-54.4-35.8-11.2-2.3-22.4-2.3-33.6-.6-1.2.2-2.3.2-3.5.2v-78.7c.2-.5.5-.9.6-1.4 2.6-13.4 5-26.8 7.9-40.1 5.9-27.7 12.1-55.3 21.3-82.1 10.8-31.2 26.5-59.3 50.6-82.2 24.1-22.8 52-40 81.8-54.2 33.8-16.1 69.3-26.3 106.6-30.2 6.1-.6 12.1-1.2 18.2-1.8h31c1.2.2 2.3.5 3.5.5 30.7 2 60.9 7.4 90.2 17 32.6 10.7 60.5 28.3 82.1 55.3 7.6 9.5 13.1 20.1 16 32 .9 3.9 1.6 7.9 2.4 11.9-.5 5.1-.5 10.3-.5 15.4z"/><path fill-rule="evenodd" clip-rule="evenodd" d="M.6 396.6c15.7 7.3 28.7 18 39.6 31.3 5.6 6.8 10.5 14.2 15.7 21.4-.2.3-.5.6-.7.9-8 0-16 .1-24-.1-.9 0-1.9-1.1-2.6-2-7.9-9.9-17.1-18.4-27.9-25-.1-8.9-.1-17.7-.1-26.5zM240.7 92.5c2.9-1.2 5.8-2.5 8.8-3.5 27.6-9.1 55-7.1 82.4 1 12.6 3.7 24.7 8.6 35.8 15.9 8 5.3 14.9 11.6 16.2 21.7.5 3.9.7 8 .1 11.8-1.2 8.7-5.7 12.7-14.8 13.9-10.2 1.4-20-.1-28.7-5.8-4.9-3.2-9.6-6.9-14.2-10.5-17.9-14.2-36.6-27-57.4-36.6-7.3-3.4-14.9-5.3-22.8-6.3-1.7-.2-3.4-.5-5.1-.8-.1-.2-.2-.5-.3-.8zm94 9.8c-18.3-10.5-50.5-12.4-65.1-8.5 19.5 5 35.7 16.3 51.7 28 6.2-14.3 6.2-14.3 13.4-19.5zm21.1 7.8c-1-.6-1.4-1-1.9-1.2-8.9-4.1-22 3.3-23.1 13-.5 4.1.3 8 3.6 10.8 1.3 1.1 3.1 1.5 5.3 2.5-1.2-13 4.6-20.7 16.1-25.1zM323.8 57c4.7-1.1 9.4-2.5 14.2-3.4 28.1-5.2 54.4 1 79.8 12.5 9.1 4.1 17.7 9.2 25.3 15.8 8.7 7.5 12.4 16.7 10.2 28.2-1.7 9.1-6.3 13.2-15.5 13.7-11.3.6-21.1-3-29.6-10.5-9.9-8.8-19.6-17.7-29.6-26.4-10.6-9.2-22.5-16.5-34.9-22.9-5.1-2.6-11.2-3.5-16.8-5.2-1-.3-2-.5-3-.8 0-.3-.1-.7-.1-1zm26.8 3.5c17.6 6.4 31.6 18.2 45.4 30 2-3.8 3.3-7.3 5.6-10 2.2-2.7 5.3-4.7 8.2-7.1-18.1-10.8-38.1-14-59.2-12.9zm78.2 22.3c-4.4-3.6-10.2-3.9-15.6-.9-5.2 2.9-8.8 7-8.7 13.2.1 5.3 3.3 8.6 7.4 8.6.2-11.1 6-17.9 16.9-20.9z"/>
    </symbol>
    <symbol id="icon-speedy-old" viewBox="0 0 512 512">
        <title>Speedy</title>
        <path fill="none" d="M265.814 513.42H246.41c-3.284-7.462-6.473-14.994-9.87-22.386-32.92-71.634-99.555-126.322-181.88-98.022-6.136 2.11-12.85 1.745-19.107 3.488-13.052 3.643-16.25-2.537-14.012-17.014 5.227-33.804 9.556-67.802 14.793-101.602 9.894-63.852 29.26-122.424 71.424-166.624 73.2-76.735 159.4-103.74 255.218-89.448 41.092 6.13 78.487 24.2 109.795 57.81 21.33 22.9 27.888 50.68 20.678 83.14-9.61 43.305-37.563 70.72-76.2 76.4-42.737 6.28-85.11 1.423-127.226-6.362-17.42-3.218-34.27-10.705-51.382-16.244 13.137 12.064 29.085 14.473 43.803 20.874 4.982 2.176 13.286.968 13.925 9.594.576 7.84-7.142 9.788-11.438 13.99-2.98 2.91-6.39 5.2-9.613 7.756-30.842 24.47-44.282 55.752-37.002 101.778 7.618 48.158 17.39 95.507 27.5 142.873zM371.468 85.573c9.972 16.152 22.51 28.958 36.757 39.528l-.417-.283c14.143 15.844 31.23 19.537 38.276 8.27 7.59-12.145 1.44-31.286-14.153-44.04-.525-.43-1.065-.843-1.613-1.238-28.913-20.778-59.82-30.005-93.656-23.184 6.965 10.596 19.275 6.932 26.815 15.352 2.66 1.863 5.33 3.726 7.993 5.594zm-97.13 28.228l-.535-.626c21.594 15.31 42.696 31.458 62.318 50.226 5.034 4.815 10.804 8.354 17.524 9.04 9.664.987 20.594 3.88 25.612-9.268 4.707-12.355.743-23.867-7.405-33.24-18.483-21.274-85.344-44.97-117.648-23.914 6.71 2.59 13.424 5.185 20.137 7.782z"/><path clip-rule="evenodd" fill="none" d="M-1.955 389.27c0-125.52.087-251.044-.163-376.562C-2.138 2.448-1.5-1.99 9.248-1.954c163.425.548 326.85.48 490.272.108 8.812-.022 11.092 1.56 11.066 12.766-.416 163.02-.438 326.046.016 489.064.03 12.34-3.238 13.722-12.223 13.67-71.056-.422-142.108-.233-213.16-.233-11.133-38.25-23.743-76-30.286-115.874-3.045-18.558-7.93-36.903-3.73-56.548 10.667-49.915 51.018-87.378 94.656-86.654 36.784.605 73.503 2.675 108.426-16.148 56.905-30.678 70.506-109.52 27.593-163.14-17.664-22.074-38.653-38.127-62.79-48.257-69-28.964-139.262-33.446-209.09-7.51C119.54 52.883 49.05 112.934 27.067 230.773c-2.782 14.908-5.36 29.9-8.82 44.6-8.814 37.463-9.864 76.832-20.2 113.898z"/><path fill-rule="evenodd" clip-rule="evenodd" d="M-1.955 389.27c10.337-37.064 11.387-76.434 20.2-113.897 3.46-14.698 6.04-29.69 8.82-44.6C49.048 112.933 119.54 52.883 210 19.29 279.83-6.646 350.09-2.164 419.09 26.8c24.137 10.128 45.126 26.182 62.79 48.257 42.912 53.62 29.31 132.46-27.594 163.14-34.923 18.822-71.642 16.753-108.426 16.147-43.64-.724-83.99 36.74-94.655 86.654-4.2 19.645.684 37.99 3.73 56.548 6.542 39.873 19.152 77.625 30.284 115.875h-19.405c-10.11-47.365-19.882-94.714-27.5-142.87-7.28-46.026 6.16-77.308 37.002-101.778 3.224-2.557 6.635-4.845 9.613-7.756 4.297-4.202 12.015-6.15 11.438-13.99-.64-8.626-8.942-7.418-13.925-9.594-14.718-6.4-30.666-8.81-43.803-20.874 17.11 5.54 33.963 13.026 51.382 16.244 42.115 7.785 84.488 12.642 127.226 6.36 38.637-5.68 66.59-33.094 76.2-76.4 7.21-32.457.65-60.238-20.678-83.138-31.308-33.61-68.703-51.68-109.795-57.81-95.817-14.292-182.02 12.712-255.218 89.448-42.163 44.2-61.53 102.772-71.424 166.624-5.238 33.8-9.567 67.798-14.792 101.602-2.238 14.477.96 20.656 14.013 17.014 6.257-1.743 12.97-1.38 19.107-3.488 82.326-28.3 148.96 26.39 181.88 98.022 3.397 7.392 6.586 14.924 9.87 22.387h-19.403c-.004-2.237.553-4.733-.09-6.67-24.344-73.44-95.742-117.947-160.64-100.318-3.096.84-6.902.835-7.326 5.595-.418 4.697 3.284 5.843 6.127 7.382 37.063 20.06 63.53 53.46 84.315 94.012h-31.045c-7.775-22.16-17.933-42.732-33.056-58.79-25.156-26.707-53.742-38.595-87.245-23.978V389.27z"/><path clip-rule="evenodd" fill="none" d="M149.393 513.42c-20.784-40.552-47.252-73.952-84.315-94.01-2.843-1.54-6.545-2.686-6.126-7.383.423-4.76 4.23-4.754 7.325-5.595 64.898-17.63 136.297 26.878 160.642 100.318.64 1.937.084 4.433.088 6.67h-77.615zM-1.955 430.653c33.503-14.617 62.09-2.73 87.246 23.98 15.124 16.056 25.282 36.627 33.057 58.788h-65.97c-13.52-24.738-31.168-43.774-54.332-55.178v-27.59z"/><path fill-rule="evenodd" clip-rule="evenodd" d="M-1.955 458.242c23.164 11.403 40.81 30.44 54.33 55.18H29.093c-6.04-16.563-19.336-23.303-31.046-32.19v-22.99z"/><path clip-rule="evenodd" fill="none" d="M-1.955 481.232c11.71 8.887 25.005 15.626 31.046 32.188h-3.88c-27.165 0-27.165 0-27.165-32.188z"/><path fill-rule="evenodd" clip-rule="evenodd" d="M274.34 113.8c-6.714-2.597-13.427-5.19-20.14-7.773 32.307-21.065 99.167 2.63 117.65 23.906 8.15 9.373 12.113 20.884 7.406 33.24-5.02 13.147-15.948 10.255-25.612 9.268-6.72-.686-12.49-4.224-17.523-9.04-19.62-18.767-40.724-34.916-62.325-50.228 14.933 3.536 26.733 14.28 39.254 23.567 13.95 10.345 13.954-8.457 18.434-14.678 6.435-8.938-3.206-11.08-7.747-13.048-14.06-6.08-28.802-7.306-43.698-6.308-6.623.438-10.102 2.85-5.7 11.094zm79.706 11.926c-2.632-4.1-6.114-5.28-9.897-4.02-9.476 3.16-15.993 10.027-15.713 22.426.112 5.14 4.532 13.458 7.503 10.287 7.11-7.58 11.838-18.292 18.106-28.694zM363.475 79.978c-7.54-8.42-19.85-4.755-26.814-15.352 33.836-6.82 64.744 2.406 93.657 23.183.548.394 1.088.808 1.614 1.238 15.594 12.753 21.744 31.895 14.154 44.04-7.045 11.266-24.134 7.573-38.364-8.355 6.197-7.405 6.326-19.968 15.28-25.115 2.514-1.446 3.657-5.203 2.055-7.588-1.28-1.91-4.433-2.81-6.764-2.826-7.05-.048-11.907 4.716-15.38 11.568-5.16 10.17.995 16.997 5.314 24.327-14.248-10.57-26.785-23.376-36.757-39.53 3.567 3.244 6.955 6.835 10.752 9.647 4.528 3.35 8.375 12.416 14.59 6.564 4.73-4.453 9.902-11.82 10.27-18.266.404-7.076-8.027-8.872-13.28-10.654-9.193-3.122-18.698-5.197-28.183-6.76-4.036-.664-10.545-2.213-11.39 4.46-.69 5.42 4.968 7.76 9.248 9.418z"/><path clip-rule="evenodd" fill="none" d="M363.475 79.978c-4.28-1.657-9.937-3.997-9.247-9.417.845-6.672 7.354-5.123 11.39-4.458 9.484 1.562 18.99 3.638 28.184 6.76 5.252 1.782 13.684 3.578 13.28 10.653-.368 6.445-5.54 13.813-10.27 18.267-6.216 5.85-10.063-3.214-14.592-6.564-3.797-2.812-7.185-6.403-10.752-9.646-2.662-1.868-5.332-3.73-7.993-5.594zM274.34 113.8c-4.402-8.245-.923-10.656 5.698-11.095 14.896-.998 29.638.228 43.698 6.308 4.54 1.967 14.182 4.11 7.747 13.048-4.48 6.222-4.483 25.024-18.435 14.678-12.52-9.286-24.32-20.03-39.254-23.567.01.004.545.63.545.63zM354.046 125.726c-6.268 10.403-10.996 21.114-18.106 28.693-2.97 3.17-7.39-5.148-7.503-10.288-.28-12.4 6.237-19.265 15.712-22.426 3.782-1.26 7.264-.08 9.896 4.02zM408.225 125.1c-4.32-7.33-10.474-14.158-5.313-24.327 3.472-6.852 8.33-11.617 15.38-11.568 2.33.015 5.482.917 6.764 2.826 1.603 2.386.46 6.143-2.056 7.59-8.953 5.146-9.082 17.71-15.28 25.114.088.083.505.366.505.366z"/>
    </symbol>
</svg>