<svg xmlns="http://www.w3.org/2000/svg" display="none">
    <symbol id="info" viewBox="0 0 512 512">
        <title>Information</title>
        <path d="M256 0C114.615 0 0 114.615 0 256s114.615 256 256 256 256-114.615 256-256S397.385 0 256 0zm0 464c-114.875 0-208-93.125-208-208S141.125 48 256 48s208 93.125 208 208-93.125 208-208 208zm-32-336h64v64h-64zm96 256H192v-32h32v-96h-32v-32h96v128h32z" />
    </symbol>
    <symbol id="apple" viewBox="0 0 512 512">
        <title>Apple</title>
        <path d="M 256.00,158.653c-42.276-43.218-224.00-71.03-224.00,134.179c0.00,126.782, 160.518,267.145, 223.965,203.193l 0.07,0.00 C 319.483,559.977, 480.00,419.614, 480.00,292.832C 480.00,87.624, 298.276,115.435, 256.00,158.653z M 416.552,341.25 c-12.045,46.402-51.907,89.539-98.744,120.021c 48.953-58.283, 79.127-156.949, 49.948-233.464 c-8.688-22.783-18.648-42.083-29.535-58.319C 395.741,188.772, 443.145,238.795, 416.552,341.25zM 240.162,102.028c 6.817-1.627, 13.289-3.756, 19.451-6.256C 257.372,106.106, 256.00,116.995, 256.00,128.00l 10.67,0.00 c 9.286-43.374, 44.19-94.00, 90.727-94.00c0.00-23.833-16.166-34.00-34.355-34.00c-17.31,8.583-32.418,23.974-44.621,45.713 c-6.589,11.738-13.463,27.834-17.835,45.851c-0.872-5.087-2.174-10.19-3.983-15.276C 236.858,20.757, 168.043-11.655, 102.90,3.894 c-7.376,1.761-14.368,4.085-20.977,6.861c 0.827,6.278, 2.301,12.591, 4.537,18.878C 106.204,85.165, 175.019,117.577, 240.162,102.028z"></path>
    </symbol>
    <symbol id="book" viewBox="0 0 512 512">
        <title>Book</title>
        <path fill="none" d="M0 0h512v512H0z" />
        <path d="M448 64v416H112c-26.51 0-48-21.49-48-48s21.49-48 48-48h304V0H96C60.8 0 32 28.8 32 64v384c0 35.2 28.8 64 64 64h384V64h-32zM128 416h288v32H128z" />
    </symbol>
    <symbol id="location" viewBox="0 0 512 512">
        <title>Location</title>
        <path fill="none" d="M0 0h512v512H0z" />
        <path d="M256 0C149.96 0 64 85.96 64 192c0 192 192 320 192 320s192-128 192-320C448 85.96 362.04 0 256 0zm0 224c-35.346 0-64-28.654-64-64s28.654-64 64-64c35.347 0 64 28.654 64 64s-28.653 64-64 64z" />
    </symbol>
    <symbol id="direction" viewBox="0 0 512 512">
        <title>Direction</title>
        <path fill="none" d="M0 0h512v512H0z" />
        <path d="M400 192l96-64-96-64H288V24c0-13.2-10.8-24-24-24h-16c-13.2 0-24 10.8-24 24v40H64v128h160v32H80l-64 48 64 48h144v192h64V320h128v-96H288v-32h112z" />
    </symbol>
    <symbol id="graduation" viewBox="0 0 512 512">
        <title>Graduation</title>
        <path fill-rule="evenodd" clip-rule="evenodd" d="M476 335h-26.2c4.4-45.5 8.8-91.1 13.6-141.6-26.4 13.1-48.8 23.8-70.8 35.3-11.3 5.9-21.8 13.4-33 19.5-28.1 15.5-56.6 30.3-84.5 46.1-9.9 5.6-18 6.3-28.4.6C184.6 261 122.1 228.1 60 194.4c-13.4-7.2-25.8-16.2-39.6-25 12.3-8 23.9-16.8 36.5-23.6 41.8-22.6 84.1-44.3 126-66.6 20.9-11.2 41-24.1 62.5-33.9 8.1-3.7 20.9-4.5 28.4-.6C338.2 78 402 112.4 465.8 147c11.7 6.3 22.3 14.5 36.9 24.1-32.5 5.1-26.7 28.3-26.6 49.1 0 37.9-.1 75.8-.1 114.8zM300.3 152.9c.4-15-9.8-26.4-24.2-26.2-15.4.2-23.4 8.9-24.6 23.8-1.2 14.4 9.7 27.1 23.1 27.9 13.2.8 25.2-11.1 25.7-25.5z" />
        <path fill-rule="evenodd" clip-rule="evenodd" d="M413.8 279.8c0 29.3 1.8 53.2-.5 76.7-2.5 25.7-23.9 40.8-43.2 51.3-72.5 39.3-147.5 39.5-219.9 0-27-14.8-49.6-37.2-44-74.7 2.3-15.6.4-31.9.4-51.6 24.5 12.3 46.5 22.5 67.7 34.1 26.9 14.8 52.8 31.2 79.8 45.8 4.1 2.2 12.3-.4 17.3-3.1 46.1-25 91.9-50.5 142.4-78.5z" />
    </symbol>
</svg>