<?xml version="1.0" encoding="utf-8"?>
<!-- Generator: Adobe Illustrator 21.1.0, SVG Export Plug-In . SVG Version: 6.00 Build 0)  -->
<svg version="1.1" xmlns="http://www.w3.org/2000/svg" xmlns:xlink="http://www.w3.org/1999/xlink" x="0px" y="0px"
	 viewBox="0 0 667.3 292.8" style="enable-background:new 0 0 667.3 292.8;" xml:space="preserve">
<style type="text/css">
	.st0{fill:#FFFFFF;}
</style>
<g id="Layer_1">
	<g>
		<g>
			<path d="M57.3,110H46.2l-9.2-31.6h-0.2L27.5,110H16.3L3,63.3h12.1l7.4,31.1h0.2L31,63.3h11.7l8.4,31.1h0.2l7.5-31.1h11.7
				L57.3,110z"/>
			<path d="M105.1,94c0,0.4,0,0.9,0,1.3c0,0.4,0,0.9-0.1,1.3H81.2c0.1,0.9,0.4,1.8,0.8,2.5c0.5,0.7,1.1,1.4,1.8,1.9
				c0.7,0.6,1.5,1,2.4,1.3c0.9,0.3,1.8,0.5,2.8,0.5c1.7,0,3.2-0.3,4.4-1c1.2-0.6,2.2-1.5,2.9-2.5l7.5,4.8c-1.5,2.2-3.6,4-6.1,5.2
				c-2.5,1.2-5.5,1.8-8.8,1.8c-2.5,0-4.8-0.4-7-1.2c-2.2-0.8-4.1-1.9-5.8-3.4c-1.7-1.5-2.9-3.3-3.9-5.4c-0.9-2.2-1.4-4.6-1.4-7.4
				c0-2.7,0.5-5.1,1.4-7.3c0.9-2.2,2.2-4,3.8-5.5s3.5-2.7,5.6-3.5c2.2-0.8,4.5-1.3,7-1.3c2.4,0,4.6,0.4,6.7,1.2c2,0.8,3.8,2,5.2,3.5
				c1.5,1.5,2.6,3.4,3.4,5.6C104.7,88.6,105.1,91.1,105.1,94z M95.1,89.8c0-1.7-0.5-3.2-1.6-4.4c-1.1-1.2-2.7-1.8-4.9-1.8
				c-1.1,0-2,0.2-2.9,0.5c-0.9,0.3-1.7,0.8-2.3,1.4c-0.7,0.6-1.2,1.2-1.6,2c-0.4,0.8-0.6,1.6-0.7,2.4H95.1z"/>
			<path d="M112,110V60.1h11V110H112z"/>
			<path d="M154.2,87.8c-0.6-0.8-1.5-1.4-2.5-1.9c-1.1-0.5-2.1-0.7-3.2-0.7c-1.1,0-2.2,0.2-3.1,0.7s-1.7,1.1-2.4,1.8
				c-0.7,0.8-1.2,1.7-1.6,2.7c-0.4,1-0.6,2.1-0.6,3.2c0,1.1,0.2,2.2,0.5,3.2c0.4,1,0.9,1.9,1.6,2.7c0.7,0.8,1.5,1.4,2.4,1.8
				c0.9,0.4,2,0.7,3.2,0.7c1.1,0,2.2-0.2,3.3-0.6c1.1-0.4,1.9-1,2.6-1.8l6,7.3c-1.4,1.3-3.1,2.4-5.3,3.1c-2.2,0.7-4.4,1.1-6.9,1.1
				c-2.6,0-5-0.4-7.3-1.2s-4.2-1.9-5.9-3.5c-1.7-1.5-3-3.4-3.9-5.5c-1-2.2-1.4-4.6-1.4-7.3c0-2.7,0.5-5.1,1.4-7.3
				c1-2.2,2.3-4,3.9-5.5c1.7-1.5,3.6-2.7,5.9-3.5c2.2-0.8,4.7-1.2,7.2-1.2c1.2,0,2.4,0.1,3.5,0.3c1.2,0.2,2.3,0.5,3.4,0.9
				c1.1,0.4,2.1,0.8,3,1.4c0.9,0.6,1.7,1.2,2.3,1.8L154.2,87.8z"/>
			<path d="M199.5,93.4c0,2.7-0.5,5.1-1.5,7.3c-1,2.2-2.3,4-4,5.5c-1.7,1.5-3.6,2.7-5.8,3.5c-2.2,0.8-4.6,1.3-7.1,1.3
				c-2.5,0-4.8-0.4-7-1.3c-2.2-0.8-4.2-2-5.8-3.5s-3-3.4-3.9-5.5c-1-2.2-1.5-4.6-1.5-7.3c0-2.7,0.5-5.1,1.5-7.3c1-2.2,2.3-4,3.9-5.5
				c1.6-1.5,3.6-2.6,5.8-3.4c2.2-0.8,4.6-1.2,7-1.2c2.5,0,4.9,0.4,7.1,1.2c2.2,0.8,4.1,1.9,5.8,3.4c1.7,1.5,3,3.3,4,5.5
				C199.1,88.3,199.5,90.8,199.5,93.4z M189.1,93.4c0-1.1-0.2-2.1-0.5-3.1c-0.4-1-0.9-1.9-1.5-2.7c-0.7-0.8-1.5-1.4-2.4-1.9
				c-1-0.5-2.1-0.7-3.4-0.7c-1.3,0-2.4,0.2-3.4,0.7c-1,0.5-1.8,1.1-2.4,1.9c-0.6,0.8-1.1,1.7-1.5,2.7c-0.3,1-0.5,2-0.5,3.1
				s0.2,2.1,0.5,3.1c0.3,1,0.8,1.9,1.5,2.7c0.7,0.8,1.5,1.5,2.4,1.9c1,0.5,2.1,0.7,3.4,0.7c1.3,0,2.4-0.2,3.4-0.7
				c1-0.5,1.8-1.1,2.4-1.9c0.7-0.8,1.2-1.7,1.5-2.7C189,95.5,189.1,94.5,189.1,93.4z"/>
			<path d="M248.4,110V92c0-0.9-0.1-1.8-0.2-2.7s-0.4-1.6-0.7-2.2c-0.4-0.6-0.8-1.1-1.4-1.5c-0.6-0.4-1.4-0.6-2.3-0.6
				c-0.9,0-1.7,0.2-2.4,0.6c-0.7,0.4-1.3,0.9-1.7,1.6c-0.5,0.7-0.8,1.4-1,2.3c-0.2,0.9-0.3,1.7-0.3,2.7V110h-10.8V91.3
				c0-1.9-0.4-3.4-1.1-4.5c-0.7-1.1-1.9-1.6-3.6-1.6c-1.7,0-3,0.7-4,2c-0.9,1.4-1.4,3-1.4,5V110h-10.9V77.1h10.5v4.6h0.1
				c0.4-0.7,0.9-1.4,1.5-2c0.6-0.7,1.3-1.2,2.1-1.7c0.8-0.5,1.8-0.9,2.8-1.2c1-0.3,2.2-0.5,3.4-0.5c2.4,0,4.4,0.5,6,1.5
				c1.6,1,2.9,2.4,3.9,4.2c1.1-1.7,2.5-3.1,4.2-4.1c1.7-1,3.8-1.5,6.3-1.5c2.2,0,4.1,0.4,5.6,1.2c1.5,0.8,2.7,1.9,3.7,3.2
				c0.9,1.3,1.6,2.8,2,4.4c0.4,1.6,0.6,3.2,0.6,4.7V110H248.4z"/>
			<path d="M300,94c0,0.4,0,0.9,0,1.3c0,0.4,0,0.9-0.1,1.3h-23.8c0.1,0.9,0.4,1.8,0.8,2.5c0.5,0.7,1.1,1.4,1.8,1.9
				c0.7,0.6,1.5,1,2.4,1.3c0.9,0.3,1.8,0.5,2.8,0.5c1.7,0,3.2-0.3,4.4-1c1.2-0.6,2.2-1.5,2.9-2.5l7.5,4.8c-1.5,2.2-3.6,4-6.1,5.2
				c-2.5,1.2-5.5,1.8-8.8,1.8c-2.5,0-4.8-0.4-7-1.2c-2.2-0.8-4.1-1.9-5.8-3.4c-1.7-1.5-2.9-3.3-3.9-5.4c-0.9-2.2-1.4-4.6-1.4-7.4
				c0-2.7,0.5-5.1,1.4-7.3c0.9-2.2,2.2-4,3.8-5.5s3.5-2.7,5.6-3.5c2.2-0.8,4.5-1.3,7-1.3c2.4,0,4.6,0.4,6.7,1.2c2,0.8,3.8,2,5.2,3.5
				c1.5,1.5,2.6,3.4,3.4,5.6C299.6,88.6,300,91.1,300,94z M290,89.8c0-1.7-0.5-3.2-1.6-4.4c-1.1-1.2-2.7-1.8-4.9-1.8
				c-1.1,0-2,0.2-2.9,0.5c-0.9,0.3-1.7,0.8-2.3,1.4c-0.7,0.6-1.2,1.2-1.6,2c-0.4,0.8-0.6,1.6-0.7,2.4H290z"/>
			<path d="M357.3,110.1c-3.1,0.7-6.4,1.1-10,1.1c-3.7,0-7.2-0.6-10.3-1.8c-3.1-1.2-5.9-2.9-8.1-5c-2.3-2.2-4-4.7-5.3-7.8
				c-1.3-3-1.9-6.4-1.9-10.1c0-3.7,0.6-7.1,1.9-10.2c1.3-3,3.1-5.6,5.4-7.8c2.3-2.1,5-3.8,8.1-4.9c3.1-1.1,6.4-1.7,10-1.7
				c3.7,0,7.1,0.6,10.3,1.7s5.7,2.6,7.7,4.5l-7.1,8.1c-1.1-1.3-2.6-2.3-4.4-3.1c-1.8-0.8-3.8-1.2-6.1-1.2c-2,0-3.8,0.4-5.5,1.1
				c-1.7,0.7-3.1,1.7-4.4,3c-1.2,1.3-2.2,2.8-2.9,4.6c-0.7,1.8-1,3.7-1,5.8c0,2.2,0.3,4.1,0.9,5.9c0.6,1.8,1.5,3.4,2.7,4.7
				c1.2,1.3,2.7,2.3,4.5,3c1.8,0.7,3.8,1.1,6.1,1.1c1.3,0,2.6-0.1,3.8-0.3c1.2-0.2,2.3-0.5,3.3-1v-8.5h-8.9v-9.1h19.3v24.8
				C363,108.4,360.4,109.3,357.3,110.1z"/>
			<path d="M395.3,86c-0.5-0.1-1-0.2-1.4-0.3c-0.5,0-0.9-0.1-1.4-0.1c-1.5,0-2.7,0.3-3.7,0.8c-1,0.5-1.8,1.2-2.4,1.9
				c-0.6,0.7-1,1.6-1.3,2.4c-0.3,0.9-0.4,1.6-0.4,2.3V110H374V77.2h10.4v4.8h0.1c0.8-1.7,2-3.1,3.6-4.1c1.5-1.1,3.3-1.6,5.3-1.6
				c0.4,0,0.9,0,1.3,0.1c0.4,0,0.8,0.1,1,0.2L395.3,86z"/>
			<path d="M431.5,94c0,0.4,0,0.9,0,1.3c0,0.4,0,0.9-0.1,1.3h-23.8c0.1,0.9,0.4,1.8,0.8,2.5c0.5,0.7,1.1,1.4,1.8,1.9
				c0.7,0.6,1.5,1,2.4,1.3c0.9,0.3,1.8,0.5,2.8,0.5c1.7,0,3.2-0.3,4.4-1c1.2-0.6,2.2-1.5,2.9-2.5l7.5,4.8c-1.5,2.2-3.6,4-6.1,5.2
				c-2.5,1.2-5.5,1.8-8.8,1.8c-2.5,0-4.8-0.4-7-1.2c-2.2-0.8-4.1-1.9-5.8-3.4c-1.6-1.5-2.9-3.3-3.9-5.4c-0.9-2.2-1.4-4.6-1.4-7.4
				c0-2.7,0.5-5.1,1.4-7.3c0.9-2.2,2.2-4,3.8-5.5s3.5-2.7,5.6-3.5c2.2-0.8,4.5-1.3,7-1.3c2.4,0,4.6,0.4,6.7,1.2c2,0.8,3.8,2,5.2,3.5
				c1.5,1.5,2.6,3.4,3.4,5.6C431.1,88.6,431.5,91.1,431.5,94z M421.6,89.8c0-1.7-0.5-3.2-1.6-4.4c-1.1-1.2-2.7-1.8-4.9-1.8
				c-1.1,0-2,0.2-2.9,0.5c-0.9,0.3-1.7,0.8-2.3,1.4c-0.7,0.6-1.2,1.2-1.6,2c-0.4,0.8-0.6,1.6-0.7,2.4H421.6z"/>
			<path d="M470.9,94c0,0.4,0,0.9,0,1.3c0,0.4,0,0.9-0.1,1.3H447c0.1,0.9,0.4,1.8,0.8,2.5c0.5,0.7,1.1,1.4,1.8,1.9
				c0.7,0.6,1.5,1,2.4,1.3c0.9,0.3,1.8,0.5,2.8,0.5c1.7,0,3.2-0.3,4.4-1c1.2-0.6,2.2-1.5,2.9-2.5l7.5,4.8c-1.5,2.2-3.6,4-6.1,5.2
				c-2.5,1.2-5.5,1.8-8.8,1.8c-2.5,0-4.8-0.4-7-1.2c-2.2-0.8-4.1-1.9-5.8-3.4c-1.6-1.5-2.9-3.3-3.9-5.4c-0.9-2.2-1.4-4.6-1.4-7.4
				c0-2.7,0.5-5.1,1.4-7.3c0.9-2.2,2.2-4,3.8-5.5s3.5-2.7,5.6-3.5c2.2-0.8,4.5-1.3,7-1.3c2.4,0,4.6,0.4,6.7,1.2c2,0.8,3.8,2,5.2,3.5
				c1.5,1.5,2.6,3.4,3.4,5.6C470.5,88.6,470.9,91.1,470.9,94z M460.9,89.8c0-1.7-0.5-3.2-1.6-4.4c-1.1-1.2-2.7-1.8-4.9-1.8
				c-1.1,0-2,0.2-2.9,0.5c-0.9,0.3-1.7,0.8-2.3,1.4c-0.7,0.6-1.2,1.2-1.6,2c-0.4,0.8-0.6,1.6-0.7,2.4H460.9z"/>
			<path d="M499.2,110V92c0-0.9-0.1-1.8-0.2-2.6c-0.2-0.8-0.4-1.6-0.8-2.2c-0.4-0.6-0.8-1.1-1.5-1.5c-0.6-0.4-1.4-0.6-2.4-0.6
				s-1.8,0.2-2.5,0.6c-0.7,0.4-1.3,0.9-1.8,1.6c-0.5,0.7-0.8,1.4-1.1,2.3c-0.2,0.9-0.4,1.7-0.4,2.7V110h-10.9V77.1h10.5v4.6h0.1
				c0.4-0.7,0.9-1.4,1.6-2.1c0.6-0.7,1.4-1.3,2.2-1.7c0.9-0.5,1.8-0.9,2.8-1.2c1-0.3,2.1-0.5,3.2-0.5c2.2,0,4.1,0.4,5.6,1.2
				c1.5,0.8,2.8,1.8,3.7,3.1c0.9,1.3,1.6,2.7,2,4.3c0.4,1.6,0.6,3.3,0.6,4.9V110H499.2z"/>
			<path d="M550.9,94c0,0.4,0,0.9,0,1.3c0,0.4,0,0.9-0.1,1.3H527c0.1,0.9,0.4,1.8,0.8,2.5c0.5,0.7,1.1,1.4,1.8,1.9
				c0.7,0.6,1.5,1,2.4,1.3c0.9,0.3,1.8,0.5,2.8,0.5c1.7,0,3.2-0.3,4.4-1c1.2-0.6,2.2-1.5,2.9-2.5l7.5,4.8c-1.5,2.2-3.6,4-6.1,5.2
				c-2.5,1.2-5.5,1.8-8.8,1.8c-2.5,0-4.8-0.4-7-1.2c-2.2-0.8-4.1-1.9-5.8-3.4c-1.6-1.5-2.9-3.3-3.9-5.4c-0.9-2.2-1.4-4.6-1.4-7.4
				c0-2.7,0.5-5.1,1.4-7.3c0.9-2.2,2.2-4,3.8-5.5s3.5-2.7,5.6-3.5c2.2-0.8,4.5-1.3,7-1.3c2.4,0,4.6,0.4,6.7,1.2c2,0.8,3.8,2,5.2,3.5
				c1.5,1.5,2.6,3.4,3.4,5.6C550.5,88.6,550.9,91.1,550.9,94z M540.9,89.8c0-1.7-0.5-3.2-1.6-4.4c-1.1-1.2-2.7-1.8-4.9-1.8
				c-1.1,0-2,0.2-2.9,0.5c-0.9,0.3-1.7,0.8-2.3,1.4c-0.7,0.6-1.2,1.2-1.6,2c-0.4,0.8-0.6,1.6-0.7,2.4H540.9z"/>
			<path d="M578.9,86c-0.5-0.1-1-0.2-1.4-0.3c-0.5,0-0.9-0.1-1.4-0.1c-1.5,0-2.7,0.3-3.7,0.8c-1,0.5-1.8,1.2-2.4,1.9
				c-0.6,0.7-1,1.6-1.3,2.4c-0.3,0.9-0.4,1.6-0.4,2.3V110h-10.8V77.2H568v4.8h0.1c0.8-1.7,2-3.1,3.6-4.1c1.5-1.1,3.3-1.6,5.3-1.6
				c0.4,0,0.9,0,1.3,0.1c0.4,0,0.8,0.1,1,0.2L578.9,86z"/>
			<path d="M603.1,86.8c-0.9-0.8-1.9-1.5-3.1-2.1c-1.2-0.6-2.4-0.9-3.8-0.9c-1,0-1.9,0.2-2.8,0.6c-0.9,0.4-1.3,1.1-1.3,2
				c0,0.9,0.5,1.6,1.4,2c0.9,0.4,2.5,0.8,4.6,1.3c1.2,0.3,2.5,0.6,3.7,1.1c1.3,0.5,2.4,1.1,3.4,1.9c1,0.8,1.8,1.8,2.4,2.9
				c0.6,1.1,0.9,2.5,0.9,4.1c0,2.1-0.4,3.8-1.3,5.2c-0.8,1.4-1.9,2.6-3.3,3.5c-1.3,0.9-2.8,1.5-4.5,1.9c-1.7,0.4-3.3,0.6-5,0.6
				c-2.7,0-5.3-0.4-7.9-1.3s-4.7-2.1-6.4-3.8l6.1-6.4c1,1.1,2.2,1.9,3.6,2.6c1.4,0.7,2.9,1.1,4.5,1.1c0.9,0,1.7-0.2,2.6-0.6
				c0.9-0.4,1.3-1.2,1.3-2.2c0-1-0.5-1.8-1.6-2.2c-1.1-0.5-2.7-1-5-1.5c-1.1-0.3-2.3-0.6-3.4-1.1c-1.1-0.4-2.2-1-3.1-1.8
				c-0.9-0.7-1.6-1.7-2.2-2.8c-0.6-1.1-0.9-2.4-0.9-4c0-2,0.4-3.7,1.3-5c0.8-1.4,1.9-2.5,3.2-3.4c1.3-0.9,2.8-1.5,4.4-1.9
				c1.6-0.4,3.2-0.6,4.8-0.6c2.5,0,4.9,0.4,7.2,1.2c2.4,0.8,4.3,1.9,6,3.5L603.1,86.8z"/>
			<path d="M628.9,104.4c0,0.9-0.2,1.7-0.5,2.5c-0.3,0.8-0.8,1.4-1.4,2c-0.6,0.6-1.3,1-2.1,1.3s-1.6,0.5-2.5,0.5
				c-0.9,0-1.7-0.2-2.5-0.5c-0.8-0.3-1.4-0.7-2-1.3c-0.6-0.6-1-1.2-1.4-2c-0.4-0.7-0.5-1.6-0.5-2.4c0-0.8,0.2-1.6,0.5-2.4
				c0.3-0.8,0.8-1.4,1.4-2c0.6-0.6,1.3-1,2-1.4s1.6-0.5,2.5-0.5c0.9,0,1.7,0.2,2.5,0.5s1.5,0.8,2.1,1.3c0.6,0.6,1.1,1.2,1.4,2
				C628.7,102.8,628.9,103.6,628.9,104.4z M616.9,94.4V63.3h11v31.1H616.9z"/>
		</g>
		<g>
			<path d="M6.4,144.1H12v31.2H6.4V144.1z"/>
			<path d="M15.5,158.4v-4.2h3.7V148h5.2v6.1h5.3v4.2h-5.3v9.8c0,0.9,0.2,1.7,0.5,2.3c0.3,0.6,1.1,0.9,2.3,0.9c0.4,0,0.7,0,1.1-0.1
				c0.4-0.1,0.8-0.2,1.1-0.3l0.2,4.1c-0.5,0.2-1,0.3-1.7,0.4c-0.6,0.1-1.3,0.2-1.8,0.2c-1.4,0-2.6-0.2-3.4-0.6
				c-0.9-0.4-1.6-0.9-2.1-1.6c-0.5-0.7-0.9-1.5-1.1-2.4c-0.2-0.9-0.3-1.9-0.3-2.9v-9.9H15.5z"/>
			<path d="M36.4,144.1h5.1l-3.7,11.6h-4.4L36.4,144.1z"/>
			<path d="M55.9,159.8c-0.5-0.6-1.1-1.2-1.9-1.6c-0.8-0.5-1.7-0.7-2.7-0.7c-0.9,0-1.6,0.2-2.3,0.5s-1.1,0.9-1.1,1.8
				c0,0.8,0.4,1.4,1.2,1.7c0.8,0.3,1.9,0.7,3.4,1c0.8,0.2,1.6,0.4,2.4,0.7c0.8,0.3,1.5,0.7,2.2,1.2c0.7,0.5,1.2,1.1,1.6,1.8
				c0.4,0.7,0.6,1.6,0.6,2.6c0,1.3-0.2,2.4-0.7,3.3c-0.5,0.9-1.1,1.6-1.9,2.2c-0.8,0.6-1.7,1-2.8,1.2c-1.1,0.2-2.2,0.4-3.3,0.4
				c-1.6,0-3.2-0.3-4.8-0.9c-1.6-0.6-2.8-1.5-3.9-2.6l3.5-3.3c0.6,0.8,1.3,1.4,2.3,1.9c0.9,0.5,2,0.7,3.1,0.7c0.4,0,0.8,0,1.2-0.1
				s0.8-0.2,1.1-0.4c0.3-0.2,0.6-0.4,0.8-0.8c0.2-0.3,0.3-0.7,0.3-1.2c0-0.9-0.4-1.5-1.2-1.9c-0.8-0.4-2-0.8-3.6-1.1
				c-0.8-0.2-1.6-0.4-2.3-0.7c-0.7-0.3-1.4-0.6-2-1.1c-0.6-0.5-1.1-1-1.4-1.7c-0.4-0.7-0.5-1.5-0.5-2.5c0-1.2,0.2-2.2,0.7-3
				c0.5-0.9,1.1-1.5,1.9-2.1c0.8-0.5,1.7-0.9,2.7-1.2c1-0.3,2-0.4,3.1-0.4c1.5,0,3,0.3,4.5,0.8c1.5,0.5,2.6,1.3,3.5,2.4L55.9,159.8z
				"/>
			<path d="M73.7,159.6c0-2.5,0.4-4.7,1.3-6.8c0.8-2,2-3.7,3.5-5.1c1.5-1.4,3.2-2.5,5.3-3.3c2-0.8,4.3-1.1,6.7-1.1
				c2.4,0,4.7,0.4,6.7,1.1c2.1,0.8,3.8,1.8,5.3,3.3c1.5,1.4,2.7,3.1,3.5,5.1c0.8,2,1.3,4.3,1.3,6.8c0,2.4-0.4,4.7-1.3,6.7
				c-0.8,2-2,3.7-3.5,5.2c-1.5,1.5-3.3,2.6-5.3,3.4c-2.1,0.8-4.3,1.2-6.7,1.2c-2.4,0-4.6-0.4-6.7-1.2c-2-0.8-3.8-1.9-5.3-3.4
				c-1.5-1.5-2.6-3.2-3.5-5.2C74.1,164.3,73.7,162,73.7,159.6z M79.7,159.6c0,1.7,0.3,3.2,0.8,4.6c0.5,1.4,1.2,2.6,2.2,3.6
				c1,1,2.1,1.8,3.4,2.4c1.3,0.6,2.8,0.9,4.3,0.9c1.6,0,3-0.3,4.4-0.9c1.3-0.6,2.5-1.4,3.4-2.4c1-1,1.7-2.2,2.2-3.6
				c0.5-1.4,0.8-2.9,0.8-4.6c0-1.6-0.3-3.1-0.8-4.5c-0.5-1.4-1.2-2.6-2.2-3.6c-0.9-1-2.1-1.8-3.4-2.4c-1.3-0.6-2.8-0.9-4.4-0.9
				s-3.1,0.3-4.4,0.9s-2.4,1.4-3.4,2.4c-0.9,1-1.7,2.2-2.2,3.6C79.9,156.5,79.7,158,79.7,159.6z"/>
			<path d="M121.4,166.7h-10.6v-4.5h10.6V166.7z"/>
			<path d="M122.9,144.1h6.1l6,22.9h0.1l6.9-22.9h5.7l6.7,22.9h0.1l6.2-22.9h5.9l-9.1,31.2h-5.4l-7.3-23.4h-0.1l-7.3,23.4H132
				L122.9,144.1z"/>
			<path d="M188.5,165c0,0.2,0,0.5,0,0.7s0,0.5,0,0.7h-16.1c0.1,0.8,0.3,1.5,0.6,2.1c0.3,0.6,0.8,1.2,1.3,1.6
				c0.6,0.5,1.2,0.8,1.9,1.1s1.4,0.4,2.2,0.4c1.3,0,2.4-0.2,3.3-0.7c0.9-0.5,1.7-1.2,2.2-2l3.5,2.8c-2.1,2.8-5.1,4.2-9.1,4.2
				c-1.6,0-3.2-0.3-4.5-0.8c-1.4-0.5-2.6-1.2-3.6-2.2c-1-0.9-1.8-2.1-2.4-3.5c-0.6-1.4-0.9-2.9-0.9-4.6c0-1.7,0.3-3.2,0.9-4.6
				c0.6-1.4,1.4-2.6,2.4-3.6c1-1,2.2-1.7,3.5-2.3c1.4-0.5,2.8-0.8,4.4-0.8c1.5,0,2.8,0.2,4.1,0.7c1.2,0.5,2.3,1.2,3.2,2.2
				c0.9,1,1.6,2.1,2.1,3.6S188.5,163.1,188.5,165z M183.3,162.6c0-0.7-0.1-1.3-0.3-1.9c-0.2-0.6-0.5-1.2-0.9-1.6
				c-0.4-0.5-0.9-0.8-1.6-1.1c-0.6-0.3-1.4-0.4-2.2-0.4c-1.6,0-2.9,0.5-4,1.4s-1.7,2.2-1.8,3.7H183.3z"/>
			<path d="M213.8,165c0,0.2,0,0.5,0,0.7s0,0.5,0,0.7h-16.1c0.1,0.8,0.3,1.5,0.6,2.1c0.3,0.6,0.8,1.2,1.3,1.6
				c0.6,0.5,1.2,0.8,1.9,1.1s1.4,0.4,2.2,0.4c1.3,0,2.4-0.2,3.3-0.7c0.9-0.5,1.7-1.2,2.2-2l3.5,2.8c-2.1,2.8-5.1,4.2-9.1,4.2
				c-1.6,0-3.2-0.3-4.5-0.8c-1.4-0.5-2.6-1.2-3.6-2.2c-1-0.9-1.8-2.1-2.4-3.5c-0.6-1.4-0.9-2.9-0.9-4.6c0-1.7,0.3-3.2,0.9-4.6
				c0.6-1.4,1.4-2.6,2.4-3.6c1-1,2.2-1.7,3.5-2.3c1.4-0.5,2.8-0.8,4.4-0.8c1.5,0,2.8,0.2,4.1,0.7c1.2,0.5,2.3,1.2,3.2,2.2
				c0.9,1,1.6,2.1,2.1,3.6S213.8,163.1,213.8,165z M208.5,162.6c0-0.7-0.1-1.3-0.3-1.9c-0.2-0.6-0.5-1.2-0.9-1.6
				c-0.4-0.5-0.9-0.8-1.6-1.1c-0.6-0.3-1.4-0.4-2.2-0.4c-1.6,0-2.9,0.5-4,1.4s-1.7,2.2-1.8,3.7H208.5z"/>
			<path d="M219,142h5.3v21h0.1l8-8.9h6.8l-9.2,9.5l9.7,11.6h-7l-8.4-10.8h-0.1v10.8H219V142z"/>
			<path d="M241.8,172.2c0-0.9,0.3-1.7,1-2.4c0.7-0.7,1.5-1,2.5-1c0.9,0,1.8,0.3,2.5,1s1.1,1.4,1.1,2.4c0,0.9-0.3,1.7-1,2.4
				c-0.7,0.7-1.5,1-2.5,1c-0.5,0-0.9-0.1-1.3-0.3c-0.4-0.2-0.8-0.4-1.1-0.7c-0.3-0.3-0.6-0.6-0.8-1.1
				C241.9,173.1,241.8,172.7,241.8,172.2z"/>
			<path d="M264.2,144.1h5.5v26.2H283v4.9h-18.8V144.1z"/>
			<path d="M305.8,165c0,0.2,0,0.5,0,0.7s0,0.5,0,0.7h-16.1c0.1,0.8,0.3,1.5,0.6,2.1c0.3,0.6,0.8,1.2,1.3,1.6
				c0.6,0.5,1.2,0.8,1.9,1.1s1.4,0.4,2.2,0.4c1.3,0,2.4-0.2,3.3-0.7c0.9-0.5,1.7-1.2,2.2-2l3.5,2.8c-2.1,2.8-5.1,4.2-9.1,4.2
				c-1.6,0-3.2-0.3-4.5-0.8c-1.4-0.5-2.6-1.2-3.6-2.2c-1-0.9-1.8-2.1-2.4-3.5c-0.6-1.4-0.9-2.9-0.9-4.6c0-1.7,0.3-3.2,0.9-4.6
				c0.6-1.4,1.4-2.6,2.4-3.6c1-1,2.2-1.7,3.5-2.3c1.4-0.5,2.8-0.8,4.4-0.8c1.5,0,2.8,0.2,4.1,0.7c1.2,0.5,2.3,1.2,3.2,2.2
				c0.9,1,1.6,2.1,2.1,3.6S305.8,163.1,305.8,165z M300.5,162.6c0-0.7-0.1-1.3-0.3-1.9c-0.2-0.6-0.5-1.2-0.9-1.6
				c-0.4-0.5-0.9-0.8-1.6-1.1c-0.6-0.3-1.4-0.4-2.2-0.4c-1.6,0-2.9,0.5-4,1.4s-1.7,2.2-1.8,3.7H300.5z"/>
			<path d="M323.7,172.6h-0.1c-0.5,0.9-1.4,1.7-2.6,2.3c-1.2,0.6-2.5,0.9-4,0.9c-0.9,0-1.7-0.1-2.7-0.3c-0.9-0.2-1.8-0.6-2.6-1.1
				c-0.8-0.5-1.4-1.2-1.9-2c-0.5-0.8-0.8-1.9-0.8-3.1c0-1.6,0.4-2.8,1.3-3.8c0.9-0.9,2-1.7,3.5-2.2c1.4-0.5,3-0.8,4.7-1
				c1.7-0.2,3.4-0.2,5-0.2v-0.5c0-1.3-0.5-2.3-1.4-2.9c-1-0.6-2.1-0.9-3.4-0.9c-1.1,0-2.2,0.2-3.2,0.7c-1,0.5-1.9,1-2.6,1.7
				l-2.7-3.2c1.2-1.1,2.6-1.9,4.2-2.5c1.6-0.6,3.2-0.8,4.8-0.8c1.9,0,3.4,0.3,4.6,0.8c1.2,0.5,2.2,1.2,2.9,2.1s1.2,1.8,1.5,2.9
				c0.3,1.1,0.4,2.1,0.4,3.2v12.8h-4.9V172.6z M323.6,165.6h-1.2c-0.9,0-1.7,0-2.7,0.1c-0.9,0.1-1.8,0.2-2.6,0.5s-1.5,0.6-2,1.1
				c-0.5,0.5-0.8,1.1-0.8,1.9c0,0.5,0.1,0.9,0.3,1.3c0.2,0.3,0.5,0.6,0.9,0.8c0.4,0.2,0.7,0.4,1.2,0.4s0.9,0.1,1.3,0.1
				c1.8,0,3.2-0.5,4.1-1.5c0.9-1,1.4-2.3,1.4-4V165.6z"/>
			<path d="M334.8,154.1h5.1v3.5h0.1c0.6-1.2,1.4-2.2,2.5-3c1.1-0.8,2.3-1.1,3.7-1.1c0.2,0,0.4,0,0.7,0c0.2,0,0.4,0.1,0.6,0.1v4.8
				c-0.4-0.1-0.7-0.1-0.9-0.2s-0.5,0-0.7,0c-1.2,0-2.2,0.2-2.9,0.7c-0.7,0.4-1.3,1-1.7,1.6c-0.4,0.6-0.7,1.2-0.8,1.9
				c-0.1,0.6-0.2,1.2-0.2,1.5v11.3h-5.3V154.1z"/>
			<path d="M350.8,154.1h5v3.4h0.1c0.5-1.1,1.3-2,2.4-2.8c1.2-0.8,2.5-1.2,4.1-1.2c1.4,0,2.6,0.2,3.5,0.7c1,0.5,1.8,1.1,2.4,1.9
				c0.6,0.8,1.1,1.7,1.4,2.7c0.3,1,0.4,2.1,0.4,3.2v13.2H365v-11.7c0-0.6,0-1.3-0.1-1.9c-0.1-0.7-0.3-1.3-0.6-1.8
				c-0.3-0.5-0.7-1-1.2-1.3c-0.5-0.4-1.2-0.5-2-0.5c-0.9,0-1.6,0.2-2.2,0.5c-0.6,0.3-1.1,0.8-1.5,1.3c-0.4,0.5-0.7,1.1-0.9,1.8
				c-0.2,0.7-0.3,1.4-0.3,2.1v11.6h-5.3V154.1z"/>
			<path d="M399.2,153.5c1.4,0,2.6,0.2,3.5,0.7c1,0.5,1.8,1.1,2.4,1.9c0.6,0.8,1.1,1.7,1.4,2.7c0.3,1,0.4,2.1,0.4,3.2v13.2h-5.3
				v-11.6c0-0.6,0-1.3-0.1-1.9c-0.1-0.7-0.3-1.3-0.5-1.8c-0.3-0.5-0.7-1-1.2-1.3c-0.5-0.4-1.2-0.5-2-0.5s-1.6,0.2-2.2,0.5
				c-0.6,0.3-1.1,0.8-1.5,1.3s-0.7,1.2-0.9,1.8s-0.3,1.4-0.3,2.1v11.5h-5.3V142h5.3v15.1h0.1c0.2-0.4,0.5-0.9,0.9-1.3
				c0.4-0.4,0.9-0.8,1.4-1.1c0.5-0.3,1.1-0.6,1.8-0.8S398.4,153.5,399.2,153.5z"/>
			<path d="M411.9,164.6c0-1.7,0.3-3.2,0.9-4.6c0.6-1.4,1.4-2.5,2.4-3.5c1-1,2.2-1.7,3.7-2.2c1.4-0.5,2.9-0.8,4.5-0.8
				s3.1,0.3,4.5,0.8c1.4,0.5,2.6,1.3,3.7,2.2c1,1,1.8,2.1,2.4,3.5c0.6,1.4,0.9,2.9,0.9,4.6s-0.3,3.2-0.9,4.6
				c-0.6,1.4-1.4,2.6-2.4,3.5c-1,1-2.2,1.8-3.7,2.3c-1.4,0.6-2.9,0.8-4.5,0.8s-3.1-0.3-4.5-0.8c-1.4-0.6-2.6-1.3-3.7-2.3
				c-1-1-1.8-2.2-2.4-3.5C412.2,167.8,411.9,166.3,411.9,164.6z M417.3,164.6c0,0.8,0.1,1.6,0.4,2.5s0.6,1.6,1.1,2.2
				c0.5,0.6,1.1,1.2,1.9,1.6c0.8,0.4,1.7,0.6,2.7,0.6s2-0.2,2.7-0.6c0.8-0.4,1.4-0.9,1.9-1.6c0.5-0.6,0.9-1.4,1.1-2.2
				c0.2-0.8,0.4-1.6,0.4-2.5c0-0.8-0.1-1.6-0.4-2.4c-0.2-0.8-0.6-1.5-1.1-2.2c-0.5-0.6-1.1-1.2-1.9-1.6c-0.8-0.4-1.7-0.6-2.7-0.6
				s-2,0.2-2.7,0.6c-0.8,0.4-1.4,0.9-1.9,1.6c-0.5,0.6-0.9,1.4-1.1,2.2S417.3,163.8,417.3,164.6z"/>
			<path d="M437,154.1h5.7l4.4,15.1h0.1l4.5-15.1h5.6l4.6,15.1h0.1l4.5-15.1h5.5l-7.3,21.1h-5.4l-4.8-14.8h-0.1l-4.8,14.8h-5.4
				L437,154.1z"/>
			<path d="M483.3,158.4v-4.2h3.7V148h5.2v6.1h5.3v4.2h-5.3v9.8c0,0.9,0.2,1.7,0.5,2.3c0.3,0.6,1.1,0.9,2.3,0.9c0.4,0,0.7,0,1.1-0.1
				s0.8-0.2,1.1-0.3l0.2,4.1c-0.5,0.2-1,0.3-1.7,0.4c-0.6,0.1-1.3,0.2-1.8,0.2c-1.4,0-2.6-0.2-3.4-0.6c-0.9-0.4-1.6-0.9-2.1-1.6
				c-0.5-0.7-0.9-1.5-1.1-2.4c-0.2-0.9-0.3-1.9-0.3-2.9v-9.9H483.3z"/>
			<path d="M500.1,164.6c0-1.7,0.3-3.2,0.9-4.6c0.6-1.4,1.4-2.5,2.4-3.5c1-1,2.2-1.7,3.7-2.2c1.4-0.5,2.9-0.8,4.5-0.8
				s3.1,0.3,4.5,0.8c1.4,0.5,2.6,1.3,3.7,2.2c1,1,1.8,2.1,2.4,3.5c0.6,1.4,0.9,2.9,0.9,4.6s-0.3,3.2-0.9,4.6
				c-0.6,1.4-1.4,2.6-2.4,3.5c-1,1-2.2,1.8-3.7,2.3c-1.4,0.6-2.9,0.8-4.5,0.8s-3.1-0.3-4.5-0.8c-1.4-0.6-2.6-1.3-3.7-2.3
				c-1-1-1.8-2.2-2.4-3.5C500.4,167.8,500.1,166.3,500.1,164.6z M505.4,164.6c0,0.8,0.1,1.6,0.4,2.5s0.6,1.6,1.1,2.2
				c0.5,0.6,1.1,1.2,1.9,1.6c0.8,0.4,1.7,0.6,2.7,0.6s2-0.2,2.7-0.6c0.8-0.4,1.4-0.9,1.9-1.6c0.5-0.6,0.9-1.4,1.1-2.2
				c0.2-0.8,0.4-1.6,0.4-2.5c0-0.8-0.1-1.6-0.4-2.4c-0.2-0.8-0.6-1.5-1.1-2.2c-0.5-0.6-1.1-1.2-1.9-1.6c-0.8-0.4-1.7-0.6-2.7-0.6
				s-2,0.2-2.7,0.6c-0.8,0.4-1.4,0.9-1.9,1.6c-0.5,0.6-0.9,1.4-1.1,2.2S505.4,163.8,505.4,164.6z"/>
			<path d="M17.7,212.6c-0.5-0.6-1.1-1.2-1.9-1.6c-0.8-0.5-1.7-0.7-2.7-0.7c-0.9,0-1.6,0.2-2.3,0.5c-0.7,0.4-1.1,0.9-1.1,1.8
				s0.4,1.4,1.2,1.7c0.8,0.3,1.9,0.7,3.4,1c0.8,0.2,1.6,0.4,2.4,0.7c0.8,0.3,1.5,0.7,2.2,1.2c0.7,0.5,1.2,1.1,1.6,1.8
				c0.4,0.7,0.6,1.6,0.6,2.6c0,1.3-0.2,2.4-0.7,3.3c-0.5,0.9-1.1,1.6-1.9,2.2c-0.8,0.6-1.7,1-2.8,1.2c-1.1,0.2-2.2,0.4-3.3,0.4
				c-1.6,0-3.2-0.3-4.8-0.9c-1.6-0.6-2.8-1.5-3.9-2.6l3.5-3.3c0.6,0.8,1.3,1.4,2.3,1.9c0.9,0.5,2,0.7,3.1,0.7c0.4,0,0.8,0,1.2-0.1
				s0.8-0.2,1.1-0.4c0.3-0.2,0.6-0.4,0.8-0.8c0.2-0.3,0.3-0.7,0.3-1.2c0-0.9-0.4-1.5-1.2-1.9c-0.8-0.4-2-0.8-3.6-1.1
				c-0.8-0.2-1.6-0.4-2.3-0.7c-0.7-0.3-1.4-0.6-2-1.1c-0.6-0.5-1.1-1-1.4-1.7s-0.5-1.5-0.5-2.5c0-1.2,0.2-2.2,0.7-3
				c0.5-0.8,1.1-1.5,1.9-2.1c0.8-0.5,1.7-0.9,2.7-1.2c1-0.3,2-0.4,3.1-0.4c1.5,0,3,0.3,4.5,0.8c1.5,0.5,2.6,1.3,3.5,2.4L17.7,212.6z
				"/>
			<path d="M45,228.1h-5v-3.4h-0.1c-0.5,1.1-1.3,2-2.4,2.8c-1.2,0.8-2.5,1.2-4.1,1.2c-1.4,0-2.6-0.2-3.5-0.7c-1-0.5-1.8-1.1-2.4-1.9
				c-0.6-0.8-1.1-1.7-1.4-2.7c-0.3-1-0.4-2.1-0.4-3.2v-13.2h5.3v11.7c0,0.6,0,1.3,0.1,1.9c0.1,0.7,0.3,1.3,0.6,1.8
				c0.3,0.5,0.7,1,1.2,1.3c0.5,0.4,1.2,0.5,2,0.5c0.8,0,1.5-0.2,2.2-0.5c0.6-0.3,1.1-0.8,1.5-1.3c0.4-0.5,0.7-1.1,0.9-1.8
				c0.2-0.7,0.3-1.4,0.3-2.1v-11.6H45V228.1z"/>
			<path d="M65.7,212.8c-0.4-0.6-1-1.1-1.8-1.5c-0.8-0.4-1.7-0.6-2.5-0.6c-1,0-1.8,0.2-2.6,0.6c-0.7,0.4-1.3,0.9-1.8,1.6
				c-0.5,0.6-0.8,1.4-1.1,2.2c-0.2,0.8-0.4,1.6-0.4,2.4c0,0.8,0.1,1.6,0.4,2.4c0.2,0.8,0.6,1.5,1.1,2.2c0.5,0.6,1.1,1.2,1.9,1.6
				c0.7,0.4,1.6,0.6,2.6,0.6c0.8,0,1.6-0.2,2.5-0.5c0.8-0.3,1.5-0.8,2-1.4l3.3,3.3c-0.9,0.9-2,1.7-3.4,2.2c-1.4,0.5-2.8,0.8-4.4,0.8
				c-1.6,0-3-0.2-4.4-0.7c-1.4-0.5-2.6-1.2-3.7-2.2c-1-1-1.9-2.1-2.5-3.5c-0.6-1.4-0.9-2.9-0.9-4.7c0-1.7,0.3-3.2,0.9-4.6
				c0.6-1.4,1.4-2.6,2.4-3.5c1-1,2.2-1.7,3.6-2.2c1.4-0.5,2.8-0.8,4.4-0.8c1.6,0,3.1,0.3,4.5,0.9s2.6,1.4,3.5,2.4L65.7,212.8z"/>
			<path d="M87.2,212.8c-0.4-0.6-1-1.1-1.8-1.5c-0.8-0.4-1.7-0.6-2.5-0.6c-1,0-1.8,0.2-2.6,0.6c-0.7,0.4-1.3,0.9-1.8,1.6
				c-0.5,0.6-0.8,1.4-1.1,2.2c-0.2,0.8-0.4,1.6-0.4,2.4c0,0.8,0.1,1.6,0.4,2.4c0.2,0.8,0.6,1.5,1.1,2.2c0.5,0.6,1.1,1.2,1.9,1.6
				c0.7,0.4,1.6,0.6,2.6,0.6c0.8,0,1.6-0.2,2.5-0.5c0.8-0.3,1.5-0.8,2-1.4l3.3,3.3c-0.9,0.9-2,1.7-3.4,2.2c-1.4,0.5-2.8,0.8-4.4,0.8
				c-1.6,0-3-0.2-4.4-0.7c-1.4-0.5-2.6-1.2-3.7-2.2c-1-1-1.9-2.1-2.5-3.5c-0.6-1.4-0.9-2.9-0.9-4.7c0-1.7,0.3-3.2,0.9-4.6
				c0.6-1.4,1.4-2.6,2.4-3.5c1-1,2.2-1.7,3.6-2.2c1.4-0.5,2.8-0.8,4.4-0.8c1.6,0,3.1,0.3,4.5,0.9s2.6,1.4,3.5,2.4L87.2,212.8z"/>
			<path d="M114.4,217.8c0,0.2,0,0.5,0,0.7c0,0.2,0,0.5,0,0.7H98.3c0.1,0.8,0.3,1.5,0.6,2.1c0.3,0.6,0.8,1.2,1.3,1.6
				c0.6,0.5,1.2,0.8,1.9,1.1c0.7,0.3,1.4,0.4,2.2,0.4c1.3,0,2.4-0.2,3.3-0.7c0.9-0.5,1.7-1.2,2.2-2l3.5,2.8
				c-2.1,2.8-5.1,4.2-9.1,4.2c-1.6,0-3.2-0.3-4.5-0.8c-1.4-0.5-2.6-1.2-3.6-2.2c-1-0.9-1.8-2.1-2.4-3.5c-0.6-1.4-0.9-2.9-0.9-4.6
				c0-1.7,0.3-3.2,0.9-4.6c0.6-1.4,1.4-2.6,2.4-3.6c1-1,2.2-1.7,3.5-2.3c1.4-0.5,2.8-0.8,4.4-0.8c1.5,0,2.8,0.2,4.1,0.7
				c1.2,0.5,2.3,1.2,3.2,2.2c0.9,1,1.6,2.1,2.1,3.6C114.1,214.2,114.4,215.9,114.4,217.8z M109.1,215.4c0-0.7-0.1-1.3-0.3-1.9
				c-0.2-0.6-0.5-1.2-0.9-1.6c-0.4-0.5-0.9-0.8-1.6-1.1c-0.6-0.3-1.4-0.4-2.2-0.4c-1.6,0-2.9,0.5-4,1.4c-1.1,1-1.7,2.2-1.8,3.7
				H109.1z"/>
			<path d="M139.7,217.8c0,0.2,0,0.5,0,0.7c0,0.2,0,0.5,0,0.7h-16.1c0.1,0.8,0.3,1.5,0.6,2.1c0.3,0.6,0.8,1.2,1.3,1.6
				c0.6,0.5,1.2,0.8,1.9,1.1c0.7,0.3,1.4,0.4,2.2,0.4c1.3,0,2.4-0.2,3.3-0.7c0.9-0.5,1.7-1.2,2.2-2l3.5,2.8
				c-2.1,2.8-5.1,4.2-9.1,4.2c-1.6,0-3.2-0.3-4.5-0.8c-1.4-0.5-2.6-1.2-3.6-2.2c-1-0.9-1.8-2.1-2.4-3.5c-0.6-1.4-0.9-2.9-0.9-4.6
				c0-1.7,0.3-3.2,0.9-4.6c0.6-1.4,1.4-2.6,2.4-3.6c1-1,2.2-1.7,3.5-2.3c1.4-0.5,2.8-0.8,4.4-0.8c1.5,0,2.8,0.2,4.1,0.7
				c1.2,0.5,2.3,1.2,3.2,2.2c0.9,1,1.6,2.1,2.1,3.6C139.4,214.2,139.7,215.9,139.7,217.8z M134.4,215.4c0-0.7-0.1-1.3-0.3-1.9
				c-0.2-0.6-0.5-1.2-0.9-1.6c-0.4-0.5-0.9-0.8-1.6-1.1c-0.6-0.3-1.4-0.4-2.2-0.4c-1.6,0-2.9,0.5-4,1.4c-1.1,1-1.7,2.2-1.8,3.7
				H134.4z"/>
			<path d="M166.2,228.1h-5v-3.2h-0.1c-0.7,1.2-1.8,2.2-3.1,2.8c-1.3,0.6-2.7,1-4.2,1c-1.6,0-3.1-0.3-4.3-0.9
				c-1.3-0.6-2.4-1.4-3.3-2.4c-0.9-1-1.6-2.2-2.1-3.6c-0.5-1.4-0.7-2.8-0.7-4.4s0.2-3,0.7-4.4c0.5-1.3,1.2-2.5,2.1-3.5
				c0.9-1,2-1.8,3.3-2.4s2.6-0.9,4.1-0.9c1,0,1.8,0.1,2.6,0.3c0.8,0.2,1.4,0.5,2,0.8c0.6,0.3,1.1,0.7,1.5,1.1c0.4,0.4,0.7,0.7,1,1.1
				h0.1v-14.8h5.3V228.1z M148.9,217.4c0,0.8,0.1,1.6,0.4,2.5c0.2,0.8,0.6,1.6,1.1,2.2c0.5,0.6,1.1,1.2,1.9,1.6
				c0.8,0.4,1.7,0.6,2.7,0.6c1,0,1.8-0.2,2.6-0.6c0.8-0.4,1.4-0.9,2-1.6c0.5-0.6,1-1.4,1.2-2.2c0.3-0.8,0.4-1.6,0.4-2.4
				c0-0.8-0.1-1.6-0.4-2.5c-0.3-0.8-0.7-1.6-1.2-2.2c-0.5-0.6-1.2-1.2-2-1.6c-0.8-0.4-1.6-0.6-2.6-0.6c-1,0-1.9,0.2-2.7,0.6
				c-0.8,0.4-1.4,0.9-1.9,1.6c-0.5,0.6-0.9,1.4-1.1,2.2C149,215.8,148.9,216.6,148.9,217.4z"/>
			<path d="M196.8,225.4h-0.1c-0.5,0.9-1.4,1.7-2.6,2.3c-1.2,0.6-2.5,0.9-4,0.9c-0.9,0-1.7-0.1-2.7-0.3c-0.9-0.2-1.8-0.6-2.6-1.1
				c-0.8-0.5-1.4-1.2-1.9-2c-0.5-0.8-0.8-1.9-0.8-3.1c0-1.6,0.4-2.8,1.3-3.8c0.9-0.9,2-1.7,3.5-2.2c1.4-0.5,3-0.8,4.7-1
				c1.7-0.2,3.4-0.2,5-0.2v-0.5c0-1.3-0.5-2.3-1.4-2.9c-1-0.6-2.1-0.9-3.4-0.9c-1.1,0-2.2,0.2-3.2,0.7c-1,0.5-1.9,1-2.6,1.7
				l-2.7-3.2c1.2-1.1,2.6-2,4.2-2.5c1.6-0.6,3.2-0.8,4.8-0.8c1.9,0,3.4,0.3,4.6,0.8c1.2,0.5,2.2,1.2,2.9,2.1
				c0.7,0.9,1.2,1.8,1.5,2.9c0.3,1.1,0.4,2.1,0.4,3.2v12.8h-4.9V225.4z M196.7,218.4h-1.2c-0.9,0-1.7,0-2.7,0.1
				c-0.9,0.1-1.8,0.2-2.6,0.5c-0.8,0.2-1.5,0.6-2,1.1c-0.5,0.5-0.8,1.1-0.8,1.9c0,0.5,0.1,0.9,0.3,1.3c0.2,0.3,0.5,0.6,0.9,0.8
				c0.4,0.2,0.7,0.4,1.2,0.4s0.9,0.1,1.3,0.1c1.8,0,3.2-0.5,4.1-1.5c0.9-1,1.4-2.3,1.4-4V218.4z"/>
			<path d="M204.4,211.2v-4.2h3.7v-6.1h5.2v6.1h5.3v4.2h-5.3v9.8c0,0.9,0.2,1.7,0.5,2.3c0.3,0.6,1.1,0.9,2.3,0.9
				c0.4,0,0.7,0,1.1-0.1c0.4-0.1,0.8-0.2,1.1-0.3l0.2,4.1c-0.5,0.2-1,0.3-1.7,0.4c-0.6,0.1-1.3,0.2-1.8,0.2c-1.4,0-2.6-0.2-3.4-0.6
				c-0.9-0.4-1.6-0.9-2.1-1.6c-0.5-0.7-0.9-1.5-1.1-2.4c-0.2-0.9-0.3-1.9-0.3-2.9v-9.9H204.4z"/>
			<path d="M233.6,196.9h20.6v4.8h-15.1v7.9h14.3v4.7h-14.3v8.8h15.9v4.9h-21.4V196.9z"/>
			<path d="M256.5,206.9h5.8l5.5,15.4h0.1l5.6-15.4h5.6l-8.4,21.1h-5.6L256.5,206.9z"/>
			<path d="M302.4,217.8c0,0.2,0,0.5,0,0.7c0,0.2,0,0.5,0,0.7h-16.1c0.1,0.8,0.3,1.5,0.6,2.1c0.3,0.6,0.8,1.2,1.3,1.6
				c0.6,0.5,1.2,0.8,1.9,1.1c0.7,0.3,1.4,0.4,2.2,0.4c1.3,0,2.4-0.2,3.3-0.7c0.9-0.5,1.7-1.2,2.2-2l3.5,2.8
				c-2.1,2.8-5.1,4.2-9.1,4.2c-1.6,0-3.2-0.3-4.5-0.8c-1.4-0.5-2.6-1.2-3.6-2.2c-1-0.9-1.8-2.1-2.4-3.5c-0.6-1.4-0.9-2.9-0.9-4.6
				c0-1.7,0.3-3.2,0.9-4.6c0.6-1.4,1.4-2.6,2.4-3.6c1-1,2.2-1.7,3.5-2.3c1.4-0.5,2.8-0.8,4.4-0.8c1.5,0,2.8,0.2,4.1,0.7
				c1.2,0.5,2.3,1.2,3.2,2.2c0.9,1,1.6,2.1,2.1,3.6C302.2,214.2,302.4,215.9,302.4,217.8z M297.1,215.4c0-0.7-0.1-1.3-0.3-1.9
				c-0.2-0.6-0.5-1.2-0.9-1.6c-0.4-0.5-0.9-0.8-1.6-1.1c-0.6-0.3-1.4-0.4-2.2-0.4c-1.6,0-2.9,0.5-4,1.4c-1.1,1-1.7,2.2-1.8,3.7
				H297.1z"/>
			<path d="M307.5,206.9h5.1v3.5h0.1c0.6-1.2,1.4-2.2,2.5-3c1.1-0.8,2.3-1.1,3.7-1.1c0.2,0,0.4,0,0.7,0c0.2,0,0.4,0.1,0.6,0.1v4.8
				c-0.4-0.1-0.7-0.1-0.9-0.2c-0.2,0-0.5,0-0.7,0c-1.2,0-2.2,0.2-2.9,0.7c-0.7,0.4-1.3,1-1.7,1.6c-0.4,0.6-0.7,1.2-0.8,1.9
				c-0.1,0.6-0.2,1.2-0.2,1.5v11.3h-5.3V206.9z"/>
			<path d="M344.2,206.9v19.2c0,1.9-0.2,3.6-0.7,5.2c-0.5,1.5-1.2,2.8-2.2,3.9c-1,1.1-2.2,1.9-3.7,2.5c-1.5,0.6-3.3,0.9-5.3,0.9
				c-0.9,0-1.8-0.1-2.7-0.2c-1-0.1-1.9-0.4-2.8-0.7c-0.9-0.3-1.8-0.7-2.7-1.1c-0.9-0.4-1.6-0.9-2.3-1.5l3-4.1c1,1,2.2,1.7,3.5,2.2
				s2.6,0.8,3.9,0.8c1.3,0,2.3-0.2,3.2-0.6c0.9-0.4,1.6-0.9,2.1-1.5c0.5-0.6,0.9-1.4,1.1-2.3c0.2-0.9,0.3-1.9,0.3-2.9v-1.5h-0.1
				c-0.8,1-1.7,1.8-2.9,2.4c-1.2,0.5-2.5,0.8-4,0.8c-1.6,0-3-0.3-4.3-0.9s-2.4-1.4-3.3-2.4c-0.9-1-1.6-2.2-2.1-3.5
				c-0.5-1.3-0.7-2.8-0.7-4.2c0-1.5,0.2-3,0.7-4.3c0.5-1.3,1.2-2.5,2.1-3.5c0.9-1,2-1.8,3.3-2.4c1.3-0.6,2.7-0.9,4.3-0.9
				c1.5,0,2.9,0.3,4.2,0.9c1.3,0.6,2.3,1.6,3.1,2.9h0.1v-3.2H344.2z M333,210.6c-1,0-1.8,0.2-2.6,0.5c-0.7,0.4-1.4,0.8-1.9,1.4
				c-0.5,0.6-0.9,1.3-1.2,2.1s-0.4,1.7-0.4,2.6c0,0.8,0.1,1.7,0.4,2.5s0.7,1.5,1.2,2.1c0.5,0.6,1.1,1.1,1.9,1.5
				c0.7,0.4,1.6,0.6,2.5,0.6c1,0,1.8-0.2,2.6-0.5c0.8-0.4,1.4-0.9,2-1.5s1-1.3,1.3-2.1c0.3-0.8,0.4-1.6,0.4-2.5
				c0-0.9-0.1-1.8-0.4-2.6c-0.3-0.8-0.7-1.5-1.3-2.1c-0.5-0.6-1.2-1.1-2-1.4C334.8,210.8,333.9,210.6,333,210.6z"/>
			<path d="M350.5,206.9h5.1v3.5h0.1c0.6-1.2,1.4-2.2,2.5-3c1.1-0.8,2.3-1.1,3.7-1.1c0.2,0,0.4,0,0.7,0c0.2,0,0.4,0.1,0.6,0.1v4.8
				c-0.4-0.1-0.7-0.1-0.9-0.2c-0.2,0-0.5,0-0.7,0c-1.2,0-2.2,0.2-2.9,0.7c-0.7,0.4-1.3,1-1.7,1.6c-0.4,0.6-0.7,1.2-0.8,1.9
				c-0.1,0.6-0.2,1.2-0.2,1.5v11.3h-5.3V206.9z"/>
			<path d="M385.9,217.8c0,0.2,0,0.5,0,0.7c0,0.2,0,0.5,0,0.7h-16.1c0.1,0.8,0.3,1.5,0.6,2.1c0.3,0.6,0.8,1.2,1.3,1.6
				c0.6,0.5,1.2,0.8,1.9,1.1c0.7,0.3,1.4,0.4,2.2,0.4c1.3,0,2.4-0.2,3.3-0.7c0.9-0.5,1.7-1.2,2.2-2l3.5,2.8
				c-2.1,2.8-5.1,4.2-9.1,4.2c-1.6,0-3.2-0.3-4.5-0.8c-1.4-0.5-2.6-1.2-3.6-2.2c-1-0.9-1.8-2.1-2.4-3.5c-0.6-1.4-0.9-2.9-0.9-4.6
				c0-1.7,0.3-3.2,0.9-4.6c0.6-1.4,1.4-2.6,2.4-3.6c1-1,2.2-1.7,3.5-2.3c1.4-0.5,2.8-0.8,4.4-0.8c1.5,0,2.8,0.2,4.1,0.7
				c1.2,0.5,2.3,1.2,3.2,2.2c0.9,1,1.6,2.1,2.1,3.6C385.7,214.2,385.9,215.9,385.9,217.8z M380.6,215.4c0-0.7-0.1-1.3-0.3-1.9
				c-0.2-0.6-0.5-1.2-0.9-1.6s-0.9-0.8-1.6-1.1s-1.4-0.4-2.2-0.4c-1.6,0-2.9,0.5-4,1.4c-1.1,1-1.7,2.2-1.8,3.7H380.6z"/>
			<path d="M411.2,217.8c0,0.2,0,0.5,0,0.7c0,0.2,0,0.5,0,0.7h-16.1c0.1,0.8,0.3,1.5,0.6,2.1c0.3,0.6,0.8,1.2,1.3,1.6
				c0.6,0.5,1.2,0.8,1.9,1.1c0.7,0.3,1.4,0.4,2.2,0.4c1.3,0,2.4-0.2,3.3-0.7c0.9-0.5,1.7-1.2,2.2-2l3.5,2.8
				c-2.1,2.8-5.1,4.2-9.1,4.2c-1.6,0-3.2-0.3-4.5-0.8c-1.4-0.5-2.6-1.2-3.6-2.2c-1-0.9-1.8-2.1-2.4-3.5c-0.6-1.4-0.9-2.9-0.9-4.6
				c0-1.7,0.3-3.2,0.9-4.6c0.6-1.4,1.4-2.6,2.4-3.6c1-1,2.2-1.7,3.5-2.3c1.4-0.5,2.8-0.8,4.4-0.8c1.5,0,2.8,0.2,4.1,0.7
				c1.2,0.5,2.3,1.2,3.2,2.2c0.9,1,1.6,2.1,2.1,3.6C410.9,214.2,411.2,215.9,411.2,217.8z M405.9,215.4c0-0.7-0.1-1.3-0.3-1.9
				c-0.2-0.6-0.5-1.2-0.9-1.6s-0.9-0.8-1.6-1.1s-1.4-0.4-2.2-0.4c-1.6,0-2.9,0.5-4,1.4c-1.1,1-1.7,2.2-1.8,3.7H405.9z"/>
			<path d="M416.3,206.9h5v3.4h0.1c0.5-1.1,1.3-2,2.4-2.8c1.2-0.8,2.5-1.2,4.1-1.2c1.4,0,2.6,0.2,3.5,0.7c1,0.5,1.8,1.1,2.4,1.9
				s1.1,1.7,1.4,2.7c0.3,1,0.4,2.1,0.4,3.2v13.2h-5.3v-11.7c0-0.6,0-1.3-0.1-1.9c-0.1-0.7-0.3-1.3-0.6-1.8c-0.3-0.5-0.7-1-1.2-1.3
				c-0.5-0.4-1.2-0.5-2-0.5c-0.9,0-1.6,0.2-2.2,0.5c-0.6,0.3-1.1,0.8-1.5,1.3c-0.4,0.5-0.7,1.1-0.9,1.8c-0.2,0.7-0.3,1.4-0.3,2.1
				v11.6h-5.3V206.9z"/>
			<path d="M466,225.4h-0.1c-0.5,0.9-1.4,1.7-2.6,2.3c-1.2,0.6-2.5,0.9-4,0.9c-0.9,0-1.7-0.1-2.7-0.3c-0.9-0.2-1.8-0.6-2.6-1.1
				s-1.4-1.2-1.9-2c-0.5-0.8-0.8-1.9-0.8-3.1c0-1.6,0.4-2.8,1.3-3.8c0.9-0.9,2-1.7,3.5-2.2c1.4-0.5,3-0.8,4.7-1
				c1.7-0.2,3.4-0.2,5-0.2v-0.5c0-1.3-0.5-2.3-1.4-2.9s-2.1-0.9-3.4-0.9c-1.1,0-2.2,0.2-3.2,0.7c-1,0.5-1.9,1-2.6,1.7l-2.7-3.2
				c1.2-1.1,2.6-2,4.2-2.5c1.6-0.6,3.2-0.8,4.8-0.8c1.9,0,3.4,0.3,4.6,0.8s2.2,1.2,2.9,2.1c0.7,0.9,1.2,1.8,1.5,2.9
				c0.3,1.1,0.4,2.1,0.4,3.2v12.8H466V225.4z M465.9,218.4h-1.2c-0.9,0-1.7,0-2.7,0.1c-0.9,0.1-1.8,0.2-2.6,0.5
				c-0.8,0.2-1.5,0.6-2,1.1s-0.8,1.1-0.8,1.9c0,0.5,0.1,0.9,0.3,1.3c0.2,0.3,0.5,0.6,0.9,0.8c0.4,0.2,0.7,0.4,1.2,0.4
				c0.4,0.1,0.9,0.1,1.3,0.1c1.8,0,3.2-0.5,4.1-1.5c0.9-1,1.4-2.3,1.4-4V218.4z"/>
			<path d="M477.1,206.9h5v3.4h0.1c0.5-1.1,1.3-2,2.4-2.8c1.2-0.8,2.5-1.2,4.1-1.2c1.4,0,2.6,0.2,3.5,0.7c1,0.5,1.8,1.1,2.4,1.9
				s1.1,1.7,1.4,2.7c0.3,1,0.4,2.1,0.4,3.2v13.2h-5.3v-11.7c0-0.6,0-1.3-0.1-1.9c-0.1-0.7-0.3-1.3-0.6-1.8c-0.3-0.5-0.7-1-1.2-1.3
				c-0.5-0.4-1.2-0.5-2-0.5c-0.9,0-1.6,0.2-2.2,0.5c-0.6,0.3-1.1,0.8-1.5,1.3c-0.4,0.5-0.7,1.1-0.9,1.8c-0.2,0.7-0.3,1.4-0.3,2.1
				v11.6h-5.3V206.9z"/>
			<path d="M524.2,228.1h-5v-3.2h-0.1c-0.7,1.2-1.8,2.2-3.1,2.8c-1.3,0.6-2.7,1-4.2,1c-1.6,0-3.1-0.3-4.3-0.9
				c-1.3-0.6-2.4-1.4-3.3-2.4c-0.9-1-1.6-2.2-2.1-3.6c-0.5-1.4-0.7-2.8-0.7-4.4s0.2-3,0.7-4.4s1.2-2.5,2.1-3.5s2-1.8,3.3-2.4
				c1.3-0.6,2.6-0.9,4.1-0.9c1,0,1.8,0.1,2.6,0.3c0.8,0.2,1.4,0.5,2,0.8c0.6,0.3,1.1,0.7,1.5,1.1c0.4,0.4,0.7,0.7,1,1.1h0.1v-14.8
				h5.3V228.1z M506.8,217.4c0,0.8,0.1,1.6,0.4,2.5s0.6,1.6,1.1,2.2c0.5,0.6,1.1,1.2,1.9,1.6c0.8,0.4,1.7,0.6,2.7,0.6
				c1,0,1.8-0.2,2.6-0.6c0.8-0.4,1.4-0.9,2-1.6s1-1.4,1.2-2.2c0.3-0.8,0.4-1.6,0.4-2.4c0-0.8-0.1-1.6-0.4-2.5
				c-0.3-0.8-0.7-1.6-1.2-2.2c-0.5-0.6-1.2-1.2-2-1.6c-0.8-0.4-1.6-0.6-2.6-0.6c-1,0-1.9,0.2-2.7,0.6c-0.8,0.4-1.4,0.9-1.9,1.6
				s-0.9,1.4-1.1,2.2S506.8,216.6,506.8,217.4z"/>
			<path d="M553.3,206.3c1.4,0,2.6,0.2,3.5,0.7c1,0.5,1.8,1.1,2.4,1.9s1.1,1.7,1.4,2.7c0.3,1,0.4,2.1,0.4,3.2v13.2h-5.3v-11.6
				c0-0.6,0-1.3-0.1-1.9c-0.1-0.7-0.3-1.3-0.5-1.8c-0.3-0.5-0.7-1-1.2-1.3c-0.5-0.4-1.2-0.5-2-0.5s-1.6,0.2-2.2,0.5
				c-0.6,0.3-1.1,0.8-1.5,1.3s-0.7,1.2-0.9,1.8s-0.3,1.4-0.3,2.1v11.5h-5.3v-33.3h5.3v15.1h0.1c0.2-0.4,0.5-0.9,0.9-1.3
				c0.4-0.4,0.9-0.8,1.4-1.1s1.1-0.6,1.8-0.8C551.8,206.4,552.6,206.3,553.3,206.3z"/>
			<path d="M580.4,225.4h-0.1c-0.5,0.9-1.4,1.7-2.6,2.3c-1.2,0.6-2.5,0.9-4,0.9c-0.9,0-1.7-0.1-2.7-0.3c-0.9-0.2-1.8-0.6-2.6-1.1
				s-1.4-1.2-1.9-2c-0.5-0.8-0.8-1.9-0.8-3.1c0-1.6,0.4-2.8,1.3-3.8c0.9-0.9,2-1.7,3.5-2.2c1.4-0.5,3-0.8,4.7-1
				c1.7-0.2,3.4-0.2,5-0.2v-0.5c0-1.3-0.5-2.3-1.4-2.9s-2.1-0.9-3.4-0.9c-1.1,0-2.2,0.2-3.2,0.7c-1,0.5-1.9,1-2.6,1.7l-2.7-3.2
				c1.2-1.1,2.6-2,4.2-2.5c1.6-0.6,3.2-0.8,4.8-0.8c1.9,0,3.4,0.3,4.6,0.8s2.2,1.2,2.9,2.1c0.7,0.9,1.2,1.8,1.5,2.9
				c0.3,1.1,0.4,2.1,0.4,3.2v12.8h-4.9V225.4z M580.3,218.4h-1.2c-0.9,0-1.7,0-2.7,0.1c-0.9,0.1-1.8,0.2-2.6,0.5
				c-0.8,0.2-1.5,0.6-2,1.1s-0.8,1.1-0.8,1.9c0,0.5,0.1,0.9,0.3,1.3c0.2,0.3,0.5,0.6,0.9,0.8c0.4,0.2,0.7,0.4,1.2,0.4
				c0.4,0.1,0.9,0.1,1.3,0.1c1.8,0,3.2-0.5,4.1-1.5c0.9-1,1.4-2.3,1.4-4V218.4z"/>
			<path d="M588.3,206.9h5.8l5.5,15.4h0.1l5.6-15.4h5.6l-8.4,21.1h-5.6L588.3,206.9z"/>
			<path d="M634.2,217.8c0,0.2,0,0.5,0,0.7c0,0.2,0,0.5,0,0.7h-16.1c0.1,0.8,0.3,1.5,0.6,2.1c0.3,0.6,0.8,1.2,1.3,1.6
				c0.6,0.5,1.2,0.8,1.9,1.1c0.7,0.3,1.4,0.4,2.2,0.4c1.3,0,2.4-0.2,3.3-0.7c0.9-0.5,1.7-1.2,2.2-2l3.5,2.8
				c-2.1,2.8-5.1,4.2-9.1,4.2c-1.6,0-3.2-0.3-4.5-0.8c-1.4-0.5-2.6-1.2-3.6-2.2c-1-0.9-1.8-2.1-2.4-3.5c-0.6-1.4-0.9-2.9-0.9-4.6
				c0-1.7,0.3-3.2,0.9-4.6c0.6-1.4,1.4-2.6,2.4-3.6c1-1,2.2-1.7,3.5-2.3c1.4-0.5,2.8-0.8,4.4-0.8c1.5,0,2.8,0.2,4.1,0.7
				c1.2,0.5,2.3,1.2,3.2,2.2c0.9,1,1.6,2.1,2.1,3.6C634,214.2,634.2,215.9,634.2,217.8z M628.9,215.4c0-0.7-0.1-1.3-0.3-1.9
				c-0.2-0.6-0.5-1.2-0.9-1.6s-0.9-0.8-1.6-1.1s-1.4-0.4-2.2-0.4c-1.6,0-2.9,0.5-4,1.4c-1.1,1-1.7,2.2-1.8,3.7H628.9z"/>
			<path d="M17.7,265.4c-0.5-0.6-1.1-1.2-1.9-1.6c-0.8-0.5-1.7-0.7-2.7-0.7c-0.9,0-1.6,0.2-2.3,0.5s-1.1,0.9-1.1,1.8
				c0,0.8,0.4,1.4,1.2,1.7c0.8,0.3,1.9,0.7,3.4,1c0.8,0.2,1.6,0.4,2.4,0.7c0.8,0.3,1.5,0.7,2.2,1.2c0.7,0.5,1.2,1.1,1.6,1.8
				c0.4,0.7,0.6,1.6,0.6,2.6c0,1.3-0.2,2.4-0.7,3.3c-0.5,0.9-1.1,1.6-1.9,2.2c-0.8,0.6-1.7,1-2.8,1.2c-1.1,0.2-2.2,0.4-3.3,0.4
				c-1.6,0-3.2-0.3-4.8-0.9C6,280,4.7,279.1,3.7,278l3.5-3.3c0.6,0.8,1.3,1.4,2.3,1.9c0.9,0.5,2,0.7,3.1,0.7c0.4,0,0.8,0,1.2-0.1
				c0.4-0.1,0.8-0.2,1.1-0.4c0.3-0.2,0.6-0.4,0.8-0.8c0.2-0.3,0.3-0.7,0.3-1.2c0-0.9-0.4-1.5-1.2-1.9c-0.8-0.4-2-0.8-3.6-1.1
				c-0.8-0.2-1.6-0.4-2.3-0.7c-0.7-0.3-1.4-0.6-2-1.1c-0.6-0.5-1.1-1-1.4-1.7s-0.5-1.5-0.5-2.5c0-1.2,0.2-2.2,0.7-3
				c0.5-0.9,1.1-1.5,1.9-2.1s1.7-0.9,2.7-1.2c1-0.3,2-0.4,3.1-0.4c1.5,0,3,0.3,4.5,0.8c1.5,0.5,2.6,1.3,3.5,2.4L17.7,265.4z"/>
			<path d="M24.5,270.2c0-1.7,0.3-3.2,0.9-4.6c0.6-1.4,1.4-2.5,2.4-3.5s2.2-1.7,3.7-2.2c1.4-0.5,2.9-0.8,4.5-0.8s3.1,0.3,4.5,0.8
				c1.4,0.5,2.6,1.3,3.7,2.2c1,1,1.8,2.1,2.4,3.5c0.6,1.4,0.9,2.9,0.9,4.6c0,1.7-0.3,3.2-0.9,4.6c-0.6,1.4-1.4,2.6-2.4,3.5
				c-1,1-2.2,1.8-3.7,2.3c-1.4,0.6-2.9,0.8-4.5,0.8s-3.1-0.3-4.5-0.8c-1.4-0.6-2.6-1.3-3.7-2.3c-1-1-1.8-2.2-2.4-3.5
				C24.8,273.4,24.5,271.9,24.5,270.2z M29.8,270.2c0,0.8,0.1,1.6,0.4,2.5c0.2,0.8,0.6,1.6,1.1,2.2c0.5,0.6,1.1,1.2,1.9,1.6
				c0.8,0.4,1.7,0.6,2.7,0.6s2-0.2,2.7-0.6c0.8-0.4,1.4-0.9,1.9-1.6c0.5-0.6,0.9-1.4,1.1-2.2c0.2-0.8,0.4-1.6,0.4-2.5
				c0-0.8-0.1-1.6-0.4-2.4c-0.2-0.8-0.6-1.5-1.1-2.2c-0.5-0.6-1.1-1.2-1.9-1.6c-0.8-0.4-1.7-0.6-2.7-0.6s-2,0.2-2.7,0.6
				c-0.8,0.4-1.4,0.9-1.9,1.6c-0.5,0.6-0.9,1.4-1.1,2.2C30,268.6,29.8,269.4,29.8,270.2z"/>
			<path d="M77.8,259.1c1.4,0,2.6,0.2,3.5,0.7c1,0.5,1.8,1.1,2.4,1.9s1.1,1.7,1.4,2.7c0.3,1,0.4,2.1,0.4,3.2v13.2h-5.3v-11.7
				c0-0.6,0-1.3-0.1-1.9c-0.1-0.7-0.3-1.3-0.6-1.8c-0.3-0.5-0.7-1-1.2-1.3c-0.5-0.4-1.2-0.5-2-0.5c-0.8,0-1.5,0.2-2.1,0.5
				c-0.6,0.4-1.1,0.8-1.5,1.4c-0.4,0.6-0.7,1.2-0.8,1.9c-0.2,0.7-0.3,1.4-0.3,2v11.5h-5.3v-12.8c0-1.3-0.3-2.4-0.9-3.3
				c-0.6-0.9-1.6-1.3-3-1.3c-0.8,0-1.5,0.2-2.1,0.5c-0.6,0.3-1.1,0.8-1.4,1.3c-0.4,0.5-0.6,1.1-0.8,1.8c-0.2,0.7-0.3,1.4-0.3,2.1
				v11.6h-5.3v-21.1h5v3.4h0.1c0.2-0.5,0.5-1,0.9-1.5c0.4-0.5,0.9-0.9,1.4-1.3c0.5-0.4,1.2-0.7,1.9-0.9c0.7-0.2,1.5-0.3,2.3-0.3
				c1.6,0,3,0.4,4.1,1.1c1.1,0.7,1.9,1.7,2.5,2.9c0.7-1.3,1.6-2.3,2.8-3C74.8,259.5,76.2,259.1,77.8,259.1z"/>
			<path d="M111.9,270.6c0,0.2,0,0.5,0,0.7c0,0.2,0,0.5,0,0.7H95.8c0.1,0.8,0.3,1.5,0.6,2.1c0.3,0.6,0.8,1.2,1.3,1.6
				c0.6,0.5,1.2,0.8,1.9,1.1c0.7,0.3,1.4,0.4,2.2,0.4c1.3,0,2.4-0.2,3.3-0.7c0.9-0.5,1.7-1.2,2.2-2l3.5,2.8
				c-2.1,2.8-5.1,4.2-9.1,4.2c-1.6,0-3.2-0.3-4.5-0.8c-1.4-0.5-2.6-1.2-3.6-2.2c-1-0.9-1.8-2.1-2.4-3.5c-0.6-1.4-0.9-2.9-0.9-4.6
				c0-1.7,0.3-3.2,0.9-4.6c0.6-1.4,1.4-2.6,2.4-3.6c1-1,2.2-1.7,3.5-2.3c1.4-0.5,2.8-0.8,4.4-0.8c1.5,0,2.8,0.2,4.1,0.7
				c1.2,0.5,2.3,1.2,3.2,2.2c0.9,1,1.6,2.1,2.1,3.6S111.9,268.7,111.9,270.6z M106.6,268.2c0-0.7-0.1-1.3-0.3-1.9
				c-0.2-0.6-0.5-1.2-0.9-1.6c-0.4-0.5-0.9-0.8-1.6-1.1c-0.6-0.3-1.4-0.4-2.2-0.4c-1.6,0-2.9,0.5-4,1.4s-1.7,2.2-1.8,3.7H106.6z"/>
			<path d="M128.8,264h-4v-4.2h4v-3.1c0-1.3,0.1-2.5,0.4-3.6c0.3-1.2,0.7-2.2,1.4-3.1s1.5-1.6,2.6-2.1c1.1-0.5,2.4-0.8,4.1-0.8
				c0.6,0,1.1,0,1.5,0.1s0.8,0.1,1.2,0.2l-0.4,4.5c-0.3-0.1-0.6-0.2-0.9-0.2c-0.3-0.1-0.7-0.1-1.1-0.1c-0.8,0-1.4,0.1-1.8,0.4
				c-0.5,0.3-0.8,0.7-1.1,1.1c-0.2,0.5-0.4,1-0.5,1.5s-0.1,1.1-0.1,1.6v3.4h4.9v4.2h-4.9v16.9h-5.3V264z"/>
			<path d="M161.5,280.9h-5v-3.4h-0.1c-0.5,1.1-1.3,2-2.4,2.8c-1.2,0.8-2.5,1.2-4.1,1.2c-1.4,0-2.6-0.2-3.5-0.7
				c-1-0.5-1.8-1.1-2.4-1.9c-0.6-0.8-1.1-1.7-1.4-2.7c-0.3-1-0.4-2.1-0.4-3.2v-13.2h5.3v11.7c0,0.6,0,1.3,0.1,1.9
				c0.1,0.7,0.3,1.3,0.6,1.8c0.3,0.5,0.7,1,1.2,1.3c0.5,0.4,1.2,0.5,2,0.5c0.8,0,1.5-0.2,2.2-0.5c0.6-0.3,1.1-0.8,1.5-1.3
				s0.7-1.1,0.9-1.8c0.2-0.7,0.3-1.4,0.3-2.1v-11.6h5.3V280.9z"/>
			<path d="M167.8,259.7h5v3.4h0.1c0.5-1.1,1.3-2,2.4-2.8c1.2-0.8,2.5-1.2,4.1-1.2c1.4,0,2.6,0.2,3.5,0.7c1,0.5,1.8,1.1,2.4,1.9
				c0.6,0.8,1.1,1.7,1.4,2.7c0.3,1,0.4,2.1,0.4,3.2v13.2H182v-11.7c0-0.6,0-1.3-0.1-1.9s-0.3-1.3-0.6-1.8c-0.3-0.5-0.7-1-1.2-1.3
				c-0.5-0.4-1.2-0.5-2-0.5c-0.9,0-1.6,0.2-2.2,0.5c-0.6,0.3-1.1,0.8-1.5,1.3c-0.4,0.5-0.7,1.1-0.9,1.8c-0.2,0.7-0.3,1.4-0.3,2.1
				v11.6h-5.3V259.7z"/>
			<path d="M217.5,278.2h-0.1c-0.5,0.9-1.4,1.7-2.6,2.3c-1.2,0.6-2.5,0.9-4,0.9c-0.9,0-1.7-0.1-2.7-0.3c-0.9-0.2-1.8-0.6-2.6-1.1
				c-0.8-0.5-1.4-1.2-1.9-2c-0.5-0.8-0.8-1.9-0.8-3.1c0-1.6,0.4-2.8,1.3-3.8c0.9-0.9,2-1.7,3.5-2.2c1.4-0.5,3-0.8,4.7-1
				c1.7-0.2,3.4-0.2,5-0.2v-0.5c0-1.3-0.5-2.3-1.4-2.9c-1-0.6-2.1-0.9-3.4-0.9c-1.1,0-2.2,0.2-3.2,0.7c-1,0.5-1.9,1-2.6,1.7
				l-2.7-3.2c1.2-1.1,2.6-2,4.2-2.5c1.6-0.6,3.2-0.8,4.8-0.8c1.9,0,3.4,0.3,4.6,0.8c1.2,0.5,2.2,1.2,2.9,2.1
				c0.7,0.9,1.2,1.8,1.5,2.9c0.3,1.1,0.4,2.1,0.4,3.2v12.8h-4.9V278.2z M217.5,271.2h-1.2c-0.9,0-1.7,0-2.7,0.1
				c-0.9,0.1-1.8,0.2-2.6,0.5c-0.8,0.2-1.5,0.6-2,1.1c-0.5,0.5-0.8,1.1-0.8,1.9c0,0.5,0.1,0.9,0.3,1.3c0.2,0.3,0.5,0.6,0.9,0.8
				s0.7,0.4,1.2,0.4c0.4,0.1,0.9,0.1,1.3,0.1c1.8,0,3.2-0.5,4.1-1.5c0.9-1,1.4-2.3,1.4-4V271.2z"/>
			<path d="M228.7,247.6h5.3v33.3h-5.3V247.6z"/>
			<path d="M239.2,270.2c0-1.7,0.3-3.2,0.9-4.6c0.6-1.4,1.4-2.5,2.4-3.5s2.2-1.7,3.7-2.2c1.4-0.5,2.9-0.8,4.5-0.8s3.1,0.3,4.5,0.8
				c1.4,0.5,2.6,1.3,3.7,2.2c1,1,1.8,2.1,2.4,3.5c0.6,1.4,0.9,2.9,0.9,4.6c0,1.7-0.3,3.2-0.9,4.6c-0.6,1.4-1.4,2.6-2.4,3.5
				c-1,1-2.2,1.8-3.7,2.3c-1.4,0.6-2.9,0.8-4.5,0.8s-3.1-0.3-4.5-0.8c-1.4-0.6-2.6-1.3-3.7-2.3c-1-1-1.8-2.2-2.4-3.5
				C239.5,273.4,239.2,271.9,239.2,270.2z M244.6,270.2c0,0.8,0.1,1.6,0.4,2.5c0.2,0.8,0.6,1.6,1.1,2.2c0.5,0.6,1.1,1.2,1.9,1.6
				c0.8,0.4,1.7,0.6,2.7,0.6s2-0.2,2.7-0.6c0.8-0.4,1.4-0.9,1.9-1.6c0.5-0.6,0.9-1.4,1.1-2.2c0.2-0.8,0.4-1.6,0.4-2.5
				c0-0.8-0.1-1.6-0.4-2.4c-0.2-0.8-0.6-1.5-1.1-2.2c-0.5-0.6-1.1-1.2-1.9-1.6c-0.8-0.4-1.7-0.6-2.7-0.6s-2,0.2-2.7,0.6
				c-0.8,0.4-1.4,0.9-1.9,1.6c-0.5,0.6-0.9,1.4-1.1,2.2C244.7,268.6,244.6,269.4,244.6,270.2z"/>
			<path d="M267.3,259.7h5v3.4h0.1c0.5-1.1,1.3-2,2.4-2.8c1.2-0.8,2.5-1.2,4.1-1.2c1.4,0,2.6,0.2,3.5,0.7c1,0.5,1.8,1.1,2.4,1.9
				c0.6,0.8,1.1,1.7,1.4,2.7c0.3,1,0.4,2.1,0.4,3.2v13.2h-5.3v-11.7c0-0.6,0-1.3-0.1-1.9s-0.3-1.3-0.6-1.8c-0.3-0.5-0.7-1-1.2-1.3
				c-0.5-0.4-1.2-0.5-2-0.5c-0.9,0-1.6,0.2-2.2,0.5c-0.6,0.3-1.1,0.8-1.5,1.3c-0.4,0.5-0.7,1.1-0.9,1.8c-0.2,0.7-0.3,1.4-0.3,2.1
				v11.6h-5.3V259.7z"/>
			<path d="M314.3,259.7V279c0,1.9-0.2,3.6-0.7,5.2c-0.5,1.5-1.2,2.8-2.2,3.9c-1,1.1-2.2,1.9-3.7,2.5s-3.3,0.9-5.3,0.9
				c-0.9,0-1.8-0.1-2.7-0.2s-1.9-0.4-2.8-0.7c-0.9-0.3-1.8-0.7-2.7-1.1c-0.9-0.4-1.6-0.9-2.3-1.5l3-4.1c1,1,2.2,1.7,3.5,2.2
				c1.3,0.5,2.6,0.8,3.9,0.8c1.3,0,2.3-0.2,3.2-0.6s1.6-0.9,2.1-1.5c0.5-0.6,0.9-1.4,1.1-2.3c0.2-0.9,0.3-1.9,0.3-2.9V278H309
				c-0.8,1-1.7,1.8-2.9,2.4c-1.2,0.5-2.5,0.8-4,0.8c-1.6,0-3-0.3-4.3-0.9c-1.3-0.6-2.4-1.4-3.3-2.4c-0.9-1-1.6-2.2-2.1-3.5
				c-0.5-1.3-0.7-2.8-0.7-4.2c0-1.5,0.2-3,0.7-4.3c0.5-1.3,1.2-2.5,2.1-3.5c0.9-1,2-1.8,3.3-2.4c1.3-0.6,2.7-0.9,4.3-0.9
				c1.5,0,2.9,0.3,4.2,0.9c1.3,0.6,2.3,1.6,3.1,2.9h0.1v-3.2H314.3z M303.1,263.4c-1,0-1.8,0.2-2.6,0.5c-0.7,0.4-1.4,0.8-1.9,1.4
				c-0.5,0.6-0.9,1.3-1.2,2.1c-0.3,0.8-0.4,1.7-0.4,2.6c0,0.8,0.1,1.7,0.4,2.5c0.3,0.8,0.7,1.5,1.2,2.1c0.5,0.6,1.1,1.1,1.9,1.5
				c0.7,0.4,1.6,0.6,2.5,0.6c1,0,1.8-0.2,2.6-0.5c0.8-0.4,1.4-0.9,2-1.5c0.5-0.6,1-1.3,1.3-2.1c0.3-0.8,0.4-1.6,0.4-2.5
				c0-0.9-0.1-1.8-0.4-2.6c-0.3-0.8-0.7-1.5-1.3-2.1c-0.5-0.6-1.2-1.1-2-1.4C304.9,263.6,304,263.4,303.1,263.4z"/>
			<path d="M328.6,264v-4.2h3.7v-6.1h5.2v6.1h5.3v4.2h-5.3v9.8c0,0.9,0.2,1.7,0.5,2.3c0.3,0.6,1.1,0.9,2.3,0.9c0.4,0,0.7,0,1.1-0.1
				c0.4-0.1,0.8-0.2,1.1-0.3l0.2,4.1c-0.5,0.2-1,0.3-1.7,0.4c-0.6,0.1-1.3,0.2-1.8,0.2c-1.4,0-2.6-0.2-3.4-0.6
				c-0.9-0.4-1.6-0.9-2.1-1.6c-0.5-0.7-0.9-1.5-1.1-2.4c-0.2-0.9-0.3-1.9-0.3-2.9V264H328.6z"/>
			<path d="M358.4,259.1c1.4,0,2.6,0.2,3.5,0.7c1,0.5,1.8,1.1,2.4,1.9s1.1,1.7,1.4,2.7c0.3,1,0.4,2.1,0.4,3.2v13.2h-5.3v-11.6
				c0-0.6,0-1.3-0.1-1.9s-0.3-1.3-0.5-1.8c-0.3-0.5-0.7-1-1.2-1.3c-0.5-0.4-1.2-0.5-2-0.5s-1.6,0.2-2.2,0.5
				c-0.6,0.3-1.1,0.8-1.5,1.3s-0.7,1.2-0.9,1.8s-0.3,1.4-0.3,2.1v11.5h-5.3v-33.3h5.3v15.1h0.1c0.2-0.4,0.5-0.9,0.9-1.3
				c0.4-0.4,0.9-0.8,1.4-1.1c0.5-0.3,1.1-0.6,1.8-0.8S357.6,259.1,358.4,259.1z"/>
			<path d="M392.5,270.6c0,0.2,0,0.5,0,0.7c0,0.2,0,0.5,0,0.7h-16.1c0.1,0.8,0.3,1.5,0.6,2.1s0.8,1.2,1.3,1.6
				c0.6,0.5,1.2,0.8,1.9,1.1c0.7,0.3,1.4,0.4,2.2,0.4c1.3,0,2.4-0.2,3.3-0.7c0.9-0.5,1.7-1.2,2.2-2l3.5,2.8
				c-2.1,2.8-5.1,4.2-9.1,4.2c-1.6,0-3.2-0.3-4.5-0.8s-2.6-1.2-3.6-2.2c-1-0.9-1.8-2.1-2.4-3.5s-0.9-2.9-0.9-4.6
				c0-1.7,0.3-3.2,0.9-4.6c0.6-1.4,1.4-2.6,2.4-3.6c1-1,2.2-1.7,3.5-2.3c1.4-0.5,2.8-0.8,4.4-0.8c1.5,0,2.8,0.2,4.1,0.7
				c1.2,0.5,2.3,1.2,3.2,2.2s1.6,2.1,2.1,3.6C392.2,267,392.5,268.7,392.5,270.6z M387.2,268.2c0-0.7-0.1-1.3-0.3-1.9
				c-0.2-0.6-0.5-1.2-0.9-1.6c-0.4-0.5-0.9-0.8-1.6-1.1c-0.6-0.3-1.4-0.4-2.2-0.4c-1.6,0-2.9,0.5-4,1.4s-1.7,2.2-1.8,3.7H387.2z"/>
			<path d="M405.6,259.7h5.7l4.4,15.1h0.1l4.5-15.1h5.6l4.6,15.1h0.1l4.5-15.1h5.5l-7.3,21.1h-5.4l-4.8-14.8h-0.1l-4.8,14.8h-5.4
				L405.6,259.7z"/>
			<path d="M457.1,278.2h-0.1c-0.5,0.9-1.4,1.7-2.6,2.3s-2.5,0.9-4,0.9c-0.9,0-1.7-0.1-2.7-0.3c-0.9-0.2-1.8-0.6-2.6-1.1
				c-0.8-0.5-1.4-1.2-1.9-2c-0.5-0.8-0.8-1.9-0.8-3.1c0-1.6,0.4-2.8,1.3-3.8s2-1.7,3.5-2.2s3-0.8,4.7-1s3.4-0.2,5-0.2v-0.5
				c0-1.3-0.5-2.3-1.4-2.9c-1-0.6-2.1-0.9-3.4-0.9c-1.1,0-2.2,0.2-3.2,0.7c-1,0.5-1.9,1-2.6,1.7l-2.7-3.2c1.2-1.1,2.6-2,4.2-2.5
				c1.6-0.6,3.2-0.8,4.8-0.8c1.9,0,3.4,0.3,4.6,0.8c1.2,0.5,2.2,1.2,2.9,2.1c0.7,0.9,1.2,1.8,1.5,2.9c0.3,1.1,0.4,2.1,0.4,3.2v12.8
				h-4.9V278.2z M457,271.2h-1.2c-0.9,0-1.7,0-2.7,0.1c-0.9,0.1-1.8,0.2-2.6,0.5c-0.8,0.2-1.5,0.6-2,1.1c-0.5,0.5-0.8,1.1-0.8,1.9
				c0,0.5,0.1,0.9,0.3,1.3c0.2,0.3,0.5,0.6,0.9,0.8c0.4,0.2,0.7,0.4,1.2,0.4c0.4,0.1,0.9,0.1,1.3,0.1c1.8,0,3.2-0.5,4.1-1.5
				c0.9-1,1.4-2.3,1.4-4V271.2z"/>
			<path d="M465,259.7h5.9l5.9,15.4h0.1l5.2-15.4h5.5l-10,25.7c-0.4,1-0.8,1.8-1.2,2.6c-0.4,0.7-1,1.4-1.6,1.9
				c-0.6,0.5-1.3,0.9-2.2,1.2s-1.8,0.4-3,0.4c-0.4,0-0.9,0-1.3-0.1c-0.5,0-0.9-0.1-1.4-0.2l0.4-4.6c0.4,0.1,0.7,0.2,1,0.2
				c0.3,0,0.7,0.1,0.9,0.1c0.6,0,1-0.1,1.4-0.2s0.7-0.3,1-0.6c0.3-0.3,0.5-0.6,0.7-1s0.4-0.9,0.7-1.5l1.1-2.7L465,259.7z"/>
			<path d="M488.2,277.8c0-0.9,0.3-1.7,1-2.4c0.7-0.7,1.5-1,2.5-1c0.9,0,1.8,0.3,2.5,1c0.7,0.6,1.1,1.4,1.1,2.4c0,0.9-0.3,1.7-1,2.4
				c-0.7,0.7-1.5,1-2.5,1c-0.5,0-0.9-0.1-1.3-0.3c-0.4-0.2-0.8-0.4-1.1-0.7c-0.3-0.3-0.6-0.6-0.8-1.1
				C488.3,278.7,488.2,278.3,488.2,277.8z"/>
		</g>
	</g>
</g>
<g id="Layer_1_copy">
	<g>
		<g>
			<path class="st0" d="M55.3,108H44.2l-9.2-31.6h-0.2L25.5,108H14.3L1,61.3h12.1l7.4,31.1h0.2L29,61.3h11.7l8.4,31.1h0.2l7.5-31.1
				h11.7L55.3,108z"/>
			<path class="st0" d="M103.1,92c0,0.4,0,0.9,0,1.3c0,0.4,0,0.9-0.1,1.3H79.2c0.1,0.9,0.4,1.8,0.8,2.5c0.5,0.7,1.1,1.4,1.8,1.9
				c0.7,0.6,1.5,1,2.4,1.3c0.9,0.3,1.8,0.5,2.8,0.5c1.7,0,3.2-0.3,4.4-1c1.2-0.6,2.2-1.5,2.9-2.5l7.5,4.8c-1.5,2.2-3.6,4-6.1,5.2
				c-2.5,1.2-5.5,1.8-8.8,1.8c-2.5,0-4.8-0.4-7-1.2c-2.2-0.8-4.1-1.9-5.8-3.4c-1.7-1.5-2.9-3.3-3.9-5.4c-0.9-2.2-1.4-4.6-1.4-7.4
				c0-2.7,0.5-5.1,1.4-7.3c0.9-2.2,2.2-4,3.8-5.5s3.5-2.7,5.6-3.5c2.2-0.8,4.5-1.3,7-1.3c2.4,0,4.6,0.4,6.7,1.2c2,0.8,3.8,2,5.2,3.5
				c1.5,1.5,2.6,3.4,3.4,5.6C102.7,86.6,103.1,89.1,103.1,92z M93.1,87.8c0-1.7-0.5-3.2-1.6-4.4c-1.1-1.2-2.7-1.8-4.9-1.8
				c-1.1,0-2,0.2-2.9,0.5c-0.9,0.3-1.7,0.8-2.3,1.4c-0.7,0.6-1.2,1.2-1.6,2c-0.4,0.8-0.6,1.6-0.7,2.4H93.1z"/>
			<path class="st0" d="M110,108V58.1h11V108H110z"/>
			<path class="st0" d="M152.2,85.8c-0.6-0.8-1.5-1.4-2.5-1.9c-1.1-0.5-2.1-0.7-3.2-0.7c-1.1,0-2.2,0.2-3.1,0.7s-1.7,1.1-2.4,1.8
				c-0.7,0.8-1.2,1.7-1.6,2.7c-0.4,1-0.6,2.1-0.6,3.2c0,1.1,0.2,2.2,0.5,3.2c0.4,1,0.9,1.9,1.6,2.7c0.7,0.8,1.5,1.4,2.4,1.8
				c0.9,0.4,2,0.7,3.2,0.7c1.1,0,2.2-0.2,3.3-0.6c1.1-0.4,1.9-1,2.6-1.8l6,7.3c-1.4,1.3-3.1,2.4-5.3,3.1c-2.2,0.7-4.4,1.1-6.9,1.1
				c-2.6,0-5-0.4-7.3-1.2s-4.2-1.9-5.9-3.5c-1.7-1.5-3-3.4-3.9-5.5c-1-2.2-1.4-4.6-1.4-7.3c0-2.7,0.5-5.1,1.4-7.3
				c1-2.2,2.3-4,3.9-5.5c1.7-1.5,3.6-2.7,5.9-3.5c2.2-0.8,4.7-1.2,7.2-1.2c1.2,0,2.4,0.1,3.5,0.3c1.2,0.2,2.3,0.5,3.4,0.9
				c1.1,0.4,2.1,0.8,3,1.4c0.9,0.6,1.7,1.2,2.3,1.8L152.2,85.8z"/>
			<path class="st0" d="M197.5,91.4c0,2.7-0.5,5.1-1.5,7.3c-1,2.2-2.3,4-4,5.5c-1.7,1.5-3.6,2.7-5.8,3.5c-2.2,0.8-4.6,1.3-7.1,1.3
				c-2.5,0-4.8-0.4-7-1.3c-2.2-0.8-4.2-2-5.8-3.5s-3-3.4-3.9-5.5c-1-2.2-1.5-4.6-1.5-7.3c0-2.7,0.5-5.1,1.5-7.3c1-2.2,2.3-4,3.9-5.5
				c1.6-1.5,3.6-2.6,5.8-3.4c2.2-0.8,4.6-1.2,7-1.2c2.5,0,4.9,0.4,7.1,1.2c2.2,0.8,4.1,1.9,5.8,3.4c1.7,1.5,3,3.3,4,5.5
				C197.1,86.3,197.5,88.8,197.5,91.4z M187.1,91.4c0-1.1-0.2-2.1-0.5-3.1c-0.4-1-0.9-1.9-1.5-2.7c-0.7-0.8-1.5-1.4-2.4-1.9
				c-1-0.5-2.1-0.7-3.4-0.7c-1.3,0-2.4,0.2-3.4,0.7c-1,0.5-1.8,1.1-2.4,1.9c-0.6,0.8-1.1,1.7-1.5,2.7c-0.3,1-0.5,2-0.5,3.1
				s0.2,2.1,0.5,3.1c0.3,1,0.8,1.9,1.5,2.7c0.7,0.8,1.5,1.5,2.4,1.9c1,0.5,2.1,0.7,3.4,0.7c1.3,0,2.4-0.2,3.4-0.7
				c1-0.5,1.8-1.1,2.4-1.9c0.7-0.8,1.2-1.7,1.5-2.7C187,93.5,187.1,92.5,187.1,91.4z"/>
			<path class="st0" d="M246.4,108V90c0-0.9-0.1-1.8-0.2-2.7s-0.4-1.6-0.7-2.2c-0.4-0.6-0.8-1.1-1.4-1.5c-0.6-0.4-1.4-0.6-2.3-0.6
				c-0.9,0-1.7,0.2-2.4,0.6c-0.7,0.4-1.3,0.9-1.7,1.6c-0.5,0.7-0.8,1.4-1,2.3c-0.2,0.9-0.3,1.7-0.3,2.7V108h-10.8V89.3
				c0-1.9-0.4-3.4-1.1-4.5c-0.7-1.1-1.9-1.6-3.6-1.6c-1.7,0-3,0.7-4,2c-0.9,1.4-1.4,3-1.4,5V108h-10.9V75.1h10.5v4.6h0.1
				c0.4-0.7,0.9-1.4,1.5-2c0.6-0.7,1.3-1.2,2.1-1.7c0.8-0.5,1.8-0.9,2.8-1.2c1-0.3,2.2-0.5,3.4-0.5c2.4,0,4.4,0.5,6,1.5
				c1.6,1,2.9,2.4,3.9,4.2c1.1-1.7,2.5-3.1,4.2-4.1c1.7-1,3.8-1.5,6.3-1.5c2.2,0,4.1,0.4,5.6,1.2c1.5,0.8,2.7,1.9,3.7,3.2
				c0.9,1.3,1.6,2.8,2,4.4c0.4,1.6,0.6,3.2,0.6,4.7V108H246.4z"/>
			<path class="st0" d="M298,92c0,0.4,0,0.9,0,1.3c0,0.4,0,0.9-0.1,1.3h-23.8c0.1,0.9,0.4,1.8,0.8,2.5c0.5,0.7,1.1,1.4,1.8,1.9
				c0.7,0.6,1.5,1,2.4,1.3c0.9,0.3,1.8,0.5,2.8,0.5c1.7,0,3.2-0.3,4.4-1c1.2-0.6,2.2-1.5,2.9-2.5l7.5,4.8c-1.5,2.2-3.6,4-6.1,5.2
				c-2.5,1.2-5.5,1.8-8.8,1.8c-2.5,0-4.8-0.4-7-1.2c-2.2-0.8-4.1-1.9-5.8-3.4c-1.7-1.5-2.9-3.3-3.9-5.4c-0.9-2.2-1.4-4.6-1.4-7.4
				c0-2.7,0.5-5.1,1.4-7.3c0.9-2.2,2.2-4,3.8-5.5s3.5-2.7,5.6-3.5c2.2-0.8,4.5-1.3,7-1.3c2.4,0,4.6,0.4,6.7,1.2c2,0.8,3.8,2,5.2,3.5
				c1.5,1.5,2.6,3.4,3.4,5.6C297.6,86.6,298,89.1,298,92z M288,87.8c0-1.7-0.5-3.2-1.6-4.4c-1.1-1.2-2.7-1.8-4.9-1.8
				c-1.1,0-2,0.2-2.9,0.5c-0.9,0.3-1.7,0.8-2.3,1.4c-0.7,0.6-1.2,1.2-1.6,2c-0.4,0.8-0.6,1.6-0.7,2.4H288z"/>
			<path class="st0" d="M355.3,108.1c-3.1,0.7-6.4,1.1-10,1.1c-3.7,0-7.2-0.6-10.3-1.8c-3.1-1.2-5.9-2.9-8.1-5
				c-2.3-2.2-4-4.7-5.3-7.8c-1.3-3-1.9-6.4-1.9-10.1c0-3.7,0.6-7.1,1.9-10.2c1.3-3,3.1-5.6,5.4-7.8c2.3-2.1,5-3.8,8.1-4.9
				c3.1-1.1,6.4-1.7,10-1.7c3.7,0,7.1,0.6,10.3,1.7s5.7,2.6,7.7,4.5l-7.1,8.1c-1.1-1.3-2.6-2.3-4.4-3.1c-1.8-0.8-3.8-1.2-6.1-1.2
				c-2,0-3.8,0.4-5.5,1.1c-1.7,0.7-3.1,1.7-4.4,3c-1.2,1.3-2.2,2.8-2.9,4.6c-0.7,1.8-1,3.7-1,5.8c0,2.2,0.3,4.1,0.9,5.9
				c0.6,1.8,1.5,3.4,2.7,4.7c1.2,1.3,2.7,2.3,4.5,3c1.8,0.7,3.8,1.1,6.1,1.1c1.3,0,2.6-0.1,3.8-0.3c1.2-0.2,2.3-0.5,3.3-1v-8.5h-8.9
				v-9.1h19.3v24.8C361,106.4,358.4,107.3,355.3,108.1z"/>
			<path class="st0" d="M393.3,84c-0.5-0.1-1-0.2-1.4-0.3c-0.5,0-0.9-0.1-1.4-0.1c-1.5,0-2.7,0.3-3.7,0.8c-1,0.5-1.8,1.2-2.4,1.9
				c-0.6,0.7-1,1.6-1.3,2.4c-0.3,0.9-0.4,1.6-0.4,2.3V108H372V75.2h10.4v4.8h0.1c0.8-1.7,2-3.1,3.6-4.1c1.5-1.1,3.3-1.6,5.3-1.6
				c0.4,0,0.9,0,1.3,0.1c0.4,0,0.8,0.1,1,0.2L393.3,84z"/>
			<path class="st0" d="M429.5,92c0,0.4,0,0.9,0,1.3c0,0.4,0,0.9-0.1,1.3h-23.8c0.1,0.9,0.4,1.8,0.8,2.5c0.5,0.7,1.1,1.4,1.8,1.9
				c0.7,0.6,1.5,1,2.4,1.3c0.9,0.3,1.8,0.5,2.8,0.5c1.7,0,3.2-0.3,4.4-1c1.2-0.6,2.2-1.5,2.9-2.5l7.5,4.8c-1.5,2.2-3.6,4-6.1,5.2
				c-2.5,1.2-5.5,1.8-8.8,1.8c-2.5,0-4.8-0.4-7-1.2c-2.2-0.8-4.1-1.9-5.8-3.4c-1.6-1.5-2.9-3.3-3.9-5.4c-0.9-2.2-1.4-4.6-1.4-7.4
				c0-2.7,0.5-5.1,1.4-7.3c0.9-2.2,2.2-4,3.8-5.5s3.5-2.7,5.6-3.5c2.2-0.8,4.5-1.3,7-1.3c2.4,0,4.6,0.4,6.7,1.2c2,0.8,3.8,2,5.2,3.5
				c1.5,1.5,2.6,3.4,3.4,5.6C429.1,86.6,429.5,89.1,429.5,92z M419.6,87.8c0-1.7-0.5-3.2-1.6-4.4c-1.1-1.2-2.7-1.8-4.9-1.8
				c-1.1,0-2,0.2-2.9,0.5c-0.9,0.3-1.7,0.8-2.3,1.4c-0.7,0.6-1.2,1.2-1.6,2c-0.4,0.8-0.6,1.6-0.7,2.4H419.6z"/>
			<path class="st0" d="M468.9,92c0,0.4,0,0.9,0,1.3c0,0.4,0,0.9-0.1,1.3H445c0.1,0.9,0.4,1.8,0.8,2.5c0.5,0.7,1.1,1.4,1.8,1.9
				c0.7,0.6,1.5,1,2.4,1.3c0.9,0.3,1.8,0.5,2.8,0.5c1.7,0,3.2-0.3,4.4-1c1.2-0.6,2.2-1.5,2.9-2.5l7.5,4.8c-1.5,2.2-3.6,4-6.1,5.2
				c-2.5,1.2-5.5,1.8-8.8,1.8c-2.5,0-4.8-0.4-7-1.2c-2.2-0.8-4.1-1.9-5.8-3.4c-1.6-1.5-2.9-3.3-3.9-5.4c-0.9-2.2-1.4-4.6-1.4-7.4
				c0-2.7,0.5-5.1,1.4-7.3c0.9-2.2,2.2-4,3.8-5.5s3.5-2.7,5.6-3.5c2.2-0.8,4.5-1.3,7-1.3c2.4,0,4.6,0.4,6.7,1.2c2,0.8,3.8,2,5.2,3.5
				c1.5,1.5,2.6,3.4,3.4,5.6C468.5,86.6,468.9,89.1,468.9,92z M458.9,87.8c0-1.7-0.5-3.2-1.6-4.4c-1.1-1.2-2.7-1.8-4.9-1.8
				c-1.1,0-2,0.2-2.9,0.5c-0.9,0.3-1.7,0.8-2.3,1.4c-0.7,0.6-1.2,1.2-1.6,2c-0.4,0.8-0.6,1.6-0.7,2.4H458.9z"/>
			<path class="st0" d="M497.2,108V90c0-0.9-0.1-1.8-0.2-2.6c-0.2-0.8-0.4-1.6-0.8-2.2c-0.4-0.6-0.8-1.1-1.5-1.5
				c-0.6-0.4-1.4-0.6-2.4-0.6s-1.8,0.2-2.5,0.6c-0.7,0.4-1.3,0.9-1.8,1.6c-0.5,0.7-0.8,1.4-1.1,2.3c-0.2,0.9-0.4,1.7-0.4,2.7V108
				h-10.9V75.1h10.5v4.6h0.1c0.4-0.7,0.9-1.4,1.6-2.1c0.6-0.7,1.4-1.3,2.2-1.7c0.9-0.5,1.8-0.9,2.8-1.2c1-0.3,2.1-0.5,3.2-0.5
				c2.2,0,4.1,0.4,5.6,1.2c1.5,0.8,2.8,1.8,3.7,3.1c0.9,1.3,1.6,2.7,2,4.3c0.4,1.6,0.6,3.3,0.6,4.9V108H497.2z"/>
			<path class="st0" d="M548.9,92c0,0.4,0,0.9,0,1.3c0,0.4,0,0.9-0.1,1.3H525c0.1,0.9,0.4,1.8,0.8,2.5c0.5,0.7,1.1,1.4,1.8,1.9
				c0.7,0.6,1.5,1,2.4,1.3c0.9,0.3,1.8,0.5,2.8,0.5c1.7,0,3.2-0.3,4.4-1c1.2-0.6,2.2-1.5,2.9-2.5l7.5,4.8c-1.5,2.2-3.6,4-6.1,5.2
				c-2.5,1.2-5.5,1.8-8.8,1.8c-2.5,0-4.8-0.4-7-1.2c-2.2-0.8-4.1-1.9-5.8-3.4c-1.6-1.5-2.9-3.3-3.9-5.4c-0.9-2.2-1.4-4.6-1.4-7.4
				c0-2.7,0.5-5.1,1.4-7.3c0.9-2.2,2.2-4,3.8-5.5s3.5-2.7,5.6-3.5c2.2-0.8,4.5-1.3,7-1.3c2.4,0,4.6,0.4,6.7,1.2c2,0.8,3.8,2,5.2,3.5
				c1.5,1.5,2.6,3.4,3.4,5.6C548.5,86.6,548.9,89.1,548.9,92z M538.9,87.8c0-1.7-0.5-3.2-1.6-4.4c-1.1-1.2-2.7-1.8-4.9-1.8
				c-1.1,0-2,0.2-2.9,0.5c-0.9,0.3-1.7,0.8-2.3,1.4c-0.7,0.6-1.2,1.2-1.6,2c-0.4,0.8-0.6,1.6-0.7,2.4H538.9z"/>
			<path class="st0" d="M576.9,84c-0.5-0.1-1-0.2-1.4-0.3c-0.5,0-0.9-0.1-1.4-0.1c-1.5,0-2.7,0.3-3.7,0.8c-1,0.5-1.8,1.2-2.4,1.9
				c-0.6,0.7-1,1.6-1.3,2.4c-0.3,0.9-0.4,1.6-0.4,2.3V108h-10.8V75.2H566v4.8h0.1c0.8-1.7,2-3.1,3.6-4.1c1.5-1.1,3.3-1.6,5.3-1.6
				c0.4,0,0.9,0,1.3,0.1c0.4,0,0.8,0.1,1,0.2L576.9,84z"/>
			<path class="st0" d="M601.1,84.8c-0.9-0.8-1.9-1.5-3.1-2.1c-1.2-0.6-2.4-0.9-3.8-0.9c-1,0-1.9,0.2-2.8,0.6
				c-0.9,0.4-1.3,1.1-1.3,2c0,0.9,0.5,1.6,1.4,2c0.9,0.4,2.5,0.8,4.6,1.3c1.2,0.3,2.5,0.6,3.7,1.1c1.3,0.5,2.4,1.1,3.4,1.9
				c1,0.8,1.8,1.8,2.4,2.9c0.6,1.1,0.9,2.5,0.9,4.1c0,2.1-0.4,3.8-1.3,5.2c-0.8,1.4-1.9,2.6-3.3,3.5c-1.3,0.9-2.8,1.5-4.5,1.9
				c-1.7,0.4-3.3,0.6-5,0.6c-2.7,0-5.3-0.4-7.9-1.3s-4.7-2.1-6.4-3.8l6.1-6.4c1,1.1,2.2,1.9,3.6,2.6c1.4,0.7,2.9,1.1,4.5,1.1
				c0.9,0,1.7-0.2,2.6-0.6c0.9-0.4,1.3-1.2,1.3-2.2c0-1-0.5-1.8-1.6-2.2c-1.1-0.5-2.7-1-5-1.5c-1.1-0.3-2.3-0.6-3.4-1.1
				c-1.1-0.4-2.2-1-3.1-1.8c-0.9-0.7-1.6-1.7-2.2-2.8c-0.6-1.1-0.9-2.4-0.9-4c0-2,0.4-3.7,1.3-5c0.8-1.4,1.9-2.5,3.2-3.4
				c1.3-0.9,2.8-1.5,4.4-1.9c1.6-0.4,3.2-0.6,4.8-0.6c2.5,0,4.9,0.4,7.2,1.2c2.4,0.8,4.3,1.9,6,3.5L601.1,84.8z"/>
			<path class="st0" d="M626.9,102.4c0,0.9-0.2,1.7-0.5,2.5c-0.3,0.8-0.8,1.4-1.4,2c-0.6,0.6-1.3,1-2.1,1.3s-1.6,0.5-2.5,0.5
				c-0.9,0-1.7-0.2-2.5-0.5c-0.8-0.3-1.4-0.7-2-1.3c-0.6-0.6-1-1.2-1.4-2c-0.4-0.7-0.5-1.6-0.5-2.4c0-0.8,0.2-1.6,0.5-2.4
				c0.3-0.8,0.8-1.4,1.4-2c0.6-0.6,1.3-1,2-1.4s1.6-0.5,2.5-0.5c0.9,0,1.7,0.2,2.5,0.5s1.5,0.8,2.1,1.3c0.6,0.6,1.1,1.2,1.4,2
				C626.7,100.8,626.9,101.6,626.9,102.4z M614.9,92.4V61.3h11v31.1H614.9z"/>
		</g>
		<g>
			<path class="st0" d="M4.4,142.1H10v31.2H4.4V142.1z"/>
			<path class="st0" d="M13.5,156.4v-4.2h3.7V146h5.2v6.1h5.3v4.2h-5.3v9.8c0,0.9,0.2,1.7,0.5,2.3c0.3,0.6,1.1,0.9,2.3,0.9
				c0.4,0,0.7,0,1.1-0.1c0.4-0.1,0.8-0.2,1.1-0.3l0.2,4.1c-0.5,0.2-1,0.3-1.7,0.4c-0.6,0.1-1.3,0.2-1.8,0.2c-1.4,0-2.6-0.2-3.4-0.6
				c-0.9-0.4-1.6-0.9-2.1-1.6c-0.5-0.7-0.9-1.5-1.1-2.4c-0.2-0.9-0.3-1.9-0.3-2.9v-9.9H13.5z"/>
			<path class="st0" d="M34.4,142.1h5.1l-3.7,11.6h-4.4L34.4,142.1z"/>
			<path class="st0" d="M53.9,157.8c-0.5-0.6-1.1-1.2-1.9-1.6c-0.8-0.5-1.7-0.7-2.7-0.7c-0.9,0-1.6,0.2-2.3,0.5s-1.1,0.9-1.1,1.8
				c0,0.8,0.4,1.4,1.2,1.7c0.8,0.3,1.9,0.7,3.4,1c0.8,0.2,1.6,0.4,2.4,0.7c0.8,0.3,1.5,0.7,2.2,1.2c0.7,0.5,1.2,1.1,1.6,1.8
				c0.4,0.7,0.6,1.6,0.6,2.6c0,1.3-0.2,2.4-0.7,3.3c-0.5,0.9-1.1,1.6-1.9,2.2c-0.8,0.6-1.7,1-2.8,1.2c-1.1,0.2-2.2,0.4-3.3,0.4
				c-1.6,0-3.2-0.3-4.8-0.9c-1.6-0.6-2.8-1.5-3.9-2.6l3.5-3.3c0.6,0.8,1.3,1.4,2.3,1.9c0.9,0.5,2,0.7,3.1,0.7c0.4,0,0.8,0,1.2-0.1
				s0.8-0.2,1.1-0.4c0.3-0.2,0.6-0.4,0.8-0.8c0.2-0.3,0.3-0.7,0.3-1.2c0-0.9-0.4-1.5-1.2-1.9c-0.8-0.4-2-0.8-3.6-1.1
				c-0.8-0.2-1.6-0.4-2.3-0.7c-0.7-0.3-1.4-0.6-2-1.1c-0.6-0.5-1.1-1-1.4-1.7c-0.4-0.7-0.5-1.5-0.5-2.5c0-1.2,0.2-2.2,0.7-3
				c0.5-0.9,1.1-1.5,1.9-2.1c0.8-0.5,1.7-0.9,2.7-1.2c1-0.3,2-0.4,3.1-0.4c1.5,0,3,0.3,4.5,0.8c1.5,0.5,2.6,1.3,3.5,2.4L53.9,157.8z
				"/>
			<path class="st0" d="M71.7,157.6c0-2.5,0.4-4.7,1.3-6.8c0.8-2,2-3.7,3.5-5.1c1.5-1.4,3.2-2.5,5.3-3.3c2-0.8,4.3-1.1,6.7-1.1
				c2.4,0,4.7,0.4,6.7,1.1c2.1,0.8,3.8,1.8,5.3,3.3c1.5,1.4,2.7,3.1,3.5,5.1c0.8,2,1.3,4.3,1.3,6.8c0,2.4-0.4,4.7-1.3,6.7
				c-0.8,2-2,3.7-3.5,5.2c-1.5,1.5-3.3,2.6-5.3,3.4c-2.1,0.8-4.3,1.2-6.7,1.2c-2.4,0-4.6-0.4-6.7-1.2c-2-0.8-3.8-1.9-5.3-3.4
				c-1.5-1.5-2.6-3.2-3.5-5.2C72.1,162.3,71.7,160,71.7,157.6z M77.7,157.6c0,1.7,0.3,3.2,0.8,4.6c0.5,1.4,1.2,2.6,2.2,3.6
				c1,1,2.1,1.8,3.4,2.4c1.3,0.6,2.8,0.9,4.3,0.9c1.6,0,3-0.3,4.4-0.9c1.3-0.6,2.5-1.4,3.4-2.4c1-1,1.7-2.2,2.2-3.6
				c0.5-1.4,0.8-2.9,0.8-4.6c0-1.6-0.3-3.1-0.8-4.5c-0.5-1.4-1.2-2.6-2.2-3.6c-0.9-1-2.1-1.8-3.4-2.4c-1.3-0.6-2.8-0.9-4.4-0.9
				s-3.1,0.3-4.4,0.9s-2.4,1.4-3.4,2.4c-0.9,1-1.7,2.2-2.2,3.6C77.9,154.5,77.7,156,77.7,157.6z"/>
			<path class="st0" d="M119.4,164.7h-10.6v-4.5h10.6V164.7z"/>
			<path class="st0" d="M120.9,142.1h6.1l6,22.9h0.1l6.9-22.9h5.7l6.7,22.9h0.1l6.2-22.9h5.9l-9.1,31.2h-5.4l-7.3-23.4h-0.1
				l-7.3,23.4H130L120.9,142.1z"/>
			<path class="st0" d="M186.5,163c0,0.2,0,0.5,0,0.7s0,0.5,0,0.7h-16.1c0.1,0.8,0.3,1.5,0.6,2.1c0.3,0.6,0.8,1.2,1.3,1.6
				c0.6,0.5,1.2,0.8,1.9,1.1s1.4,0.4,2.2,0.4c1.3,0,2.4-0.2,3.3-0.7c0.9-0.5,1.7-1.2,2.2-2l3.5,2.8c-2.1,2.8-5.1,4.2-9.1,4.2
				c-1.6,0-3.2-0.3-4.5-0.8c-1.4-0.5-2.6-1.2-3.6-2.2c-1-0.9-1.8-2.1-2.4-3.5c-0.6-1.4-0.9-2.9-0.9-4.6c0-1.7,0.3-3.2,0.9-4.6
				c0.6-1.4,1.4-2.6,2.4-3.6c1-1,2.2-1.7,3.5-2.3c1.4-0.5,2.8-0.8,4.4-0.8c1.5,0,2.8,0.2,4.1,0.7c1.2,0.5,2.3,1.2,3.2,2.2
				c0.9,1,1.6,2.1,2.1,3.6S186.5,161.1,186.5,163z M181.3,160.6c0-0.7-0.1-1.3-0.3-1.9c-0.2-0.6-0.5-1.2-0.9-1.6
				c-0.4-0.5-0.9-0.8-1.6-1.1c-0.6-0.3-1.4-0.4-2.2-0.4c-1.6,0-2.9,0.5-4,1.4s-1.7,2.2-1.8,3.7H181.3z"/>
			<path class="st0" d="M211.8,163c0,0.2,0,0.5,0,0.7s0,0.5,0,0.7h-16.1c0.1,0.8,0.3,1.5,0.6,2.1c0.3,0.6,0.8,1.2,1.3,1.6
				c0.6,0.5,1.2,0.8,1.9,1.1s1.4,0.4,2.2,0.4c1.3,0,2.4-0.2,3.3-0.7c0.9-0.5,1.7-1.2,2.2-2l3.5,2.8c-2.1,2.8-5.1,4.2-9.1,4.2
				c-1.6,0-3.2-0.3-4.5-0.8c-1.4-0.5-2.6-1.2-3.6-2.2c-1-0.9-1.8-2.1-2.4-3.5c-0.6-1.4-0.9-2.9-0.9-4.6c0-1.7,0.3-3.2,0.9-4.6
				c0.6-1.4,1.4-2.6,2.4-3.6c1-1,2.2-1.7,3.5-2.3c1.4-0.5,2.8-0.8,4.4-0.8c1.5,0,2.8,0.2,4.1,0.7c1.2,0.5,2.3,1.2,3.2,2.2
				c0.9,1,1.6,2.1,2.1,3.6S211.8,161.1,211.8,163z M206.5,160.6c0-0.7-0.1-1.3-0.3-1.9c-0.2-0.6-0.5-1.2-0.9-1.6
				c-0.4-0.5-0.9-0.8-1.6-1.1c-0.6-0.3-1.4-0.4-2.2-0.4c-1.6,0-2.9,0.5-4,1.4s-1.7,2.2-1.8,3.7H206.5z"/>
			<path class="st0" d="M217,140h5.3v21h0.1l8-8.9h6.8l-9.2,9.5l9.7,11.6h-7l-8.4-10.8h-0.1v10.8H217V140z"/>
			<path class="st0" d="M239.8,170.2c0-0.9,0.3-1.7,1-2.4c0.7-0.7,1.5-1,2.5-1c0.9,0,1.8,0.3,2.5,1s1.1,1.4,1.1,2.4
				c0,0.9-0.3,1.7-1,2.4c-0.7,0.7-1.5,1-2.5,1c-0.5,0-0.9-0.1-1.3-0.3c-0.4-0.2-0.8-0.4-1.1-0.7c-0.3-0.3-0.6-0.6-0.8-1.1
				C239.9,171.1,239.8,170.7,239.8,170.2z"/>
			<path class="st0" d="M262.2,142.1h5.5v26.2H281v4.9h-18.8V142.1z"/>
			<path class="st0" d="M303.8,163c0,0.2,0,0.5,0,0.7s0,0.5,0,0.7h-16.1c0.1,0.8,0.3,1.5,0.6,2.1c0.3,0.6,0.8,1.2,1.3,1.6
				c0.6,0.5,1.2,0.8,1.9,1.1s1.4,0.4,2.2,0.4c1.3,0,2.4-0.2,3.3-0.7c0.9-0.5,1.7-1.2,2.2-2l3.5,2.8c-2.1,2.8-5.1,4.2-9.1,4.2
				c-1.6,0-3.2-0.3-4.5-0.8c-1.4-0.5-2.6-1.2-3.6-2.2c-1-0.9-1.8-2.1-2.4-3.5c-0.6-1.4-0.9-2.9-0.9-4.6c0-1.7,0.3-3.2,0.9-4.6
				c0.6-1.4,1.4-2.6,2.4-3.6c1-1,2.2-1.7,3.5-2.3c1.4-0.5,2.8-0.8,4.4-0.8c1.5,0,2.8,0.2,4.1,0.7c1.2,0.5,2.3,1.2,3.2,2.2
				c0.9,1,1.6,2.1,2.1,3.6S303.8,161.1,303.8,163z M298.5,160.6c0-0.7-0.1-1.3-0.3-1.9c-0.2-0.6-0.5-1.2-0.9-1.6
				c-0.4-0.5-0.9-0.8-1.6-1.1c-0.6-0.3-1.4-0.4-2.2-0.4c-1.6,0-2.9,0.5-4,1.4s-1.7,2.2-1.8,3.7H298.5z"/>
			<path class="st0" d="M321.7,170.6h-0.1c-0.5,0.9-1.4,1.7-2.6,2.3c-1.2,0.6-2.5,0.9-4,0.9c-0.9,0-1.7-0.1-2.7-0.3
				c-0.9-0.2-1.8-0.6-2.6-1.1c-0.8-0.5-1.4-1.2-1.9-2c-0.5-0.8-0.8-1.9-0.8-3.1c0-1.6,0.4-2.8,1.3-3.8c0.9-0.9,2-1.7,3.5-2.2
				c1.4-0.5,3-0.8,4.7-1c1.7-0.2,3.4-0.2,5-0.2v-0.5c0-1.3-0.5-2.3-1.4-2.9c-1-0.6-2.1-0.9-3.4-0.9c-1.1,0-2.2,0.2-3.2,0.7
				c-1,0.5-1.9,1-2.6,1.7l-2.7-3.2c1.2-1.1,2.6-1.9,4.2-2.5c1.6-0.6,3.2-0.8,4.8-0.8c1.9,0,3.4,0.3,4.6,0.8c1.2,0.5,2.2,1.2,2.9,2.1
				s1.2,1.8,1.5,2.9c0.3,1.1,0.4,2.1,0.4,3.2v12.8h-4.9V170.6z M321.6,163.6h-1.2c-0.9,0-1.7,0-2.7,0.1c-0.9,0.1-1.8,0.2-2.6,0.5
				s-1.5,0.6-2,1.1c-0.5,0.5-0.8,1.1-0.8,1.9c0,0.5,0.1,0.9,0.3,1.3c0.2,0.3,0.5,0.6,0.9,0.8c0.4,0.2,0.7,0.4,1.2,0.4
				s0.9,0.1,1.3,0.1c1.8,0,3.2-0.5,4.1-1.5c0.9-1,1.4-2.3,1.4-4V163.6z"/>
			<path class="st0" d="M332.8,152.1h5.1v3.5h0.1c0.6-1.2,1.4-2.2,2.5-3c1.1-0.8,2.3-1.1,3.7-1.1c0.2,0,0.4,0,0.7,0
				c0.2,0,0.4,0.1,0.6,0.1v4.8c-0.4-0.1-0.7-0.1-0.9-0.2s-0.5,0-0.7,0c-1.2,0-2.2,0.2-2.9,0.7c-0.7,0.4-1.3,1-1.7,1.6
				c-0.4,0.6-0.7,1.2-0.8,1.9c-0.1,0.6-0.2,1.2-0.2,1.5v11.3h-5.3V152.1z"/>
			<path class="st0" d="M348.8,152.1h5v3.4h0.1c0.5-1.1,1.3-2,2.4-2.8c1.2-0.8,2.5-1.2,4.1-1.2c1.4,0,2.6,0.2,3.5,0.7
				c1,0.5,1.8,1.1,2.4,1.9c0.6,0.8,1.1,1.7,1.4,2.7c0.3,1,0.4,2.1,0.4,3.2v13.2H363v-11.7c0-0.6,0-1.3-0.1-1.9
				c-0.1-0.7-0.3-1.3-0.6-1.8c-0.3-0.5-0.7-1-1.2-1.3c-0.5-0.4-1.2-0.5-2-0.5c-0.9,0-1.6,0.2-2.2,0.5c-0.6,0.3-1.1,0.8-1.5,1.3
				c-0.4,0.5-0.7,1.1-0.9,1.8c-0.2,0.7-0.3,1.4-0.3,2.1v11.6h-5.3V152.1z"/>
			<path class="st0" d="M397.2,151.5c1.4,0,2.6,0.2,3.5,0.7c1,0.5,1.8,1.1,2.4,1.9c0.6,0.8,1.1,1.7,1.4,2.7c0.3,1,0.4,2.1,0.4,3.2
				v13.2h-5.3v-11.6c0-0.6,0-1.3-0.1-1.9c-0.1-0.7-0.3-1.3-0.5-1.8c-0.3-0.5-0.7-1-1.2-1.3c-0.5-0.4-1.2-0.5-2-0.5s-1.6,0.2-2.2,0.5
				c-0.6,0.3-1.1,0.8-1.5,1.3s-0.7,1.2-0.9,1.8s-0.3,1.4-0.3,2.1v11.5h-5.3V140h5.3v15.1h0.1c0.2-0.4,0.5-0.9,0.9-1.3
				c0.4-0.4,0.9-0.8,1.4-1.1c0.5-0.3,1.1-0.6,1.8-0.8S396.4,151.5,397.2,151.5z"/>
			<path class="st0" d="M409.9,162.6c0-1.7,0.3-3.2,0.9-4.6c0.6-1.4,1.4-2.5,2.4-3.5c1-1,2.2-1.7,3.7-2.2c1.4-0.5,2.9-0.8,4.5-0.8
				s3.1,0.3,4.5,0.8c1.4,0.5,2.6,1.3,3.7,2.2c1,1,1.8,2.1,2.4,3.5c0.6,1.4,0.9,2.9,0.9,4.6s-0.3,3.2-0.9,4.6
				c-0.6,1.4-1.4,2.6-2.4,3.5c-1,1-2.2,1.8-3.7,2.3c-1.4,0.6-2.9,0.8-4.5,0.8s-3.1-0.3-4.5-0.8c-1.4-0.6-2.6-1.3-3.7-2.3
				c-1-1-1.8-2.2-2.4-3.5C410.2,165.8,409.9,164.3,409.9,162.6z M415.3,162.6c0,0.8,0.1,1.6,0.4,2.5s0.6,1.6,1.1,2.2
				c0.5,0.6,1.1,1.2,1.9,1.6c0.8,0.4,1.7,0.6,2.7,0.6s2-0.2,2.7-0.6c0.8-0.4,1.4-0.9,1.9-1.6c0.5-0.6,0.9-1.4,1.1-2.2
				c0.2-0.8,0.4-1.6,0.4-2.5c0-0.8-0.1-1.6-0.4-2.4c-0.2-0.8-0.6-1.5-1.1-2.2c-0.5-0.6-1.1-1.2-1.9-1.6c-0.8-0.4-1.7-0.6-2.7-0.6
				s-2,0.2-2.7,0.6c-0.8,0.4-1.4,0.9-1.9,1.6c-0.5,0.6-0.9,1.4-1.1,2.2S415.3,161.8,415.3,162.6z"/>
			<path class="st0" d="M435,152.1h5.7l4.4,15.1h0.1l4.5-15.1h5.6l4.6,15.1h0.1l4.5-15.1h5.5l-7.3,21.1h-5.4l-4.8-14.8h-0.1
				l-4.8,14.8h-5.4L435,152.1z"/>
			<path class="st0" d="M481.3,156.4v-4.2h3.7V146h5.2v6.1h5.3v4.2h-5.3v9.8c0,0.9,0.2,1.7,0.5,2.3c0.3,0.6,1.1,0.9,2.3,0.9
				c0.4,0,0.7,0,1.1-0.1s0.8-0.2,1.1-0.3l0.2,4.1c-0.5,0.2-1,0.3-1.7,0.4c-0.6,0.1-1.3,0.2-1.8,0.2c-1.4,0-2.6-0.2-3.4-0.6
				c-0.9-0.4-1.6-0.9-2.1-1.6c-0.5-0.7-0.9-1.5-1.1-2.4c-0.2-0.9-0.3-1.9-0.3-2.9v-9.9H481.3z"/>
			<path class="st0" d="M498.1,162.6c0-1.7,0.3-3.2,0.9-4.6c0.6-1.4,1.4-2.5,2.4-3.5c1-1,2.2-1.7,3.7-2.2c1.4-0.5,2.9-0.8,4.5-0.8
				s3.1,0.3,4.5,0.8c1.4,0.5,2.6,1.3,3.7,2.2c1,1,1.8,2.1,2.4,3.5c0.6,1.4,0.9,2.9,0.9,4.6s-0.3,3.2-0.9,4.6
				c-0.6,1.4-1.4,2.6-2.4,3.5c-1,1-2.2,1.8-3.7,2.3c-1.4,0.6-2.9,0.8-4.5,0.8s-3.1-0.3-4.5-0.8c-1.4-0.6-2.6-1.3-3.7-2.3
				c-1-1-1.8-2.2-2.4-3.5C498.4,165.8,498.1,164.3,498.1,162.6z M503.4,162.6c0,0.8,0.1,1.6,0.4,2.5s0.6,1.6,1.1,2.2
				c0.5,0.6,1.1,1.2,1.9,1.6c0.8,0.4,1.7,0.6,2.7,0.6s2-0.2,2.7-0.6c0.8-0.4,1.4-0.9,1.9-1.6c0.5-0.6,0.9-1.4,1.1-2.2
				c0.2-0.8,0.4-1.6,0.4-2.5c0-0.8-0.1-1.6-0.4-2.4c-0.2-0.8-0.6-1.5-1.1-2.2c-0.5-0.6-1.1-1.2-1.9-1.6c-0.8-0.4-1.7-0.6-2.7-0.6
				s-2,0.2-2.7,0.6c-0.8,0.4-1.4,0.9-1.9,1.6c-0.5,0.6-0.9,1.4-1.1,2.2S503.4,161.8,503.4,162.6z"/>
			<path class="st0" d="M15.7,210.6c-0.5-0.6-1.1-1.2-1.9-1.6c-0.8-0.5-1.7-0.7-2.7-0.7c-0.9,0-1.6,0.2-2.3,0.5
				c-0.7,0.4-1.1,0.9-1.1,1.8s0.4,1.4,1.2,1.7c0.8,0.3,1.9,0.7,3.4,1c0.8,0.2,1.6,0.4,2.4,0.7c0.8,0.3,1.5,0.7,2.2,1.2
				c0.7,0.5,1.2,1.1,1.6,1.8c0.4,0.7,0.6,1.6,0.6,2.6c0,1.3-0.2,2.4-0.7,3.3c-0.5,0.9-1.1,1.6-1.9,2.2c-0.8,0.6-1.7,1-2.8,1.2
				c-1.1,0.2-2.2,0.4-3.3,0.4c-1.6,0-3.2-0.3-4.8-0.9c-1.6-0.6-2.8-1.5-3.9-2.6l3.5-3.3c0.6,0.8,1.3,1.4,2.3,1.9
				c0.9,0.5,2,0.7,3.1,0.7c0.4,0,0.8,0,1.2-0.1s0.8-0.2,1.1-0.4c0.3-0.2,0.6-0.4,0.8-0.8c0.2-0.3,0.3-0.7,0.3-1.2
				c0-0.9-0.4-1.5-1.2-1.9c-0.8-0.4-2-0.8-3.6-1.1c-0.8-0.2-1.6-0.4-2.3-0.7c-0.7-0.3-1.4-0.6-2-1.1c-0.6-0.5-1.1-1-1.4-1.7
				s-0.5-1.5-0.5-2.5c0-1.2,0.2-2.2,0.7-3c0.5-0.8,1.1-1.5,1.9-2.1c0.8-0.5,1.7-0.9,2.7-1.2c1-0.3,2-0.4,3.1-0.4
				c1.5,0,3,0.3,4.5,0.8c1.5,0.5,2.6,1.3,3.5,2.4L15.7,210.6z"/>
			<path class="st0" d="M43,226.1h-5v-3.4h-0.1c-0.5,1.1-1.3,2-2.4,2.8c-1.2,0.8-2.5,1.2-4.1,1.2c-1.4,0-2.6-0.2-3.5-0.7
				c-1-0.5-1.8-1.1-2.4-1.9c-0.6-0.8-1.1-1.7-1.4-2.7c-0.3-1-0.4-2.1-0.4-3.2v-13.2h5.3v11.7c0,0.6,0,1.3,0.1,1.9
				c0.1,0.7,0.3,1.3,0.6,1.8c0.3,0.5,0.7,1,1.2,1.3c0.5,0.4,1.2,0.5,2,0.5c0.8,0,1.5-0.2,2.2-0.5c0.6-0.3,1.1-0.8,1.5-1.3
				c0.4-0.5,0.7-1.1,0.9-1.8c0.2-0.7,0.3-1.4,0.3-2.1v-11.6H43V226.1z"/>
			<path class="st0" d="M63.7,210.8c-0.4-0.6-1-1.1-1.8-1.5c-0.8-0.4-1.7-0.6-2.5-0.6c-1,0-1.8,0.2-2.6,0.6
				c-0.7,0.4-1.3,0.9-1.8,1.6c-0.5,0.6-0.8,1.4-1.1,2.2c-0.2,0.8-0.4,1.6-0.4,2.4c0,0.8,0.1,1.6,0.4,2.4c0.2,0.8,0.6,1.5,1.1,2.2
				c0.5,0.6,1.1,1.2,1.9,1.6c0.7,0.4,1.6,0.6,2.6,0.6c0.8,0,1.6-0.2,2.5-0.5c0.8-0.3,1.5-0.8,2-1.4l3.3,3.3c-0.9,0.9-2,1.7-3.4,2.2
				c-1.4,0.5-2.8,0.8-4.4,0.8c-1.6,0-3-0.2-4.4-0.7c-1.4-0.5-2.6-1.2-3.7-2.2c-1-1-1.9-2.1-2.5-3.5c-0.6-1.4-0.9-2.9-0.9-4.7
				c0-1.7,0.3-3.2,0.9-4.6c0.6-1.4,1.4-2.6,2.4-3.5c1-1,2.2-1.7,3.6-2.2c1.4-0.5,2.8-0.8,4.4-0.8c1.6,0,3.1,0.3,4.5,0.9
				s2.6,1.4,3.5,2.4L63.7,210.8z"/>
			<path class="st0" d="M85.2,210.8c-0.4-0.6-1-1.1-1.8-1.5c-0.8-0.4-1.7-0.6-2.5-0.6c-1,0-1.8,0.2-2.6,0.6
				c-0.7,0.4-1.3,0.9-1.8,1.6c-0.5,0.6-0.8,1.4-1.1,2.2c-0.2,0.8-0.4,1.6-0.4,2.4c0,0.8,0.1,1.6,0.4,2.4c0.2,0.8,0.6,1.5,1.1,2.2
				c0.5,0.6,1.1,1.2,1.9,1.6c0.7,0.4,1.6,0.6,2.6,0.6c0.8,0,1.6-0.2,2.5-0.5c0.8-0.3,1.5-0.8,2-1.4l3.3,3.3c-0.9,0.9-2,1.7-3.4,2.2
				c-1.4,0.5-2.8,0.8-4.4,0.8c-1.6,0-3-0.2-4.4-0.7c-1.4-0.5-2.6-1.2-3.7-2.2c-1-1-1.9-2.1-2.5-3.5c-0.6-1.4-0.9-2.9-0.9-4.7
				c0-1.7,0.3-3.2,0.9-4.6c0.6-1.4,1.4-2.6,2.4-3.5c1-1,2.2-1.7,3.6-2.2c1.4-0.5,2.8-0.8,4.4-0.8c1.6,0,3.1,0.3,4.5,0.9
				s2.6,1.4,3.5,2.4L85.2,210.8z"/>
			<path class="st0" d="M112.4,215.8c0,0.2,0,0.5,0,0.7c0,0.2,0,0.5,0,0.7H96.3c0.1,0.8,0.3,1.5,0.6,2.1c0.3,0.6,0.8,1.2,1.3,1.6
				c0.6,0.5,1.2,0.8,1.9,1.1c0.7,0.3,1.4,0.4,2.2,0.4c1.3,0,2.4-0.2,3.3-0.7c0.9-0.5,1.7-1.2,2.2-2l3.5,2.8
				c-2.1,2.8-5.1,4.2-9.1,4.2c-1.6,0-3.2-0.3-4.5-0.8c-1.4-0.5-2.6-1.2-3.6-2.2c-1-0.9-1.8-2.1-2.4-3.5c-0.6-1.4-0.9-2.9-0.9-4.6
				c0-1.7,0.3-3.2,0.9-4.6c0.6-1.4,1.4-2.6,2.4-3.6c1-1,2.2-1.7,3.5-2.3c1.4-0.5,2.8-0.8,4.4-0.8c1.5,0,2.8,0.2,4.1,0.7
				c1.2,0.5,2.3,1.2,3.2,2.2c0.9,1,1.6,2.1,2.1,3.6C112.1,212.2,112.4,213.9,112.4,215.8z M107.1,213.4c0-0.7-0.1-1.3-0.3-1.9
				c-0.2-0.6-0.5-1.2-0.9-1.6c-0.4-0.5-0.9-0.8-1.6-1.1c-0.6-0.3-1.4-0.4-2.2-0.4c-1.6,0-2.9,0.5-4,1.4c-1.1,1-1.7,2.2-1.8,3.7
				H107.1z"/>
			<path class="st0" d="M137.7,215.8c0,0.2,0,0.5,0,0.7c0,0.2,0,0.5,0,0.7h-16.1c0.1,0.8,0.3,1.5,0.6,2.1c0.3,0.6,0.8,1.2,1.3,1.6
				c0.6,0.5,1.2,0.8,1.9,1.1c0.7,0.3,1.4,0.4,2.2,0.4c1.3,0,2.4-0.2,3.3-0.7c0.9-0.5,1.7-1.2,2.2-2l3.5,2.8
				c-2.1,2.8-5.1,4.2-9.1,4.2c-1.6,0-3.2-0.3-4.5-0.8c-1.4-0.5-2.6-1.2-3.6-2.2c-1-0.9-1.8-2.1-2.4-3.5c-0.6-1.4-0.9-2.9-0.9-4.6
				c0-1.7,0.3-3.2,0.9-4.6c0.6-1.4,1.4-2.6,2.4-3.6c1-1,2.2-1.7,3.5-2.3c1.4-0.5,2.8-0.8,4.4-0.8c1.5,0,2.8,0.2,4.1,0.7
				c1.2,0.5,2.3,1.2,3.2,2.2c0.9,1,1.6,2.1,2.1,3.6C137.4,212.2,137.7,213.9,137.7,215.8z M132.4,213.4c0-0.7-0.1-1.3-0.3-1.9
				c-0.2-0.6-0.5-1.2-0.9-1.6c-0.4-0.5-0.9-0.8-1.6-1.1c-0.6-0.3-1.4-0.4-2.2-0.4c-1.6,0-2.9,0.5-4,1.4c-1.1,1-1.7,2.2-1.8,3.7
				H132.4z"/>
			<path class="st0" d="M164.2,226.1h-5v-3.2h-0.1c-0.7,1.2-1.8,2.2-3.1,2.8c-1.3,0.6-2.7,1-4.2,1c-1.6,0-3.1-0.3-4.3-0.9
				c-1.3-0.6-2.4-1.4-3.3-2.4c-0.9-1-1.6-2.2-2.1-3.6c-0.5-1.4-0.7-2.8-0.7-4.4s0.2-3,0.7-4.4c0.5-1.3,1.2-2.5,2.1-3.5
				c0.9-1,2-1.8,3.3-2.4s2.6-0.9,4.1-0.9c1,0,1.8,0.1,2.6,0.3c0.8,0.2,1.4,0.5,2,0.8c0.6,0.3,1.1,0.7,1.5,1.1c0.4,0.4,0.7,0.7,1,1.1
				h0.1v-14.8h5.3V226.1z M146.9,215.4c0,0.8,0.1,1.6,0.4,2.5c0.2,0.8,0.6,1.6,1.1,2.2c0.5,0.6,1.1,1.2,1.9,1.6
				c0.8,0.4,1.7,0.6,2.7,0.6c1,0,1.8-0.2,2.6-0.6c0.8-0.4,1.4-0.9,2-1.6c0.5-0.6,1-1.4,1.2-2.2c0.3-0.8,0.4-1.6,0.4-2.4
				c0-0.8-0.1-1.6-0.4-2.5c-0.3-0.8-0.7-1.6-1.2-2.2c-0.5-0.6-1.2-1.2-2-1.6c-0.8-0.4-1.6-0.6-2.6-0.6c-1,0-1.9,0.2-2.7,0.6
				c-0.8,0.4-1.4,0.9-1.9,1.6c-0.5,0.6-0.9,1.4-1.1,2.2C147,213.8,146.9,214.6,146.9,215.4z"/>
			<path class="st0" d="M194.8,223.4h-0.1c-0.5,0.9-1.4,1.7-2.6,2.3c-1.2,0.6-2.5,0.9-4,0.9c-0.9,0-1.7-0.1-2.7-0.3
				c-0.9-0.2-1.8-0.6-2.6-1.1c-0.8-0.5-1.4-1.2-1.9-2c-0.5-0.8-0.8-1.9-0.8-3.1c0-1.6,0.4-2.8,1.3-3.8c0.9-0.9,2-1.7,3.5-2.2
				c1.4-0.5,3-0.8,4.7-1c1.7-0.2,3.4-0.2,5-0.2v-0.5c0-1.3-0.5-2.3-1.4-2.9c-1-0.6-2.1-0.9-3.4-0.9c-1.1,0-2.2,0.2-3.2,0.7
				c-1,0.5-1.9,1-2.6,1.7l-2.7-3.2c1.2-1.1,2.6-2,4.2-2.5c1.6-0.6,3.2-0.8,4.8-0.8c1.9,0,3.4,0.3,4.6,0.8c1.2,0.5,2.2,1.2,2.9,2.1
				c0.7,0.9,1.2,1.8,1.5,2.9c0.3,1.1,0.4,2.1,0.4,3.2v12.8h-4.9V223.4z M194.7,216.4h-1.2c-0.9,0-1.7,0-2.7,0.1
				c-0.9,0.1-1.8,0.2-2.6,0.5c-0.8,0.2-1.5,0.6-2,1.1c-0.5,0.5-0.8,1.1-0.8,1.9c0,0.5,0.1,0.9,0.3,1.3c0.2,0.3,0.5,0.6,0.9,0.8
				c0.4,0.2,0.7,0.4,1.2,0.4s0.9,0.1,1.3,0.1c1.8,0,3.2-0.5,4.1-1.5c0.9-1,1.4-2.3,1.4-4V216.4z"/>
			<path class="st0" d="M202.4,209.2v-4.2h3.7v-6.1h5.2v6.1h5.3v4.2h-5.3v9.8c0,0.9,0.2,1.7,0.5,2.3c0.3,0.6,1.1,0.9,2.3,0.9
				c0.4,0,0.7,0,1.1-0.1c0.4-0.1,0.8-0.2,1.1-0.3l0.2,4.1c-0.5,0.2-1,0.3-1.7,0.4c-0.6,0.1-1.3,0.2-1.8,0.2c-1.4,0-2.6-0.2-3.4-0.6
				c-0.9-0.4-1.6-0.9-2.1-1.6c-0.5-0.7-0.9-1.5-1.1-2.4c-0.2-0.9-0.3-1.9-0.3-2.9v-9.9H202.4z"/>
			<path class="st0" d="M231.6,194.9h20.6v4.8h-15.1v7.9h14.3v4.7h-14.3v8.8h15.9v4.9h-21.4V194.9z"/>
			<path class="st0" d="M254.5,204.9h5.8l5.5,15.4h0.1l5.6-15.4h5.6l-8.4,21.1h-5.6L254.5,204.9z"/>
			<path class="st0" d="M300.4,215.8c0,0.2,0,0.5,0,0.7c0,0.2,0,0.5,0,0.7h-16.1c0.1,0.8,0.3,1.5,0.6,2.1c0.3,0.6,0.8,1.2,1.3,1.6
				c0.6,0.5,1.2,0.8,1.9,1.1c0.7,0.3,1.4,0.4,2.2,0.4c1.3,0,2.4-0.2,3.3-0.7c0.9-0.5,1.7-1.2,2.2-2l3.5,2.8
				c-2.1,2.8-5.1,4.2-9.1,4.2c-1.6,0-3.2-0.3-4.5-0.8c-1.4-0.5-2.6-1.2-3.6-2.2c-1-0.9-1.8-2.1-2.4-3.5c-0.6-1.4-0.9-2.9-0.9-4.6
				c0-1.7,0.3-3.2,0.9-4.6c0.6-1.4,1.4-2.6,2.4-3.6c1-1,2.2-1.7,3.5-2.3c1.4-0.5,2.8-0.8,4.4-0.8c1.5,0,2.8,0.2,4.1,0.7
				c1.2,0.5,2.3,1.2,3.2,2.2c0.9,1,1.6,2.1,2.1,3.6C300.2,212.2,300.4,213.9,300.4,215.8z M295.1,213.4c0-0.7-0.1-1.3-0.3-1.9
				c-0.2-0.6-0.5-1.2-0.9-1.6c-0.4-0.5-0.9-0.8-1.6-1.1c-0.6-0.3-1.4-0.4-2.2-0.4c-1.6,0-2.9,0.5-4,1.4c-1.1,1-1.7,2.2-1.8,3.7
				H295.1z"/>
			<path class="st0" d="M305.5,204.9h5.1v3.5h0.1c0.6-1.2,1.4-2.2,2.5-3c1.1-0.8,2.3-1.1,3.7-1.1c0.2,0,0.4,0,0.7,0
				c0.2,0,0.4,0.1,0.6,0.1v4.8c-0.4-0.1-0.7-0.1-0.9-0.2c-0.2,0-0.5,0-0.7,0c-1.2,0-2.2,0.2-2.9,0.7c-0.7,0.4-1.3,1-1.7,1.6
				c-0.4,0.6-0.7,1.2-0.8,1.9c-0.1,0.6-0.2,1.2-0.2,1.5v11.3h-5.3V204.9z"/>
			<path class="st0" d="M342.2,204.9v19.2c0,1.9-0.2,3.6-0.7,5.2c-0.5,1.5-1.2,2.8-2.2,3.9c-1,1.1-2.2,1.9-3.7,2.5
				c-1.5,0.6-3.3,0.9-5.3,0.9c-0.9,0-1.8-0.1-2.7-0.2c-1-0.1-1.9-0.4-2.8-0.7c-0.9-0.3-1.8-0.7-2.7-1.1c-0.9-0.4-1.6-0.9-2.3-1.5
				l3-4.1c1,1,2.2,1.7,3.5,2.2s2.6,0.8,3.9,0.8c1.3,0,2.3-0.2,3.2-0.6c0.9-0.4,1.6-0.9,2.1-1.5c0.5-0.6,0.9-1.4,1.1-2.3
				c0.2-0.9,0.3-1.9,0.3-2.9v-1.5h-0.1c-0.8,1-1.7,1.8-2.9,2.4c-1.2,0.5-2.5,0.8-4,0.8c-1.6,0-3-0.3-4.3-0.9s-2.4-1.4-3.3-2.4
				c-0.9-1-1.6-2.2-2.1-3.5c-0.5-1.3-0.7-2.8-0.7-4.2c0-1.5,0.2-3,0.7-4.3c0.5-1.3,1.2-2.5,2.1-3.5c0.9-1,2-1.8,3.3-2.4
				c1.3-0.6,2.7-0.9,4.3-0.9c1.5,0,2.9,0.3,4.2,0.9c1.3,0.6,2.3,1.6,3.1,2.9h0.1v-3.2H342.2z M331,208.6c-1,0-1.8,0.2-2.6,0.5
				c-0.7,0.4-1.4,0.8-1.9,1.4c-0.5,0.6-0.9,1.3-1.2,2.1s-0.4,1.7-0.4,2.6c0,0.8,0.1,1.7,0.4,2.5s0.7,1.5,1.2,2.1
				c0.5,0.6,1.1,1.1,1.9,1.5c0.7,0.4,1.6,0.6,2.5,0.6c1,0,1.8-0.2,2.6-0.5c0.8-0.4,1.4-0.9,2-1.5s1-1.3,1.3-2.1
				c0.3-0.8,0.4-1.6,0.4-2.5c0-0.9-0.1-1.8-0.4-2.6c-0.3-0.8-0.7-1.5-1.3-2.1c-0.5-0.6-1.2-1.1-2-1.4
				C332.8,208.8,331.9,208.6,331,208.6z"/>
			<path class="st0" d="M348.5,204.9h5.1v3.5h0.1c0.6-1.2,1.4-2.2,2.5-3c1.1-0.8,2.3-1.1,3.7-1.1c0.2,0,0.4,0,0.7,0
				c0.2,0,0.4,0.1,0.6,0.1v4.8c-0.4-0.1-0.7-0.1-0.9-0.2c-0.2,0-0.5,0-0.7,0c-1.2,0-2.2,0.2-2.9,0.7c-0.7,0.4-1.3,1-1.7,1.6
				c-0.4,0.6-0.7,1.2-0.8,1.9c-0.1,0.6-0.2,1.2-0.2,1.5v11.3h-5.3V204.9z"/>
			<path class="st0" d="M383.9,215.8c0,0.2,0,0.5,0,0.7c0,0.2,0,0.5,0,0.7h-16.1c0.1,0.8,0.3,1.5,0.6,2.1c0.3,0.6,0.8,1.2,1.3,1.6
				c0.6,0.5,1.2,0.8,1.9,1.1c0.7,0.3,1.4,0.4,2.2,0.4c1.3,0,2.4-0.2,3.3-0.7c0.9-0.5,1.7-1.2,2.2-2l3.5,2.8
				c-2.1,2.8-5.1,4.2-9.1,4.2c-1.6,0-3.2-0.3-4.5-0.8c-1.4-0.5-2.6-1.2-3.6-2.2c-1-0.9-1.8-2.1-2.4-3.5c-0.6-1.4-0.9-2.9-0.9-4.6
				c0-1.7,0.3-3.2,0.9-4.6c0.6-1.4,1.4-2.6,2.4-3.6c1-1,2.2-1.7,3.5-2.3c1.4-0.5,2.8-0.8,4.4-0.8c1.5,0,2.8,0.2,4.1,0.7
				c1.2,0.5,2.3,1.2,3.2,2.2c0.9,1,1.6,2.1,2.1,3.6C383.7,212.2,383.9,213.9,383.9,215.8z M378.6,213.4c0-0.7-0.1-1.3-0.3-1.9
				c-0.2-0.6-0.5-1.2-0.9-1.6s-0.9-0.8-1.6-1.1s-1.4-0.4-2.2-0.4c-1.6,0-2.9,0.5-4,1.4c-1.1,1-1.7,2.2-1.8,3.7H378.6z"/>
			<path class="st0" d="M409.2,215.8c0,0.2,0,0.5,0,0.7c0,0.2,0,0.5,0,0.7h-16.1c0.1,0.8,0.3,1.5,0.6,2.1c0.3,0.6,0.8,1.2,1.3,1.6
				c0.6,0.5,1.2,0.8,1.9,1.1c0.7,0.3,1.4,0.4,2.2,0.4c1.3,0,2.4-0.2,3.3-0.7c0.9-0.5,1.7-1.2,2.2-2l3.5,2.8
				c-2.1,2.8-5.1,4.2-9.1,4.2c-1.6,0-3.2-0.3-4.5-0.8c-1.4-0.5-2.6-1.2-3.6-2.2c-1-0.9-1.8-2.1-2.4-3.5c-0.6-1.4-0.9-2.9-0.9-4.6
				c0-1.7,0.3-3.2,0.9-4.6c0.6-1.4,1.4-2.6,2.4-3.6c1-1,2.2-1.7,3.5-2.3c1.4-0.5,2.8-0.8,4.4-0.8c1.5,0,2.8,0.2,4.1,0.7
				c1.2,0.5,2.3,1.2,3.2,2.2c0.9,1,1.6,2.1,2.1,3.6C408.9,212.2,409.2,213.9,409.2,215.8z M403.9,213.4c0-0.7-0.1-1.3-0.3-1.9
				c-0.2-0.6-0.5-1.2-0.9-1.6s-0.9-0.8-1.6-1.1s-1.4-0.4-2.2-0.4c-1.6,0-2.9,0.5-4,1.4c-1.1,1-1.7,2.2-1.8,3.7H403.9z"/>
			<path class="st0" d="M414.3,204.9h5v3.4h0.1c0.5-1.1,1.3-2,2.4-2.8c1.2-0.8,2.5-1.2,4.1-1.2c1.4,0,2.6,0.2,3.5,0.7
				c1,0.5,1.8,1.1,2.4,1.9s1.1,1.7,1.4,2.7c0.3,1,0.4,2.1,0.4,3.2v13.2h-5.3v-11.7c0-0.6,0-1.3-0.1-1.9c-0.1-0.7-0.3-1.3-0.6-1.8
				c-0.3-0.5-0.7-1-1.2-1.3c-0.5-0.4-1.2-0.5-2-0.5c-0.9,0-1.6,0.2-2.2,0.5c-0.6,0.3-1.1,0.8-1.5,1.3c-0.4,0.5-0.7,1.1-0.9,1.8
				c-0.2,0.7-0.3,1.4-0.3,2.1v11.6h-5.3V204.9z"/>
			<path class="st0" d="M464,223.4h-0.1c-0.5,0.9-1.4,1.7-2.6,2.3c-1.2,0.6-2.5,0.9-4,0.9c-0.9,0-1.7-0.1-2.7-0.3
				c-0.9-0.2-1.8-0.6-2.6-1.1s-1.4-1.2-1.9-2c-0.5-0.8-0.8-1.9-0.8-3.1c0-1.6,0.4-2.8,1.3-3.8c0.9-0.9,2-1.7,3.5-2.2
				c1.4-0.5,3-0.8,4.7-1c1.7-0.2,3.4-0.2,5-0.2v-0.5c0-1.3-0.5-2.3-1.4-2.9s-2.1-0.9-3.4-0.9c-1.1,0-2.2,0.2-3.2,0.7
				c-1,0.5-1.9,1-2.6,1.7l-2.7-3.2c1.2-1.1,2.6-2,4.2-2.5c1.6-0.6,3.2-0.8,4.8-0.8c1.9,0,3.4,0.3,4.6,0.8s2.2,1.2,2.9,2.1
				c0.7,0.9,1.2,1.8,1.5,2.9c0.3,1.1,0.4,2.1,0.4,3.2v12.8H464V223.4z M463.9,216.4h-1.2c-0.9,0-1.7,0-2.7,0.1
				c-0.9,0.1-1.8,0.2-2.6,0.5c-0.8,0.2-1.5,0.6-2,1.1s-0.8,1.1-0.8,1.9c0,0.5,0.1,0.9,0.3,1.3c0.2,0.3,0.5,0.6,0.9,0.8
				c0.4,0.2,0.7,0.4,1.2,0.4c0.4,0.1,0.9,0.1,1.3,0.1c1.8,0,3.2-0.5,4.1-1.5c0.9-1,1.4-2.3,1.4-4V216.4z"/>
			<path class="st0" d="M475.1,204.9h5v3.4h0.1c0.5-1.1,1.3-2,2.4-2.8c1.2-0.8,2.5-1.2,4.1-1.2c1.4,0,2.6,0.2,3.5,0.7
				c1,0.5,1.8,1.1,2.4,1.9s1.1,1.7,1.4,2.7c0.3,1,0.4,2.1,0.4,3.2v13.2h-5.3v-11.7c0-0.6,0-1.3-0.1-1.9c-0.1-0.7-0.3-1.3-0.6-1.8
				c-0.3-0.5-0.7-1-1.2-1.3c-0.5-0.4-1.2-0.5-2-0.5c-0.9,0-1.6,0.2-2.2,0.5c-0.6,0.3-1.1,0.8-1.5,1.3c-0.4,0.5-0.7,1.1-0.9,1.8
				c-0.2,0.7-0.3,1.4-0.3,2.1v11.6h-5.3V204.9z"/>
			<path class="st0" d="M522.2,226.1h-5v-3.2h-0.1c-0.7,1.2-1.8,2.2-3.1,2.8c-1.3,0.6-2.7,1-4.2,1c-1.6,0-3.1-0.3-4.3-0.9
				c-1.3-0.6-2.4-1.4-3.3-2.4c-0.9-1-1.6-2.2-2.1-3.6c-0.5-1.4-0.7-2.8-0.7-4.4s0.2-3,0.7-4.4s1.2-2.5,2.1-3.5s2-1.8,3.3-2.4
				c1.3-0.6,2.6-0.9,4.1-0.9c1,0,1.8,0.1,2.6,0.3c0.8,0.2,1.4,0.5,2,0.8c0.6,0.3,1.1,0.7,1.5,1.1c0.4,0.4,0.7,0.7,1,1.1h0.1v-14.8
				h5.3V226.1z M504.8,215.4c0,0.8,0.1,1.6,0.4,2.5s0.6,1.6,1.1,2.2c0.5,0.6,1.1,1.2,1.9,1.6c0.8,0.4,1.7,0.6,2.7,0.6
				c1,0,1.8-0.2,2.6-0.6c0.8-0.4,1.4-0.9,2-1.6s1-1.4,1.2-2.2c0.3-0.8,0.4-1.6,0.4-2.4c0-0.8-0.1-1.6-0.4-2.5
				c-0.3-0.8-0.7-1.6-1.2-2.2c-0.5-0.6-1.2-1.2-2-1.6c-0.8-0.4-1.6-0.6-2.6-0.6c-1,0-1.9,0.2-2.7,0.6c-0.8,0.4-1.4,0.9-1.9,1.6
				s-0.9,1.4-1.1,2.2S504.8,214.6,504.8,215.4z"/>
			<path class="st0" d="M551.3,204.3c1.4,0,2.6,0.2,3.5,0.7c1,0.5,1.8,1.1,2.4,1.9s1.1,1.7,1.4,2.7c0.3,1,0.4,2.1,0.4,3.2v13.2h-5.3
				v-11.6c0-0.6,0-1.3-0.1-1.9c-0.1-0.7-0.3-1.3-0.5-1.8c-0.3-0.5-0.7-1-1.2-1.3c-0.5-0.4-1.2-0.5-2-0.5s-1.6,0.2-2.2,0.5
				c-0.6,0.3-1.1,0.8-1.5,1.3s-0.7,1.2-0.9,1.8s-0.3,1.4-0.3,2.1v11.5h-5.3v-33.3h5.3v15.1h0.1c0.2-0.4,0.5-0.9,0.9-1.3
				c0.4-0.4,0.9-0.8,1.4-1.1s1.1-0.6,1.8-0.8C549.8,204.4,550.6,204.3,551.3,204.3z"/>
			<path class="st0" d="M578.4,223.4h-0.1c-0.5,0.9-1.4,1.7-2.6,2.3c-1.2,0.6-2.5,0.9-4,0.9c-0.9,0-1.7-0.1-2.7-0.3
				c-0.9-0.2-1.8-0.6-2.6-1.1s-1.4-1.2-1.9-2c-0.5-0.8-0.8-1.9-0.8-3.1c0-1.6,0.4-2.8,1.3-3.8c0.9-0.9,2-1.7,3.5-2.2
				c1.4-0.5,3-0.8,4.7-1c1.7-0.2,3.4-0.2,5-0.2v-0.5c0-1.3-0.5-2.3-1.4-2.9s-2.1-0.9-3.4-0.9c-1.1,0-2.2,0.2-3.2,0.7
				c-1,0.5-1.9,1-2.6,1.7l-2.7-3.2c1.2-1.1,2.6-2,4.2-2.5c1.6-0.6,3.2-0.8,4.8-0.8c1.9,0,3.4,0.3,4.6,0.8s2.2,1.2,2.9,2.1
				c0.7,0.9,1.2,1.8,1.5,2.9c0.3,1.1,0.4,2.1,0.4,3.2v12.8h-4.9V223.4z M578.3,216.4h-1.2c-0.9,0-1.7,0-2.7,0.1
				c-0.9,0.1-1.8,0.2-2.6,0.5c-0.8,0.2-1.5,0.6-2,1.1s-0.8,1.1-0.8,1.9c0,0.5,0.1,0.9,0.3,1.3c0.2,0.3,0.5,0.6,0.9,0.8
				c0.4,0.2,0.7,0.4,1.2,0.4c0.4,0.1,0.9,0.1,1.3,0.1c1.8,0,3.2-0.5,4.1-1.5c0.9-1,1.4-2.3,1.4-4V216.4z"/>
			<path class="st0" d="M586.3,204.9h5.8l5.5,15.4h0.1l5.6-15.4h5.6l-8.4,21.1h-5.6L586.3,204.9z"/>
			<path class="st0" d="M632.2,215.8c0,0.2,0,0.5,0,0.7c0,0.2,0,0.5,0,0.7h-16.1c0.1,0.8,0.3,1.5,0.6,2.1c0.3,0.6,0.8,1.2,1.3,1.6
				c0.6,0.5,1.2,0.8,1.9,1.1c0.7,0.3,1.4,0.4,2.2,0.4c1.3,0,2.4-0.2,3.3-0.7c0.9-0.5,1.7-1.2,2.2-2l3.5,2.8
				c-2.1,2.8-5.1,4.2-9.1,4.2c-1.6,0-3.2-0.3-4.5-0.8c-1.4-0.5-2.6-1.2-3.6-2.2c-1-0.9-1.8-2.1-2.4-3.5c-0.6-1.4-0.9-2.9-0.9-4.6
				c0-1.7,0.3-3.2,0.9-4.6c0.6-1.4,1.4-2.6,2.4-3.6c1-1,2.2-1.7,3.5-2.3c1.4-0.5,2.8-0.8,4.4-0.8c1.5,0,2.8,0.2,4.1,0.7
				c1.2,0.5,2.3,1.2,3.2,2.2c0.9,1,1.6,2.1,2.1,3.6C632,212.2,632.2,213.9,632.2,215.8z M626.9,213.4c0-0.7-0.1-1.3-0.3-1.9
				c-0.2-0.6-0.5-1.2-0.9-1.6s-0.9-0.8-1.6-1.1s-1.4-0.4-2.2-0.4c-1.6,0-2.9,0.5-4,1.4c-1.1,1-1.7,2.2-1.8,3.7H626.9z"/>
			<path class="st0" d="M15.7,263.4c-0.5-0.6-1.1-1.2-1.9-1.6c-0.8-0.5-1.7-0.7-2.7-0.7c-0.9,0-1.6,0.2-2.3,0.5s-1.1,0.9-1.1,1.8
				c0,0.8,0.4,1.4,1.2,1.7c0.8,0.3,1.9,0.7,3.4,1c0.8,0.2,1.6,0.4,2.4,0.7c0.8,0.3,1.5,0.7,2.2,1.2c0.7,0.5,1.2,1.1,1.6,1.8
				c0.4,0.7,0.6,1.6,0.6,2.6c0,1.3-0.2,2.4-0.7,3.3c-0.5,0.9-1.1,1.6-1.9,2.2c-0.8,0.6-1.7,1-2.8,1.2c-1.1,0.2-2.2,0.4-3.3,0.4
				c-1.6,0-3.2-0.3-4.8-0.9C4,278,2.7,277.1,1.7,276l3.5-3.3c0.6,0.8,1.3,1.4,2.3,1.9c0.9,0.5,2,0.7,3.1,0.7c0.4,0,0.8,0,1.2-0.1
				c0.4-0.1,0.8-0.2,1.1-0.4c0.3-0.2,0.6-0.4,0.8-0.8c0.2-0.3,0.3-0.7,0.3-1.2c0-0.9-0.4-1.5-1.2-1.9c-0.8-0.4-2-0.8-3.6-1.1
				c-0.8-0.2-1.6-0.4-2.3-0.7c-0.7-0.3-1.4-0.6-2-1.1c-0.6-0.5-1.1-1-1.4-1.7s-0.5-1.5-0.5-2.5c0-1.2,0.2-2.2,0.7-3
				c0.5-0.9,1.1-1.5,1.9-2.1s1.7-0.9,2.7-1.2c1-0.3,2-0.4,3.1-0.4c1.5,0,3,0.3,4.5,0.8c1.5,0.5,2.6,1.3,3.5,2.4L15.7,263.4z"/>
			<path class="st0" d="M22.5,268.2c0-1.7,0.3-3.2,0.9-4.6c0.6-1.4,1.4-2.5,2.4-3.5s2.2-1.7,3.7-2.2c1.4-0.5,2.9-0.8,4.5-0.8
				s3.1,0.3,4.5,0.8c1.4,0.5,2.6,1.3,3.7,2.2c1,1,1.8,2.1,2.4,3.5c0.6,1.4,0.9,2.9,0.9,4.6c0,1.7-0.3,3.2-0.9,4.6
				c-0.6,1.4-1.4,2.6-2.4,3.5c-1,1-2.2,1.8-3.7,2.3c-1.4,0.6-2.9,0.8-4.5,0.8s-3.1-0.3-4.5-0.8c-1.4-0.6-2.6-1.3-3.7-2.3
				c-1-1-1.8-2.2-2.4-3.5C22.8,271.4,22.5,269.9,22.5,268.2z M27.8,268.2c0,0.8,0.1,1.6,0.4,2.5c0.2,0.8,0.6,1.6,1.1,2.2
				c0.5,0.6,1.1,1.2,1.9,1.6c0.8,0.4,1.7,0.6,2.7,0.6s2-0.2,2.7-0.6c0.8-0.4,1.4-0.9,1.9-1.6c0.5-0.6,0.9-1.4,1.1-2.2
				c0.2-0.8,0.4-1.6,0.4-2.5c0-0.8-0.1-1.6-0.4-2.4c-0.2-0.8-0.6-1.5-1.1-2.2c-0.5-0.6-1.1-1.2-1.9-1.6c-0.8-0.4-1.7-0.6-2.7-0.6
				s-2,0.2-2.7,0.6c-0.8,0.4-1.4,0.9-1.9,1.6c-0.5,0.6-0.9,1.4-1.1,2.2C28,266.6,27.8,267.4,27.8,268.2z"/>
			<path class="st0" d="M75.8,257.1c1.4,0,2.6,0.2,3.5,0.7c1,0.5,1.8,1.1,2.4,1.9s1.1,1.7,1.4,2.7c0.3,1,0.4,2.1,0.4,3.2v13.2h-5.3
				v-11.7c0-0.6,0-1.3-0.1-1.9c-0.1-0.7-0.3-1.3-0.6-1.8c-0.3-0.5-0.7-1-1.2-1.3c-0.5-0.4-1.2-0.5-2-0.5c-0.8,0-1.5,0.2-2.1,0.5
				c-0.6,0.4-1.1,0.8-1.5,1.4c-0.4,0.6-0.7,1.2-0.8,1.9c-0.2,0.7-0.3,1.4-0.3,2v11.5h-5.3v-12.8c0-1.3-0.3-2.4-0.9-3.3
				c-0.6-0.9-1.6-1.3-3-1.3c-0.8,0-1.5,0.2-2.1,0.5c-0.6,0.3-1.1,0.8-1.4,1.3c-0.4,0.5-0.6,1.1-0.8,1.8c-0.2,0.7-0.3,1.4-0.3,2.1
				v11.6h-5.3v-21.1h5v3.4h0.1c0.2-0.5,0.5-1,0.9-1.5c0.4-0.5,0.9-0.9,1.4-1.3c0.5-0.4,1.2-0.7,1.9-0.9c0.7-0.2,1.5-0.3,2.3-0.3
				c1.6,0,3,0.4,4.1,1.1c1.1,0.7,1.9,1.7,2.5,2.9c0.7-1.3,1.6-2.3,2.8-3C72.8,257.5,74.2,257.1,75.8,257.1z"/>
			<path class="st0" d="M109.9,268.6c0,0.2,0,0.5,0,0.7c0,0.2,0,0.5,0,0.7H93.8c0.1,0.8,0.3,1.5,0.6,2.1c0.3,0.6,0.8,1.2,1.3,1.6
				c0.6,0.5,1.2,0.8,1.9,1.1c0.7,0.3,1.4,0.4,2.2,0.4c1.3,0,2.4-0.2,3.3-0.7c0.9-0.5,1.7-1.2,2.2-2l3.5,2.8
				c-2.1,2.8-5.1,4.2-9.1,4.2c-1.6,0-3.2-0.3-4.5-0.8c-1.4-0.5-2.6-1.2-3.6-2.2c-1-0.9-1.8-2.1-2.4-3.5c-0.6-1.4-0.9-2.9-0.9-4.6
				c0-1.7,0.3-3.2,0.9-4.6c0.6-1.4,1.4-2.6,2.4-3.6c1-1,2.2-1.7,3.5-2.3c1.4-0.5,2.8-0.8,4.4-0.8c1.5,0,2.8,0.2,4.1,0.7
				c1.2,0.5,2.3,1.2,3.2,2.2c0.9,1,1.6,2.1,2.1,3.6S109.9,266.7,109.9,268.6z M104.6,266.2c0-0.7-0.1-1.3-0.3-1.9
				c-0.2-0.6-0.5-1.2-0.9-1.6c-0.4-0.5-0.9-0.8-1.6-1.1c-0.6-0.3-1.4-0.4-2.2-0.4c-1.6,0-2.9,0.5-4,1.4s-1.7,2.2-1.8,3.7H104.6z"/>
			<path class="st0" d="M126.8,262h-4v-4.2h4v-3.1c0-1.3,0.1-2.5,0.4-3.6c0.3-1.2,0.7-2.2,1.4-3.1s1.5-1.6,2.6-2.1
				c1.1-0.5,2.4-0.8,4.1-0.8c0.6,0,1.1,0,1.5,0.1s0.8,0.1,1.2,0.2l-0.4,4.5c-0.3-0.1-0.6-0.2-0.9-0.2c-0.3-0.1-0.7-0.1-1.1-0.1
				c-0.8,0-1.4,0.1-1.8,0.4c-0.5,0.3-0.8,0.7-1.1,1.1c-0.2,0.5-0.4,1-0.5,1.5s-0.1,1.1-0.1,1.6v3.4h4.9v4.2h-4.9v16.9h-5.3V262z"/>
			<path class="st0" d="M159.5,278.9h-5v-3.4h-0.1c-0.5,1.1-1.3,2-2.4,2.8c-1.2,0.8-2.5,1.2-4.1,1.2c-1.4,0-2.6-0.2-3.5-0.7
				c-1-0.5-1.8-1.1-2.4-1.9c-0.6-0.8-1.1-1.7-1.4-2.7c-0.3-1-0.4-2.1-0.4-3.2v-13.2h5.3v11.7c0,0.6,0,1.3,0.1,1.9
				c0.1,0.7,0.3,1.3,0.6,1.8c0.3,0.5,0.7,1,1.2,1.3c0.5,0.4,1.2,0.5,2,0.5c0.8,0,1.5-0.2,2.2-0.5c0.6-0.3,1.1-0.8,1.5-1.3
				s0.7-1.1,0.9-1.8c0.2-0.7,0.3-1.4,0.3-2.1v-11.6h5.3V278.9z"/>
			<path class="st0" d="M165.8,257.7h5v3.4h0.1c0.5-1.1,1.3-2,2.4-2.8c1.2-0.8,2.5-1.2,4.1-1.2c1.4,0,2.6,0.2,3.5,0.7
				c1,0.5,1.8,1.1,2.4,1.9c0.6,0.8,1.1,1.7,1.4,2.7c0.3,1,0.4,2.1,0.4,3.2v13.2H180v-11.7c0-0.6,0-1.3-0.1-1.9s-0.3-1.3-0.6-1.8
				c-0.3-0.5-0.7-1-1.2-1.3c-0.5-0.4-1.2-0.5-2-0.5c-0.9,0-1.6,0.2-2.2,0.5c-0.6,0.3-1.1,0.8-1.5,1.3c-0.4,0.5-0.7,1.1-0.9,1.8
				c-0.2,0.7-0.3,1.4-0.3,2.1v11.6h-5.3V257.7z"/>
			<path class="st0" d="M215.5,276.2h-0.1c-0.5,0.9-1.4,1.7-2.6,2.3c-1.2,0.6-2.5,0.9-4,0.9c-0.9,0-1.7-0.1-2.7-0.3
				c-0.9-0.2-1.8-0.6-2.6-1.1c-0.8-0.5-1.4-1.2-1.9-2c-0.5-0.8-0.8-1.9-0.8-3.1c0-1.6,0.4-2.8,1.3-3.8c0.9-0.9,2-1.7,3.5-2.2
				c1.4-0.5,3-0.8,4.7-1c1.7-0.2,3.4-0.2,5-0.2v-0.5c0-1.3-0.5-2.3-1.4-2.9c-1-0.6-2.1-0.9-3.4-0.9c-1.1,0-2.2,0.2-3.2,0.7
				c-1,0.5-1.9,1-2.6,1.7l-2.7-3.2c1.2-1.1,2.6-2,4.2-2.5c1.6-0.6,3.2-0.8,4.8-0.8c1.9,0,3.4,0.3,4.6,0.8c1.2,0.5,2.2,1.2,2.9,2.1
				c0.7,0.9,1.2,1.8,1.5,2.9c0.3,1.1,0.4,2.1,0.4,3.2v12.8h-4.9V276.2z M215.5,269.2h-1.2c-0.9,0-1.7,0-2.7,0.1
				c-0.9,0.1-1.8,0.2-2.6,0.5c-0.8,0.2-1.5,0.6-2,1.1c-0.5,0.5-0.8,1.1-0.8,1.9c0,0.5,0.1,0.9,0.3,1.3c0.2,0.3,0.5,0.6,0.9,0.8
				s0.7,0.4,1.2,0.4c0.4,0.1,0.9,0.1,1.3,0.1c1.8,0,3.2-0.5,4.1-1.5c0.9-1,1.4-2.3,1.4-4V269.2z"/>
			<path class="st0" d="M226.7,245.6h5.3v33.3h-5.3V245.6z"/>
			<path class="st0" d="M237.2,268.2c0-1.7,0.3-3.2,0.9-4.6c0.6-1.4,1.4-2.5,2.4-3.5s2.2-1.7,3.7-2.2c1.4-0.5,2.9-0.8,4.5-0.8
				s3.1,0.3,4.5,0.8c1.4,0.5,2.6,1.3,3.7,2.2c1,1,1.8,2.1,2.4,3.5c0.6,1.4,0.9,2.9,0.9,4.6c0,1.7-0.3,3.2-0.9,4.6
				c-0.6,1.4-1.4,2.6-2.4,3.5c-1,1-2.2,1.8-3.7,2.3c-1.4,0.6-2.9,0.8-4.5,0.8s-3.1-0.3-4.5-0.8c-1.4-0.6-2.6-1.3-3.7-2.3
				c-1-1-1.8-2.2-2.4-3.5C237.5,271.4,237.2,269.9,237.2,268.2z M242.6,268.2c0,0.8,0.1,1.6,0.4,2.5c0.2,0.8,0.6,1.6,1.1,2.2
				c0.5,0.6,1.1,1.2,1.9,1.6c0.8,0.4,1.7,0.6,2.7,0.6s2-0.2,2.7-0.6c0.8-0.4,1.4-0.9,1.9-1.6c0.5-0.6,0.9-1.4,1.1-2.2
				c0.2-0.8,0.4-1.6,0.4-2.5c0-0.8-0.1-1.6-0.4-2.4c-0.2-0.8-0.6-1.5-1.1-2.2c-0.5-0.6-1.1-1.2-1.9-1.6c-0.8-0.4-1.7-0.6-2.7-0.6
				s-2,0.2-2.7,0.6c-0.8,0.4-1.4,0.9-1.9,1.6c-0.5,0.6-0.9,1.4-1.1,2.2C242.7,266.6,242.6,267.4,242.6,268.2z"/>
			<path class="st0" d="M265.3,257.7h5v3.4h0.1c0.5-1.1,1.3-2,2.4-2.8c1.2-0.8,2.5-1.2,4.1-1.2c1.4,0,2.6,0.2,3.5,0.7
				c1,0.5,1.8,1.1,2.4,1.9c0.6,0.8,1.1,1.7,1.4,2.7c0.3,1,0.4,2.1,0.4,3.2v13.2h-5.3v-11.7c0-0.6,0-1.3-0.1-1.9s-0.3-1.3-0.6-1.8
				c-0.3-0.5-0.7-1-1.2-1.3c-0.5-0.4-1.2-0.5-2-0.5c-0.9,0-1.6,0.2-2.2,0.5c-0.6,0.3-1.1,0.8-1.5,1.3c-0.4,0.5-0.7,1.1-0.9,1.8
				c-0.2,0.7-0.3,1.4-0.3,2.1v11.6h-5.3V257.7z"/>
			<path class="st0" d="M312.3,257.7V277c0,1.9-0.2,3.6-0.7,5.2c-0.5,1.5-1.2,2.8-2.2,3.9c-1,1.1-2.2,1.9-3.7,2.5s-3.3,0.9-5.3,0.9
				c-0.9,0-1.8-0.1-2.7-0.2s-1.9-0.4-2.8-0.7c-0.9-0.3-1.8-0.7-2.7-1.1c-0.9-0.4-1.6-0.9-2.3-1.5l3-4.1c1,1,2.2,1.7,3.5,2.2
				c1.3,0.5,2.6,0.8,3.9,0.8c1.3,0,2.3-0.2,3.2-0.6s1.6-0.9,2.1-1.5c0.5-0.6,0.9-1.4,1.1-2.3c0.2-0.9,0.3-1.9,0.3-2.9V276H307
				c-0.8,1-1.7,1.8-2.9,2.4c-1.2,0.5-2.5,0.8-4,0.8c-1.6,0-3-0.3-4.3-0.9c-1.3-0.6-2.4-1.4-3.3-2.4c-0.9-1-1.6-2.2-2.1-3.5
				c-0.5-1.3-0.7-2.8-0.7-4.2c0-1.5,0.2-3,0.7-4.3c0.5-1.3,1.2-2.5,2.1-3.5c0.9-1,2-1.8,3.3-2.4c1.3-0.6,2.7-0.9,4.3-0.9
				c1.5,0,2.9,0.3,4.2,0.9c1.3,0.6,2.3,1.6,3.1,2.9h0.1v-3.2H312.3z M301.1,261.4c-1,0-1.8,0.2-2.6,0.5c-0.7,0.4-1.4,0.8-1.9,1.4
				c-0.5,0.6-0.9,1.3-1.2,2.1c-0.3,0.8-0.4,1.7-0.4,2.6c0,0.8,0.1,1.7,0.4,2.5c0.3,0.8,0.7,1.5,1.2,2.1c0.5,0.6,1.1,1.1,1.9,1.5
				c0.7,0.4,1.6,0.6,2.5,0.6c1,0,1.8-0.2,2.6-0.5c0.8-0.4,1.4-0.9,2-1.5c0.5-0.6,1-1.3,1.3-2.1c0.3-0.8,0.4-1.6,0.4-2.5
				c0-0.9-0.1-1.8-0.4-2.6c-0.3-0.8-0.7-1.5-1.3-2.1c-0.5-0.6-1.2-1.1-2-1.4C302.9,261.6,302,261.4,301.1,261.4z"/>
			<path class="st0" d="M326.6,262v-4.2h3.7v-6.1h5.2v6.1h5.3v4.2h-5.3v9.8c0,0.9,0.2,1.7,0.5,2.3c0.3,0.6,1.1,0.9,2.3,0.9
				c0.4,0,0.7,0,1.1-0.1c0.4-0.1,0.8-0.2,1.1-0.3l0.2,4.1c-0.5,0.2-1,0.3-1.7,0.4c-0.6,0.1-1.3,0.2-1.8,0.2c-1.4,0-2.6-0.2-3.4-0.6
				c-0.9-0.4-1.6-0.9-2.1-1.6c-0.5-0.7-0.9-1.5-1.1-2.4c-0.2-0.9-0.3-1.9-0.3-2.9V262H326.6z"/>
			<path class="st0" d="M356.4,257.1c1.4,0,2.6,0.2,3.5,0.7c1,0.5,1.8,1.1,2.4,1.9s1.1,1.7,1.4,2.7c0.3,1,0.4,2.1,0.4,3.2v13.2h-5.3
				v-11.6c0-0.6,0-1.3-0.1-1.9s-0.3-1.3-0.5-1.8c-0.3-0.5-0.7-1-1.2-1.3c-0.5-0.4-1.2-0.5-2-0.5s-1.6,0.2-2.2,0.5
				c-0.6,0.3-1.1,0.8-1.5,1.3s-0.7,1.2-0.9,1.8s-0.3,1.4-0.3,2.1v11.5h-5.3v-33.3h5.3v15.1h0.1c0.2-0.4,0.5-0.9,0.9-1.3
				c0.4-0.4,0.9-0.8,1.4-1.1c0.5-0.3,1.1-0.6,1.8-0.8S355.6,257.1,356.4,257.1z"/>
			<path class="st0" d="M390.5,268.6c0,0.2,0,0.5,0,0.7c0,0.2,0,0.5,0,0.7h-16.1c0.1,0.8,0.3,1.5,0.6,2.1s0.8,1.2,1.3,1.6
				c0.6,0.5,1.2,0.8,1.9,1.1c0.7,0.3,1.4,0.4,2.2,0.4c1.3,0,2.4-0.2,3.3-0.7c0.9-0.5,1.7-1.2,2.2-2l3.5,2.8
				c-2.1,2.8-5.1,4.2-9.1,4.2c-1.6,0-3.2-0.3-4.5-0.8s-2.6-1.2-3.6-2.2c-1-0.9-1.8-2.1-2.4-3.5s-0.9-2.9-0.9-4.6
				c0-1.7,0.3-3.2,0.9-4.6c0.6-1.4,1.4-2.6,2.4-3.6c1-1,2.2-1.7,3.5-2.3c1.4-0.5,2.8-0.8,4.4-0.8c1.5,0,2.8,0.2,4.1,0.7
				c1.2,0.5,2.3,1.2,3.2,2.2s1.6,2.1,2.1,3.6C390.2,265,390.5,266.7,390.5,268.6z M385.2,266.2c0-0.7-0.1-1.3-0.3-1.9
				c-0.2-0.6-0.5-1.2-0.9-1.6c-0.4-0.5-0.9-0.8-1.6-1.1c-0.6-0.3-1.4-0.4-2.2-0.4c-1.6,0-2.9,0.5-4,1.4s-1.7,2.2-1.8,3.7H385.2z"/>
			<path class="st0" d="M403.6,257.7h5.7l4.4,15.1h0.1l4.5-15.1h5.6l4.6,15.1h0.1l4.5-15.1h5.5l-7.3,21.1h-5.4l-4.8-14.8h-0.1
				l-4.8,14.8h-5.4L403.6,257.7z"/>
			<path class="st0" d="M455.1,276.2h-0.1c-0.5,0.9-1.4,1.7-2.6,2.3s-2.5,0.9-4,0.9c-0.9,0-1.7-0.1-2.7-0.3
				c-0.9-0.2-1.8-0.6-2.6-1.1c-0.8-0.5-1.4-1.2-1.9-2c-0.5-0.8-0.8-1.9-0.8-3.1c0-1.6,0.4-2.8,1.3-3.8s2-1.7,3.5-2.2s3-0.8,4.7-1
				s3.4-0.2,5-0.2v-0.5c0-1.3-0.5-2.3-1.4-2.9c-1-0.6-2.1-0.9-3.4-0.9c-1.1,0-2.2,0.2-3.2,0.7c-1,0.5-1.9,1-2.6,1.7l-2.7-3.2
				c1.2-1.1,2.6-2,4.2-2.5c1.6-0.6,3.2-0.8,4.8-0.8c1.9,0,3.4,0.3,4.6,0.8c1.2,0.5,2.2,1.2,2.9,2.1c0.7,0.9,1.2,1.8,1.5,2.9
				c0.3,1.1,0.4,2.1,0.4,3.2v12.8h-4.9V276.2z M455,269.2h-1.2c-0.9,0-1.7,0-2.7,0.1c-0.9,0.1-1.8,0.2-2.6,0.5
				c-0.8,0.2-1.5,0.6-2,1.1c-0.5,0.5-0.8,1.1-0.8,1.9c0,0.5,0.1,0.9,0.3,1.3c0.2,0.3,0.5,0.6,0.9,0.8c0.4,0.2,0.7,0.4,1.2,0.4
				c0.4,0.1,0.9,0.1,1.3,0.1c1.8,0,3.2-0.5,4.1-1.5c0.9-1,1.4-2.3,1.4-4V269.2z"/>
			<path class="st0" d="M463,257.7h5.9l5.9,15.4h0.1l5.2-15.4h5.5l-10,25.7c-0.4,1-0.8,1.8-1.2,2.6c-0.4,0.7-1,1.4-1.6,1.9
				c-0.6,0.5-1.3,0.9-2.2,1.2s-1.8,0.4-3,0.4c-0.4,0-0.9,0-1.3-0.1c-0.5,0-0.9-0.1-1.4-0.2l0.4-4.6c0.4,0.1,0.7,0.2,1,0.2
				c0.3,0,0.7,0.1,0.9,0.1c0.6,0,1-0.1,1.4-0.2s0.7-0.3,1-0.6c0.3-0.3,0.5-0.6,0.7-1s0.4-0.9,0.7-1.5l1.1-2.7L463,257.7z"/>
			<path class="st0" d="M486.2,275.8c0-0.9,0.3-1.7,1-2.4c0.7-0.7,1.5-1,2.5-1c0.9,0,1.8,0.3,2.5,1c0.7,0.6,1.1,1.4,1.1,2.4
				c0,0.9-0.3,1.7-1,2.4c-0.7,0.7-1.5,1-2.5,1c-0.5,0-0.9-0.1-1.3-0.3c-0.4-0.2-0.8-0.4-1.1-0.7c-0.3-0.3-0.6-0.6-0.8-1.1
				C486.3,276.7,486.2,276.3,486.2,275.8z"/>
		</g>
	</g>
</g>
</svg>
