<?xml version="1.0" encoding="utf-8"?>
<!-- Generator: Adobe Illustrator 21.1.0, SVG Export Plug-In . SVG Version: 6.00 Build 0)  -->
<svg version="1.1" xmlns="http://www.w3.org/2000/svg" xmlns:xlink="http://www.w3.org/1999/xlink" x="0px" y="0px"
	 viewBox="0 0 460.2 267.8" style="enable-background:new 0 0 460.2 267.8;" xml:space="preserve">
<style type="text/css">
	.st0{fill:#FFFFFF;}
</style>
<g id="Layer_1">
	<g>
		<g>
			<path d="M41.5,129h-8.6l-6.1-33h-0.1l-6.1,33h-8.6L3.7,85.1h7.6l5.6,34.1h0.2l5.9-34.1h7.8l6.1,34.1h0.1l5.6-34.1h7.2L41.5,129z"
				/>
			<path d="M59.2,115c0,1.2,0.1,2.4,0.4,3.5c0.2,1.1,0.6,2,1.1,2.9c0.5,0.8,1.1,1.4,1.7,1.9c0.7,0.5,1.5,0.7,2.4,0.7
				c1.3,0,2.3-0.4,3.1-1.2c0.8-0.8,1.4-1.8,1.8-2.9l5.1,3c-0.9,2.2-2.2,3.9-3.9,5.2c-1.7,1.3-3.8,2-6.4,2c-3.7,0-6.6-1.4-8.9-4.3
				c-2.2-2.9-3.3-7-3.3-12.5c0-2.5,0.3-4.8,0.9-6.9c0.6-2.1,1.4-3.9,2.5-5.4c1.1-1.5,2.3-2.6,3.8-3.4c1.5-0.8,3.1-1.2,4.9-1.2
				c2,0,3.8,0.4,5.2,1.2c1.4,0.8,2.6,2,3.5,3.4c0.9,1.4,1.5,3.1,2,5.1c0.4,1.9,0.6,4.1,0.6,6.3v2.7H59.2z M68.9,109.9
				c0-2.4-0.4-4.3-1.1-5.7c-0.7-1.5-1.9-2.2-3.5-2.2c-0.9,0-1.7,0.3-2.3,0.8c-0.6,0.5-1.2,1.2-1.6,2c-0.4,0.8-0.7,1.7-0.9,2.6
				c-0.2,0.9-0.3,1.8-0.3,2.5H68.9z"/>
			<path d="M81.9,129V82.1h7V129H81.9z"/>
			<path d="M111.7,129.3c-1.2,0.5-2.6,0.8-4.2,0.8c-1.9,0-3.7-0.4-5.2-1.2c-1.5-0.8-2.7-2-3.7-3.5c-1-1.5-1.8-3.3-2.3-5.4
				c-0.5-2.1-0.8-4.3-0.8-6.8s0.3-4.8,0.8-6.8c0.5-2.1,1.3-3.8,2.3-5.3c1-1.5,2.3-2.6,3.7-3.4c1.5-0.8,3.2-1.2,5.1-1.2
				c1.7,0,3.2,0.3,4.4,0.9c1.2,0.6,2.2,1.2,2.9,1.9l-3.2,5.3c-0.5-0.5-1-0.9-1.6-1.2c-0.6-0.3-1.3-0.5-2.2-0.5c-1.7,0-3,1-3.9,2.9
				c-0.9,1.9-1.3,4.5-1.3,7.6c0,3.1,0.5,5.7,1.4,7.6c0.9,1.9,2.3,2.9,4.2,2.9c0.9,0,1.6-0.2,2.2-0.5c0.6-0.3,1.2-0.8,1.6-1.4
				l2.9,5.5C114,128,112.9,128.8,111.7,129.3z"/>
			<path d="M141.7,113.3c0,2.5-0.3,4.8-0.8,6.8c-0.6,2.1-1.4,3.8-2.4,5.3c-1.1,1.5-2.3,2.6-3.8,3.4c-1.5,0.8-3.2,1.2-5.1,1.2
				c-1.9,0-3.6-0.4-5.1-1.2s-2.8-2-3.8-3.4c-1.1-1.5-1.9-3.2-2.4-5.3c-0.6-2.1-0.8-4.3-0.8-6.8c0-2.5,0.3-4.8,0.8-6.9
				c0.6-2.1,1.4-3.9,2.4-5.4c1-1.5,2.3-2.6,3.8-3.4c1.5-0.8,3.2-1.2,5.1-1.2c1.9,0,3.6,0.4,5.1,1.2c1.5,0.8,2.8,2,3.8,3.4
				c1.1,1.5,1.9,3.3,2.4,5.4C141.4,108.4,141.7,110.7,141.7,113.3z M134.7,113.2c0-1.5-0.1-2.9-0.3-4.2c-0.2-1.3-0.5-2.4-1-3.4
				c-0.4-1-1-1.7-1.6-2.3c-0.6-0.6-1.4-0.8-2.3-0.8c-0.9,0-1.7,0.3-2.3,0.8c-0.6,0.6-1.2,1.3-1.6,2.3c-0.4,1-0.7,2.1-0.9,3.4
				c-0.2,1.3-0.3,2.7-0.3,4.2c0,1.5,0.1,2.9,0.3,4.2c0.2,1.3,0.5,2.5,0.9,3.4c0.4,1,0.9,1.7,1.6,2.3c0.6,0.6,1.4,0.8,2.3,0.8
				c0.9,0,1.7-0.3,2.4-0.8c0.7-0.6,1.2-1.3,1.6-2.3c0.4-1,0.7-2.1,0.9-3.4C134.6,116.1,134.7,114.7,134.7,113.2z"/>
			<path d="M158,98.1c1.3-1.2,3-1.8,5-1.8c1.1,0,2.1,0.2,2.9,0.5c0.8,0.3,1.5,0.8,2.1,1.3c0.6,0.6,1.1,1.2,1.5,2
				c0.4,0.7,0.7,1.5,0.9,2.3h0.1c0.2-0.7,0.6-1.5,1.1-2.2c0.5-0.7,1.1-1.4,1.7-2c0.7-0.6,1.5-1,2.4-1.4c0.9-0.4,1.9-0.5,3.1-0.5
				c1.7,0,3.1,0.4,4.2,1.1c1.1,0.7,1.9,1.7,2.4,2.9c0.6,1.2,1,2.6,1.2,4.1c0.2,1.5,0.3,3.1,0.3,4.7V129h-7v-19.8
				c0-0.8,0-1.6-0.1-2.4c-0.1-0.8-0.3-1.5-0.5-2.2c-0.3-0.7-0.7-1.2-1.2-1.6c-0.5-0.4-1.2-0.6-2-0.6c-1.6,0-2.8,0.8-3.8,2.4
				c-0.9,1.6-1.4,3.6-1.4,6V129h-6.9v-19.8c0-0.8,0-1.6-0.1-2.4c-0.1-0.8-0.3-1.5-0.5-2.2c-0.3-0.7-0.6-1.2-1.1-1.6
				c-0.5-0.4-1.1-0.6-2-0.6c-1.6,0-2.8,0.8-3.7,2.4c-0.9,1.6-1.3,3.5-1.3,5.9V129h-7V97.4h6.9v5h0.1
				C155.8,100.7,156.7,99.3,158,98.1z"/>
			<path d="M200.2,115c0,1.2,0.1,2.4,0.4,3.5c0.2,1.1,0.6,2,1.1,2.9c0.5,0.8,1.1,1.4,1.7,1.9c0.7,0.5,1.5,0.7,2.4,0.7
				c1.3,0,2.3-0.4,3.1-1.2c0.8-0.8,1.4-1.8,1.8-2.9l5.1,3c-0.9,2.2-2.2,3.9-3.9,5.2c-1.7,1.3-3.8,2-6.4,2c-3.7,0-6.6-1.4-8.9-4.3
				c-2.2-2.9-3.3-7-3.3-12.5c0-2.5,0.3-4.8,0.9-6.9c0.6-2.1,1.4-3.9,2.5-5.4c1.1-1.5,2.3-2.6,3.8-3.4c1.5-0.8,3.1-1.2,4.9-1.2
				c2,0,3.8,0.4,5.2,1.2c1.4,0.8,2.6,2,3.5,3.4c0.9,1.4,1.5,3.1,2,5.1c0.4,1.9,0.6,4.1,0.6,6.3v2.7H200.2z M209.9,109.9
				c0-2.4-0.4-4.3-1.1-5.7c-0.7-1.5-1.9-2.2-3.5-2.2c-0.9,0-1.7,0.3-2.3,0.8c-0.6,0.5-1.2,1.2-1.6,2c-0.4,0.8-0.7,1.7-0.9,2.6
				c-0.2,0.9-0.3,1.8-0.3,2.5H209.9z"/>
			<path d="M256.6,128.9c-1.8,0.7-4,1-6.6,1c-2.6,0-4.9-0.5-7-1.6c-2.1-1.1-3.8-2.7-5.2-4.7c-1.4-2-2.5-4.4-3.3-7.3
				c-0.8-2.8-1.1-5.9-1.1-9.4c0-3.3,0.4-6.4,1.1-9.2c0.7-2.8,1.8-5.2,3.2-7.3c1.4-2,3.1-3.6,5.1-4.8c2-1.1,4.2-1.7,6.7-1.7
				c2.6,0,4.9,0.5,6.8,1.4c1.9,0.9,3.5,2.2,4.7,3.9l-4.3,5.2c-1.7-2.4-3.9-3.6-6.7-3.6c-1.5,0-2.9,0.4-4,1.3c-1.1,0.9-2.1,2-2.8,3.5
				c-0.7,1.5-1.3,3.2-1.7,5.1c-0.4,1.9-0.6,4-0.6,6.1c0,2.2,0.2,4.3,0.6,6.3c0.4,2,0.9,3.7,1.7,5.1c0.7,1.5,1.7,2.6,2.8,3.4
				c1.1,0.8,2.5,1.2,4.1,1.2c1,0,1.9-0.1,2.7-0.3c0.8-0.2,1.5-0.5,2-0.9v-11.3h-5.3v-6.4h12.1v22.3
				C260,127.4,258.4,128.3,256.6,128.9z"/>
			<path d="M278.7,98.1c1.2-1.2,2.5-1.8,4.1-1.8c0.2,0,0.4,0,0.5,0s0.3,0,0.5,0.1l-0.4,7.2c-0.5-0.1-1-0.2-1.5-0.2
				c-0.9,0-1.7,0.3-2.4,0.8c-0.7,0.6-1.3,1.3-1.8,2.2c-0.5,0.9-0.9,1.9-1.1,3.1c-0.2,1.2-0.4,2.3-0.4,3.5V129h-7.1V97.4h6.9v6.1h0.1
				C276.7,101.1,277.6,99.3,278.7,98.1z"/>
			<path d="M292.7,115c0,1.2,0.1,2.4,0.4,3.5c0.2,1.1,0.6,2,1.1,2.9c0.5,0.8,1.1,1.4,1.7,1.9c0.7,0.5,1.5,0.7,2.4,0.7
				c1.3,0,2.3-0.4,3.1-1.2c0.8-0.8,1.4-1.8,1.8-2.9l5.1,3c-0.9,2.2-2.2,3.9-3.9,5.2c-1.7,1.3-3.8,2-6.4,2c-3.7,0-6.6-1.4-8.9-4.3
				c-2.2-2.9-3.3-7-3.3-12.5c0-2.5,0.3-4.8,0.9-6.9c0.6-2.1,1.4-3.9,2.5-5.4c1.1-1.5,2.3-2.6,3.8-3.4c1.5-0.8,3.1-1.2,4.9-1.2
				c2,0,3.8,0.4,5.2,1.2c1.4,0.8,2.6,2,3.5,3.4c0.9,1.4,1.5,3.1,2,5.1c0.4,1.9,0.6,4.1,0.6,6.3v2.7H292.7z M302.5,109.9
				c0-2.4-0.4-4.3-1.1-5.7c-0.7-1.5-1.9-2.2-3.5-2.2c-0.9,0-1.7,0.3-2.3,0.8c-0.6,0.5-1.2,1.2-1.6,2s-0.7,1.7-0.9,2.6
				c-0.2,0.9-0.3,1.8-0.3,2.5H302.5z"/>
			<path d="M320.5,115c0,1.2,0.1,2.4,0.4,3.5c0.2,1.1,0.6,2,1.1,2.9c0.5,0.8,1.1,1.4,1.7,1.9c0.7,0.5,1.5,0.7,2.4,0.7
				c1.3,0,2.3-0.4,3.1-1.2c0.8-0.8,1.4-1.8,1.8-2.9l5.1,3c-0.9,2.2-2.2,3.9-3.9,5.2c-1.7,1.3-3.8,2-6.4,2c-3.7,0-6.6-1.4-8.9-4.3
				c-2.2-2.9-3.3-7-3.3-12.5c0-2.5,0.3-4.8,0.9-6.9c0.6-2.1,1.4-3.9,2.5-5.4c1.1-1.5,2.3-2.6,3.8-3.4c1.5-0.8,3.1-1.2,4.9-1.2
				c2,0,3.8,0.4,5.2,1.2c1.4,0.8,2.6,2,3.5,3.4c0.9,1.4,1.5,3.1,2,5.1c0.4,1.9,0.6,4.1,0.6,6.3v2.7H320.5z M330.2,109.9
				c0-2.4-0.4-4.3-1.1-5.7c-0.7-1.5-1.9-2.2-3.5-2.2c-0.9,0-1.7,0.3-2.3,0.8c-0.6,0.5-1.2,1.2-1.6,2s-0.7,1.7-0.9,2.6
				s-0.3,1.8-0.3,2.5H330.2z"/>
			<path d="M350.3,97.4v5h0.1c0.6-1.7,1.5-3.1,2.9-4.3c1.3-1.2,3-1.8,5-1.8c1.7,0,3.1,0.4,4.2,1.1c1.1,0.7,1.9,1.7,2.4,2.9
				c0.6,1.2,1,2.6,1.2,4.1c0.2,1.5,0.3,3.1,0.3,4.7V129h-7v-19.8c0-0.8,0-1.6-0.1-2.4c-0.1-0.8-0.3-1.5-0.5-2.2
				c-0.3-0.7-0.7-1.2-1.2-1.6c-0.5-0.4-1.2-0.6-2-0.6c-1.6,0-2.8,0.8-3.8,2.4c-0.9,1.6-1.4,3.6-1.4,6V129h-7V97.4H350.3z"/>
			<path d="M379.6,115c0,1.2,0.1,2.4,0.4,3.5c0.2,1.1,0.6,2,1.1,2.9c0.5,0.8,1.1,1.4,1.7,1.9c0.7,0.5,1.5,0.7,2.4,0.7
				c1.3,0,2.3-0.4,3.1-1.2c0.8-0.8,1.4-1.8,1.8-2.9l5.1,3c-0.9,2.2-2.2,3.9-3.9,5.2c-1.7,1.3-3.8,2-6.4,2c-3.7,0-6.6-1.4-8.9-4.3
				c-2.2-2.9-3.3-7-3.3-12.5c0-2.5,0.3-4.8,0.9-6.9c0.6-2.1,1.4-3.9,2.5-5.4c1.1-1.5,2.3-2.6,3.8-3.4c1.5-0.8,3.1-1.2,4.9-1.2
				c2,0,3.8,0.4,5.2,1.2c1.4,0.8,2.6,2,3.5,3.4c0.9,1.4,1.5,3.1,2,5.1c0.4,1.9,0.6,4.1,0.6,6.3v2.7H379.6z M389.3,109.9
				c0-2.4-0.4-4.3-1.1-5.7c-0.7-1.5-1.9-2.2-3.5-2.2c-0.9,0-1.7,0.3-2.3,0.8c-0.6,0.5-1.2,1.2-1.5,2c-0.4,0.8-0.7,1.7-0.9,2.6
				c-0.2,0.9-0.3,1.8-0.3,2.5H389.3z"/>
			<path d="M412,98.1c1.2-1.2,2.5-1.8,4.1-1.8c0.2,0,0.4,0,0.5,0c0.1,0,0.3,0,0.5,0.1l-0.4,7.2c-0.5-0.1-1-0.2-1.5-0.2
				c-0.9,0-1.7,0.3-2.4,0.8c-0.7,0.6-1.3,1.3-1.8,2.2c-0.5,0.9-0.9,1.9-1.1,3.1c-0.2,1.2-0.4,2.3-0.4,3.5V129h-7.1V97.4h6.9v6.1h0.1
				C410,101.1,410.9,99.3,412,98.1z"/>
			<path d="M434.8,104.5c-0.6-0.8-1.3-1.4-2.2-1.9s-1.9-0.7-3-0.7c-1,0-1.9,0.4-2.6,1.1c-0.7,0.7-1.1,1.7-1.1,2.9
				c0,1.2,0.4,2.1,1.1,2.7c0.7,0.6,1.9,1.1,3.5,1.7c0.9,0.3,1.8,0.7,2.7,1.2c0.9,0.5,1.7,1.1,2.4,1.8c0.7,0.7,1.3,1.6,1.7,2.7
				c0.4,1.1,0.7,2.3,0.7,3.8c0,1.7-0.3,3.3-0.8,4.6c-0.6,1.3-1.3,2.4-2.3,3.3c-1,0.9-2,1.5-3.3,1.9c-1.2,0.4-2.5,0.6-3.8,0.6
				c-2,0-3.8-0.4-5.5-1.2c-1.7-0.8-3.2-1.8-4.4-3.2l3.8-4.5c0.7,0.9,1.6,1.6,2.6,2.2c1,0.6,2.1,0.9,3.5,0.9c1.2,0,2.1-0.4,2.7-1.2
				c0.7-0.8,1-1.8,1-3.1c0-1.5-0.5-2.6-1.5-3.2c-1-0.7-2.3-1.3-3.9-1.9c-0.8-0.3-1.6-0.6-2.4-1.1c-0.8-0.4-1.5-1-2.2-1.7
				c-0.7-0.7-1.2-1.6-1.6-2.6c-0.4-1-0.6-2.2-0.6-3.7c0-1.5,0.3-2.9,0.8-4.1c0.6-1.2,1.3-2.2,2.2-3.1c0.9-0.8,2-1.5,3.2-1.9
				c1.2-0.4,2.4-0.7,3.7-0.7c1.9,0,3.6,0.3,5.1,1c1.5,0.7,2.8,1.6,3.9,2.6L434.8,104.5z"/>
			<path d="M454.1,125c0,1.3-0.4,2.4-1.2,3.2c-0.8,0.9-1.8,1.3-3,1.3c-1.2,0-2.3-0.4-3-1.3c-0.8-0.9-1.2-1.9-1.2-3.2
				c0-1.2,0.4-2.3,1.2-3.2c0.8-0.9,1.8-1.4,3-1.4c1.2,0,2.2,0.5,3,1.4C453.7,122.7,454.1,123.8,454.1,125z M446.3,114.9V85.1h7.1
				v29.8H446.3z"/>
		</g>
		<g>
			<path d="M5.4,162.5h3.9v21.9H5.4V162.5z"/>
			<path d="M11.8,172.5v-3h2.6v-4.3h3.7v4.3h3.7v3h-3.7v6.9c0,0.7,0.1,1.2,0.4,1.6c0.2,0.4,0.8,0.7,1.6,0.7c0.2,0,0.5,0,0.8-0.1
				c0.3-0.1,0.5-0.1,0.8-0.2l0.1,2.9c-0.3,0.1-0.7,0.2-1.2,0.3c-0.5,0.1-0.9,0.1-1.3,0.1c-1,0-1.8-0.1-2.4-0.4
				c-0.6-0.3-1.1-0.7-1.5-1.1c-0.4-0.5-0.6-1-0.7-1.7c-0.1-0.6-0.2-1.3-0.2-2v-6.9H11.8z"/>
			<path d="M26.5,162.5h3.6l-2.6,8.2h-3.1L26.5,162.5z"/>
			<path d="M40.3,173.5c-0.3-0.4-0.8-0.8-1.4-1.1c-0.6-0.3-1.2-0.5-1.9-0.5c-0.6,0-1.1,0.1-1.6,0.4c-0.5,0.2-0.7,0.7-0.7,1.2
				c0,0.6,0.3,1,0.8,1.2c0.5,0.2,1.3,0.5,2.4,0.7c0.6,0.1,1.1,0.3,1.7,0.5c0.6,0.2,1.1,0.5,1.5,0.8c0.5,0.3,0.8,0.8,1.1,1.3
				c0.3,0.5,0.4,1.1,0.4,1.8c0,0.9-0.2,1.7-0.5,2.3c-0.3,0.6-0.8,1.1-1.4,1.5c-0.6,0.4-1.2,0.7-2,0.9c-0.8,0.2-1.5,0.3-2.3,0.3
				c-1.2,0-2.3-0.2-3.4-0.6c-1.1-0.4-2-1-2.7-1.8l2.4-2.3c0.4,0.5,1,1,1.6,1.3c0.7,0.4,1.4,0.5,2.2,0.5c0.3,0,0.5,0,0.8-0.1
				c0.3-0.1,0.5-0.2,0.8-0.3c0.2-0.1,0.4-0.3,0.6-0.5c0.1-0.2,0.2-0.5,0.2-0.8c0-0.6-0.3-1.1-0.9-1.3c-0.6-0.3-1.4-0.5-2.6-0.8
				c-0.6-0.1-1.1-0.3-1.6-0.5c-0.5-0.2-1-0.5-1.4-0.8c-0.4-0.3-0.7-0.7-1-1.2s-0.4-1.1-0.4-1.8c0-0.8,0.2-1.5,0.5-2.1
				s0.8-1.1,1.3-1.5s1.2-0.7,1.9-0.9c0.7-0.2,1.4-0.3,2.2-0.3c1.1,0,2.1,0.2,3.1,0.6c1,0.4,1.8,0.9,2.4,1.7L40.3,173.5z"/>
			<path d="M52.8,173.4c0-1.8,0.3-3.3,0.9-4.8s1.4-2.6,2.4-3.6c1-1,2.3-1.8,3.7-2.3c1.4-0.5,3-0.8,4.7-0.8c1.7,0,3.3,0.3,4.7,0.8
				c1.4,0.5,2.7,1.3,3.8,2.3c1.1,1,1.9,2.2,2.5,3.6c0.6,1.4,0.9,3,0.9,4.8c0,1.7-0.3,3.3-0.9,4.7c-0.6,1.4-1.4,2.6-2.5,3.7
				c-1.1,1-2.3,1.8-3.8,2.4c-1.4,0.6-3,0.9-4.7,0.9c-1.7,0-3.3-0.3-4.7-0.9c-1.4-0.6-2.7-1.4-3.7-2.4c-1-1-1.9-2.2-2.4-3.7
				S52.8,175.1,52.8,173.4z M57,173.4c0,1.2,0.2,2.3,0.5,3.2c0.4,1,0.9,1.8,1.6,2.6c0.7,0.7,1.5,1.3,2.4,1.7
				c0.9,0.4,1.9,0.6,3.1,0.6c1.1,0,2.1-0.2,3.1-0.6c0.9-0.4,1.7-1,2.4-1.7c0.7-0.7,1.2-1.6,1.5-2.6c0.4-1,0.5-2.1,0.5-3.2
				c0-1.1-0.2-2.2-0.5-3.2c-0.4-1-0.9-1.8-1.5-2.5c-0.7-0.7-1.5-1.3-2.4-1.7c-0.9-0.4-2-0.6-3.1-0.6c-1.1,0-2.2,0.2-3.1,0.6
				c-0.9,0.4-1.7,1-2.4,1.7c-0.7,0.7-1.2,1.6-1.5,2.5C57.2,171.2,57,172.3,57,173.4z"/>
			<path d="M86.4,178.4H79v-3.2h7.4V178.4z"/>
			<path d="M87.5,162.5h4.3l4.2,16.1h0.1l4.8-16.1h4l4.7,16.1h0.1l4.3-16.1h4.2l-6.4,21.9H108l-5.1-16.5h-0.1l-5.1,16.5h-3.8
				L87.5,162.5z"/>
			<path d="M133.7,177.2c0,0.2,0,0.3,0,0.5c0,0.2,0,0.3,0,0.5h-11.3c0,0.5,0.2,1,0.4,1.5c0.2,0.4,0.6,0.8,0.9,1.1
				c0.4,0.3,0.8,0.6,1.3,0.8c0.5,0.2,1,0.3,1.6,0.3c0.9,0,1.7-0.2,2.4-0.5c0.6-0.3,1.2-0.8,1.6-1.4l2.5,2c-1.5,2-3.6,3-6.4,3
				c-1.2,0-2.2-0.2-3.2-0.5c-1-0.4-1.8-0.9-2.5-1.5c-0.7-0.7-1.3-1.5-1.7-2.4c-0.4-1-0.6-2.1-0.6-3.3c0-1.2,0.2-2.3,0.6-3.3
				c0.4-1,1-1.8,1.7-2.5c0.7-0.7,1.5-1.2,2.5-1.6c1-0.4,2-0.6,3.1-0.6c1,0,2,0.2,2.9,0.5c0.9,0.3,1.6,0.8,2.3,1.5s1.1,1.5,1.5,2.5
				C133.5,174.7,133.7,175.8,133.7,177.2z M130,175.5c0-0.5-0.1-0.9-0.2-1.4c-0.1-0.4-0.3-0.8-0.6-1.1c-0.3-0.3-0.7-0.6-1.1-0.8
				c-0.4-0.2-1-0.3-1.6-0.3c-1.1,0-2.1,0.3-2.8,1s-1.2,1.5-1.3,2.6H130z"/>
			<path d="M151.5,177.2c0,0.2,0,0.3,0,0.5c0,0.2,0,0.3,0,0.5h-11.3c0,0.5,0.2,1,0.4,1.5c0.2,0.4,0.6,0.8,0.9,1.1
				c0.4,0.3,0.8,0.6,1.3,0.8c0.5,0.2,1,0.3,1.6,0.3c0.9,0,1.7-0.2,2.4-0.5c0.6-0.3,1.2-0.8,1.6-1.4l2.5,2c-1.5,2-3.6,3-6.4,3
				c-1.2,0-2.2-0.2-3.2-0.5c-1-0.4-1.8-0.9-2.5-1.5c-0.7-0.7-1.3-1.5-1.7-2.4c-0.4-1-0.6-2.1-0.6-3.3c0-1.2,0.2-2.3,0.6-3.3
				c0.4-1,1-1.8,1.7-2.5c0.7-0.7,1.5-1.2,2.5-1.6c1-0.4,2-0.6,3.1-0.6c1,0,2,0.2,2.9,0.5c0.9,0.3,1.6,0.8,2.3,1.5s1.1,1.5,1.5,2.5
				C151.3,174.7,151.5,175.8,151.5,177.2z M147.8,175.5c0-0.5-0.1-0.9-0.2-1.4c-0.1-0.4-0.3-0.8-0.6-1.1c-0.3-0.3-0.7-0.6-1.1-0.8
				c-0.4-0.2-1-0.3-1.6-0.3c-1.1,0-2.1,0.3-2.8,1s-1.2,1.5-1.3,2.6H147.8z"/>
			<path d="M155.2,161h3.7v14.8h0.1l5.6-6.3h4.8l-6.4,6.7l6.9,8.2h-4.9l-5.9-7.6h-0.1v7.6h-3.7V161z"/>
			<path d="M171.3,182.3c0-0.7,0.2-1.2,0.7-1.7c0.5-0.5,1.1-0.7,1.8-0.7c0.7,0,1.2,0.2,1.7,0.7s0.7,1,0.7,1.7s-0.2,1.2-0.7,1.7
				c-0.5,0.5-1.1,0.7-1.8,0.7c-0.3,0-0.6-0.1-0.9-0.2c-0.3-0.1-0.6-0.3-0.8-0.5c-0.2-0.2-0.4-0.5-0.5-0.7
				C171.3,182.9,171.3,182.6,171.3,182.3z"/>
			<path d="M187,162.5h3.9V181h9.3v3.5H187V162.5z"/>
			<path d="M216.3,177.2c0,0.2,0,0.3,0,0.5c0,0.2,0,0.3,0,0.5H205c0,0.5,0.2,1,0.4,1.5c0.2,0.4,0.6,0.8,0.9,1.1
				c0.4,0.3,0.8,0.6,1.3,0.8c0.5,0.2,1,0.3,1.6,0.3c0.9,0,1.7-0.2,2.4-0.5c0.6-0.3,1.2-0.8,1.6-1.4l2.5,2c-1.5,2-3.6,3-6.4,3
				c-1.2,0-2.2-0.2-3.2-0.5c-1-0.4-1.8-0.9-2.5-1.5c-0.7-0.7-1.3-1.5-1.7-2.4c-0.4-1-0.6-2.1-0.6-3.3c0-1.2,0.2-2.3,0.6-3.3
				c0.4-1,1-1.8,1.7-2.5c0.7-0.7,1.5-1.2,2.5-1.6c1-0.4,2-0.6,3.1-0.6c1,0,2,0.2,2.9,0.5c0.9,0.3,1.6,0.8,2.3,1.5s1.1,1.5,1.5,2.5
				C216.1,174.7,216.3,175.8,216.3,177.2z M212.6,175.5c0-0.5-0.1-0.9-0.2-1.4c-0.1-0.4-0.3-0.8-0.6-1.1c-0.3-0.3-0.7-0.6-1.1-0.8
				c-0.4-0.2-1-0.3-1.6-0.3c-1.1,0-2.1,0.3-2.8,1s-1.2,1.5-1.3,2.6H212.6z"/>
			<path d="M229,182.5L229,182.5c-0.5,0.7-1.1,1.2-1.9,1.6c-0.8,0.4-1.8,0.6-2.8,0.6c-0.6,0-1.2-0.1-1.9-0.2
				c-0.7-0.2-1.3-0.4-1.8-0.8c-0.5-0.4-1-0.8-1.4-1.4c-0.4-0.6-0.5-1.3-0.5-2.2c0-1.1,0.3-2,0.9-2.7c0.6-0.7,1.4-1.2,2.4-1.5
				c1-0.4,2.1-0.6,3.3-0.7s2.4-0.2,3.5-0.2v-0.4c0-0.9-0.3-1.6-1-2.1c-0.7-0.4-1.5-0.7-2.4-0.7c-0.8,0-1.5,0.2-2.3,0.5
				c-0.7,0.3-1.3,0.7-1.8,1.2l-1.9-2.3c0.8-0.8,1.8-1.4,2.9-1.8s2.2-0.6,3.4-0.6c1.3,0,2.4,0.2,3.3,0.6c0.9,0.4,1.5,0.9,2,1.5
				c0.5,0.6,0.8,1.3,1,2c0.2,0.7,0.3,1.5,0.3,2.2v9.1H229V182.5z M228.9,177.6h-0.8c-0.6,0-1.2,0-1.9,0.1c-0.7,0.1-1.3,0.2-1.8,0.3
				c-0.6,0.2-1,0.4-1.4,0.7c-0.4,0.3-0.6,0.8-0.6,1.3c0,0.4,0.1,0.6,0.2,0.9c0.2,0.2,0.4,0.4,0.6,0.6s0.5,0.2,0.8,0.3
				c0.3,0.1,0.6,0.1,0.9,0.1c1.3,0,2.3-0.3,2.9-1c0.7-0.7,1-1.6,1-2.8V177.6z"/>
			<path d="M236.8,169.6h3.6v2.5h0.1c0.4-0.9,1-1.6,1.7-2.1c0.7-0.5,1.6-0.8,2.6-0.8c0.1,0,0.3,0,0.5,0c0.2,0,0.3,0,0.4,0.1v3.4
				c-0.2-0.1-0.5-0.1-0.6-0.1c-0.2,0-0.3,0-0.5,0c-0.8,0-1.5,0.2-2,0.5c-0.5,0.3-0.9,0.7-1.2,1.1s-0.5,0.9-0.6,1.3
				c-0.1,0.5-0.2,0.8-0.2,1.1v8h-3.7V169.6z"/>
			<path d="M248.1,169.6h3.5v2.4h0.1c0.3-0.7,0.9-1.4,1.7-2s1.8-0.9,2.9-0.9c1,0,1.8,0.2,2.5,0.5c0.7,0.3,1.3,0.8,1.7,1.3
				c0.4,0.6,0.8,1.2,1,1.9c0.2,0.7,0.3,1.5,0.3,2.2v9.3H258v-8.2c0-0.4,0-0.9-0.1-1.4c-0.1-0.5-0.2-0.9-0.4-1.3
				c-0.2-0.4-0.5-0.7-0.9-0.9c-0.4-0.2-0.8-0.4-1.4-0.4s-1.1,0.1-1.5,0.4c-0.4,0.2-0.8,0.5-1.1,0.9s-0.5,0.8-0.6,1.3
				c-0.1,0.5-0.2,1-0.2,1.5v8.2h-3.7V169.6z"/>
			<path d="M282.1,169.1c1,0,1.8,0.2,2.5,0.5c0.7,0.3,1.3,0.8,1.7,1.3c0.4,0.6,0.8,1.2,1,1.9c0.2,0.7,0.3,1.5,0.3,2.2v9.3h-3.7v-8.2
				c0-0.4,0-0.9-0.1-1.3c-0.1-0.5-0.2-0.9-0.4-1.3c-0.2-0.4-0.5-0.7-0.8-0.9s-0.8-0.4-1.4-0.4s-1.1,0.1-1.5,0.3
				c-0.4,0.2-0.8,0.5-1.1,0.9c-0.3,0.4-0.5,0.8-0.7,1.3c-0.1,0.5-0.2,1-0.2,1.5v8.1h-3.7V161h3.7v10.6h0.1c0.1-0.3,0.4-0.6,0.6-0.9
				c0.3-0.3,0.6-0.6,1-0.8c0.4-0.2,0.8-0.4,1.3-0.6C281,169.2,281.6,169.1,282.1,169.1z"/>
			<path d="M291.1,176.9c0-1.2,0.2-2.2,0.6-3.2c0.4-1,1-1.8,1.7-2.5c0.7-0.7,1.6-1.2,2.6-1.6c1-0.4,2-0.6,3.2-0.6
				c1.1,0,2.2,0.2,3.2,0.6c1,0.4,1.8,0.9,2.6,1.6c0.7,0.7,1.3,1.5,1.7,2.5s0.6,2,0.6,3.2s-0.2,2.3-0.6,3.2c-0.4,1-1,1.8-1.7,2.5
				c-0.7,0.7-1.6,1.2-2.6,1.6c-1,0.4-2,0.6-3.2,0.6c-1.1,0-2.2-0.2-3.2-0.6s-1.8-0.9-2.6-1.6s-1.3-1.5-1.7-2.5
				C291.3,179.2,291.1,178.1,291.1,176.9z M294.9,176.9c0,0.6,0.1,1.2,0.3,1.7c0.2,0.6,0.4,1.1,0.8,1.6c0.4,0.5,0.8,0.8,1.3,1.1
				c0.5,0.3,1.2,0.4,1.9,0.4s1.4-0.1,1.9-0.4c0.5-0.3,1-0.7,1.3-1.1c0.4-0.5,0.6-1,0.8-1.6c0.2-0.6,0.3-1.2,0.3-1.7
				c0-0.6-0.1-1.2-0.3-1.7c-0.2-0.6-0.4-1.1-0.8-1.5c-0.4-0.5-0.8-0.8-1.3-1.1c-0.5-0.3-1.2-0.4-1.9-0.4s-1.4,0.1-1.9,0.4
				c-0.5,0.3-1,0.6-1.3,1.1c-0.4,0.5-0.6,1-0.8,1.5C295,175.8,294.9,176.4,294.9,176.9z"/>
			<path d="M308.8,169.6h4l3.1,10.7h0.1l3.2-10.7h4l3.2,10.7h0.1l3.2-10.7h3.9l-5.1,14.9h-3.8l-3.4-10.4h-0.1l-3.3,10.4h-3.8
				L308.8,169.6z"/>
			<path d="M341.4,172.5v-3h2.6v-4.3h3.7v4.3h3.7v3h-3.7v6.9c0,0.7,0.1,1.2,0.4,1.6c0.2,0.4,0.8,0.7,1.6,0.7c0.2,0,0.5,0,0.8-0.1
				c0.3-0.1,0.5-0.1,0.8-0.2l0.1,2.9c-0.3,0.1-0.7,0.2-1.2,0.3c-0.5,0.1-0.9,0.1-1.3,0.1c-1,0-1.8-0.1-2.4-0.4
				c-0.6-0.3-1.1-0.7-1.5-1.1c-0.4-0.5-0.6-1-0.7-1.7c-0.1-0.6-0.2-1.3-0.2-2v-6.9H341.4z"/>
			<path d="M353.2,176.9c0-1.2,0.2-2.2,0.6-3.2s1-1.8,1.7-2.5c0.7-0.7,1.6-1.2,2.6-1.6c1-0.4,2-0.6,3.2-0.6s2.2,0.2,3.2,0.6
				c1,0.4,1.8,0.9,2.6,1.6c0.7,0.7,1.3,1.5,1.7,2.5s0.6,2,0.6,3.2s-0.2,2.3-0.6,3.2c-0.4,1-1,1.8-1.7,2.5c-0.7,0.7-1.6,1.2-2.6,1.6
				s-2,0.6-3.2,0.6s-2.2-0.2-3.2-0.6s-1.8-0.9-2.6-1.6s-1.3-1.5-1.7-2.5C353.4,179.2,353.2,178.1,353.2,176.9z M357,176.9
				c0,0.6,0.1,1.2,0.3,1.7c0.2,0.6,0.4,1.1,0.8,1.6c0.4,0.5,0.8,0.8,1.3,1.1c0.5,0.3,1.2,0.4,1.9,0.4s1.4-0.1,1.9-0.4
				c0.5-0.3,1-0.7,1.3-1.1c0.4-0.5,0.6-1,0.8-1.6c0.2-0.6,0.3-1.2,0.3-1.7c0-0.6-0.1-1.2-0.3-1.7c-0.2-0.6-0.4-1.1-0.8-1.5
				c-0.4-0.5-0.8-0.8-1.3-1.1c-0.5-0.3-1.2-0.4-1.9-0.4s-1.4,0.1-1.9,0.4c-0.5,0.3-1,0.6-1.3,1.1c-0.4,0.5-0.6,1-0.8,1.5
				C357.1,175.8,357,176.4,357,176.9z"/>
			<path d="M13.4,210.7c-0.3-0.4-0.8-0.8-1.4-1.1c-0.6-0.3-1.2-0.5-1.9-0.5c-0.6,0-1.1,0.1-1.6,0.4c-0.5,0.2-0.7,0.7-0.7,1.2
				c0,0.6,0.3,1,0.8,1.2c0.5,0.2,1.3,0.5,2.4,0.7c0.6,0.1,1.1,0.3,1.7,0.5c0.6,0.2,1.1,0.5,1.5,0.8c0.5,0.3,0.8,0.8,1.1,1.3
				c0.3,0.5,0.4,1.1,0.4,1.8c0,0.9-0.2,1.7-0.5,2.3c-0.3,0.6-0.8,1.1-1.4,1.5c-0.6,0.4-1.2,0.7-2,0.9c-0.8,0.2-1.5,0.3-2.3,0.3
				c-1.2,0-2.3-0.2-3.4-0.6c-1.1-0.4-2-1-2.7-1.8l2.4-2.3c0.4,0.5,1,1,1.6,1.3c0.7,0.4,1.4,0.5,2.2,0.5c0.3,0,0.5,0,0.8-0.1
				c0.3-0.1,0.5-0.2,0.8-0.3c0.2-0.1,0.4-0.3,0.6-0.5c0.1-0.2,0.2-0.5,0.2-0.8c0-0.6-0.3-1.1-0.9-1.3c-0.6-0.3-1.4-0.5-2.6-0.8
				c-0.6-0.1-1.1-0.3-1.6-0.5c-0.5-0.2-1-0.5-1.4-0.8c-0.4-0.3-0.7-0.7-1-1.2s-0.4-1.1-0.4-1.8c0-0.8,0.2-1.5,0.5-2.1
				s0.8-1.1,1.3-1.5c0.6-0.4,1.2-0.7,1.9-0.9c0.7-0.2,1.4-0.3,2.2-0.3c1.1,0,2.1,0.2,3.1,0.6s1.8,0.9,2.4,1.7L13.4,210.7z"/>
			<path d="M32.6,221.6H29v-2.4H29c-0.3,0.7-0.9,1.4-1.7,2c-0.8,0.6-1.8,0.9-2.9,0.9c-1,0-1.8-0.2-2.5-0.5c-0.7-0.3-1.3-0.8-1.7-1.3
				c-0.4-0.6-0.8-1.2-1-1.9c-0.2-0.7-0.3-1.5-0.3-2.2v-9.3h3.7v8.2c0,0.4,0,0.9,0.1,1.4c0.1,0.5,0.2,0.9,0.4,1.3
				c0.2,0.4,0.5,0.7,0.9,0.9s0.8,0.4,1.4,0.4c0.6,0,1.1-0.1,1.5-0.4c0.4-0.2,0.8-0.5,1.1-0.9c0.3-0.4,0.5-0.8,0.6-1.3
				c0.1-0.5,0.2-1,0.2-1.5v-8.2h3.7V221.6z"/>
			<path d="M47.2,210.9c-0.3-0.4-0.7-0.8-1.3-1c-0.6-0.3-1.2-0.4-1.8-0.4c-0.7,0-1.3,0.1-1.8,0.4c-0.5,0.3-0.9,0.6-1.3,1.1
				c-0.3,0.5-0.6,1-0.8,1.5c-0.2,0.6-0.2,1.1-0.2,1.7c0,0.6,0.1,1.2,0.3,1.7c0.2,0.6,0.4,1.1,0.8,1.5c0.4,0.5,0.8,0.8,1.3,1.1
				c0.5,0.3,1.1,0.4,1.8,0.4c0.6,0,1.2-0.1,1.7-0.3s1-0.6,1.4-1l2.3,2.4c-0.6,0.7-1.4,1.2-2.4,1.5s-2,0.5-3.1,0.5
				c-1.1,0-2.1-0.2-3.1-0.5c-1-0.4-1.8-0.9-2.6-1.6c-0.7-0.7-1.3-1.5-1.7-2.5c-0.4-1-0.6-2.1-0.6-3.3c0-1.2,0.2-2.3,0.6-3.3
				c0.4-1,1-1.8,1.7-2.5c0.7-0.7,1.6-1.2,2.5-1.6s2-0.6,3.1-0.6c1.1,0,2.2,0.2,3.2,0.6c1,0.4,1.8,1,2.4,1.7L47.2,210.9z"/>
			<path d="M62.3,210.9c-0.3-0.4-0.7-0.8-1.3-1c-0.6-0.3-1.2-0.4-1.8-0.4c-0.7,0-1.3,0.1-1.8,0.4c-0.5,0.3-0.9,0.6-1.3,1.1
				c-0.3,0.5-0.6,1-0.8,1.5c-0.2,0.6-0.2,1.1-0.2,1.7c0,0.6,0.1,1.2,0.3,1.7c0.2,0.6,0.4,1.1,0.8,1.5c0.4,0.5,0.8,0.8,1.3,1.1
				c0.5,0.3,1.1,0.4,1.8,0.4c0.6,0,1.2-0.1,1.7-0.3s1-0.6,1.4-1l2.3,2.4c-0.6,0.7-1.4,1.2-2.4,1.5s-2,0.5-3.1,0.5
				c-1.1,0-2.1-0.2-3.1-0.5c-1-0.4-1.8-0.9-2.6-1.6c-0.7-0.7-1.3-1.5-1.7-2.5c-0.4-1-0.6-2.1-0.6-3.3c0-1.2,0.2-2.3,0.6-3.3
				c0.4-1,1-1.8,1.7-2.5c0.7-0.7,1.6-1.2,2.5-1.6s2-0.6,3.1-0.6c1.1,0,2.2,0.2,3.2,0.6c1,0.4,1.8,1,2.4,1.7L62.3,210.9z"/>
			<path d="M81.5,214.4c0,0.2,0,0.3,0,0.5s0,0.3,0,0.5H70.1c0,0.5,0.2,1,0.4,1.5c0.2,0.4,0.6,0.8,0.9,1.1c0.4,0.3,0.8,0.6,1.3,0.8
				c0.5,0.2,1,0.3,1.6,0.3c0.9,0,1.7-0.2,2.4-0.5c0.6-0.3,1.2-0.8,1.6-1.4l2.5,2c-1.5,2-3.6,3-6.4,3c-1.2,0-2.2-0.2-3.2-0.5
				c-1-0.4-1.8-0.9-2.5-1.5c-0.7-0.7-1.3-1.5-1.7-2.4c-0.4-1-0.6-2.1-0.6-3.3c0-1.2,0.2-2.3,0.6-3.3c0.4-1,1-1.8,1.7-2.5
				c0.7-0.7,1.5-1.2,2.5-1.6c1-0.4,2-0.6,3.1-0.6c1,0,2,0.2,2.9,0.5s1.6,0.8,2.3,1.5c0.6,0.7,1.1,1.5,1.5,2.5
				C81.3,211.9,81.5,213,81.5,214.4z M77.8,212.7c0-0.5-0.1-0.9-0.2-1.4s-0.3-0.8-0.6-1.1c-0.3-0.3-0.7-0.6-1.1-0.8
				c-0.4-0.2-1-0.3-1.6-0.3c-1.1,0-2.1,0.3-2.8,1s-1.2,1.5-1.3,2.6H77.8z"/>
			<path d="M99.3,214.4c0,0.2,0,0.3,0,0.5s0,0.3,0,0.5H87.9c0,0.5,0.2,1,0.4,1.5c0.2,0.4,0.6,0.8,0.9,1.1c0.4,0.3,0.8,0.6,1.3,0.8
				c0.5,0.2,1,0.3,1.6,0.3c0.9,0,1.7-0.2,2.4-0.5c0.6-0.3,1.2-0.8,1.6-1.4l2.5,2c-1.5,2-3.6,3-6.4,3c-1.2,0-2.2-0.2-3.2-0.5
				c-1-0.4-1.8-0.9-2.5-1.5c-0.7-0.7-1.3-1.5-1.7-2.4c-0.4-1-0.6-2.1-0.6-3.3c0-1.2,0.2-2.3,0.6-3.3c0.4-1,1-1.8,1.7-2.5
				c0.7-0.7,1.5-1.2,2.5-1.6c1-0.4,2-0.6,3.1-0.6c1,0,2,0.2,2.9,0.5s1.6,0.8,2.3,1.5c0.6,0.7,1.1,1.5,1.5,2.5
				C99.1,211.9,99.3,213,99.3,214.4z M95.6,212.7c0-0.5-0.1-0.9-0.2-1.4s-0.3-0.8-0.6-1.1c-0.3-0.3-0.7-0.6-1.1-0.8
				c-0.4-0.2-1-0.3-1.6-0.3c-1.1,0-2.1,0.3-2.8,1s-1.2,1.5-1.3,2.6H95.6z"/>
			<path d="M118,221.6h-3.5v-2.2h-0.1c-0.5,0.9-1.2,1.5-2.2,2c-0.9,0.5-1.9,0.7-3,0.7c-1.1,0-2.2-0.2-3.1-0.6
				c-0.9-0.4-1.7-1-2.3-1.7c-0.6-0.7-1.1-1.5-1.5-2.5c-0.3-1-0.5-2-0.5-3.1c0-1.1,0.2-2.1,0.5-3.1c0.4-1,0.8-1.8,1.5-2.5
				c0.6-0.7,1.4-1.3,2.3-1.7c0.9-0.4,1.9-0.6,2.9-0.6c0.7,0,1.3,0.1,1.8,0.2c0.5,0.2,1,0.3,1.4,0.6c0.4,0.2,0.7,0.5,1,0.7
				c0.3,0.3,0.5,0.5,0.7,0.8h0.1v-10.4h3.7V221.6z M105.8,214.1c0,0.6,0.1,1.2,0.3,1.7c0.2,0.6,0.4,1.1,0.8,1.6
				c0.4,0.5,0.8,0.8,1.3,1.1c0.5,0.3,1.2,0.4,1.9,0.4c0.7,0,1.3-0.1,1.8-0.4c0.5-0.3,1-0.6,1.4-1.1c0.4-0.5,0.7-1,0.9-1.5
				c0.2-0.6,0.3-1.1,0.3-1.7c0-0.6-0.1-1.2-0.3-1.7c-0.2-0.6-0.5-1.1-0.9-1.5c-0.4-0.5-0.8-0.8-1.4-1.1c-0.5-0.3-1.1-0.4-1.8-0.4
				c-0.7,0-1.4,0.1-1.9,0.4c-0.5,0.3-1,0.6-1.3,1.1c-0.4,0.5-0.6,1-0.8,1.5C105.9,213,105.8,213.6,105.8,214.1z"/>
			<path d="M139.5,219.7L139.5,219.7c-0.5,0.7-1.1,1.2-1.9,1.6c-0.8,0.4-1.8,0.6-2.8,0.6c-0.6,0-1.2-0.1-1.9-0.2
				c-0.7-0.2-1.3-0.4-1.8-0.8c-0.5-0.4-1-0.8-1.4-1.4c-0.4-0.6-0.5-1.3-0.5-2.2c0-1.1,0.3-2,0.9-2.7c0.6-0.7,1.4-1.2,2.4-1.5
				c1-0.4,2.1-0.6,3.3-0.7c1.2-0.1,2.4-0.2,3.5-0.2V212c0-0.9-0.3-1.6-1-2.1c-0.7-0.4-1.5-0.7-2.4-0.7c-0.8,0-1.5,0.2-2.3,0.5
				c-0.7,0.3-1.3,0.7-1.8,1.2l-1.9-2.3c0.8-0.8,1.8-1.4,2.9-1.8c1.1-0.4,2.2-0.6,3.4-0.6c1.3,0,2.4,0.2,3.3,0.6
				c0.9,0.4,1.5,0.9,2,1.5c0.5,0.6,0.8,1.3,1,2c0.2,0.7,0.3,1.5,0.3,2.2v9.1h-3.5V219.7z M139.5,214.8h-0.8c-0.6,0-1.2,0-1.9,0.1
				c-0.7,0.1-1.3,0.2-1.8,0.3s-1,0.4-1.4,0.7s-0.6,0.8-0.6,1.3c0,0.4,0.1,0.6,0.2,0.9c0.2,0.2,0.4,0.4,0.6,0.6
				c0.2,0.1,0.5,0.2,0.8,0.3c0.3,0.1,0.6,0.1,0.9,0.1c1.3,0,2.3-0.3,2.9-1c0.7-0.7,1-1.6,1-2.8V214.8z"/>
			<path d="M144.9,209.7v-3h2.6v-4.3h3.7v4.3h3.7v3h-3.7v6.9c0,0.7,0.1,1.2,0.4,1.6c0.2,0.4,0.8,0.7,1.6,0.7c0.2,0,0.5,0,0.8-0.1
				c0.3-0.1,0.5-0.1,0.8-0.2l0.1,2.9c-0.3,0.1-0.7,0.2-1.2,0.3c-0.5,0.1-0.9,0.1-1.3,0.1c-1,0-1.8-0.1-2.4-0.4
				c-0.6-0.3-1.1-0.7-1.5-1.1c-0.4-0.5-0.6-1-0.7-1.7c-0.1-0.6-0.2-1.3-0.2-2v-6.9H144.9z"/>
			<path d="M165.5,199.7H180v3.4h-10.6v5.6h10.1v3.3h-10.1v6.2h11.2v3.5h-15.1V199.7z"/>
			<path d="M181.6,206.8h4.1l3.9,10.8h0.1l3.9-10.8h3.9l-5.9,14.9h-4L181.6,206.8z"/>
			<path d="M214,214.4c0,0.2,0,0.3,0,0.5s0,0.3,0,0.5h-11.3c0,0.5,0.2,1,0.4,1.5c0.2,0.4,0.6,0.8,0.9,1.1c0.4,0.3,0.8,0.6,1.3,0.8
				c0.5,0.2,1,0.3,1.6,0.3c0.9,0,1.7-0.2,2.4-0.5c0.6-0.3,1.2-0.8,1.6-1.4l2.5,2c-1.5,2-3.6,3-6.4,3c-1.2,0-2.2-0.2-3.2-0.5
				c-1-0.4-1.8-0.9-2.5-1.5c-0.7-0.7-1.3-1.5-1.7-2.4c-0.4-1-0.6-2.1-0.6-3.3c0-1.2,0.2-2.3,0.6-3.3c0.4-1,1-1.8,1.7-2.5
				c0.7-0.7,1.5-1.2,2.5-1.6c1-0.4,2-0.6,3.1-0.6c1,0,2,0.2,2.9,0.5s1.6,0.8,2.3,1.5c0.6,0.7,1.1,1.5,1.5,2.5
				C213.8,211.9,214,213,214,214.4z M210.2,212.7c0-0.5-0.1-0.9-0.2-1.4s-0.3-0.8-0.6-1.1c-0.3-0.3-0.7-0.6-1.1-0.8
				c-0.4-0.2-1-0.3-1.6-0.3c-1.1,0-2.1,0.3-2.8,1s-1.2,1.5-1.3,2.6H210.2z"/>
			<path d="M217.5,206.8h3.6v2.5h0.1c0.4-0.9,1-1.6,1.7-2.1c0.7-0.5,1.6-0.8,2.6-0.8c0.1,0,0.3,0,0.5,0c0.2,0,0.3,0,0.4,0.1v3.4
				c-0.2-0.1-0.5-0.1-0.6-0.1c-0.2,0-0.3,0-0.5,0c-0.8,0-1.5,0.2-2,0.5s-0.9,0.7-1.2,1.1c-0.3,0.4-0.5,0.9-0.6,1.3
				c-0.1,0.5-0.2,0.8-0.2,1.1v8h-3.7V206.8z"/>
			<path d="M243.4,206.8v13.5c0,1.3-0.2,2.6-0.5,3.6c-0.3,1.1-0.8,2-1.5,2.8s-1.6,1.3-2.6,1.8c-1.1,0.4-2.3,0.6-3.8,0.6
				c-0.6,0-1.2-0.1-1.9-0.2c-0.7-0.1-1.3-0.3-2-0.5c-0.7-0.2-1.3-0.5-1.9-0.8c-0.6-0.3-1.1-0.7-1.6-1.1l2.1-2.9
				c0.7,0.7,1.5,1.2,2.4,1.6c0.9,0.4,1.8,0.5,2.8,0.5c0.9,0,1.6-0.1,2.2-0.4s1.1-0.6,1.5-1.1s0.6-1,0.8-1.6c0.2-0.6,0.2-1.3,0.2-2.1
				v-1.1h-0.1c-0.5,0.7-1.2,1.3-2.1,1.7c-0.8,0.4-1.8,0.6-2.8,0.6c-1.1,0-2.1-0.2-3-0.6c-0.9-0.4-1.7-1-2.3-1.7s-1.1-1.5-1.5-2.5
				c-0.4-0.9-0.5-1.9-0.5-3c0-1.1,0.2-2.1,0.5-3c0.3-1,0.8-1.8,1.5-2.5c0.6-0.7,1.4-1.3,2.3-1.7c0.9-0.4,1.9-0.6,3-0.6
				c1.1,0,2,0.2,2.9,0.7c0.9,0.4,1.6,1.1,2.2,2h0.1v-2.2H243.4z M235.5,209.4c-0.7,0-1.3,0.1-1.8,0.4c-0.5,0.2-1,0.6-1.3,1
				c-0.4,0.4-0.6,0.9-0.8,1.5c-0.2,0.6-0.3,1.2-0.3,1.9c0,0.6,0.1,1.2,0.3,1.7c0.2,0.6,0.5,1.1,0.8,1.5c0.4,0.4,0.8,0.8,1.3,1.1
				c0.5,0.3,1.1,0.4,1.8,0.4c0.7,0,1.3-0.1,1.8-0.4c0.5-0.3,1-0.6,1.4-1c0.4-0.4,0.7-0.9,0.9-1.5c0.2-0.6,0.3-1.2,0.3-1.8
				c0-0.6-0.1-1.2-0.3-1.8c-0.2-0.6-0.5-1.1-0.9-1.5c-0.4-0.4-0.8-0.8-1.4-1C236.8,209.5,236.1,209.4,235.5,209.4z"/>
			<path d="M247.9,206.8h3.6v2.5h0.1c0.4-0.9,1-1.6,1.7-2.1s1.6-0.8,2.6-0.8c0.1,0,0.3,0,0.5,0c0.2,0,0.3,0,0.4,0.1v3.4
				c-0.2-0.1-0.5-0.1-0.6-0.1c-0.2,0-0.3,0-0.5,0c-0.8,0-1.5,0.2-2,0.5c-0.5,0.3-0.9,0.7-1.2,1.1c-0.3,0.4-0.5,0.9-0.6,1.3
				s-0.2,0.8-0.2,1.1v8h-3.7V206.8z"/>
			<path d="M272.8,214.4c0,0.2,0,0.3,0,0.5s0,0.3,0,0.5h-11.3c0,0.5,0.2,1,0.4,1.5c0.2,0.4,0.6,0.8,0.9,1.1c0.4,0.3,0.8,0.6,1.3,0.8
				c0.5,0.2,1,0.3,1.6,0.3c0.9,0,1.7-0.2,2.4-0.5c0.6-0.3,1.2-0.8,1.6-1.4l2.5,2c-1.5,2-3.6,3-6.4,3c-1.2,0-2.2-0.2-3.2-0.5
				c-1-0.4-1.8-0.9-2.5-1.5c-0.7-0.7-1.3-1.5-1.7-2.4c-0.4-1-0.6-2.1-0.6-3.3c0-1.2,0.2-2.3,0.6-3.3c0.4-1,1-1.8,1.7-2.5
				c0.7-0.7,1.5-1.2,2.5-1.6c1-0.4,2-0.6,3.1-0.6c1,0,2,0.2,2.9,0.5s1.6,0.8,2.3,1.5c0.6,0.7,1.1,1.5,1.5,2.5S272.8,213,272.8,214.4
				z M269.1,212.7c0-0.5-0.1-0.9-0.2-1.4c-0.1-0.4-0.3-0.8-0.6-1.1c-0.3-0.3-0.7-0.6-1.1-0.8c-0.4-0.2-1-0.3-1.6-0.3
				c-1.1,0-2.1,0.3-2.8,1c-0.8,0.7-1.2,1.5-1.3,2.6H269.1z"/>
			<path d="M290.6,214.4c0,0.2,0,0.3,0,0.5s0,0.3,0,0.5h-11.3c0,0.5,0.2,1,0.4,1.5c0.2,0.4,0.6,0.8,0.9,1.1c0.4,0.3,0.8,0.6,1.3,0.8
				c0.5,0.2,1,0.3,1.5,0.3c0.9,0,1.7-0.2,2.4-0.5c0.6-0.3,1.2-0.8,1.6-1.4l2.5,2c-1.5,2-3.6,3-6.4,3c-1.2,0-2.2-0.2-3.2-0.5
				c-1-0.4-1.8-0.9-2.5-1.5c-0.7-0.7-1.3-1.5-1.7-2.4s-0.6-2.1-0.6-3.3c0-1.2,0.2-2.3,0.6-3.3c0.4-1,1-1.8,1.7-2.5
				c0.7-0.7,1.5-1.2,2.5-1.6c1-0.4,2-0.6,3.1-0.6c1,0,2,0.2,2.9,0.5c0.9,0.3,1.6,0.8,2.3,1.5c0.6,0.7,1.1,1.5,1.5,2.5
				S290.6,213,290.6,214.4z M286.9,212.7c0-0.5-0.1-0.9-0.2-1.4s-0.3-0.8-0.6-1.1c-0.3-0.3-0.7-0.6-1.1-0.8c-0.4-0.2-1-0.3-1.6-0.3
				c-1.1,0-2.1,0.3-2.8,1s-1.2,1.5-1.3,2.6H286.9z"/>
			<path d="M294.2,206.8h3.5v2.4h0.1c0.3-0.7,0.9-1.4,1.7-2s1.8-0.9,2.9-0.9c1,0,1.8,0.2,2.5,0.5s1.3,0.8,1.7,1.3s0.8,1.2,1,1.9
				c0.2,0.7,0.3,1.5,0.3,2.2v9.3h-3.7v-8.2c0-0.4,0-0.9-0.1-1.4c-0.1-0.5-0.2-0.9-0.4-1.3c-0.2-0.4-0.5-0.7-0.9-0.9
				c-0.4-0.2-0.8-0.4-1.4-0.4s-1.1,0.1-1.5,0.4s-0.8,0.5-1.1,0.9c-0.3,0.4-0.5,0.8-0.6,1.3c-0.1,0.5-0.2,1-0.2,1.5v8.2h-3.7V206.8z"
				/>
			<path d="M329.2,219.7L329.2,219.7c-0.5,0.7-1.1,1.2-1.9,1.6c-0.8,0.4-1.8,0.6-2.8,0.6c-0.6,0-1.2-0.1-1.9-0.2
				c-0.7-0.2-1.2-0.4-1.8-0.8c-0.5-0.4-1-0.8-1.4-1.4s-0.5-1.3-0.5-2.2c0-1.1,0.3-2,0.9-2.7c0.6-0.7,1.4-1.2,2.4-1.5
				c1-0.4,2.1-0.6,3.3-0.7c1.2-0.1,2.4-0.2,3.5-0.2V212c0-0.9-0.3-1.6-1-2.1s-1.5-0.7-2.4-0.7c-0.8,0-1.5,0.2-2.3,0.5
				c-0.7,0.3-1.3,0.7-1.8,1.2l-1.9-2.3c0.8-0.8,1.8-1.4,2.9-1.8c1.1-0.4,2.2-0.6,3.4-0.6c1.3,0,2.4,0.2,3.3,0.6s1.5,0.9,2,1.5
				c0.5,0.6,0.8,1.3,1,2c0.2,0.7,0.3,1.5,0.3,2.2v9.1h-3.5V219.7z M329.1,214.8h-0.8c-0.6,0-1.2,0-1.9,0.1c-0.7,0.1-1.3,0.2-1.8,0.3
				s-1,0.4-1.4,0.7c-0.4,0.3-0.6,0.8-0.6,1.3c0,0.4,0.1,0.6,0.2,0.9c0.2,0.2,0.4,0.4,0.6,0.6c0.2,0.1,0.5,0.2,0.8,0.3
				s0.6,0.1,0.9,0.1c1.3,0,2.3-0.3,2.9-1s1-1.6,1-2.8V214.8z"/>
			<path d="M337,206.8h3.5v2.4h0.1c0.3-0.7,0.9-1.4,1.7-2c0.8-0.6,1.8-0.9,2.9-0.9c1,0,1.8,0.2,2.5,0.5s1.3,0.8,1.7,1.3
				s0.8,1.2,1,1.9c0.2,0.7,0.3,1.5,0.3,2.2v9.3H347v-8.2c0-0.4,0-0.9-0.1-1.4c-0.1-0.5-0.2-0.9-0.4-1.3c-0.2-0.4-0.5-0.7-0.9-0.9
				c-0.4-0.2-0.8-0.4-1.4-0.4s-1.1,0.1-1.5,0.4s-0.8,0.5-1.1,0.9c-0.3,0.4-0.5,0.8-0.6,1.3c-0.1,0.5-0.2,1-0.2,1.5v8.2H337V206.8z"
				/>
			<path d="M370.2,221.6h-3.5v-2.2h-0.1c-0.5,0.9-1.2,1.5-2.2,2s-1.9,0.7-3,0.7c-1.1,0-2.2-0.2-3.1-0.6c-0.9-0.4-1.7-1-2.3-1.7
				c-0.6-0.7-1.1-1.5-1.5-2.5s-0.5-2-0.5-3.1c0-1.1,0.2-2.1,0.5-3.1c0.4-1,0.8-1.8,1.5-2.5s1.4-1.3,2.3-1.7c0.9-0.4,1.9-0.6,2.9-0.6
				c0.7,0,1.3,0.1,1.8,0.2c0.5,0.2,1,0.3,1.4,0.6c0.4,0.2,0.7,0.5,1,0.7c0.3,0.3,0.5,0.5,0.7,0.8h0.1v-10.4h3.7V221.6z M357.9,214.1
				c0,0.6,0.1,1.2,0.3,1.7c0.2,0.6,0.4,1.1,0.8,1.6s0.8,0.8,1.3,1.1c0.5,0.3,1.2,0.4,1.9,0.4c0.7,0,1.3-0.1,1.8-0.4
				c0.5-0.3,1-0.6,1.4-1.1c0.4-0.5,0.7-1,0.9-1.5c0.2-0.6,0.3-1.1,0.3-1.7c0-0.6-0.1-1.2-0.3-1.7c-0.2-0.6-0.5-1.1-0.9-1.5
				c-0.4-0.5-0.8-0.8-1.4-1.1s-1.1-0.4-1.8-0.4c-0.7,0-1.4,0.1-1.9,0.4c-0.5,0.3-1,0.6-1.3,1.1s-0.6,1-0.8,1.5
				C358,213,357.9,213.6,357.9,214.1z"/>
			<path d="M390.7,206.3c1,0,1.8,0.2,2.5,0.5c0.7,0.3,1.3,0.8,1.7,1.3c0.4,0.6,0.8,1.2,1,1.9c0.2,0.7,0.3,1.5,0.3,2.2v9.3h-3.7v-8.2
				c0-0.4,0-0.9-0.1-1.3c-0.1-0.5-0.2-0.9-0.4-1.3c-0.2-0.4-0.5-0.7-0.8-0.9c-0.4-0.2-0.8-0.4-1.4-0.4s-1.1,0.1-1.5,0.3
				c-0.4,0.2-0.8,0.5-1.1,0.9c-0.3,0.4-0.5,0.8-0.7,1.3c-0.1,0.5-0.2,1-0.2,1.5v8.1h-3.7v-23.4h3.7v10.6h0.1
				c0.1-0.3,0.4-0.6,0.6-0.9c0.3-0.3,0.6-0.6,1-0.8c0.4-0.2,0.8-0.4,1.3-0.6S390.2,206.3,390.7,206.3z"/>
			<path d="M409.8,219.7L409.8,219.7c-0.5,0.7-1.1,1.2-1.9,1.6c-0.8,0.4-1.8,0.6-2.8,0.6c-0.6,0-1.2-0.1-1.9-0.2
				c-0.7-0.2-1.3-0.4-1.8-0.8c-0.5-0.4-1-0.8-1.4-1.4c-0.4-0.6-0.5-1.3-0.5-2.2c0-1.1,0.3-2,0.9-2.7c0.6-0.7,1.4-1.2,2.4-1.5
				c1-0.4,2.1-0.6,3.3-0.7c1.2-0.1,2.4-0.2,3.5-0.2V212c0-0.9-0.3-1.6-1-2.1s-1.5-0.7-2.4-0.7c-0.8,0-1.5,0.2-2.3,0.5
				c-0.7,0.3-1.3,0.7-1.8,1.2l-1.9-2.3c0.8-0.8,1.8-1.4,2.9-1.8c1.1-0.4,2.2-0.6,3.4-0.6c1.3,0,2.4,0.2,3.3,0.6s1.5,0.9,2,1.5
				c0.5,0.6,0.8,1.3,1,2s0.3,1.5,0.3,2.2v9.1h-3.5V219.7z M409.7,214.8h-0.8c-0.6,0-1.2,0-1.9,0.1c-0.7,0.1-1.3,0.2-1.8,0.3
				c-0.6,0.2-1,0.4-1.4,0.7s-0.6,0.8-0.6,1.3c0,0.4,0.1,0.6,0.2,0.9c0.2,0.2,0.4,0.4,0.6,0.6c0.2,0.1,0.5,0.2,0.8,0.3
				c0.3,0.1,0.6,0.1,0.9,0.1c1.3,0,2.3-0.3,2.9-1c0.7-0.7,1-1.6,1-2.8V214.8z"/>
			<path d="M415.4,206.8h4.1l3.9,10.8h0.1l3.9-10.8h3.9l-5.9,14.9h-4L415.4,206.8z"/>
			<path d="M447.7,214.4c0,0.2,0,0.3,0,0.5s0,0.3,0,0.5h-11.3c0,0.5,0.2,1,0.4,1.5c0.2,0.4,0.6,0.8,0.9,1.1c0.4,0.3,0.8,0.6,1.3,0.8
				s1,0.3,1.5,0.3c0.9,0,1.7-0.2,2.4-0.5c0.6-0.3,1.2-0.8,1.6-1.4l2.5,2c-1.5,2-3.6,3-6.4,3c-1.2,0-2.2-0.2-3.2-0.5
				s-1.8-0.9-2.5-1.5c-0.7-0.7-1.3-1.5-1.7-2.4c-0.4-1-0.6-2.1-0.6-3.3c0-1.2,0.2-2.3,0.6-3.3c0.4-1,1-1.8,1.7-2.5
				c0.7-0.7,1.5-1.2,2.5-1.6c1-0.4,2-0.6,3.1-0.6c1,0,2,0.2,2.9,0.5c0.9,0.3,1.6,0.8,2.3,1.5c0.6,0.7,1.1,1.5,1.5,2.5
				C447.5,211.9,447.7,213,447.7,214.4z M444,212.7c0-0.5-0.1-0.9-0.2-1.4c-0.1-0.4-0.3-0.8-0.6-1.1c-0.3-0.3-0.7-0.6-1.1-0.8
				c-0.4-0.2-1-0.3-1.6-0.3c-1.1,0-2.1,0.3-2.8,1c-0.8,0.7-1.2,1.5-1.3,2.6H444z"/>
			<path d="M13.4,247.9c-0.3-0.4-0.8-0.8-1.4-1.1c-0.6-0.3-1.2-0.5-1.9-0.5c-0.6,0-1.1,0.1-1.6,0.4c-0.5,0.2-0.7,0.7-0.7,1.2
				c0,0.6,0.3,1,0.8,1.2c0.5,0.2,1.3,0.5,2.4,0.7c0.6,0.1,1.1,0.3,1.7,0.5c0.6,0.2,1.1,0.5,1.5,0.8s0.8,0.8,1.1,1.3
				c0.3,0.5,0.4,1.1,0.4,1.8c0,0.9-0.2,1.7-0.5,2.3c-0.3,0.6-0.8,1.1-1.4,1.5c-0.6,0.4-1.2,0.7-2,0.9c-0.8,0.2-1.5,0.3-2.3,0.3
				c-1.2,0-2.3-0.2-3.4-0.6c-1.1-0.4-2-1-2.7-1.8l2.4-2.3c0.4,0.5,1,1,1.6,1.3c0.7,0.4,1.4,0.5,2.2,0.5c0.3,0,0.5,0,0.8-0.1
				c0.3-0.1,0.5-0.2,0.8-0.3c0.2-0.1,0.4-0.3,0.6-0.5c0.1-0.2,0.2-0.5,0.2-0.8c0-0.6-0.3-1.1-0.9-1.3c-0.6-0.3-1.4-0.5-2.6-0.8
				c-0.6-0.1-1.1-0.3-1.6-0.5c-0.5-0.2-1-0.5-1.4-0.8c-0.4-0.3-0.7-0.7-1-1.2c-0.2-0.5-0.4-1.1-0.4-1.8c0-0.8,0.2-1.5,0.5-2.1
				c0.3-0.6,0.8-1.1,1.3-1.5c0.6-0.4,1.2-0.7,1.9-0.9c0.7-0.2,1.4-0.3,2.2-0.3c1.1,0,2.1,0.2,3.1,0.6s1.8,0.9,2.4,1.7L13.4,247.9z"
				/>
			<path d="M18.1,251.3c0-1.2,0.2-2.2,0.6-3.2c0.4-1,1-1.8,1.7-2.5c0.7-0.7,1.6-1.2,2.6-1.6s2-0.6,3.2-0.6c1.1,0,2.2,0.2,3.2,0.6
				c1,0.4,1.8,0.9,2.6,1.6c0.7,0.7,1.3,1.5,1.7,2.5c0.4,1,0.6,2,0.6,3.2s-0.2,2.3-0.6,3.2c-0.4,1-1,1.8-1.7,2.5
				c-0.7,0.7-1.6,1.2-2.6,1.6c-1,0.4-2,0.6-3.2,0.6c-1.1,0-2.2-0.2-3.2-0.6c-1-0.4-1.8-0.9-2.6-1.6c-0.7-0.7-1.3-1.5-1.7-2.5
				C18.3,253.6,18.1,252.5,18.1,251.3z M21.9,251.3c0,0.6,0.1,1.2,0.3,1.7c0.2,0.6,0.4,1.1,0.8,1.5c0.4,0.5,0.8,0.8,1.3,1.1
				c0.5,0.3,1.2,0.4,1.9,0.4s1.4-0.1,1.9-0.4c0.5-0.3,1-0.7,1.3-1.1c0.4-0.5,0.6-1,0.8-1.5c0.2-0.6,0.3-1.2,0.3-1.7
				s-0.1-1.2-0.3-1.7c-0.2-0.6-0.4-1.1-0.8-1.5c-0.4-0.5-0.8-0.8-1.3-1.1c-0.5-0.3-1.2-0.4-1.9-0.4s-1.4,0.1-1.9,0.4
				c-0.5,0.3-1,0.6-1.3,1.1c-0.4,0.5-0.6,1-0.8,1.5C22,250.2,21.9,250.8,21.9,251.3z"/>
			<path d="M55.7,243.5c1,0,1.8,0.2,2.5,0.5c0.7,0.3,1.3,0.8,1.7,1.3s0.8,1.2,1,1.9s0.3,1.5,0.3,2.2v9.3h-3.7v-8.2
				c0-0.4,0-0.9-0.1-1.4c-0.1-0.5-0.2-0.9-0.4-1.3c-0.2-0.4-0.5-0.7-0.9-0.9c-0.4-0.2-0.8-0.4-1.4-0.4c-0.6,0-1.1,0.1-1.5,0.4
				c-0.4,0.2-0.8,0.6-1,1s-0.5,0.8-0.6,1.3s-0.2,1-0.2,1.4v8.1h-3.7v-9c0-0.9-0.2-1.7-0.7-2.3s-1.1-0.9-2.1-0.9
				c-0.6,0-1,0.1-1.5,0.4c-0.4,0.2-0.7,0.5-1,0.9c-0.3,0.4-0.5,0.8-0.6,1.3s-0.2,1-0.2,1.5v8.2h-3.7V244h3.5v2.4h0.1
				c0.2-0.4,0.4-0.7,0.7-1.1c0.3-0.3,0.6-0.6,1-0.9c0.4-0.3,0.8-0.5,1.3-0.6c0.5-0.2,1-0.2,1.6-0.2c1.2,0,2.1,0.3,2.9,0.8
				c0.8,0.5,1.4,1.2,1.8,2c0.5-0.9,1.2-1.6,2-2.1C53.6,243.8,54.6,243.5,55.7,243.5z"/>
			<path d="M79.7,251.6c0,0.2,0,0.3,0,0.5s0,0.3,0,0.5H68.3c0,0.5,0.2,1,0.4,1.5c0.2,0.4,0.6,0.8,0.9,1.1c0.4,0.3,0.8,0.6,1.3,0.8
				c0.5,0.2,1,0.3,1.6,0.3c0.9,0,1.7-0.2,2.4-0.5c0.6-0.3,1.2-0.8,1.6-1.4l2.5,2c-1.5,2-3.6,3-6.4,3c-1.2,0-2.2-0.2-3.2-0.5
				c-1-0.4-1.8-0.9-2.5-1.5c-0.7-0.7-1.3-1.5-1.7-2.4c-0.4-1-0.6-2.1-0.6-3.3c0-1.2,0.2-2.3,0.6-3.3c0.4-1,1-1.8,1.7-2.5
				c0.7-0.7,1.5-1.2,2.5-1.6s2-0.6,3.1-0.6c1,0,2,0.2,2.9,0.5c0.9,0.3,1.6,0.8,2.3,1.5s1.1,1.5,1.5,2.5
				C79.5,249.1,79.7,250.2,79.7,251.6z M76,249.9c0-0.5-0.1-0.9-0.2-1.4s-0.3-0.8-0.6-1.1c-0.3-0.3-0.7-0.6-1.1-0.8
				c-0.4-0.2-1-0.3-1.6-0.3c-1.1,0-2.1,0.3-2.8,1c-0.8,0.7-1.2,1.5-1.3,2.6H76z"/>
			<path d="M91.6,246.9h-2.8v-3h2.8v-2.2c0-0.9,0.1-1.7,0.3-2.6c0.2-0.8,0.5-1.5,1-2.2s1.1-1.1,1.8-1.5c0.8-0.4,1.7-0.5,2.9-0.5
				c0.4,0,0.8,0,1,0s0.6,0.1,0.9,0.2l-0.2,3.2c-0.2-0.1-0.4-0.1-0.7-0.2c-0.2,0-0.5-0.1-0.8-0.1c-0.5,0-1,0.1-1.3,0.3
				c-0.3,0.2-0.6,0.5-0.8,0.8c-0.2,0.3-0.3,0.7-0.4,1.1s-0.1,0.8-0.1,1.1v2.4h3.4v3h-3.4v11.9h-3.7V246.9z"/>
			<path d="M114.7,258.8h-3.5v-2.4h-0.1c-0.3,0.7-0.9,1.4-1.7,2c-0.8,0.6-1.8,0.9-2.9,0.9c-1,0-1.8-0.2-2.5-0.5
				c-0.7-0.3-1.3-0.8-1.7-1.3c-0.4-0.6-0.8-1.2-1-1.9c-0.2-0.7-0.3-1.5-0.3-2.2V244h3.7v8.2c0,0.4,0,0.9,0.1,1.4
				c0.1,0.5,0.2,0.9,0.4,1.3c0.2,0.4,0.5,0.7,0.9,0.9s0.8,0.4,1.4,0.4c0.6,0,1.1-0.1,1.5-0.4s0.8-0.5,1.1-0.9
				c0.3-0.4,0.5-0.8,0.6-1.3c0.1-0.5,0.2-1,0.2-1.5V244h3.7V258.8z"/>
			<path d="M119.1,244h3.5v2.4h0.1c0.3-0.7,0.9-1.4,1.7-2s1.8-0.9,2.9-0.9c1,0,1.8,0.2,2.5,0.5c0.7,0.3,1.3,0.8,1.7,1.3
				c0.4,0.6,0.8,1.2,1,1.9c0.2,0.7,0.3,1.5,0.3,2.2v9.3h-3.7v-8.2c0-0.4,0-0.9-0.1-1.4c-0.1-0.5-0.2-0.9-0.4-1.3s-0.5-0.7-0.9-0.9
				c-0.4-0.2-0.8-0.4-1.4-0.4c-0.6,0-1.1,0.1-1.5,0.4c-0.4,0.2-0.8,0.5-1.1,0.9c-0.3,0.4-0.5,0.8-0.6,1.3s-0.2,1-0.2,1.5v8.2h-3.7
				V244z"/>
			<path d="M154.2,256.9L154.2,256.9c-0.5,0.7-1.1,1.2-1.9,1.6c-0.8,0.4-1.8,0.6-2.8,0.6c-0.6,0-1.2-0.1-1.9-0.2
				c-0.7-0.2-1.3-0.4-1.8-0.8c-0.5-0.4-1-0.8-1.4-1.4c-0.4-0.6-0.5-1.3-0.5-2.2c0-1.1,0.3-2,0.9-2.7c0.6-0.7,1.4-1.2,2.4-1.5
				c1-0.4,2.1-0.6,3.3-0.7s2.4-0.2,3.5-0.2v-0.4c0-0.9-0.3-1.6-1-2.1c-0.7-0.4-1.5-0.7-2.4-0.7c-0.8,0-1.5,0.2-2.3,0.5
				c-0.7,0.3-1.3,0.7-1.8,1.2l-1.9-2.3c0.8-0.8,1.8-1.4,2.9-1.8s2.2-0.6,3.4-0.6c1.3,0,2.4,0.2,3.3,0.6c0.9,0.4,1.5,0.9,2,1.5
				s0.8,1.3,1,2c0.2,0.7,0.3,1.5,0.3,2.2v9.1h-3.5V256.9z M154.1,252h-0.8c-0.6,0-1.2,0-1.9,0.1c-0.7,0.1-1.3,0.2-1.8,0.3
				c-0.6,0.2-1,0.4-1.4,0.7c-0.4,0.3-0.6,0.8-0.6,1.3c0,0.4,0.1,0.6,0.2,0.9c0.2,0.2,0.4,0.4,0.6,0.6s0.5,0.2,0.8,0.3
				c0.3,0.1,0.6,0.1,0.9,0.1c1.3,0,2.3-0.3,2.9-1c0.7-0.7,1-1.6,1-2.8V252z"/>
			<path d="M162,235.4h3.7v23.4H162V235.4z"/>
			<path d="M169.4,251.3c0-1.2,0.2-2.2,0.6-3.2c0.4-1,1-1.8,1.7-2.5c0.7-0.7,1.6-1.2,2.6-1.6s2-0.6,3.2-0.6c1.1,0,2.2,0.2,3.2,0.6
				c1,0.4,1.8,0.9,2.6,1.6c0.7,0.7,1.3,1.5,1.7,2.5c0.4,1,0.6,2,0.6,3.2s-0.2,2.3-0.6,3.2c-0.4,1-1,1.8-1.7,2.5
				c-0.7,0.7-1.6,1.2-2.6,1.6c-1,0.4-2,0.6-3.2,0.6c-1.1,0-2.2-0.2-3.2-0.6c-1-0.4-1.8-0.9-2.6-1.6c-0.7-0.7-1.3-1.5-1.7-2.5
				C169.6,253.6,169.4,252.5,169.4,251.3z M173.2,251.3c0,0.6,0.1,1.2,0.3,1.7c0.2,0.6,0.4,1.1,0.8,1.5c0.4,0.5,0.8,0.8,1.3,1.1
				c0.5,0.3,1.2,0.4,1.9,0.4s1.4-0.1,1.9-0.4c0.5-0.3,1-0.7,1.3-1.1c0.4-0.5,0.6-1,0.8-1.5c0.2-0.6,0.3-1.2,0.3-1.7
				s-0.1-1.2-0.3-1.7c-0.2-0.6-0.4-1.1-0.8-1.5c-0.4-0.5-0.8-0.8-1.3-1.1c-0.5-0.3-1.2-0.4-1.9-0.4s-1.4,0.1-1.9,0.4
				c-0.5,0.3-1,0.6-1.3,1.1c-0.4,0.5-0.6,1-0.8,1.5C173.3,250.2,173.2,250.8,173.2,251.3z"/>
			<path d="M189.2,244h3.5v2.4h0.1c0.3-0.7,0.9-1.4,1.7-2s1.8-0.9,2.9-0.9c1,0,1.8,0.2,2.5,0.5c0.7,0.3,1.3,0.8,1.7,1.3
				c0.4,0.6,0.8,1.2,1,1.9c0.2,0.7,0.3,1.5,0.3,2.2v9.3h-3.7v-8.2c0-0.4,0-0.9-0.1-1.4c-0.1-0.5-0.2-0.9-0.4-1.3s-0.5-0.7-0.9-0.9
				c-0.4-0.2-0.8-0.4-1.4-0.4c-0.6,0-1.1,0.1-1.5,0.4c-0.4,0.2-0.8,0.5-1.1,0.9c-0.3,0.4-0.5,0.8-0.6,1.3s-0.2,1-0.2,1.5v8.2h-3.7
				V244z"/>
			<path d="M222.4,244v13.5c0,1.3-0.2,2.6-0.5,3.6s-0.8,2-1.5,2.8c-0.7,0.8-1.6,1.3-2.6,1.8c-1.1,0.4-2.3,0.6-3.8,0.6
				c-0.6,0-1.2-0.1-1.9-0.2c-0.7-0.1-1.3-0.3-2-0.5c-0.7-0.2-1.3-0.5-1.9-0.8c-0.6-0.3-1.1-0.7-1.6-1.1l2.1-2.9
				c0.7,0.7,1.5,1.2,2.4,1.6c0.9,0.4,1.8,0.5,2.8,0.5c0.9,0,1.6-0.1,2.2-0.4c0.6-0.3,1.1-0.6,1.5-1.1c0.4-0.5,0.6-1,0.8-1.6
				c0.2-0.6,0.2-1.3,0.2-2.1v-1.1h-0.1c-0.5,0.7-1.2,1.3-2.1,1.7c-0.8,0.4-1.8,0.6-2.8,0.6c-1.1,0-2.1-0.2-3-0.6
				c-0.9-0.4-1.7-1-2.3-1.7s-1.1-1.5-1.5-2.5c-0.4-0.9-0.5-1.9-0.5-3c0-1.1,0.2-2.1,0.5-3s0.8-1.8,1.5-2.5c0.6-0.7,1.4-1.3,2.3-1.7
				c0.9-0.4,1.9-0.6,3-0.6c1.1,0,2,0.2,2.9,0.7c0.9,0.4,1.6,1.1,2.2,2h0.1V244H222.4z M214.4,246.6c-0.7,0-1.3,0.1-1.8,0.4
				c-0.5,0.2-1,0.6-1.3,1c-0.4,0.4-0.6,0.9-0.8,1.5c-0.2,0.6-0.3,1.2-0.3,1.9c0,0.6,0.1,1.2,0.3,1.7c0.2,0.6,0.5,1.1,0.8,1.5
				c0.4,0.4,0.8,0.8,1.3,1.1c0.5,0.3,1.1,0.4,1.8,0.4c0.7,0,1.3-0.1,1.8-0.4c0.5-0.3,1-0.6,1.4-1c0.4-0.4,0.7-0.9,0.9-1.5
				c0.2-0.6,0.3-1.2,0.3-1.8c0-0.6-0.1-1.2-0.3-1.8c-0.2-0.6-0.5-1.1-0.9-1.5c-0.4-0.4-0.8-0.8-1.4-1
				C215.7,246.7,215.1,246.6,214.4,246.6z"/>
			<path d="M232.4,246.9v-3h2.6v-4.3h3.7v4.3h3.7v3h-3.7v6.9c0,0.7,0.1,1.2,0.4,1.6c0.2,0.4,0.8,0.7,1.6,0.7c0.2,0,0.5,0,0.8-0.1
				s0.5-0.1,0.8-0.2l0.1,2.9c-0.3,0.1-0.7,0.2-1.2,0.3c-0.5,0.1-0.9,0.1-1.3,0.1c-1,0-1.8-0.1-2.4-0.4c-0.6-0.3-1.1-0.7-1.5-1.1
				c-0.4-0.5-0.6-1-0.7-1.7c-0.1-0.6-0.2-1.3-0.2-2v-6.9H232.4z"/>
			<path d="M253.4,243.5c1,0,1.8,0.2,2.5,0.5c0.7,0.3,1.3,0.8,1.7,1.3s0.8,1.2,1,1.9c0.2,0.7,0.3,1.5,0.3,2.2v9.3h-3.7v-8.2
				c0-0.4,0-0.9-0.1-1.3c-0.1-0.5-0.2-0.9-0.4-1.3c-0.2-0.4-0.5-0.7-0.8-0.9s-0.8-0.4-1.4-0.4s-1.1,0.1-1.6,0.3
				c-0.4,0.2-0.8,0.5-1.1,0.9c-0.3,0.4-0.5,0.8-0.7,1.3c-0.1,0.5-0.2,1-0.2,1.5v8.1h-3.7v-23.4h3.7V246h0.1c0.1-0.3,0.4-0.6,0.6-0.9
				c0.3-0.3,0.6-0.6,1-0.8c0.4-0.2,0.8-0.4,1.3-0.6C252.3,243.6,252.8,243.5,253.4,243.5z"/>
			<path d="M277.4,251.6c0,0.2,0,0.3,0,0.5s0,0.3,0,0.5h-11.3c0,0.5,0.2,1,0.4,1.5c0.2,0.4,0.6,0.8,0.9,1.1s0.8,0.6,1.3,0.8
				c0.5,0.2,1,0.3,1.6,0.3c0.9,0,1.7-0.2,2.4-0.5c0.6-0.3,1.2-0.8,1.6-1.4l2.5,2c-1.5,2-3.6,3-6.4,3c-1.2,0-2.2-0.2-3.2-0.5
				c-1-0.4-1.8-0.9-2.5-1.5c-0.7-0.7-1.3-1.5-1.7-2.4c-0.4-1-0.6-2.1-0.6-3.3c0-1.2,0.2-2.3,0.6-3.3c0.4-1,1-1.8,1.7-2.5
				c0.7-0.7,1.5-1.2,2.5-1.6s2-0.6,3.1-0.6c1,0,2,0.2,2.9,0.5c0.9,0.3,1.6,0.8,2.3,1.5s1.1,1.5,1.5,2.5S277.4,250.2,277.4,251.6z
				 M273.7,249.9c0-0.5-0.1-0.9-0.2-1.4c-0.1-0.4-0.3-0.8-0.6-1.1c-0.3-0.3-0.7-0.6-1.1-0.8c-0.4-0.2-1-0.3-1.6-0.3
				c-1.1,0-2.1,0.3-2.8,1c-0.8,0.7-1.2,1.5-1.3,2.6H273.7z"/>
			<path d="M286.6,244h4l3.1,10.7h0.1L297,244h4l3.2,10.7h0.1l3.2-10.7h3.9l-5.1,14.9h-3.8l-3.4-10.4H299l-3.3,10.4h-3.8L286.6,244z
				"/>
			<path d="M322.9,256.9L322.9,256.9c-0.5,0.7-1.1,1.2-1.9,1.6c-0.8,0.4-1.8,0.6-2.8,0.6c-0.6,0-1.2-0.1-1.9-0.2
				c-0.7-0.2-1.2-0.4-1.8-0.8c-0.5-0.4-1-0.8-1.4-1.4c-0.4-0.6-0.5-1.3-0.5-2.2c0-1.1,0.3-2,0.9-2.7c0.6-0.7,1.4-1.2,2.4-1.5
				c1-0.4,2.1-0.6,3.3-0.7s2.4-0.2,3.5-0.2v-0.4c0-0.9-0.3-1.6-1-2.1c-0.7-0.4-1.5-0.7-2.4-0.7c-0.8,0-1.5,0.2-2.3,0.5
				c-0.7,0.3-1.3,0.7-1.8,1.2l-1.9-2.3c0.8-0.8,1.8-1.4,2.9-1.8s2.2-0.6,3.4-0.6c1.3,0,2.4,0.2,3.3,0.6c0.9,0.4,1.5,0.9,2,1.5
				s0.8,1.3,1,2c0.2,0.7,0.3,1.5,0.3,2.2v9.1h-3.5V256.9z M322.9,252H322c-0.6,0-1.2,0-1.9,0.1c-0.7,0.1-1.3,0.2-1.8,0.3
				c-0.6,0.2-1,0.4-1.4,0.7c-0.4,0.3-0.6,0.8-0.6,1.3c0,0.4,0.1,0.6,0.2,0.9c0.2,0.2,0.4,0.4,0.6,0.6s0.5,0.2,0.8,0.3
				c0.3,0.1,0.6,0.1,0.9,0.1c1.3,0,2.3-0.3,2.9-1c0.7-0.7,1-1.6,1-2.8V252z"/>
			<path d="M328.5,244h4.1l4.2,10.8h0.1l3.7-10.8h3.9l-7,18.1c-0.3,0.7-0.6,1.3-0.9,1.8c-0.3,0.5-0.7,1-1.1,1.3
				c-0.4,0.4-0.9,0.6-1.5,0.8c-0.6,0.2-1.3,0.3-2.1,0.3c-0.3,0-0.6,0-0.9,0s-0.6-0.1-1-0.2l0.3-3.2c0.2,0.1,0.5,0.1,0.7,0.2
				c0.2,0,0.5,0,0.7,0c0.4,0,0.7,0,1-0.1c0.3-0.1,0.5-0.2,0.7-0.4c0.2-0.2,0.4-0.4,0.5-0.7c0.1-0.3,0.3-0.6,0.5-1l0.7-1.9L328.5,244
				z"/>
			<path d="M344.8,256.7c0-0.7,0.2-1.2,0.7-1.7c0.5-0.5,1.1-0.7,1.8-0.7c0.7,0,1.2,0.2,1.7,0.7c0.5,0.5,0.7,1,0.7,1.7
				c0,0.7-0.2,1.2-0.7,1.7c-0.5,0.5-1.1,0.7-1.8,0.7c-0.3,0-0.6-0.1-0.9-0.2c-0.3-0.1-0.6-0.3-0.8-0.5c-0.2-0.2-0.4-0.5-0.5-0.7
				C344.9,257.3,344.8,257,344.8,256.7z"/>
		</g>
	</g>
</g>
<g id="Layer_1_copy">
	<g>
		<g>
			<path class="st0" d="M38.5,126h-8.6l-6.1-33h-0.1l-6.1,33H9.1L0.7,82.1h7.6l5.6,34.1h0.2l5.9-34.1h7.8l6.1,34.1h0.1l5.6-34.1h7.2
				L38.5,126z"/>
			<path class="st0" d="M56.2,112c0,1.2,0.1,2.4,0.4,3.5c0.2,1.1,0.6,2,1.1,2.9c0.5,0.8,1.1,1.4,1.7,1.9c0.7,0.5,1.5,0.7,2.4,0.7
				c1.3,0,2.3-0.4,3.1-1.2c0.8-0.8,1.4-1.8,1.8-2.9l5.1,3c-0.9,2.2-2.2,3.9-3.9,5.2c-1.7,1.3-3.8,2-6.4,2c-3.7,0-6.6-1.4-8.9-4.3
				c-2.2-2.9-3.3-7-3.3-12.5c0-2.5,0.3-4.8,0.9-6.9c0.6-2.1,1.4-3.9,2.5-5.4c1.1-1.5,2.3-2.6,3.8-3.4c1.5-0.8,3.1-1.2,4.9-1.2
				c2,0,3.8,0.4,5.2,1.2c1.4,0.8,2.6,2,3.5,3.4c0.9,1.4,1.5,3.1,2,5.1c0.4,1.9,0.6,4.1,0.6,6.3v2.7H56.2z M65.9,106.9
				c0-2.4-0.4-4.3-1.1-5.7C64,99.7,62.9,99,61.3,99c-0.9,0-1.7,0.3-2.3,0.8c-0.6,0.5-1.2,1.2-1.6,2c-0.4,0.8-0.7,1.7-0.9,2.6
				c-0.2,0.9-0.3,1.8-0.3,2.5H65.9z"/>
			<path class="st0" d="M78.9,126V79.1h7V126H78.9z"/>
			<path class="st0" d="M108.7,126.3c-1.2,0.5-2.6,0.8-4.2,0.8c-1.9,0-3.7-0.4-5.2-1.2c-1.5-0.8-2.7-2-3.7-3.5
				c-1-1.5-1.8-3.3-2.3-5.4c-0.5-2.1-0.8-4.3-0.8-6.8s0.3-4.8,0.8-6.8c0.5-2.1,1.3-3.8,2.3-5.3c1-1.5,2.3-2.6,3.7-3.4
				c1.5-0.8,3.2-1.2,5.1-1.2c1.7,0,3.2,0.3,4.4,0.9c1.2,0.6,2.2,1.2,2.9,1.9l-3.2,5.3c-0.5-0.5-1-0.9-1.6-1.2
				c-0.6-0.3-1.3-0.5-2.2-0.5c-1.7,0-3,1-3.9,2.9c-0.9,1.9-1.3,4.5-1.3,7.6c0,3.1,0.5,5.7,1.4,7.6c0.9,1.9,2.3,2.9,4.2,2.9
				c0.9,0,1.6-0.2,2.2-0.5c0.6-0.3,1.2-0.8,1.6-1.4l2.9,5.5C111,125,109.9,125.8,108.7,126.3z"/>
			<path class="st0" d="M138.7,110.3c0,2.5-0.3,4.8-0.8,6.8c-0.6,2.1-1.4,3.8-2.4,5.3c-1.1,1.5-2.3,2.6-3.8,3.4
				c-1.5,0.8-3.2,1.2-5.1,1.2c-1.9,0-3.6-0.4-5.1-1.2s-2.8-2-3.8-3.4c-1.1-1.5-1.9-3.2-2.4-5.3c-0.6-2.1-0.8-4.3-0.8-6.8
				c0-2.5,0.3-4.8,0.8-6.9c0.6-2.1,1.4-3.9,2.4-5.4c1-1.5,2.3-2.6,3.8-3.4c1.5-0.8,3.2-1.2,5.1-1.2c1.9,0,3.6,0.4,5.1,1.2
				c1.5,0.8,2.8,2,3.8,3.4c1.1,1.5,1.9,3.3,2.4,5.4C138.4,105.4,138.7,107.7,138.7,110.3z M131.7,110.2c0-1.5-0.1-2.9-0.3-4.2
				c-0.2-1.3-0.5-2.4-1-3.4c-0.4-1-1-1.7-1.6-2.3c-0.6-0.6-1.4-0.8-2.3-0.8c-0.9,0-1.7,0.3-2.3,0.8c-0.6,0.6-1.2,1.3-1.6,2.3
				c-0.4,1-0.7,2.1-0.9,3.4c-0.2,1.3-0.3,2.7-0.3,4.2c0,1.5,0.1,2.9,0.3,4.2c0.2,1.3,0.5,2.5,0.9,3.4c0.4,1,0.9,1.7,1.6,2.3
				c0.6,0.6,1.4,0.8,2.3,0.8c0.9,0,1.7-0.3,2.4-0.8c0.7-0.6,1.2-1.3,1.6-2.3c0.4-1,0.7-2.1,0.9-3.4
				C131.6,113.1,131.7,111.7,131.7,110.2z"/>
			<path class="st0" d="M155,95.1c1.3-1.2,3-1.8,5-1.8c1.1,0,2.1,0.2,2.9,0.5c0.8,0.3,1.5,0.8,2.1,1.3c0.6,0.6,1.1,1.2,1.5,2
				c0.4,0.7,0.7,1.5,0.9,2.3h0.1c0.2-0.7,0.6-1.5,1.1-2.2c0.5-0.7,1.1-1.4,1.7-2c0.7-0.6,1.5-1,2.4-1.4c0.9-0.4,1.9-0.5,3.1-0.5
				c1.7,0,3.1,0.4,4.2,1.1c1.1,0.7,1.9,1.7,2.4,2.9c0.6,1.2,1,2.6,1.2,4.1c0.2,1.5,0.3,3.1,0.3,4.7V126h-7v-19.8
				c0-0.8,0-1.6-0.1-2.4c-0.1-0.8-0.3-1.5-0.5-2.2c-0.3-0.7-0.7-1.2-1.2-1.6c-0.5-0.4-1.2-0.6-2-0.6c-1.6,0-2.8,0.8-3.8,2.4
				c-0.9,1.6-1.4,3.6-1.4,6V126h-6.9v-19.8c0-0.8,0-1.6-0.1-2.4c-0.1-0.8-0.3-1.5-0.5-2.2c-0.3-0.7-0.6-1.2-1.1-1.6
				c-0.5-0.4-1.1-0.6-2-0.6c-1.6,0-2.8,0.8-3.7,2.4c-0.9,1.6-1.3,3.5-1.3,5.9V126h-7V94.4h6.9v5h0.1C152.8,97.7,153.7,96.3,155,95.1
				z"/>
			<path class="st0" d="M197.2,112c0,1.2,0.1,2.4,0.4,3.5c0.2,1.1,0.6,2,1.1,2.9c0.5,0.8,1.1,1.4,1.7,1.9c0.7,0.5,1.5,0.7,2.4,0.7
				c1.3,0,2.3-0.4,3.1-1.2c0.8-0.8,1.4-1.8,1.8-2.9l5.1,3c-0.9,2.2-2.2,3.9-3.9,5.2c-1.7,1.3-3.8,2-6.4,2c-3.7,0-6.6-1.4-8.9-4.3
				c-2.2-2.9-3.3-7-3.3-12.5c0-2.5,0.3-4.8,0.9-6.9c0.6-2.1,1.4-3.9,2.5-5.4c1.1-1.5,2.3-2.6,3.8-3.4c1.5-0.8,3.1-1.2,4.9-1.2
				c2,0,3.8,0.4,5.2,1.2c1.4,0.8,2.6,2,3.5,3.4c0.9,1.4,1.5,3.1,2,5.1c0.4,1.9,0.6,4.1,0.6,6.3v2.7H197.2z M206.9,106.9
				c0-2.4-0.4-4.3-1.1-5.7c-0.7-1.5-1.9-2.2-3.5-2.2c-0.9,0-1.7,0.3-2.3,0.8c-0.6,0.5-1.2,1.2-1.6,2c-0.4,0.8-0.7,1.7-0.9,2.6
				c-0.2,0.9-0.3,1.8-0.3,2.5H206.9z"/>
			<path class="st0" d="M253.6,125.9c-1.8,0.7-4,1-6.6,1c-2.6,0-4.9-0.5-7-1.6c-2.1-1.1-3.8-2.7-5.2-4.7c-1.4-2-2.5-4.4-3.3-7.3
				c-0.8-2.8-1.1-5.9-1.1-9.4c0-3.3,0.4-6.4,1.1-9.2c0.7-2.8,1.8-5.2,3.2-7.3c1.4-2,3.1-3.6,5.1-4.8c2-1.1,4.2-1.7,6.7-1.7
				c2.6,0,4.9,0.5,6.8,1.4c1.9,0.9,3.5,2.2,4.7,3.9l-4.3,5.2c-1.7-2.4-3.9-3.6-6.7-3.6c-1.5,0-2.9,0.4-4,1.3c-1.1,0.9-2.1,2-2.8,3.5
				c-0.7,1.5-1.3,3.2-1.7,5.1c-0.4,1.9-0.6,4-0.6,6.1c0,2.2,0.2,4.3,0.6,6.3c0.4,2,0.9,3.7,1.7,5.1c0.7,1.5,1.7,2.6,2.8,3.4
				c1.1,0.8,2.5,1.2,4.1,1.2c1,0,1.9-0.1,2.7-0.3c0.8-0.2,1.5-0.5,2-0.9v-11.3h-5.3v-6.4h12.1v22.3
				C257,124.4,255.4,125.3,253.6,125.9z"/>
			<path class="st0" d="M275.7,95.1c1.2-1.2,2.5-1.8,4.1-1.8c0.2,0,0.4,0,0.5,0s0.3,0,0.5,0.1l-0.4,7.2c-0.5-0.1-1-0.2-1.5-0.2
				c-0.9,0-1.7,0.3-2.4,0.8c-0.7,0.6-1.3,1.3-1.8,2.2c-0.5,0.9-0.9,1.9-1.1,3.1c-0.2,1.2-0.4,2.3-0.4,3.5V126h-7.1V94.4h6.9v6.1h0.1
				C273.7,98.1,274.6,96.3,275.7,95.1z"/>
			<path class="st0" d="M289.7,112c0,1.2,0.1,2.4,0.4,3.5c0.2,1.1,0.6,2,1.1,2.9c0.5,0.8,1.1,1.4,1.7,1.9c0.7,0.5,1.5,0.7,2.4,0.7
				c1.3,0,2.3-0.4,3.1-1.2c0.8-0.8,1.4-1.8,1.8-2.9l5.1,3c-0.9,2.2-2.2,3.9-3.9,5.2c-1.7,1.3-3.8,2-6.4,2c-3.7,0-6.6-1.4-8.9-4.3
				c-2.2-2.9-3.3-7-3.3-12.5c0-2.5,0.3-4.8,0.9-6.9c0.6-2.1,1.4-3.9,2.5-5.4c1.1-1.5,2.3-2.6,3.8-3.4c1.5-0.8,3.1-1.2,4.9-1.2
				c2,0,3.8,0.4,5.2,1.2c1.4,0.8,2.6,2,3.5,3.4c0.9,1.4,1.5,3.1,2,5.1c0.4,1.9,0.6,4.1,0.6,6.3v2.7H289.7z M299.5,106.9
				c0-2.4-0.4-4.3-1.1-5.7c-0.7-1.5-1.9-2.2-3.5-2.2c-0.9,0-1.7,0.3-2.3,0.8c-0.6,0.5-1.2,1.2-1.6,2s-0.7,1.7-0.9,2.6
				c-0.2,0.9-0.3,1.8-0.3,2.5H299.5z"/>
			<path class="st0" d="M317.5,112c0,1.2,0.1,2.4,0.4,3.5c0.2,1.1,0.6,2,1.1,2.9c0.5,0.8,1.1,1.4,1.7,1.9c0.7,0.5,1.5,0.7,2.4,0.7
				c1.3,0,2.3-0.4,3.1-1.2c0.8-0.8,1.4-1.8,1.8-2.9l5.1,3c-0.9,2.2-2.2,3.9-3.9,5.2c-1.7,1.3-3.8,2-6.4,2c-3.7,0-6.6-1.4-8.9-4.3
				c-2.2-2.9-3.3-7-3.3-12.5c0-2.5,0.3-4.8,0.9-6.9c0.6-2.1,1.4-3.9,2.5-5.4c1.1-1.5,2.3-2.6,3.8-3.4c1.5-0.8,3.1-1.2,4.9-1.2
				c2,0,3.8,0.4,5.2,1.2c1.4,0.8,2.6,2,3.5,3.4c0.9,1.4,1.5,3.1,2,5.1c0.4,1.9,0.6,4.1,0.6,6.3v2.7H317.5z M327.2,106.9
				c0-2.4-0.4-4.3-1.1-5.7c-0.7-1.5-1.9-2.2-3.5-2.2c-0.9,0-1.7,0.3-2.3,0.8c-0.6,0.5-1.2,1.2-1.6,2s-0.7,1.7-0.9,2.6
				s-0.3,1.8-0.3,2.5H327.2z"/>
			<path class="st0" d="M347.3,94.4v5h0.1c0.6-1.7,1.5-3.1,2.9-4.3c1.3-1.2,3-1.8,5-1.8c1.7,0,3.1,0.4,4.2,1.1
				c1.1,0.7,1.9,1.7,2.4,2.9c0.6,1.2,1,2.6,1.2,4.1c0.2,1.5,0.3,3.1,0.3,4.7V126h-7v-19.8c0-0.8,0-1.6-0.1-2.4
				c-0.1-0.8-0.3-1.5-0.5-2.2c-0.3-0.7-0.7-1.2-1.2-1.6c-0.5-0.4-1.2-0.6-2-0.6c-1.6,0-2.8,0.8-3.8,2.4c-0.9,1.6-1.4,3.6-1.4,6V126
				h-7V94.4H347.3z"/>
			<path class="st0" d="M376.6,112c0,1.2,0.1,2.4,0.4,3.5c0.2,1.1,0.6,2,1.1,2.9c0.5,0.8,1.1,1.4,1.7,1.9c0.7,0.5,1.5,0.7,2.4,0.7
				c1.3,0,2.3-0.4,3.1-1.2c0.8-0.8,1.4-1.8,1.8-2.9l5.1,3c-0.9,2.2-2.2,3.9-3.9,5.2c-1.7,1.3-3.8,2-6.4,2c-3.7,0-6.6-1.4-8.9-4.3
				c-2.2-2.9-3.3-7-3.3-12.5c0-2.5,0.3-4.8,0.9-6.9c0.6-2.1,1.4-3.9,2.5-5.4c1.1-1.5,2.3-2.6,3.8-3.4c1.5-0.8,3.1-1.2,4.9-1.2
				c2,0,3.8,0.4,5.2,1.2c1.4,0.8,2.6,2,3.5,3.4c0.9,1.4,1.5,3.1,2,5.1c0.4,1.9,0.6,4.1,0.6,6.3v2.7H376.6z M386.3,106.9
				c0-2.4-0.4-4.3-1.1-5.7c-0.7-1.5-1.9-2.2-3.5-2.2c-0.9,0-1.7,0.3-2.3,0.8c-0.6,0.5-1.2,1.2-1.5,2c-0.4,0.8-0.7,1.7-0.9,2.6
				c-0.2,0.9-0.3,1.8-0.3,2.5H386.3z"/>
			<path class="st0" d="M409,95.1c1.2-1.2,2.5-1.8,4.1-1.8c0.2,0,0.4,0,0.5,0c0.1,0,0.3,0,0.5,0.1l-0.4,7.2c-0.5-0.1-1-0.2-1.5-0.2
				c-0.9,0-1.7,0.3-2.4,0.8c-0.7,0.6-1.3,1.3-1.8,2.2c-0.5,0.9-0.9,1.9-1.1,3.1c-0.2,1.2-0.4,2.3-0.4,3.5V126h-7.1V94.4h6.9v6.1h0.1
				C407,98.1,407.9,96.3,409,95.1z"/>
			<path class="st0" d="M431.8,101.5c-0.6-0.8-1.3-1.4-2.2-1.9s-1.9-0.7-3-0.7c-1,0-1.9,0.4-2.6,1.1c-0.7,0.7-1.1,1.7-1.1,2.9
				c0,1.2,0.4,2.1,1.1,2.7c0.7,0.6,1.9,1.1,3.5,1.7c0.9,0.3,1.8,0.7,2.7,1.2c0.9,0.5,1.7,1.1,2.4,1.8c0.7,0.7,1.3,1.6,1.7,2.7
				c0.4,1.1,0.7,2.3,0.7,3.8c0,1.7-0.3,3.3-0.8,4.6c-0.6,1.3-1.3,2.4-2.3,3.3c-1,0.9-2,1.5-3.3,1.9c-1.2,0.4-2.5,0.6-3.8,0.6
				c-2,0-3.8-0.4-5.5-1.2c-1.7-0.8-3.2-1.8-4.4-3.2l3.8-4.5c0.7,0.9,1.6,1.6,2.6,2.2c1,0.6,2.1,0.9,3.5,0.9c1.2,0,2.1-0.4,2.7-1.2
				c0.7-0.8,1-1.8,1-3.1c0-1.5-0.5-2.6-1.5-3.2c-1-0.7-2.3-1.3-3.9-1.9c-0.8-0.3-1.6-0.6-2.4-1.1c-0.8-0.4-1.5-1-2.2-1.7
				c-0.7-0.7-1.2-1.6-1.6-2.6c-0.4-1-0.6-2.2-0.6-3.7c0-1.5,0.3-2.9,0.8-4.1c0.6-1.2,1.3-2.2,2.2-3.1c0.9-0.8,2-1.5,3.2-1.9
				c1.2-0.4,2.4-0.7,3.7-0.7c1.9,0,3.6,0.3,5.1,1c1.5,0.7,2.8,1.6,3.9,2.6L431.8,101.5z"/>
			<path class="st0" d="M451.1,122c0,1.3-0.4,2.4-1.2,3.2c-0.8,0.9-1.8,1.3-3,1.3c-1.2,0-2.3-0.4-3-1.3c-0.8-0.9-1.2-1.9-1.2-3.2
				c0-1.2,0.4-2.3,1.2-3.2c0.8-0.9,1.8-1.4,3-1.4c1.2,0,2.2,0.5,3,1.4C450.7,119.7,451.1,120.8,451.1,122z M443.3,111.9V82.1h7.1
				v29.8H443.3z"/>
		</g>
		<g>
			<path class="st0" d="M2.4,159.5h3.9v21.9H2.4V159.5z"/>
			<path class="st0" d="M8.8,169.5v-3h2.6v-4.3h3.7v4.3h3.7v3h-3.7v6.9c0,0.7,0.1,1.2,0.4,1.6c0.2,0.4,0.8,0.7,1.6,0.7
				c0.2,0,0.5,0,0.8-0.1c0.3-0.1,0.5-0.1,0.8-0.2l0.1,2.9c-0.3,0.1-0.7,0.2-1.2,0.3c-0.5,0.1-0.9,0.1-1.3,0.1c-1,0-1.8-0.1-2.4-0.4
				c-0.6-0.3-1.1-0.7-1.5-1.1c-0.4-0.5-0.6-1-0.7-1.7c-0.1-0.6-0.2-1.3-0.2-2v-6.9H8.8z"/>
			<path class="st0" d="M23.5,159.5h3.6l-2.6,8.2h-3.1L23.5,159.5z"/>
			<path class="st0" d="M37.3,170.5c-0.3-0.4-0.8-0.8-1.4-1.1c-0.6-0.3-1.2-0.5-1.9-0.5c-0.6,0-1.1,0.1-1.6,0.4
				c-0.5,0.2-0.7,0.7-0.7,1.2c0,0.6,0.3,1,0.8,1.2c0.5,0.2,1.3,0.5,2.4,0.7c0.6,0.1,1.1,0.3,1.7,0.5c0.6,0.2,1.1,0.5,1.5,0.8
				c0.5,0.3,0.8,0.8,1.1,1.3c0.3,0.5,0.4,1.1,0.4,1.8c0,0.9-0.2,1.7-0.5,2.3c-0.3,0.6-0.8,1.1-1.4,1.5c-0.6,0.4-1.2,0.7-2,0.9
				c-0.8,0.2-1.5,0.3-2.3,0.3c-1.2,0-2.3-0.2-3.4-0.6c-1.1-0.4-2-1-2.7-1.8l2.4-2.3c0.4,0.5,1,1,1.6,1.3c0.7,0.4,1.4,0.5,2.2,0.5
				c0.3,0,0.5,0,0.8-0.1c0.3-0.1,0.5-0.2,0.8-0.3c0.2-0.1,0.4-0.3,0.6-0.5c0.1-0.2,0.2-0.5,0.2-0.8c0-0.6-0.3-1.1-0.9-1.3
				c-0.6-0.3-1.4-0.5-2.6-0.8c-0.6-0.1-1.1-0.3-1.6-0.5c-0.5-0.2-1-0.5-1.4-0.8c-0.4-0.3-0.7-0.7-1-1.2s-0.4-1.1-0.4-1.8
				c0-0.8,0.2-1.5,0.5-2.1s0.8-1.1,1.3-1.5s1.2-0.7,1.9-0.9c0.7-0.2,1.4-0.3,2.2-0.3c1.1,0,2.1,0.2,3.1,0.6c1,0.4,1.8,0.9,2.4,1.7
				L37.3,170.5z"/>
			<path class="st0" d="M49.8,170.4c0-1.8,0.3-3.3,0.9-4.8s1.4-2.6,2.4-3.6c1-1,2.3-1.8,3.7-2.3c1.4-0.5,3-0.8,4.7-0.8
				c1.7,0,3.3,0.3,4.7,0.8c1.4,0.5,2.7,1.3,3.8,2.3c1.1,1,1.9,2.2,2.5,3.6c0.6,1.4,0.9,3,0.9,4.8c0,1.7-0.3,3.3-0.9,4.7
				c-0.6,1.4-1.4,2.6-2.5,3.7c-1.1,1-2.3,1.8-3.8,2.4c-1.4,0.6-3,0.9-4.7,0.9c-1.7,0-3.3-0.3-4.7-0.9c-1.4-0.6-2.7-1.4-3.7-2.4
				c-1-1-1.9-2.2-2.4-3.7S49.8,172.1,49.8,170.4z M54,170.4c0,1.2,0.2,2.3,0.5,3.2c0.4,1,0.9,1.8,1.6,2.6c0.7,0.7,1.5,1.3,2.4,1.7
				c0.9,0.4,1.9,0.6,3.1,0.6c1.1,0,2.1-0.2,3.1-0.6c0.9-0.4,1.7-1,2.4-1.7c0.7-0.7,1.2-1.6,1.5-2.6c0.4-1,0.5-2.1,0.5-3.2
				c0-1.1-0.2-2.2-0.5-3.2c-0.4-1-0.9-1.8-1.5-2.5c-0.7-0.7-1.5-1.3-2.4-1.7c-0.9-0.4-2-0.6-3.1-0.6c-1.1,0-2.2,0.2-3.1,0.6
				c-0.9,0.4-1.7,1-2.4,1.7c-0.7,0.7-1.2,1.6-1.5,2.5C54.2,168.2,54,169.3,54,170.4z"/>
			<path class="st0" d="M83.4,175.4H76v-3.2h7.4V175.4z"/>
			<path class="st0" d="M84.5,159.5h4.3l4.2,16.1h0.1l4.8-16.1h4l4.7,16.1h0.1l4.3-16.1h4.2l-6.4,21.9H105L99.9,165h-0.1l-5.1,16.5
				h-3.8L84.5,159.5z"/>
			<path class="st0" d="M130.7,174.2c0,0.2,0,0.3,0,0.5c0,0.2,0,0.3,0,0.5h-11.3c0,0.5,0.2,1,0.4,1.5c0.2,0.4,0.6,0.8,0.9,1.1
				c0.4,0.3,0.8,0.6,1.3,0.8c0.5,0.2,1,0.3,1.6,0.3c0.9,0,1.7-0.2,2.4-0.5c0.6-0.3,1.2-0.8,1.6-1.4l2.5,2c-1.5,2-3.6,3-6.4,3
				c-1.2,0-2.2-0.2-3.2-0.5c-1-0.4-1.8-0.9-2.5-1.5c-0.7-0.7-1.3-1.5-1.7-2.4c-0.4-1-0.6-2.1-0.6-3.3c0-1.2,0.2-2.3,0.6-3.3
				c0.4-1,1-1.8,1.7-2.5c0.7-0.7,1.5-1.2,2.5-1.6c1-0.4,2-0.6,3.1-0.6c1,0,2,0.2,2.9,0.5c0.9,0.3,1.6,0.8,2.3,1.5s1.1,1.5,1.5,2.5
				C130.5,171.7,130.7,172.8,130.7,174.2z M127,172.5c0-0.5-0.1-0.9-0.2-1.4c-0.1-0.4-0.3-0.8-0.6-1.1c-0.3-0.3-0.7-0.6-1.1-0.8
				c-0.4-0.2-1-0.3-1.6-0.3c-1.1,0-2.1,0.3-2.8,1s-1.2,1.5-1.3,2.6H127z"/>
			<path class="st0" d="M148.5,174.2c0,0.2,0,0.3,0,0.5c0,0.2,0,0.3,0,0.5h-11.3c0,0.5,0.2,1,0.4,1.5c0.2,0.4,0.6,0.8,0.9,1.1
				c0.4,0.3,0.8,0.6,1.3,0.8c0.5,0.2,1,0.3,1.6,0.3c0.9,0,1.7-0.2,2.4-0.5c0.6-0.3,1.2-0.8,1.6-1.4l2.5,2c-1.5,2-3.6,3-6.4,3
				c-1.2,0-2.2-0.2-3.2-0.5c-1-0.4-1.8-0.9-2.5-1.5c-0.7-0.7-1.3-1.5-1.7-2.4c-0.4-1-0.6-2.1-0.6-3.3c0-1.2,0.2-2.3,0.6-3.3
				c0.4-1,1-1.8,1.7-2.5c0.7-0.7,1.5-1.2,2.5-1.6c1-0.4,2-0.6,3.1-0.6c1,0,2,0.2,2.9,0.5c0.9,0.3,1.6,0.8,2.3,1.5s1.1,1.5,1.5,2.5
				C148.3,171.7,148.5,172.8,148.5,174.2z M144.8,172.5c0-0.5-0.1-0.9-0.2-1.4c-0.1-0.4-0.3-0.8-0.6-1.1c-0.3-0.3-0.7-0.6-1.1-0.8
				c-0.4-0.2-1-0.3-1.6-0.3c-1.1,0-2.1,0.3-2.8,1s-1.2,1.5-1.3,2.6H144.8z"/>
			<path class="st0" d="M152.2,158h3.7v14.8h0.1l5.6-6.3h4.8l-6.4,6.7l6.9,8.2h-4.9l-5.9-7.6h-0.1v7.6h-3.7V158z"/>
			<path class="st0" d="M168.3,179.3c0-0.7,0.2-1.2,0.7-1.7c0.5-0.5,1.1-0.7,1.8-0.7c0.7,0,1.2,0.2,1.7,0.7s0.7,1,0.7,1.7
				s-0.2,1.2-0.7,1.7c-0.5,0.5-1.1,0.7-1.8,0.7c-0.3,0-0.6-0.1-0.9-0.2c-0.3-0.1-0.6-0.3-0.8-0.5c-0.2-0.2-0.4-0.5-0.5-0.7
				C168.3,179.9,168.3,179.6,168.3,179.3z"/>
			<path class="st0" d="M184,159.5h3.9V178h9.3v3.5H184V159.5z"/>
			<path class="st0" d="M213.3,174.2c0,0.2,0,0.3,0,0.5c0,0.2,0,0.3,0,0.5H202c0,0.5,0.2,1,0.4,1.5c0.2,0.4,0.6,0.8,0.9,1.1
				c0.4,0.3,0.8,0.6,1.3,0.8c0.5,0.2,1,0.3,1.6,0.3c0.9,0,1.7-0.2,2.4-0.5c0.6-0.3,1.2-0.8,1.6-1.4l2.5,2c-1.5,2-3.6,3-6.4,3
				c-1.2,0-2.2-0.2-3.2-0.5c-1-0.4-1.8-0.9-2.5-1.5c-0.7-0.7-1.3-1.5-1.7-2.4c-0.4-1-0.6-2.1-0.6-3.3c0-1.2,0.2-2.3,0.6-3.3
				c0.4-1,1-1.8,1.7-2.5c0.7-0.7,1.5-1.2,2.5-1.6c1-0.4,2-0.6,3.1-0.6c1,0,2,0.2,2.9,0.5c0.9,0.3,1.6,0.8,2.3,1.5s1.1,1.5,1.5,2.5
				C213.1,171.7,213.3,172.8,213.3,174.2z M209.6,172.5c0-0.5-0.1-0.9-0.2-1.4c-0.1-0.4-0.3-0.8-0.6-1.1c-0.3-0.3-0.7-0.6-1.1-0.8
				c-0.4-0.2-1-0.3-1.6-0.3c-1.1,0-2.1,0.3-2.8,1s-1.2,1.5-1.3,2.6H209.6z"/>
			<path class="st0" d="M226,179.5L226,179.5c-0.5,0.7-1.1,1.2-1.9,1.6c-0.8,0.4-1.8,0.6-2.8,0.6c-0.6,0-1.2-0.1-1.9-0.2
				c-0.7-0.2-1.3-0.4-1.8-0.8c-0.5-0.4-1-0.8-1.4-1.4c-0.4-0.6-0.5-1.3-0.5-2.2c0-1.1,0.3-2,0.9-2.7c0.6-0.7,1.4-1.2,2.4-1.5
				c1-0.4,2.1-0.6,3.3-0.7s2.4-0.2,3.5-0.2v-0.4c0-0.9-0.3-1.6-1-2.1c-0.7-0.4-1.5-0.7-2.4-0.7c-0.8,0-1.5,0.2-2.3,0.5
				c-0.7,0.3-1.3,0.7-1.8,1.2l-1.9-2.3c0.8-0.8,1.8-1.4,2.9-1.8s2.2-0.6,3.4-0.6c1.3,0,2.4,0.2,3.3,0.6c0.9,0.4,1.5,0.9,2,1.5
				c0.5,0.6,0.8,1.3,1,2c0.2,0.7,0.3,1.5,0.3,2.2v9.1H226V179.5z M225.9,174.6h-0.8c-0.6,0-1.2,0-1.9,0.1c-0.7,0.1-1.3,0.2-1.8,0.3
				c-0.6,0.2-1,0.4-1.4,0.7c-0.4,0.3-0.6,0.8-0.6,1.3c0,0.4,0.1,0.6,0.2,0.9c0.2,0.2,0.4,0.4,0.6,0.6s0.5,0.2,0.8,0.3
				c0.3,0.1,0.6,0.1,0.9,0.1c1.3,0,2.3-0.3,2.9-1c0.7-0.7,1-1.6,1-2.8V174.6z"/>
			<path class="st0" d="M233.8,166.6h3.6v2.5h0.1c0.4-0.9,1-1.6,1.7-2.1c0.7-0.5,1.6-0.8,2.6-0.8c0.1,0,0.3,0,0.5,0
				c0.2,0,0.3,0,0.4,0.1v3.4c-0.2-0.1-0.5-0.1-0.6-0.1c-0.2,0-0.3,0-0.5,0c-0.8,0-1.5,0.2-2,0.5c-0.5,0.3-0.9,0.7-1.2,1.1
				s-0.5,0.9-0.6,1.3c-0.1,0.5-0.2,0.8-0.2,1.1v8h-3.7V166.6z"/>
			<path class="st0" d="M245.1,166.6h3.5v2.4h0.1c0.3-0.7,0.9-1.4,1.7-2s1.8-0.9,2.9-0.9c1,0,1.8,0.2,2.5,0.5
				c0.7,0.3,1.3,0.8,1.7,1.3c0.4,0.6,0.8,1.2,1,1.9c0.2,0.7,0.3,1.5,0.3,2.2v9.3H255v-8.2c0-0.4,0-0.9-0.1-1.4
				c-0.1-0.5-0.2-0.9-0.4-1.3c-0.2-0.4-0.5-0.7-0.9-0.9c-0.4-0.2-0.8-0.4-1.4-0.4s-1.1,0.1-1.5,0.4c-0.4,0.2-0.8,0.5-1.1,0.9
				s-0.5,0.8-0.6,1.3c-0.1,0.5-0.2,1-0.2,1.5v8.2h-3.7V166.6z"/>
			<path class="st0" d="M279.1,166.1c1,0,1.8,0.2,2.5,0.5c0.7,0.3,1.3,0.8,1.7,1.3c0.4,0.6,0.8,1.2,1,1.9c0.2,0.7,0.3,1.5,0.3,2.2
				v9.3h-3.7v-8.2c0-0.4,0-0.9-0.1-1.3c-0.1-0.5-0.2-0.9-0.4-1.3c-0.2-0.4-0.5-0.7-0.8-0.9s-0.8-0.4-1.4-0.4s-1.1,0.1-1.5,0.3
				c-0.4,0.2-0.8,0.5-1.1,0.9c-0.3,0.4-0.5,0.8-0.7,1.3c-0.1,0.5-0.2,1-0.2,1.5v8.1h-3.7V158h3.7v10.6h0.1c0.1-0.3,0.4-0.6,0.6-0.9
				c0.3-0.3,0.6-0.6,1-0.8c0.4-0.2,0.8-0.4,1.3-0.6C278,166.2,278.6,166.1,279.1,166.1z"/>
			<path class="st0" d="M288.1,173.9c0-1.2,0.2-2.2,0.6-3.2c0.4-1,1-1.8,1.7-2.5c0.7-0.7,1.6-1.2,2.6-1.6c1-0.4,2-0.6,3.2-0.6
				c1.1,0,2.2,0.2,3.2,0.6c1,0.4,1.8,0.9,2.6,1.6c0.7,0.7,1.3,1.5,1.7,2.5s0.6,2,0.6,3.2s-0.2,2.3-0.6,3.2c-0.4,1-1,1.8-1.7,2.5
				c-0.7,0.7-1.6,1.2-2.6,1.6c-1,0.4-2,0.6-3.2,0.6c-1.1,0-2.2-0.2-3.2-0.6s-1.8-0.9-2.6-1.6s-1.3-1.5-1.7-2.5
				C288.3,176.2,288.1,175.1,288.1,173.9z M291.9,173.9c0,0.6,0.1,1.2,0.3,1.7c0.2,0.6,0.4,1.1,0.8,1.6c0.4,0.5,0.8,0.8,1.3,1.1
				c0.5,0.3,1.2,0.4,1.9,0.4s1.4-0.1,1.9-0.4c0.5-0.3,1-0.7,1.3-1.1c0.4-0.5,0.6-1,0.8-1.6c0.2-0.6,0.3-1.2,0.3-1.7
				c0-0.6-0.1-1.2-0.3-1.7c-0.2-0.6-0.4-1.1-0.8-1.5c-0.4-0.5-0.8-0.8-1.3-1.1c-0.5-0.3-1.2-0.4-1.9-0.4s-1.4,0.1-1.9,0.4
				c-0.5,0.3-1,0.6-1.3,1.1c-0.4,0.5-0.6,1-0.8,1.5C292,172.8,291.9,173.4,291.9,173.9z"/>
			<path class="st0" d="M305.8,166.6h4l3.1,10.7h0.1l3.2-10.7h4l3.2,10.7h0.1l3.2-10.7h3.9l-5.1,14.9h-3.8l-3.4-10.4h-0.1l-3.3,10.4
				h-3.8L305.8,166.6z"/>
			<path class="st0" d="M338.4,169.5v-3h2.6v-4.3h3.7v4.3h3.7v3h-3.7v6.9c0,0.7,0.1,1.2,0.4,1.6c0.2,0.4,0.8,0.7,1.6,0.7
				c0.2,0,0.5,0,0.8-0.1c0.3-0.1,0.5-0.1,0.8-0.2l0.1,2.9c-0.3,0.1-0.7,0.2-1.2,0.3c-0.5,0.1-0.9,0.1-1.3,0.1c-1,0-1.8-0.1-2.4-0.4
				c-0.6-0.3-1.1-0.7-1.5-1.1c-0.4-0.5-0.6-1-0.7-1.7c-0.1-0.6-0.2-1.3-0.2-2v-6.9H338.4z"/>
			<path class="st0" d="M350.2,173.9c0-1.2,0.2-2.2,0.6-3.2s1-1.8,1.7-2.5c0.7-0.7,1.6-1.2,2.6-1.6c1-0.4,2-0.6,3.2-0.6
				s2.2,0.2,3.2,0.6c1,0.4,1.8,0.9,2.6,1.6c0.7,0.7,1.3,1.5,1.7,2.5s0.6,2,0.6,3.2s-0.2,2.3-0.6,3.2c-0.4,1-1,1.8-1.7,2.5
				c-0.7,0.7-1.6,1.2-2.6,1.6s-2,0.6-3.2,0.6s-2.2-0.2-3.2-0.6s-1.8-0.9-2.6-1.6s-1.3-1.5-1.7-2.5
				C350.4,176.2,350.2,175.1,350.2,173.9z M354,173.9c0,0.6,0.1,1.2,0.3,1.7c0.2,0.6,0.4,1.1,0.8,1.6c0.4,0.5,0.8,0.8,1.3,1.1
				c0.5,0.3,1.2,0.4,1.9,0.4s1.4-0.1,1.9-0.4c0.5-0.3,1-0.7,1.3-1.1c0.4-0.5,0.6-1,0.8-1.6c0.2-0.6,0.3-1.2,0.3-1.7
				c0-0.6-0.1-1.2-0.3-1.7c-0.2-0.6-0.4-1.1-0.8-1.5c-0.4-0.5-0.8-0.8-1.3-1.1c-0.5-0.3-1.2-0.4-1.9-0.4s-1.4,0.1-1.9,0.4
				c-0.5,0.3-1,0.6-1.3,1.1c-0.4,0.5-0.6,1-0.8,1.5C354.1,172.8,354,173.4,354,173.9z"/>
			<path class="st0" d="M10.4,207.7c-0.3-0.4-0.8-0.8-1.4-1.1c-0.6-0.3-1.2-0.5-1.9-0.5c-0.6,0-1.1,0.1-1.6,0.4
				c-0.5,0.2-0.7,0.7-0.7,1.2c0,0.6,0.3,1,0.8,1.2c0.5,0.2,1.3,0.5,2.4,0.7c0.6,0.1,1.1,0.3,1.7,0.5c0.6,0.2,1.1,0.5,1.5,0.8
				c0.5,0.3,0.8,0.8,1.1,1.3c0.3,0.5,0.4,1.1,0.4,1.8c0,0.9-0.2,1.7-0.5,2.3c-0.3,0.6-0.8,1.1-1.4,1.5c-0.6,0.4-1.2,0.7-2,0.9
				c-0.8,0.2-1.5,0.3-2.3,0.3c-1.2,0-2.3-0.2-3.4-0.6c-1.1-0.4-2-1-2.7-1.8l2.4-2.3c0.4,0.5,1,1,1.6,1.3c0.7,0.4,1.4,0.5,2.2,0.5
				c0.3,0,0.5,0,0.8-0.1c0.3-0.1,0.5-0.2,0.8-0.3c0.2-0.1,0.4-0.3,0.6-0.5c0.1-0.2,0.2-0.5,0.2-0.8c0-0.6-0.3-1.1-0.9-1.3
				c-0.6-0.3-1.4-0.5-2.6-0.8c-0.6-0.1-1.1-0.3-1.6-0.5c-0.5-0.2-1-0.5-1.4-0.8c-0.4-0.3-0.7-0.7-1-1.2s-0.4-1.1-0.4-1.8
				c0-0.8,0.2-1.5,0.5-2.1s0.8-1.1,1.3-1.5c0.6-0.4,1.2-0.7,1.9-0.9c0.7-0.2,1.4-0.3,2.2-0.3c1.1,0,2.1,0.2,3.1,0.6s1.8,0.9,2.4,1.7
				L10.4,207.7z"/>
			<path class="st0" d="M29.6,218.6H26v-2.4H26c-0.3,0.7-0.9,1.4-1.7,2c-0.8,0.6-1.8,0.9-2.9,0.9c-1,0-1.8-0.2-2.5-0.5
				c-0.7-0.3-1.3-0.8-1.7-1.3c-0.4-0.6-0.8-1.2-1-1.9c-0.2-0.7-0.3-1.5-0.3-2.2v-9.3h3.7v8.2c0,0.4,0,0.9,0.1,1.4
				c0.1,0.5,0.2,0.9,0.4,1.3c0.2,0.4,0.5,0.7,0.9,0.9s0.8,0.4,1.4,0.4c0.6,0,1.1-0.1,1.5-0.4c0.4-0.2,0.8-0.5,1.1-0.9
				c0.3-0.4,0.5-0.8,0.6-1.3c0.1-0.5,0.2-1,0.2-1.5v-8.2h3.7V218.6z"/>
			<path class="st0" d="M44.2,207.9c-0.3-0.4-0.7-0.8-1.3-1c-0.6-0.3-1.2-0.4-1.8-0.4c-0.7,0-1.3,0.1-1.8,0.4
				c-0.5,0.3-0.9,0.6-1.3,1.1c-0.3,0.5-0.6,1-0.8,1.5c-0.2,0.6-0.2,1.1-0.2,1.7c0,0.6,0.1,1.2,0.3,1.7c0.2,0.6,0.4,1.1,0.8,1.5
				c0.4,0.5,0.8,0.8,1.3,1.1c0.5,0.3,1.1,0.4,1.8,0.4c0.6,0,1.2-0.1,1.7-0.3s1-0.6,1.4-1l2.3,2.4c-0.6,0.7-1.4,1.2-2.4,1.5
				s-2,0.5-3.1,0.5c-1.1,0-2.1-0.2-3.1-0.5c-1-0.4-1.8-0.9-2.6-1.6c-0.7-0.7-1.3-1.5-1.7-2.5c-0.4-1-0.6-2.1-0.6-3.3
				c0-1.2,0.2-2.3,0.6-3.3c0.4-1,1-1.8,1.7-2.5c0.7-0.7,1.6-1.2,2.5-1.6s2-0.6,3.1-0.6c1.1,0,2.2,0.2,3.2,0.6c1,0.4,1.8,1,2.4,1.7
				L44.2,207.9z"/>
			<path class="st0" d="M59.3,207.9c-0.3-0.4-0.7-0.8-1.3-1c-0.6-0.3-1.2-0.4-1.8-0.4c-0.7,0-1.3,0.1-1.8,0.4
				c-0.5,0.3-0.9,0.6-1.3,1.1c-0.3,0.5-0.6,1-0.8,1.5c-0.2,0.6-0.2,1.1-0.2,1.7c0,0.6,0.1,1.2,0.3,1.7c0.2,0.6,0.4,1.1,0.8,1.5
				c0.4,0.5,0.8,0.8,1.3,1.1c0.5,0.3,1.1,0.4,1.8,0.4c0.6,0,1.2-0.1,1.7-0.3s1-0.6,1.4-1l2.3,2.4c-0.6,0.7-1.4,1.2-2.4,1.5
				s-2,0.5-3.1,0.5c-1.1,0-2.1-0.2-3.1-0.5c-1-0.4-1.8-0.9-2.6-1.6c-0.7-0.7-1.3-1.5-1.7-2.5c-0.4-1-0.6-2.1-0.6-3.3
				c0-1.2,0.2-2.3,0.6-3.3c0.4-1,1-1.8,1.7-2.5c0.7-0.7,1.6-1.2,2.5-1.6s2-0.6,3.1-0.6c1.1,0,2.2,0.2,3.2,0.6c1,0.4,1.8,1,2.4,1.7
				L59.3,207.9z"/>
			<path class="st0" d="M78.5,211.4c0,0.2,0,0.3,0,0.5s0,0.3,0,0.5H67.1c0,0.5,0.2,1,0.4,1.5c0.2,0.4,0.6,0.8,0.9,1.1
				c0.4,0.3,0.8,0.6,1.3,0.8c0.5,0.2,1,0.3,1.6,0.3c0.9,0,1.7-0.2,2.4-0.5c0.6-0.3,1.2-0.8,1.6-1.4l2.5,2c-1.5,2-3.6,3-6.4,3
				c-1.2,0-2.2-0.2-3.2-0.5c-1-0.4-1.8-0.9-2.5-1.5c-0.7-0.7-1.3-1.5-1.7-2.4c-0.4-1-0.6-2.1-0.6-3.3c0-1.2,0.2-2.3,0.6-3.3
				c0.4-1,1-1.8,1.7-2.5c0.7-0.7,1.5-1.2,2.5-1.6c1-0.4,2-0.6,3.1-0.6c1,0,2,0.2,2.9,0.5s1.6,0.8,2.3,1.5c0.6,0.7,1.1,1.5,1.5,2.5
				C78.3,208.9,78.5,210,78.5,211.4z M74.8,209.7c0-0.5-0.1-0.9-0.2-1.4s-0.3-0.8-0.6-1.1c-0.3-0.3-0.7-0.6-1.1-0.8
				c-0.4-0.2-1-0.3-1.6-0.3c-1.1,0-2.1,0.3-2.8,1s-1.2,1.5-1.3,2.6H74.8z"/>
			<path class="st0" d="M96.3,211.4c0,0.2,0,0.3,0,0.5s0,0.3,0,0.5H84.9c0,0.5,0.2,1,0.4,1.5c0.2,0.4,0.6,0.8,0.9,1.1
				c0.4,0.3,0.8,0.6,1.3,0.8c0.5,0.2,1,0.3,1.6,0.3c0.9,0,1.7-0.2,2.4-0.5c0.6-0.3,1.2-0.8,1.6-1.4l2.5,2c-1.5,2-3.6,3-6.4,3
				c-1.2,0-2.2-0.2-3.2-0.5c-1-0.4-1.8-0.9-2.5-1.5c-0.7-0.7-1.3-1.5-1.7-2.4c-0.4-1-0.6-2.1-0.6-3.3c0-1.2,0.2-2.3,0.6-3.3
				c0.4-1,1-1.8,1.7-2.5c0.7-0.7,1.5-1.2,2.5-1.6c1-0.4,2-0.6,3.1-0.6c1,0,2,0.2,2.9,0.5s1.6,0.8,2.3,1.5c0.6,0.7,1.1,1.5,1.5,2.5
				C96.1,208.9,96.3,210,96.3,211.4z M92.6,209.7c0-0.5-0.1-0.9-0.2-1.4s-0.3-0.8-0.6-1.1c-0.3-0.3-0.7-0.6-1.1-0.8
				c-0.4-0.2-1-0.3-1.6-0.3c-1.1,0-2.1,0.3-2.8,1s-1.2,1.5-1.3,2.6H92.6z"/>
			<path class="st0" d="M115,218.6h-3.5v-2.2h-0.1c-0.5,0.9-1.2,1.5-2.2,2c-0.9,0.5-1.9,0.7-3,0.7c-1.1,0-2.2-0.2-3.1-0.6
				c-0.9-0.4-1.7-1-2.3-1.7c-0.6-0.7-1.1-1.5-1.5-2.5c-0.3-1-0.5-2-0.5-3.1c0-1.1,0.2-2.1,0.5-3.1c0.4-1,0.8-1.8,1.5-2.5
				c0.6-0.7,1.4-1.3,2.3-1.7c0.9-0.4,1.9-0.6,2.9-0.6c0.7,0,1.3,0.1,1.8,0.2c0.5,0.2,1,0.3,1.4,0.6c0.4,0.2,0.7,0.5,1,0.7
				c0.3,0.3,0.5,0.5,0.7,0.8h0.1v-10.4h3.7V218.6z M102.8,211.1c0,0.6,0.1,1.2,0.3,1.7c0.2,0.6,0.4,1.1,0.8,1.6
				c0.4,0.5,0.8,0.8,1.3,1.1c0.5,0.3,1.2,0.4,1.9,0.4c0.7,0,1.3-0.1,1.8-0.4c0.5-0.3,1-0.6,1.4-1.1c0.4-0.5,0.7-1,0.9-1.5
				c0.2-0.6,0.3-1.1,0.3-1.7c0-0.6-0.1-1.2-0.3-1.7c-0.2-0.6-0.5-1.1-0.9-1.5c-0.4-0.5-0.8-0.8-1.4-1.1c-0.5-0.3-1.1-0.4-1.8-0.4
				c-0.7,0-1.4,0.1-1.9,0.4c-0.5,0.3-1,0.6-1.3,1.1c-0.4,0.5-0.6,1-0.8,1.5C102.9,210,102.8,210.6,102.8,211.1z"/>
			<path class="st0" d="M136.5,216.7L136.5,216.7c-0.5,0.7-1.1,1.2-1.9,1.6c-0.8,0.4-1.8,0.6-2.8,0.6c-0.6,0-1.2-0.1-1.9-0.2
				c-0.7-0.2-1.3-0.4-1.8-0.8c-0.5-0.4-1-0.8-1.4-1.4c-0.4-0.6-0.5-1.3-0.5-2.2c0-1.1,0.3-2,0.9-2.7c0.6-0.7,1.4-1.2,2.4-1.5
				c1-0.4,2.1-0.6,3.3-0.7c1.2-0.1,2.4-0.2,3.5-0.2V209c0-0.9-0.3-1.6-1-2.1c-0.7-0.4-1.5-0.7-2.4-0.7c-0.8,0-1.5,0.2-2.3,0.5
				c-0.7,0.3-1.3,0.7-1.8,1.2l-1.9-2.3c0.8-0.8,1.8-1.4,2.9-1.8c1.1-0.4,2.2-0.6,3.4-0.6c1.3,0,2.4,0.2,3.3,0.6
				c0.9,0.4,1.5,0.9,2,1.5c0.5,0.6,0.8,1.3,1,2c0.2,0.7,0.3,1.5,0.3,2.2v9.1h-3.5V216.7z M136.5,211.8h-0.8c-0.6,0-1.2,0-1.9,0.1
				c-0.7,0.1-1.3,0.2-1.8,0.3s-1,0.4-1.4,0.7s-0.6,0.8-0.6,1.3c0,0.4,0.1,0.6,0.2,0.9c0.2,0.2,0.4,0.4,0.6,0.6
				c0.2,0.1,0.5,0.2,0.8,0.3c0.3,0.1,0.6,0.1,0.9,0.1c1.3,0,2.3-0.3,2.9-1c0.7-0.7,1-1.6,1-2.8V211.8z"/>
			<path class="st0" d="M141.9,206.7v-3h2.6v-4.3h3.7v4.3h3.7v3h-3.7v6.9c0,0.7,0.1,1.2,0.4,1.6c0.2,0.4,0.8,0.7,1.6,0.7
				c0.2,0,0.5,0,0.8-0.1c0.3-0.1,0.5-0.1,0.8-0.2l0.1,2.9c-0.3,0.1-0.7,0.2-1.2,0.3c-0.5,0.1-0.9,0.1-1.3,0.1c-1,0-1.8-0.1-2.4-0.4
				c-0.6-0.3-1.1-0.7-1.5-1.1c-0.4-0.5-0.6-1-0.7-1.7c-0.1-0.6-0.2-1.3-0.2-2v-6.9H141.9z"/>
			<path class="st0" d="M162.5,196.7H177v3.4h-10.6v5.6h10.1v3.3h-10.1v6.2h11.2v3.5h-15.1V196.7z"/>
			<path class="st0" d="M178.6,203.8h4.1l3.9,10.8h0.1l3.9-10.8h3.9l-5.9,14.9h-4L178.6,203.8z"/>
			<path class="st0" d="M211,211.4c0,0.2,0,0.3,0,0.5s0,0.3,0,0.5h-11.3c0,0.5,0.2,1,0.4,1.5c0.2,0.4,0.6,0.8,0.9,1.1
				c0.4,0.3,0.8,0.6,1.3,0.8c0.5,0.2,1,0.3,1.6,0.3c0.9,0,1.7-0.2,2.4-0.5c0.6-0.3,1.2-0.8,1.6-1.4l2.5,2c-1.5,2-3.6,3-6.4,3
				c-1.2,0-2.2-0.2-3.2-0.5c-1-0.4-1.8-0.9-2.5-1.5c-0.7-0.7-1.3-1.5-1.7-2.4c-0.4-1-0.6-2.1-0.6-3.3c0-1.2,0.2-2.3,0.6-3.3
				c0.4-1,1-1.8,1.7-2.5c0.7-0.7,1.5-1.2,2.5-1.6c1-0.4,2-0.6,3.1-0.6c1,0,2,0.2,2.9,0.5s1.6,0.8,2.3,1.5c0.6,0.7,1.1,1.5,1.5,2.5
				C210.8,208.9,211,210,211,211.4z M207.2,209.7c0-0.5-0.1-0.9-0.2-1.4s-0.3-0.8-0.6-1.1c-0.3-0.3-0.7-0.6-1.1-0.8
				c-0.4-0.2-1-0.3-1.6-0.3c-1.1,0-2.1,0.3-2.8,1s-1.2,1.5-1.3,2.6H207.2z"/>
			<path class="st0" d="M214.5,203.8h3.6v2.5h0.1c0.4-0.9,1-1.6,1.7-2.1c0.7-0.5,1.6-0.8,2.6-0.8c0.1,0,0.3,0,0.5,0
				c0.2,0,0.3,0,0.4,0.1v3.4c-0.2-0.1-0.5-0.1-0.6-0.1c-0.2,0-0.3,0-0.5,0c-0.8,0-1.5,0.2-2,0.5s-0.9,0.7-1.2,1.1
				c-0.3,0.4-0.5,0.9-0.6,1.3c-0.1,0.5-0.2,0.8-0.2,1.1v8h-3.7V203.8z"/>
			<path class="st0" d="M240.4,203.8v13.5c0,1.3-0.2,2.6-0.5,3.6c-0.3,1.1-0.8,2-1.5,2.8s-1.6,1.3-2.6,1.8c-1.1,0.4-2.3,0.6-3.8,0.6
				c-0.6,0-1.2-0.1-1.9-0.2c-0.7-0.1-1.3-0.3-2-0.5c-0.7-0.2-1.3-0.5-1.9-0.8c-0.6-0.3-1.1-0.7-1.6-1.1l2.1-2.9
				c0.7,0.7,1.5,1.2,2.4,1.6c0.9,0.4,1.8,0.5,2.8,0.5c0.9,0,1.6-0.1,2.2-0.4s1.1-0.6,1.5-1.1s0.6-1,0.8-1.6c0.2-0.6,0.2-1.3,0.2-2.1
				v-1.1h-0.1c-0.5,0.7-1.2,1.3-2.1,1.7c-0.8,0.4-1.8,0.6-2.8,0.6c-1.1,0-2.1-0.2-3-0.6c-0.9-0.4-1.7-1-2.3-1.7s-1.1-1.5-1.5-2.5
				c-0.4-0.9-0.5-1.9-0.5-3c0-1.1,0.2-2.1,0.5-3c0.3-1,0.8-1.8,1.5-2.5c0.6-0.7,1.4-1.3,2.3-1.7c0.9-0.4,1.9-0.6,3-0.6
				c1.1,0,2,0.2,2.9,0.7c0.9,0.4,1.6,1.1,2.2,2h0.1v-2.2H240.4z M232.5,206.4c-0.7,0-1.3,0.1-1.8,0.4c-0.5,0.2-1,0.6-1.3,1
				c-0.4,0.4-0.6,0.9-0.8,1.5c-0.2,0.6-0.3,1.2-0.3,1.9c0,0.6,0.1,1.2,0.3,1.7c0.2,0.6,0.5,1.1,0.8,1.5c0.4,0.4,0.8,0.8,1.3,1.1
				c0.5,0.3,1.1,0.4,1.8,0.4c0.7,0,1.3-0.1,1.8-0.4c0.5-0.3,1-0.6,1.4-1c0.4-0.4,0.7-0.9,0.9-1.5c0.2-0.6,0.3-1.2,0.3-1.8
				c0-0.6-0.1-1.2-0.3-1.8c-0.2-0.6-0.5-1.1-0.9-1.5c-0.4-0.4-0.8-0.8-1.4-1C233.8,206.5,233.1,206.4,232.5,206.4z"/>
			<path class="st0" d="M244.9,203.8h3.6v2.5h0.1c0.4-0.9,1-1.6,1.7-2.1s1.6-0.8,2.6-0.8c0.1,0,0.3,0,0.5,0c0.2,0,0.3,0,0.4,0.1v3.4
				c-0.2-0.1-0.5-0.1-0.6-0.1c-0.2,0-0.3,0-0.5,0c-0.8,0-1.5,0.2-2,0.5c-0.5,0.3-0.9,0.7-1.2,1.1c-0.3,0.4-0.5,0.9-0.6,1.3
				s-0.2,0.8-0.2,1.1v8h-3.7V203.8z"/>
			<path class="st0" d="M269.8,211.4c0,0.2,0,0.3,0,0.5s0,0.3,0,0.5h-11.3c0,0.5,0.2,1,0.4,1.5c0.2,0.4,0.6,0.8,0.9,1.1
				c0.4,0.3,0.8,0.6,1.3,0.8c0.5,0.2,1,0.3,1.6,0.3c0.9,0,1.7-0.2,2.4-0.5c0.6-0.3,1.2-0.8,1.6-1.4l2.5,2c-1.5,2-3.6,3-6.4,3
				c-1.2,0-2.2-0.2-3.2-0.5c-1-0.4-1.8-0.9-2.5-1.5c-0.7-0.7-1.3-1.5-1.7-2.4c-0.4-1-0.6-2.1-0.6-3.3c0-1.2,0.2-2.3,0.6-3.3
				c0.4-1,1-1.8,1.7-2.5c0.7-0.7,1.5-1.2,2.5-1.6c1-0.4,2-0.6,3.1-0.6c1,0,2,0.2,2.9,0.5s1.6,0.8,2.3,1.5c0.6,0.7,1.1,1.5,1.5,2.5
				S269.8,210,269.8,211.4z M266.1,209.7c0-0.5-0.1-0.9-0.2-1.4c-0.1-0.4-0.3-0.8-0.6-1.1c-0.3-0.3-0.7-0.6-1.1-0.8
				c-0.4-0.2-1-0.3-1.6-0.3c-1.1,0-2.1,0.3-2.8,1c-0.8,0.7-1.2,1.5-1.3,2.6H266.1z"/>
			<path class="st0" d="M287.6,211.4c0,0.2,0,0.3,0,0.5s0,0.3,0,0.5h-11.3c0,0.5,0.2,1,0.4,1.5c0.2,0.4,0.6,0.8,0.9,1.1
				c0.4,0.3,0.8,0.6,1.3,0.8c0.5,0.2,1,0.3,1.5,0.3c0.9,0,1.7-0.2,2.4-0.5c0.6-0.3,1.2-0.8,1.6-1.4l2.5,2c-1.5,2-3.6,3-6.4,3
				c-1.2,0-2.2-0.2-3.2-0.5c-1-0.4-1.8-0.9-2.5-1.5c-0.7-0.7-1.3-1.5-1.7-2.4s-0.6-2.1-0.6-3.3c0-1.2,0.2-2.3,0.6-3.3
				c0.4-1,1-1.8,1.7-2.5c0.7-0.7,1.5-1.2,2.5-1.6c1-0.4,2-0.6,3.1-0.6c1,0,2,0.2,2.9,0.5c0.9,0.3,1.6,0.8,2.3,1.5
				c0.6,0.7,1.1,1.5,1.5,2.5S287.6,210,287.6,211.4z M283.9,209.7c0-0.5-0.1-0.9-0.2-1.4s-0.3-0.8-0.6-1.1c-0.3-0.3-0.7-0.6-1.1-0.8
				c-0.4-0.2-1-0.3-1.6-0.3c-1.1,0-2.1,0.3-2.8,1s-1.2,1.5-1.3,2.6H283.9z"/>
			<path class="st0" d="M291.2,203.8h3.5v2.4h0.1c0.3-0.7,0.9-1.4,1.7-2s1.8-0.9,2.9-0.9c1,0,1.8,0.2,2.5,0.5s1.3,0.8,1.7,1.3
				s0.8,1.2,1,1.9c0.2,0.7,0.3,1.5,0.3,2.2v9.3h-3.7v-8.2c0-0.4,0-0.9-0.1-1.4c-0.1-0.5-0.2-0.9-0.4-1.3c-0.2-0.4-0.5-0.7-0.9-0.9
				c-0.4-0.2-0.8-0.4-1.4-0.4s-1.1,0.1-1.5,0.4s-0.8,0.5-1.1,0.9c-0.3,0.4-0.5,0.8-0.6,1.3c-0.1,0.5-0.2,1-0.2,1.5v8.2h-3.7V203.8z"
				/>
			<path class="st0" d="M326.2,216.7L326.2,216.7c-0.5,0.7-1.1,1.2-1.9,1.6c-0.8,0.4-1.8,0.6-2.8,0.6c-0.6,0-1.2-0.1-1.9-0.2
				c-0.7-0.2-1.2-0.4-1.8-0.8c-0.5-0.4-1-0.8-1.4-1.4s-0.5-1.3-0.5-2.2c0-1.1,0.3-2,0.9-2.7c0.6-0.7,1.4-1.2,2.4-1.5
				c1-0.4,2.1-0.6,3.3-0.7c1.2-0.1,2.4-0.2,3.5-0.2V209c0-0.9-0.3-1.6-1-2.1s-1.5-0.7-2.4-0.7c-0.8,0-1.5,0.2-2.3,0.5
				c-0.7,0.3-1.3,0.7-1.8,1.2l-1.9-2.3c0.8-0.8,1.8-1.4,2.9-1.8c1.1-0.4,2.2-0.6,3.4-0.6c1.3,0,2.4,0.2,3.3,0.6s1.5,0.9,2,1.5
				c0.5,0.6,0.8,1.3,1,2c0.2,0.7,0.3,1.5,0.3,2.2v9.1h-3.5V216.7z M326.1,211.8h-0.8c-0.6,0-1.2,0-1.9,0.1c-0.7,0.1-1.3,0.2-1.8,0.3
				s-1,0.4-1.4,0.7c-0.4,0.3-0.6,0.8-0.6,1.3c0,0.4,0.1,0.6,0.2,0.9c0.2,0.2,0.4,0.4,0.6,0.6c0.2,0.1,0.5,0.2,0.8,0.3
				s0.6,0.1,0.9,0.1c1.3,0,2.3-0.3,2.9-1s1-1.6,1-2.8V211.8z"/>
			<path class="st0" d="M334,203.8h3.5v2.4h0.1c0.3-0.7,0.9-1.4,1.7-2c0.8-0.6,1.8-0.9,2.9-0.9c1,0,1.8,0.2,2.5,0.5s1.3,0.8,1.7,1.3
				s0.8,1.2,1,1.9c0.2,0.7,0.3,1.5,0.3,2.2v9.3H344v-8.2c0-0.4,0-0.9-0.1-1.4c-0.1-0.5-0.2-0.9-0.4-1.3c-0.2-0.4-0.5-0.7-0.9-0.9
				c-0.4-0.2-0.8-0.4-1.4-0.4s-1.1,0.1-1.5,0.4s-0.8,0.5-1.1,0.9c-0.3,0.4-0.5,0.8-0.6,1.3c-0.1,0.5-0.2,1-0.2,1.5v8.2H334V203.8z"
				/>
			<path class="st0" d="M367.2,218.6h-3.5v-2.2h-0.1c-0.5,0.9-1.2,1.5-2.2,2s-1.9,0.7-3,0.7c-1.1,0-2.2-0.2-3.1-0.6
				c-0.9-0.4-1.7-1-2.3-1.7c-0.6-0.7-1.1-1.5-1.5-2.5s-0.5-2-0.5-3.1c0-1.1,0.2-2.1,0.5-3.1c0.4-1,0.8-1.8,1.5-2.5s1.4-1.3,2.3-1.7
				c0.9-0.4,1.9-0.6,2.9-0.6c0.7,0,1.3,0.1,1.8,0.2c0.5,0.2,1,0.3,1.4,0.6c0.4,0.2,0.7,0.5,1,0.7c0.3,0.3,0.5,0.5,0.7,0.8h0.1v-10.4
				h3.7V218.6z M354.9,211.1c0,0.6,0.1,1.2,0.3,1.7c0.2,0.6,0.4,1.1,0.8,1.6s0.8,0.8,1.3,1.1c0.5,0.3,1.2,0.4,1.9,0.4
				c0.7,0,1.3-0.1,1.8-0.4c0.5-0.3,1-0.6,1.4-1.1c0.4-0.5,0.7-1,0.9-1.5c0.2-0.6,0.3-1.1,0.3-1.7c0-0.6-0.1-1.2-0.3-1.7
				c-0.2-0.6-0.5-1.1-0.9-1.5c-0.4-0.5-0.8-0.8-1.4-1.1s-1.1-0.4-1.8-0.4c-0.7,0-1.4,0.1-1.9,0.4c-0.5,0.3-1,0.6-1.3,1.1
				s-0.6,1-0.8,1.5C355,210,354.9,210.6,354.9,211.1z"/>
			<path class="st0" d="M387.7,203.3c1,0,1.8,0.2,2.5,0.5c0.7,0.3,1.3,0.8,1.7,1.3c0.4,0.6,0.8,1.2,1,1.9c0.2,0.7,0.3,1.5,0.3,2.2
				v9.3h-3.7v-8.2c0-0.4,0-0.9-0.1-1.3c-0.1-0.5-0.2-0.9-0.4-1.3c-0.2-0.4-0.5-0.7-0.8-0.9c-0.4-0.2-0.8-0.4-1.4-0.4
				s-1.1,0.1-1.5,0.3c-0.4,0.2-0.8,0.5-1.1,0.9c-0.3,0.4-0.5,0.8-0.7,1.3c-0.1,0.5-0.2,1-0.2,1.5v8.1h-3.7v-23.4h3.7v10.6h0.1
				c0.1-0.3,0.4-0.6,0.6-0.9c0.3-0.3,0.6-0.6,1-0.8c0.4-0.2,0.8-0.4,1.3-0.6S387.2,203.3,387.7,203.3z"/>
			<path class="st0" d="M406.8,216.7L406.8,216.7c-0.5,0.7-1.1,1.2-1.9,1.6c-0.8,0.4-1.8,0.6-2.8,0.6c-0.6,0-1.2-0.1-1.9-0.2
				c-0.7-0.2-1.3-0.4-1.8-0.8c-0.5-0.4-1-0.8-1.4-1.4c-0.4-0.6-0.5-1.3-0.5-2.2c0-1.1,0.3-2,0.9-2.7c0.6-0.7,1.4-1.2,2.4-1.5
				c1-0.4,2.1-0.6,3.3-0.7c1.2-0.1,2.4-0.2,3.5-0.2V209c0-0.9-0.3-1.6-1-2.1s-1.5-0.7-2.4-0.7c-0.8,0-1.5,0.2-2.3,0.5
				c-0.7,0.3-1.3,0.7-1.8,1.2l-1.9-2.3c0.8-0.8,1.8-1.4,2.9-1.8c1.1-0.4,2.2-0.6,3.4-0.6c1.3,0,2.4,0.2,3.3,0.6s1.5,0.9,2,1.5
				c0.5,0.6,0.8,1.3,1,2s0.3,1.5,0.3,2.2v9.1h-3.5V216.7z M406.7,211.8h-0.8c-0.6,0-1.2,0-1.9,0.1c-0.7,0.1-1.3,0.2-1.8,0.3
				c-0.6,0.2-1,0.4-1.4,0.7s-0.6,0.8-0.6,1.3c0,0.4,0.1,0.6,0.2,0.9c0.2,0.2,0.4,0.4,0.6,0.6c0.2,0.1,0.5,0.2,0.8,0.3
				c0.3,0.1,0.6,0.1,0.9,0.1c1.3,0,2.3-0.3,2.9-1c0.7-0.7,1-1.6,1-2.8V211.8z"/>
			<path class="st0" d="M412.4,203.8h4.1l3.9,10.8h0.1l3.9-10.8h3.9l-5.9,14.9h-4L412.4,203.8z"/>
			<path class="st0" d="M444.7,211.4c0,0.2,0,0.3,0,0.5s0,0.3,0,0.5h-11.3c0,0.5,0.2,1,0.4,1.5c0.2,0.4,0.6,0.8,0.9,1.1
				c0.4,0.3,0.8,0.6,1.3,0.8s1,0.3,1.5,0.3c0.9,0,1.7-0.2,2.4-0.5c0.6-0.3,1.2-0.8,1.6-1.4l2.5,2c-1.5,2-3.6,3-6.4,3
				c-1.2,0-2.2-0.2-3.2-0.5s-1.8-0.9-2.5-1.5c-0.7-0.7-1.3-1.5-1.7-2.4c-0.4-1-0.6-2.1-0.6-3.3c0-1.2,0.2-2.3,0.6-3.3
				c0.4-1,1-1.8,1.7-2.5c0.7-0.7,1.5-1.2,2.5-1.6c1-0.4,2-0.6,3.1-0.6c1,0,2,0.2,2.9,0.5c0.9,0.3,1.6,0.8,2.3,1.5
				c0.6,0.7,1.1,1.5,1.5,2.5C444.5,208.9,444.7,210,444.7,211.4z M441,209.7c0-0.5-0.1-0.9-0.2-1.4c-0.1-0.4-0.3-0.8-0.6-1.1
				c-0.3-0.3-0.7-0.6-1.1-0.8c-0.4-0.2-1-0.3-1.6-0.3c-1.1,0-2.1,0.3-2.8,1c-0.8,0.7-1.2,1.5-1.3,2.6H441z"/>
			<path class="st0" d="M10.4,244.9c-0.3-0.4-0.8-0.8-1.4-1.1c-0.6-0.3-1.2-0.5-1.9-0.5c-0.6,0-1.1,0.1-1.6,0.4
				c-0.5,0.2-0.7,0.7-0.7,1.2c0,0.6,0.3,1,0.8,1.2c0.5,0.2,1.3,0.5,2.4,0.7c0.6,0.1,1.1,0.3,1.7,0.5c0.6,0.2,1.1,0.5,1.5,0.8
				s0.8,0.8,1.1,1.3c0.3,0.5,0.4,1.1,0.4,1.8c0,0.9-0.2,1.7-0.5,2.3c-0.3,0.6-0.8,1.1-1.4,1.5c-0.6,0.4-1.2,0.7-2,0.9
				c-0.8,0.2-1.5,0.3-2.3,0.3c-1.2,0-2.3-0.2-3.4-0.6c-1.1-0.4-2-1-2.7-1.8l2.4-2.3c0.4,0.5,1,1,1.6,1.3c0.7,0.4,1.4,0.5,2.2,0.5
				c0.3,0,0.5,0,0.8-0.1c0.3-0.1,0.5-0.2,0.8-0.3c0.2-0.1,0.4-0.3,0.6-0.5c0.1-0.2,0.2-0.5,0.2-0.8c0-0.6-0.3-1.1-0.9-1.3
				c-0.6-0.3-1.4-0.5-2.6-0.8c-0.6-0.1-1.1-0.3-1.6-0.5c-0.5-0.2-1-0.5-1.4-0.8c-0.4-0.3-0.7-0.7-1-1.2c-0.2-0.5-0.4-1.1-0.4-1.8
				c0-0.8,0.2-1.5,0.5-2.1c0.3-0.6,0.8-1.1,1.3-1.5c0.6-0.4,1.2-0.7,1.9-0.9c0.7-0.2,1.4-0.3,2.2-0.3c1.1,0,2.1,0.2,3.1,0.6
				s1.8,0.9,2.4,1.7L10.4,244.9z"/>
			<path class="st0" d="M15.1,248.3c0-1.2,0.2-2.2,0.6-3.2c0.4-1,1-1.8,1.7-2.5c0.7-0.7,1.6-1.2,2.6-1.6s2-0.6,3.2-0.6
				c1.1,0,2.2,0.2,3.2,0.6c1,0.4,1.8,0.9,2.6,1.6c0.7,0.7,1.3,1.5,1.7,2.5c0.4,1,0.6,2,0.6,3.2s-0.2,2.3-0.6,3.2
				c-0.4,1-1,1.8-1.7,2.5c-0.7,0.7-1.6,1.2-2.6,1.6c-1,0.4-2,0.6-3.2,0.6c-1.1,0-2.2-0.2-3.2-0.6c-1-0.4-1.8-0.9-2.6-1.6
				c-0.7-0.7-1.3-1.5-1.7-2.5C15.3,250.6,15.1,249.5,15.1,248.3z M18.9,248.3c0,0.6,0.1,1.2,0.3,1.7c0.2,0.6,0.4,1.1,0.8,1.5
				c0.4,0.5,0.8,0.8,1.3,1.1c0.5,0.3,1.2,0.4,1.9,0.4s1.4-0.1,1.9-0.4c0.5-0.3,1-0.7,1.3-1.1c0.4-0.5,0.6-1,0.8-1.5
				c0.2-0.6,0.3-1.2,0.3-1.7s-0.1-1.2-0.3-1.7c-0.2-0.6-0.4-1.1-0.8-1.5c-0.4-0.5-0.8-0.8-1.3-1.1c-0.5-0.3-1.2-0.4-1.9-0.4
				s-1.4,0.1-1.9,0.4c-0.5,0.3-1,0.6-1.3,1.1c-0.4,0.5-0.6,1-0.8,1.5C19,247.2,18.9,247.8,18.9,248.3z"/>
			<path class="st0" d="M52.7,240.5c1,0,1.8,0.2,2.5,0.5c0.7,0.3,1.3,0.8,1.7,1.3s0.8,1.2,1,1.9s0.3,1.5,0.3,2.2v9.3h-3.7v-8.2
				c0-0.4,0-0.9-0.1-1.4c-0.1-0.5-0.2-0.9-0.4-1.3c-0.2-0.4-0.5-0.7-0.9-0.9c-0.4-0.2-0.8-0.4-1.4-0.4c-0.6,0-1.1,0.1-1.5,0.4
				c-0.4,0.2-0.8,0.6-1,1s-0.5,0.8-0.6,1.3s-0.2,1-0.2,1.4v8.1h-3.7v-9c0-0.9-0.2-1.7-0.7-2.3s-1.1-0.9-2.1-0.9
				c-0.6,0-1,0.1-1.5,0.4c-0.4,0.2-0.7,0.5-1,0.9c-0.3,0.4-0.5,0.8-0.6,1.3s-0.2,1-0.2,1.5v8.2h-3.7V241h3.5v2.4h0.1
				c0.2-0.4,0.4-0.7,0.7-1.1c0.3-0.3,0.6-0.6,1-0.9c0.4-0.3,0.8-0.5,1.3-0.6c0.5-0.2,1-0.2,1.6-0.2c1.2,0,2.1,0.3,2.9,0.8
				c0.8,0.5,1.4,1.2,1.8,2c0.5-0.9,1.2-1.6,2-2.1C50.6,240.8,51.6,240.5,52.7,240.5z"/>
			<path class="st0" d="M76.7,248.6c0,0.2,0,0.3,0,0.5s0,0.3,0,0.5H65.3c0,0.5,0.2,1,0.4,1.5c0.2,0.4,0.6,0.8,0.9,1.1
				c0.4,0.3,0.8,0.6,1.3,0.8c0.5,0.2,1,0.3,1.6,0.3c0.9,0,1.7-0.2,2.4-0.5c0.6-0.3,1.2-0.8,1.6-1.4l2.5,2c-1.5,2-3.6,3-6.4,3
				c-1.2,0-2.2-0.2-3.2-0.5c-1-0.4-1.8-0.9-2.5-1.5c-0.7-0.7-1.3-1.5-1.7-2.4c-0.4-1-0.6-2.1-0.6-3.3c0-1.2,0.2-2.3,0.6-3.3
				c0.4-1,1-1.8,1.7-2.5c0.7-0.7,1.5-1.2,2.5-1.6s2-0.6,3.1-0.6c1,0,2,0.2,2.9,0.5c0.9,0.3,1.6,0.8,2.3,1.5s1.1,1.5,1.5,2.5
				C76.5,246.1,76.7,247.2,76.7,248.6z M73,246.9c0-0.5-0.1-0.9-0.2-1.4s-0.3-0.8-0.6-1.1c-0.3-0.3-0.7-0.6-1.1-0.8
				c-0.4-0.2-1-0.3-1.6-0.3c-1.1,0-2.1,0.3-2.8,1c-0.8,0.7-1.2,1.5-1.3,2.6H73z"/>
			<path class="st0" d="M88.6,243.9h-2.8v-3h2.8v-2.2c0-0.9,0.1-1.7,0.3-2.6c0.2-0.8,0.5-1.5,1-2.2s1.1-1.1,1.8-1.5
				c0.8-0.4,1.7-0.5,2.9-0.5c0.4,0,0.8,0,1,0s0.6,0.1,0.9,0.2l-0.2,3.2c-0.2-0.1-0.4-0.1-0.7-0.2c-0.2,0-0.5-0.1-0.8-0.1
				c-0.5,0-1,0.1-1.3,0.3c-0.3,0.2-0.6,0.5-0.8,0.8c-0.2,0.3-0.3,0.7-0.4,1.1s-0.1,0.8-0.1,1.1v2.4h3.4v3h-3.4v11.9h-3.7V243.9z"/>
			<path class="st0" d="M111.7,255.8h-3.5v-2.4h-0.1c-0.3,0.7-0.9,1.4-1.7,2c-0.8,0.6-1.8,0.9-2.9,0.9c-1,0-1.8-0.2-2.5-0.5
				c-0.7-0.3-1.3-0.8-1.7-1.3c-0.4-0.6-0.8-1.2-1-1.9c-0.2-0.7-0.3-1.5-0.3-2.2V241h3.7v8.2c0,0.4,0,0.9,0.1,1.4
				c0.1,0.5,0.2,0.9,0.4,1.3c0.2,0.4,0.5,0.7,0.9,0.9s0.8,0.4,1.4,0.4c0.6,0,1.1-0.1,1.5-0.4s0.8-0.5,1.1-0.9
				c0.3-0.4,0.5-0.8,0.6-1.3c0.1-0.5,0.2-1,0.2-1.5V241h3.7V255.8z"/>
			<path class="st0" d="M116.1,241h3.5v2.4h0.1c0.3-0.7,0.9-1.4,1.7-2s1.8-0.9,2.9-0.9c1,0,1.8,0.2,2.5,0.5c0.7,0.3,1.3,0.8,1.7,1.3
				c0.4,0.6,0.8,1.2,1,1.9c0.2,0.7,0.3,1.5,0.3,2.2v9.3h-3.7v-8.2c0-0.4,0-0.9-0.1-1.4c-0.1-0.5-0.2-0.9-0.4-1.3s-0.5-0.7-0.9-0.9
				c-0.4-0.2-0.8-0.4-1.4-0.4c-0.6,0-1.1,0.1-1.5,0.4c-0.4,0.2-0.8,0.5-1.1,0.9c-0.3,0.4-0.5,0.8-0.6,1.3s-0.2,1-0.2,1.5v8.2h-3.7
				V241z"/>
			<path class="st0" d="M151.2,253.9L151.2,253.9c-0.5,0.7-1.1,1.2-1.9,1.6c-0.8,0.4-1.8,0.6-2.8,0.6c-0.6,0-1.2-0.1-1.9-0.2
				c-0.7-0.2-1.3-0.4-1.8-0.8c-0.5-0.4-1-0.8-1.4-1.4c-0.4-0.6-0.5-1.3-0.5-2.2c0-1.1,0.3-2,0.9-2.7c0.6-0.7,1.4-1.2,2.4-1.5
				c1-0.4,2.1-0.6,3.3-0.7s2.4-0.2,3.5-0.2v-0.4c0-0.9-0.3-1.6-1-2.1c-0.7-0.4-1.5-0.7-2.4-0.7c-0.8,0-1.5,0.2-2.3,0.5
				c-0.7,0.3-1.3,0.7-1.8,1.2l-1.9-2.3c0.8-0.8,1.8-1.4,2.9-1.8s2.2-0.6,3.4-0.6c1.3,0,2.4,0.2,3.3,0.6c0.9,0.4,1.5,0.9,2,1.5
				s0.8,1.3,1,2c0.2,0.7,0.3,1.5,0.3,2.2v9.1h-3.5V253.9z M151.1,249h-0.8c-0.6,0-1.2,0-1.9,0.1c-0.7,0.1-1.3,0.2-1.8,0.3
				c-0.6,0.2-1,0.4-1.4,0.7c-0.4,0.3-0.6,0.8-0.6,1.3c0,0.4,0.1,0.6,0.2,0.9c0.2,0.2,0.4,0.4,0.6,0.6s0.5,0.2,0.8,0.3
				c0.3,0.1,0.6,0.1,0.9,0.1c1.3,0,2.3-0.3,2.9-1c0.7-0.7,1-1.6,1-2.8V249z"/>
			<path class="st0" d="M159,232.4h3.7v23.4H159V232.4z"/>
			<path class="st0" d="M166.4,248.3c0-1.2,0.2-2.2,0.6-3.2c0.4-1,1-1.8,1.7-2.5c0.7-0.7,1.6-1.2,2.6-1.6s2-0.6,3.2-0.6
				c1.1,0,2.2,0.2,3.2,0.6c1,0.4,1.8,0.9,2.6,1.6c0.7,0.7,1.3,1.5,1.7,2.5c0.4,1,0.6,2,0.6,3.2s-0.2,2.3-0.6,3.2
				c-0.4,1-1,1.8-1.7,2.5c-0.7,0.7-1.6,1.2-2.6,1.6c-1,0.4-2,0.6-3.2,0.6c-1.1,0-2.2-0.2-3.2-0.6c-1-0.4-1.8-0.9-2.6-1.6
				c-0.7-0.7-1.3-1.5-1.7-2.5C166.6,250.6,166.4,249.5,166.4,248.3z M170.2,248.3c0,0.6,0.1,1.2,0.3,1.7c0.2,0.6,0.4,1.1,0.8,1.5
				c0.4,0.5,0.8,0.8,1.3,1.1c0.5,0.3,1.2,0.4,1.9,0.4s1.4-0.1,1.9-0.4c0.5-0.3,1-0.7,1.3-1.1c0.4-0.5,0.6-1,0.8-1.5
				c0.2-0.6,0.3-1.2,0.3-1.7s-0.1-1.2-0.3-1.7c-0.2-0.6-0.4-1.1-0.8-1.5c-0.4-0.5-0.8-0.8-1.3-1.1c-0.5-0.3-1.2-0.4-1.9-0.4
				s-1.4,0.1-1.9,0.4c-0.5,0.3-1,0.6-1.3,1.1c-0.4,0.5-0.6,1-0.8,1.5C170.3,247.2,170.2,247.8,170.2,248.3z"/>
			<path class="st0" d="M186.2,241h3.5v2.4h0.1c0.3-0.7,0.9-1.4,1.7-2s1.8-0.9,2.9-0.9c1,0,1.8,0.2,2.5,0.5c0.7,0.3,1.3,0.8,1.7,1.3
				c0.4,0.6,0.8,1.2,1,1.9c0.2,0.7,0.3,1.5,0.3,2.2v9.3h-3.7v-8.2c0-0.4,0-0.9-0.1-1.4c-0.1-0.5-0.2-0.9-0.4-1.3s-0.5-0.7-0.9-0.9
				c-0.4-0.2-0.8-0.4-1.4-0.4c-0.6,0-1.1,0.1-1.5,0.4c-0.4,0.2-0.8,0.5-1.1,0.9c-0.3,0.4-0.5,0.8-0.6,1.3s-0.2,1-0.2,1.5v8.2h-3.7
				V241z"/>
			<path class="st0" d="M219.4,241v13.5c0,1.3-0.2,2.6-0.5,3.6s-0.8,2-1.5,2.8c-0.7,0.8-1.6,1.3-2.6,1.8c-1.1,0.4-2.3,0.6-3.8,0.6
				c-0.6,0-1.2-0.1-1.9-0.2c-0.7-0.1-1.3-0.3-2-0.5c-0.7-0.2-1.3-0.5-1.9-0.8c-0.6-0.3-1.1-0.7-1.6-1.1l2.1-2.9
				c0.7,0.7,1.5,1.2,2.4,1.6c0.9,0.4,1.8,0.5,2.8,0.5c0.9,0,1.6-0.1,2.2-0.4c0.6-0.3,1.1-0.6,1.5-1.1c0.4-0.5,0.6-1,0.8-1.6
				c0.2-0.6,0.2-1.3,0.2-2.1v-1.1h-0.1c-0.5,0.7-1.2,1.3-2.1,1.7c-0.8,0.4-1.8,0.6-2.8,0.6c-1.1,0-2.1-0.2-3-0.6
				c-0.9-0.4-1.7-1-2.3-1.7s-1.1-1.5-1.5-2.5c-0.4-0.9-0.5-1.9-0.5-3c0-1.1,0.2-2.1,0.5-3s0.8-1.8,1.5-2.5c0.6-0.7,1.4-1.3,2.3-1.7
				c0.9-0.4,1.9-0.6,3-0.6c1.1,0,2,0.2,2.9,0.7c0.9,0.4,1.6,1.1,2.2,2h0.1V241H219.4z M211.4,243.6c-0.7,0-1.3,0.1-1.8,0.4
				c-0.5,0.2-1,0.6-1.3,1c-0.4,0.4-0.6,0.9-0.8,1.5c-0.2,0.6-0.3,1.2-0.3,1.9c0,0.6,0.1,1.2,0.3,1.7c0.2,0.6,0.5,1.1,0.8,1.5
				c0.4,0.4,0.8,0.8,1.3,1.1c0.5,0.3,1.1,0.4,1.8,0.4c0.7,0,1.3-0.1,1.8-0.4c0.5-0.3,1-0.6,1.4-1c0.4-0.4,0.7-0.9,0.9-1.5
				c0.2-0.6,0.3-1.2,0.3-1.8c0-0.6-0.1-1.2-0.3-1.8c-0.2-0.6-0.5-1.1-0.9-1.5c-0.4-0.4-0.8-0.8-1.4-1
				C212.7,243.7,212.1,243.6,211.4,243.6z"/>
			<path class="st0" d="M229.4,243.9v-3h2.6v-4.3h3.7v4.3h3.7v3h-3.7v6.9c0,0.7,0.1,1.2,0.4,1.6c0.2,0.4,0.8,0.7,1.6,0.7
				c0.2,0,0.5,0,0.8-0.1s0.5-0.1,0.8-0.2l0.1,2.9c-0.3,0.1-0.7,0.2-1.2,0.3c-0.5,0.1-0.9,0.1-1.3,0.1c-1,0-1.8-0.1-2.4-0.4
				c-0.6-0.3-1.1-0.7-1.5-1.1c-0.4-0.5-0.6-1-0.7-1.7c-0.1-0.6-0.2-1.3-0.2-2v-6.9H229.4z"/>
			<path class="st0" d="M250.4,240.5c1,0,1.8,0.2,2.5,0.5c0.7,0.3,1.3,0.8,1.7,1.3s0.8,1.2,1,1.9c0.2,0.7,0.3,1.5,0.3,2.2v9.3h-3.7
				v-8.2c0-0.4,0-0.9-0.1-1.3c-0.1-0.5-0.2-0.9-0.4-1.3c-0.2-0.4-0.5-0.7-0.8-0.9s-0.8-0.4-1.4-0.4s-1.1,0.1-1.6,0.3
				c-0.4,0.2-0.8,0.5-1.1,0.9c-0.3,0.4-0.5,0.8-0.7,1.3c-0.1,0.5-0.2,1-0.2,1.5v8.1h-3.7v-23.4h3.7V243h0.1c0.1-0.3,0.4-0.6,0.6-0.9
				c0.3-0.3,0.6-0.6,1-0.8c0.4-0.2,0.8-0.4,1.3-0.6C249.3,240.6,249.8,240.5,250.4,240.5z"/>
			<path class="st0" d="M274.4,248.6c0,0.2,0,0.3,0,0.5s0,0.3,0,0.5h-11.3c0,0.5,0.2,1,0.4,1.5c0.2,0.4,0.6,0.8,0.9,1.1
				s0.8,0.6,1.3,0.8c0.5,0.2,1,0.3,1.6,0.3c0.9,0,1.7-0.2,2.4-0.5c0.6-0.3,1.2-0.8,1.6-1.4l2.5,2c-1.5,2-3.6,3-6.4,3
				c-1.2,0-2.2-0.2-3.2-0.5c-1-0.4-1.8-0.9-2.5-1.5c-0.7-0.7-1.3-1.5-1.7-2.4c-0.4-1-0.6-2.1-0.6-3.3c0-1.2,0.2-2.3,0.6-3.3
				c0.4-1,1-1.8,1.7-2.5c0.7-0.7,1.5-1.2,2.5-1.6s2-0.6,3.1-0.6c1,0,2,0.2,2.9,0.5c0.9,0.3,1.6,0.8,2.3,1.5s1.1,1.5,1.5,2.5
				S274.4,247.2,274.4,248.6z M270.7,246.9c0-0.5-0.1-0.9-0.2-1.4c-0.1-0.4-0.3-0.8-0.6-1.1c-0.3-0.3-0.7-0.6-1.1-0.8
				c-0.4-0.2-1-0.3-1.6-0.3c-1.1,0-2.1,0.3-2.8,1c-0.8,0.7-1.2,1.5-1.3,2.6H270.7z"/>
			<path class="st0" d="M283.6,241h4l3.1,10.7h0.1L294,241h4l3.2,10.7h0.1l3.2-10.7h3.9l-5.1,14.9h-3.8l-3.4-10.4H296l-3.3,10.4
				h-3.8L283.6,241z"/>
			<path class="st0" d="M319.9,253.9L319.9,253.9c-0.5,0.7-1.1,1.2-1.9,1.6c-0.8,0.4-1.8,0.6-2.8,0.6c-0.6,0-1.2-0.1-1.9-0.2
				c-0.7-0.2-1.2-0.4-1.8-0.8c-0.5-0.4-1-0.8-1.4-1.4c-0.4-0.6-0.5-1.3-0.5-2.2c0-1.1,0.3-2,0.9-2.7c0.6-0.7,1.4-1.2,2.4-1.5
				c1-0.4,2.1-0.6,3.3-0.7s2.4-0.2,3.5-0.2v-0.4c0-0.9-0.3-1.6-1-2.1c-0.7-0.4-1.5-0.7-2.4-0.7c-0.8,0-1.5,0.2-2.3,0.5
				c-0.7,0.3-1.3,0.7-1.8,1.2l-1.9-2.3c0.8-0.8,1.8-1.4,2.9-1.8s2.2-0.6,3.4-0.6c1.3,0,2.4,0.2,3.3,0.6c0.9,0.4,1.5,0.9,2,1.5
				s0.8,1.3,1,2c0.2,0.7,0.3,1.5,0.3,2.2v9.1h-3.5V253.9z M319.9,249H319c-0.6,0-1.2,0-1.9,0.1c-0.7,0.1-1.3,0.2-1.8,0.3
				c-0.6,0.2-1,0.4-1.4,0.7c-0.4,0.3-0.6,0.8-0.6,1.3c0,0.4,0.1,0.6,0.2,0.9c0.2,0.2,0.4,0.4,0.6,0.6s0.5,0.2,0.8,0.3
				c0.3,0.1,0.6,0.1,0.9,0.1c1.3,0,2.3-0.3,2.9-1c0.7-0.7,1-1.6,1-2.8V249z"/>
			<path class="st0" d="M325.5,241h4.1l4.2,10.8h0.1l3.7-10.8h3.9l-7,18.1c-0.3,0.7-0.6,1.3-0.9,1.8c-0.3,0.5-0.7,1-1.1,1.3
				c-0.4,0.4-0.9,0.6-1.5,0.8c-0.6,0.2-1.3,0.3-2.1,0.3c-0.3,0-0.6,0-0.9,0s-0.6-0.1-1-0.2l0.3-3.2c0.2,0.1,0.5,0.1,0.7,0.2
				c0.2,0,0.5,0,0.7,0c0.4,0,0.7,0,1-0.1c0.3-0.1,0.5-0.2,0.7-0.4c0.2-0.2,0.4-0.4,0.5-0.7c0.1-0.3,0.3-0.6,0.5-1l0.7-1.9L325.5,241
				z"/>
			<path class="st0" d="M341.8,253.7c0-0.7,0.2-1.2,0.7-1.7c0.5-0.5,1.1-0.7,1.8-0.7c0.7,0,1.2,0.2,1.7,0.7c0.5,0.5,0.7,1,0.7,1.7
				c0,0.7-0.2,1.2-0.7,1.7c-0.5,0.5-1.1,0.7-1.8,0.7c-0.3,0-0.6-0.1-0.9-0.2c-0.3-0.1-0.6-0.3-0.8-0.5c-0.2-0.2-0.4-0.5-0.5-0.7
				C341.9,254.3,341.8,254,341.8,253.7z"/>
		</g>
	</g>
</g>
</svg>
