<?xml version="1.0" encoding="utf-8"?>
<!-- Generator: Adobe Illustrator 16.0.4, SVG Export Plug-In . SVG Version: 6.00 Build 0)  -->
<!DOCTYPE svg PUBLIC "-//W3C//DTD SVG 1.1//EN" "http://www.w3.org/Graphics/SVG/1.1/DTD/svg11.dtd">
<svg version="1.1" id="Layer_1" xmlns="http://www.w3.org/2000/svg" xmlns:xlink="http://www.w3.org/1999/xlink" x="0px" y="0px"
	 width="181.13px" height="45.77px" viewBox="0 0 181.13 45.77" enable-background="new 0 0 181.13 45.77" xml:space="preserve">
<g>
	<path d="M3.76,17.63c0.09,0,0.15-0.06,0.15-0.12V3.84L2.22,3.79c0-0.84,0.03-1.71,0.06-2.5c1.07,0,2.58,0,3.8,0
		c0.9,0,6.09,0,6.79,0c1.22,0,2.23-0.03,2.87-0.03c0.12,1.71,0.23,3.45,0.29,5.17c-0.84,0.12-1.86,0.23-2.84,0.32l-0.46-2.23
		c-0.06-0.26-0.17-0.44-0.58-0.49S10.9,3.84,9.1,3.84c-0.09,0-0.2,0-0.29,0L8.78,9.36c0.9,0,1.74-0.03,2.55-0.06
		c0.17-0.03,0.32-0.23,0.38-0.55l0.17-1.1c0.93,0,1.89,0.03,2.73,0.06c0,0.9-0.03,1.97-0.03,3.02s-0.03,2.09-0.03,2.84
		c-0.84,0.06-1.8,0.09-2.73,0.09l-0.15-1.16c-0.03-0.44-0.17-0.61-0.44-0.61c-0.81-0.03-1.62-0.06-2.47-0.06l-0.03,5.14
		c0,0.55,0.2,0.64,1.51,0.64c1.19,0,1.92-0.09,2.32-0.17c0.29-0.09,0.44-0.23,0.55-0.55l0.84-2.32c0.99,0.15,2,0.35,2.84,0.52
		c-0.32,1.68-0.7,3.4-1.07,5.11c-1.45,0-5.49-0.03-9.52-0.03c-1.33,0-2.81,0.03-3.98,0.03c0-0.81,0-1.68,0.03-2.47L3.76,17.63z"/>
	<path d="M19.82,17.63c0.12,0,0.2-0.06,0.29-0.15c1.94-2.23,3.57-4.15,5.43-6.33v-0.2c-1.65-2.15-3.51-4.85-5.05-7.02
		c-0.03-0.06-0.09-0.12-0.17-0.12L18.8,3.76c0-0.81,0.03-1.71,0.06-2.47c1.07,0,2.61,0,3.92,0c1.74,0,3.69,0,5.17-0.03
		c0,0.78,0,1.71-0.03,2.5l-1.6,0.09c0.99,1.65,1.86,3.08,2.55,4.09h0.2c1.07-1.42,1.92-2.73,2.61-3.95
		c0.03-0.06,0.03-0.15-0.09-0.15l-1.45-0.06c0-0.81,0-1.74,0.03-2.5c1.28,0,2.84,0,4.38,0c0.9,0,1.92,0,2.73,0
		c0,0.75,0,1.65-0.03,2.47l-1.33,0.09c-1.68,2.09-3.69,4.38-5.28,6.15v0.17c1.65,2.15,3.95,5.31,5.54,7.46l1.42,0.09
		c0,0.75-0.03,1.65-0.06,2.47c-1.04,0-2.55-0.03-3.77-0.03c-1.77,0-3.8,0.03-5.37,0.03c0-0.81,0-1.71,0.03-2.5l1.6-0.09
		c0.12,0,0.17-0.09,0.12-0.17c-1.02-1.51-2.03-3.13-2.79-4.12h-0.17c-1.07,1.42-2.15,2.96-3.02,4.27l1.71,0.12
		c0,0.78,0,1.68-0.03,2.5c-1.28,0-2.93-0.03-4.5-0.03c-0.96,0-2.03,0.03-2.93,0.03c0-0.81,0-1.68,0.03-2.47L19.82,17.63z"/>
	<path d="M40.05,3.79c0-0.78,0.03-1.68,0.03-2.47c2.09-0.03,4.64-0.06,7.05-0.06c1.31,0,2.64,0,4.24,0.49
		c2.38,0.75,3.92,3.13,3.92,5.6c0,2.26-1.51,4.41-3.42,5.37c-1.33,0.7-3.37,0.93-4.06,0.93c-0.38,0-1.16,0-1.36-0.03l-0.03,4.03
		l2.64,0.09c0,0.75,0,1.65-0.03,2.41c-1.45,0-3.45,0-5.22,0c-1.22,0-2.58,0-3.69,0c0-0.75,0-1.65,0.03-2.41l1.36-0.09
		c0.09,0,0.12-0.06,0.12-0.12V3.84L40.05,3.79z M46.43,10.9c0,0.26,0.52,0.29,1.02,0.29c0.73,0,1.45-0.26,1.97-0.78
		c0.61-0.58,0.96-1.63,0.96-2.9c0-2.15-1.31-3.89-2.96-3.89c-0.44,0-0.81,0.03-0.93,0.09L46.43,10.9z"/>
	<path d="M59.76,17.63c0.09,0,0.15-0.06,0.15-0.12V3.84l-1.68-0.06c0-0.84,0.03-1.71,0.06-2.5c1.07,0,2.58,0,3.8,0
		c0.9,0,6.09,0,6.79,0c1.22,0,2.23-0.03,2.87-0.03c0.12,1.71,0.23,3.45,0.29,5.17c-0.84,0.12-1.86,0.23-2.84,0.32l-0.46-2.23
		c-0.06-0.26-0.17-0.44-0.58-0.49S66.9,3.84,65.1,3.84c-0.09,0-0.2,0-0.29,0l-0.03,5.51c0.9,0,1.74-0.03,2.55-0.06
		c0.17-0.03,0.32-0.23,0.38-0.55l0.17-1.1c0.93,0,1.89,0.03,2.73,0.06c0,0.9-0.03,1.97-0.03,3.02s-0.03,2.09-0.03,2.84
		c-0.84,0.06-1.8,0.09-2.73,0.09l-0.15-1.16c-0.03-0.44-0.17-0.61-0.44-0.61c-0.81-0.03-1.62-0.06-2.47-0.06l-0.03,5.14
		c0,0.55,0.2,0.64,1.51,0.64c1.19,0,1.92-0.09,2.32-0.17c0.29-0.09,0.44-0.23,0.55-0.55l0.84-2.32c0.99,0.15,2,0.35,2.84,0.52
		c-0.32,1.68-0.7,3.4-1.07,5.11c-1.45,0-5.49-0.03-9.52-0.03c-1.33,0-2.81,0.03-3.98,0.03c0-0.81,0-1.68,0.03-2.47L59.76,17.63z"/>
	<path d="M76.25,3.79c0-0.84,0-1.65,0.03-2.47c1.97-0.03,4.44-0.06,6.7-0.06c1.65,0,2.55,0,4.27,0.41c2.52,0.55,4.15,2.82,4.15,4.67
		c0,2.47-1.57,4.21-3.6,5.05v0.17c1.28,0.61,1.97,2.26,3.28,4.96c0.32,0.73,0.52,1.02,0.87,1.04l1.39,0.17
		c0,0.78-0.03,1.6-0.03,2.41c-0.52,0-1.57,0.03-2.12,0.03c-0.64,0-3.11,0.03-3.66,0.03c-0.75-1.31-2.15-4.67-2.73-6.04
		c-0.38-0.9-0.9-1.25-1.57-1.25c-0.35,0-0.58,0.03-0.67,0.06l-0.03,4.67l1.57,0.09c-0.03,0.81-0.03,1.6-0.03,2.41
		c-1.13,0-2.73,0-4.15,0c-1.22,0-2.58,0-3.69,0c0.03-0.81,0.03-1.6,0.03-2.41l1.42-0.09c0.06,0,0.09-0.06,0.09-0.09l0.03-13.73
		L76.25,3.79z M82.57,10.55c0.12,0.03,0.29,0.03,0.7,0.03c1.94,0,3.13-1.36,3.13-3.28c0-2.12-1.31-3.69-2.84-3.69
		c-0.49,0-0.75,0.03-0.93,0.09L82.57,10.55z"/>
	<path d="M95.9,3.76c0-0.81,0-1.68,0.03-2.47c1.22,0,3.02,0,4.38,0c1.42,0,3.08,0,4.29,0c0,0.75-0.03,1.68-0.03,2.47l-1.83,0.09
		c-0.06,0-0.06,0.03-0.06,0.15l-0.09,13.58l1.94,0.12c0,0.78,0,1.65-0.03,2.5c-1.19,0-2.9-0.03-4.35-0.03
		c-1.34,0-2.96,0.03-4.3,0.03c0-0.81,0.03-1.71,0.03-2.52l1.68-0.06c0.06,0,0.12-0.06,0.12-0.12V3.84L95.9,3.76z"/>
	<path d="M109.48,17.63c0.09,0,0.14-0.06,0.14-0.12V3.84l-1.68-0.06c0-0.84,0.03-1.71,0.06-2.5c1.07,0,2.58,0,3.8,0
		c0.9,0,6.09,0,6.79,0c1.22,0,2.23-0.03,2.87-0.03c0.12,1.71,0.23,3.45,0.29,5.17c-0.84,0.12-1.86,0.23-2.84,0.32l-0.46-2.23
		c-0.06-0.26-0.17-0.44-0.58-0.49c-0.41-0.06-1.25-0.17-3.05-0.17c-0.09,0-0.2,0-0.29,0l-0.03,5.51c0.9,0,1.74-0.03,2.55-0.06
		c0.17-0.03,0.32-0.23,0.38-0.55l0.17-1.1c0.93,0,1.89,0.03,2.73,0.06c0,0.9-0.03,1.97-0.03,3.02s-0.03,2.09-0.03,2.84
		c-0.84,0.06-1.8,0.09-2.73,0.09l-0.14-1.16c-0.03-0.44-0.17-0.61-0.44-0.61c-0.81-0.03-1.62-0.06-2.47-0.06l-0.03,5.14
		c0,0.55,0.2,0.64,1.51,0.64c1.19,0,1.92-0.09,2.32-0.17c0.29-0.09,0.44-0.23,0.55-0.55l0.84-2.32c0.99,0.15,2,0.35,2.84,0.52
		c-0.32,1.68-0.7,3.4-1.07,5.11c-1.45,0-5.49-0.03-9.52-0.03c-1.33,0-2.81,0.03-3.98,0.03c0-0.81,0-1.68,0.03-2.47L109.48,17.63z"/>
	<path d="M127.08,17.6c0.06,0,0.09-0.03,0.09-0.12l-0.03-13.67l-1.68-0.06c0-0.81,0-1.68,0.03-2.47c1.63,0,3.89,0,5.57,0
		c2.21,3.16,5.83,8.74,8.3,12.6h0.17c-0.06-3.31-0.06-6.7-0.09-10.07l-2.12-0.06c0-0.78,0.03-1.71,0.06-2.47c1.13,0,2.5,0,3.77,0
		c1.02,0,2.21-0.03,3.08-0.03c0,0.78,0,1.65-0.03,2.47l-1.28,0.09c-0.06,0-0.12,0.03-0.12,0.15l-0.12,15.9
		c-0.61,0.26-2.06,0.55-3.54,0.55c-1.91-2.29-5.17-6.5-8.5-11.49l-0.2,0.03c0,2.96-0.03,5.78-0.06,8.65l2.15,0.06
		c0,0.81,0,1.71-0.03,2.5c-1.22,0-2.79,0-4.15,0c-0.96,0-1.95,0.03-2.76,0.03c0-0.81,0-1.68,0.03-2.5L127.08,17.6z"/>
	<path d="M151.37,3.29c1.97-1.54,4.56-2.29,7.14-2.29c1.8,0,3.11,0.17,3.83,0.44c0.17,1.94,0.32,3.92,0.43,5.92
		c-0.96,0.15-2,0.29-3.05,0.41l-0.7-3.05c-0.03-0.12-0.06-0.29-0.17-0.35c-0.32-0.2-0.75-0.38-1.36-0.38
		c-0.93,0-1.95,0.38-2.76,1.22c-1.28,1.33-1.97,3.25-1.97,5.69c0,2.5,0.52,4.12,1.68,5.17c0.87,0.81,2.23,1.19,3.39,1.19
		c1.31,0,3.54-0.44,4.5-0.81c0.23,0.84,0.41,1.92,0.52,2.7c-1.86,0.73-4.56,1.31-6.04,1.31c-2.23,0-4.5-0.49-6.18-1.71
		c-1.83-1.34-3.28-3.83-3.28-6.88C147.37,7.73,149.23,4.98,151.37,3.29z"/>
	<path d="M167.83,17.63c0.09,0,0.14-0.06,0.14-0.12V3.84l-1.68-0.06c0-0.84,0.03-1.71,0.06-2.5c1.07,0,2.58,0,3.8,0
		c0.9,0,6.09,0,6.79,0c1.22,0,2.23-0.03,2.87-0.03c0.12,1.71,0.23,3.45,0.29,5.17c-0.84,0.12-1.86,0.23-2.84,0.32l-0.46-2.23
		c-0.06-0.26-0.17-0.44-0.58-0.49c-0.41-0.06-1.25-0.17-3.05-0.17c-0.09,0-0.2,0-0.29,0l-0.03,5.51c0.9,0,1.74-0.03,2.55-0.06
		c0.17-0.03,0.32-0.23,0.38-0.55l0.17-1.1c0.93,0,1.89,0.03,2.73,0.06c0,0.9-0.03,1.97-0.03,3.02s-0.03,2.09-0.03,2.84
		c-0.84,0.06-1.8,0.09-2.73,0.09l-0.14-1.16c-0.03-0.44-0.17-0.61-0.44-0.61c-0.81-0.03-1.62-0.06-2.47-0.06l-0.03,5.14
		c0,0.55,0.2,0.64,1.51,0.64c1.19,0,1.92-0.09,2.32-0.17c0.29-0.09,0.44-0.23,0.55-0.55l0.84-2.32c0.99,0.15,2,0.35,2.84,0.52
		c-0.32,1.68-0.7,3.4-1.07,5.11c-1.45,0-5.49-0.03-9.52-0.03c-1.33,0-2.81,0.03-3.98,0.03c0-0.81,0-1.68,0.03-2.47L167.83,17.63z"/>
	<path d="M5.42,43.69c0.06,0,0.08-0.04,0.08-0.11v-3.15c-0.91-1.59-2.62-4.89-3.56-6.67c0-0.04-0.06-0.13-0.11-0.13L1,33.6
		c0-0.59,0-1.25,0.02-1.8c0.7,0,1.84,0,2.67,0c1.25,0,2.71,0,3.75,0c0,0.55-0.02,1.21-0.04,1.8l-1.27,0.06
		c0.63,1.57,1.4,3.3,2.03,4.68h0.11c0.76-1.44,1.5-2.94,2.14-4.57c0.02-0.04-0.02-0.08-0.06-0.11l-1.14-0.04
		c0-0.59,0.02-1.23,0.04-1.82c0.87,0,1.97,0,2.98,0c0.68,0,1.38,0,1.9,0c0,0.57,0,1.23-0.04,1.82l-0.93,0.04
		c-0.97,1.69-2.81,4.85-4.02,6.73l-0.04,3.28l1.57,0.08c0,0.57,0,1.21-0.02,1.82c-0.91,0-2.2-0.02-3.3-0.02
		c-1.02,0-2.24,0.02-3.26,0.02c0-0.59,0-1.23,0.02-1.82L5.42,43.69z"/>
	<path d="M16.28,44.01c-1.29-1.29-1.9-2.96-1.9-5.21c0-2.79,1.4-5.02,3.13-6.07c1.31-0.8,2.62-1.14,4.25-1.14
		c1.33,0,2.56,0.34,3.66,1.04c1.63,1.04,2.69,3.24,2.69,5.71c0,2.05-0.72,4.23-2.16,5.61c-1.33,1.23-3.01,1.82-5.06,1.82
		C19.01,45.77,17.32,45.07,16.28,44.01z M23.14,43.1c0.74-0.95,1.02-2.52,1.02-4.28c0-1.71-0.36-3.24-0.87-4.21
		c-0.42-0.83-1.1-1.23-1.88-1.23c-0.87,0-1.46,0.32-1.95,0.91c-0.61,0.76-1.08,2.27-1.08,4.28c0,2.14,0.3,3.51,1.04,4.42
		c0.59,0.72,1.27,0.95,1.93,0.95C22.02,43.95,22.59,43.84,23.14,43.1z"/>
	<path d="M34.38,40.03c0,1.61,0.27,2.33,0.76,2.9c0.42,0.47,0.97,0.68,1.69,0.68c0.78,0,1.25-0.32,1.61-0.74
		c0.49-0.55,0.72-1.74,0.72-3.13c0-1.71,0-4.3-0.04-6.03c0-0.04-0.04-0.06-0.08-0.06l-1.48-0.06c0-0.57,0.02-1.21,0.02-1.78
		c0.78,0,1.88,0,2.81,0c0.89,0,1.76,0,2.52,0c0,0.57,0,1.18-0.02,1.78l-0.99,0.06l-0.06,5.78c0,2.54-0.76,4.13-1.57,4.91
		c-0.78,0.83-1.84,1.44-3.81,1.44c-1.86,0-3.17-0.36-4.23-1.31c-1.21-1.1-1.5-2.79-1.5-4.36v-6.35c0-0.06-0.02-0.13-0.11-0.13
		l-0.93-0.04c0-0.59,0-1.21,0.02-1.78c0.83,0,2.01,0,2.92,0c1.12,0,2.33,0,3.28,0c0,0.55,0,1.21-0.02,1.8l-1.44,0.04L34.38,40.03z"
		/>
	<path d="M44.46,33.62c0-0.61,0-1.21,0.02-1.8c1.44-0.02,3.24-0.04,4.89-0.04c1.21,0,1.86,0,3.11,0.3c1.84,0.4,3.03,2.05,3.03,3.41
		c0,1.8-1.14,3.07-2.62,3.68v0.13c0.93,0.44,1.44,1.65,2.39,3.62c0.23,0.53,0.38,0.74,0.63,0.76l1.02,0.13
		c0,0.57-0.02,1.16-0.02,1.76c-0.38,0-1.14,0.02-1.54,0.02c-0.47,0-2.26,0.02-2.67,0.02c-0.55-0.95-1.57-3.41-1.99-4.4
		c-0.27-0.66-0.66-0.91-1.14-0.91c-0.25,0-0.42,0.02-0.49,0.04l-0.02,3.41l1.14,0.06c-0.02,0.59-0.02,1.16-0.02,1.76
		c-0.83,0-1.99,0-3.03,0c-0.89,0-1.88,0-2.69,0c0.02-0.59,0.02-1.16,0.02-1.76l1.04-0.06c0.04,0,0.06-0.04,0.06-0.06l0.02-10.01
		L44.46,33.62z M49.07,38.55c0.08,0.02,0.21,0.02,0.51,0.02c1.42,0,2.29-0.99,2.29-2.39c0-1.54-0.95-2.69-2.07-2.69
		c-0.36,0-0.55,0.02-0.68,0.06L49.07,38.55z"/>
	<path d="M63.72,43.71c0.06,0,0.11-0.04,0.11-0.08v-9.97l-1.23-0.04c0-0.61,0.02-1.25,0.04-1.82c0.78,0,1.88,0,2.77,0
		c0.66,0,4.44,0,4.95,0c0.89,0,1.63-0.02,2.1-0.02c0.08,1.25,0.17,2.52,0.21,3.77c-0.61,0.08-1.35,0.17-2.07,0.23l-0.34-1.63
		c-0.04-0.19-0.13-0.32-0.42-0.36c-0.3-0.04-0.91-0.13-2.22-0.13c-0.06,0-0.15,0-0.21,0l-0.02,4.02c0.66,0,1.27-0.02,1.86-0.04
		c0.13-0.02,0.23-0.17,0.28-0.4l0.13-0.8c0.68,0,1.38,0.02,1.99,0.04c0,0.66-0.02,1.44-0.02,2.2c0,0.76-0.02,1.52-0.02,2.07
		c-0.61,0.04-1.31,0.06-1.99,0.06l-0.11-0.85c-0.02-0.32-0.13-0.44-0.32-0.44c-0.59-0.02-1.19-0.04-1.8-0.04l-0.02,3.75
		c0,0.4,0.15,0.47,1.1,0.47c0.87,0,1.4-0.06,1.69-0.13c0.21-0.06,0.32-0.17,0.4-0.4l0.61-1.69c0.72,0.11,1.46,0.25,2.07,0.38
		c-0.23,1.23-0.51,2.48-0.78,3.72c-1.06,0-4-0.02-6.94-0.02c-0.97,0-2.05,0.02-2.9,0.02c0-0.59,0-1.23,0.02-1.8L63.72,43.71z"/>
	<path d="M75.06,43.8l1.08-0.08c0.06,0,0.08-0.04,0.08-0.08l0.02-9.95l-1.23-0.04c0-0.61,0-1.21,0.02-1.8
		c1.57-0.04,3.43-0.06,5.16-0.06c2.22,0,3.72,0.36,4.78,0.93c1.8,1,3.15,3.11,3.15,5.4c0,3-1.38,5.18-3.09,6.33
		c-1.25,0.85-3.13,1.14-4.66,1.14c-0.68,0-1.74-0.02-2.46-0.02c-0.95,0-2.03,0-2.9,0C75.04,44.98,75.04,44.35,75.06,43.8z
		 M79.82,43.44c-0.02,0.27,0.21,0.44,0.51,0.44c0.83,0,1.74-0.19,2.56-0.93c0.97-0.91,1.38-2.62,1.38-4c0-2.22-0.47-3.49-1.59-4.57
		c-0.72-0.7-1.59-0.89-2.16-0.89c-0.3,0-0.49,0.02-0.63,0.08L79.82,43.44z"/>
	<path d="M94.49,40.03c0,1.61,0.27,2.33,0.76,2.9c0.42,0.47,0.97,0.68,1.69,0.68c0.78,0,1.25-0.32,1.61-0.74
		c0.49-0.55,0.72-1.74,0.72-3.13c0-1.71,0-4.3-0.04-6.03c0-0.04-0.04-0.06-0.08-0.06l-1.48-0.06c0-0.57,0.02-1.21,0.02-1.78
		c0.78,0,1.88,0,2.81,0c0.89,0,1.76,0,2.52,0c0,0.57,0,1.18-0.02,1.78l-0.99,0.06l-0.06,5.78c0,2.54-0.76,4.13-1.57,4.91
		c-0.78,0.83-1.84,1.44-3.81,1.44c-1.86,0-3.17-0.36-4.23-1.31c-1.21-1.1-1.5-2.79-1.5-4.36v-6.35c0-0.06-0.02-0.13-0.11-0.13
		l-0.93-0.04c0-0.59,0-1.21,0.02-1.78c0.83,0,2.01,0,2.92,0c1.12,0,2.33,0,3.28,0c0,0.55,0,1.21-0.02,1.8l-1.44,0.04L94.49,40.03z"
		/>
	<path d="M107.3,33.26c1.44-1.12,3.32-1.67,5.21-1.67c1.31,0,2.26,0.13,2.79,0.32c0.13,1.42,0.23,2.86,0.32,4.32
		c-0.7,0.11-1.46,0.21-2.22,0.3l-0.51-2.22c-0.02-0.08-0.04-0.21-0.13-0.25c-0.23-0.15-0.55-0.27-1-0.27
		c-0.68,0-1.42,0.27-2.01,0.89c-0.93,0.97-1.44,2.37-1.44,4.15c0,1.82,0.38,3.01,1.23,3.77c0.63,0.59,1.63,0.87,2.48,0.87
		c0.95,0,2.58-0.32,3.28-0.59c0.17,0.61,0.3,1.4,0.38,1.97c-1.36,0.53-3.32,0.95-4.4,0.95c-1.63,0-3.28-0.36-4.51-1.25
		c-1.33-0.97-2.39-2.79-2.39-5.02C104.38,36.5,105.73,34.49,107.3,33.26z"/>
	<path d="M117.78,43.71c0.04,0,0.11-0.04,0.13-0.11c1.29-3.43,3.15-8.44,4.42-11.89c0.38-0.04,1.35-0.04,2.9-0.04
		c1.23,3.56,2.9,8.61,4.06,12.02l1.08,0.08c0,0.57,0,1.18-0.02,1.78c-0.7,0-1.74,0-2.54,0c-1.1,0-2.43,0-3.41,0
		c0-0.59,0-1.21,0.02-1.8l1.04-0.06c0.04,0,0.08-0.04,0.06-0.11c-0.11-0.32-0.3-0.99-0.42-1.31c-0.02-0.08-0.06-0.11-0.15-0.11
		l-3.92,0.04c-0.11,0.46-0.28,1.06-0.36,1.5l1.16,0.06c0,0.57,0,1.18-0.02,1.78c-0.85,0-1.95,0-2.98,0c-0.7,0-1.44,0-2.07,0
		c0-0.59,0.02-1.21,0.04-1.78L117.78,43.71z M123.02,35.61c-0.49,1.57-1,3.24-1.44,4.68c-0.02,0.08-0.02,0.13,0.04,0.13h2.96
		c-0.44-1.4-0.95-3.13-1.46-4.8H123.02z"/>
	<path d="M134.37,43.69c0.04,0,0.06-0.04,0.06-0.08v-9.9c-0.8,0-1.16,0.06-1.46,0.11c-0.3,0.06-0.36,0.21-0.4,0.42l-0.38,2.03
		c-0.74-0.04-1.57-0.11-2.24-0.19c0.08-1.44,0.17-2.88,0.28-4.3c0.44,0,1.25,0.02,1.99,0.02c0.55,0,3.36,0,4.15,0
		c0.66,0,3.39,0,3.96,0c0.85-0.02,1.59-0.02,2.01-0.02c0.08,1.42,0.17,2.86,0.21,4.28c-0.7,0.08-1.5,0.15-2.26,0.21l-0.34-2.03
		c-0.04-0.23-0.13-0.34-0.4-0.4c-0.28-0.06-0.53-0.11-1.46-0.11l-0.06,9.95l1.52,0.08c0,0.57,0,1.21-0.02,1.82
		c-0.89,0-2.16-0.02-3.28-0.02c-1.02,0-2.26,0.02-3.32,0.02c0-0.61,0.02-1.23,0.02-1.82L134.37,43.69z"/>
	<path d="M144.19,33.6c0-0.59,0-1.23,0.02-1.8c0.89,0,2.2,0,3.2,0c1.04,0,2.24,0,3.13,0c0,0.55-0.02,1.23-0.02,1.8l-1.33,0.06
		c-0.04,0-0.04,0.02-0.04,0.11l-0.06,9.9l1.42,0.08c0,0.57,0,1.21-0.02,1.82c-0.87,0-2.12-0.02-3.17-0.02
		c-0.97,0-2.16,0.02-3.13,0.02c0-0.59,0.02-1.25,0.02-1.84l1.23-0.04c0.04,0,0.08-0.04,0.08-0.08v-9.95L144.19,33.6z"/>
	<path d="M154.04,44.01c-1.29-1.29-1.91-2.96-1.91-5.21c0-2.79,1.4-5.02,3.13-6.07c1.31-0.8,2.62-1.14,4.25-1.14
		c1.33,0,2.56,0.34,3.66,1.04c1.63,1.04,2.69,3.24,2.69,5.71c0,2.05-0.72,4.23-2.16,5.61c-1.33,1.23-3.01,1.82-5.06,1.82
		C156.77,45.77,155.07,45.07,154.04,44.01z M160.89,43.1c0.74-0.95,1.02-2.52,1.02-4.28c0-1.71-0.36-3.24-0.87-4.21
		c-0.42-0.83-1.1-1.23-1.88-1.23c-0.87,0-1.46,0.32-1.95,0.91c-0.61,0.76-1.08,2.27-1.08,4.28c0,2.14,0.3,3.51,1.04,4.42
		c0.59,0.72,1.27,0.95,1.93,0.95C159.77,43.95,160.34,43.84,160.89,43.1z"/>
	<path d="M168.62,43.69c0.04,0,0.06-0.02,0.06-0.08l-0.02-9.97l-1.23-0.04c0-0.59,0-1.23,0.02-1.8c1.18,0,2.84,0,4.06,0
		c1.61,2.31,4.25,6.37,6.05,9.18h0.13c-0.04-2.41-0.04-4.89-0.06-7.34l-1.54-0.04c0-0.57,0.02-1.25,0.04-1.8c0.83,0,1.82,0,2.75,0
		c0.74,0,1.61-0.02,2.24-0.02c0,0.57,0,1.21-0.02,1.8l-0.93,0.06c-0.04,0-0.08,0.02-0.08,0.11l-0.08,11.6
		c-0.44,0.19-1.5,0.4-2.58,0.4c-1.4-1.67-3.77-4.74-6.2-8.38l-0.15,0.02c0,2.16-0.02,4.21-0.04,6.31l1.57,0.04
		c0,0.59,0,1.25-0.02,1.82c-0.89,0-2.03,0-3.03,0c-0.7,0-1.42,0.02-2.01,0.02c0-0.59,0-1.23,0.02-1.82L168.62,43.69z"/>
</g>
<g>
	<path fill="#FFFFFF" d="M2.76,16.63c0.09,0,0.15-0.06,0.15-0.12V2.84L1.22,2.79c0-0.84,0.03-1.71,0.06-2.5c1.07,0,2.58,0,3.8,0
		c0.9,0,6.09,0,6.79,0c1.22,0,2.23-0.03,2.87-0.03c0.12,1.71,0.23,3.45,0.29,5.17c-0.84,0.12-1.86,0.23-2.84,0.32l-0.46-2.23
		c-0.06-0.26-0.17-0.44-0.58-0.49S9.9,2.84,8.1,2.84c-0.09,0-0.2,0-0.29,0L7.78,8.36c0.9,0,1.74-0.03,2.55-0.06
		c0.17-0.03,0.32-0.23,0.38-0.55l0.17-1.1c0.93,0,1.89,0.03,2.73,0.06c0,0.9-0.03,1.97-0.03,3.02s-0.03,2.09-0.03,2.84
		c-0.84,0.06-1.8,0.09-2.73,0.09l-0.15-1.16c-0.03-0.44-0.17-0.61-0.44-0.61c-0.81-0.03-1.62-0.06-2.47-0.06l-0.03,5.14
		c0,0.55,0.2,0.64,1.51,0.64c1.19,0,1.92-0.09,2.32-0.17c0.29-0.09,0.44-0.23,0.55-0.55l0.84-2.32c0.99,0.15,2,0.35,2.84,0.52
		c-0.32,1.68-0.7,3.4-1.07,5.11c-1.45,0-5.49-0.03-9.52-0.03c-1.33,0-2.81,0.03-3.98,0.03c0-0.81,0-1.68,0.03-2.47L2.76,16.63z"/>
	<path fill="#FFFFFF" d="M18.82,16.63c0.12,0,0.2-0.06,0.29-0.15c1.94-2.23,3.57-4.15,5.43-6.33v-0.2
		c-1.65-2.15-3.51-4.85-5.05-7.02c-0.03-0.06-0.09-0.12-0.17-0.12L17.8,2.76c0-0.81,0.03-1.71,0.06-2.47c1.07,0,2.61,0,3.92,0
		c1.74,0,3.69,0,5.17-0.03c0,0.78,0,1.71-0.03,2.5l-1.6,0.09c0.99,1.65,1.86,3.08,2.55,4.09h0.2c1.07-1.42,1.92-2.73,2.61-3.95
		c0.03-0.06,0.03-0.15-0.09-0.15l-1.45-0.06c0-0.81,0-1.74,0.03-2.5c1.28,0,2.84,0,4.38,0c0.9,0,1.92,0,2.73,0
		c0,0.75,0,1.65-0.03,2.47l-1.33,0.09C33.24,4.93,31.24,7.23,29.64,9v0.17c1.65,2.15,3.95,5.31,5.54,7.46l1.42,0.09
		c0,0.75-0.03,1.65-0.06,2.47c-1.04,0-2.55-0.03-3.77-0.03c-1.77,0-3.8,0.03-5.37,0.03c0-0.81,0-1.71,0.03-2.5l1.6-0.09
		c0.12,0,0.17-0.09,0.12-0.17c-1.02-1.51-2.03-3.13-2.79-4.12h-0.17c-1.07,1.42-2.15,2.96-3.02,4.27l1.71,0.12
		c0,0.78,0,1.68-0.03,2.5c-1.28,0-2.93-0.03-4.5-0.03c-0.96,0-2.03,0.03-2.93,0.03c0-0.81,0-1.68,0.03-2.47L18.82,16.63z"/>
	<path fill="#FFFFFF" d="M39.05,2.79c0-0.78,0.03-1.68,0.03-2.47c2.09-0.03,4.64-0.06,7.05-0.06c1.31,0,2.64,0,4.24,0.49
		c2.38,0.75,3.92,3.13,3.92,5.6c0,2.26-1.51,4.41-3.42,5.37c-1.33,0.7-3.37,0.93-4.06,0.93c-0.38,0-1.16,0-1.36-0.03l-0.03,4.03
		l2.64,0.09c0,0.75,0,1.65-0.03,2.41c-1.45,0-3.45,0-5.22,0c-1.22,0-2.58,0-3.69,0c0-0.75,0-1.65,0.03-2.41l1.36-0.09
		c0.09,0,0.12-0.06,0.12-0.12V2.84L39.05,2.79z M45.43,9.9c0,0.26,0.52,0.29,1.02,0.29c0.73,0,1.45-0.26,1.97-0.78
		c0.61-0.58,0.96-1.63,0.96-2.9c0-2.15-1.31-3.89-2.96-3.89c-0.44,0-0.81,0.03-0.93,0.09L45.43,9.9z"/>
	<path fill="#FFFFFF" d="M58.76,16.63c0.09,0,0.15-0.06,0.15-0.12V2.84l-1.68-0.06c0-0.84,0.03-1.71,0.06-2.5c1.07,0,2.58,0,3.8,0
		c0.9,0,6.09,0,6.79,0c1.22,0,2.23-0.03,2.87-0.03c0.12,1.71,0.23,3.45,0.29,5.17c-0.84,0.12-1.86,0.23-2.84,0.32l-0.46-2.23
		c-0.06-0.26-0.17-0.44-0.58-0.49S65.9,2.84,64.1,2.84c-0.09,0-0.2,0-0.29,0l-0.03,5.51c0.9,0,1.74-0.03,2.55-0.06
		c0.17-0.03,0.32-0.23,0.38-0.55l0.17-1.1c0.93,0,1.89,0.03,2.73,0.06c0,0.9-0.03,1.97-0.03,3.02s-0.03,2.09-0.03,2.84
		c-0.84,0.06-1.8,0.09-2.73,0.09l-0.15-1.16c-0.03-0.44-0.17-0.61-0.44-0.61c-0.81-0.03-1.62-0.06-2.47-0.06l-0.03,5.14
		c0,0.55,0.2,0.64,1.51,0.64c1.19,0,1.92-0.09,2.32-0.17c0.29-0.09,0.44-0.23,0.55-0.55l0.84-2.32c0.99,0.15,2,0.35,2.84,0.52
		c-0.32,1.68-0.7,3.4-1.07,5.11c-1.45,0-5.49-0.03-9.52-0.03c-1.33,0-2.81,0.03-3.98,0.03c0-0.81,0-1.68,0.03-2.47L58.76,16.63z"/>
	<path fill="#FFFFFF" d="M75.25,2.79c0-0.84,0-1.65,0.03-2.47c1.97-0.03,4.44-0.06,6.7-0.06c1.65,0,2.55,0,4.27,0.41
		c2.52,0.55,4.15,2.82,4.15,4.67c0,2.47-1.57,4.21-3.6,5.05v0.17c1.28,0.61,1.97,2.26,3.28,4.96c0.32,0.73,0.52,1.02,0.87,1.04
		l1.39,0.17c0,0.78-0.03,1.6-0.03,2.41c-0.52,0-1.57,0.03-2.12,0.03c-0.64,0-3.11,0.03-3.66,0.03c-0.75-1.31-2.15-4.67-2.73-6.04
		c-0.38-0.9-0.9-1.25-1.57-1.25c-0.35,0-0.58,0.03-0.67,0.06l-0.03,4.67l1.57,0.09c-0.03,0.81-0.03,1.6-0.03,2.41
		c-1.13,0-2.73,0-4.15,0c-1.22,0-2.58,0-3.69,0c0.03-0.81,0.03-1.6,0.03-2.41l1.42-0.09c0.06,0,0.09-0.06,0.09-0.09l0.03-13.73
		L75.25,2.79z M81.57,9.55c0.12,0.03,0.29,0.03,0.7,0.03c1.94,0,3.13-1.36,3.13-3.28c0-2.12-1.31-3.69-2.84-3.69
		c-0.49,0-0.75,0.03-0.93,0.09L81.57,9.55z"/>
	<path fill="#FFFFFF" d="M94.9,2.76c0-0.81,0-1.68,0.03-2.47c1.22,0,3.02,0,4.38,0c1.42,0,3.08,0,4.29,0c0,0.75-0.03,1.68-0.03,2.47
		l-1.83,0.09c-0.06,0-0.06,0.03-0.06,0.15l-0.09,13.58l1.94,0.12c0,0.78,0,1.65-0.03,2.5c-1.19,0-2.9-0.03-4.35-0.03
		c-1.34,0-2.96,0.03-4.3,0.03c0-0.81,0.03-1.71,0.03-2.52l1.68-0.06c0.06,0,0.12-0.06,0.12-0.12V2.84L94.9,2.76z"/>
	<path fill="#FFFFFF" d="M108.48,16.63c0.09,0,0.14-0.06,0.14-0.12V2.84l-1.68-0.06c0-0.84,0.03-1.71,0.06-2.5c1.07,0,2.58,0,3.8,0
		c0.9,0,6.09,0,6.79,0c1.22,0,2.23-0.03,2.87-0.03c0.12,1.71,0.23,3.45,0.29,5.17c-0.84,0.12-1.86,0.23-2.84,0.32l-0.46-2.23
		c-0.06-0.26-0.17-0.44-0.58-0.49c-0.41-0.06-1.25-0.17-3.05-0.17c-0.09,0-0.2,0-0.29,0l-0.03,5.51c0.9,0,1.74-0.03,2.55-0.06
		c0.17-0.03,0.32-0.23,0.38-0.55l0.17-1.1c0.93,0,1.89,0.03,2.73,0.06c0,0.9-0.03,1.97-0.03,3.02s-0.03,2.09-0.03,2.84
		c-0.84,0.06-1.8,0.09-2.73,0.09l-0.14-1.16c-0.03-0.44-0.17-0.61-0.44-0.61c-0.81-0.03-1.62-0.06-2.47-0.06l-0.03,5.14
		c0,0.55,0.2,0.64,1.51,0.64c1.19,0,1.92-0.09,2.32-0.17c0.29-0.09,0.44-0.23,0.55-0.55l0.84-2.32c0.99,0.15,2,0.35,2.84,0.52
		c-0.32,1.68-0.7,3.4-1.07,5.11c-1.45,0-5.49-0.03-9.52-0.03c-1.33,0-2.81,0.03-3.98,0.03c0-0.81,0-1.68,0.03-2.47L108.48,16.63z"/>
	<path fill="#FFFFFF" d="M126.08,16.6c0.06,0,0.09-0.03,0.09-0.12l-0.03-13.67l-1.68-0.06c0-0.81,0-1.68,0.03-2.47
		c1.63,0,3.89,0,5.57,0c2.21,3.16,5.83,8.74,8.3,12.6h0.17c-0.06-3.31-0.06-6.7-0.09-10.07l-2.12-0.06c0-0.78,0.03-1.71,0.06-2.47
		c1.13,0,2.5,0,3.77,0c1.02,0,2.21-0.03,3.08-0.03c0,0.78,0,1.65-0.03,2.47l-1.28,0.09c-0.06,0-0.12,0.03-0.12,0.15l-0.12,15.9
		c-0.61,0.26-2.06,0.55-3.54,0.55c-1.91-2.29-5.17-6.5-8.5-11.49l-0.2,0.03c0,2.96-0.03,5.78-0.06,8.65l2.15,0.06
		c0,0.81,0,1.71-0.03,2.5c-1.22,0-2.79,0-4.15,0c-0.96,0-1.95,0.03-2.76,0.03c0-0.81,0-1.68,0.03-2.5L126.08,16.6z"/>
	<path fill="#FFFFFF" d="M150.37,2.29c1.97-1.54,4.56-2.29,7.14-2.29c1.8,0,3.11,0.17,3.83,0.44c0.17,1.94,0.32,3.92,0.43,5.92
		c-0.96,0.15-2,0.29-3.05,0.41l-0.7-3.05c-0.03-0.12-0.06-0.29-0.17-0.35c-0.32-0.2-0.75-0.38-1.36-0.38
		c-0.93,0-1.95,0.38-2.76,1.22c-1.28,1.33-1.97,3.25-1.97,5.69c0,2.5,0.52,4.12,1.68,5.17c0.87,0.81,2.23,1.19,3.39,1.19
		c1.31,0,3.54-0.44,4.5-0.81c0.23,0.84,0.41,1.92,0.52,2.7c-1.86,0.73-4.56,1.31-6.04,1.31c-2.23,0-4.5-0.49-6.18-1.71
		c-1.83-1.34-3.28-3.83-3.28-6.88C146.37,6.73,148.23,3.98,150.37,2.29z"/>
	<path fill="#FFFFFF" d="M166.83,16.63c0.09,0,0.14-0.06,0.14-0.12V2.84l-1.68-0.06c0-0.84,0.03-1.71,0.06-2.5c1.07,0,2.58,0,3.8,0
		c0.9,0,6.09,0,6.79,0c1.22,0,2.23-0.03,2.87-0.03c0.12,1.71,0.23,3.45,0.29,5.17c-0.84,0.12-1.86,0.23-2.84,0.32l-0.46-2.23
		c-0.06-0.26-0.17-0.44-0.58-0.49c-0.41-0.06-1.25-0.17-3.05-0.17c-0.09,0-0.2,0-0.29,0l-0.03,5.51c0.9,0,1.74-0.03,2.55-0.06
		c0.17-0.03,0.32-0.23,0.38-0.55l0.17-1.1c0.93,0,1.89,0.03,2.73,0.06c0,0.9-0.03,1.97-0.03,3.02s-0.03,2.09-0.03,2.84
		c-0.84,0.06-1.8,0.09-2.73,0.09l-0.14-1.16c-0.03-0.44-0.17-0.61-0.44-0.61c-0.81-0.03-1.62-0.06-2.47-0.06l-0.03,5.14
		c0,0.55,0.2,0.64,1.51,0.64c1.19,0,1.92-0.09,2.32-0.17c0.29-0.09,0.44-0.23,0.55-0.55l0.84-2.32c0.99,0.15,2,0.35,2.84,0.52
		c-0.32,1.68-0.7,3.4-1.07,5.11c-1.45,0-5.49-0.03-9.52-0.03c-1.33,0-2.81,0.03-3.98,0.03c0-0.81,0-1.68,0.03-2.47L166.83,16.63z"/>
	<path fill="#FFFFFF" d="M4.42,42.69c0.06,0,0.08-0.04,0.08-0.11v-3.15c-0.91-1.59-2.62-4.89-3.56-6.67c0-0.04-0.06-0.13-0.11-0.13
		L0,32.6c0-0.59,0-1.25,0.02-1.8c0.7,0,1.84,0,2.67,0c1.25,0,2.71,0,3.75,0c0,0.55-0.02,1.21-0.04,1.8l-1.27,0.06
		c0.63,1.57,1.4,3.3,2.03,4.68h0.11c0.76-1.44,1.5-2.94,2.14-4.57c0.02-0.04-0.02-0.08-0.06-0.11l-1.14-0.04
		c0-0.59,0.02-1.23,0.04-1.82c0.87,0,1.97,0,2.98,0c0.68,0,1.38,0,1.9,0c0,0.57,0,1.23-0.04,1.82l-0.93,0.04
		c-0.97,1.69-2.81,4.85-4.02,6.73l-0.04,3.28l1.57,0.08c0,0.57,0,1.21-0.02,1.82c-0.91,0-2.2-0.02-3.3-0.02
		c-1.02,0-2.24,0.02-3.26,0.02c0-0.59,0-1.23,0.02-1.82L4.42,42.69z"/>
	<path fill="#FFFFFF" d="M15.28,43.01c-1.29-1.29-1.9-2.96-1.9-5.21c0-2.79,1.4-5.02,3.13-6.07c1.31-0.8,2.62-1.14,4.25-1.14
		c1.33,0,2.56,0.34,3.66,1.04c1.63,1.04,2.69,3.24,2.69,5.71c0,2.05-0.72,4.23-2.16,5.61c-1.33,1.23-3.01,1.82-5.06,1.82
		C18.01,44.77,16.32,44.07,15.28,43.01z M22.14,42.1c0.74-0.95,1.02-2.52,1.02-4.28c0-1.71-0.36-3.24-0.87-4.21
		c-0.42-0.83-1.1-1.23-1.88-1.23c-0.87,0-1.46,0.32-1.95,0.91c-0.61,0.76-1.08,2.27-1.08,4.28c0,2.14,0.3,3.51,1.04,4.42
		c0.59,0.72,1.27,0.95,1.93,0.95C21.02,42.95,21.59,42.84,22.14,42.1z"/>
	<path fill="#FFFFFF" d="M33.38,39.03c0,1.61,0.27,2.33,0.76,2.9c0.42,0.47,0.97,0.68,1.69,0.68c0.78,0,1.25-0.32,1.61-0.74
		c0.49-0.55,0.72-1.74,0.72-3.13c0-1.71,0-4.3-0.04-6.03c0-0.04-0.04-0.06-0.08-0.06l-1.48-0.06c0-0.57,0.02-1.21,0.02-1.78
		c0.78,0,1.88,0,2.81,0c0.89,0,1.76,0,2.52,0c0,0.57,0,1.18-0.02,1.78l-0.99,0.06l-0.06,5.78c0,2.54-0.76,4.13-1.57,4.91
		c-0.78,0.83-1.84,1.44-3.81,1.44c-1.86,0-3.17-0.36-4.23-1.31c-1.21-1.1-1.5-2.79-1.5-4.36v-6.35c0-0.06-0.02-0.13-0.11-0.13
		l-0.93-0.04c0-0.59,0-1.21,0.02-1.78c0.83,0,2.01,0,2.92,0c1.12,0,2.33,0,3.28,0c0,0.55,0,1.21-0.02,1.8l-1.44,0.04L33.38,39.03z"
		/>
	<path fill="#FFFFFF" d="M43.46,32.62c0-0.61,0-1.21,0.02-1.8c1.44-0.02,3.24-0.04,4.89-0.04c1.21,0,1.86,0,3.11,0.3
		c1.84,0.4,3.03,2.05,3.03,3.41c0,1.8-1.14,3.07-2.62,3.68v0.13c0.93,0.44,1.44,1.65,2.39,3.62c0.23,0.53,0.38,0.74,0.63,0.76
		l1.02,0.13c0,0.57-0.02,1.16-0.02,1.76c-0.38,0-1.14,0.02-1.54,0.02c-0.47,0-2.26,0.02-2.67,0.02c-0.55-0.95-1.57-3.41-1.99-4.4
		c-0.27-0.66-0.66-0.91-1.14-0.91c-0.25,0-0.42,0.02-0.49,0.04l-0.02,3.41l1.14,0.06c-0.02,0.59-0.02,1.16-0.02,1.76
		c-0.83,0-1.99,0-3.03,0c-0.89,0-1.88,0-2.69,0c0.02-0.59,0.02-1.16,0.02-1.76l1.04-0.06c0.04,0,0.06-0.04,0.06-0.06l0.02-10.01
		L43.46,32.62z M48.07,37.55c0.08,0.02,0.21,0.02,0.51,0.02c1.42,0,2.29-0.99,2.29-2.39c0-1.54-0.95-2.69-2.07-2.69
		c-0.36,0-0.55,0.02-0.68,0.06L48.07,37.55z"/>
	<path fill="#FFFFFF" d="M62.72,42.71c0.06,0,0.11-0.04,0.11-0.08v-9.97l-1.23-0.04c0-0.61,0.02-1.25,0.04-1.82
		c0.78,0,1.88,0,2.77,0c0.66,0,4.44,0,4.95,0c0.89,0,1.63-0.02,2.1-0.02c0.08,1.25,0.17,2.52,0.21,3.77
		c-0.61,0.08-1.35,0.17-2.07,0.23l-0.34-1.63c-0.04-0.19-0.13-0.32-0.42-0.36c-0.3-0.04-0.91-0.13-2.22-0.13c-0.06,0-0.15,0-0.21,0
		l-0.02,4.02c0.66,0,1.27-0.02,1.86-0.04c0.13-0.02,0.23-0.17,0.28-0.4l0.13-0.8c0.68,0,1.38,0.02,1.99,0.04
		c0,0.66-0.02,1.44-0.02,2.2c0,0.76-0.02,1.52-0.02,2.07c-0.61,0.04-1.31,0.06-1.99,0.06l-0.11-0.85c-0.02-0.32-0.13-0.44-0.32-0.44
		c-0.59-0.02-1.19-0.04-1.8-0.04l-0.02,3.75c0,0.4,0.15,0.47,1.1,0.47c0.87,0,1.4-0.06,1.69-0.13c0.21-0.06,0.32-0.17,0.4-0.4
		l0.61-1.69c0.72,0.11,1.46,0.25,2.07,0.38c-0.23,1.23-0.51,2.48-0.78,3.72c-1.06,0-4-0.02-6.94-0.02c-0.97,0-2.05,0.02-2.9,0.02
		c0-0.59,0-1.23,0.02-1.8L62.72,42.71z"/>
	<path fill="#FFFFFF" d="M74.06,42.8l1.08-0.08c0.06,0,0.08-0.04,0.08-0.08l0.02-9.95l-1.23-0.04c0-0.61,0-1.21,0.02-1.8
		c1.57-0.04,3.43-0.06,5.16-0.06c2.22,0,3.72,0.36,4.78,0.93c1.8,1,3.15,3.11,3.15,5.4c0,3-1.38,5.18-3.09,6.33
		c-1.25,0.85-3.13,1.14-4.66,1.14c-0.68,0-1.74-0.02-2.46-0.02c-0.95,0-2.03,0-2.9,0C74.04,43.98,74.04,43.35,74.06,42.8z
		 M78.82,42.44c-0.02,0.27,0.21,0.44,0.51,0.44c0.83,0,1.74-0.19,2.56-0.93c0.97-0.91,1.38-2.62,1.38-4c0-2.22-0.47-3.49-1.59-4.57
		c-0.72-0.7-1.59-0.89-2.16-0.89c-0.3,0-0.49,0.02-0.63,0.08L78.82,42.44z"/>
	<path fill="#FFFFFF" d="M93.49,39.03c0,1.61,0.27,2.33,0.76,2.9c0.42,0.47,0.97,0.68,1.69,0.68c0.78,0,1.25-0.32,1.61-0.74
		c0.49-0.55,0.72-1.74,0.72-3.13c0-1.71,0-4.3-0.04-6.03c0-0.04-0.04-0.06-0.08-0.06l-1.48-0.06c0-0.57,0.02-1.21,0.02-1.78
		c0.78,0,1.88,0,2.81,0c0.89,0,1.76,0,2.52,0c0,0.57,0,1.18-0.02,1.78l-0.99,0.06l-0.06,5.78c0,2.54-0.76,4.13-1.57,4.91
		c-0.78,0.83-1.84,1.44-3.81,1.44c-1.86,0-3.17-0.36-4.23-1.31c-1.21-1.1-1.5-2.79-1.5-4.36v-6.35c0-0.06-0.02-0.13-0.11-0.13
		l-0.93-0.04c0-0.59,0-1.21,0.02-1.78c0.83,0,2.01,0,2.92,0c1.12,0,2.33,0,3.28,0c0,0.55,0,1.21-0.02,1.8l-1.44,0.04L93.49,39.03z"
		/>
	<path fill="#FFFFFF" d="M106.3,32.26c1.44-1.12,3.32-1.67,5.21-1.67c1.31,0,2.26,0.13,2.79,0.32c0.13,1.42,0.23,2.86,0.32,4.32
		c-0.7,0.11-1.46,0.21-2.22,0.3l-0.51-2.22c-0.02-0.08-0.04-0.21-0.13-0.25c-0.23-0.15-0.55-0.27-1-0.27
		c-0.68,0-1.42,0.27-2.01,0.89c-0.93,0.97-1.44,2.37-1.44,4.15c0,1.82,0.38,3.01,1.23,3.77c0.63,0.59,1.63,0.87,2.48,0.87
		c0.95,0,2.58-0.32,3.28-0.59c0.17,0.61,0.3,1.4,0.38,1.97c-1.36,0.53-3.32,0.95-4.4,0.95c-1.63,0-3.28-0.36-4.51-1.25
		c-1.33-0.97-2.39-2.79-2.39-5.02C103.38,35.5,104.73,33.49,106.3,32.26z"/>
	<path fill="#FFFFFF" d="M116.78,42.71c0.04,0,0.11-0.04,0.13-0.11c1.29-3.43,3.15-8.44,4.42-11.89c0.38-0.04,1.35-0.04,2.9-0.04
		c1.23,3.56,2.9,8.61,4.06,12.02l1.08,0.08c0,0.57,0,1.18-0.02,1.78c-0.7,0-1.74,0-2.54,0c-1.1,0-2.43,0-3.41,0
		c0-0.59,0-1.21,0.02-1.8l1.04-0.06c0.04,0,0.08-0.04,0.06-0.11c-0.11-0.32-0.3-0.99-0.42-1.31c-0.02-0.08-0.06-0.11-0.15-0.11
		l-3.92,0.04c-0.11,0.46-0.28,1.06-0.36,1.5l1.16,0.06c0,0.57,0,1.18-0.02,1.78c-0.85,0-1.95,0-2.98,0c-0.7,0-1.44,0-2.07,0
		c0-0.59,0.02-1.21,0.04-1.78L116.78,42.71z M122.02,34.61c-0.49,1.57-1,3.24-1.44,4.68c-0.02,0.08-0.02,0.13,0.04,0.13h2.96
		c-0.44-1.4-0.95-3.13-1.46-4.8H122.02z"/>
	<path fill="#FFFFFF" d="M133.37,42.69c0.04,0,0.06-0.04,0.06-0.08v-9.9c-0.8,0-1.16,0.06-1.46,0.11c-0.3,0.06-0.36,0.21-0.4,0.42
		l-0.38,2.03c-0.74-0.04-1.57-0.11-2.24-0.19c0.08-1.44,0.17-2.88,0.28-4.3c0.44,0,1.25,0.02,1.99,0.02c0.55,0,3.36,0,4.15,0
		c0.66,0,3.39,0,3.96,0c0.85-0.02,1.59-0.02,2.01-0.02c0.08,1.42,0.17,2.86,0.21,4.28c-0.7,0.08-1.5,0.15-2.26,0.21l-0.34-2.03
		c-0.04-0.23-0.13-0.34-0.4-0.4c-0.28-0.06-0.53-0.11-1.46-0.11l-0.06,9.95l1.52,0.08c0,0.57,0,1.21-0.02,1.82
		c-0.89,0-2.16-0.02-3.28-0.02c-1.02,0-2.26,0.02-3.32,0.02c0-0.61,0.02-1.23,0.02-1.82L133.37,42.69z"/>
	<path fill="#FFFFFF" d="M143.19,32.6c0-0.59,0-1.23,0.02-1.8c0.89,0,2.2,0,3.2,0c1.04,0,2.24,0,3.13,0c0,0.55-0.02,1.23-0.02,1.8
		l-1.33,0.06c-0.04,0-0.04,0.02-0.04,0.11l-0.06,9.9l1.42,0.08c0,0.57,0,1.21-0.02,1.82c-0.87,0-2.12-0.02-3.17-0.02
		c-0.97,0-2.16,0.02-3.13,0.02c0-0.59,0.02-1.25,0.02-1.84l1.23-0.04c0.04,0,0.08-0.04,0.08-0.08v-9.95L143.19,32.6z"/>
	<path fill="#FFFFFF" d="M153.04,43.01c-1.29-1.29-1.91-2.96-1.91-5.21c0-2.79,1.4-5.02,3.13-6.07c1.31-0.8,2.62-1.14,4.25-1.14
		c1.33,0,2.56,0.34,3.66,1.04c1.63,1.04,2.69,3.24,2.69,5.71c0,2.05-0.72,4.23-2.16,5.61c-1.33,1.23-3.01,1.82-5.06,1.82
		C155.77,44.77,154.07,44.07,153.04,43.01z M159.89,42.1c0.74-0.95,1.02-2.52,1.02-4.28c0-1.71-0.36-3.24-0.87-4.21
		c-0.42-0.83-1.1-1.23-1.88-1.23c-0.87,0-1.46,0.32-1.95,0.91c-0.61,0.76-1.08,2.27-1.08,4.28c0,2.14,0.3,3.51,1.04,4.42
		c0.59,0.72,1.27,0.95,1.93,0.95C158.77,42.95,159.34,42.84,159.89,42.1z"/>
	<path fill="#FFFFFF" d="M167.62,42.69c0.04,0,0.06-0.02,0.06-0.08l-0.02-9.97l-1.23-0.04c0-0.59,0-1.23,0.02-1.8
		c1.18,0,2.84,0,4.06,0c1.61,2.31,4.25,6.37,6.05,9.18h0.13c-0.04-2.41-0.04-4.89-0.06-7.34l-1.54-0.04c0-0.57,0.02-1.25,0.04-1.8
		c0.83,0,1.82,0,2.75,0c0.74,0,1.61-0.02,2.24-0.02c0,0.57,0,1.21-0.02,1.8l-0.93,0.06c-0.04,0-0.08,0.02-0.08,0.11l-0.08,11.6
		c-0.44,0.19-1.5,0.4-2.58,0.4c-1.4-1.67-3.77-4.74-6.2-8.38l-0.15,0.02c0,2.16-0.02,4.21-0.04,6.31l1.57,0.04
		c0,0.59,0,1.25-0.02,1.82c-0.89,0-2.03,0-3.03,0c-0.7,0-1.42,0.02-2.01,0.02c0-0.59,0-1.23,0.02-1.82L167.62,42.69z"/>
</g>
</svg>
