<?xml version="1.0" encoding="utf-8"?>
<!-- Generator: Adobe Illustrator 16.0.4, SVG Export Plug-In . SVG Version: 6.00 Build 0)  -->
<!DOCTYPE svg PUBLIC "-//W3C//DTD SVG 1.1//EN" "http://www.w3.org/Graphics/SVG/1.1/DTD/svg11.dtd">
<svg version="1.1" id="Layer_1" xmlns="http://www.w3.org/2000/svg" xmlns:xlink="http://www.w3.org/1999/xlink" x="0px" y="0px"
	 width="407.04px" height="17.75px" viewBox="0 0 407.04 17.75" enable-background="new 0 0 407.04 17.75" xml:space="preserve">
<g>
	<path d="M2.32,15.32c0.08,0,0.12-0.05,0.12-0.1V3.45L1,3.4c0-0.72,0.02-1.47,0.05-2.15c0.92,0,2.22,0,3.27,0c0.77,0,5.25,0,5.85,0
		c1.05,0,1.92-0.03,2.47-0.03c0.1,1.47,0.2,2.97,0.25,4.45c-0.72,0.1-1.6,0.2-2.45,0.28l-0.4-1.92C10,3.8,9.9,3.65,9.55,3.6
		S8.47,3.45,6.92,3.45c-0.07,0-0.17,0-0.25,0L6.65,8.2c0.77,0,1.5-0.02,2.2-0.05C9,8.12,9.12,7.95,9.17,7.67l0.15-0.95
		c0.8,0,1.62,0.03,2.35,0.05c0,0.78-0.02,1.7-0.02,2.6s-0.02,1.8-0.02,2.45c-0.73,0.05-1.55,0.08-2.35,0.08l-0.12-1
		C9.12,10.52,9,10.37,8.77,10.37c-0.7-0.03-1.4-0.05-2.12-0.05l-0.02,4.42c0,0.47,0.17,0.55,1.3,0.55c1.02,0,1.65-0.08,2-0.15
		c0.25-0.08,0.38-0.2,0.48-0.47l0.72-2c0.85,0.12,1.72,0.3,2.45,0.45c-0.27,1.45-0.6,2.92-0.92,4.4c-1.25,0-4.72-0.03-8.2-0.03
		c-1.15,0-2.42,0.03-3.42,0.03c0-0.7,0-1.45,0.02-2.12L2.32,15.32z"/>
	<path d="M17.05,15.32c0.1,0,0.17-0.05,0.25-0.12c1.67-1.92,3.07-3.57,4.67-5.45V9.57c-1.42-1.85-3.02-4.17-4.35-6.05
		c-0.02-0.05-0.07-0.1-0.15-0.1l-1.3-0.05c0-0.7,0.02-1.47,0.05-2.12c0.92,0,2.25,0,3.37,0c1.5,0,3.17,0,4.45-0.03
		c0,0.68,0,1.47-0.03,2.15l-1.37,0.07c0.85,1.42,1.6,2.65,2.2,3.52h0.17c0.92-1.22,1.65-2.35,2.25-3.4
		c0.02-0.05,0.02-0.12-0.08-0.12L25.95,3.4c0-0.7,0-1.5,0.02-2.15c1.1,0,2.45,0,3.77,0c0.77,0,1.65,0,2.35,0
		c0,0.65,0,1.42-0.02,2.12l-1.15,0.07c-1.45,1.8-3.17,3.77-4.55,5.3V8.9c1.42,1.85,3.4,4.57,4.77,6.42l1.22,0.08
		c0,0.65-0.02,1.42-0.05,2.12c-0.9,0-2.2-0.03-3.25-0.03c-1.52,0-3.27,0.03-4.62,0.03c0-0.7,0-1.47,0.02-2.15l1.37-0.08
		c0.1,0,0.15-0.08,0.1-0.15c-0.88-1.3-1.75-2.7-2.4-3.55H23.4c-0.92,1.22-1.85,2.55-2.6,3.67l1.47,0.1c0,0.67,0,1.45-0.02,2.15
		c-1.1,0-2.52-0.03-3.87-0.03c-0.82,0-1.75,0.03-2.52,0.03c0-0.7,0-1.45,0.02-2.12L17.05,15.32z"/>
	<path d="M35.38,3.4c0-0.67,0.02-1.45,0.02-2.12c1.8-0.03,4-0.05,6.07-0.05c1.12,0,2.27,0,3.65,0.43c2.05,0.65,3.37,2.7,3.37,4.82
		c0,1.95-1.3,3.8-2.95,4.62c-1.15,0.6-2.9,0.8-3.5,0.8c-0.33,0-1,0-1.17-0.03l-0.02,3.47l2.27,0.08c0,0.65,0,1.42-0.02,2.07
		c-1.25,0-2.97,0-4.5,0c-1.05,0-2.22,0-3.17,0c0-0.65,0-1.42,0.02-2.07l1.17-0.08c0.08,0,0.1-0.05,0.1-0.1V3.45L35.38,3.4z
		 M40.87,9.52c0,0.22,0.45,0.25,0.87,0.25c0.62,0,1.25-0.23,1.7-0.68c0.52-0.5,0.82-1.4,0.82-2.5c0-1.85-1.12-3.35-2.55-3.35
		c-0.38,0-0.7,0.02-0.8,0.07L40.87,9.52z"/>
	<path d="M53.25,15.32c0.08,0,0.12-0.05,0.12-0.1V3.45L51.92,3.4c0-0.72,0.02-1.47,0.05-2.15c0.92,0,2.22,0,3.27,0
		c0.77,0,5.25,0,5.85,0c1.05,0,1.92-0.03,2.47-0.03c0.1,1.47,0.2,2.97,0.25,4.45c-0.72,0.1-1.6,0.2-2.45,0.28l-0.4-1.92
		c-0.05-0.22-0.15-0.38-0.5-0.42s-1.07-0.15-2.62-0.15c-0.07,0-0.17,0-0.25,0L57.57,8.2c0.77,0,1.5-0.02,2.2-0.05
		c0.15-0.03,0.27-0.2,0.32-0.47l0.15-0.95c0.8,0,1.62,0.03,2.35,0.05c0,0.78-0.02,1.7-0.02,2.6s-0.02,1.8-0.02,2.45
		C61.82,11.87,61,11.9,60.2,11.9l-0.12-1c-0.02-0.38-0.15-0.52-0.38-0.52c-0.7-0.03-1.4-0.05-2.12-0.05l-0.02,4.42
		c0,0.47,0.17,0.55,1.3,0.55c1.02,0,1.65-0.08,2-0.15c0.25-0.08,0.38-0.2,0.48-0.47l0.72-2c0.85,0.12,1.72,0.3,2.45,0.45
		c-0.27,1.45-0.6,2.92-0.92,4.4c-1.25,0-4.72-0.03-8.2-0.03c-1.15,0-2.42,0.03-3.42,0.03c0-0.7,0-1.45,0.02-2.12L53.25,15.32z"/>
	<path d="M68.35,3.4c0-0.72,0-1.42,0.02-2.12c1.7-0.03,3.82-0.05,5.77-0.05c1.42,0,2.2,0,3.67,0.35C80,2.05,81.4,4,81.4,5.6
		c0,2.12-1.35,3.62-3.1,4.35v0.15c1.1,0.53,1.7,1.95,2.82,4.27c0.27,0.62,0.45,0.88,0.75,0.9l1.2,0.15c0,0.67-0.02,1.37-0.02,2.07
		c-0.45,0-1.35,0.03-1.82,0.03c-0.55,0-2.67,0.02-3.15,0.02c-0.65-1.12-1.85-4.02-2.35-5.2c-0.32-0.78-0.77-1.08-1.35-1.08
		c-0.3,0-0.5,0.03-0.57,0.05l-0.03,4.02l1.35,0.08c-0.03,0.7-0.03,1.37-0.03,2.07c-0.97,0-2.35,0-3.57,0c-1.05,0-2.22,0-3.17,0
		c0.02-0.7,0.02-1.38,0.02-2.07l1.22-0.08c0.05,0,0.08-0.05,0.08-0.08L69.7,3.45L68.35,3.4z M73.8,9.22c0.1,0.03,0.25,0.03,0.6,0.03
		c1.67,0,2.7-1.17,2.7-2.82c0-1.82-1.12-3.17-2.45-3.17c-0.42,0-0.65,0.02-0.8,0.07L73.8,9.22z"/>
	<path d="M86.17,3.38c0-0.7,0-1.45,0.02-2.12c1.05,0,2.6,0,3.77,0c1.22,0,2.65,0,3.7,0c0,0.65-0.03,1.45-0.03,2.12l-1.57,0.07
		c-0.05,0-0.05,0.03-0.05,0.12l-0.07,11.7l1.67,0.1c0,0.67,0,1.42-0.02,2.15c-1.02,0-2.5-0.03-3.75-0.03c-1.15,0-2.55,0.03-3.7,0.03
		c0-0.7,0.02-1.47,0.02-2.17l1.45-0.05c0.05,0,0.1-0.05,0.1-0.1V3.45L86.17,3.38z"/>
	<path d="M98.77,15.32c0.08,0,0.12-0.05,0.12-0.1V3.45L97.45,3.4c0-0.72,0.02-1.47,0.05-2.15c0.92,0,2.22,0,3.27,0
		c0.77,0,5.25,0,5.85,0c1.05,0,1.92-0.03,2.47-0.03c0.1,1.47,0.2,2.97,0.25,4.45c-0.72,0.1-1.6,0.2-2.45,0.28l-0.4-1.92
		c-0.05-0.22-0.15-0.38-0.5-0.42s-1.07-0.15-2.62-0.15c-0.07,0-0.17,0-0.25,0L103.1,8.2c0.77,0,1.5-0.02,2.2-0.05
		c0.15-0.03,0.27-0.2,0.32-0.47l0.15-0.95c0.8,0,1.62,0.03,2.35,0.05c0,0.78-0.02,1.7-0.02,2.6s-0.02,1.8-0.02,2.45
		c-0.73,0.05-1.55,0.08-2.35,0.08l-0.12-1c-0.02-0.38-0.15-0.52-0.38-0.52c-0.7-0.03-1.4-0.05-2.12-0.05l-0.02,4.42
		c0,0.47,0.17,0.55,1.3,0.55c1.02,0,1.65-0.08,2-0.15c0.25-0.08,0.38-0.2,0.48-0.47l0.72-2c0.85,0.12,1.72,0.3,2.45,0.45
		c-0.27,1.45-0.6,2.92-0.92,4.4c-1.25,0-4.72-0.03-8.2-0.03c-1.15,0-2.42,0.03-3.42,0.03c0-0.7,0-1.45,0.02-2.12L98.77,15.32z"/>
	<path d="M114.82,15.3c0.05,0,0.07-0.03,0.07-0.1l-0.02-11.77l-1.45-0.05c0-0.7,0-1.45,0.03-2.12c1.4,0,3.35,0,4.8,0
		c1.9,2.72,5.02,7.52,7.15,10.85h0.15c-0.05-2.85-0.05-5.77-0.07-8.67l-1.82-0.05c0-0.68,0.02-1.47,0.05-2.12c0.98,0,2.15,0,3.25,0
		c0.87,0,1.9-0.03,2.65-0.03c0,0.68,0,1.42-0.03,2.12l-1.1,0.08c-0.05,0-0.1,0.02-0.1,0.12l-0.1,13.7
		c-0.52,0.22-1.77,0.47-3.05,0.47c-1.65-1.97-4.45-5.6-7.32-9.9l-0.17,0.03c0,2.55-0.03,4.97-0.05,7.45l1.85,0.05
		c0,0.7,0,1.47-0.02,2.15c-1.05,0-2.4,0-3.57,0c-0.82,0-1.67,0.03-2.37,0.03c0-0.7,0-1.45,0.02-2.15L114.82,15.3z"/>
	<path d="M136.65,2.97c1.7-1.32,3.92-1.97,6.15-1.97c1.55,0,2.67,0.15,3.3,0.38c0.15,1.67,0.27,3.37,0.38,5.1
		c-0.83,0.12-1.72,0.25-2.62,0.35l-0.6-2.62c-0.02-0.1-0.05-0.25-0.15-0.3c-0.27-0.17-0.65-0.33-1.17-0.33
		c-0.8,0-1.67,0.33-2.37,1.05c-1.1,1.15-1.7,2.8-1.7,4.9c0,2.15,0.45,3.55,1.45,4.45c0.75,0.7,1.92,1.03,2.92,1.03
		c1.12,0,3.05-0.38,3.87-0.7c0.2,0.72,0.35,1.65,0.45,2.32c-1.6,0.62-3.92,1.12-5.2,1.12c-1.92,0-3.87-0.42-5.32-1.47
		c-1.57-1.15-2.82-3.3-2.82-5.92C133.2,6.8,134.8,4.42,136.65,2.97z"/>
	<path d="M151.72,15.32c0.07,0,0.12-0.05,0.12-0.1V3.45L150.4,3.4c0-0.72,0.02-1.47,0.05-2.15c0.92,0,2.22,0,3.27,0
		c0.77,0,5.25,0,5.85,0c1.05,0,1.92-0.03,2.47-0.03c0.1,1.47,0.2,2.97,0.25,4.45c-0.72,0.1-1.6,0.2-2.45,0.28l-0.4-1.92
		c-0.05-0.22-0.15-0.38-0.5-0.42c-0.35-0.05-1.07-0.15-2.62-0.15c-0.07,0-0.17,0-0.25,0l-0.03,4.75c0.77,0,1.5-0.02,2.2-0.05
		c0.15-0.03,0.27-0.2,0.32-0.47l0.15-0.95c0.8,0,1.62,0.03,2.35,0.05c0,0.78-0.02,1.7-0.02,2.6s-0.02,1.8-0.02,2.45
		c-0.73,0.05-1.55,0.08-2.35,0.08l-0.12-1c-0.02-0.38-0.15-0.52-0.38-0.52c-0.7-0.03-1.4-0.05-2.12-0.05l-0.02,4.42
		c0,0.47,0.18,0.55,1.3,0.55c1.02,0,1.65-0.08,2-0.15c0.25-0.08,0.38-0.2,0.47-0.47l0.73-2c0.85,0.12,1.72,0.3,2.45,0.45
		c-0.27,1.45-0.6,2.92-0.92,4.4c-1.25,0-4.72-0.03-8.2-0.03c-1.15,0-2.42,0.03-3.42,0.03c0-0.7,0-1.45,0.02-2.12L151.72,15.32z"/>
	<path d="M178.07,15.3c0.07,0,0.1-0.05,0.1-0.12v-3.72c-1.07-1.87-3.1-5.77-4.2-7.87c0-0.05-0.08-0.15-0.12-0.15l-1-0.05
		c0-0.7,0-1.47,0.02-2.12c0.82,0,2.17,0,3.15,0c1.47,0,3.2,0,4.42,0c0,0.65-0.02,1.42-0.05,2.12l-1.5,0.07
		c0.75,1.85,1.65,3.9,2.4,5.52h0.12c0.9-1.7,1.77-3.47,2.52-5.4c0.02-0.05-0.02-0.1-0.08-0.12l-1.35-0.05c0-0.7,0.02-1.45,0.05-2.15
		c1.02,0,2.32,0,3.52,0c0.8,0,1.62,0,2.25,0c0,0.67,0,1.45-0.05,2.15l-1.1,0.05c-1.15,2-3.32,5.72-4.75,7.95l-0.05,3.87l1.85,0.1
		c0,0.67,0,1.42-0.02,2.15c-1.07,0-2.6-0.03-3.9-0.03c-1.2,0-2.65,0.03-3.85,0.03c0-0.7,0-1.45,0.02-2.15L178.07,15.3z"/>
	<path d="M192.55,15.67c-1.52-1.53-2.25-3.5-2.25-6.15c0-3.3,1.65-5.92,3.7-7.17C195.55,1.4,197.1,1,199.02,1
		c1.57,0,3.02,0.4,4.32,1.22c1.92,1.22,3.17,3.82,3.17,6.75c0,2.42-0.85,5-2.55,6.62c-1.57,1.45-3.55,2.15-5.97,2.15
		C195.77,17.75,193.77,16.92,192.55,15.67z M200.65,14.6c0.87-1.12,1.2-2.97,1.2-5.05c0-2.02-0.42-3.82-1.02-4.97
		c-0.5-0.97-1.3-1.45-2.22-1.45c-1.02,0-1.72,0.38-2.3,1.07c-0.72,0.9-1.27,2.67-1.27,5.05c0,2.52,0.35,4.15,1.22,5.22
		c0.7,0.85,1.5,1.12,2.27,1.12C199.32,15.6,200,15.47,200.65,14.6z"/>
	<path d="M215.57,10.97c0,1.9,0.33,2.75,0.9,3.42c0.5,0.55,1.15,0.8,2,0.8c0.92,0,1.47-0.38,1.9-0.87c0.58-0.65,0.85-2.05,0.85-3.7
		c0-2.02,0-5.07-0.05-7.12c0-0.05-0.05-0.08-0.1-0.08l-1.75-0.08c0-0.67,0.03-1.42,0.03-2.1c0.92,0,2.22,0,3.32,0
		c1.05,0,2.07,0,2.97,0c0,0.67,0,1.4-0.03,2.1l-1.17,0.08l-0.08,6.82c0,3-0.9,4.87-1.85,5.8c-0.92,0.97-2.17,1.7-4.5,1.7
		c-2.2,0-3.75-0.42-5-1.55c-1.42-1.3-1.77-3.3-1.77-5.15v-7.5c0-0.08-0.03-0.15-0.12-0.15l-1.1-0.05c0-0.7,0-1.42,0.02-2.1
		c0.97,0,2.37,0,3.45,0c1.33,0,2.75,0,3.87,0c0,0.65,0,1.42-0.03,2.12l-1.7,0.05L215.57,10.97z"/>
	<path d="M229.12,3.4c0-0.72,0-1.42,0.02-2.12c1.7-0.03,3.82-0.05,5.77-0.05c1.42,0,2.2,0,3.67,0.35c2.17,0.47,3.57,2.42,3.57,4.02
		c0,2.12-1.35,3.62-3.1,4.35v0.15c1.1,0.53,1.7,1.95,2.82,4.27c0.28,0.62,0.45,0.88,0.75,0.9l1.2,0.15c0,0.67-0.03,1.37-0.03,2.07
		c-0.45,0-1.35,0.03-1.82,0.03c-0.55,0-2.67,0.02-3.15,0.02c-0.65-1.12-1.85-4.02-2.35-5.2c-0.33-0.78-0.77-1.08-1.35-1.08
		c-0.3,0-0.5,0.03-0.58,0.05l-0.02,4.02l1.35,0.08c-0.03,0.7-0.03,1.37-0.03,2.07c-0.97,0-2.35,0-3.57,0c-1.05,0-2.22,0-3.17,0
		c0.02-0.7,0.02-1.38,0.02-2.07l1.23-0.08c0.05,0,0.07-0.05,0.07-0.08l0.03-11.82L229.12,3.4z M234.57,9.22
		c0.1,0.03,0.25,0.03,0.6,0.03c1.67,0,2.7-1.17,2.7-2.82c0-1.82-1.12-3.17-2.45-3.17c-0.43,0-0.65,0.02-0.8,0.07L234.57,9.22z"/>
	<path d="M255.17,15.32c0.08,0,0.12-0.05,0.12-0.1V3.45l-1.45-0.05c0-0.72,0.02-1.47,0.05-2.15c0.92,0,2.22,0,3.27,0
		c0.78,0,5.25,0,5.85,0c1.05,0,1.92-0.03,2.47-0.03c0.1,1.47,0.2,2.97,0.25,4.45c-0.72,0.1-1.6,0.2-2.45,0.28l-0.4-1.92
		c-0.05-0.22-0.15-0.38-0.5-0.42c-0.35-0.05-1.08-0.15-2.62-0.15c-0.08,0-0.17,0-0.25,0L259.5,8.2c0.77,0,1.5-0.02,2.2-0.05
		c0.15-0.03,0.27-0.2,0.33-0.47l0.15-0.95c0.8,0,1.62,0.03,2.35,0.05c0,0.78-0.03,1.7-0.03,2.6s-0.02,1.8-0.02,2.45
		c-0.72,0.05-1.55,0.08-2.35,0.08l-0.12-1c-0.03-0.38-0.15-0.52-0.38-0.52c-0.7-0.03-1.4-0.05-2.12-0.05l-0.03,4.42
		c0,0.47,0.17,0.55,1.3,0.55c1.02,0,1.65-0.08,2-0.15c0.25-0.08,0.38-0.2,0.48-0.47l0.72-2c0.85,0.12,1.72,0.3,2.45,0.45
		c-0.27,1.45-0.6,2.92-0.92,4.4c-1.25,0-4.72-0.03-8.2-0.03c-1.15,0-2.42,0.03-3.42,0.03c0-0.7,0-1.45,0.03-2.12L255.17,15.32z"/>
	<path d="M270.22,15.42l1.27-0.1c0.08,0,0.1-0.05,0.1-0.1l0.03-11.75l-1.45-0.05c0-0.73,0-1.42,0.02-2.12
		c1.85-0.05,4.05-0.08,6.1-0.08c2.62,0,4.4,0.43,5.65,1.1c2.12,1.17,3.72,3.67,3.72,6.37c0,3.55-1.62,6.12-3.65,7.47
		c-1.47,1-3.7,1.35-5.5,1.35c-0.8,0-2.05-0.03-2.9-0.03c-1.12,0-2.4,0-3.42,0C270.2,16.82,270.2,16.07,270.22,15.42z M275.84,15
		c-0.02,0.32,0.25,0.52,0.6,0.52c0.97,0,2.05-0.22,3.02-1.1c1.15-1.08,1.62-3.1,1.62-4.72c0-2.62-0.55-4.12-1.88-5.4
		c-0.85-0.82-1.87-1.05-2.55-1.05c-0.35,0-0.58,0.02-0.75,0.1L275.84,15z"/>
	<path d="M294.82,10.97c0,1.9,0.33,2.75,0.9,3.42c0.5,0.55,1.15,0.8,2,0.8c0.92,0,1.47-0.38,1.9-0.87c0.58-0.65,0.85-2.05,0.85-3.7
		c0-2.02,0-5.07-0.05-7.12c0-0.05-0.05-0.08-0.1-0.08l-1.75-0.08c0-0.67,0.03-1.42,0.03-2.1c0.92,0,2.22,0,3.32,0
		c1.05,0,2.07,0,2.97,0c0,0.67,0,1.4-0.02,2.1l-1.17,0.08l-0.08,6.82c0,3-0.9,4.87-1.85,5.8c-0.92,0.97-2.17,1.7-4.5,1.7
		c-2.2,0-3.75-0.42-5-1.55c-1.42-1.3-1.78-3.3-1.78-5.15v-7.5c0-0.08-0.02-0.15-0.12-0.15l-1.1-0.05c0-0.7,0-1.42,0.03-2.1
		c0.97,0,2.37,0,3.45,0c1.32,0,2.75,0,3.87,0c0,0.65,0,1.42-0.03,2.12l-1.7,0.05L294.82,10.97z"/>
	<path d="M311.59,2.97c1.7-1.32,3.92-1.97,6.15-1.97c1.55,0,2.67,0.15,3.3,0.38c0.15,1.67,0.27,3.37,0.38,5.1
		c-0.83,0.12-1.72,0.25-2.62,0.35l-0.6-2.62c-0.02-0.1-0.05-0.25-0.15-0.3c-0.28-0.17-0.65-0.33-1.17-0.33
		c-0.8,0-1.67,0.33-2.38,1.05c-1.1,1.15-1.7,2.8-1.7,4.9c0,2.15,0.45,3.55,1.45,4.45c0.75,0.7,1.92,1.03,2.92,1.03
		c1.12,0,3.05-0.38,3.87-0.7c0.2,0.72,0.35,1.65,0.45,2.32c-1.6,0.62-3.92,1.12-5.2,1.12c-1.92,0-3.87-0.42-5.32-1.47
		c-1.58-1.15-2.82-3.3-2.82-5.92C308.15,6.8,309.75,4.42,311.59,2.97z"/>
	<path d="M325.62,15.32c0.05,0,0.12-0.05,0.15-0.12c1.52-4.05,3.72-9.97,5.22-14.05c0.45-0.05,1.6-0.05,3.42-0.05
		c1.45,4.2,3.42,10.17,4.8,14.2l1.27,0.1c0,0.67,0,1.4-0.03,2.1c-0.82,0-2.05,0-3,0c-1.3,0-2.87,0-4.02,0c0-0.7,0-1.42,0.03-2.12
		l1.22-0.08c0.05,0,0.1-0.05,0.08-0.12c-0.12-0.38-0.35-1.17-0.5-1.55c-0.03-0.1-0.08-0.12-0.17-0.12l-4.62,0.05
		c-0.12,0.55-0.33,1.25-0.42,1.77l1.38,0.08c0,0.67,0,1.4-0.03,2.1c-1,0-2.3,0-3.52,0c-0.82,0-1.7,0-2.45,0
		c0-0.7,0.03-1.42,0.05-2.1L325.62,15.32z M331.82,5.75c-0.58,1.85-1.17,3.82-1.7,5.52c-0.02,0.1-0.02,0.15,0.05,0.15h3.5
		c-0.53-1.65-1.12-3.7-1.72-5.67H331.82z"/>
	<path d="M346.87,15.3c0.05,0,0.07-0.05,0.07-0.1V3.5c-0.95,0-1.37,0.07-1.72,0.12c-0.35,0.08-0.42,0.25-0.47,0.5l-0.45,2.4
		c-0.87-0.05-1.85-0.12-2.65-0.22c0.1-1.7,0.2-3.4,0.32-5.07c0.53,0,1.47,0.03,2.35,0.03c0.65,0,3.97,0,4.9,0c0.78,0,4,0,4.67,0
		c1-0.03,1.88-0.03,2.38-0.03c0.1,1.67,0.2,3.38,0.25,5.05c-0.83,0.1-1.77,0.18-2.67,0.25l-0.4-2.4c-0.05-0.27-0.15-0.4-0.47-0.47
		c-0.33-0.08-0.62-0.12-1.72-0.12l-0.08,11.75l1.8,0.1c0,0.67,0,1.42-0.03,2.15c-1.05,0-2.55-0.03-3.87-0.03
		c-1.2,0-2.67,0.03-3.92,0.03c0-0.73,0.02-1.45,0.02-2.15L346.87,15.3z"/>
	<path d="M360.12,3.38c0-0.7,0-1.45,0.03-2.12c1.05,0,2.6,0,3.77,0c1.22,0,2.65,0,3.7,0c0,0.65-0.02,1.45-0.02,2.12l-1.58,0.07
		c-0.05,0-0.05,0.03-0.05,0.12l-0.08,11.7l1.67,0.1c0,0.67,0,1.42-0.03,2.15c-1.02,0-2.5-0.03-3.75-0.03c-1.15,0-2.55,0.03-3.7,0.03
		c0-0.7,0.02-1.47,0.02-2.17l1.45-0.05c0.05,0,0.1-0.05,0.1-0.1V3.45L360.12,3.38z"/>
	<path d="M373.4,15.67c-1.52-1.53-2.25-3.5-2.25-6.15c0-3.3,1.65-5.92,3.7-7.17c1.55-0.95,3.1-1.35,5.02-1.35
		c1.57,0,3.02,0.4,4.32,1.22c1.92,1.22,3.17,3.82,3.17,6.75c0,2.42-0.85,5-2.55,6.62c-1.57,1.45-3.55,2.15-5.97,2.15
		C376.62,17.75,374.62,16.92,373.4,15.67z M381.49,14.6c0.88-1.12,1.2-2.97,1.2-5.05c0-2.02-0.42-3.82-1.03-4.97
		c-0.5-0.97-1.3-1.45-2.22-1.45c-1.03,0-1.72,0.38-2.3,1.07c-0.72,0.9-1.27,2.67-1.27,5.05c0,2.52,0.35,4.15,1.22,5.22
		c0.7,0.85,1.5,1.12,2.27,1.12C380.17,15.6,380.84,15.47,381.49,14.6z"/>
	<path d="M392.27,15.3c0.05,0,0.08-0.03,0.08-0.1l-0.02-11.77l-1.45-0.05c0-0.7,0-1.45,0.03-2.12c1.4,0,3.35,0,4.8,0
		c1.9,2.72,5.02,7.52,7.15,10.85h0.15c-0.05-2.85-0.05-5.77-0.08-8.67l-1.82-0.05c0-0.68,0.03-1.47,0.05-2.12c0.97,0,2.15,0,3.25,0
		c0.88,0,1.9-0.03,2.65-0.03c0,0.68,0,1.42-0.02,2.12l-1.1,0.08c-0.05,0-0.1,0.02-0.1,0.12l-0.1,13.7
		c-0.53,0.22-1.77,0.47-3.05,0.47c-1.65-1.97-4.45-5.6-7.32-9.9l-0.17,0.03c0,2.55-0.02,4.97-0.05,7.45l1.85,0.05
		c0,0.7,0,1.47-0.03,2.15c-1.05,0-2.4,0-3.57,0c-0.83,0-1.67,0.03-2.38,0.03c0-0.7,0-1.45,0.03-2.15L392.27,15.3z"/>
</g>
<g>
	<path fill="#FFFFFF" d="M1.32,14.32c0.08,0,0.12-0.05,0.12-0.1V2.45L0,2.4c0-0.72,0.02-1.47,0.05-2.15c0.92,0,2.22,0,3.27,0
		c0.77,0,5.25,0,5.85,0c1.05,0,1.92-0.03,2.47-0.03c0.1,1.47,0.2,2.97,0.25,4.45c-0.72,0.1-1.6,0.2-2.45,0.28l-0.4-1.92
		C9,2.8,8.9,2.65,8.55,2.6S7.47,2.45,5.92,2.45c-0.07,0-0.17,0-0.25,0L5.65,7.2c0.77,0,1.5-0.02,2.2-0.05
		C8,7.12,8.12,6.95,8.17,6.67l0.15-0.95c0.8,0,1.62,0.03,2.35,0.05c0,0.78-0.02,1.7-0.02,2.6s-0.02,1.8-0.02,2.45
		C9.9,10.87,9.07,10.9,8.27,10.9l-0.12-1C8.12,9.52,8,9.37,7.77,9.37c-0.7-0.03-1.4-0.05-2.12-0.05l-0.02,4.42
		c0,0.47,0.17,0.55,1.3,0.55c1.02,0,1.65-0.08,2-0.15c0.25-0.08,0.38-0.2,0.48-0.47l0.72-2c0.85,0.12,1.72,0.3,2.45,0.45
		c-0.27,1.45-0.6,2.92-0.92,4.4c-1.25,0-4.72-0.03-8.2-0.03c-1.15,0-2.42,0.03-3.42,0.03c0-0.7,0-1.45,0.02-2.12L1.32,14.32z"/>
	<path fill="#FFFFFF" d="M16.05,14.32c0.1,0,0.17-0.05,0.25-0.12c1.67-1.92,3.07-3.57,4.67-5.45V8.57
		c-1.42-1.85-3.02-4.17-4.35-6.05c-0.02-0.05-0.07-0.1-0.15-0.1l-1.3-0.05c0-0.7,0.02-1.47,0.05-2.12c0.92,0,2.25,0,3.37,0
		c1.5,0,3.17,0,4.45-0.03c0,0.68,0,1.47-0.03,2.15l-1.37,0.07c0.85,1.42,1.6,2.65,2.2,3.52h0.17c0.92-1.22,1.65-2.35,2.25-3.4
		c0.02-0.05,0.02-0.12-0.08-0.12L24.95,2.4c0-0.7,0-1.5,0.02-2.15c1.1,0,2.45,0,3.77,0c0.77,0,1.65,0,2.35,0
		c0,0.65,0,1.42-0.02,2.12l-1.15,0.07c-1.45,1.8-3.17,3.77-4.55,5.3V7.9c1.42,1.85,3.4,4.57,4.77,6.42l1.22,0.08
		c0,0.65-0.02,1.42-0.05,2.12c-0.9,0-2.2-0.03-3.25-0.03c-1.52,0-3.27,0.03-4.62,0.03c0-0.7,0-1.47,0.02-2.15l1.37-0.08
		c0.1,0,0.15-0.08,0.1-0.15c-0.88-1.3-1.75-2.7-2.4-3.55H22.4c-0.92,1.22-1.85,2.55-2.6,3.67l1.47,0.1c0,0.67,0,1.45-0.02,2.15
		c-1.1,0-2.52-0.03-3.87-0.03c-0.82,0-1.75,0.03-2.52,0.03c0-0.7,0-1.45,0.02-2.12L16.05,14.32z"/>
	<path fill="#FFFFFF" d="M34.38,2.4c0-0.67,0.02-1.45,0.02-2.12c1.8-0.03,4-0.05,6.07-0.05c1.12,0,2.27,0,3.65,0.43
		c2.05,0.65,3.37,2.7,3.37,4.82c0,1.95-1.3,3.8-2.95,4.62c-1.15,0.6-2.9,0.8-3.5,0.8c-0.33,0-1,0-1.17-0.03l-0.02,3.47l2.27,0.08
		c0,0.65,0,1.42-0.02,2.07c-1.25,0-2.97,0-4.5,0c-1.05,0-2.22,0-3.17,0c0-0.65,0-1.42,0.02-2.07l1.17-0.08c0.08,0,0.1-0.05,0.1-0.1
		V2.45L34.38,2.4z M39.87,8.52c0,0.22,0.45,0.25,0.87,0.25c0.62,0,1.25-0.23,1.7-0.68c0.52-0.5,0.82-1.4,0.82-2.5
		c0-1.85-1.12-3.35-2.55-3.35c-0.38,0-0.7,0.02-0.8,0.07L39.87,8.52z"/>
	<path fill="#FFFFFF" d="M52.25,14.32c0.08,0,0.12-0.05,0.12-0.1V2.45L50.92,2.4c0-0.72,0.02-1.47,0.05-2.15c0.92,0,2.22,0,3.27,0
		c0.77,0,5.25,0,5.85,0c1.05,0,1.92-0.03,2.47-0.03c0.1,1.47,0.2,2.97,0.25,4.45c-0.72,0.1-1.6,0.2-2.45,0.28l-0.4-1.92
		c-0.05-0.22-0.15-0.38-0.5-0.42s-1.07-0.15-2.62-0.15c-0.07,0-0.17,0-0.25,0L56.57,7.2c0.77,0,1.5-0.02,2.2-0.05
		c0.15-0.03,0.27-0.2,0.32-0.47l0.15-0.95c0.8,0,1.62,0.03,2.35,0.05c0,0.78-0.02,1.7-0.02,2.6s-0.02,1.8-0.02,2.45
		C60.82,10.87,60,10.9,59.2,10.9l-0.12-1c-0.02-0.38-0.15-0.52-0.38-0.52c-0.7-0.03-1.4-0.05-2.12-0.05l-0.02,4.42
		c0,0.47,0.17,0.55,1.3,0.55c1.02,0,1.65-0.08,2-0.15c0.25-0.08,0.38-0.2,0.48-0.47l0.72-2c0.85,0.12,1.72,0.3,2.45,0.45
		c-0.27,1.45-0.6,2.92-0.92,4.4c-1.25,0-4.72-0.03-8.2-0.03c-1.15,0-2.42,0.03-3.42,0.03c0-0.7,0-1.45,0.02-2.12L52.25,14.32z"/>
	<path fill="#FFFFFF" d="M67.35,2.4c0-0.72,0-1.42,0.02-2.12c1.7-0.03,3.82-0.05,5.77-0.05c1.42,0,2.2,0,3.67,0.35
		C79,1.05,80.4,3,80.4,4.6c0,2.12-1.35,3.62-3.1,4.35V9.1c1.1,0.53,1.7,1.95,2.82,4.27c0.27,0.62,0.45,0.88,0.75,0.9l1.2,0.15
		c0,0.67-0.02,1.37-0.02,2.07c-0.45,0-1.35,0.03-1.82,0.03c-0.55,0-2.67,0.02-3.15,0.02c-0.65-1.12-1.85-4.02-2.35-5.2
		c-0.32-0.78-0.77-1.08-1.35-1.08c-0.3,0-0.5,0.03-0.57,0.05l-0.03,4.02l1.35,0.08c-0.03,0.7-0.03,1.37-0.03,2.07
		c-0.97,0-2.35,0-3.57,0c-1.05,0-2.22,0-3.17,0c0.02-0.7,0.02-1.38,0.02-2.07l1.22-0.08c0.05,0,0.08-0.05,0.08-0.08L68.7,2.45
		L67.35,2.4z M72.8,8.22c0.1,0.03,0.25,0.03,0.6,0.03c1.67,0,2.7-1.17,2.7-2.82c0-1.82-1.12-3.17-2.45-3.17
		c-0.42,0-0.65,0.02-0.8,0.07L72.8,8.22z"/>
	<path fill="#FFFFFF" d="M85.17,2.38c0-0.7,0-1.45,0.02-2.12c1.05,0,2.6,0,3.77,0c1.22,0,2.65,0,3.7,0c0,0.65-0.03,1.45-0.03,2.12
		l-1.57,0.07c-0.05,0-0.05,0.03-0.05,0.12l-0.07,11.7l1.67,0.1c0,0.67,0,1.42-0.02,2.15c-1.02,0-2.5-0.03-3.75-0.03
		c-1.15,0-2.55,0.03-3.7,0.03c0-0.7,0.02-1.47,0.02-2.17l1.45-0.05c0.05,0,0.1-0.05,0.1-0.1V2.45L85.17,2.38z"/>
	<path fill="#FFFFFF" d="M97.77,14.32c0.08,0,0.12-0.05,0.12-0.1V2.45L96.45,2.4c0-0.72,0.02-1.47,0.05-2.15c0.92,0,2.22,0,3.27,0
		c0.77,0,5.25,0,5.85,0c1.05,0,1.92-0.03,2.47-0.03c0.1,1.47,0.2,2.97,0.25,4.45c-0.72,0.1-1.6,0.2-2.45,0.28l-0.4-1.92
		c-0.05-0.22-0.15-0.38-0.5-0.42s-1.07-0.15-2.62-0.15c-0.07,0-0.17,0-0.25,0L102.1,7.2c0.77,0,1.5-0.02,2.2-0.05
		c0.15-0.03,0.27-0.2,0.32-0.47l0.15-0.95c0.8,0,1.62,0.03,2.35,0.05c0,0.78-0.02,1.7-0.02,2.6s-0.02,1.8-0.02,2.45
		c-0.73,0.05-1.55,0.08-2.35,0.08l-0.12-1c-0.02-0.38-0.15-0.52-0.38-0.52c-0.7-0.03-1.4-0.05-2.12-0.05l-0.02,4.42
		c0,0.47,0.17,0.55,1.3,0.55c1.02,0,1.65-0.08,2-0.15c0.25-0.08,0.38-0.2,0.48-0.47l0.72-2c0.85,0.12,1.72,0.3,2.45,0.45
		c-0.27,1.45-0.6,2.92-0.92,4.4c-1.25,0-4.72-0.03-8.2-0.03c-1.15,0-2.42,0.03-3.42,0.03c0-0.7,0-1.45,0.02-2.12L97.77,14.32z"/>
	<path fill="#FFFFFF" d="M113.82,14.3c0.05,0,0.07-0.03,0.07-0.1l-0.02-11.77l-1.45-0.05c0-0.7,0-1.45,0.03-2.12c1.4,0,3.35,0,4.8,0
		c1.9,2.72,5.02,7.52,7.15,10.85h0.15c-0.05-2.85-0.05-5.77-0.07-8.67l-1.82-0.05c0-0.68,0.02-1.47,0.05-2.12c0.98,0,2.15,0,3.25,0
		c0.87,0,1.9-0.03,2.65-0.03c0,0.68,0,1.42-0.03,2.12l-1.1,0.08c-0.05,0-0.1,0.02-0.1,0.12l-0.1,13.7
		c-0.52,0.22-1.77,0.47-3.05,0.47c-1.65-1.97-4.45-5.6-7.32-9.9l-0.17,0.03c0,2.55-0.03,4.97-0.05,7.45l1.85,0.05
		c0,0.7,0,1.47-0.02,2.15c-1.05,0-2.4,0-3.57,0c-0.82,0-1.67,0.03-2.37,0.03c0-0.7,0-1.45,0.02-2.15L113.82,14.3z"/>
	<path fill="#FFFFFF" d="M135.65,1.97c1.7-1.32,3.92-1.97,6.15-1.97c1.55,0,2.67,0.15,3.3,0.38c0.15,1.67,0.27,3.37,0.38,5.1
		c-0.83,0.12-1.72,0.25-2.62,0.35l-0.6-2.62c-0.02-0.1-0.05-0.25-0.15-0.3c-0.27-0.17-0.65-0.33-1.17-0.33
		c-0.8,0-1.67,0.33-2.37,1.05c-1.1,1.15-1.7,2.8-1.7,4.9c0,2.15,0.45,3.55,1.45,4.45c0.75,0.7,1.92,1.03,2.92,1.03
		c1.12,0,3.05-0.38,3.87-0.7c0.2,0.72,0.35,1.65,0.45,2.32c-1.6,0.62-3.92,1.12-5.2,1.12c-1.92,0-3.87-0.42-5.32-1.47
		c-1.57-1.15-2.82-3.3-2.82-5.92C132.2,5.8,133.8,3.42,135.65,1.97z"/>
	<path fill="#FFFFFF" d="M150.72,14.32c0.07,0,0.12-0.05,0.12-0.1V2.45L149.4,2.4c0-0.72,0.02-1.47,0.05-2.15c0.92,0,2.22,0,3.27,0
		c0.77,0,5.25,0,5.85,0c1.05,0,1.92-0.03,2.47-0.03c0.1,1.47,0.2,2.97,0.25,4.45c-0.72,0.1-1.6,0.2-2.45,0.28l-0.4-1.92
		c-0.05-0.22-0.15-0.38-0.5-0.42c-0.35-0.05-1.07-0.15-2.62-0.15c-0.07,0-0.17,0-0.25,0l-0.03,4.75c0.77,0,1.5-0.02,2.2-0.05
		c0.15-0.03,0.27-0.2,0.32-0.47l0.15-0.95c0.8,0,1.62,0.03,2.35,0.05c0,0.78-0.02,1.7-0.02,2.6s-0.02,1.8-0.02,2.45
		c-0.73,0.05-1.55,0.08-2.35,0.08l-0.12-1c-0.02-0.38-0.15-0.52-0.38-0.52c-0.7-0.03-1.4-0.05-2.12-0.05l-0.02,4.42
		c0,0.47,0.18,0.55,1.3,0.55c1.02,0,1.65-0.08,2-0.15c0.25-0.08,0.38-0.2,0.47-0.47l0.73-2c0.85,0.12,1.72,0.3,2.45,0.45
		c-0.27,1.45-0.6,2.92-0.92,4.4c-1.25,0-4.72-0.03-8.2-0.03c-1.15,0-2.42,0.03-3.42,0.03c0-0.7,0-1.45,0.02-2.12L150.72,14.32z"/>
	<path fill="#FFFFFF" d="M177.07,14.3c0.07,0,0.1-0.05,0.1-0.12v-3.72c-1.07-1.87-3.1-5.77-4.2-7.87c0-0.05-0.08-0.15-0.12-0.15
		l-1-0.05c0-0.7,0-1.47,0.02-2.12c0.82,0,2.17,0,3.15,0c1.47,0,3.2,0,4.42,0c0,0.65-0.02,1.42-0.05,2.12l-1.5,0.07
		c0.75,1.85,1.65,3.9,2.4,5.52h0.12c0.9-1.7,1.77-3.47,2.52-5.4c0.02-0.05-0.02-0.1-0.08-0.12l-1.35-0.05c0-0.7,0.02-1.45,0.05-2.15
		c1.02,0,2.32,0,3.52,0c0.8,0,1.62,0,2.25,0c0,0.67,0,1.45-0.05,2.15l-1.1,0.05c-1.15,2-3.32,5.72-4.75,7.95l-0.05,3.87l1.85,0.1
		c0,0.67,0,1.42-0.02,2.15c-1.07,0-2.6-0.03-3.9-0.03c-1.2,0-2.65,0.03-3.85,0.03c0-0.7,0-1.45,0.02-2.15L177.07,14.3z"/>
	<path fill="#FFFFFF" d="M191.55,14.67c-1.52-1.53-2.25-3.5-2.25-6.15c0-3.3,1.65-5.92,3.7-7.17C194.55,0.4,196.1,0,198.02,0
		c1.57,0,3.02,0.4,4.32,1.22c1.92,1.22,3.17,3.82,3.17,6.75c0,2.42-0.85,5-2.55,6.62c-1.57,1.45-3.55,2.15-5.97,2.15
		C194.77,16.75,192.77,15.92,191.55,14.67z M199.65,13.6c0.87-1.12,1.2-2.97,1.2-5.05c0-2.02-0.42-3.82-1.02-4.97
		c-0.5-0.97-1.3-1.45-2.22-1.45c-1.02,0-1.72,0.38-2.3,1.07c-0.72,0.9-1.27,2.67-1.27,5.05c0,2.52,0.35,4.15,1.22,5.22
		c0.7,0.85,1.5,1.12,2.27,1.12C198.32,14.6,199,14.47,199.65,13.6z"/>
	<path fill="#FFFFFF" d="M214.57,9.97c0,1.9,0.33,2.75,0.9,3.42c0.5,0.55,1.15,0.8,2,0.8c0.92,0,1.47-0.38,1.9-0.87
		c0.58-0.65,0.85-2.05,0.85-3.7c0-2.02,0-5.07-0.05-7.12c0-0.05-0.05-0.08-0.1-0.08l-1.75-0.08c0-0.67,0.03-1.42,0.03-2.1
		c0.92,0,2.22,0,3.32,0c1.05,0,2.07,0,2.97,0c0,0.67,0,1.4-0.03,2.1l-1.17,0.08l-0.08,6.82c0,3-0.9,4.87-1.85,5.8
		c-0.92,0.97-2.17,1.7-4.5,1.7c-2.2,0-3.75-0.42-5-1.55c-1.42-1.3-1.77-3.3-1.77-5.15v-7.5c0-0.08-0.03-0.15-0.12-0.15l-1.1-0.05
		c0-0.7,0-1.42,0.02-2.1c0.97,0,2.37,0,3.45,0c1.33,0,2.75,0,3.87,0c0,0.65,0,1.42-0.03,2.12l-1.7,0.05L214.57,9.97z"/>
	<path fill="#FFFFFF" d="M228.12,2.4c0-0.72,0-1.42,0.02-2.12c1.7-0.03,3.82-0.05,5.77-0.05c1.42,0,2.2,0,3.67,0.35
		c2.17,0.47,3.57,2.42,3.57,4.02c0,2.12-1.35,3.62-3.1,4.35V9.1c1.1,0.53,1.7,1.95,2.82,4.27c0.28,0.62,0.45,0.88,0.75,0.9l1.2,0.15
		c0,0.67-0.03,1.37-0.03,2.07c-0.45,0-1.35,0.03-1.82,0.03c-0.55,0-2.67,0.02-3.15,0.02c-0.65-1.12-1.85-4.02-2.35-5.2
		c-0.33-0.78-0.77-1.08-1.35-1.08c-0.3,0-0.5,0.03-0.58,0.05l-0.02,4.02l1.35,0.08c-0.03,0.7-0.03,1.37-0.03,2.07
		c-0.97,0-2.35,0-3.57,0c-1.05,0-2.22,0-3.17,0c0.02-0.7,0.02-1.38,0.02-2.07l1.23-0.08c0.05,0,0.07-0.05,0.07-0.08l0.03-11.82
		L228.12,2.4z M233.57,8.22c0.1,0.03,0.25,0.03,0.6,0.03c1.67,0,2.7-1.17,2.7-2.82c0-1.82-1.12-3.17-2.45-3.17
		c-0.43,0-0.65,0.02-0.8,0.07L233.57,8.22z"/>
	<path fill="#FFFFFF" d="M254.17,14.32c0.08,0,0.12-0.05,0.12-0.1V2.45l-1.45-0.05c0-0.72,0.02-1.47,0.05-2.15c0.92,0,2.22,0,3.27,0
		c0.78,0,5.25,0,5.85,0c1.05,0,1.92-0.03,2.47-0.03c0.1,1.47,0.2,2.97,0.25,4.45c-0.72,0.1-1.6,0.2-2.45,0.28l-0.4-1.92
		c-0.05-0.22-0.15-0.38-0.5-0.42c-0.35-0.05-1.08-0.15-2.62-0.15c-0.08,0-0.17,0-0.25,0L258.5,7.2c0.77,0,1.5-0.02,2.2-0.05
		c0.15-0.03,0.27-0.2,0.33-0.47l0.15-0.95c0.8,0,1.62,0.03,2.35,0.05c0,0.78-0.03,1.7-0.03,2.6s-0.02,1.8-0.02,2.45
		c-0.72,0.05-1.55,0.08-2.35,0.08l-0.12-1c-0.03-0.38-0.15-0.52-0.38-0.52c-0.7-0.03-1.4-0.05-2.12-0.05l-0.03,4.42
		c0,0.47,0.17,0.55,1.3,0.55c1.02,0,1.65-0.08,2-0.15c0.25-0.08,0.38-0.2,0.48-0.47l0.72-2c0.85,0.12,1.72,0.3,2.45,0.45
		c-0.27,1.45-0.6,2.92-0.92,4.4c-1.25,0-4.72-0.03-8.2-0.03c-1.15,0-2.42,0.03-3.42,0.03c0-0.7,0-1.45,0.03-2.12L254.17,14.32z"/>
	<path fill="#FFFFFF" d="M269.22,14.42l1.27-0.1c0.08,0,0.1-0.05,0.1-0.1l0.03-11.75l-1.45-0.05c0-0.73,0-1.42,0.02-2.12
		c1.85-0.05,4.05-0.08,6.1-0.08c2.62,0,4.4,0.43,5.65,1.1c2.12,1.17,3.72,3.67,3.72,6.37c0,3.55-1.62,6.12-3.65,7.47
		c-1.47,1-3.7,1.35-5.5,1.35c-0.8,0-2.05-0.03-2.9-0.03c-1.12,0-2.4,0-3.42,0C269.2,15.82,269.2,15.07,269.22,14.42z M274.84,14
		c-0.02,0.32,0.25,0.52,0.6,0.52c0.97,0,2.05-0.22,3.02-1.1c1.15-1.08,1.62-3.1,1.62-4.72c0-2.62-0.55-4.12-1.88-5.4
		c-0.85-0.82-1.87-1.05-2.55-1.05c-0.35,0-0.58,0.02-0.75,0.1L274.84,14z"/>
	<path fill="#FFFFFF" d="M293.82,9.97c0,1.9,0.33,2.75,0.9,3.42c0.5,0.55,1.15,0.8,2,0.8c0.92,0,1.47-0.38,1.9-0.87
		c0.58-0.65,0.85-2.05,0.85-3.7c0-2.02,0-5.07-0.05-7.12c0-0.05-0.05-0.08-0.1-0.08l-1.75-0.08c0-0.67,0.03-1.42,0.03-2.1
		c0.92,0,2.22,0,3.32,0c1.05,0,2.07,0,2.97,0c0,0.67,0,1.4-0.02,2.1l-1.17,0.08l-0.08,6.82c0,3-0.9,4.87-1.85,5.8
		c-0.92,0.97-2.17,1.7-4.5,1.7c-2.2,0-3.75-0.42-5-1.55c-1.42-1.3-1.78-3.3-1.78-5.15v-7.5c0-0.08-0.02-0.15-0.12-0.15l-1.1-0.05
		c0-0.7,0-1.42,0.03-2.1c0.97,0,2.37,0,3.45,0c1.32,0,2.75,0,3.87,0c0,0.65,0,1.42-0.03,2.12l-1.7,0.05L293.82,9.97z"/>
	<path fill="#FFFFFF" d="M310.59,1.97c1.7-1.32,3.92-1.97,6.15-1.97c1.55,0,2.67,0.15,3.3,0.38c0.15,1.67,0.27,3.37,0.38,5.1
		c-0.83,0.12-1.72,0.25-2.62,0.35l-0.6-2.62c-0.02-0.1-0.05-0.25-0.15-0.3c-0.28-0.17-0.65-0.33-1.17-0.33
		c-0.8,0-1.67,0.33-2.38,1.05c-1.1,1.15-1.7,2.8-1.7,4.9c0,2.15,0.45,3.55,1.45,4.45c0.75,0.7,1.92,1.03,2.92,1.03
		c1.12,0,3.05-0.38,3.87-0.7c0.2,0.72,0.35,1.65,0.45,2.32c-1.6,0.62-3.92,1.12-5.2,1.12c-1.92,0-3.87-0.42-5.32-1.47
		c-1.58-1.15-2.82-3.3-2.82-5.92C307.15,5.8,308.75,3.42,310.59,1.97z"/>
	<path fill="#FFFFFF" d="M324.62,14.32c0.05,0,0.12-0.05,0.15-0.12c1.52-4.05,3.72-9.97,5.22-14.05c0.45-0.05,1.6-0.05,3.42-0.05
		c1.45,4.2,3.42,10.17,4.8,14.2l1.27,0.1c0,0.67,0,1.4-0.03,2.1c-0.82,0-2.05,0-3,0c-1.3,0-2.87,0-4.02,0c0-0.7,0-1.42,0.03-2.12
		l1.22-0.08c0.05,0,0.1-0.05,0.08-0.12c-0.12-0.38-0.35-1.17-0.5-1.55c-0.03-0.1-0.08-0.12-0.17-0.12l-4.62,0.05
		c-0.12,0.55-0.33,1.25-0.42,1.77l1.38,0.08c0,0.67,0,1.4-0.03,2.1c-1,0-2.3,0-3.52,0c-0.82,0-1.7,0-2.45,0
		c0-0.7,0.03-1.42,0.05-2.1L324.62,14.32z M330.82,4.75c-0.58,1.85-1.17,3.82-1.7,5.52c-0.02,0.1-0.02,0.15,0.05,0.15h3.5
		c-0.53-1.65-1.12-3.7-1.72-5.67H330.82z"/>
	<path fill="#FFFFFF" d="M345.87,14.3c0.05,0,0.07-0.05,0.07-0.1V2.5c-0.95,0-1.37,0.07-1.72,0.12c-0.35,0.08-0.42,0.25-0.47,0.5
		l-0.45,2.4c-0.87-0.05-1.85-0.12-2.65-0.22c0.1-1.7,0.2-3.4,0.32-5.07c0.53,0,1.47,0.03,2.35,0.03c0.65,0,3.97,0,4.9,0
		c0.78,0,4,0,4.67,0c1-0.03,1.88-0.03,2.38-0.03c0.1,1.67,0.2,3.38,0.25,5.05c-0.83,0.1-1.77,0.18-2.67,0.25l-0.4-2.4
		c-0.05-0.27-0.15-0.4-0.47-0.47c-0.33-0.08-0.62-0.12-1.72-0.12l-0.08,11.75l1.8,0.1c0,0.67,0,1.42-0.03,2.15
		c-1.05,0-2.55-0.03-3.87-0.03c-1.2,0-2.67,0.03-3.92,0.03c0-0.73,0.02-1.45,0.02-2.15L345.87,14.3z"/>
	<path fill="#FFFFFF" d="M359.12,2.38c0-0.7,0-1.45,0.03-2.12c1.05,0,2.6,0,3.77,0c1.22,0,2.65,0,3.7,0c0,0.65-0.02,1.45-0.02,2.12
		l-1.58,0.07c-0.05,0-0.05,0.03-0.05,0.12l-0.08,11.7l1.67,0.1c0,0.67,0,1.42-0.03,2.15c-1.02,0-2.5-0.03-3.75-0.03
		c-1.15,0-2.55,0.03-3.7,0.03c0-0.7,0.02-1.47,0.02-2.17l1.45-0.05c0.05,0,0.1-0.05,0.1-0.1V2.45L359.12,2.38z"/>
	<path fill="#FFFFFF" d="M372.4,14.67c-1.52-1.53-2.25-3.5-2.25-6.15c0-3.3,1.65-5.92,3.7-7.17c1.55-0.95,3.1-1.35,5.02-1.35
		c1.57,0,3.02,0.4,4.32,1.22c1.92,1.22,3.17,3.82,3.17,6.75c0,2.42-0.85,5-2.55,6.62c-1.57,1.45-3.55,2.15-5.97,2.15
		C375.62,16.75,373.62,15.92,372.4,14.67z M380.49,13.6c0.88-1.12,1.2-2.97,1.2-5.05c0-2.02-0.42-3.82-1.03-4.97
		c-0.5-0.97-1.3-1.45-2.22-1.45c-1.03,0-1.72,0.38-2.3,1.07c-0.72,0.9-1.27,2.67-1.27,5.05c0,2.52,0.35,4.15,1.22,5.22
		c0.7,0.85,1.5,1.12,2.27,1.12C379.17,14.6,379.84,14.47,380.49,13.6z"/>
	<path fill="#FFFFFF" d="M391.27,14.3c0.05,0,0.08-0.03,0.08-0.1l-0.02-11.77l-1.45-0.05c0-0.7,0-1.45,0.03-2.12c1.4,0,3.35,0,4.8,0
		c1.9,2.72,5.02,7.52,7.15,10.85h0.15c-0.05-2.85-0.05-5.77-0.08-8.67l-1.82-0.05c0-0.68,0.03-1.47,0.05-2.12c0.97,0,2.15,0,3.25,0
		c0.88,0,1.9-0.03,2.65-0.03c0,0.68,0,1.42-0.02,2.12l-1.1,0.08c-0.05,0-0.1,0.02-0.1,0.12l-0.1,13.7
		c-0.53,0.22-1.77,0.47-3.05,0.47c-1.65-1.97-4.45-5.6-7.32-9.9l-0.17,0.03c0,2.55-0.02,4.97-0.05,7.45l1.85,0.05
		c0,0.7,0,1.47-0.03,2.15c-1.05,0-2.4,0-3.57,0c-0.83,0-1.67,0.03-2.38,0.03c0-0.7,0-1.45,0.03-2.15L391.27,14.3z"/>
</g>
</svg>
