<?xml version="1.0" standalone="no"?><!-- Generator: Gravit.io --><svg xmlns="http://www.w3.org/2000/svg" xmlns:xlink="http://www.w3.org/1999/xlink" style="isolation:isolate" viewBox="0 0 16 16" width="16" height="16"><path d=" M 14.034 14.664 L 10.454 9.404 C 12.5 7.785 13.078 4.852 11.699 2.557 C 10.201 0.064 6.955 -0.746 4.462 0.752 C 1.97 2.25 1.16 5.496 2.658 7.989 C 4.008 10.237 6.782 11.115 9.142 10.168 L 12.115 15.817 C 12.207 15.992 12.421 16.052 12.591 15.951 L 13.928 15.147 C 14.098 15.045 14.145 14.828 14.034 14.664 Z  M 9.024 8.345 C 7.33 9.362 5.124 8.812 4.106 7.118 C 3.089 5.424 3.639 3.218 5.333 2.201 C 7.026 1.183 9.233 1.733 10.25 3.427 C 11.268 5.121 10.718 7.327 9.024 8.345 Z " fill="rgb(255,255,255)"/></svg>