<?xml version="1.0" encoding="utf-8"?>
<!-- Generator: Adobe Illustrator 22.0.0, SVG Export Plug-In . SVG Version: 6.00 Build 0)  -->
<svg version="1.1" id="Layer_1" xmlns="http://www.w3.org/2000/svg" xmlns:xlink="http://www.w3.org/1999/xlink" x="0px" y="0px"
	 viewBox="0 0 16 16" style="enable-background:new 0 0 16 16;" xml:space="preserve">
<style type="text/css">
	.st0{fill:#73808A;}
</style>
<path class="st0" d="M2,16h12v-4H2V16z M6,13.5C6,13.224,6.224,13,6.5,13h3c0.276,0,0.5,0.224,0.5,0.5v1c0,0.276-0.224,0.5-0.5,0.5
	S9,14.776,9,14.5V14H7v0.5C7,14.776,6.776,15,6.5,15S6,14.776,6,14.5V13.5z"/>
<path class="st0" d="M2,11h12V7H2V11z M6,8.5C6,8.224,6.224,8,6.5,8h3C9.776,8,10,8.224,10,8.5v1C10,9.776,9.776,10,9.5,10
	S9,9.776,9,9.5V9H7v0.5C7,9.776,6.776,10,6.5,10S6,9.776,6,9.5V8.5z"/>
<path class="st0" d="M11,0H5L2,2v4h12V2L11,0z M10,4.5C10,4.776,9.776,5,9.5,5S9,4.776,9,4.5V4H7v0.5C7,4.776,6.776,5,6.5,5
	S6,4.776,6,4.5v-1C6,3.224,6.224,3,6.5,3h3C9.776,3,10,3.224,10,3.5V4.5z"/>
</svg>
