<?xml version="1.0" encoding="utf-8"?>
<!-- Generator: Adobe Illustrator 22.0.0, SVG Export Plug-In . SVG Version: 6.00 Build 0)  -->
<svg version="1.1" id="Layer_1" xmlns="http://www.w3.org/2000/svg" xmlns:xlink="http://www.w3.org/1999/xlink" x="0px" y="0px"
	 width="16px" height="16px" viewBox="0 0 16 16" style="enable-background:new 0 0 16 16;" xml:space="preserve">
<style type="text/css">
	.st0{fill:#73808A;}
</style>
<path class="st0" d="M0,15c0,0.552,0.448,1,1,1h14c0.552,0,1-0.448,1-1V6H0V15z M11,7h4v2h-4V7z M11,10h4v2h-4V10z M11,13h4v2h-4V13
	z M6,7h4v2H6V7z M6,10h4v2H6V10z M6,13h4v2H6V13z M1,7h4v2H1V7z M1,10h4v2H1V10z M1,13h4v2H1V13z M15,2h-2V0.571
	C13,0.255,12.776,0,12.5,0S12,0.256,12,0.571V2H4V0.571C4,0.255,3.776,0,3.5,0S3,0.256,3,0.571V2H1C0.448,2,0,2.448,0,3v2h16V3
	C16,2.448,15.552,2,15,2z M3.5,4.5c-0.552,0-1-0.448-1-1c0-0.37,0.201-0.693,0.5-0.866V3.5C3,3.776,3.224,4,3.5,4S4,3.776,4,3.5
	V2.634C4.299,2.807,4.5,3.13,4.5,3.5C4.5,4.052,4.052,4.5,3.5,4.5z M12.5,4.5c-0.552,0-1-0.448-1-1c0-0.37,0.201-0.693,0.5-0.866
	V3.5C12,3.776,12.224,4,12.5,4S13,3.776,13,3.5V2.634c0.299,0.173,0.5,0.496,0.5,0.866C13.5,4.052,13.052,4.5,12.5,4.5z"/>
<circle class="st0" cx="3" cy="8" r="1"/>
<circle class="st0" cx="8" cy="8" r="1"/>
<circle class="st0" cx="13" cy="8" r="1"/>
</svg>
