<?xml version="1.0" encoding="utf-8"?>
<!-- Generator: Adobe Illustrator 22.0.0, SVG Export Plug-In . SVG Version: 6.00 Build 0)  -->
<svg version="1.1" id="Layer_1" xmlns="http://www.w3.org/2000/svg" xmlns:xlink="http://www.w3.org/1999/xlink" x="0px" y="0px"
	 width="16px" height="16px" viewBox="0 0 16 16" style="enable-background:new 0 0 16 16;" xml:space="preserve">
<style type="text/css">
	.st0{fill:#73808A;}
</style>
<path class="st0" d="M16,9.501V6.498l-2.293-0.382c-0.093-0.283-0.207-0.557-0.339-0.82l1.351-1.891l-2.123-2.123l-1.888,1.349
	c-0.264-0.134-0.54-0.248-0.825-0.342L9.502,0.001H6.499L6.118,2.289c-0.285,0.094-0.56,0.209-0.824,0.342L3.406,1.282L1.283,3.405
	l1.351,1.891c-0.132,0.263-0.246,0.537-0.339,0.82L0.002,6.498v3.003l2.299,0.383c0.093,0.281,0.206,0.552,0.338,0.813l-1.355,1.898
	l2.123,2.123l1.901-1.358c0.259,0.13,0.53,0.243,0.809,0.335l0.384,2.304h3.003l0.384-2.304c0.279-0.092,0.549-0.204,0.809-0.335
	l1.901,1.358l2.123-2.123l-1.355-1.898c0.132-0.261,0.245-0.532,0.338-0.813l2.299-0.383H16z M8,10c-1.105,0-2-0.895-2-2
	s0.895-2,2-2s2,0.895,2,2S9.105,10,8,10z"/>
</svg>
