<?xml version="1.0" encoding="utf-8"?>
<!-- Generator: Adobe Illustrator 22.0.0, SVG Export Plug-In . SVG Version: 6.00 Build 0)  -->
<svg version="1.1" id="Layer_1" xmlns="http://www.w3.org/2000/svg" xmlns:xlink="http://www.w3.org/1999/xlink" x="0px" y="0px"
	 width="16px" height="16px" viewBox="0 0 16 16" style="enable-background:new 0 0 16 16;" xml:space="preserve">
<style type="text/css">
	.st0{fill:#73808A;}
</style>
<path class="st0" d="M7,4.75C7,4.338,7.338,4,7.75,4h0.5C8.662,4,9,4.338,9,4.75v0.5C9,5.662,8.662,6,8.25,6h-0.5
	C7.338,6,7,5.662,7,5.25V4.75z"/>
<path class="st0" d="M10,12H6v-1h1V8H6V7h3v4h1V12z"/>
<path class="st0" d="M8,0C3.582,0,0,3.582,0,8s3.582,8,8,8s8-3.582,8-8S12.418,0,8,0z M8,14.5c-3.59,0-6.5-2.91-6.5-6.5
	S4.41,1.5,8,1.5s6.5,2.91,6.5,6.5S11.59,14.5,8,14.5z"/>
</svg>
