<?xml version="1.0" encoding="utf-8"?>
<!-- Generator: Adobe Illustrator 16.0.4, SVG Export Plug-In . SVG Version: 6.00 Build 0)  -->
<!DOCTYPE svg PUBLIC "-//W3C//DTD SVG 1.1//EN" "http://www.w3.org/Graphics/SVG/1.1/DTD/svg11.dtd">
<svg version="1.1" xmlns="http://www.w3.org/2000/svg" xmlns:xlink="http://www.w3.org/1999/xlink" x="0px" y="0px"
	 width="264.72px" height="373px" viewBox="0 0 264.72 373" enable-background="new 0 0 264.72 373" xml:space="preserve">
<g id="Background">
</g>
<g id="Layer_1">
	<g>
		<path fill="#FFFFFF" d="M2.49,192.65c0.14,0,0.23-0.09,0.23-0.19v-22.14L0,170.23c0-1.36,0.05-2.77,0.09-4.04
			c1.74,0,4.18,0,6.16,0c1.46,0,9.87,0,11,0c1.97,0,3.62-0.05,4.65-0.05c0.19,2.77,0.38,5.59,0.47,8.37
			c-1.36,0.19-3.01,0.38-4.61,0.52l-0.75-3.62c-0.09-0.42-0.28-0.7-0.94-0.8c-0.66-0.09-2.02-0.28-4.94-0.28c-0.14,0-0.33,0-0.47,0
			l-0.05,8.93c1.46,0,2.82-0.05,4.14-0.09c0.28-0.05,0.52-0.38,0.61-0.89l0.28-1.79c1.5,0,3.06,0.05,4.42,0.09
			c0,1.46-0.05,3.2-0.05,4.89s-0.05,3.38-0.05,4.61c-1.36,0.09-2.91,0.14-4.42,0.14l-0.23-1.88c-0.05-0.71-0.28-0.99-0.71-0.99
			c-1.32-0.05-2.63-0.09-4-0.09l-0.05,8.32c0,0.89,0.33,1.03,2.44,1.03c1.93,0,3.1-0.14,3.76-0.28c0.47-0.14,0.71-0.38,0.89-0.89
			l1.36-3.76c1.6,0.23,3.24,0.56,4.61,0.85c-0.52,2.73-1.13,5.5-1.74,8.27c-2.35,0-8.88-0.05-15.42-0.05
			c-2.16,0-4.56,0.05-6.44,0.05c0-1.32,0-2.73,0.05-3.99L2.49,192.65z"/>
		<path fill="#FFFFFF" d="M27.92,192.7c0.19,0,0.42-0.09,0.56-0.23c1.65-1.55,3.76-3.52,5.92-5.45v-0.38
			c-1.55-1.79-4.04-4.65-5.64-6.3c-0.05-0.09-0.14-0.14-0.28-0.19l-1.69-0.09c0-1.32,0-2.77,0.05-3.99c1.5,0,3.62,0,5.5,0
			c2.21,0,4.98,0,7,0c0,1.27,0,2.73-0.05,3.99l-1.74,0.09c0.99,1.17,2.02,2.54,2.68,3.2h0.33c0.8-0.8,1.5-1.69,2.44-3.01
			c0.09-0.09,0.05-0.19-0.09-0.19l-1.22-0.09c0-1.32,0-2.73,0.05-3.99c1.46,0,3.43,0,4.98,0c1.32,0,2.82,0,3.95,0
			c0,1.22-0.05,2.68-0.09,3.95l-1.46,0.09c-1.83,1.74-3.95,3.9-6.02,5.83v0.28c1.97,2.21,4.04,4.7,5.59,6.44l2.02,0.09
			c0,1.27-0.05,2.73-0.09,4.04c-1.5,0-3.52-0.05-5.4-0.05c-2.21,0-4.98,0.05-7.05,0.05c0-1.32,0.05-2.77,0.05-3.99l1.41-0.14
			c0.19,0,0.23-0.14,0.19-0.28c-0.66-0.8-1.55-1.88-2.44-2.82h-0.38c-0.85,1.03-1.79,2.11-2.54,3.1l1.41,0.09
			c0,1.32,0,2.73-0.09,3.99c-1.5,0-3.48,0-5.17,0c-1.41,0-3.1,0-4.42,0c0-1.27,0-2.73,0.05-3.9L27.92,192.7z"/>
		<path fill="#FFFFFF" d="M52.5,204.02l2.26-0.19c0.09,0,0.19-0.14,0.19-0.24l0.05-22.65l-3.01-0.09c0-1.27,0.05-2.63,0.09-3.85
			c2.26-0.23,9.35-1.46,9.59-1.46c0.09,0,0.09,0,0.09,0.09c0.19,0.85,0.33,1.74,0.52,2.58l0.28,0.05c4.75-2.54,5.31-2.68,7.24-2.68
			c3.9-0.05,7.19,4.37,7.14,9.26c0,2.16-0.52,4.32-1.41,6.3c-0.66,1.41-1.74,3.15-3.62,4.56c-0.94,0.71-3.15,1.5-5.03,1.5
			c-1.79,0-3.1-0.23-4.14-0.66l-0.33,0.09c0.05,2.35,0.05,4.75,0.05,7.14l3.85,0.09c0,1.32-0.05,2.68-0.09,3.9
			c-2.26,0-5.08,0-7.57,0.05c-1.88,0-4.37,0-6.2,0.05C52.45,206.61,52.45,205.24,52.5,204.02z M68.19,182.26
			c-0.38-0.56-0.99-1.22-1.88-1.22c-0.94,0-2.3,0.47-3.67,1.32c-0.05,2.63-0.09,6.34-0.09,8.98c0,0.94,1.88,1.65,2.87,1.65
			c0.85,0,1.83-0.33,2.4-1.22c0.66-0.99,1.08-2.63,1.08-5.12C68.9,184.42,68.62,182.92,68.19,182.26z"/>
		<path fill="#FFFFFF" d="M91.79,175.59c2.91,0,5.12,1.03,6.39,2.49c1.5,1.79,2.4,4.23,2.4,7.24c-0.05,0.71-2.16,2.73-2.54,2.77
			c-1.22,0.14-6.06,0.14-10.25,0.14c0.09,1.55,0.66,2.44,1.27,3.05c1.08,1.03,2.3,1.13,3.52,1.13c2.02,0,5.08-0.75,6.63-1.32
			c0.33,1.22,0.71,2.73,0.89,3.9c-2.77,1.27-6.91,2.21-9.16,2.21c-6.25,0-11-3.05-11-9.68C79.95,180.85,84.74,175.59,91.79,175.59z
			 M88.64,180.76c-0.56,0.94-0.89,1.83-0.85,3.71c1.65,0,3.95-0.05,5.31-0.09c0.28,0,0.42-0.19,0.42-0.52
			c0-0.99-0.19-2.21-0.52-2.91c-0.42-0.85-1.13-1.41-2.11-1.41C90.1,179.54,89.3,179.73,88.64,180.76z"/>
		<path fill="#FFFFFF" d="M103.59,192.93l2.21-0.09c0.14-0.05,0.19-0.09,0.19-0.19c0-3.81,0-8.18,0-11.84l-2.77-0.14
			c0-1.27,0.05-2.63,0.09-3.85c2.11-0.23,9.12-1.22,9.35-1.22c0.05,0,0.09,0,0.09,0.09c0.14,2.02,0.33,3.99,0.47,6.02l0.28,0.05
			c2.91-5.55,3.99-6.16,6.34-6.16c1.17,0,2.44,0.28,3.38,0.61c0,2.21-1.32,6.02-2.21,6.81c-0.42-0.09-1.83-0.47-2.96-0.47
			c-0.47,0-0.89,0.05-1.36,0.42c-0.85,0.7-1.55,1.55-2.44,3.24c-0.56,1.13-0.66,2.63-0.7,3.95c0,0.8,0,1.88,0,2.58l3.85,0.14
			c0,1.27,0,2.58-0.09,3.85c-1.97,0-4.89,0-7.1,0c-2.07,0-4.7,0.05-6.67,0.05C103.54,195.52,103.54,194.11,103.59,192.93z"/>
		<path fill="#FFFFFF" d="M124.69,180.85c0-1.27,0.05-2.73,0.09-4c2.54-0.19,10.15-1.27,10.53-1.27c0.09,0,0.09,0.05,0.09,0.14
			c-0.05,5.08-0.14,12.31-0.14,17.01l2.58,0.09c0,1.32,0,2.63,0,3.9c-1.79,0-4.46,0-6.49,0c-1.97,0-4.46,0.05-6.39,0.05
			c0-1.27,0-2.68,0.05-3.9l2.49-0.09c0.14-0.05,0.19-0.14,0.19-0.23v-11.56L124.69,180.85z M135.26,168.59
			c0,2.54-2.07,4.23-4.42,4.23c-2.02,0-4.09-1.74-4.09-4.14c0-1.97,1.74-3.9,4.32-3.9C133.81,164.78,135.26,166.61,135.26,168.59z"
			/>
		<path fill="#FFFFFF" d="M151.95,175.59c2.91,0,5.12,1.03,6.39,2.49c1.5,1.79,2.4,4.23,2.4,7.24c-0.05,0.71-2.16,2.73-2.54,2.77
			c-1.22,0.14-6.06,0.14-10.25,0.14c0.09,1.55,0.66,2.44,1.27,3.05c1.08,1.03,2.3,1.13,3.52,1.13c2.02,0,5.08-0.75,6.63-1.32
			c0.33,1.22,0.71,2.73,0.89,3.9c-2.77,1.27-6.91,2.21-9.16,2.21c-6.25,0-11-3.05-11-9.68C140.1,180.85,144.9,175.59,151.95,175.59z
			 M148.8,180.76c-0.56,0.94-0.89,1.83-0.85,3.71c1.65,0,3.95-0.05,5.31-0.09c0.28,0,0.42-0.19,0.42-0.52
			c0-0.99-0.19-2.21-0.52-2.91c-0.42-0.85-1.13-1.41-2.11-1.41C150.25,179.54,149.46,179.73,148.8,180.76z"/>
		<path fill="#FFFFFF" d="M163.18,180.85c0-1.32,0.05-2.68,0.05-3.85c2.35-0.19,9.31-1.36,9.59-1.36c0.09,0,0.09,0.05,0.09,0.09
			c0.23,0.99,0.42,1.97,0.66,2.96l0.23,0.05c4.56-2.82,5.59-3.15,7.75-3.15c2.02,0,3.95,1.79,4.89,3.38
			c0.89,1.46,1.08,2.91,1.08,4.18c0,2.68-0.14,6.58-0.19,9.59l2.35,0.09c0,1.27,0,2.68-0.05,3.9c-1.79,0-4.09,0-6.06,0
			c-2.02,0-4.23,0.05-5.87,0.05c0-1.27,0-2.68,0.05-3.9l1.88-0.09c0.09-0.05,0.14-0.09,0.19-0.23c0.05-1.88,0-4.51,0-6.34
			c-0.05-2.16-0.05-3.29-0.38-3.99c-0.47-0.89-1.08-1.03-1.79-1.03c-1.03,0-2.63,0.75-3.76,1.65c-0.05,2.73-0.14,7.24-0.14,9.92
			l2.02,0.14c0,1.27,0,2.63-0.05,3.85c-1.64,0-3.99,0-5.87,0c-1.97,0-4.37,0.05-6.2,0.05c0-1.27,0-2.68,0.05-3.9l2.3-0.09
			c0.14-0.05,0.19-0.14,0.19-0.23v-11.61L163.18,180.85z"/>
		<path fill="#FFFFFF" d="M205.57,175.59c1.69,0,4.09,0.47,5.22,1.13c0,1.46-1.46,4.75-2.4,5.26c-0.61-0.24-3.01-1.41-4.89-1.41
			c-1.03,0-1.93,0.33-2.63,1.46c-0.71,1.22-0.94,2.63-0.94,4.75c0,2.26,0.61,3.52,1.46,4.51c0.8,0.94,2.21,1.13,3.15,1.13
			c1.88,0,4.04-0.71,5.45-1.27c0.33,1.22,0.71,2.63,0.89,3.76c-3.05,1.65-6.77,2.3-8.69,2.3c-5.78,0-10.2-3.57-10.2-9.35
			C191.99,181.18,197.25,175.59,205.57,175.59z"/>
		<path fill="#FFFFFF" d="M224.42,175.59c2.91,0,5.12,1.03,6.39,2.49c1.5,1.79,2.4,4.23,2.4,7.24c-0.05,0.71-2.16,2.73-2.54,2.77
			c-1.22,0.14-6.06,0.14-10.25,0.14c0.09,1.55,0.66,2.44,1.27,3.05c1.08,1.03,2.3,1.13,3.52,1.13c2.02,0,5.08-0.75,6.63-1.32
			c0.33,1.22,0.71,2.73,0.89,3.9c-2.77,1.27-6.91,2.21-9.16,2.21c-6.25,0-11-3.05-11-9.68
			C212.58,180.85,217.37,175.59,224.42,175.59z M221.27,180.76c-0.56,0.94-0.89,1.83-0.85,3.71c1.65,0,3.95-0.05,5.31-0.09
			c0.28,0,0.42-0.19,0.42-0.52c0-0.99-0.19-2.21-0.52-2.91c-0.42-0.85-1.13-1.41-2.11-1.41
			C222.73,179.54,221.93,179.73,221.27,180.76z"/>
		<path fill="#FFFFFF" d="M125.44,225.81c0-1.22,0.05-2.63,0.05-3.81c2.16-0.28,9.26-1.36,9.54-1.36c0.05,0,0.09,0.05,0.09,0.09
			c0.19,0.89,0.28,1.79,0.42,2.68l0.19,0.05c4.32-2.54,5.12-2.87,7.05-2.87c2.49,0,4.37,2.44,4.79,3.05h0.24
			c4.65-2.68,5.5-2.96,7.28-2.96c2.02,0,3.67,1.13,4.89,2.68c0.8,1.03,1.41,2.73,1.41,4.18c0,3.34-0.09,7.14-0.14,10.15l2.44,0.09
			c0,1.27-0.05,2.68-0.09,3.95c-1.65,0-4,0-5.78,0c-1.97,0-4.14,0.05-5.78,0.05c0-1.27,0-2.73,0-3.95l1.65-0.14
			c0.09,0,0.19-0.09,0.19-0.19c0-2.44,0-5.73,0-8.08c0-0.85-0.05-1.6-0.33-2.26c-0.38-0.75-0.99-1.03-1.83-1.03
			c-0.94,0-2.35,0.56-3.29,1.13c0,3.01-0.05,7.52-0.09,10.43l1.88,0.09c0,1.27,0,2.68-0.05,3.95c-1.65,0-3.95,0-5.87,0
			c-1.74,0-3.67,0.05-5.03,0.05c0-1.32,0.05-2.73,0.05-3.95l1.69-0.14c0.14-0.05,0.19-0.14,0.19-0.23c0-2.35,0-5.69,0-8.46
			c0-0.8-0.05-1.55-0.33-2.12c-0.28-0.66-0.89-0.85-1.6-0.85c-0.94,0-2.49,0.61-3.48,1.36c-0.05,2.73-0.09,7.52-0.09,10.29
			l1.88,0.09c0,1.27,0,2.68,0,3.95c-1.79,0-4.09,0-6.06,0c-1.79,0-4.09,0-5.83,0c0-1.27,0-2.73,0.05-3.95l2.35-0.09
			c0.14,0,0.19-0.09,0.19-0.23V225.9L125.44,225.81z"/>
		<path fill="#FFFFFF" d="M169.57,239.95c-2.16-1.83-3.48-4.37-3.48-7.99c0-3.71,1.64-7.05,4.46-9.12c2.07-1.55,4.89-2.26,7.71-2.26
			c2.49,0,4.61,0.56,6.44,1.69c2.4,1.55,4.23,4.51,4.23,8.69c0,4.14-2.26,7.66-5.03,9.45c-1.83,1.17-4.18,1.79-6.86,1.79
			C174.27,242.21,171.45,241.55,169.57,239.95z M179.68,237.42c0.89-1.22,1.13-3.1,1.13-6.25c0-2.87-0.38-4.32-0.85-5.45
			c-0.52-0.99-1.36-1.46-2.21-1.46c-0.85,0-1.6,0.33-2.21,1.17c-0.75,1.13-1.22,2.91-1.22,5.78c0,3.48,0.42,5.08,1.08,6.06
			c0.61,0.94,1.32,1.27,2.16,1.27C178.36,238.54,179.11,238.31,179.68,237.42z"/>
		<path fill="#FFFFFF" d="M191.94,237.93l2.21-0.09c0.14-0.05,0.19-0.09,0.19-0.19c0-3.81,0-8.18,0-11.84l-2.77-0.14
			c0-1.27,0.05-2.63,0.09-3.85c2.11-0.23,9.12-1.22,9.35-1.22c0.05,0,0.09,0,0.09,0.09c0.14,2.02,0.33,3.99,0.47,6.02l0.28,0.05
			c2.91-5.55,3.99-6.16,6.34-6.16c1.17,0,2.44,0.28,3.38,0.61c0,2.21-1.32,6.02-2.21,6.81c-0.42-0.09-1.83-0.47-2.96-0.47
			c-0.47,0-0.89,0.05-1.36,0.42c-0.85,0.7-1.55,1.55-2.44,3.24c-0.56,1.13-0.66,2.63-0.7,3.95c0,0.8,0,1.88,0,2.58l3.85,0.14
			c0,1.27,0,2.58-0.09,3.85c-1.97,0-4.89,0-7.1,0c-2.07,0-4.7,0.05-6.67,0.05C191.9,240.52,191.9,239.11,191.94,237.93z"/>
		<path fill="#FFFFFF" d="M224.42,220.59c2.91,0,5.12,1.03,6.39,2.49c1.5,1.79,2.4,4.23,2.4,7.24c-0.05,0.7-2.16,2.73-2.54,2.77
			c-1.22,0.14-6.06,0.14-10.25,0.14c0.09,1.55,0.66,2.44,1.27,3.05c1.08,1.03,2.3,1.13,3.52,1.13c2.02,0,5.08-0.75,6.63-1.32
			c0.33,1.22,0.71,2.73,0.89,3.9c-2.77,1.27-6.91,2.21-9.16,2.21c-6.25,0-11-3.05-11-9.68
			C212.58,225.85,217.37,220.59,224.42,220.59z M221.27,225.76c-0.56,0.94-0.89,1.83-0.85,3.71c1.65,0,3.95-0.05,5.31-0.09
			c0.28,0,0.42-0.19,0.42-0.52c0-0.99-0.19-2.21-0.52-2.91c-0.42-0.85-1.13-1.41-2.11-1.41
			C222.73,224.54,221.93,224.73,221.27,225.76z"/>
	</g>
	<line fill="none" stroke="#FFFFFF" stroke-width="2" stroke-miterlimit="10" x1="263.72" y1="0" x2="263.72" y2="373"/>
</g>
</svg>
