<svg>

	<symbol id="icon-tools" viewBox="0 0 640 512">
		<title>Tools</title>
		<path d="M246.278,352.277l73.445,73.444l-58.338,74.912c-10.691,13.981-29.621,15.237-42.066,2.793l-50.745-50.746
			c-12.445-12.443-11.188-31.374,2.792-42.064L246.278,352.277z M636.756,131.246L560,208.001l-96-96l76.756-76.755
			c-9.244-2.122-18.869-3.245-28.756-3.245c-70.692,0-128,57.308-128,128c0,25.498,7.458,49.253,20.309,69.208l-71.453,55.646
			L224,176.001l144-144H208l-71.029,71.029l-7.03-7.029H96v33.941l7.029,7.029L0,240.001l80,80l96-96l169.116,169.115L464,511.999
			l48-47.998L387.146,339.146l55.646-71.455c19.954,12.852,43.71,20.31,69.208,20.31c70.692,0,128-57.308,128-128
			C640,150.114,638.877,140.489,636.756,131.246z"/>
	</symbol>
	
	<symbol id="icon-brain" viewBox="0 0 512 512">
		<title>Brain</title>
		<path d="M409.229,148.523c43.418,43.847,26.38,130.608-108.326,98.489c-33.723,5.096-105.852,15.438-114.96-35.078
			c-12.816,8.095-77.631-37.397-24.959-106.257C223.19,24.351,377.523,44.979,409.229,148.523z M111.44,430.812
			c-23.729-27.071-18.326-89.325-15.136-111.548H53.648c-10.956,0-20.243-5.693-24.239-14.858
			c-5.387-12.356-0.173-27.744,13.947-41.161c23.688-22.509,34.292-45.828,34.292-58.953l-0.006-1.412
			c-0.054-8.427-0.216-34.068,6.674-64.599c8.84-39.176,25.609-70.784,49.84-93.947C164.931,14.917,207.05,0,259.343,0
			c59.024,0,139.651,13.861,188.564,79.893c19.942,26.923,32.307,60.035,35.755,95.759c3.103,32.149-1.232,65.879-12.21,94.978
			c-13.068,34.642-38.651,53.142-50.635,69.462c-20.411,27.799-36.638,75.417-37.441,171.907h-32.001
			c0.85-106.11,19.6-157.165,43.198-189.304c11.374-15.494,35.13-31.506,46.756-62.324c9.436-25.016,13.153-54.117,10.466-81.942
			c-2.937-30.432-13.329-58.453-30.056-81.035c-15.083-20.362-35.235-36.361-59.898-47.551
			c-28.428-12.898-62.913-19.438-102.498-19.438c-23.371,0-44.291,3.433-62.178,10.205c-15.373,5.819-28.936,14.284-40.313,25.159
			c-19.837,18.961-33.714,45.502-41.247,78.885c-6.157,27.285-6.011,50.432-5.963,58.038c0.004,0.632,0.007,1.165,0.007,1.599
			c0,24.034-16.731,54.861-43.664,80.454c-1.58,1.5-2.807,2.886-3.752,4.112h72.223l-5.211,26.93
			c-0.032,0.17-3.485,18.516-3.807,39.705c-0.524,34.416,7.236,52.039,10.597,55.868c2.638,3.006,5.367,4.123,10.069,4.123
			c36.229,0,48.478,0.535,62.051,13.51c16.113,15.401,16.162,61.339,16.028,83.006h-32.001c0.107-17.136,0.113-55.035-6.722-61.57
			c-6.808-6.508-13.173-4.539-39.355-4.539C131.873,445.89,120.21,440.817,111.44,430.812z"/>
	</symbol>
	
	<symbol id="icon-guitar" viewBox="0 0 512 512">
		<title>Guitar</title>
		<path d="M440,128l72-64c-6.038-32.334-31.666-57.962-64-64l-64,72v17.109l-90.734,90.735
			c-47.035-38.417-79.562-33.168-100.676-15.795c-20.49,16.855-28.145,50.262-39.481,60.243
			c-22.896,20.152-79.232-0.076-127.196,52.117C-29.588,336.807,14.208,401.2,62.504,449.496
			c48.295,48.294,112.689,92.092,173.087,36.592c52.194-47.964,31.954-104.312,52.104-127.207c9.98-11.337,43.398-18.979,60.256-39.47
			c17.371-21.114,22.619-53.642-15.796-100.676L422.891,128H440z M146.565,429.435l-64-64l26.87-26.868l64,64L146.565,429.435z
			 M240,320c-26.51,0-48-21.49-48-48s21.49-48,48-48s48,21.49,48,48S266.51,320,240,320z"/>
	</symbol>
	
	<symbol id="icon-sun2" viewBox="0 0 512 512">
		<title>Sun</title>
		<path d="M459.975,256l45.606-56.965l-65.807-31.536l16.375-71.112l-72.975,0.14l-16.102-71.174L301.389,57.14L256,0l-45.389,57.14
			l-65.686-31.788l-16.102,71.174l-72.973-0.14l16.374,71.112L6.419,199.035L52.026,256L6.419,312.965l65.807,31.536l-16.374,71.112
			l72.973-0.141l16.102,71.176l65.686-31.788L256,512l45.389-57.14l65.687,31.788l16.102-71.176l72.975,0.141l-16.375-71.112
			l65.807-31.536L459.975,256z M256,420.5c-87.765,0-158.913-73.649-158.913-164.5c0-90.851,71.148-164.5,158.913-164.5
			c87.766,0,158.913,73.649,158.913,164.5C414.913,346.851,343.766,420.5,256,420.5z M128,256c0,70.692,57.308,128,128,128
			s128-57.308,128-128s-57.308-128-128-128S128,185.308,128,256z"/>
	</symbol>
	
	<symbol id="icon-coins" viewBox="0 0 512 512">
		<title>Coins</title>
		<path d="M335.333,158.667c-11.647,0-23.03,1.14-34.049,3.292c-0.873-0.659-1.763-1.314-2.694-1.958
			c13.614-9.414,21.41-20.342,21.41-32V96c0-35.346-71.634-64-160-64S0,60.654,0,96v32c0,11.658,7.796,22.586,21.41,32
			C7.796,169.414,0,180.342,0,192v32c0,11.658,7.796,22.586,21.411,32C7.796,265.414,0,276.343,0,288v32
			c0,11.658,7.796,22.586,21.41,32C7.796,361.414,0,372.343,0,384v32c0,35.347,71.634,64,160,64c23.616,0,46.021-2.057,66.2-5.73
			C256.244,497.902,294.143,512,335.333,512C432.904,512,512,432.903,512,335.333C512,237.763,432.904,158.667,335.333,158.667z
			 M16,96c0-9.523,14.447-21.456,36.805-30.399C81.18,54.251,119.25,48,160,48s78.82,6.251,107.195,17.601
			C289.553,74.544,304,86.477,304,96s-14.447,21.456-36.805,30.399c-9.23,3.692-19.492,6.841-30.533,9.414
			C213.763,141.15,187.495,144,160,144s-53.763-2.85-76.663-8.187c-11.041-2.573-21.302-5.722-30.532-9.414
			C30.447,117.456,16,105.523,16,96z M16,288c0-7.066,7.961-15.46,21.203-22.975C66.553,279.066,110.666,288,160,288
			c1.71,0,3.406-0.023,5.102-0.047c-4.188,15.08-6.436,30.967-6.436,47.38c0,0.22,0.007,0.438,0.008,0.658
			c-27.013-0.09-52.808-2.927-75.339-8.179c-11.04-2.572-21.301-5.723-30.531-9.412C30.447,309.457,16,297.523,16,288z M160,432
			c-40.75,0-78.82-6.25-107.195-17.6C30.447,405.457,16,393.523,16,384c0-7.067,7.961-15.46,21.203-22.975
			C66.553,375.066,110.666,384,160,384c1.824,0,3.635-0.023,5.443-0.05c4.82,16.873,12.088,32.713,21.391,47.114
			C178.073,431.677,169.108,432,160,432z M160,240c-27.494,0-53.763-2.85-76.662-8.187c-11.041-2.573-21.303-5.722-30.533-9.414
			C30.447,213.456,16,201.523,16,192c0-7.067,7.961-15.46,21.202-22.975C66.552,183.066,110.665,192,160,192
			c32.961,0,63.569-4.001,89.022-10.836c-24.988,14.02-46.22,33.935-61.811,57.865C178.33,239.66,169.241,240,160,240z
			 M335.333,479.879c-79.83,0-144.545-64.715-144.545-144.546c0-79.83,64.715-144.545,144.545-144.545
			c79.831,0,144.546,64.715,144.546,144.545C479.879,415.164,415.164,479.879,335.333,479.879z"/>
		<g>
			<path d="M329.424,436.848c-11.718,0-22.834-1.953-33.34-5.857c-10.511-3.906-19.3-10.604-26.366-20.088l19.53-17.021
				c4.089,6.325,9.809,11.349,17.158,15.066c7.346,3.723,15.019,5.768,23.018,6.138V344.22c-7.254-1.855-14.229-4.323-20.925-7.394
				c-6.696-3.068-12.603-6.835-17.717-11.299c-5.117-4.466-9.163-9.81-12.136-16.043c-2.979-6.229-4.465-13.531-4.465-21.901
				c0-7.812,1.486-14.97,4.465-21.483c2.973-6.508,7.019-12.136,12.136-16.878c5.114-4.743,11.021-8.553,17.717-11.439
				c6.696-2.881,13.671-4.603,20.925-5.161v-18.414h13.393v18.414c10.045,0,19.949,1.861,29.714,5.58
				c9.766,3.723,17.899,9.394,24.413,17.019l-18.414,16.74c-4.281-5.58-9.486-9.903-15.624-12.974
				c-6.14-3.069-12.834-4.604-20.089-4.604v69.472c7.438,2.42,14.69,5.021,21.763,7.812c7.065,2.79,13.344,6.277,18.832,10.462
				c5.483,4.187,9.856,9.347,13.113,15.485c3.252,6.138,4.883,13.767,4.883,22.878c0,8.37-1.583,15.901-4.743,22.599
				c-3.165,6.696-7.395,12.464-12.693,17.298c-5.302,4.839-11.488,8.649-18.555,11.439c-7.07,2.79-14.604,4.464-22.6,5.021v19.811
				h-13.393V436.848z M329.424,254.382c-9.115,1.674-16.417,5.44-21.9,11.3c-5.488,5.859-8.23,13.252-8.23,22.18
				c0,4.841,0.789,8.93,2.371,12.277c1.578,3.348,3.719,6.233,6.417,8.648c2.694,2.42,5.858,4.512,9.485,6.277
				c3.627,1.77,7.578,3.486,11.857,5.161V254.382L329.424,254.382z M342.816,415.086c9.484-1.116,17.438-4.743,23.854-10.881
				s9.625-13.671,9.625-22.599c0-5.022-0.934-9.392-2.79-13.113c-1.86-3.719-4.372-6.879-7.532-9.486
				c-3.166-2.603-6.744-4.786-10.742-6.557c-4.002-1.767-8.139-3.3-12.414-4.604V415.086z"/>
		</g>
	</symbol>
	
	<symbol id="icon-speedy" viewBox="0 0 512 512">
		<title>Speedy</title>
	</symbol>

</svg>
