<?xml version="1.0" encoding="utf-8"?>
<!-- Generator: Adobe Illustrator 22.0.0, SVG Export Plug-In . SVG Version: 6.00 Build 0)  -->
<svg version="1.1" id="Layer_1" xmlns="http://www.w3.org/2000/svg" xmlns:xlink="http://www.w3.org/1999/xlink" x="0px" y="0px"
	 width="48px" height="48px" viewBox="0 0 48 48" style="enable-background:new 0 0 48 48;" xml:space="preserve">
<style type="text/css">
	.st0{fill:#266726;}
</style>
<title>favicons</title>
<path class="st0" d="M15.7,9.2c-1.1-1.8-3.5-2.4-5.4-1.3S7.9,11.5,9,13.3s3.5,2.4,5.4,1.3c0,0,0,0,0,0C16.2,13.4,16.8,11,15.7,9.2z
	 M14.3,11.6c-0.4,1.1-1.6,1.7-2.8,1.5c-1.1-0.5-1.7-1.6-1.5-2.8c0.2-1.1,1.2-1.8,2.3-1.6c0.2,0,0.3,0.1,0.5,0.1
	C14,9.3,15,10.3,14.3,11.6z"/>
<path class="st0" d="M47.1,24c-0.1-2.6-0.2-5.3-0.2-8.6c0-2.7-0.1-5.3-0.3-8c-0.4-3.9-1.6-6.4-6-6.9c-5-0.5-10.1-0.6-15.2-0.4h-4.5
	h-2c-1.4,0-2.7,0-4,0c-1.8,0-3.7,0.1-5.6,0.3C3.6,1,1.5,3.1,1.3,8.6c-0.1,1.6-0.1,3.2-0.2,4.7C0.6,22,0.5,30.7,1,39.4
	c0.2,3.3,1.2,6.8,6.6,7.6c4.9,0.7,9.9,1.1,14.9,1c6,0,12.1-0.4,17.7-0.8c5.8-0.4,6.2-3.9,6.7-8.7l0.1-0.6
	C47.4,33.3,47.5,28.6,47.1,24z M3.1,13.4c0.1-1.6,0.1-3.2,0.2-4.7c0.2-4.5,1.5-5.8,6.2-6.3c1.8-0.2,3.7-0.2,5.5-0.3
	c0.7,0,1.5,0,2.2,0H21h4.6c5-0.2,10,0,14.9,0.4c2.9,0.3,3.8,1.5,4.3,5.2c0.2,2.6,0.3,5.2,0.3,7.8c0,3.3,0.1,6,0.2,8.7
	c0.1,3,0.2,5.7,0.1,8.8c-1.2-1.3-2.6-2.5-4.1-3.4c-2-1.6-4.1-3-6.2-4.3c0-0.1,0-0.1,0.1-0.1c0.4,0.2,0.9,0.3,1.4,0.2
	c0.5,0.1,1,0.4,1.4,0.7c0.5,0.3,1.7-0.4,0.7-0.9c-0.6-0.4-1.2-0.8-1.7-1.4c-0.3-0.4-1.7-0.2-2-1.2c-0.1-0.3,0-0.6,0-0.6
	c0.4,0,0.7,0.2,1,0.4c0.3,0.4,1.3,0.3,1.4,0.1c0-0.5-2.3-1.2-2.3-2.1c0-0.2,0-0.6,0.1-0.6c0.5,0.1,1.1,0.3,1.5,0.6
	c0.5,0.4,1.1,0.6,1.7,0.4c0.5-0.1,0.2-0.9-0.8-1.4s-1-1.3-2.1-1.7c-0.6-0.2-0.3-1.3-0.2-1.2c0.3,0.2,1-0.1,1.5,0.4s1.2,0.2,1-0.1
	c-0.7-0.8-1.4-1.6-2.2-2.3c-0.4-0.5-0.6-1.2-0.6-1.8c0-0.1,1.3,0.6,1-0.1c-0.3-0.7-0.8-1-1-1.8c0.2,0.1,0.9,0.3,0.8,0
	c-0.1-0.3-0.5-0.7-0.8-1.3c-0.3-0.6-0.5-1.3-0.7-2c0-0.2-0.2-0.3-0.4-0.2c-0.1,0-0.2,0.1-0.2,0.2c-0.3,1.2-0.4,2.8-1.1,3.6
	c-0.5,0.7-2,2.7-1.1,2.5c0.3-0.1,0.7-0.1,1-0.1c0,0.8-1.4,2.1-1.6,2.3c-0.2,0.2-0.2,0.5,0,0.5c0.3,0,0.5-0.1,0.8-0.2
	c0,0.2-0.1,0.5-0.3,0.7c-0.5,0.5-1.7,0.9-1.9,1.7c-0.1,0.3,0.6,0.4,1.1,0.1c0.7-0.5,1.3-0.2,1.8-0.7c0.2-0.2,0.2,0.4,0,0.6
	c-0.9,1.2-2.6,1.8-2.6,2.6c0,0.4,0.9-0.1,1.4,0c0.7,0.1,0.6-0.5,1.2,0c0,0.4-0.1,0.7-0.2,1c-0.1,0.3-0.3,0.6-0.5,0.8
	c-0.8-0.4-1.6-0.9-2.3-1.5c-0.8-0.8-1.6-1.6-2.4-2.3c-0.9-0.5-1.8,0.2-2.8,0.2c-1.7-0.1-1.6-1.3-3.3-0.5c-1.1,0.6-2.1,1.4-3.1,2.2
	c-0.6,0.4-4.2,3.8-4.8,4.2c-0.6,0.4-1.4,0.6-1.9,1c-1.6,1.2-1.8,1.9-3.8,2.6c-1,0.4-3.3,0.9-3.1,2.1c1.6-0.8,3.4-1.3,5.2-1.6
	c1-0.1,1.9-0.3,2.7-0.8c1.8-0.9,2.1-2.4,4.3-4c1-0.8,2-1.6,3.1-2.2c0.4,0.7-1.6,4.3-2.1,4.8c-0.8,0.8-3,1.6-3,3.2
	c0.6,0,1.5-1,3.4-1.8c1-0.4,1.4-1.9,2.2-2.8c0.3,0.6,0.5,1.2,0.5,1.8c0,1.2-0.3,2.3-0.8,3.3c-0.4,0.7-2.2,1.7-2.4,2.1
	c-0.3,0.7,0.1,0.7,0.5,0.8c0.6-0.4,1.2-0.9,1.8-1.4c0.7-1.2,1.3-2.5,1.8-3.8c0.4-1.1-0.7-6.2,0.7-6.9l0.3-0.2
	c0.8-0.3,1.7-0.5,2.6-0.4c0.8,0.2,4,2.4,5.2,3.2l-0.2,0.2c-0.7,0.4-2,1.8-1.4,2.1c0.8,0.4,0.8,0.1,1.3-0.1c0.3-0.1,0.7-0.1,1.1-0.4
	s1.3-0.3,1.3-0.1c-0.1,0.7-0.2,1.4-1.4,1.6c-0.9,0-1.2,1.2-2.4,1.9c-1.2,0.7-0.1,1.2,0.5,0.9c0.8-0.4,0.9,0.4,1.7,0.1
	c1.3-0.5,1.7-0.9,1.7-0.8c0,0.8,0.1,2-2.2,2.4c-1.4,0.2-1.4,2-2.3,2.5c-0.5,0.3,0.3,1.2,1,0.9c0.4-0.3,1-0.6,1.6-0.6
	c0.7,0,1-0.3,1.7-0.5c0.1,0,0.1,0.6-0.2,0.8c-0.2,0.1-0.3,0-0.8,0.3c-0.3,0.1-0.6,0.8-1.2,0.8c-0.8,0.1-1.5,0.5-2.1,1
	c-0.8,0.7-0.5,1.4,0.1,1c1.9-0.9,4-0.7,4.3-1c0.1-0.1,0.1,0.7-0.2,0.9c-1,0.4-2.1,0.7-3.1,0.9c-1.2,0.4-3.2,1.8-2.4,2.4
	c0.6,0.4,2.4-0.6,2.5-0.3s-1.4,0.9-0.1,1.6c0.7,0.4,2.4-1.2,3.3-1.1v3.6c-2-0.6-5-2.2-10.3-2.1c-3.9,0.1-8.3-1.4-9.2-3.1
	c-0.4-1,0.1-2,1-2.4c0.5-0.2-2.1-2.1-4.4-1.7c-1.9,0.2-5.2,1.5-6.8-0.8C2.5,28,2.8,20.9,3.1,13.4z M44.9,38.3
	c-0.5,4.8-0.7,6.6-4.9,6.9l-5.1,0.4v-3.8c0.5-0.1,1,0,1.5,0.3c3.2,1.6,2.4,0.2,3.3,0.3c0.9,0.1,0.4-1-1.5-1.5c-1-0.2-3.4-1-3.2-2.2
	c0,0,0.3,0.5,1.9,0.3c0.6-0.2,1.3-0.1,1.9,0.3c0.6,0.3,2.5-0.7,1.3-1.3c-0.6-0.3-0.9-0.1-1.4-0.4c-0.8-0.6-1.8-1-2.8-1.1
	c-0.7-0.1-0.9-1-0.8-1c0.5,0,0.2,0.2,1.5,0.3c0.4,0,1.2-0.3,1.5-0.3c0.9,0.1,1.5,0.4,1.7,0.2c0.3-0.5-0.6-1.6-2.3-1.8
	c-0.8-0.1-1.5-0.4-2.1-0.8c-0.4-0.3-0.4-0.9-0.3-0.9c0.6,0.4,2.4,0.9,1.6-0.2c-0.2-0.2,1,0.5,1.9,0.8c1,0.3,1-1-0.5-1.9
	c-0.4-0.2-0.7-1.1-1.7-1.2c-0.6-0.1-1-0.5-1.4-0.9c-0.1-0.2-0.1-0.6,0-0.6c0,0,0,0,0.1,0.1c0.6,0.4,4.4,2.4,5.2,2.7
	c1.3,0.6,1.1,0.9,2.1,1.7c1,0.6,1.9,1.3,2.8,2.1c-0.1,1-0.2,2.1-0.3,3.2L44.9,38.3z"/>
</svg>
