<?xml version="1.0" encoding="utf-8"?>
<!-- Generator: Adobe Illustrator 22.0.0, SVG Export Plug-In . SVG Version: 6.00 Build 0)  -->
<svg version="1.1" id="Layer_1" xmlns="http://www.w3.org/2000/svg" xmlns:xlink="http://www.w3.org/1999/xlink" x="0px" y="0px"
	 width="13.61264px" height="14px" viewBox="0 0 13.61264 14" style="enable-background:new 0 0 13.61264 14;" xml:space="preserve"
	>
<style type="text/css">
	.st0{fill:#266726;}
</style>
<title>favicons</title>
<g>
	<path class="st0" d="M4.3823,2.68168C4.06155,2.1568,3.36172,1.98185,2.80769,2.3026S2.10786,3.35234,2.42862,3.87722
		S3.4492,4.57704,4.00323,4.25629l0,0C4.5281,3.90638,4.70306,3.20655,4.3823,2.68168z M3.97407,3.3815
		C3.85743,3.70226,3.50752,3.87722,3.1576,3.8189C2.83685,3.6731,2.66189,3.35234,2.72021,3.00243
		c0.05832-0.32075,0.34991-0.52487,0.67067-0.46655c0.05832,0,0.08748,0.02916,0.1458,0.02916
		C3.88659,2.71084,4.17819,3.00243,3.97407,3.3815z"/>
	<path class="st0" d="M13.53839,6.99728c-0.02916-0.75815-0.05832-1.54545-0.05832-2.50772
		c0-0.78731-0.02916-1.54545-0.08748-2.33276c-0.11664-1.13722-0.46655-1.86621-1.74957-2.01201
		C10.18504-0.001,8.69791-0.03016,7.21077,0.02816H5.8986H5.31541c-0.40823,0-0.78731,0-1.16638,0
		c-0.52487,0-1.0789,0.02916-1.63293,0.08748C0.854,0.2906,0.24165,0.90295,0.18333,2.50672
		c-0.02916,0.46655-0.02916,0.9331-0.05832,1.3705c-0.1458,2.53688-0.17496,5.07375-0.02916,7.61063
		c0.05832,0.96226,0.34991,1.98285,1.92453,2.21612c1.42882,0.20412,2.88679,0.32075,4.34477,0.2916
		c1.74957,0,3.5283-0.11664,5.16123-0.23328c1.69125-0.11664,1.80789-1.13722,1.95369-2.53688l0.02916-0.17496
		C13.62587,9.70912,13.65503,8.33862,13.53839,6.99728z M0.7082,3.90638c0.02916-0.46655,0.02916-0.9331,0.05832-1.3705
		C0.82484,1.2237,1.20392,0.84463,2.57441,0.69883c0.52487-0.05832,1.0789-0.05832,1.60377-0.08748c0.20412,0,0.43739,0,0.64151,0
		h1.10806h1.34134c1.45798-0.05832,2.91595,0,4.34477,0.11664c0.84563,0.08748,1.10806,0.43739,1.25386,1.51629
		c0.05832,0.75815,0.08748,1.51629,0.08748,2.27444c0,0.96226,0.02916,1.74957,0.05832,2.53688
		c0.02916,0.87478,0.05832,1.66209,0.02916,2.56604c-0.34991-0.37907-0.75815-0.72899-1.19554-0.99142
		c-0.58319-0.46655-1.19554-0.87479-1.80789-1.25386c0-0.02916,0-0.02916,0.02916-0.02916
		c0.11664,0.05832,0.26244,0.08748,0.40823,0.05832c0.1458,0.02916,0.2916,0.11664,0.40823,0.20412
		c0.1458,0.08748,0.49571-0.11664,0.20412-0.26244c-0.17496-0.11664-0.34991-0.23328-0.49571-0.40823
		c-0.08748-0.11664-0.49571-0.05832-0.58319-0.34991c-0.02916-0.08748,0-0.17496,0-0.17496
		c0.11664,0,0.20412,0.05832,0.2916,0.11664c0.08748,0.11664,0.37907,0.08748,0.40823,0.02916
		c0-0.1458-0.67067-0.34991-0.67067-0.61235c0-0.05832,0-0.17496,0.02916-0.17496c0.1458,0.02916,0.32075,0.08748,0.43739,0.17496
		c0.1458,0.11664,0.32075,0.17496,0.49571,0.11664c0.1458-0.02916,0.05832-0.26244-0.23328-0.40823
		c-0.2916-0.1458-0.2916-0.37907-0.61235-0.49571c-0.17496-0.05832-0.08748-0.37907-0.05832-0.34991
		c0.08748,0.05832,0.2916-0.02916,0.43739,0.11664c0.1458,0.1458,0.34991,0.05832,0.2916-0.02916
		c-0.20412-0.23328-0.40823-0.46655-0.64151-0.67067c-0.11664-0.1458-0.17496-0.34991-0.17496-0.52487
		c0-0.02916,0.37907,0.17496,0.2916-0.02916c-0.08748-0.20412-0.23328-0.2916-0.2916-0.52487
		c0.05832,0.02916,0.26244,0.08748,0.23328,0c-0.02916-0.08748-0.1458-0.20412-0.23328-0.37907
		C9.92261,2.5942,9.86429,2.39008,9.80597,2.18596c0-0.05832-0.05832-0.08748-0.11664-0.05832
		c-0.02916,0-0.05832,0.02916-0.05832,0.05832C9.54354,2.53588,9.51438,3.00243,9.31026,3.23571
		c-0.1458,0.20412-0.58319,0.78731-0.32076,0.72899C9.07698,3.93553,9.19362,3.93553,9.2811,3.93553
		c0,0.23328-0.40823,0.61235-0.46655,0.67067c-0.05832,0.05832-0.05832,0.1458,0,0.1458c0.08748,0,0.1458-0.02916,0.23328-0.05832
		c0,0.05832-0.02916,0.1458-0.08748,0.20412c-0.1458,0.1458-0.49571,0.26244-0.55403,0.49571
		C8.37716,5.48099,8.58127,5.51015,8.72707,5.42267c0.20412-0.1458,0.37907-0.05832,0.52487-0.20412
		c0.05832-0.05832,0.05832,0.11664,0,0.17496C8.98951,5.74342,8.49379,5.91838,8.49379,6.15166c0,0.11664,0.26244-0.02916,0.40823,0
		c0.20412,0.02916,0.17496-0.1458,0.34991,0c0,0.11664-0.02916,0.20412-0.05832,0.29159
		c-0.02916,0.08748-0.08748,0.17496-0.1458,0.23328C8.81455,6.55989,8.58127,6.41409,8.37716,6.23914
		C8.14388,6.00586,7.9106,5.77258,7.67733,5.56847c-0.26244-0.1458-0.52487,0.05832-0.81647,0.05832
		C6.36515,5.59763,6.39431,5.24771,5.8986,5.48099C5.57784,5.65595,5.28625,5.88922,4.99465,6.1225
		C4.8197,6.23914,3.76995,7.23056,3.595,7.3472C3.42004,7.46383,3.18676,7.52215,3.04097,7.63879
		C2.57441,7.98871,2.51609,8.19282,1.9329,8.39694c-0.2916,0.11664-0.96226,0.26244-0.90394,0.61235
		c0.46655-0.23328,0.99142-0.37907,1.51629-0.46655c0.2916-0.02916,0.55403-0.08748,0.78731-0.23328
		c0.52487-0.26243,0.61235-0.69983,1.25386-1.16638c0.2916-0.23328,0.58319-0.46655,0.90394-0.64151
		C5.607,6.70569,5.02381,7.75543,4.87802,7.90123C4.64474,8.1345,4.00323,8.36778,4.00323,8.83433
		c0.17496,0,0.43739-0.2916,0.99142-0.52487C5.28625,8.19282,5.40289,7.75543,5.63616,7.493
		c0.08748,0.17496,0.1458,0.34991,0.1458,0.52487c0,0.34991-0.08748,0.67067-0.23328,0.96226
		C5.43205,9.18425,4.90718,9.47584,4.84886,9.59248C4.76138,9.7966,4.87802,9.7966,4.99465,9.82576
		c0.17496-0.11664,0.34991-0.26244,0.52487-0.40823C5.72364,9.06761,5.8986,8.68853,6.0444,8.30946
		c0.11664-0.32076-0.20412-1.80789,0.20412-2.01201l0.08748-0.05832C6.56927,6.15166,6.8317,6.09334,7.09414,6.1225
		c0.23328,0.05832,1.16638,0.69983,1.51629,0.9331L8.55211,7.11392C8.348,7.23056,7.96892,7.63879,8.14388,7.72627
		c0.23328,0.11664,0.23328,0.02916,0.37907-0.02916c0.08748-0.02916,0.20412-0.02916,0.32076-0.11664
		c0.11664-0.08748,0.37907-0.08748,0.37907-0.02916C9.19362,7.75543,9.16446,7.95955,8.81455,8.01787
		c-0.26244,0-0.34991,0.34991-0.69983,0.55403c-0.34991,0.20412-0.02916,0.34991,0.1458,0.26244
		c0.23328-0.11664,0.26243,0.11664,0.49571,0.02916c0.37907-0.1458,0.49571-0.26244,0.49571-0.23328
		c0,0.23328,0.02916,0.58319-0.64151,0.69983C8.2022,9.38836,8.2022,9.91323,7.93976,10.05903
		c-0.1458,0.08748,0.08748,0.34991,0.29159,0.26244c0.11664-0.08748,0.2916-0.17496,0.46655-0.17496
		c0.20412,0,0.29159-0.08748,0.49571-0.1458c0.02916,0,0.02916,0.17496-0.05832,0.23328c-0.05832,0.02916-0.08748,0-0.23328,0.08748
		c-0.08748,0.02916-0.17496,0.23328-0.34991,0.23328c-0.23328,0.02916-0.43739,0.1458-0.61235,0.2916
		c-0.23328,0.20412-0.1458,0.40823,0.02916,0.2916c0.55403-0.26244,1.16638-0.20412,1.25386-0.2916
		c0.02916-0.02916,0.02916,0.20412-0.05832,0.26244c-0.2916,0.11664-0.61235,0.20412-0.90394,0.26244
		c-0.34991,0.11664-0.9331,0.52487-0.69983,0.69983c0.17496,0.11664,0.69983-0.17496,0.72899-0.08748
		S7.88144,12.246,8.26052,12.45011c0.20412,0.11664,0.69983-0.34991,0.96226-0.32075v1.04974
		c-0.58319-0.17496-1.45798-0.64151-3.00343-0.61235c-1.13722,0.02916-2.42024-0.40823-2.68267-0.90394
		c-0.11664-0.2916,0.02916-0.58319,0.29159-0.69983c0.1458-0.05832-0.61235-0.61235-1.28302-0.49571
		c-0.55403,0.05832-1.51629,0.43739-1.98285-0.23328C0.53325,8.16366,0.62073,6.09334,0.7082,3.90638z M12.89688,11.16709
		c-0.1458,1.39966-0.20412,1.92453-1.42882,2.01201l-1.48713,0.11664v-1.10806c0.1458-0.02916,0.29159,0,0.43739,0.08748
		c0.9331,0.46655,0.69983,0.05832,0.96226,0.08748c0.26244,0.02916,0.11664-0.29159-0.43739-0.43739
		c-0.29159-0.05832-0.99142-0.2916-0.9331-0.64151c0,0,0.08748,0.1458,0.55403,0.08748
		c0.17496-0.05832,0.37907-0.02916,0.55403,0.08748c0.17496,0.08748,0.72899-0.20412,0.37907-0.37907
		c-0.17496-0.08748-0.26244-0.02916-0.40823-0.11664c-0.23328-0.17496-0.52487-0.2916-0.81647-0.32075
		c-0.20412-0.02916-0.26244-0.2916-0.23328-0.2916c0.1458,0,0.05832,0.05832,0.43739,0.08748
		c0.11664,0,0.34991-0.08748,0.43739-0.08748c0.26244,0.02916,0.43739,0.11664,0.49571,0.05832
		c0.08748-0.1458-0.17496-0.46655-0.67067-0.52487c-0.23328-0.02916-0.43739-0.11664-0.61235-0.23328
		c-0.11664-0.08748-0.11664-0.26244-0.08748-0.26244C10.21421,9.505,10.73908,9.6508,10.5058,9.33004
		c-0.05832-0.05832,0.29159,0.1458,0.55403,0.23328c0.29159,0.08748,0.29159-0.29159-0.1458-0.55403
		c-0.11664-0.05832-0.20412-0.32076-0.49571-0.34991c-0.17496-0.02916-0.29159-0.1458-0.40823-0.26243
		c-0.02916-0.05832-0.02916-0.17496,0-0.17496c0,0,0,0,0.02916,0.02916c0.17496,0.11664,1.28302,0.69983,1.51629,0.78731
		c0.37907,0.17496,0.32075,0.26244,0.61235,0.49571c0.29159,0.17496,0.55403,0.37907,0.81647,0.61235
		c-0.02916,0.2916-0.05832,0.61235-0.08748,0.9331V11.16709z"/>
</g>
</svg>
