<svg id="Layer_1" xmlns="http://www.w3.org/2000/svg" viewBox="0.506 0.5 14.592 16"><path fill="#47502A" d="M15.045 13.942c-.008-.292-.015-.587-.02-.88-.01-.042-.026-.082-.045-.122-.014-.72-.044-1.444-.09-2.162-.15-.88-.344-2.44-.043-3.232l.013-.03c-.03-.59-.024-1.228-.15-1.804.012-.137.038-.27.082-.4l.005-.135c.105-.54.03-1.553-.23-2.042-.048-.09-.53-.345-.652-.393l-.088-.016c-.01-.01-.024-.025-.046-.04-.055-.034-.22-.074-.25-.08-.105.036-.212.05-.322.042-.004-.047-.012-.092-.026-.137.014-.014.032-.036.043-.067-.01-.07-.008-.14.004-.208.023-.018.06-.044.085-.092l.048-.116c-.048-.03-.096-.06-.144-.087-.028-.1-.07-.19-.126-.27l-.045-.012c-.19-.046-.376.013-.47.15-.01.014-.018.026-.023.048-.08.044-.308.167-.38.167-.034-.03-.072-.056-.114-.078l-.134-.006c-.077-.02-.202-.06-.215-.065-.04-.063-.076-.128-.11-.195l-.04-.037c-.01-.03-.024-.06-.046-.083-.12-.097-.51-.124-.667-.15-.062-.015-.49.025-.594.07-.042.022-.086.043-.128.066-.08.007-.16.018-.24.03-.154.055-.4.13-.537.204-.097.054-.243.16-.32.253-.03.015-.06.03-.088.047-.047.047-.09.097-.13.15-.114.073-.328.145-.46.19-.98.323-2.077-.15-3.054.085-.02.005-.042.014-.065.02-.01.006-.033.007-.01.01l-.144.01c-.043.018-.085.038-.125.06l-.176.018c-.088.023-.25-.036-.342-.043-.087.078-.23.253-.35.304-.02.007-.048.014-.074.03-.663.406-.72 1.383-.514 2.08-.01.06-.007.12.007.178.02.06.083.147.148.183l.057-.1h.007l.012.114c.053-.007.117.005.157.023.014.013.03.03.063.046.313.135 1.165.07 1.53.043.033-.007.063-.02.087-.035.047 0 .094-.01.137-.027.456-.237.776-.698.883-1.19.045-.036.087-.074.126-.117.09-.133.098-.344-.002-.48.27-.038.486-.16.73-.25l.038.007c.017-.003.102-.038.112-.027.128.027.294.053.43.023.09-.02.18-.038.27-.056.083.008.166.01.248.007.054-.02.108-.032.164-.04.033.02.07.036.104.05-.104-.027.474-.012.494-.017l.288-.1c.014 0 .05.02.054.02.008.018.02.056.064.088.003 0 .004.002.006.003-.125.048-.224.158-.347.198-.124.044-.25.076-.38.096-.08.042-.118.132-.11.24.006.103.06.222.143.25.11.073.3.01.356-.02.1-.05.183-.167.277-.207.028-.018.23-.042.214-.09.015-.005.05-.016.077-.022.037.004.073.002.11-.006.027-.01.047-.026.067-.045.01.13 0 .608-.063.755-.174.453-.73.88-1.114 1.094-.037.022-.058.056-.077.094l-.062.005c-.05.014-.245.098-.3.18-.052.096-.143.312-.11.367.05.047.096.097.14.15.145.013.29-.01.43-.068.038-.022.104-.072.238-.252.013-.005.033-.014.057-.03.037-.027.055-.06.076-.097.057-.037.117-.07.18-.103.077-.06.137-.148.216-.21.136-.092.212-.263.353-.358.02-.018.04-.04.056-.062.013.046.006.113-.002.157.047.272.06.55.038.83-.007.018-.018.034-.03.048-.056.018-.138.047-.178.078-.05.04-.068.094-.08.133-.007.012-.007.024-.007.022-.077.057-.15.095-.223.12-.045.004-.088.012-.13.028-.045.02-.072.053-.096.08-.055.062-.07-.002-.194.016l-.03-.02h-.037c-.085.002-.136.043-.18.074.026.005-.888-.06-1.108-.024-.03.005-.053.02-.073.035-.063-.006-.128-.006-.192 0-.05.025-.094.06-.132.1l-.012.04c-.004.02-.018.06 0 .105.028.082.13.18.164.19.125.08.242-.012.3-.058.01-.01.022-.02.034-.025.06.008.12.015.178.02.113-.013.26 0 .37-.037l.037.01.66.152c.1-.032.2-.067.297-.103.14-.014.208.005.3-.11.084-.028.448-.17.486-.153.014.016.026.033.038.052-.027.094-.066.18-.12.26l-.005.065c-.002.01-.017.032-.026.05-.34.062-.69.12-1.02.208-.185-.04-.37-.072-.555-.096-.028-.004-.08-.003-.122.03-.082.055-.103.124-.103.186-.147-.037-.363-.113-.512-.07-.073 0-.12.026-.15.085-.044.005-.085.013-.127.025-.073.025-.158.11-.207.175l-.008.048c-.005.04-.014.104.03.173-.06.023-.136.047-.188.06-.024.012-.123-.026-.15-.035-.11.015-.33.013-.42-.05-.04-.028-.167-.167-.187-.205-.038-.084-.094-.157-.167-.218-.1-.062-.3-.08-.415-.146l-.052.01h-.01c.01-.03.016-.064.003-.106-.013-.046-.254-.234-.334-.264-.14-.06-.33-.03-.45.028l-.016.013-.052-.005c-.106.037-.243.054-.348.097-.116.05-.143.123-.16.178l-.017.042-.112.12-.007.086c-.013.045-.038.1-.057.132-.086.135-.334.534-.488.63-.026.004-.064.01-.1.034-.03.023-.28.25-.31.29-.02.003-.032.003-.046.004-.086.005-.23.118-.303.193-.027.058-.054.117-.078.176l-.358.16c-.07.05-.116.178-.124.25-.008.063 0 .113.027.154.05.104.164.127.242.143l.04.008c.11.026.4-.098.46-.18.027-.042.03-.082.033-.12.013-.02.082-.084.103-.098.076-.007.15-.02.226-.043.083-.104.157-.213.22-.33.275-.282.57-.598.803-.92.044-.03.085-.063.122-.104l.012-.123c.02-.038.097-.05.127-.07.017-.01.034-.024.056-.05.033-.01.226-.048.238-.052.032.012.064.022.097.032.046.01.085.006.128 0 .005.024.015.058.04.095.058.072.268.19.358.26.107.073.17.136.304.178.082.042.165.083.25.12.175.06.5.223.664.205.14-.055.274-.117.41-.184l.105.068c.19.103.376.12.554.054-.106.105-.217-.04-.23.308v.05l.25.248.052-.005c.102-.013.144-.08.175-.125.025-.003.064-.005.095-.025.108-.054.226-.265.344-.35.03-.028.056-.06.078-.094.018-.002.05-.01.076-.033.077-.055.14-.167.216-.23.043.038.09.067.143.09.08.01.157.018.235.02.136.115.054.316.28.37.08.083.166.156.26.22.042.012.084.018.127.02.137.053.227.12.27.186.006.04.02.077.04.113.023.048.023.048.003.116-.005.014-.01.025-.012.04l-.047.03.005.067c.005.058.026.09.038.104 0 .003-.05.234-.054.234-.03.035-.122.22-.173.253-.06.03-.133.032-.195.066-.08.038-.086.034-.105.01l-.042-.044c-.076.006-.143.037-.213.07-.088.004-.395.132-.447.104-.016-.016-.035-.032-.09-.055l-.06-.012c-.03-.018-.06-.036-.09-.057-.055-.026-.354-.114-.36-.11-.08.017-.16.034-.24.055l-.08-.007c-.134.05-.308.078-.44.14-.108.052-.195.086-.304.13-.013.01-.03.018-.044.025-.01.007-.02.015-.02.018-.003 0-.014-.01-.02-.015-.04-.032-.11-.088-.218-.064-.118.05-.23.11-.33.19-.21 0-.374.053-.57.11-.09-.005-.193.01-.276.04-.187.084-.354.215-.544.293-.628.236-1.33.228-1.98.348l-.033-.015c-.08 0-.16-.007-.236-.022-.275.045-.955.226-1.152.39-.07.062-.123.282-.123.282-.01.035-.008.068 0 .095-.173.04-.32.134-.49.174-.118.014-.235.033-.352.06-.037-.723-.036-1.452-.035-2.176-.07-1.37.297-3.148-.027-4.487-.064-.308.016-1.035.117-1.334.015-.023.024-.048.03-.075-.004-.187.102-.525.05-.688-.025-.03-.042-.065-.052-.102.025-.118.075-.216.086-.34.01-.013.023-.028.03-.05.043-.215.033-.447.076-.66.018-.016.042-.04.052-.074.014-.048 0-.087-.017-.1.037-.125.144-.176.218-.274.022-.027.03-.054.036-.076.024-.033.168-.147.246-.2.042-.01.082-.028.12-.046.023-.015.04-.033.066-.062l.075-.02c.08-.05.16-.1.242-.146.11-.024.218-.05.327-.08.046-.024.09-.05.137-.077.488-.182 1.136-.11 1.628 0 .166.002.674.092.833.013l.042-.032c.063.003.125-.004.186-.023.104.01.214.017.322.018 1.33-.056 2.653-.105 3.98-.148.076-.02.258-.066.308-.053.84.202 1.874.136 2.73.155.107.035.187.07.307.072.062.08.127.158.19.236l.013-.126c.058.032.112.068.164.11l.027.043c.015.02.03.032.045.04l.01.038c.007.024.02.044.03.05 0 .057 0 .113.004.17.01.038.025.067.046.092l.03.185c.02.05.053.08.087.11l.02.048.057.016.03.023c.074.013.147.008.22-.013.02-.047.05-.09.086-.126.055-.05.163-.158.113-.312-.02-.058-.067-.098-.134-.137l-.02-.204c-.01-.034-.028-.06-.044-.078-.012-.05-.026-.1-.04-.147l-.05-.047c-.044-.077-.096-.148-.16-.212 0 0-.128-.095-.197-.12-.118-.04-.21-.076-.32-.125-.066-.016-.134-.027-.203-.034-.14-.047-.268-.103-.418-.118-.866.01-1.745-.002-2.614-.03-.17.04-.264-.005-.41-.04C8.516.19 6.17.95 4.656.79 4.28.746 3.843.774 3.462.79c-.013.003-.024.01-.04.02L3.355.795l-.03.014c-.225.112-.563.123-.81.2-.03.01-.055.024-.09.047l-.068.01c-.08.046-.156.1-.225.16l-.052.01c-.09.047-.214.097-.296.154-.058.044-.184.15-.23.208l-.03.047c-.06.018-.116.038-.172.062-.03.05-.067.093-.11.13l.006.027c-.056.112-.11.224-.162.338l-.006.047c-.014.013-.033.03-.045.057l-.01.097c-.01.013-.02.03-.027.055-.074.272-.1.57-.163.846 0 .104-.015.21-.042.313.02.332.01.665-.03.996-.08 1.053-.113 2.11-.1 3.17C.31 9.234.646 11.402.72 12.923c.042.688.02 1.564.153 2.23.01.05.094.354.134.445.018.03.037.06.06.087l.02.07c.073.048.135.108.187.18l.15.06c.048.04.1.076.153.11.06.02.12.04.182.058.115.078.228.15.36.207.17-.002.347.014.518.047l.17-.01c.097.025.193.04.294.04.036.015.284.115.3-.01.233 0 .468.01.7.03.65.02 1.3.006 1.944-.048.664-.025 1.52.128 2.168-.006.02-.002.04-.01.05-.02.256.01.513.06.77.078.07 0 .143-.007.213-.02l.193.044c.37-.05.775-.105 1.142-.03.562.068 1.13-.072 1.687-.093l.017.005c.353-.02.704-.036 1.057-.054.118-.03.376-.163.452-.217.014-.014.024-.026.037-.042.122-.045.234-.1.36-.14.135-.07.46-.348.54-.476l.024-.105c.035-.04.067-.082.1-.125.042-.082.187-.306.212-.38.038-.29.044-.61-.025-.898zm-.47.476c-.002.154 0 .342-.045.487l-.03.018-.02.024c-.027.038-.03.076-.027.083-.018.01-.043.02-.063.037-.04.034-.057.074-.075.123-.037.022-.074.05-.11.078-.013.014-.02.027-.026.043-.042.022-.078.057-.105.097-.07.036-.136.05-.192.11l.007-.04c.01-.075-.017-.204-.02-.285-.01-.028-.024-.053-.04-.078l.044-.028v-.208c-.078-.082-.163-.16-.255-.23-.01-.055-.026-.09-.063-.133l-.034-.045c-.33-.03-.655.024-.978.024-.1-.038-.21-.203-.303-.264.03-.145.045-.292.047-.44-.045-.077-.1-.142-.163-.198H12c-.16.092-.163.154-.26.28-.042.026-.076.058-.104.095-.026.043-.03.085-.035.135-.006.02-.046.066-.06.075-.087.003-.173.014-.258.036-.064.03-.095.078-.108.125 0 .002-.003.002-.006.002-.05.01-.183-.02-.216-.04 0-.002-.004-.005-.005-.01.07-.863.406-1.948.24-2.816-.013-.07-.036-.143-.07-.208.147.025.306.03.456.016.05-.024.102-.047.154-.068.083.013.165.026.25.037l.05.032c.062.022.378.06.468.043.088-.022.175-.047.262-.07.045.003.09.008.134.008.16-.033.35-.005.5-.05.175-.05.407-.05.567-.115.074-.034.322-.36.337-.412.008-.03-.083-.275-.103-.345-.1 0-.313-.023-.39.003-.034.02-.067.04-.1.064-.017 0-.048.005-.082.024l-.018.02-.25.012c-.02-.01-.287-.16-.31-.167l-.14-.006c-.014-.016-.03-.032-.055-.044l-.035-.012c-.02-.032-.043-.07-.076-.097-.087-.066-.405-.25-.492-.276l-.227-.034c-.015-.017-.037-.04-.064-.058-.11-.055-.222-.106-.333-.158-.017-.023-.037-.043-.06-.058-.02-.012-.035-.016-.052-.02l-.036-.043-.152-.09c-.037-.043-.036-.115-.073-.16.066.05.32.09.405.03.055-.034.068-.087.08-.13.047.036.113.08.175.08.013.016.036.045.074.062.04 0 .146.006.19.03.016.013.034.03.064.042.072.02.143.047.21.08.046.05.104.076.173.076l.028.016h.03c.1.004.148-.01.208-.055l.062-.043.01-.042c.037-.15.008-.4-.146-.445-.11-.06-.304-.062-.427-.07-.01-.01-.027-.025-.05-.037-.055-.02-.11-.042-.164-.064-.022-.024-.04-.048-.06-.07l-.14-.082c-.01-.075-.03-.146-.065-.214l-.01-.008c.292 0 .577.038.868.02.05-.057.103-.112.16-.162l.004-.04.015-.014-.003-.036c-.058-.078-.113-.156-.166-.237-.04-.01-.078-.02-.118-.027l.04-.063v-.035c-.018-.094-.05-.182-.103-.262l-.05-.013c-.318.027-.63.088-.932.183-.18-.055-.295-.213-.46-.27.01-.046.02-.104 0-.16-.004-.016-.165-.24-.19-.278-.008-.01-.017-.02-.027-.028-.01-.146.008-.493.062-.64.02-.027.035-.057.042-.09l-.005-.115c.005-.018.01-.036.02-.053l.016.01.158.05c.054.035.108.067.164.097.096.052.195.077.298.077v.002c.15-.018.135-.102.264-.03.104.034.21.05.318.047.06-.06.118-.116.178-.17l.02.013.04-.002c.123-.007.256-.198.313-.32v-.037c-.008-.162-.13-.252-.22-.316-.043-.028-.08-.06-.11-.1-.153.02-.304.068-.44.14-.004.02-.04.138-.024.156-.1.006-.202.006-.303 0-.025-.012-.053-.023-.08-.033l-.103.008c-.044-.035-.185-.12-.204-.155-.047-.077-.104-.127-.18-.167.014-.07.01-.138-.014-.21-.04-.106-.055-.316-.107-.398.045.005.09.01.133.02l.044.02c.11.05.233.106.414-.014l.048-.032c.015-.106.005-.21-.026-.316-.062-.124-.188-.11-.253-.104-.032.004-.06.006-.088 0-.043-.012-.1-.04-.125-.056l-.015-.073c-.022-.05-.07-.076-.12-.095-.015-.052-.023-.123-.02-.147.026-.07.043-.144.05-.22-.014-.103-.045-.316-.082-.398-.03-.057-.066-.11-.11-.155.007 0 .015 0 .02-.002.01.013.025.028.044.042.05.037.113.052.174.066.005 0 .27.02.28.018.33-.065.398.007.734.042.08-.008.157-.027.23-.06.045-.017.144.02.193.022.066-.075.145-.137.234-.185.287-.12.7.047.98.054.015.007.06.04.064.05l.016.033.026.02c.063.042.123.026.133.014.033.016.14.108.163.14.1.144.087.394.154.56.012.167.03.333.052.5.075.25.033.48-.104.578l-.052.034c-.013.145-.02.29-.018.434.104.23.01.366.053.59.03.123.06.246.088.37.09.33.148 1.417.023 1.686-.012.015-.03.04-.038.065-.075.24.008.644.056.885l-.007.04c.07.73-.006 1.463.027 2.188 0 .144-.004.328.017.47.048.506.082 1.01.107 1.516.057.314.123.814.045 1.082zm-1.08 1.31l-.052.036-.044.004-.048.02-.07-.006c-.05.018-.097.047-.146.067-.092-.006-.183.01-.27.046-.04-.007-.078-.007-.118-.007-.13.037-.242-.025-.366 0-.017.003-.03.008-.04.015l-.148.004c-.074.023-.147.044-.224.055l-.027-.01c-.766-.21-2.745-.105-3.472 0-.017-.015-.04-.027-.09-.04l-.086-.01c-.018-.01-.035-.022-.06-.03-.057-.015-.1.008-.127.023-.367 0-.74.01-1.106-.01-.517.07-1.05.08-1.57.034-.195 0-.36.05-.545.094-.25.064-.558-.054-.805.007-.177-.11-.583-.06-.797-.1-.143.022-.285.013-.425-.025-.048.007-.097.014-.145.018-.16-.058-.324-.096-.492-.113-.137-.054-.364-.24-.53-.252-.02-.012-.105-.097-.137-.133-.06-.18-.125-.354-.19-.53l.007-.112c-.12-.592-.044-1.237-.176-1.817.092-.02.184-.033.276-.043.125.034.23.123.36.156.073-.015.146-.015.22.004l.265-.112.188.03c.01.013.024.032.045.046.042.024.085.047.13.07.01.015.03.037.06.053.08.023.157.036.236.048l.115.06c.308.128.665-.035.98.055.034.01.184.073.21.09.123.106.088.178.285.332.132.104.3.193.47.28.288.083.578.1.87.05.12.026.16.098.27.134.05.023.425 0 .554.006.068-.014.138-.014.207-.005.042-.012.084-.027.125-.046.17-.022.665-.03.802-.13.04-.026.057-.06.06-.082.035-.024.07-.05.104-.076.038.003.08.01.1.016.048.062.16.104.195.16.007.023.016.057.04.09.04.036.08.065.124.09h.002l.023.068c.027.062.07.103.132.12.012.017.024.032.04.045-.048-.035.646.2.69.21.11-.007.216-.018.324-.033.224.14.474.21.748.217.042-.013.083-.023.122-.037l.02-.002.01.02-.032.046c-.17.312-.085.543.258.687.058.03.116.056.176.08.03.003.054-.006.085-.01.028.013.082.03.148.015l.015-.01.02.02c.08.055.16.06.248.063l.062-.005.063-.062c.123-.003.24-.016.357-.04.04.002.08.01.117.02.12.03.225-.037.292-.116.235-.01.555-.042.783.007.102.023.376.124.49.095.053-.027.105-.052.158-.072-.078.09-.243.096-.344.17zm-8.977-3.92c.09-.017.18-.02.272-.006.077-.03.162-.07.242-.092.056.005.11.01.167.01.094-.04.184-.088.27-.142.133-.053.28-.084.418-.118.16-.082.318-.167.477-.252.098-.026.197-.047.296-.067.085-.032.26.008.358.004.04.04.125.127.265.085.002 0 .218-.086.257-.14.032-.056.07-.11.11-.16.192-.117.387-.145.6-.2-.115.146-.05.146-.086.293-.117.056-.238.1-.365.13-.038.016-.062.04-.092.066-.208.136-.157.38-.045.526l.056.01c.29.057.74-.272.982-.376.18-.045.402-.096.566-.18.077-.06.16-.11.25-.15.012.035.027.07.046.103.04.02.075.05.102.085l.057-.007c.07-.006.112-.037.158-.073.077.016.154.025.23.027.057.038.116.066.18.092.062.006.125.01.188.006.094.688.047 1.454-.047 2.13-.04.246.105.512.042.77-.015.025-.093.11-.11.12l-.025.017-.175-.076c-.066-.012-.147.02-.21.002-.08-.018-.15-.054-.213-.107-.055-.02-.106-.017-.15-.01-.01.002-.026.002-.025.01-.02-.027-.036-.055-.053-.08l-.097-.084c-.06-.062-.128-.138-.294-.12l-.046.004-.058.06c-.006.007-.013.016-.007.02h-.012l-.003-.018c-.102-.114-.222-.212-.35-.297-.047-.07-.06-.19-.143-.23l-.014-.073c-.05-.04-.092-.087-.13-.14-.033-.03-.083-.068-.136-.084-.05-.018-.098-.02-.146-.007l-.038-.048-.07.014c-.053.01-.138.047-.138.165-.03.012-.076.032-.108.077-.01.064-.032.125-.062.183-.107.03-.163.152-.267.177-.16.044-.66.027-.793-.027-.096-.062-.204-.098-.32-.11-.087.02-.17.046-.25.08-.168.01-.588.096-.715.042-.23-.097-.21-.16-.373-.28-.02-.015-.04-.025-.083-.046-.04-.045-.083-.087-.126-.13-.182-.116-.37-.22-.563-.31-.07-.036-.717-.027-.56-.06-.047.015-.096.023-.145.025-.12-.027-.285-.072-.396-.128-.014-.016-.036-.038-.064-.052l-.02-.01c-.002-.008-.006-.015-.01-.02-.02-.04-.052-.06-.08-.07-.005-.018-.014-.04-.03-.06-.102-.15-.118-.01-.114-.28.04-.042.098-.096.137-.11.16-.067.358-.12.525-.17.052.01.104.01.157.01.25-.055.496-.053.74-.133l.206-.008zM9.49 2.813c-.02.008-.03.02-.042.03-.044.005-.088.012-.13.026-.018.006-.03.016-.043.026l-.045.004-.062.027c-.242.005-.476-.02-.716-.057-.126.015-.25.04-.37.074-.022.006-.045.003-.072 0 .27-.104.54-.214.82-.287.096-.033.218-.08.324-.146.09-.085.168-.176.24-.273l.145-.03.166-.09c.174-.056.358-.072.537-.13-.004.005-.088.368-.087.376.003.016.01.027.018.04v.044c-.057.064-.116.126-.178.186-.017.025-.024.05-.035.083-.044.03-.096.043-.134.082-.018-.003-.036-.01-.053-.018-.054-.005-.246.02-.283.032-.02.008.037-.013 0 0zm1.974-.54c.092.057.23.084.288.094h.145l.133.053c.04.01.713-.136.702-.17.01.012.02.057.02.108-.025.005-.062.02-.093.06-.016.022-.022.042-.023.057l-.028.025c-.024.054-.05.107-.076.16l-.01.007c-.258.032-.725.175-.973.133-.093-.036-.187-.072-.28-.11-.062-.005-.122-.012-.185-.02-.04.037-.082.073-.124.107-.045-.012-.093-.02-.14-.022 0-.09-.038-.176.005-.263.022-.054.06-.134.036-.233-.02-.093-.11-.22-.173-.307-.07-.016-.15-.03-.22-.02.045-.012.09-.025.13-.048.136.004.54-.032.598.08.086.104.175.206.27.306.09.058-.09-.054 0 0zm1.004 8.554c-.095 0-.188.005-.282.02l-.09-.053c-.042-.02-.086-.024-.132-.022-.047-.02-.097-.037-.147-.05-.14.006-.277.028-.414.06-.112-.015-.234.032-.345.015-.01-.05-.012-.086.007-.1l.04-.04c-.007-.095-.042-.182-.065-.273l.026-.194c.017-.018.042-.042.053-.078.015-.04.018-.08.017-.116.04.014.08.025.12.035.07.092.224.187.31.22.042.017.1.04.196.022l.125.068.076.012c.014.016.033.03.066.046.034.01.06.005.09 0l.13.034c.07.03.09.062.175.086.015.02.034.04.054.058l.034.007c.072.096.136.144.23.214l-.276.03zm.307 4.19c.044-.032.07-.046.07-.048l.202.078c.107-.034.194-.02.265.04-.012.022-.02.044-.02.07-.083-.028-.16-.062-.245-.086l-.242.016-.117-.03c.038-.008.072-.03.087-.04zm-.945-.29l.03-.01c.022 0 .047-.003.078-.01l.024-.018c.02.007.08.033.116.054l.005.016c.03.07.097.16.16.2.032.02.1.04.198.06.04-.006.08-.008.12-.008.008.007.02.02.04.03.006 0 .007.003.01.003-.198-.01-.518-.01-.65.15.035-.054-.583-.03-.645-.043-.036-.026-.07-.056-.1-.087h-.05c-.058 0-.103.014-.142.04-.016-.014-.03-.03-.046-.04.026-.07.06-.14.104-.2.02-.046.015-.088.004-.126.11-.035.22-.073.333-.11.06.044.112.095.16.155.117.038.205-.022.253-.055zm-1.364-6.202l-.024-.02c-.046-.114-.024-.176-.148-.266.042-.028.076-.064.106-.106.01-.015.018-.03.02-.045.018-.01.034-.02.053-.028-.032.152-.035.308-.007.464zm.717.652c.004.004.006.008.008.012-.023-.016-.046-.033-.066-.053-.04-.05-.068-.16-.05-.252.014-.098.026-.197.036-.297.062.053.116.112.166.176 0 .002 0 .004.003.007l-.027.034c-.056.067-.18.224-.07.372.004.004-.11-.148 0 0zm-6.21-4.51h-.01l-.04-.05-.033-.01c-.05-.02-.098-.004-.132.006-.012.003-.027.008-.027.01-.098-.025-.203-.068-.257-.107-.03-.074-.07-.143-.12-.208-.074-.048-.154-.09-.235-.125-.025-.053-.058-.14-.066-.163.016-.104-.003-.195-.053-.285.095-.11.206-.196.332-.26.016.03.042.067.09.092.125.066.182.1.308.077.09.034.18.09.27.126l.295-.016c.09.044.185.067.282.09.112-.02.223-.024.335-.007.036-.013.074-.02.112-.025l.077.06c.03.017.06.028.086.037.008.042-.09.317-.13.355-.053.018-.105.04-.156.062-.037.025-.056.057-.068.084-.05.012-.095.028-.14.052-.028.018-.048.043-.08.08-.043.032-.115.07-.184.1-.047.018-.292.075-.332.062-.015-.01-.035-.02-.06-.028-.025-.007-.045-.01-.062-.01zm-.7.334c-.017-.013-.04-.03-.07-.04-.038-.006-.075-.006-.113 0-.064-.015-.11-.045-.148-.096-.035-.05-.065-.114-.074-.178.132.15.357.242.526.34C4.35 5.02 4.3 5.012 4.272 5c-.016-.013.03.01 0 0zm2.194-1.908c-.043-.04-.09-.07-.145-.083-.005-.026-.013-.06-.04-.093L6.28 2.91c.34.034.684.05 1.025.083-.23.07-.504.23-.726.266-.017-.01-.03-.024-.043-.04-.02-.044-.043-.087-.067-.128-.04-.05.023.032 0 0z"/></svg>