<?xml version="1.0" encoding="utf-8"?>
<!-- Generator: Adobe Illustrator 22.0.0, SVG Export Plug-In . SVG Version: 6.00 Build 0)  -->
<svg version="1.1" id="Layer_1" xmlns="http://www.w3.org/2000/svg" xmlns:xlink="http://www.w3.org/1999/xlink" x="0px" y="0px"
	 width="18px" height="18px" viewBox="0 0 18 18" style="enable-background:new 0 0 18 18;" xml:space="preserve">
<style type="text/css">
	.st0{fill:#266726;}
</style>
<title>favicons</title>
<g>
	<path class="st0" d="M5.85574,3.44787c-0.4124-0.67483-1.31218-0.89978-2.0245-0.48738
		c-0.71233,0.4124-0.89978,1.34967-0.48738,2.0245s1.31218,0.89978,2.0245,0.48738l0,0
		C6.04319,5.02248,6.26814,4.1227,5.85574,3.44787z M5.33087,4.34765C5.1809,4.76005,4.73101,4.98499,4.28112,4.91001
		c-0.4124-0.18745-0.63734-0.59985-0.56236-1.04974c0.07498-0.4124,0.44989-0.67483,0.86229-0.59985
		c0.07498,0,0.11247,0.03749,0.18745,0.03749C5.21839,3.48536,5.5933,3.86027,5.33087,4.34765z"/>
	<path class="st0" d="M17.62785,8.99651c-0.03749-0.97476-0.07498-1.98701-0.07498-3.22421
		c0-1.01225-0.03749-1.98701-0.11247-2.99926c-0.14996-1.46214-0.59985-2.39941-2.24945-2.58686
		c-1.87454-0.18745-3.78657-0.22494-5.6986-0.14996H7.80526H7.05544c-0.52487,0-1.01225,0-1.49963,0
		c-0.67483,0-1.38716,0.03749-2.09948,0.11247C1.31935,0.37362,0.53204,1.16093,0.45706,3.22292
		C0.41957,3.82278,0.41957,4.42263,0.38208,4.98499c-0.18745,3.2617-0.22494,6.5234-0.03749,9.7851
		c0.07498,1.2372,0.44989,2.54937,2.47439,2.8493c1.83705,0.26244,3.71159,0.4124,5.58613,0.37491
		c2.24945,0,4.53639-0.14996,6.63587-0.29993c2.17447-0.14996,2.32443-1.46214,2.51188-3.2617l0.03749-0.22494
		C17.74032,12.48315,17.77781,10.72108,17.62785,8.99651z M1.1319,5.02248c0.03749-0.59985,0.03749-1.19971,0.07498-1.76207
		c0.07498-1.68709,0.56236-2.17447,2.32443-2.36192C4.20614,0.82351,4.91847,0.82351,5.5933,0.78602c0.26244,0,0.56236,0,0.8248,0
		h1.42465h1.72458c1.87454-0.07498,3.74908,0,5.58613,0.14996c1.08723,0.11247,1.42465,0.56236,1.6121,1.94952
		c0.07498,0.97476,0.11247,1.94952,0.11247,2.92428c0,1.2372,0.03749,2.24945,0.07498,3.2617
		c0.03749,1.12472,0.07498,2.13698,0.03749,3.29919c-0.44989-0.48738-0.97476-0.93727-1.53712-1.27469
		c-0.74982-0.59985-1.53712-1.12472-2.32443-1.6121c0-0.03749,0-0.03749,0.03749-0.03749
		c0.14996,0.07498,0.33742,0.11247,0.52487,0.07498c0.18745,0.03749,0.37491,0.14996,0.52487,0.26244
		c0.18745,0.11247,0.63734-0.14996,0.26244-0.33742c-0.22494-0.14996-0.44989-0.29993-0.63734-0.52487
		c-0.11247-0.14996-0.63734-0.07498-0.74982-0.44989c-0.03749-0.11247,0-0.22495,0-0.22495
		c0.14996,0,0.26244,0.07498,0.37491,0.14996c0.11247,0.14996,0.48738,0.11247,0.52487,0.03749
		c0-0.18745-0.86229-0.44989-0.86229-0.78731c0-0.07498,0-0.22495,0.03749-0.22495c0.18745,0.03749,0.4124,0.11247,0.56236,0.22495
		c0.18745,0.14996,0.4124,0.22495,0.63734,0.14996c0.18745-0.03749,0.07498-0.33742-0.29993-0.52487
		c-0.37491-0.18745-0.37491-0.48738-0.78731-0.63734c-0.22495-0.07498-0.11247-0.48738-0.07498-0.44989
		c0.11247,0.07498,0.37491-0.03749,0.56236,0.14996c0.18745,0.18745,0.44989,0.07498,0.37491-0.03749
		c-0.26244-0.29993-0.52487-0.59985-0.8248-0.86229c-0.14996-0.18745-0.22494-0.44989-0.22494-0.67483
		c0-0.03749,0.48738,0.22495,0.37491-0.03749c-0.11247-0.26244-0.29993-0.37491-0.37491-0.67483
		c0.07498,0.03749,0.33742,0.11247,0.29993,0c-0.03749-0.11247-0.18745-0.26244-0.29993-0.48738
		c-0.11247-0.22495-0.18745-0.48738-0.26244-0.74982c0-0.07498-0.07498-0.11247-0.14996-0.07498
		c-0.03749,0-0.07498,0.03749-0.07498,0.07498c-0.11247,0.44989-0.14996,1.04974-0.4124,1.34967
		c-0.18745,0.26244-0.74982,1.01225-0.4124,0.93727c0.11247-0.03749,0.26243-0.03749,0.37491-0.03749
		c0,0.29993-0.52487,0.78731-0.59985,0.86229s-0.07498,0.18745,0,0.18745c0.11247,0,0.18745-0.03749,0.29993-0.07498
		c0,0.07498-0.03749,0.18745-0.11247,0.26244c-0.18745,0.18745-0.63734,0.33742-0.71233,0.63734
		c-0.03749,0.11247,0.22495,0.14996,0.4124,0.03749c0.26244-0.18745,0.48738-0.07498,0.67483-0.26244
		c0.07498-0.07498,0.07498,0.14996,0,0.22495c-0.33742,0.44989-0.97476,0.67483-0.97476,0.97476
		c0,0.14996,0.33742-0.03749,0.52487,0c0.26244,0.03749,0.22495-0.18745,0.44989,0c0,0.14996-0.03749,0.26244-0.07498,0.37491
		c-0.03749,0.11247-0.11247,0.22495-0.18745,0.29993c-0.29993-0.14996-0.59985-0.33742-0.86229-0.56236
		c-0.29993-0.29993-0.59985-0.59985-0.89978-0.86229C9.75478,6.972,9.41736,7.23444,9.04246,7.23444
		C8.40511,7.19695,8.4426,6.74706,7.80526,7.04699c-0.4124,0.22495-0.78731,0.52487-1.16221,0.8248
		C6.4181,8.02175,5.06843,9.29643,4.84349,9.4464C4.61854,9.59636,4.31862,9.67134,4.13116,9.8213
		c-0.59985,0.44989-0.67483,0.71233-1.42465,0.97476c-0.37491,0.14996-1.2372,0.33742-1.16221,0.78731
		c0.59985-0.29993,1.27469-0.48738,1.94952-0.59985c0.37491-0.03749,0.71233-0.11247,1.01225-0.29993
		c0.67483-0.33742,0.78731-0.89978,1.6121-1.49963c0.37491-0.29993,0.74982-0.59985,1.16222-0.8248
		c0.14996,0.26244-0.59985,1.6121-0.78731,1.79956c-0.29993,0.29993-1.12472,0.59985-1.12472,1.19971
		c0.22495,0,0.56236-0.37491,1.27469-0.67483c0.37491-0.14996,0.52487-0.71233,0.8248-1.04974
		C7.58032,9.8588,7.6553,10.08374,7.6553,10.30869c0,0.44989-0.11247,0.86229-0.29993,1.2372
		c-0.14996,0.26244-0.8248,0.63734-0.89978,0.78731c-0.11247,0.26244,0.03749,0.26244,0.18745,0.29993
		c0.22495-0.14996,0.44989-0.33742,0.67483-0.52487c0.26244-0.44989,0.48738-0.93727,0.67483-1.42465
		c0.14996-0.4124-0.26244-2.32443,0.26244-2.58686l0.11247-0.07498c0.29993-0.11247,0.63734-0.18745,0.97476-0.14996
		c0.29993,0.07498,1.49963,0.89978,1.94952,1.19971l-0.07498,0.07498c-0.26244,0.14996-0.74982,0.67483-0.52487,0.78731
		c0.29993,0.14996,0.29993,0.03749,0.48738-0.03749c0.11247-0.03749,0.26244-0.03749,0.4124-0.14996
		c0.14996-0.11247,0.48738-0.11247,0.48738-0.03749c-0.03749,0.26244-0.07498,0.52487-0.52487,0.59985
		c-0.33742,0-0.44989,0.44989-0.89978,0.71233c-0.44989,0.26244-0.03749,0.44989,0.18745,0.33742
		c0.29993-0.14996,0.33742,0.14996,0.63734,0.03749c0.48738-0.18745,0.63734-0.33742,0.63734-0.29993
		c0,0.29993,0.03749,0.74982-0.8248,0.89978c-0.52487,0.07498-0.52487,0.74982-0.86229,0.93727
		c-0.18745,0.11247,0.11247,0.44989,0.37491,0.33742c0.14996-0.11247,0.37491-0.22494,0.59985-0.22494
		c0.26244,0,0.37491-0.11247,0.63734-0.18745c0.03749,0,0.03749,0.22494-0.07498,0.29993
		c-0.07498,0.03749-0.11247,0-0.29993,0.11247c-0.11247,0.03749-0.22495,0.29993-0.44989,0.29993
		c-0.29993,0.03749-0.56236,0.18745-0.78731,0.37491c-0.29993,0.26244-0.18745,0.52487,0.03749,0.37491
		c0.71233-0.33742,1.49963-0.26244,1.6121-0.37491c0.03749-0.03749,0.03749,0.26244-0.07498,0.33742
		c-0.37491,0.14996-0.78731,0.26244-1.16222,0.33742c-0.44989,0.14996-1.19971,0.67483-0.89978,0.89978
		c0.22495,0.14996,0.89978-0.22495,0.93727-0.11247s-0.52487,0.33742-0.03749,0.59985
		c0.26244,0.14997,0.89978-0.44989,1.2372-0.4124v1.34967c-0.74982-0.22495-1.87454-0.8248-3.86155-0.78731
		c-1.46214,0.03749-3.11174-0.52487-3.44915-1.16222c-0.14996-0.37491,0.03749-0.74982,0.37491-0.89978
		c0.18745-0.07498-0.78731-0.78731-1.6496-0.63734c-0.71233,0.07498-1.94952,0.56236-2.54937-0.29993
		C0.90695,10.49614,1.01942,7.83429,1.1319,5.02248z M16.80305,14.35769c-0.18745,1.79956-0.26244,2.47439-1.83705,2.58687
		l-1.91203,0.14996v-1.42465c0.18745-0.03749,0.37491,0,0.56236,0.11247c1.19971,0.59985,0.89978,0.07498,1.2372,0.11247
		c0.33742,0.03749,0.14996-0.37491-0.56236-0.56236c-0.37491-0.07498-1.27469-0.37491-1.19971-0.8248
		c0,0,0.11247,0.18745,0.71233,0.11247c0.22494-0.07498,0.48738-0.03749,0.71233,0.11247
		c0.22494,0.11247,0.93727-0.26244,0.48738-0.48738c-0.22494-0.11247-0.33742-0.03749-0.52487-0.14996
		c-0.29993-0.22494-0.67483-0.37491-1.04974-0.4124c-0.26243-0.03749-0.33742-0.37491-0.29993-0.37491
		c0.18745,0,0.07498,0.07498,0.56236,0.11247c0.14996,0,0.44989-0.11247,0.56236-0.11247
		c0.33742,0.03749,0.56236,0.14996,0.63734,0.07498c0.11247-0.18745-0.22494-0.59985-0.86229-0.67483
		c-0.29993-0.03749-0.56236-0.14996-0.78731-0.29993c-0.14996-0.11247-0.14996-0.33742-0.11247-0.33742
		c0.22494,0.14996,0.89978,0.33742,0.59985-0.07498c-0.07498-0.07498,0.37491,0.18745,0.71233,0.29993
		c0.37491,0.11247,0.37491-0.37491-0.18745-0.71233c-0.14996-0.07498-0.26244-0.4124-0.63734-0.44989
		c-0.22494-0.03749-0.37491-0.18745-0.52487-0.33742c-0.03749-0.07498-0.03749-0.22495,0-0.22495c0,0,0,0,0.03749,0.03749
		c0.22494,0.14996,1.6496,0.89978,1.94952,1.01225c0.48738,0.22494,0.4124,0.33742,0.78731,0.63734
		c0.37491,0.22494,0.71233,0.48738,1.04974,0.78731c-0.03749,0.37491-0.07498,0.78731-0.11247,1.19971V14.35769z"/>
</g>
</svg>
