<?xml version="1.0" encoding="utf-8"?>
<!-- Generator: Adobe Illustrator 22.0.0, SVG Export Plug-In . SVG Version: 6.00 Build 0)  -->
<svg version="1.1" id="Layer_1" xmlns="http://www.w3.org/2000/svg" xmlns:xlink="http://www.w3.org/1999/xlink" x="0px" y="0px"
	 width="187.26465px" height="130.38309px" viewBox="0 0 187.26465 130.38309"
	 style="enable-background:new 0 0 187.26465 130.38309;" xml:space="preserve">
<style type="text/css">
	.st0{fill:#266726;}
	.st1{fill:#72808A;}
</style>
<g>
	<path class="st0" d="M29.41113,97.23787c-1.68848,2.14551-4.4668,3.37598-7.20996,3.37598
		c-5.27637,0-9.49609-3.5166-9.49609-8.96875c0-5.45117,4.21973-8.96875,9.49609-8.96875c4.92383,0,8.01855,3.51758,8.01855,8.96875
		v1.65332H17.98047c0.42188,2.00488,1.93457,3.30566,3.97461,3.30566c1.72266,0,2.88379-0.87891,3.7627-2.0752L29.41113,97.23787z
		 M24.94434,89.71053c0.03516-1.75781-1.33691-3.23535-3.23535-3.23535c-2.32129,0-3.58789,1.58301-3.72852,3.23535H24.94434z"/>
	<path class="st0" d="M30.39844,83.09822h5.69824l4.3252,11.60742h0.07129l4.00879-11.60742h5.31152l-6.75293,17.09375h-5.59277
		L30.39844,83.09822z"/>
	<path class="st0" d="M66.63379,97.23787c-1.68848,2.14551-4.4668,3.37598-7.20996,3.37598
		c-5.27637,0-9.49609-3.5166-9.49609-8.96875c0-5.45117,4.21973-8.96875,9.49609-8.96875c4.92383,0,8.01855,3.51758,8.01855,8.96875
		v1.65332H55.20312c0.42188,2.00488,1.93457,3.30566,3.97461,3.30566c1.72266,0,2.88379-0.87891,3.7627-2.0752L66.63379,97.23787z
		 M62.16699,89.71053c0.03516-1.75781-1.33691-3.23535-3.23535-3.23535c-2.32129,0-3.58789,1.58301-3.72852,3.23535H62.16699z"/>
	<path class="st0" d="M69.94238,83.09822h5.27539v2.74414h0.07031c1.12598-2.0752,2.60254-3.16602,4.92383-3.16602
		c0.59863,0,1.2666,0.03516,1.75879,0.17578v4.81836c-0.73828-0.21094-1.47656-0.35156-2.25098-0.35156
		c-4.00977,0-4.50195,2.32129-4.50195,5.7334v7.13965h-5.27539V83.09822z"/>
	<path class="st0" d="M101.84473,98.74959c0,6.43652-3.27148,9.88379-9.88379,9.88379c-3.02441,0-6.11914-0.52734-8.58105-2.49707
		l2.91895-4.36133c1.61816,1.37109,3.41113,2.21582,5.55664,2.21582c3.20117,0,4.71289-1.75879,4.71289-4.18555v-1.65332h-0.07031
		c-1.19531,1.65332-3.23535,2.25098-4.81836,2.25098c-5.06445,0-8.40527-3.6582-8.40527-8.82812
		c0-4.53711,2.9541-8.89844,7.80762-8.89844c2.98926,0,5.0293,1.44238,5.83887,2.67285h0.07031v-2.25098h4.85352V98.74959z
		 M92.77051,95.76033c2.3916,0,4.2207-2.00488,4.2207-4.2207s-1.8291-4.2207-4.2207-4.2207s-4.2207,2.00488-4.2207,4.2207
		S90.37891,95.76033,92.77051,95.76033z"/>
	<path class="st0" d="M104.83691,83.09822h5.27539v2.74414h0.07031c1.12598-2.0752,2.60254-3.16602,4.92383-3.16602
		c0.59863,0,1.2666,0.03516,1.75879,0.17578v4.81836c-0.73828-0.21094-1.47656-0.35156-2.25098-0.35156
		c-4.00977,0-4.50195,2.32129-4.50195,5.7334v7.13965h-5.27539V83.09822z"/>
	<path class="st0" d="M134.76953,97.23787c-1.68848,2.14551-4.4668,3.37598-7.20996,3.37598
		c-5.27637,0-9.49609-3.5166-9.49609-8.96875c0-5.45117,4.21973-8.96875,9.49609-8.96875c4.92383,0,8.01855,3.51758,8.01855,8.96875
		v1.65332h-12.23926c0.42188,2.00488,1.93457,3.30566,3.97461,3.30566c1.72266,0,2.88379-0.87891,3.7627-2.0752L134.76953,97.23787z
		 M130.30273,89.71053c0.03516-1.75781-1.33691-3.23535-3.23535-3.23535c-2.32129,0-3.58789,1.58301-3.72852,3.23535H130.30273z"/>
	<path class="st0" d="M154.43262,97.23787c-1.68848,2.14551-4.4668,3.37598-7.20996,3.37598
		c-5.27637,0-9.49609-3.5166-9.49609-8.96875c0-5.45117,4.21973-8.96875,9.49609-8.96875c4.92383,0,8.01855,3.51758,8.01855,8.96875
		v1.65332h-12.23926c0.42188,2.00488,1.93457,3.30566,3.97461,3.30566c1.72266,0,2.88379-0.87891,3.7627-2.0752L154.43262,97.23787z
		 M149.96582,89.71053c0.03516-1.75781-1.33691-3.23535-3.23535-3.23535c-2.32129,0-3.58789,1.58301-3.72852,3.23535H149.96582z"/>
	<path class="st0" d="M158.09961,83.09822h5.06445v2.32129h0.07031c0.70312-1.33594,2.42676-2.74316,4.99414-2.74316
		c5.34668,0,6.33105,3.51758,6.33105,8.08984v9.42578h-5.27539v-8.37109c0-1.96973-0.03516-4.50195-2.74316-4.50195
		c-2.74414,0-3.16602,2.14551-3.16602,4.36133v8.51172h-5.27539V83.09822z"/>
</g>
<g>
	<g>
		<path class="st1" d="M80.14453,118.46024h2.44727l1.62793,6.53809h0.02832l2.13086-6.53809h2.08789l2.11719,6.71094h0.0293
			l1.71289-6.71094h2.27539l-2.98047,10.1953h-2.00195l-2.24609-7.05566h-0.0293l-2.24609,7.05566h-1.92969L80.14453,118.46024z"/>
		<path class="st1" d="M98.67676,118.46024h1.8584l4.43457,10.1953h-2.53418l-0.87793-2.16015h-3.96094l-0.84961,2.16015h-2.47656
			L98.67676,118.46024z M99.54102,121.42704l-1.23828,3.16797h2.49121L99.54102,121.42704z"/>
		<path class="st1" d="M111.39258,120.95145c-0.18262-0.23047-0.42969-0.40039-0.74219-0.51074
			c-0.31152-0.11035-0.60742-0.16602-0.88574-0.16602c-0.16309,0-0.33105,0.01953-0.50391,0.05762s-0.33594,0.09863-0.48926,0.17969
			c-0.15332,0.08203-0.27832,0.19043-0.37402,0.32422c-0.09668,0.13477-0.14453,0.29785-0.14453,0.48926
			c0,0.30762,0.11523,0.54297,0.3457,0.70605s0.52051,0.30273,0.87109,0.41797s0.72754,0.23047,1.13086,0.3457
			s0.7793,0.27832,1.12988,0.48926s0.64062,0.49414,0.87109,0.84961s0.3457,0.83008,0.3457,1.42578
			c0,0.56641-0.10547,1.06055-0.31641,1.48242c-0.21191,0.42285-0.49707,0.77344-0.85742,1.05175
			c-0.35938,0.27832-0.77734,0.48438-1.25195,0.61914c-0.47559,0.13477-0.97754,0.20117-1.50488,0.20117
			c-0.66309,0-1.27734-0.10059-1.84375-0.30176c-0.56641-0.20215-1.09375-0.52832-1.58398-0.97948l1.59863-1.75684
			c0.23047,0.30762,0.52051,0.54492,0.87109,0.71289s0.71289,0.25195,1.08691,0.25195c0.18262,0,0.36719-0.02148,0.55469-0.06445
			c0.1875-0.04395,0.35547-0.1084,0.50391-0.19434c0.14844-0.08691,0.26855-0.19727,0.36035-0.33203
			c0.09082-0.13379,0.13672-0.29199,0.13672-0.47461c0-0.30762-0.11816-0.5498-0.35254-0.72754
			c-0.23535-0.17773-0.53125-0.32812-0.88574-0.45312c-0.35547-0.125-0.73926-0.25-1.15234-0.375
			c-0.41309-0.12402-0.79688-0.29199-1.15234-0.50391c-0.35449-0.21094-0.65039-0.48926-0.88477-0.83496
			c-0.23535-0.3457-0.35352-0.80176-0.35352-1.36816c0-0.54688,0.1084-1.02734,0.32422-1.43945
			c0.21582-0.41309,0.50391-0.75879,0.86426-1.03711c0.35938-0.27832,0.77539-0.4873,1.24512-0.62598
			c0.4707-0.13965,0.95508-0.20898,1.45508-0.20898c0.5752,0,1.13184,0.08105,1.66992,0.24414
			c0.53809,0.16406,1.02246,0.4375,1.4541,0.82129L111.39258,120.95145z"/>
		<path class="st1" d="M115.12207,118.46024h2.24609v3.80176h4.36328v-3.80176h2.24609v10.1953h-2.24609v-4.40624h-4.36328v4.40624
			h-2.24609V118.46024z"/>
		<path class="st1" d="M127.10254,118.46024h2.24707v10.1953h-2.24707V118.46024z"/>
		<path class="st1" d="M132.47461,118.46024h3.05273l4.33398,7.08496h0.0293v-7.08496h2.24609v10.1953h-2.9375l-4.4502-7.2578
			h-0.02832v7.2578h-2.24609V118.46024z"/>
		<path class="st1" d="M154.08789,127.93583c-0.66309,0.3457-1.35352,0.59472-2.07422,0.74804
			c-0.71973,0.1543-1.4541,0.23047-2.20312,0.23047c-0.79688,0-1.53125-0.12402-2.20312-0.37402
			c-0.67188-0.24902-1.25293-0.60741-1.74219-1.07323c-0.48926-0.46484-0.87109-1.0293-1.14453-1.69141
			c-0.27441-0.66211-0.41113-1.40137-0.41113-2.21777c0-0.81543,0.13672-1.55469,0.41113-2.21777
			c0.27344-0.66211,0.65527-1.22559,1.14453-1.69141s1.07031-0.82324,1.74219-1.07324
			c0.67188-0.24902,1.40625-0.37402,2.20312-0.37402c0.81641,0,1.56738,0.09863,2.25391,0.29492
			c0.68652,0.19727,1.28906,0.53516,1.80664,1.01562l-1.58398,1.72754c-0.30664-0.31641-0.65234-0.55664-1.03613-0.71973
			c-0.38477-0.16309-0.86426-0.24512-1.44043-0.24512c-0.48047,0-0.91406,0.08203-1.30273,0.24512s-0.72266,0.39062-1.00098,0.68359
			s-0.49219,0.64062-0.64062,1.04395c-0.14941,0.40332-0.22363,0.84082-0.22363,1.31055c0,0.48047,0.07422,0.91895,0.22363,1.31738
			c0.14844,0.39844,0.3623,0.74414,0.64062,1.03711s0.6123,0.52051,1.00098,0.68359
			c0.38867,0.16406,0.82227,0.24512,1.30273,0.24512c0.49023,0,0.91211-0.05469,1.26758-0.16602
			c0.35449-0.10938,0.6377-0.22266,0.84961-0.33789v-1.65625h-1.8291v-2.07324h3.98926V127.93583z"/>
		<path class="st1" d="M158.60938,120.44755h-2.90918v-1.9873h8.06445v1.9873h-2.90918v8.208h-2.24609V120.44755z"/>
		<path class="st1" d="M164.35449,123.5579c0-0.81543,0.13672-1.55469,0.41113-2.21777
			c0.27344-0.66211,0.65527-1.22559,1.14453-1.69141s1.07031-0.82324,1.74219-1.07324
			c0.67188-0.24902,1.40625-0.37402,2.20312-0.37402s1.53125,0.125,2.20312,0.37402c0.67188,0.25,1.25293,0.60742,1.74219,1.07324
			c0.49023,0.46582,0.87207,1.0293,1.14551,1.69141c0.27344,0.66309,0.41016,1.40234,0.41016,2.21777
			c0,0.81641-0.13672,1.55566-0.41016,2.21777s-0.65527,1.22656-1.14551,1.69141c-0.48926,0.46582-1.07031,0.82421-1.74219,1.07323
			c-0.67188,0.25-1.40625,0.37402-2.20312,0.37402s-1.53125-0.12402-2.20312-0.37402
			c-0.67188-0.24902-1.25293-0.60741-1.74219-1.07323c-0.48926-0.46484-0.87109-1.0293-1.14453-1.69141
			C164.49121,125.11356,164.35449,124.37431,164.35449,123.5579z M166.6875,123.5579c0,0.48047,0.07422,0.91895,0.22363,1.31738
			c0.14844,0.39844,0.3623,0.74414,0.64062,1.03711s0.6123,0.52051,1.00098,0.68359
			c0.38867,0.16406,0.82227,0.24512,1.30273,0.24512s0.91504-0.08105,1.30371-0.24512c0.38867-0.16309,0.72168-0.39062,1-0.68359
			s0.49219-0.63867,0.6416-1.03711c0.14844-0.39844,0.22266-0.83691,0.22266-1.31738c0-0.46973-0.07422-0.90723-0.22266-1.31055
			c-0.14941-0.40332-0.36328-0.75098-0.6416-1.04395s-0.61133-0.52051-1-0.68359s-0.82324-0.24512-1.30371-0.24512
			s-0.91406,0.08203-1.30273,0.24512s-0.72266,0.39062-1.00098,0.68359s-0.49219,0.64062-0.64062,1.04395
			C166.76172,122.65067,166.6875,123.08817,166.6875,123.5579z"/>
		<path class="st1" d="M177.60254,118.46024h3.05273l4.33398,7.08496h0.0293v-7.08496h2.24609v10.1953h-2.9375l-4.4502-7.2578
			h-0.02832v7.2578h-2.24609V118.46024z"/>
	</g>
	<g>
		<path class="st1" d="M0,123.5579c0-0.81543,0.13672-1.55469,0.41113-2.21777c0.27344-0.66211,0.65527-1.22559,1.14453-1.69141
			s1.07031-0.82324,1.74219-1.07324c0.67188-0.24902,1.40625-0.37402,2.20312-0.37402s1.53125,0.125,2.20312,0.37402
			c0.67188,0.25,1.25293,0.60742,1.74219,1.07324c0.49023,0.46582,0.87207,1.0293,1.14551,1.69141
			c0.27344,0.66309,0.41016,1.40234,0.41016,2.21777c0,0.81641-0.13672,1.55566-0.41016,2.21777s-0.65527,1.22656-1.14551,1.69141
			c-0.48926,0.46582-1.07031,0.82421-1.74219,1.07323c-0.67188,0.25-1.40625,0.37402-2.20312,0.37402
			s-1.53125-0.12402-2.20312-0.37402c-0.67188-0.24902-1.25293-0.60741-1.74219-1.07323
			c-0.48926-0.46484-0.87109-1.0293-1.14453-1.69141C0.13672,125.11356,0,124.37431,0,123.5579z M2.33301,123.5579
			c0,0.48047,0.07422,0.91895,0.22363,1.31738c0.14844,0.39844,0.3623,0.74414,0.64062,1.03711s0.6123,0.52051,1.00098,0.68359
			c0.38867,0.16406,0.82227,0.24512,1.30273,0.24512s0.91504-0.08105,1.30371-0.24512c0.38867-0.16309,0.72168-0.39062,1-0.68359
			s0.49219-0.63867,0.6416-1.03711c0.14844-0.39844,0.22266-0.83691,0.22266-1.31738c0-0.46973-0.07422-0.90723-0.22266-1.31055
			c-0.14941-0.40332-0.36328-0.75098-0.6416-1.04395s-0.61133-0.52051-1-0.68359s-0.82324-0.24512-1.30371-0.24512
			s-0.91406,0.08203-1.30273,0.24512s-0.72266,0.39062-1.00098,0.68359s-0.49219,0.64062-0.64062,1.04395
			C2.40723,122.65067,2.33301,123.08817,2.33301,123.5579z"/>
		<path class="st1" d="M12.97461,118.46024h2.24609v8.12207h4.16211v2.07323h-6.4082V118.46024z"/>
		<path class="st1" d="M22.65039,124.30692l-3.83008-5.84668h2.79395l2.16016,3.81641l2.28906-3.81641h2.66406l-3.83008,5.84668
			v4.34863h-2.24707V124.30692z"/>
		<path class="st1" d="M30.22559,118.46024h3.39844l2.34668,6.65332H36l2.36133-6.65332h3.38379v10.1953h-2.24609v-7.81933h-0.0293
			l-2.67773,7.81933h-1.71387L32.5,120.83622h-0.02832v7.81933h-2.24609V118.46024z"/>
		<path class="st1" d="M44.9707,118.46024h3.78711c0.52734,0,1.02734,0.04785,1.49707,0.14453
			c0.4707,0.0957,0.88086,0.26172,1.23145,0.49609c0.35059,0.23535,0.62891,0.55273,0.83496,0.95117
			c0.20703,0.39844,0.30957,0.89941,0.30957,1.50391c0,0.5957-0.0957,1.09473-0.28809,1.49805
			c-0.19141,0.40332-0.45605,0.72461-0.79199,0.96484s-0.73438,0.41016-1.19434,0.51074
			c-0.46094,0.10156-0.96094,0.15137-1.49805,0.15137h-1.6416v3.9746H44.9707V118.46024z M47.2168,122.78056h1.49805
			c0.20117,0,0.39551-0.01953,0.58301-0.05762c0.18652-0.03809,0.35449-0.10352,0.50391-0.19434
			c0.14844-0.0918,0.26855-0.21582,0.35938-0.375c0.0918-0.1582,0.1377-0.35742,0.1377-0.59766
			c0-0.25879-0.06055-0.46777-0.18066-0.62598s-0.27344-0.28125-0.46094-0.36719c-0.18652-0.08691-0.39551-0.1416-0.62598-0.16602
			c-0.23047-0.02344-0.45117-0.03516-0.66211-0.03516H47.2168V122.78056z"/>
		<path class="st1" d="M54.47461,118.46024h2.24707v10.1953h-2.24707V118.46024z"/>
		<path class="st1" d="M63.04297,118.46024h1.8584l4.43457,10.1953h-2.53418l-0.87793-2.16015h-3.96094l-0.84961,2.16015h-2.47656
			L63.04297,118.46024z M63.90723,121.42704l-1.23828,3.16797h2.49121L63.90723,121.42704z"/>
		<path class="st1" d="M71.71191,126.32255h2.07324l-1.2959,4.06054h-1.84277L71.71191,126.32255z"/>
	</g>
</g>
<g>
	<path class="st0" d="M81.64166,12.94531c-1.68109-2.71906-5.24811-3.56049-7.96716-1.87946
		c-2.71906,1.68109-3.56049,5.24811-1.87939,7.96716c1.68103,2.71906,5.24805,3.56055,7.9671,1.87946
		S83.32275,15.66437,81.64166,12.94531z M79.62207,16.47791c-0.81226,1.63989-2.42664,2.70093-4.1391,2.19702
		c-1.79211-0.52728-2.45789-2.96576-2.19702-4.1391c0.46863-2.10797,2.43286-2.85864,4.1391-2.19702
		C79.16785,13.01459,80.58405,14.53577,79.62207,16.47791z"/>
</g>
<path class="st0" d="M127.03727,34.65259c-0.16797-3.79638-0.34131-7.72168-0.31006-12.40918
	c0.02197-3.26318-0.03711-7.91895-0.44482-11.56641c-0.62842-5.62988-2.29541-9.26807-8.65576-10.00977
	c-6.78711-0.79248-14.47217-0.69922-21.90332-0.6084c-2.18115,0.02637-4.36914,0.05273-6.54639,0.05859
	c-1.01318,0-1.97559-0.00488-2.90234-0.00977c-1.99316-0.00977-3.87549-0.021-5.73975,0.02393l-0.104,0.00244
	c-2.65039,0.0625-5.39111,0.12744-8.09277,0.39551c-8.14893,0.80811-11.14453,3.896-11.44775,11.80029
	c-0.08789,2.28662-0.18311,4.56543-0.27832,6.83838c-0.53857,12.86523-1.04688,25.01758-0.20654,37.58838
	c0.31641,4.72656,1.68652,9.72607,9.45068,10.96875c6.74414,1.07959,14.06494,1.47607,21.47363,1.47607
	c8.6665,0,17.45215-0.54248,25.56592-1.16992c8.39209-0.64795,8.94775-5.63623,9.71631-12.54004l0.10059-0.89893
	C127.58024,46.9231,127.31657,40.96313,127.03727,34.65259z M63.46989,19.28784c0.0957-2.27637,0.19092-4.55859,0.27881-6.84863
	c0.24707-6.44873,2.1543-8.39697,8.87158-9.06299C75.215,3.1189,77.90104,3.05493,80.4987,2.99341l0.10352-0.00244
	c1.03564-0.02441,2.0835-0.03174,3.15723-0.03174c0.81689,0,1.64844,0.00439,2.5,0.00879
	c0.93311,0.00488,1.90137,0.00977,2.9209,0.00977h0.00342c2.18701-0.00537,4.38379-0.03223,6.57422-0.05859
	c7.67822-0.09375,14.93262-0.18115,21.5376,0.58887c4.17188,0.48682,5.55029,2.16602,6.14404,7.48633
	c0.4126,3.69385,0.44482,8.62109,0.42725,11.22949c-0.03223,4.76074,0.14307,8.72314,0.31299,12.55517
	c0.19116,4.32617,0.35699,8.26794,0.19843,12.62744c-1.21295-1.6004-3.65222-3.3504-5.89227-4.90521
	c-1.59625-1.51086-5.39069-3.92346-9.01251-6.16516c0.01276-0.11963,0.04816-0.19891,0.10535-0.16876
	c0.86255,0.45422,1.19867,0.27429,1.99915,0.33148c0.90155,0.06445,1.70959,0.8056,2.06891,0.98376
	c0.72412,0.35907,2.45782-0.52521,1.03333-1.27747c-0.2597-0.13715-1.81427-1.07794-2.45038-2.05707
	c-0.39679-0.6109-2.41553-0.35803-2.81842-1.80347c-0.11853-0.42535-0.06866-0.81695,0.04272-0.80774
	c0.31836,0.02637,1.09082,0.12244,1.40253,0.62738c0.36481,0.59094,1.92438,0.46918,1.94244,0.08093
	c0.03351-0.71716-3.28345-1.76129-3.31567-2.96264c-0.00891-0.33099-0.07336-0.80237,0.10437-0.81781
	c0.39691-0.03461,2.04565,0.74969,2.23199,0.90118c0.97211,0.7901,1.5213,0.66138,2.42987,0.52209
	c0.7041-0.10797,0.25488-1.30109-1.22833-1.94312c-1.45758-0.63098-1.42761-1.8186-3.06659-2.41205
	c-0.91803-0.3324-0.47467-1.8797-0.32794-1.80164c0.49371,0.26263,1.55206-0.07385,2.11456,0.60175
	c0.50043,0.60101,1.66364,0.23792,1.49121-0.09973c-0.49493-0.96936-2.95837-3.078-3.13684-3.3291
	c-0.66882-0.94116-0.83173-2.25641-0.83173-2.6438c0-0.09094,1.86267,0.83923,1.40833-0.1391
	c-0.38245-0.82355-1.18945-1.5531-1.38263-2.52484c0.22888,0.1438,1.29199,0.36981,1.2204,0.03693
	c-0.06805-0.31659-0.72156-0.94965-1.16736-1.83209c-0.57709-1.14258-0.83295-2.30157-0.97076-2.8349
	c-0.10901-0.42151-0.70886-0.43433-0.82666-0.01514c-0.49249,1.75208-0.62421,4.0426-1.59753,5.25238
	c-0.75208,0.93475-2.84363,3.8584-1.6474,3.63684c0.91632-0.16968,1.64734-0.16559,1.64734-0.16559
	c0,1.15924-2.06183,2.93018-2.32434,3.31525c-0.37946,0.55658-0.29828,0.71423-0.05658,0.71045
	c0.35309-0.00555,1.1615-0.27051,1.1615-0.27051c0.05469,0.22668-0.12854,0.68695-0.40411,0.95093
	c-0.76935,0.73688-2.46558,1.34277-2.77039,2.51202c-0.10413,0.39948,0.86353,0.59894,1.57159,0.11566
	c1.04797-0.71521,1.81427-0.26099,2.54376-1.0592c0.31067-0.33997,0.25635,0.53857-0.00482,0.90179
	c-1.24738,1.73468-3.77466,2.54089-3.68414,3.72455c0.0434,0.56781,1.25024-0.14563,2.03882,0.01941
	c1.02094,0.21368,0.79913-0.65125,1.70038,0.03638c0.10052,0.07672-0.08997,0.99713-0.23309,1.55359
	c-0.09363,0.36371-0.38373,0.79065-0.75311,1.21808c-1.5788-0.9917-2.78943-1.79028-3.25568-2.22491
	c-0.66553-0.62042-2.8656-2.94922-3.5155-3.31409c-1.31238-0.73682-2.63464,0.33893-4.02765,0.28668
	c-2.40857-0.09039-2.29486-1.83191-4.80823-0.67169c-1.0545,0.48676-1.43488,0.89423-4.44037,3.14319
	c-0.80579,0.60291-6.0578,5.43731-6.89899,6.04571c-0.83411,0.60321-1.99176,0.89417-2.68762,1.42468
	c-2.33472,1.77979-2.63977,2.80615-5.61548,3.87512c-1.53345,0.5509-4.79315,1.30994-4.53638,2.96326
	c2.28394-0.99841,4.94147-2.04272,7.40857-2.3493c1.91974-0.23859,2.16669-0.30444,3.96326-1.1546
	c2.60986-1.23505,3.00195-3.44843,6.15417-5.7196c1.24707-0.89844,3.50848-2.92523,4.42853-3.13916
	c0.49835,1.0481-2.27124,6.16821-2.98242,6.87067c-1.15082,1.13666-4.29279,2.37451-4.27979,4.60773
	c0.86859-0.04913,2.18817-1.52472,4.97754-2.6347c1.45892-0.58051,1.98718-2.68701,3.13721-4.08398
	c0.42938,0.48114,0.76984,2.39734,0.76868,2.65204c-0.00592,1.33521-0.52173,3.72595-1.16376,4.81866
	c-0.62372,1.0614-3.20203,2.51959-3.41235,3.04932c-0.38977,0.98163,0.13495,1.0459,0.77313,1.14301
	c0.97949-0.64374,2.40491-1.70953,2.70673-2.11194c0.35394-0.47186,2.27258-4.50775,2.60449-5.54749
	c0.50867-1.59332-0.95575-8.94159,0.97504-9.95965c0.1601-0.08435,0.30255-0.16394,0.4325-0.24023
	c1.62573-0.50226,3.00513-0.76099,3.76355-0.6192c1.20166,0.22461,5.72858,3.41559,7.55908,4.67352
	c-0.12225,0.08856-0.23999,0.1712-0.34271,0.23773c-0.94214,0.61047-2.89349,2.56506-2.08276,2.98083
	c1.22021,0.62579,1.13025,0.20343,1.91638-0.17358c0.39526-0.18951,0.97717-0.09705,1.65515-0.58801
	c0.84332-0.61066,1.90717-0.401,1.8634-0.12219c-0.15155,0.96539-0.2984,2.08813-1.95294,2.3667
	c-1.28625,0.03033-1.7395,1.72961-3.50439,2.68555c-1.80511,0.97778-0.18842,1.76831,0.69562,1.34717
	c1.13641-0.54144,1.25354,0.57117,2.38409,0.12787c1.89386-0.74249,2.47681-1.29486,2.47681-1.12976
	c0,1.11603,0.18115,2.88098-3.10895,3.42236c-2.05701,0.3385-2.05762,2.89154-3.24451,3.63165
	c-0.7124,0.44421,0.4762,1.79169,1.52814,1.23645c0.66888-0.35297,1.35291-0.90192,2.25482-0.84552
	c1.06696,0.06665,1.40375-0.42529,2.44568-0.75305c0.16724-0.05261,0.12775,0.85016-0.32373,1.19141
	c-0.22003,0.16626-0.37634,0.06378-1.18469,0.42932c-0.43097,0.19489-0.81708,1.10547-1.76862,1.13251
	c-1.24908,0.03546-2.35522,1.00195-2.97028,1.51758c-1.20862,1.01324-0.79187,1.94971,0.11688,1.5163
	c2.77942-1.32562,5.75146-1.07526,6.26172-1.50916c0.10413-0.0885,0.15277,1.05719-0.28186,1.23877
	c-1.12024,0.46796-3.93884,1.12689-4.52362,1.2959c-1.74573,0.50452-4.5658,2.66742-3.46442,3.41577
	c0.85834,0.58325,3.42889-0.88428,3.66968-0.38043c0.32202,0.67371-1.97198,1.37177-0.1333,2.28595
	c1.05341,0.5238,3.51727-1.68713,4.80469-1.61011c0,0-0.00232,2.99664-0.00366,5.21008
	c-2.84167-0.90491-7.23846-3.18933-14.95557-2.96033c-5.61658,0.16669-11.93085-2.03656-13.27264-4.48236
	c-0.68048-1.24054,0.25781-2.97681,1.52887-3.53992c0.70905-0.31409-3.0954-2.89563-6.42139-2.47821
	c-2.67542,0.33575-7.48285,2.11755-9.85193-1.17255C62.59959,40.32263,63.0192,30.05597,63.46989,19.28784z M123.76871,55.17505
	c-0.77246,6.94141-1.06201,9.53857-7.09375,10.00488c-2.39124,0.18475-4.84509,0.36005-7.33221,0.51825v-5.49475
	c0.35895-0.05591,1.22406-0.06433,2.1214,0.37408c4.61548,2.25458,3.41956,0.26617,4.75305,0.40411
	c1.4021,0.14502,0.61359-1.5199-2.24109-2.24164c-1.40186-0.35437-4.92499-1.46613-4.57227-3.16748
	c0,0,0.49402,0.71436,2.76691,0.36749c0.80469-0.1228,1.29071-0.33807,2.68939,0.37512
	c0.84521,0.43097,3.67139-0.98016,1.93677-1.91718c-0.81818-0.44196-1.33179-0.19928-2.08978-0.57404
	c-0.72876-0.36035-1.46063-1.2804-4.00269-1.6524c-1.0249-0.14996-1.27722-1.43011-1.13068-1.43152
	c0.74005-0.00665,0.28424,0.23346,2.19818,0.4303c0.52911,0.0545,1.69696-0.48578,2.20648-0.43036
	c1.35065,0.14679,2.18884,0.59698,2.39954,0.26294c0.45856-0.72693-0.81049-2.33282-3.35278-2.59674
	c-1.26428-0.13129-2.27124-0.65387-3.0246-1.21942c-0.60675-0.45551-0.54962-1.2948-0.45789-1.23889
	c0.89526,0.54492,3.46985,1.35815,2.35864-0.29126c-0.21625-0.32098,1.57764,0.67621,2.79919,1.08325
	c1.46655,0.48871,1.47845-1.53101-0.75903-2.73615c-0.55408-0.2984-1.00104-1.64844-2.41858-1.77795
	c-0.77148-0.0705-1.84186-0.99066-1.91913-1.26263c-0.09753-0.34302-0.21405-0.93036,0.05334-0.91785
	c0.04004,0.02924,0.07953,0.06567,0.11981,0.09192c0.87256,0.56854,6.39105,3.4986,7.41412,3.95856
	c1.92065,0.86353,1.62524,1.32281,3.00903,2.50336c0.88324,0.75342,3.12799,1.87054,4.06903,3.04376
	c-0.09106,1.47687-0.21533,3.00232-0.39935,4.62842L123.76871,55.17505z"/>
</svg>
