<?xml version="1.0" encoding="utf-8"?>
<!-- Generator: Adobe Illustrator 22.0.0, SVG Export Plug-In . SVG Version: 6.00 Build 0)  -->
<svg version="1.1" id="Layer_1" xmlns="http://www.w3.org/2000/svg" xmlns:xlink="http://www.w3.org/1999/xlink" x="0px" y="0px"
	 viewBox="0 0 272.60925 69.20142" style="enable-background:new 0 0 272.60925 69.20142;" xml:space="preserve">
<style type="text/css">
	.st0{fill:#266726;}
	.st1{fill:#72808A;}
</style>
<g>
	<g>
		<path class="st0" d="M21.60292,12.94531c-1.68109-2.71906-5.24811-3.56049-7.96716-1.87946
			c-2.71906,1.68109-3.56049,5.24811-1.87939,7.96716c1.68103,2.71906,5.24805,3.56055,7.9671,1.87946
			S23.28401,15.66437,21.60292,12.94531z M19.58333,16.47791c-0.81226,1.63989-2.42664,2.70093-4.1391,2.19702
			c-1.79211-0.52728-2.45789-2.96576-2.19702-4.1391c0.46863-2.10797,2.43286-2.85864,4.1391-2.19702
			C19.1291,13.01459,20.5453,14.53577,19.58333,16.47791z"/>
	</g>
	<path class="st0" d="M67.07796,34.65259c-0.16797-3.79638-0.34131-7.72168-0.31006-12.40918
		c0.02197-3.26318-0.03711-7.91895-0.44482-11.56641c-0.62842-5.62988-2.29541-9.26807-8.65576-10.00977
		c-6.78711-0.79248-14.47217-0.69922-21.90332-0.6084c-2.18115,0.02637-4.36914,0.05273-6.54639,0.05859
		c-1.01318,0-1.97559-0.00488-2.90234-0.00977c-1.99316-0.00977-3.87549-0.021-5.73975,0.02393l-0.104,0.00244
		c-2.65039,0.0625-5.39111,0.12744-8.09277,0.39551C4.22981,1.33765,1.23421,4.42554,0.93098,12.32983
		c-0.08789,2.28662-0.18311,4.56543-0.27832,6.83838C0.11409,32.03345-0.39421,44.18579,0.44612,56.75659
		c0.31641,4.72656,1.68652,9.72607,9.45068,10.96875c6.74414,1.07959,14.06494,1.47607,21.47363,1.47607
		c8.6665,0,17.45215-0.54248,25.56592-1.16992c8.39209-0.64795,8.94775-5.63623,9.71631-12.54004l0.10059-0.89893
		C67.62093,46.9231,67.35725,40.96313,67.07796,34.65259z M3.51057,19.28784c0.0957-2.27637,0.19092-4.55859,0.27881-6.84863
		c0.24707-6.44873,2.1543-8.39697,8.87158-9.06299c2.59473-0.25732,5.28076-0.32129,7.87842-0.38281l0.10352-0.00244
		c1.03564-0.02441,2.0835-0.03174,3.15723-0.03174c0.81689,0,1.64844,0.00439,2.5,0.00879
		c0.93311,0.00488,1.90137,0.00977,2.9209,0.00977h0.00342c2.18701-0.00537,4.38379-0.03223,6.57422-0.05859
		c7.67822-0.09375,14.93262-0.18115,21.5376,0.58887c4.17188,0.48682,5.55029,2.16602,6.14404,7.48633
		c0.4126,3.69385,0.44482,8.62109,0.42725,11.22949c-0.03223,4.76074,0.14307,8.72314,0.31299,12.55517
		c0.19116,4.32617,0.35699,8.26794,0.19843,12.62744c-1.21295-1.6004-3.65222-3.3504-5.89227-4.90521
		c-1.59625-1.51086-5.39069-3.92346-9.01251-6.16516c0.01276-0.11963,0.04816-0.19891,0.10535-0.16876
		c0.86255,0.45422,1.19867,0.27429,1.99915,0.33148c0.90155,0.06445,1.70959,0.8056,2.06891,0.98376
		c0.72412,0.35907,2.45782-0.52521,1.03333-1.27747c-0.2597-0.13715-1.81427-1.07794-2.45038-2.05707
		c-0.39679-0.6109-2.41553-0.35803-2.81842-1.80347c-0.11853-0.42535-0.06866-0.81695,0.04272-0.80774
		c0.31836,0.02637,1.09082,0.12244,1.40253,0.62738c0.36481,0.59094,1.92438,0.46918,1.94244,0.08093
		c0.03351-0.71716-3.28345-1.76129-3.31567-2.96264c-0.00891-0.33099-0.07336-0.80237,0.10437-0.81781
		c0.39691-0.03461,2.04565,0.74969,2.23199,0.90118c0.97211,0.7901,1.5213,0.66138,2.42987,0.52209
		c0.7041-0.10797,0.25488-1.30109-1.22833-1.94312c-1.45758-0.63098-1.42761-1.8186-3.06659-2.41205
		c-0.91803-0.3324-0.47467-1.8797-0.32794-1.80164c0.49371,0.26263,1.55206-0.07385,2.11456,0.60175
		c0.50043,0.60101,1.66364,0.23792,1.49121-0.09973c-0.49493-0.96936-2.95837-3.078-3.13684-3.3291
		c-0.66882-0.94116-0.83173-2.25641-0.83173-2.6438c0-0.09094,1.86267,0.83923,1.40833-0.1391
		c-0.38245-0.82355-1.18945-1.5531-1.38263-2.52484c0.22888,0.1438,1.29199,0.36981,1.2204,0.03693
		c-0.06805-0.31659-0.72156-0.94965-1.16736-1.83209c-0.57709-1.14258-0.83295-2.30157-0.97076-2.8349
		c-0.10901-0.42151-0.70886-0.43433-0.82666-0.01514c-0.49249,1.75208-0.62421,4.0426-1.59753,5.25238
		c-0.75208,0.93475-2.84363,3.8584-1.6474,3.63684c0.91632-0.16968,1.64734-0.16559,1.64734-0.16559
		c0,1.15924-2.06183,2.93018-2.32434,3.31525c-0.37946,0.55658-0.29828,0.71423-0.05658,0.71045
		c0.35309-0.00555,1.1615-0.27051,1.1615-0.27051c0.05469,0.22668-0.12854,0.68695-0.40411,0.95093
		c-0.76935,0.73688-2.46558,1.34277-2.77039,2.51202c-0.10413,0.39948,0.86353,0.59894,1.57159,0.11566
		c1.04797-0.71521,1.81427-0.26099,2.54376-1.0592c0.31067-0.33997,0.25635,0.53857-0.00482,0.90179
		c-1.24738,1.73468-3.77466,2.54089-3.68414,3.72455c0.0434,0.56781,1.25024-0.14563,2.03882,0.01941
		c1.02094,0.21368,0.79913-0.65125,1.70038,0.03638c0.10052,0.07672-0.08997,0.99713-0.23309,1.55359
		c-0.09363,0.36371-0.38373,0.79065-0.75311,1.21808c-1.5788-0.9917-2.78943-1.79028-3.25568-2.22491
		c-0.66553-0.62042-2.8656-2.94922-3.5155-3.31409c-1.31238-0.73682-2.63464,0.33893-4.02765,0.28668
		c-2.40857-0.09039-2.29486-1.83191-4.80823-0.67169c-1.0545,0.48676-1.43488,0.89423-4.44037,3.14319
		c-0.80579,0.60291-6.0578,5.43731-6.89899,6.04571c-0.83411,0.60321-1.99176,0.89417-2.68762,1.42468
		c-2.33472,1.77979-2.63977,2.80615-5.61548,3.87512c-1.53345,0.5509-4.79315,1.30994-4.53638,2.96326
		c2.28394-0.99841,4.94147-2.04272,7.40857-2.3493c1.91974-0.23859,2.16669-0.30444,3.96326-1.1546
		c2.60986-1.23505,3.00195-3.44843,6.15417-5.7196c1.24707-0.89844,3.50848-2.92523,4.42853-3.13916
		c0.49835,1.0481-2.27124,6.16821-2.98242,6.87067c-1.15082,1.13666-4.29279,2.37451-4.27979,4.60773
		c0.86859-0.04913,2.18817-1.52472,4.97754-2.6347c1.45892-0.58051,1.98718-2.68701,3.13721-4.08398
		c0.42938,0.48114,0.76984,2.39734,0.76868,2.65204c-0.00592,1.33521-0.52173,3.72595-1.16376,4.81866
		c-0.62372,1.0614-3.20203,2.51959-3.41235,3.04932c-0.38977,0.98163,0.13495,1.0459,0.77313,1.14301
		c0.97949-0.64374,2.40491-1.70953,2.70673-2.11194c0.35394-0.47186,2.27258-4.50775,2.60449-5.54749
		c0.50867-1.59332-0.95575-8.94159,0.97504-9.95965c0.1601-0.08435,0.30255-0.16394,0.4325-0.24023
		c1.62573-0.50226,3.00513-0.76099,3.76355-0.6192c1.20166,0.22461,5.72858,3.41559,7.55908,4.67352
		c-0.12225,0.08856-0.23999,0.1712-0.34271,0.23773c-0.94214,0.61047-2.89349,2.56506-2.08276,2.98083
		c1.22021,0.62579,1.13025,0.20343,1.91638-0.17358c0.39526-0.18951,0.97717-0.09705,1.65515-0.58801
		c0.84332-0.61066,1.90717-0.401,1.8634-0.12219c-0.15155,0.96539-0.2984,2.08813-1.95294,2.3667
		c-1.28625,0.03033-1.7395,1.72961-3.50439,2.68555c-1.80511,0.97778-0.18842,1.76831,0.69562,1.34717
		c1.13641-0.54144,1.25354,0.57117,2.38409,0.12787c1.89386-0.74249,2.47681-1.29486,2.47681-1.12976
		c0,1.11603,0.18115,2.88098-3.10895,3.42236c-2.05701,0.3385-2.05762,2.89154-3.24451,3.63165
		c-0.7124,0.44421,0.4762,1.79169,1.52814,1.23645c0.66888-0.35297,1.35291-0.90192,2.25482-0.84552
		c1.06696,0.06665,1.40375-0.42529,2.44568-0.75305c0.16724-0.05261,0.12775,0.85016-0.32373,1.19141
		c-0.22003,0.16626-0.37634,0.06378-1.18469,0.42932c-0.43097,0.19489-0.81708,1.10547-1.76862,1.13251
		c-1.24908,0.03546-2.35522,1.00195-2.97028,1.51758c-1.20862,1.01324-0.79187,1.94971,0.11688,1.5163
		c2.77942-1.32562,5.75146-1.07526,6.26172-1.50916c0.10413-0.0885,0.15277,1.05719-0.28186,1.23877
		c-1.12024,0.46796-3.93884,1.12689-4.52362,1.2959c-1.74573,0.50452-4.5658,2.66742-3.46442,3.41577
		c0.85834,0.58325,3.42889-0.88428,3.66968-0.38043c0.32202,0.67371-1.97198,1.37177-0.1333,2.28595
		c1.05341,0.5238,3.51727-1.68713,4.80469-1.61011c0,0-0.00232,2.99664-0.00366,5.21008
		c-2.84167-0.90491-7.23846-3.18933-14.95557-2.96033c-5.61658,0.16669-11.93085-2.03656-13.27264-4.48236
		c-0.68048-1.24054,0.25781-2.97681,1.52887-3.53992c0.70905-0.31409-3.0954-2.89563-6.42139-2.47821
		c-2.67542,0.33575-7.48285,2.11755-9.85193-1.17255C2.64027,40.32263,3.05989,30.05597,3.51057,19.28784z M63.8094,55.17505
		c-0.77246,6.94141-1.06201,9.53857-7.09375,10.00488c-2.39124,0.18475-4.84509,0.36005-7.33221,0.51825v-5.49475
		c0.35895-0.05591,1.22406-0.06433,2.1214,0.37408c4.61548,2.25458,3.41956,0.26617,4.75305,0.40411
		c1.4021,0.14502,0.61359-1.5199-2.24109-2.24164c-1.40186-0.35437-4.92499-1.46613-4.57227-3.16748
		c0,0,0.49402,0.71436,2.76691,0.36749c0.80469-0.1228,1.29071-0.33807,2.68939,0.37512
		c0.84521,0.43097,3.67139-0.98016,1.93677-1.91718c-0.81818-0.44196-1.33179-0.19928-2.08978-0.57404
		c-0.72876-0.36035-1.46063-1.2804-4.00269-1.6524c-1.0249-0.14996-1.27722-1.43011-1.13068-1.43152
		c0.74005-0.00665,0.28424,0.23346,2.19818,0.4303c0.52911,0.0545,1.69696-0.48578,2.20648-0.43036
		c1.35065,0.14679,2.18884,0.59698,2.39954,0.26294c0.45856-0.72693-0.81049-2.33282-3.35278-2.59674
		c-1.26428-0.13129-2.27124-0.65387-3.0246-1.21942c-0.60675-0.45551-0.54962-1.2948-0.45789-1.23889
		c0.89526,0.54492,3.46985,1.35815,2.35864-0.29126c-0.21625-0.32098,1.57764,0.67621,2.79919,1.08325
		c1.46655,0.48871,1.47845-1.53101-0.75903-2.73615c-0.55408-0.2984-1.00104-1.64844-2.41858-1.77795
		c-0.77148-0.0705-1.84186-0.99066-1.91913-1.26263c-0.09753-0.34302-0.21405-0.93036,0.05334-0.91785
		c0.04004,0.02924,0.07953,0.06567,0.11981,0.09192c0.87256,0.56854,6.39105,3.4986,7.41412,3.95856
		c1.92065,0.86353,1.62524,1.32281,3.00903,2.50336c0.88324,0.75342,3.12799,1.87054,4.06903,3.04376
		c-0.09106,1.47687-0.21533,3.00232-0.39935,4.62842L63.8094,55.17505z"/>
</g>
<g>
	<path class="st0" d="M96.59123,35.82183c-1.68945,2.14551-4.4668,3.37598-7.21094,3.37598
		c-5.27539,0-9.49609-3.5166-9.49609-8.96875c0-5.45117,4.2207-8.96875,9.49609-8.96875c4.92383,0,8.01953,3.51758,8.01953,8.96875
		v1.65332H85.15959c0.42188,2.00488,1.93555,3.30566,3.97461,3.30566c1.72266,0,2.88477-0.87891,3.76367-2.0752L96.59123,35.82183z
		 M92.12444,28.29449c0.03516-1.75781-1.33789-3.23535-3.23633-3.23535c-2.32031,0-3.58789,1.58301-3.72852,3.23535H92.12444z"/>
	<path class="st0" d="M97.57756,21.68218h5.69922L107.601,33.2896h0.07227l4.00781-11.60742h5.3125l-6.75391,17.09375h-5.5918
		L97.57756,21.68218z"/>
	<path class="st0" d="M133.81389,35.82183c-1.68945,2.14551-4.4668,3.37598-7.21094,3.37598
		c-5.27539,0-9.49609-3.5166-9.49609-8.96875c0-5.45117,4.2207-8.96875,9.49609-8.96875c4.92383,0,8.01953,3.51758,8.01953,8.96875
		v1.65332h-12.24023c0.42188,2.00488,1.93555,3.30566,3.97461,3.30566c1.72266,0,2.88477-0.87891,3.76367-2.0752L133.81389,35.82183
		z M129.34709,28.29449c0.03516-1.75781-1.33789-3.23535-3.23633-3.23535c-2.32031,0-3.58789,1.58301-3.72852,3.23535H129.34709z"/>
	<path class="st0" d="M137.12248,21.68218h5.27539v2.74414h0.07031c1.125-2.0752,2.60156-3.16602,4.92383-3.16602
		c0.59766,0,1.26562,0.03516,1.75781,0.17578v4.81836c-0.73828-0.21094-1.47656-0.35156-2.25-0.35156
		c-4.00977,0-4.50195,2.32129-4.50195,5.7334v7.13965h-5.27539V21.68218z"/>
	<path class="st0" d="M169.02483,37.33355c0,6.43652-3.27148,9.88379-9.88477,9.88379c-3.02344,0-6.11914-0.52734-8.58008-2.49707
		l2.91797-4.36133c1.61914,1.37109,3.41211,2.21582,5.55664,2.21582c3.20117,0,4.71289-1.75879,4.71289-4.18555v-1.65332h-0.07031
		c-1.19531,1.65332-3.23438,2.25098-4.81836,2.25098c-5.06445,0-8.4043-3.6582-8.4043-8.82812
		c0-4.53711,2.95312-8.89844,7.80664-8.89844c2.99023,0,5.0293,1.44238,5.83984,2.67285h0.07031v-2.25098h4.85352V37.33355z
		 M159.95061,34.34429c2.39062,0,4.2207-2.00488,4.2207-4.2207s-1.83008-4.2207-4.2207-4.2207
		c-2.39258,0-4.2207,2.00488-4.2207,4.2207S157.55803,34.34429,159.95061,34.34429z"/>
	<path class="st0" d="M172.01701,21.68218h5.27539v2.74414h0.07031c1.125-2.0752,2.60156-3.16602,4.92383-3.16602
		c0.59766,0,1.26562,0.03516,1.75781,0.17578v4.81836c-0.73828-0.21094-1.47656-0.35156-2.25-0.35156
		c-4.00977,0-4.50195,2.32129-4.50195,5.7334v7.13965h-5.27539V21.68218z"/>
	<path class="st0" d="M201.94865,35.82183c-1.6875,2.14551-4.4668,3.37598-7.20898,3.37598
		c-5.27734,0-9.49609-3.5166-9.49609-8.96875c0-5.45117,4.21875-8.96875,9.49609-8.96875c4.92383,0,8.01758,3.51758,8.01758,8.96875
		v1.65332h-12.23828c0.42188,2.00488,1.93359,3.30566,3.97461,3.30566c1.72266,0,2.88281-0.87891,3.76172-2.0752L201.94865,35.82183
		z M197.48186,28.29449c0.03516-1.75781-1.33594-3.23535-3.23438-3.23535c-2.32227,0-3.58789,1.58301-3.72852,3.23535H197.48186z"/>
	<path class="st0" d="M221.61272,35.82183c-1.68945,2.14551-4.4668,3.37598-7.21094,3.37598
		c-5.27539,0-9.49609-3.5166-9.49609-8.96875c0-5.45117,4.2207-8.96875,9.49609-8.96875c4.92383,0,8.01953,3.51758,8.01953,8.96875
		v1.65332h-12.24023c0.42188,2.00488,1.93555,3.30566,3.97461,3.30566c1.72266,0,2.88477-0.87891,3.76367-2.0752L221.61272,35.82183
		z M217.14592,28.29449c0.03516-1.75781-1.33789-3.23535-3.23633-3.23535c-2.32031,0-3.58789,1.58301-3.72852,3.23535H217.14592z"/>
	<path class="st0" d="M225.27873,21.68218h5.06445v2.32129h0.07031c0.70312-1.33594,2.42773-2.74316,4.99414-2.74316
		c5.34766,0,6.33203,3.51758,6.33203,8.08984v9.42578h-5.27539v-8.37109c0-1.96973-0.03516-4.50195-2.74414-4.50195
		c-2.74414,0-3.16602,2.14551-3.16602,4.36133v8.51172h-5.27539V21.68218z"/>
</g>
<g>
	<path class="st1" d="M85.62346,56.89909c3.18359,0,5.50293,2.08887,5.50293,5.35938c0,3.26953-2.31934,5.35742-5.50293,5.35742
		s-5.50293-2.08789-5.50293-5.35742C80.12053,58.98796,82.43987,56.89909,85.62346,56.89909z M85.62346,65.54166
		c1.91602,0,3.16895-1.38281,3.16895-3.2832c0-1.90234-1.25293-3.28516-3.16895-3.28516s-3.16895,1.38281-3.16895,3.28516
		C82.45451,64.15885,83.70744,65.54166,85.62346,65.54166z"/>
	<path class="st1" d="M93.89592,57.15886h2.24805v8.12402h4.16211v2.07422h-6.41016V57.15886z"/>
	<path class="st1" d="M103.85295,63.00651l-3.83203-5.84766h2.79492l2.16016,3.81738l2.29004-3.81738h2.66504l-3.83203,5.84766
		v4.35058h-2.24609V63.00651z"/>
	<path class="st1" d="M111.99944,57.15886h3.39941l2.34766,6.6543h0.0293l2.3623-6.6543h3.38477v10.19824h-2.24707v-7.82129
		h-0.02832l-2.67969,7.82129h-1.71387l-2.5791-7.82129h-0.02832v7.82129h-2.24707V57.15886z"/>
	<path class="st1" d="M126.79045,57.15886h3.78809c2.11816,0,3.875,0.67676,3.875,3.09668c0,2.3916-1.62793,3.12598-3.77441,3.12598
		h-1.6416v3.97558h-2.24707V57.15886z M129.03752,61.48014h1.49805c0.79199,0,1.58496-0.27344,1.58496-1.22461
		c0-1.05176-1.06641-1.19531-1.93066-1.19531h-1.15234V61.48014z"/>
	<path class="st1" d="M136.83733,57.15886h2.24805v10.19824h-2.24805V57.15886z"/>
	<path class="st1" d="M145.66838,57.15886h1.8584l4.43555,10.19824h-2.53516l-0.87793-2.16113h-3.96191l-0.84961,2.16113h-2.47754
		L145.66838,57.15886z M146.53264,60.12565l-1.23926,3.16992h2.49219L146.53264,60.12565z"/>
	<path class="st1" d="M154.42969,65.02409h2.07422l-1.2959,4.06152h-1.84375L154.42969,65.02409z"/>
	<path class="st1" d="M160.30554,57.15886h2.44922l1.62793,6.53906h0.02832l2.13184-6.53906h2.08887l2.11719,6.71289h0.0293
		l1.71387-6.71289h2.27637l-2.98242,10.19824h-2.00195l-2.24707-7.05761h-0.02832l-2.24805,7.05761h-1.92969L160.30554,57.15886z"/>
	<path class="st1" d="M179.59363,57.15886h1.8584l4.43555,10.19824h-2.53516l-0.87793-2.16113h-3.96191l-0.84961,2.16113h-2.47754
		L179.59363,57.15886z M180.45789,60.12565l-1.23926,3.16992h2.49219L180.45789,60.12565z"/>
	<path class="st1" d="M193.35632,59.65104c-0.35938-0.46094-1.08008-0.67773-1.62695-0.67773
		c-0.63379,0-1.5127,0.28906-1.5127,1.05176c0,1.8584,4.69629,0.66309,4.69629,4.23535c0,2.27539-1.83008,3.35547-3.93262,3.35547
		c-1.31152,0-2.46387-0.38867-3.42871-1.28125l1.59961-1.75781c0.46094,0.60547,1.20898,0.96484,1.95898,0.96484
		c0.73438,0,1.55469-0.3457,1.55469-1.06543c0-1.87207-4.78125-0.86425-4.78125-4.26367c0-2.1748,1.88672-3.31348,3.88867-3.31348
		c1.15234,0,2.26172,0.30273,3.12598,1.06641L193.35632,59.65104z"/>
	<path class="st1" d="M197.69812,57.15886h2.24707v3.80273h4.36426v-3.80273h2.24707v10.19824h-2.24707v-4.40722h-4.36426v4.40722
		h-2.24707V57.15886z"/>
	<path class="st1" d="M209.79578,57.15886h2.24609v10.19824h-2.24609V57.15886z"/>
	<path class="st1" d="M215.2616,57.15886h3.05371l4.33594,7.08691h0.02832v-7.08691h2.24707v10.19824h-2.93848l-4.4502-7.25976
		h-0.0293v7.25976h-2.24707V57.15886z"/>
	<path class="st1" d="M237.4364,66.63737c-1.3252,0.69141-2.78027,0.97852-4.27832,0.97852
		c-3.18359,0-5.50293-2.08789-5.50293-5.35742c0-3.27051,2.31934-5.35938,5.50293-5.35938
		c1.61328,0,3.03906,0.36035,4.06152,1.31152l-1.58398,1.72852c-0.60547-0.63379-1.33984-0.96582-2.47754-0.96582
		c-1.91602,0-3.16895,1.38281-3.16895,3.28516c0,1.90039,1.25293,3.2832,3.16895,3.2832c0.97949,0,1.7002-0.27344,2.11719-0.50391
		v-1.65625h-1.8291v-2.07422h3.99023V66.63737z"/>
	<path class="st1" d="M242.44812,59.14714h-2.91016v-1.98828h8.06641v1.98828h-2.90918v8.20996h-2.24707V59.14714z"/>
	<path class="st1" d="M254.71277,56.89909c3.18359,0,5.50293,2.08887,5.50293,5.35938c0,3.26953-2.31934,5.35742-5.50293,5.35742
		s-5.50293-2.08789-5.50293-5.35742C249.20984,58.98796,251.52917,56.89909,254.71277,56.89909z M254.71277,65.54166
		c1.91602,0,3.16895-1.38281,3.16895-3.2832c0-1.90234-1.25293-3.28516-3.16895-3.28516s-3.16895,1.38281-3.16895,3.28516
		C251.54382,64.15885,252.79675,65.54166,254.71277,65.54166z"/>
	<path class="st1" d="M262.94421,57.15886h3.05371l4.33594,7.08691h0.02832v-7.08691h2.24707v10.19824h-2.93848l-4.45117-7.25976
		h-0.02832v7.25976h-2.24707V57.15886z"/>
</g>
</svg>
