<?xml version="1.0" encoding="utf-8"?><svg version="1.1" xmlns="http://www.w3.org/2000/svg" xmlns:xlink="http://www.w3.org/1999/xlink" x="0" y="0" viewBox="0 0 1000 134" preserveAspectRatio="xMinYMin meet" xml:space="preserve"><g fill="#010101"><path d="M123.028 29.59v-7.435h7.212v-10.13h8.753v10.13h9.624v7.436h-9.624V44.91c0 3.505 1.013 5.693 4.882 5.693 1.54 0 3.647-.283 4.742-1.093v7.375c-1.823.87-4.883 1.175-6.93 1.175-9.26 0-11.447-4.154-11.447-12.4V29.613h-7.212v-.02zM164.238 27.04h.142c1.378-2.918 4.883-5.756 10.292-5.756 9.4 0 12.764 6.646 12.764 13.778v22.104h-8.752V39.438c0-3.87-.284-10.292-6.423-10.292-5.752 0-8.022 4.234-8.022 8.895v19.106h-8.752V2.016h8.752V27.04zM200.707 42.72c.588 5.187 4.518 8.307 9.4 8.307 4.376 0 7.212-2.046 9.4-4.74l6.282 4.74c-4.094 5.024-9.26 7.01-14.812 7.01-10.576 0-19.024-7.375-19.024-18.376 0-11.02 8.468-18.376 19.024-18.376 9.766 0 16.41 6.85 16.41 19.045v2.41h-26.682v-.02zm17.93-6.564c-.08-5.106-3.424-8.307-8.895-8.307-5.187 0-8.388 3.28-9.036 8.306h17.93zM256.868 42.72c.587 5.187 4.518 8.307 9.4 8.307 4.377 0 7.214-2.046 9.402-4.74l6.28 4.74c-4.092 5.024-9.26 7.01-14.81 7.01-10.576 0-19.025-7.375-19.025-18.376 0-11.02 8.47-18.376 19.025-18.376 9.765 0 16.41 6.85 16.41 19.045v2.41h-26.683v-.02zm17.93-6.564c-.08-5.106-3.423-8.307-8.893-8.307-5.187 0-8.388 3.28-9.037 8.306h17.93zM283.328 22.156h9.563l9.34 24.496h.143l9.4-24.496h8.976l-13.78 35.01h-9.34l-14.302-35.01zM329.22 42.72c.585 5.187 4.517 8.307 9.4 8.307 4.376 0 7.212-2.046 9.4-4.74l6.28 4.74c-4.092 5.024-9.26 7.01-14.81 7.01-10.576 0-19.024-7.375-19.024-18.376 0-11.02 8.47-18.376 19.024-18.376 9.765 0 16.41 6.85 16.41 19.045v2.41H329.22v-.02zm17.928-6.564c-.08-5.106-3.424-8.307-8.894-8.307-5.187 0-8.388 3.28-9.036 8.306h17.93zM361.533 22.156h8.752v5.552h.143c1.904-4.01 5.753-6.423 10.353-6.423 1.095 0 2.108.224 3.142.506v8.47c-1.46-.365-2.837-.648-4.235-.648-8.246 0-9.4 6.93-9.4 8.833v18.74h-8.753v-35.03zM423.652 22.156v31.87c0 12.622-6.12 20.645-19.754 20.645-6.484 0-12.4-1.376-17.364-5.753l5.248-7.15c3.505 3.2 7.15 5.023 12.035 5.023 8.47 0 11.082-4.822 11.082-11.75v-2.553h-.142c-2.553 3.424-7.07 5.106-11.447 5.106-10.494 0-17.423-8.024-17.423-17.93 0-10.355 6.483-18.378 17.282-18.378 4.88 0 9.48 1.905 12.034 6.12h.142v-5.248h8.306zM394.64 39.58c0 5.552 4.375 10.13 10.29 10.13 6.485 0 10.435-4.458 10.435-10.292 0-6.058-4.012-10.292-10.353-10.292-6.138.02-10.373 4.254-10.373 10.454zM429.143 22.156h8.752v5.552h.142c1.904-4.01 5.754-6.423 10.353-6.423 1.094 0 2.107.224 3.14.506v8.47c-1.458-.365-2.836-.648-4.234-.648-8.246 0-9.4 6.93-9.4 8.833v18.74h-8.753v-35.03zM462.33 42.72c.586 5.187 4.517 8.307 9.4 8.307 4.376 0 7.213-2.046 9.4-4.74l6.28 4.74c-4.092 5.024-9.258 7.01-14.81 7.01-10.575 0-19.024-7.375-19.024-18.376 0-11.02 8.468-18.376 19.024-18.376 9.766 0 16.41 6.85 16.41 19.045v2.41H462.33v-.02zm17.93-6.564c-.08-5.106-3.424-8.307-8.895-8.307-5.187 0-8.388 3.28-9.036 8.306h17.93zM501.998 42.72c.59 5.187 4.52 8.307 9.402 8.307 4.376 0 7.214-2.046 9.4-4.74l6.28 4.74c-4.093 5.024-9.26 7.01-14.81 7.01-10.576 0-19.024-7.375-19.024-18.376 0-11.02 8.468-18.376 19.023-18.376 9.766 0 16.41 6.85 16.41 19.045v2.41h-26.684v-.02zm17.932-6.564c-.08-5.106-3.425-8.307-8.894-8.307-5.188 0-8.39 3.28-9.038 8.306h17.932zM534.09 22.156h8.31v5.612h.14c1.603-3.505 4.883-6.484 10.72-6.484 9.4 0 12.764 6.646 12.764 13.778v22.104h-8.754V39.438c0-3.87-.282-10.292-6.422-10.292-5.754 0-8.023 4.234-8.023 8.895v19.106h-8.753v-34.99h.018zM608.913 31.86c-1.682-2.33-3.87-3.565-6.848-3.565-2.33 0-5.104 1.094-5.104 3.73 0 6.28 18.882 1.174 18.882 14.81 0 8.306-7.94 11.224-15.094 11.224-5.39 0-10.07-1.38-13.637-5.39l5.838-5.472c2.268 2.472 4.6 4.295 8.306 4.295 2.553 0 5.837-1.235 5.837-4.01 0-7.214-18.882-1.54-18.882-14.872 0-7.8 7.008-11.304 14.08-11.304 4.66 0 9.622 1.46 12.48 5.328l-5.855 5.227zM618.557 29.59v-7.435h7.214v-10.13h8.752v10.13h9.624v7.436h-9.624V44.91c0 3.505 1.014 5.693 4.883 5.693 1.54 0 3.646-.283 4.74-1.093v7.375c-1.82.87-4.883 1.175-6.928 1.175-9.258 0-11.446-4.154-11.446-12.4V29.613h-7.213v-.02zM672.876 52.344h-.224c-2.47 3.93-6.564 5.693-11.225 5.693-6.483 0-12.764-3.565-12.764-10.496 0-11.384 13.27-12.175 22.023-12.175h2.188v-.952c0-4.295-3.363-6.565-8.023-6.565-3.647 0-7.01 1.458-9.34 3.646l-4.6-4.598c3.87-3.932 9.34-5.613 14.873-5.613 14.95 0 14.95 10.8 14.95 15.763v20.118h-7.88v-4.822h.023zm-.507-10.86h-1.825c-4.82 0-13.127.365-13.127 5.39 0 3.2 3.28 4.6 6.117 4.6 5.978 0 8.834-3.142 8.834-8.024v-1.966zM685.354 29.59v-7.435h7.214v-10.13h8.753v10.13h9.625v7.436h-9.624V44.91c0 3.505 1.015 5.693 4.883 5.693 1.54 0 3.648-.283 4.742-1.093v7.375c-1.824.87-4.883 1.175-6.93 1.175-9.26 0-11.447-4.154-11.447-12.4V29.613h-7.214v-.02zM724.823 42.72c.587 5.187 4.52 8.307 9.4 8.307 4.376 0 7.213-2.046 9.4-4.74l6.28 4.74c-4.09 5.024-9.26 7.01-14.81 7.01-10.576 0-19.025-7.375-19.025-18.376 0-11.02 8.47-18.376 19.026-18.376 9.764 0 16.41 6.85 16.41 19.045v2.41H724.82v-.02zm17.93-6.564c-.08-5.106-3.423-8.307-8.894-8.307-5.188 0-8.39 3.28-9.037 8.306h17.93zM797.902 32.65c-2.047-2.106-4.295-3.504-6.646-3.504-6.423 0-10.292 5.024-10.292 10.494s3.87 10.496 10.292 10.496c2.694 0 5.186-1.175 6.786-3.283l5.835 6.28c-3.565 3.567-9.562 4.884-12.62 4.884-10.576 0-19.025-7.375-19.025-18.377 0-11.02 8.47-18.375 19.024-18.375 4.458 0 9.34 1.6 12.683 5.328L797.9 32.65zM825.68 21.284c10.575 0 19.023 7.375 19.023 18.377 0 11.022-8.448 18.377-19.023 18.377-10.577 0-19.025-7.375-19.025-18.376 0-11.02 8.448-18.376 19.025-18.376zm0 28.87c6.422 0 10.293-5.022 10.293-10.493s-3.87-10.494-10.293-10.494-10.293 5.024-10.293 10.495c.02 5.472 3.89 10.495 10.293 10.495zM849.545 2.017h8.753v55.128h-8.753V2.017zM868.205 2.017h8.753v55.128h-8.753V2.017zM891.403 42.72c.588 5.187 4.52 8.307 9.402 8.307 4.374 0 7.212-2.046 9.4-4.74l6.28 4.74c-4.093 5.024-9.26 7.01-14.81 7.01-10.576 0-19.024-7.375-19.024-18.376 0-11.02 8.45-18.376 19.024-18.376 9.767 0 16.41 6.85 16.41 19.045v2.41H891.4v-.02zm17.932-6.564c-.08-5.106-3.425-8.307-8.896-8.307-5.187 0-8.388 3.28-9.037 8.306h17.932zM959.883 22.156v31.87c0 12.622-6.117 20.645-19.754 20.645-6.482 0-12.398-1.376-17.362-5.753l5.247-7.15c3.504 3.2 7.152 5.023 12.035 5.023 8.47 0 11.082-4.822 11.082-11.75v-2.553h-.143c-2.553 3.424-7.072 5.106-11.447 5.106-10.496 0-17.425-8.024-17.425-17.93 0-10.355 6.483-18.378 17.283-18.378 4.884 0 9.482 1.905 12.034 6.12h.143v-5.248h8.306zm-29.03 17.424c0 5.552 4.374 10.13 10.29 10.13 6.483 0 10.435-4.458 10.435-10.292 0-6.058-4.01-10.292-10.354-10.292-6.138.02-10.372 4.254-10.372 10.454zM973.317 42.72c.588 5.187 4.517 8.307 9.4 8.307 4.376 0 7.212-2.046 9.4-4.74l6.28 4.74c-4.093 5.024-9.26 7.01-14.81 7.01-10.576 0-19.024-7.375-19.024-18.376 0-11.02 8.448-18.376 19.023-18.376 9.767 0 16.412 6.85 16.412 19.045v2.41h-26.683v-.02zm17.93-6.564c-.08-5.106-3.425-8.307-8.894-8.307-5.188 0-8.39 3.28-9.036 8.306h17.93z"/></g><g fill="#010101"><path d="M140.797 86.04c8.853 0 15.823 6.968 15.823 15.638 0 8.674-6.97 15.642-15.823 15.642-8.854 0-15.823-6.968-15.823-15.642 0-8.67 6.97-15.64 15.823-15.64zm0 26.013c6.038 0 9.806-4.337 9.806-10.375 0-6.035-3.768-10.372-9.806-10.372-6.04 0-9.807 4.337-9.807 10.372 0 6.038 3.79 10.375 9.807 10.375zM160.773 69.08h5.653v47.492h-5.653V69.08zM170.76 86.787h6.525l8.854 23.24h.12l8.41-23.24h6.097l-14.12 36.188c-2.007 5.145-3.952 8.67-10.172 8.67-1.702 0-3.464-.182-5.024-.812l.69-5.144c1.074.44 2.27.687 3.382.687 3.586 0 4.64-1.947 5.774-4.903l1.823-4.72-12.36-29.967zM205.124 86.787h5.267v4.642h.123c.568-1.766 4.214-5.41 9.542-5.41 4.396 0 7.416 1.883 9.3 5.527 1.945-3.645 5.835-5.527 9.42-5.527 9.18 0 11.307 6.52 11.307 13.188v17.344h-5.653V99.956c0-4.52-.933-8.67-6.403-8.67s-7.598 3.708-7.598 8.975v16.27h-5.654v-15.58c0-5.65-.81-9.663-6.28-9.663-4.094 0-7.72 3.078-7.72 9.806v15.46h-5.652V86.787zM255.794 86.787h5.653v4.277h.122c2.187-3.2 6.34-5.025 10.373-5.025 9.238 0 15.134 6.845 15.134 15.638 0 8.915-5.977 15.642-15.134 15.642-4.275 0-8.347-1.942-10.374-5.025h-.123v21.986h-5.653V86.788zm5.653 14.89c0 6.04 3.768 10.376 9.806 10.376s9.807-4.337 9.807-10.375c0-6.035-3.77-10.372-9.807-10.372s-9.806 4.337-9.806 10.372zM295.87 71.98c2.27 0 4.153 1.883 4.153 4.15 0 2.27-1.885 4.154-4.154 4.154-2.27 0-4.154-1.884-4.154-4.155 0-2.267 1.885-4.15 4.153-4.15zm-2.816 14.807h5.653v29.785h-5.653V86.787zM306.546 90.436c3.14-2.96 7.66-4.396 11.812-4.396 8.794 0 12.44 4.78 12.44 9.928v15.195c0 2.066.06 3.827.243 5.41h-5.023c-.122-1.5-.183-3.02-.183-4.52h-.122c-2.512 3.83-5.896 5.267-10.434 5.267-5.53 0-10.292-3.142-10.292-8.915 0-7.657 7.355-10.292 16.392-10.292h4.153V96.84c0-3.08-2.27-6.28-7.09-6.28-4.336 0-6.402 1.82-8.49 3.383l-3.404-3.507zm15.966 11.81c-5.35 0-11.873.93-11.873 5.715 0 3.385 2.512 4.84 6.4 4.84 6.282 0 8.49-4.637 8.49-8.67v-1.883h-3.018zM339.59 124.858h-5.145l4.336-15.46h6.1l-5.29 15.46zM348.243 86.787h6.34l6.728 22.246h.123l7.09-22.246h5.978l7.538 22.246h.122l6.4-22.246h5.978l-9.603 29.785h-5.714l-7.86-22.247h-.122l-7.09 22.247h-6.1l-9.805-29.785zM398.063 90.436c3.14-2.96 7.658-4.396 11.81-4.396 8.794 0 12.44 4.78 12.44 9.928v15.195c0 2.066.063 3.827.245 5.41h-5.024c-.122-1.5-.182-3.02-.182-4.52h-.122c-2.513 3.83-5.896 5.267-10.435 5.267-5.53 0-10.292-3.142-10.292-8.915 0-7.657 7.354-10.292 16.39-10.292h4.153V96.84c0-3.08-2.27-6.28-7.09-6.28-4.336 0-6.402 1.82-8.49 3.383l-3.403-3.507zm15.945 11.81c-5.348 0-11.873.93-11.873 5.715 0 3.385 2.513 4.84 6.403 4.84 6.28 0 8.49-4.637 8.49-8.67v-1.883h-3.02zM445.35 94.266c-1.316-1.643-3.26-2.96-6.098-2.96-2.633 0-4.963 1.195-4.963 3.324 0 3.585 5.084 4.092 7.597 4.638 4.903 1.195 8.67 3.078 8.67 8.674 0 6.724-6.158 9.358-12.053 9.358-4.904 0-8.55-1.254-11.49-5.267l4.277-3.525c1.824 1.824 3.95 3.525 7.233 3.525 2.897 0 6.038-1.195 6.038-3.77 0-3.384-4.72-4.01-7.15-4.58-4.843-1.194-9.117-2.753-9.117-8.487 0-6.22 5.713-9.176 11.305-9.176 3.95 0 8.043 1.377 10.17 4.902l-4.417 3.344zM456.09 69.08h5.65v22.305h.123c1.438-3.138 5.206-5.326 9.806-5.326 5.773 0 10.798 3.462 10.798 11.364v19.168h-5.653V99.006c0-5.595-3.2-7.66-6.787-7.66-4.72 0-8.287 3.02-8.287 9.928v15.338h-5.65V69.08zM491.14 71.98c2.27 0 4.153 1.883 4.153 4.15 0 2.27-1.884 4.154-4.153 4.154-2.27 0-4.154-1.884-4.154-4.155 0-2.267 1.884-4.15 4.154-4.15zm-2.838 14.807h5.653v29.785h-5.653V86.787zM499.81 86.787h5.655v4.578h.12c1.438-3.138 5.206-5.326 9.806-5.326 5.776 0 10.8 3.46 10.8 11.363v19.17h-5.652v-17.59c0-5.592-3.2-7.658-6.786-7.658-4.722 0-8.286 3.02-8.286 9.93v15.337h-5.654V86.787zM563.003 116.326c0 8.976-6.523 15.338-16.27 15.338-5.65 0-10.372-1.437-14.566-5.35l3.828-4.78c2.958 3.142 6.282 4.844 10.617 4.844 8.43 0 10.737-5.268 10.737-10.293v-4.396h-.183c-2.127 3.585-6.22 5.267-10.292 5.267-8.733 0-15.195-6.604-15.135-15.278 0-8.794 5.916-15.64 15.135-15.64 4.012 0 8.165 1.824 10.373 5.025h.12v-4.277h5.655v29.54h-.02zm-25.265-14.648c0 6.038 3.768 9.99 9.806 9.99 6.04 0 9.806-3.952 9.806-9.99 0-6.035-3.767-10.372-9.806-10.372-6.038 0-9.806 4.337-9.806 10.372zM586.85 91.69h-8.103v13.513c0 3.324 0 6.85 4.273 6.85 1.318 0 2.896-.182 4.013-.87v5.144c-1.317.752-3.95 1.014-5.085 1.014-8.733 0-8.855-5.346-8.855-10.11V91.71h-6.52v-4.903h6.52V78.46h5.654v8.347h8.104v4.882zM606.462 86.04c8.854 0 15.822 6.968 15.822 15.638 0 8.674-6.97 15.642-15.822 15.642-8.854 0-15.825-6.968-15.825-15.642-.02-8.67 6.95-15.64 15.825-15.64zm0 26.013c6.038 0 9.806-4.337 9.806-10.375 0-6.035-3.768-10.372-9.806-10.372-6.04 0-9.806 4.337-9.806 10.372 0 6.038 3.767 10.375 9.806 10.375zM627.797 86.787h5.652v4.578h.12c1.438-3.138 5.207-5.326 9.806-5.326 5.775 0 10.8 3.46 10.8 11.363v19.17h-5.654v-17.59c0-5.592-3.2-7.658-6.786-7.658-4.72 0-8.286 3.02-8.286 9.93v15.337h-5.652V86.787z"/></g><path fill="#231F20" d="M86.397 110.755c-.75.526-2.958.59-3.242 1.396-.203.326.06.773-.062 1.098-.425 1.013-.992.85-.89 2.43.304.206.688.55.952.83h.628c.162-.26.364-.383.83-.383.203.2.628.546.893.648.91.305 1.195-.447 2.046-.245.73.162 1.62.324 2.35.57.244.08.81.344 1.155.24.527-.142.71-.767 1.135-.95.83-.387 2.167-.185 3.12-.387.83-.18 1.742.184 2.37.325.648-.04 1.317-.08 1.966-.122 1.013.226 1.742.81 2.877.83v-.06h.06c.02-.24-.04-.79.062-1.09.1-.286.283-.227.324-.694-.282-.222-.566-.626-.89-.77-.71-.304-1.4-.082-2.108-.264-.507-.183-1.013-.384-1.52-.566-.85-.24-1.642.772-1.783.63-.326-.143-.245-.305-.77-.325-.264-.162-.61.06-.892 0-.243-.04-1.013-.2-1.216-.324-.365-.22-.77-.81-.953-1.214-.02-.103-.042-.206-.062-.324-.122-.182-1.276-.708-1.54-.77-.202-.04-.486.102-.627.12-.364.08-.586 0-.89.124-.345.14-.83.73-1.52.507-.608-.206-.548-.935-.953-1.156-.202-.122-.526-.122-.85-.102M11.617 93.41c-.527.35-1.176.325-1.784.57-.385.162-.487.547-.77.768-.487.368-.953-.02-.953.895.526.143 1.033.143 1.54.324.243.08.587.385.83.443.406.123 1.48-.305 1.844-.384.14-.162.304-.344.445-.506.02-.61-.264-.73-.386-1.097-.162-.463.224-.768-.323-.95-.08-.062-.24-.062-.444-.062M65.73 81.44c-.06.586-.89.768-1.538.768.04-.79.85-.85 1.54-.768m-2.736-2.31c-.587.344-1.316.06-2.107.26-.974.247-2.21.39-3.12.772-.628.266-1.378.586-1.987.954-.526.324-.79 1.033-1.154 1.54-.062.078-1.44.708-1.602.767-.83.266-1.195-.546-1.54-.708h-1.54c-.526.305-1.297-.162-1.904 0-.75.202-1.763.285-2.492.566-1.297.507-2.492 1.544-3.83 2.026-.304.044-.587.083-.89.143-.386.122-.83.363-1.217.506-.445.162-.85.143-1.276.324-.69.305-1.236.895-2.046 1.076-.385.08-.872-.226-1.398-.063-.588.162-1.216.526-1.784.71-.405-.022-.81-.04-1.215-.06-.386 0-.628.06-.893.12-.547.022-1.114.04-1.66.06-.75.184-1.42.41-2.046.59l-2.432.12c-.466.122-1.175.284-1.66.388-.488.1-.832-.225-1.338-.062-.406.122-.81.427-1.216.57-1.013.344-2.127.423-3.12.83-.588.24-1.216.91-1.66 1.334-.022.692-.022 1.867.323 2.434.182.305.567.486.77.768.14.206.14.53.323.712.143.12.426.1.507.242.122.2-.06.384.122.506.162.104.344.04.506.123.183.1.325.364.506.443.506.205.85.205 1.397.388.628.182 1.318.526 1.966.708.567.143 1.216-.103 1.6-.202.913-.2 2.15.12 2.94.325.323.078.688-.064.95.058 1.44.748 3.1 1.48 4.397 2.41.365.266.588.65.892.954.203.2.527.284.77.447.426.3.73.85 1.155 1.15.607.427 1.357.934 2.046 1.22.872.363 2.128.117 2.938-.064h.893c.284-.06.872-.12 1.216-.202h1.093c.688-.162 1.5-.506 2.167-.63.89-.16 1.52.59 2.107.832.284.123.73.182.953.245.71.184 2.41-.02 2.877-.12.952-.203 1.965.402 3.12.12 1.054-.264 1.094-.894 1.783-1.277.425-.24.83-.162 1.073-.648.224-.384.082-.993.325-1.338.223-.324.73-.344.953-.645.264-.388-.142-.83.446-.954.304.424 1.013.143 1.6.305.305.08.65.384.892.566.183.142.163.426.325.564.1.103.304.044.385.206v.506c.062.14.344.325.446.443.404.486.587 1.194.952 1.72.08.124.263.163.385.266.67.63 1.278 1.156 2.048 1.722.445.324.445.77 1.216.83.1-.078.283-.06.385-.142.14-.1.363-.423.505-.565 1.114-.06 1.317.365 1.904.954.14.1.303.222.444.32.224.285.386.732.71.895.384.2 1.073-.123 1.52.06.1.04.283.265.384.323.385.222 1.013.447 1.398.566.506.16 1.317-.1 1.784 0 .526.102 1.336.973 2.107.446.324-.123 1.276-1.156 1.398-1.46.182-.443.162-2.877.06-3.32v-1.46c-.1-.404-.384-1.136-.323-1.662.202-1.397.263-3.28.627-4.84v-2.05c.304-1.417.304-3.08-.062-4.396-.162-.565-.02-1.313-.122-1.78-.06-.266.04-.57.06-.77.062-.73-.02-3.75-.263-4.133-.222-.364-1.7-.182-2.107-.245-.506-.1-.85-.526-1.276-.708-.466-.202-.932-.06-1.52-.183-.162-.04-.628-.144-.89-.06-.467.142-.608.506-1.156.585-.102-.122-.345-.143-.446-.26-.203-.247-.203-.63-.385-.896-.142-.1-.304-.203-.446-.302-1.398-.023-1.843.87-2.734 1.334-.587.305-1.054.284-1.784.506-.568.162-1.256.507-1.844.692-.244.04-.466.08-.71.14-1.155.486-2.35 1.154-3.382 1.784-.183.06-.385.142-.568.182-.85.526-2.148 1.278-3.565 1.013-.142-.242-.324-.63-.445-.89-.445-.975.143-1.358.71-1.723.18-.123.343-.345.566-.447 1.054-.447 2.817-.526 3.385-1.396.323-.507-.02-1.014.12-1.46.123-.364.73-1.156 1.014-1.338.648-.424 2.492-.123 2.612-1.013-.1-.08-.04-.06-.182-.123-.264-.223-1.258-.08-1.724-.08m16.31-1.013c-1.012.79-2.228 1.298-3.626 1.72-.628.184-1.256-.078-1.276.71h.12c.427.284 1.4.226 1.906.062 1.013-.285 3.505-1.22 3.625-2.232-.2-.222-.263-.28-.748-.26m4.01-5.473c-.262.79.264 1.582 0 2.35-.06.206-.364.368-.445.57-.082.65-.163 1.317-.263 1.986.12.626.465 1.196.505 1.782-.628.565-.406 1.44-.203 2.228.71.305 1.662.245 2.35.063.507-.123.932.08 1.338 0 .404-.083.73-.143 1.215-.246.425-.1 1.277-.344 1.784-.26.403.078.748.28 1.072.383.365.123.648-.02.953.123.263.14.526.423.89.506.548.138 1.338-.044 1.723-.123h.77c.467-.104.953-.183 1.602-.202.182 0 .405-.083.506-.063.142.02.364.266.507.325.81.305 2.27.142 2.795-.262.04-.063.04-.063.06-.182-.384-.183-1.072-.162-1.6-.246-.526-.87-1.236-1.377-2.046-1.986-.344-.383-.688-.767-1.013-1.15-.102-.023-.204-.043-.325-.063l-.324-.384c-.283-.162-.607-.143-.89-.324-.244-.163-.527-.404-.83-.508-.204-.02-.426-.04-.65-.06-.1-.043-.283-.225-.385-.245-.243-.08-.567.104-.71.063-.12-.043-.222-.324-.384-.388-.222-.02-.465-.04-.707-.06-.324-.122-.71-.467-1.074-.565-.204-.063-.467.04-.568.06-.385.04-.75-.143-1.094-.266-.487-.2-1.276-.806-1.722-1.15-.1-.123-.203-.266-.325-.388-.444-.28-1.416-.424-1.782-.688-.244-.262-.02-.567-.73-.63m-.446-13.594c-.122.344-.263.588-.182 1.013.83.203 1.195.953 2.046 1.094.04-.1.06-.203.06-.385-.08-.244-.16-.466-.242-.71-.263-.384-.77-.687-1.094-1.012h-.588zm-8.287 1.033v.263c.163.1.385.263.567.325.426.122.69-.202.892-.12.547.16 1.337.627 1.54 1.153.203.506.163.932.445 1.337.223.182.425.344.648.507.142.223.02.547.122.83.1.264.466.446.628.65h.323c.042-.143.063-.345.063-.57-.143-.262.06-.99.06-1.457l-.06-3.505c.1-.446.283-1.622 0-2.047-.08-.06-.162-.06-.325-.06-.324.466-1.013.607-1.48.952-.202.162-.222.365-.384.568-.567.81-1.54 1.175-3.04 1.175m-.444 0c-.04-.73-.628-.87-.708-1.722.304-.182.546-.546.586-1.012-1.053-.04-1.7.466-2.43.77-.447.183-.872.08-.892.71.223.04.344.202.506.262.466.143.87-.04 1.276.122.628.244.73.83 1.662.87m7.537-23.52c-.243.223-.385.182-.385.708.223.203.283.264.77.264.1-.203.142-.406.122-.77-.06-.062-.02-.02-.06-.123-.123-.058-.265-.08-.447-.08m.06-2.37h-.324c-.08.324-.122 1.378-.122 1.864.163.102.487.122.79.122.042-.122.062-.242.062-.445-.14-.182-.384-1.256-.405-1.54m-56.465-4.07c-.69 1.153-.223 2.592.445 3.504.406.547.953.973 1.722 1.154h.89c.102.04.285.224.386.263.628.245 1.418.306 2.047.447l1.094.06c.547.123 1.438.366 2.167.204.587-.14 1.094-.323 1.66-.444v-.264c-.647-.242-1.457-.445-2.167-.627-.486-.042-.972-.08-1.46-.122-.83-.244-1.6-.75-2.288-1.156-.245-.08-.467-.16-.71-.263-.506-.324-.972-.81-1.458-1.154-.224-.162-.466-.224-.71-.385-.546-.385-.79-1.176-1.62-1.216m54.622-2.494h.526c.062-.183.062-.487.062-.77-.062-.062-.244-.244-.284-.345-.102-.04-.102.163-.243.143-.08.264-.08.65-.06.973m-50.227-6.868c-1.135.912-3.73 1.58-3.708 3.505.182.222.365.648.445.953v1.073c.122.485.406 1.255.628 1.72.183.386 1.743 1.014 2.168 1.338.324.243.507 1.317.953 1.66.608.447 1.6.83 2.432 1.014.425.1.89-.223 1.216-.122.102.122.203.263.324.385.284.183.487.08.892.183.143.04.365.222.506.263.527.143 2.878-.424 3.242-.566.527-.223 1.196-.567 1.662-.892.223-.162.405-.486.627-.628.386-.122.77-.263 1.135-.385.223-.163.284-.548.506-.71.385-.263.892-.244 1.277-.507.467-.323.588-1.094.83-1.66.345-.832.913-1.5.447-2.675-.284-.122-.668-.203-.953-.386-.263-.16-.506-.486-.83-.567-.506-.142-1.074.122-1.398.182-.507.122-.77-.223-1.215-.122-.264.06-.587.305-1.012.183-.487-.122-1.237-.223-1.722-.446-.163-.08-.406-.263-.628-.325-.81.042-1.62.08-2.432.123-.73-.224-1.458-.83-2.167-1.013l-.832.06c-.344-.08-.992-.385-1.336-.566-.406-.223-.406-.83-.83-1.012-.04-.06-.082-.06-.224-.06m4.52-.263c-.103.142-.123.122-.123.385.06.06.02.02.06.122.325.202.812.587 1.156.708.163.062 1.56.264 1.662.264.142-.02.527-.122.77-.06.608.14 1.216.242 2.107.242.04-.1.06-.203.06-.385h-.06v-.06c-.305-.04-.527-.203-.892-.122-.182.04-.466.223-.77.12-1.298-.382-2.31-1.153-3.97-1.213m4.132-2.857c-.163.1-.406 0-.628.062-.263.06-.568.344-.77.385-.608.142-1.297-.466-2.107-.325-.04.1-.04.163-.06.325.586.142 1.174.486 1.72.648.65.182 1.176-.062 1.784.122.405.122.91.425 1.275.567.527.122 1.053.263 1.6.386.366.16.488.546.772.77.162.12.344.142.506.263.973.71.85 1.075 2.674 1.095.08-.162.122-.224.122-.506-.082-.082-.103-.183-.123-.326-.203-.122-.385-.324-.567-.445-.527-.326-1.56-.407-1.784-1.014-.1-.183-.02-.588-.122-.77-.223-.386-.547-.284-1.013-.446-1.012-.367-1.863-.792-3.28-.792m41.43-9.442c-.667.467-1.7.486-2.55.77-.994.345-2.33.668-3.384.953-.487.12-.79.04-1.277.182-.427.223-.852.465-1.277.708-.385.082-.77.163-1.154.263-1.014.427-1.318 1.723-2.23 2.29-.73.446-1.58.79-2.432 1.074-.182.02-.385.04-.567.062-.87.302-1.762.707-2.613 1.012-.506.182-.89.162-1.398.324-.913.284-1.723.953-2.675 1.094-.122.02-.426-.1-.506-.122-.144-.04-2.373 0-2.615.062-.203.04-.527.203-.71.263-.526.143-2.694-.325-3.18-.445h-2.492c-.324-.08-1.073-.122-1.398-.122-.223 0-.587.142-.89.06-.872-.203-2.412-.324-3.445-.122-.04.122-.062.244-.062.446.122.08.143.243.263.325.387.263 1.136.404 1.4.77.16.202.12.668.324.83.324.264.89.243 1.155.568.222.284.303.648.505.952.202.284.526.506.77.77 1.377.02 3.262-1.195 4.336-1.66.405-.183.668-.123 1.155-.264 1.033-.303 2.35-.81 3.444-1.073 1.458-.364 2.492.71 3.768.386.466-.122 2.167-.628 2.614-.568.77.102 1.52.224 2.228.385h1.906c.466.102 1.033.062 1.54.062.12.02.242.04.384.06.143-.04.325-.202.446-.262l.648-.062c.08-.04.223-.223.325-.263.444-.162.81-.06 1.215-.263.04-.02.14-.162.182-.182.182-.06 1.6-.224 1.723-.183.242.06.628.345.952.122.243-.102.264-.264.446-.386.345-.243.77-.304 1.013-.628.163-.223.163-.486.326-.708.425-.628 1.255-.912 1.52-1.722l.06-.953c-.02-.06-.182-.203-.203-.263-.08-.344.243-.446.324-.628.263-.77-.263-1.742.77-1.783.223.14 1.46.12 1.722.18.384.61.89 1.035 1.093 1.845.182.71-.304 1.255-.446 1.783-.203.73-.02 1.418.062 1.966.04.304-.123.668-.063 1.013l.183.06c.263.163.586-.08.83-.12.446-.102.89.323 1.398.12.102-.04.932-.668 1.013-.77.326.06.61-.04.893.06.69.245 1.62.69 2.29.893.75.224 1.398-.426 2.107-.324.85.142 1.762-.102 2.614-.324h.892c.89-.203 1.864-.325 2.937-.446.162-.223.446-.385.568-.628.163-.364.143-.73.386-1.013.1-.06.203-.12.325-.182.102-.162.02-.364.122-.506.143-.203.324-.06.568-.182.1-.143.223-.304.324-.446.06-.67-.08-1.844-.65-2.047-.343-.223-1.194.02-1.52.122-.465.142-.81.344-1.215.507-.568.223-1.196.283-1.784.445-.304.082-.872.325-1.276.203-.344-.1-.77-.344-1.155-.446-.446-.1-.872.062-1.216 0-.65-.12-1.48-.323-1.966-.648-.71-.445-1.114-1.236-1.6-1.904l-.244-.182c-.16-.284-.16-.608-.445-.77-.607-.345-1.56-.02-2.35-.183-.284-.06-.73-.203-1.074-.122-.12.04-.465.122-.708.06-.388-.108-.814-.15-1.3-.15M24.62 36.238c-.283-.163-.667-.65-.77-.953V34.13c-.12-.547-.303-1.256-.445-1.784-.12-.485-.04-1.093-.12-1.52-.082-.425.2-1.013.06-1.54-.163-.627-.08-.91.06-1.457.122-.487-.12-1.055-.06-1.4V24.59c.06-.284.203-.67.263-.89.162-.61-.06-1.217.122-1.724.304-.81 1.074-1.094 1.54-1.722.607-.83 1.418-1.5 2.29-2.026.243-.142.547-.163.77-.325.263-.18.446-.505.71-.707.647-.486 1.296-.953 1.843-1.54.73 0 1.985.425 2.552.324.466-.102 1.094-.04 1.52-.183.284-.1.648-.344.953-.445l.952-.063c.203-.06.527-.202.77-.263.79-.182 1.418.304 2.107.122.263-.06.708-.04 1.012-.122.527-.14 1.398-.547 2.168-.385.344.08.973-.042 1.398.06 1.154.264 2.45.203 3.708.386.708.1 1.803-.183 2.492-.062.506.08 1.316-.06 1.904.062 1.276.263 3.14.182 4.274-.062.69-.162 1.236.163 1.966 0 1.073-.243 2.452-.304 3.627-.71.525-.18 1.05-.566 1.538-.77.81-.322 1.66-.424 2.35-.89.446-.304.65-.912 1.074-1.216.244-.162.487-.223.71-.385.243-.182.405-.547.708-.71.1-.02.203-.04.323-.06.122-.08.143-.283.264-.384.16-.143 1.033-.73 1.215-.832.71-.385 1.622-.405 2.432-.71.567-.2 1.155-.647 1.722-.83.648-.202 1.216-.06 1.905-.263.406-.1.81-.425 1.155-.567.547-.243 1.054-.102 1.722-.263.608-.142 1.58-.466 2.492-.264.85.184 1.58.326 2.43.508.953.224 1.925 0 2.553.506.062.162.122.344.183.506.1.08.202.163.323.244.384.547.546 1.276 1.012 1.722.203.182 1.844.67 2.23.77h.89c.325.122.568.527.953.628.81.223 1.945-.567 2.35-.83.446-.284 1.034-.345 1.48-.628.223-.162.283-.405.445-.65.526-.75 1.62-1.113 2.795-.83.365.548.69.994.71 1.906.262.162.627.344.89.506-.04.12-.02.06-.06.12-.162.387-.67.468-.83.894-.204.526.283 1.013.06 1.66-.06.183-.324.345-.385.568-.163.547.243.953.203 1.277-.06.405-.385.71-.385 1.336.628-.02.872-.202 1.337-.323l1.6-.062c.244-.06.507-.304.83-.263.306.04 1.44.365 1.663.506.14.102.263.305.445.386.304.062.628.122.953.182.648.264 1.256.79 1.843 1.156.932.567 2.228.547 2.734 1.54.69 1.317.446 2.734.83 4.335v.77c.285 1.255.67 2.49.954 3.625.1.446.16 1.135.182 1.54v1.014c.1.363.263 1.335.182 1.782-.02.142-.122.507-.06.77.04.182.122.628.06.892-.08.365-.284.71-.385 1.094l-.06 1.276c-.244.892-.932 2.128-.65 3.445.488 2.106.285 4.598.77 6.746v1.276c0 .872.042 1.682.184 2.29v1.397c.142.688.082 1.742.183 2.492-.284.73-.385 1.903-.385 2.795v1.52c-.325 1.52-.426 4.417-.06 6.058-.022 1.438-.042 2.897-.063 4.338.344 1.6.466 3.403.83 5.02.224.975-.08 2.253.123 3.183.04.245-.04.57-.06.708-.123.55.142.954.06 1.46-.06.364-.203.954-.122 1.397.08.448.162 1.077.263 1.54-.02.428-.042.85-.06 1.278.282 1.072.444 2.513.2 3.625-.12.59.062 1.46 0 1.867.062 1.033.123 2.086.184 3.118-.02.325-.04.65-.062.954.08.423.284 1.175.122 1.722-.182.728-.122 1.642.062 2.41v.89c.08.305.304.67.385 1.013v1.583c.305 1.357-.202 3.06.123 4.6v.687c.324 1.46.466 2.572.445 4.092 0 .628 0 1.355-.122 1.783-.02.345-.04.708-.06 1.092-.144.39-.994.914-1.277 1.46-.225.468-.144 1.033-.387 1.48-.202.384-.667.688-.83 1.072l-.122.688c-.16.266-.546.364-.77.57-.142.14-.223.384-.384.506-.446.346-.893.606-1.337.95-.548.408-.913 1.137-1.542 1.46-.283.06-.547.144-.83.203-.425.162-.81.467-1.216.63-.365.16-.688.182-1.013.383l-.386.447c-.628.424-1.357.625-2.107.95-.344.142-.628.407-1.074.506h-.952c-1.6.363-3.545-.06-5.287.323-.628.02-1.277.04-1.906.063-.1-.023-.425-.122-.627-.063-.062.02-.244.163-.325.183l-1.783.063c-1.763.402-3.505.422-5.29.647-.222.02-.93-.083-1.153-.143-.245-.043-.608.04-.77.06-.144.04-1.318-.103-1.4-.122-.75-.143-1.722.162-2.35.062-.385-.062-.85-.305-1.398-.182-1.438.3-3.89.546-5.41.324l-2.43.12c-.467-.1-1.034-.223-1.4-.325-.324-.078-1.417.163-1.843.123-.467-.04-1.095-.222-1.52-.305-.567-.143-1.358-.02-1.784-.143H62.47c-.304-.06-.993-.24-1.276-.2-.102.02-.365.18-.446.2-.223.044-.75-.14-1.073-.06-.568.123-1.54.084-2.23-.06-.586-.122-1.356.04-1.843-.062-.81-.162-1.317.305-2.107.143-.344-.08-.79.083-1.154 0-.77-.143-2.167-.143-2.937 0-.607.122-1.073-.345-1.782-.183-1.316.285-2.815-.08-4.274.246-.385-.025-.77-.045-1.155-.064-1.822.407-4.05.222-5.854.59-.587.1-1.418-.226-2.107-.084-.933.202-2.13.183-2.94 0-.18-.04-.343.063-.444.084-.527.08-1.175-.044-1.52-.143h-1.4c-1.113-.285-2.794-.468-4.01-.183-.587.12-1.54-.122-1.986 0-.304.08-.385.526-.83.443-.365-.06-.872-.28-1.216-.384h-.872c-.426-.1-1.216-.223-1.6-.325-.446.02-.892.04-1.337.063-.912-.246-2.29-.163-3.18-.39h-.955c-.912-.24-1.763-1.05-2.553-1.538-.466-.285-1.013-.24-1.52-.506-.404-.202-.77-.586-1.154-.83-.385-.243-.83-.282-1.216-.508-.304-.182-.304-.424-.506-.708-.14-.202-.566-.242-.708-.447-.02-.118-.04-.26-.06-.383-.123-.262-.386-.507-.507-.768-.162-.346-.102-.694-.243-1.078-.263-.688-.588-1.436-.77-2.287-.122-.55.284-1.115.122-1.784-.183-.83-.122-2.025-.324-2.876l-.06-2.798c-.184-.827-.042-1.82-.184-2.49v-1.214c-.1-.446.02-.973-.122-1.582-.364-1.54-.526-3.384-.648-5.105-.02-.182.08-.708.122-.89v-1.54c.142-.692.1-1.642.244-2.29v-.954c.122-.545.202-1.7.06-2.35-.425-1.924.082-4.028-.385-5.936-.14-.586.04-1.397-.06-1.903l.06-1.844c-.263-1.194-.162-2.773-.446-4.012v-.89c-.12-.547-.1-1.235-.242-1.845-.527-2.027-.972-5.27-.568-7.964.183-1.297-.506-2.27-.182-3.627.163-.69.082-1.54.263-2.29.204-.872.427-1.804.63-2.674v-1.46c.283-1.332.02-3.034.324-4.39.1-.447-.102-2.23-.183-2.675.022-.668.042-1.357.062-2.046-.04-1.276-.06-2.796-.324-3.95-.223-.974.02-2.35.182-3.12l.06-1.4c.305-1.153.366-2.754.65-3.89l.12-2.228c-.02-.16-.04-.344-.06-.506.305-1.56.324-3.22.324-4.963l-.06-3c.14-.607.203-1.316.324-1.843v-.77c.385-1.56.628-3.04 1.013-4.66.162-.607.042-1.114.243-1.803.04-.142.224-.364.264-.505v-.568c.06-.162.364-.325.445-.506v-.444c.143-.446.365-.872.568-1.216.242-.365.122-.973.567-1.155.122.162.142-.042.446-.02.04-.123.06-.042.06-.224-.16-.1-.202-.1-.262-.323.163-.162.204-.445.385-.567.466-.163.912-.304 1.357-.466.223-.142.344-.405.506-.628.163-.203.365-.223.568-.385.406-.283.69-.79 1.094-1.073.203-.14.446-.122.71-.263.486-.243 1.073-.65 1.54-.89h.323c.587-.407 1.155-1.075 1.844-1.338.142-.02.325-.04.487-.06.223-.082.466-.306.708-.387.243-.02.466-.04.71-.062 1.174-.385 2.552-.91 3.768-1.276.667-.203 1.56-.04 2.167-.325.162.02.243.203.506.122.122-.042.405-.224.507-.264 1.216-.02 2.41-.04 3.626-.062.932-.182 3.606-.06 4.78.203.285.062.588-.08.77-.06 1.157.122 2.595.263 3.69.506H37c1.48.325 3.506 0 4.964.325.365.08.953 0 1.216-.062.972-.223 2.026.062 2.937-.122.628-.142 1.297.08 1.784 0 1.176-.223 2.938-.162 4.134-.446l2.552.062c.568-.122 1.054.08 1.722-.062.83-.182 2.512-.182 3.242-.06.526.08 1.417-.223 1.843-.324.446-.102.953 0 1.277 0 1.033.02 1.985 0 2.796-.183h1.073c.404-.1 1.134-.16 1.52-.262h.89c.77-.183 1.722-.344 2.432-.506h1.337c.262-.06.99-.183 1.336-.06.162.06.365.262.506.323.345.122.993.06 1.337.122l1.66-.062c.547.123 1.884.264 2.37.183.65-.102 1.42-.284 2.047-.122h2.23c1.762.385 3.625.08 5.287.062.81 0 1.742.02 2.492.182.385.082.87-.102 1.134-.06.69.08 1.56.182 2.107.323 1.135-.1 2.25-.223 3.383-.324.568.142 1.357.182 1.985.385.385.12.81.405 1.216.506.59.143 1.034.04 1.52.244.305.122.65.446.954.568.567.242 1.054.222 1.66.445.305.102 1.055.608 1.338.83.507.386.79 1.055 1.155 1.602.1.08.203.162.324.242.183.284.062.587.183.953.08.203.304.405.385.628.04.628.08 1.276.122 1.904.304.163.973.507 1.094.83.304.974-.79 1.54-1.013 1.966-.1.162.02.365-.12.446h-1.01c-.122-.02-.203-.042-.345-.082-.142-.385-.547-.507-.71-.892-.06-.425-.12-.85-.202-1.276-.08-.244-.304-.527-.385-.83-.14-.548.122-.954-.06-1.46-.04-.1-.203-.283-.264-.385l-.06-.445c-.102-.162-.386-.284-.507-.446-.162-.223-.223-.466-.446-.628-.485-.364-.95-.567-1.478-.89-.16-.102-.323-.365-.506-.446-.08-.04-.627-.143-.627 0-.184-.224-.143-.344-.447-.446-.507-.06-1.013-.122-1.54-.182-.365-.102-.83-.345-1.216-.446h-1.135c-.953-.203-2.168-.223-3.12-.445-.81-.182-2.047.02-2.674.122-.325.062-1.216-.06-1.52-.12-.507-.123-1.216.04-1.662-.063-.466-.102-1.297-.02-1.66.06-.792.183-1.338-.242-2.108-.12-.588.08-1.5-.082-2.167.06-.1.02-.364.1-.567.06-.892-.202-2.026-.04-3-.263-.75-.16-1.52-.344-2.228-.506-.83-.202-2.086.265-2.735.386l-.77-.06c-.364.06-.973.08-1.317.162-.385.08-.993-.02-1.276-.06-1.156-.184-2.635-.043-3.566.18l-4.78-.06c-.912.223-2.067.343-3.06.567h-1.458c-1.154 0-2.33.02-3.323 0-.284-.02-.548-.04-.83-.062-.792.163-1.744-.06-2.615.122-.65.14-1.804.385-2.614.183-.445-.102-1.154-.183-1.783-.122-1.033.122-2.39.263-3.768.283l-.77.06c-.608-.122-1.42.06-2.23-.06-.122-.02-.304-.102-.506-.062-.244.04-.75.122-1.013.182h-.77c-.12.04-.222.263-.324.324-.243.122-.972.04-1.154.06-.163.022-.487-.1-.628-.12-.71-.162-1.54-.04-2.167-.203-.77.02-1.54.042-2.29.06-.425-.1-1.013-.06-1.52-.18-.526-.142-1.215-.426-1.72-.588h-.508c-1.278-.284-2.433-.223-3.567.06-.89.224-1.904.122-2.735.325-.566.02-1.154.04-1.72.062-.507.14-1.197.2-1.744.383-.364.142-.75.487-1.154.65-.81.323-1.823.323-2.614.627-.688.284-1.378.872-2.026 1.216-.203.04-.385.08-.567.12-.244.123-.426.447-.65.59-.303.182-.668.182-.95.385-.508.325-1.926 1.4-2.23 1.844-.12.18-.12.403-.242.566-.405.526-1.053.91-1.397 1.458-.182.284-.446.75-.527 1.034-.12.344.183.648.122.83-.02.102-.323.284-.385.446-.263.83.102 1.783-.122 2.614-.16.628-.343 1.48-.506 2.086v.71c-.04.1-.222.283-.263.384l-.12 1.155c-.163.568-.426 1.074-.568 1.722-.183.75.304.952.445 1.336.183.527-.223 1.073-.323 1.398-.224.79-.02 2.127-.122 2.796v.892c-.04.16-.203.405-.243.567-.244.87-.062 1.884-.264 2.734-.02.73-.04 1.438-.062 2.167-.202.913-.222 2.087-.122 3 .02.122-.1.304-.12.385v1.013c-.144.446-.488 1.196-.346 1.803.243 1.055-.12 2.372.122 3.566.143.67 0 1.58 0 2.493 0 .363.08.89.062 1.133-.102.973-.122 2.21-.325 3l.06 1.093c-.06.65-.1 1.42-.262 2.107.02.365.04.73.062 1.094 0 .69-.04 1.62-.183 2.23v1.66c-.162.65-.02 1.682-.182 2.41-.385 1.744-.486 4.702 0 6.627.223.853.06 1.886.263 2.674v1.4c.365 1.357.224 3.138.568 4.515l-.06 1.338c.06.792.08 1.885-.06 2.616l.06.95c-.183.812-.042 3.546.182 4.46.182.728 0 1.72.12 2.287v1.096c.163.747.103 1.923-.06 2.61-.12.507-.02 1.44.06 1.845.123.507-.08 1.46-.18 1.844-.102.406.142.973.06 1.277l-.12.06c-.184.546.08 1.377.12 1.784l-.06 1.275c.162.708.12 1.884.324 2.734.04.205-.04.406-.062.506.02.81.04 1.622.062 2.434.203.85.162 1.923.385 2.877v1.155c.143.506.062 1.357.244 1.903.122.384.345.89.445 1.357-.02.284-.042.59-.06.89.343 1.4.81 2.778 1.396 3.89.082.246.163.507.263.772.142.222 1.195 1.273 1.397 1.396.264.162.527.103.83.266 1.155.565 2.352 1.356 3.627 1.863l1.155.182c.89.26 1.944.546 2.937.768.526.122.932-.14 1.337-.12.567 0 1.5.183 1.986.325.466-.02.932-.043 1.397-.063.405.084.87.226 1.276.305.182.04.425-.04.506-.06.14-.02 1.093.08 1.337.12.85.186 1.843.324 2.674.205.244-.044.447.28.892.182.365-.083 1.013 0 1.276.06 1.094-.04 2.21-.08 3.323-.122.447-.08 1.236.162 1.905 0 .77-.163 1.56-.443 2.29-.626.546-.143 1.377 0 1.843-.063.203.044.426.084.628.123.75.08 1.6.08 2.107-.06.588-.162 1.438.06 1.986-.063 1.397-.324 2.37.55 3.625.246.83-.203 2.127-.105 3.06-.326h.648c.203-.062.547-.226.77-.265.122.02.263.038.385.062.75-.024 1.48-.044 2.23-.063.95-.203 2.35-.163 3.322.062.708.162 1.762 0 2.228-.063.162-.02.608.142.892.062.12-.044.283-.245.507-.183.1.02.323.22.445.26l.89.06c.204.084.467.325.69.39.242.058.283-.105.385-.124.06-.02 1.803.08 1.986.123 2.35.545 6.017.383 8.408.058.224-.02.69.104 1.014.06 1.276-.118 2.634.083 3.687-.118.65-.123 1.42.08 1.845.182.526.143 1.58 0 2.29 0 1.012 0 1.843-.143 2.734-.123 1.113.04 2.633.122 3.564-.123.143-.04 1.743-.02 1.844 0 .203.063.506.226.83.122.486-.123 1.155-.385 1.662-.507h1.156c.12-.02.242-.104.323-.143.16-.04 1.073.143 1.275.202.608.142 1.216-.1 1.6-.202.325.02.63.04.954.063.424-.104 1.072-.266 1.52-.388h.708c.364-.1.77-.404 1.073-.507.244.02.467.044.71.083.08-.02.203-.18.243-.2.182-.024.344-.044.506-.063.404-.143.83-.566 1.215-.768.668-.37 1.48-.488 2.106-.896.366-.24.63-.688 1.014-.89.446-.242.872-.325 1.277-.63.02-.06.042-.12.062-.183.182-.24.466-.383.71-.564.08-.06.1-.24.18-.324.204-.183.73-.424.892-.63.203-.26.265-.688.507-.89.204-.162.57-.222.71-.447.122-.222.04-.507.182-.688.082-.1.305-.143.386-.24.16-.247.263-.773.323-1.034v-1.076c.082-.364.184-.688.204-1.15v-1.015c.487-1.642.466-4.194.06-5.797v-.83c-.16-.71-.14-1.6-.323-2.352.02-.24.042-.463.062-.708-.122-.812-.162-1.943-.323-2.734-.083-.466.14-.992 0-1.52-.083-.284-.204-.77-.266-1.154-.04-.262.062-.91 0-1.215v-1.214c-.122-.507-.304-1.24-.182-1.845.1-.505-.1-1.376-.203-1.985-.042-.24.142-.79.06-1.136-.142-.67.082-1.438-.06-2.105 0-.04-.123-.325-.123-.385-.02-.59.143-1.42.244-1.907.042-.182-.06-.384-.06-.442-.062-.265.08-.525.122-.712.04-.2-.04-.526-.06-.625-.102-.388.06-1.56.12-1.907.042-.158-.04-.32-.06-.384v-1.274c-.06-.285-.224-.895-.203-1.22.06-.644-.082-1.214 0-2.045.04-.344.08-.87 0-1.215-.123-.526.1-1.053 0-1.46-.163-.708.02-1.658-.123-2.228v-1.275c-.062-.224-.163-.65-.182-.893l.06-.385c-.08-.445-.243-.872-.324-1.337-.06-.385.123-.952 0-1.458-.12-.568-.12-1.357-.262-1.985l.06-1.013c-.02-.304-.1-.668 0-1.013.042-.12.225-.303.265-.384.303-.77-.385-1.622-.264-2.29.182-.973.648-3 .385-4.133-.386-1.743 0-3.77-.386-5.41-.203-.83.344-1.48.12-2.35-.242-.973-.485-1.946-.707-2.94-.143-.687.364-1.56.242-2.166-.1-.547-.14-1.135-.323-1.722-.062-.203-.284-.487-.324-.71l.06-.627c-.02-.304-.223-.648-.12-1.094.1-.405.18-.75.18-1.276 1.54-1.054 1.905-3.383 1.217-5.672v-.77c-.143-.568-.244-1.378-.385-1.986v-1.013c-.163-.668-.406-1.377-.568-2.045-.304-1.094-.263-2.188-.83-3-.244-.364-1.358-1.337-1.784-1.458-.304-.1-.547.183-.83 0-.04-.08-.08-.182-.122-.263-.183-.18-.67-.546-.893-.627-.223-.142-.485-.06-.79-.163-1.6-.526-3.22-.932-5.166-.506-.87.203-1.823-.1-2.553.203-.73.304-1.397.85-1.904 1.398-.446-.02-.89-.284-1.398-.122-.385.102-.993.506-1.52.446-.183-.022-.385-.204-.506-.264-.365-.162-2.45-.69-2.938-.568-.406.102-.77 0-1.216.122-.405.122-1.013.284-1.52.385-.344.08-.486-.122-.83-.122-.345 0-.608.102-1.013 0-.387-.08-.812-.182-1.075-.385-.325-.223-.203-.526-.77-.567-.163.102-.568.062-.83.062-.183.284-.608.73-.325 1.277.223.404.688.81.892 1.275.263.607.14 1.316.323 2.026.062.245.224.628.244.893.06.425-.285 1.073-.386 1.458-.122.57.162 1.744.324 2.108.242.102.77.203.892.446l.06.567c.224.407 1.175.832 1.662.954.91.244 1.823-.405 2.167.445.303.343.16 1.012.12 1.54-1.174.77-1.762.323-2.794-.123-.466-.203-.932-.1-1.4-.263-.506-.162-.83-.425-1.457-.324v.122c-.57.89.627 1.417.77 1.844.16.506-.164.85 0 1.397.12.445.485.973.627 1.398.162.467.04 1.318.06 1.905.285.182.57.325.893.507l.77.89c.345.244.69.386 1.013.63.344.283.67.81 1.155.95l.89-.06c.386.122.63.425 1.156.325.87-.183 2.47.304 2.796-.507.142-.223.203-.83.263-1.074.65-.304 1.54-.75 2.35-.83.65.67 2.047 1.195 2.108 2.41-.465.67-.607 1.865-1.66 1.905-.163-.12-.487-.162-.71-.202-.486.507-1.012.973-1.52 1.46-.567 0-1.317-.022-1.72-.264-.224-.143-.427-.426-.71-.506-.79-.264-1.378.566-1.966.627-.04 0-1.762-.506-1.985-.567-.406-.142-.852-.587-1.277-.77-.385-.102-.77-.203-1.154-.325-.345-.223-.366-.628-.893-.71-.06.062-.02.022-.122.062-.243.466-.506.932-.65 1.54v1.013c-.06.182-.262.406-.322.568-.203.588-.183 1.296-.325 1.843.02.384.04.77.062 1.153-.102.507-.386 2.29-.183 2.878.04.143.243.204.324.325.285.446.406.892.71 1.277.202.263.588.324.708.71.162.485-.162 1.133-.06 1.66.222.1.587.162.83.323.445.284.77.852 1.216 1.135.385.264.85.243 1.336.446.284.122.71.425 1.013.506.527.162 1.884-.365 2.23-.506 1.52-.628 3.484-1.398 5.287-.953.224.426.487.65.506 1.337-.1.182-.203.344-.323.506-.547.385-1.318.425-1.4 1.276.184.06.488.06.772.06.344.204.688-.06.89-.12.427-.144.832.02 1.075.06.224.568.932.425.953 1.155-.062.08-.04.1-.062.263-.322.203-.566.547-.83.83-.526 0-.85.102-1.215.183-.365.08-.972-.06-1.276-.122-1.176-.262-2.636.02-3.628-.18-.85-.163-2.168.1-2.35.626-.06.08-.06.102-.06.264.322.182 1.113.344 1.335.648.325.406.243 1.237.446 1.783.404.184.81.387 1.216.57.18.222.384.465.566.687.425.284 1.053.406 1.52.628.182.08.304.324.506.385h.89c.57.143 1.258.243 1.784.385.203.062.446-.02.568.062.81.242.973 1.643.77 2.554-.507.345-.405.468-1.338.448-.263-.162-.667-.123-.952-.266-.162-.08-.304-.284-.446-.384-.547-.365-1.195-.448-1.843-.71-.143-.062-.305-.265-.446-.325-.325-.122-.77-.182-1.014-.263H91.5c-.144-.06-.265-.305-.386-.386-.365-.242-.912-.242-1.277-.506-.385-.283-.162-.607-.89-.627-.183.244-.568.406-.71.69-.142.304 0 .668-.263.83-.182.122-.486.042-.628 0l-.445.062c-.648.02-1.155-.203-1.397-.567-.67-.872.627-1.884.83-2.35.122-.305 0-.57 0-.954-.73-.485-.992-1.498-1.904-1.782-1.44-.445-1.257 2.107-1.46 3.06-.223.992.062 2.167.568 2.815.263.326.79.528 1.013.892.244.385.264.832.507 1.216.325.487.953.527 1.398.89.102.144.223.306.304.448.16.104.323.04.505.123.102.144.224.262.325.385.89.565 1.904.77 2.795 1.338.304.182.446.59.83.708.63.064 1.277.123 1.905.183.67.245 1.216.85 1.783 1.22.527.344 1.237.462 1.723.826.243.186.446.77.648.894.122.02.243.04.386.06.182.103.364.364.567.447h1.135c.385.12.73.507 1.013.69.244.16 1.338.628 1.6.707h.893l1.52-.06c.122-.063.263-.245.385-.324.162-.103.304-.044.506-.123.283-.122.546-.384.83-.506.425-.162 1.033 0 1.398.06.325.062.466-.08.688-.06.04.143 0 .467.062.63.122.323.667.383.506 1.032-.224.81-.912 1.072-1.337 1.66-.243.346-.406.853-.83 1.015-.912.385-2.148.1-3.182.385-.405.103-.872.403-1.276.506-.852.223-2.007-.082-2.878.144-.224.04-.81.202-1.013.242-.265.062-.772-.143-1.136-.06-.668.162-1.317.403-2.107.565-.506.105-2.857-.16-3.263-.323-.1-.04-.263-.222-.385-.262-.345-.04-.69-.083-1.014-.122-.344-.103-.992-.324-1.54-.183-.465.123-.952.447-1.336.566h-1.013c-.992.265-1.195.123-2.107-.12-.385-.102-.81.203-.89.444-.305.408.222 1.745.324 2.29.04.243-.203 1.177-.263 1.458l-.06 3.062c-.143.605.04 1.476-.062 2.164-.122.812-.06 1.845-.06 2.738 0 .566.04 1.274-.062 1.722v.95c-.162.712-.223 1.38-.385 2.108l-.06 1.6c-.204.83-.446 1.66-.63 2.492l-.12 2.734c-.122.526-.244 1.136-.264 1.785.183.142.304.446.506.565.284.182 1.904.57 2.492.388.162-.063.344-.206.568-.265.06-.427.14-.708.506-.83.466-.345 1.6.02 2.107-.325.283-.182.77-.728.892-1.092.1-.305.04-.648.182-.895.262-.2.505-.423.77-.625.283-.407.424-.752.708-1.155.344-.285.668-.57 1.013-.83h.326c.304.304.71.323.77.89.08.143.04.708-.06 1.096-.224.808-.487 1.864-.264 2.794.446.265.912.57 1.337.895.586.442.83 1.215 1.6 1.54.79.323 1.216-.508 2.107-.325.91.182 2.067.118 3 0 .12-.02.364.1.444.118.67.162 1.623.063 2.23.063.243.28.344.344.324.973.06.06.02 0 .06.118.812.41 1.36 1.078 1.986 1.663v.752c-1.013.646-.223.99 0 1.658v.712c.102.364.203.67.122 1.15-.323.105-.547.37-.89.448-.386.083-.852-.182-1.156-.26-.284-.024-.547-.045-.83-.064-.467-.144-1.014-.325-1.602-.444-.688-.162-2.43-.205-3.06-.063-.405.084-1.114-.06-1.458-.122-.83.044-1.66.084-2.492.123-.243.408-.87 1.136-1.66.954-.345-.083-.81-.305-1.338-.202-.952.202-1.985.325-3.12.325-.142.222-.324.384-.506.565-.607-.04-1.054-.06-1.54-.384-.102-.082-.183-.265-.325-.323-.304-.104-.628.08-.77.118-.344.083-.587-.14-.83-.182-.204.043-.426.083-.63.122-.303-.04-.647-.344-.89-.446-.993-.444-2.148-.81-2.412-1.964-.142-.63.304-2.026.506-2.434.06-.14.262-.28.324-.443.14-.43-.203-1.034-.325-1.34-.264-.082-.73-.062-1.074-.062-.284.226-.547.206-.953.305-2.35.69-3.83-1.155-5.49-1.72-1.075-.365-1.784.466-2.675.264-1.034-.265-1.56-.77-2.492-1.096-.872-.284-2.026.104-2.735-.446-.1-.14-.223-.3-.323-.443-.162-.082-.325-.02-.446-.12-.1-.08-.322-.405-.384-.508-.06-.202-.122-.384-.182-.586-.223-.285-.85-.55-1.094-.83-.162-.202-.14-.55-.324-.772-.12-.162-.973-.605-1.215-.768-.16-.206-.344-.428-.506-.63-.305-.2-1.236-.324-1.722-.324-.324.305-.73.547-1.074.83-.202.164-.223.488-.445.63-.365.262-1.702.02-2.29.183-.445.143-1.093.384-1.6.507h-.953c-.405.06-.81.118-1.216.182-.324.1-.708.305-1.073.384-.222.04-.364-.06-.506-.06l-.89.06c-.264-.06-.73-.08-1.076-.06-.628.04-2.593.345-2.998.12-.426-.14-.73-.606-1.074-.832-.324-.202-.932-.222-1.337-.32-.993-.226-2.27.08-3 .26-.71.163-3.343-.363-3.768-.564-1.195-.61-2.594-1.338-3.627-2.17-.607-.485-1.256-1.277-1.722-1.902-.182-.226-.344-.59-.567-.77-.264-.203-1.703-.813-2.047-.892-.872-.245-2.148-.162-3-.122h-1.763c-.405.103-1.013.182-1.52.06-.425-.1-1.033-.14-1.458-.32-.326-.123-.63-.408-.954-.507-.628-.207-1.276-.064-1.783-.326-.142-.062-.244-.305-.385-.388-.385-.222-.71-.26-1.013-.506-.162-.12-.244-.364-.446-.443-.467-.226-1.318-.226-1.784-.325-.688-.142-1.904.73-2.552.89-.305.084-.628-.078-.83-.12-.204.02-.426.042-.63.06-.222-.06-.606-.14-.89-.264-.63-.24-1.176-.792-1.845-.954-1.196-.3-1.622.507-2.736.246-.162-.246-.304-.285-.324-.71.08-.12-.02-.387.06-.568.103-.24.57-.93.832-1.014.71-.525 2.005-.324 3-.585.688-.183 1.235-.546 1.863-.812.163-.06.648-.323.83-.363.73-.245 1.5-.04 1.905-.59.284-.384-.1-.688 0-1.072.082-.344.466-1.6.71-1.78.79-.67 2.288-.467 3.3-.895.73-.305 1.642-.728 2.352-1.013.607-.262 1.235-.28 1.843-.507.385-.143.812-.423 1.277-.506.182-.02.283.103.385.122h1.013c.202.06.385.24.708.183.77-.144 1.62-.06 2.493-.267h1.074c1.52-.384 3.404-.403 4.903-.827 1.723-.486 3.77-.914 5.41-1.4.75-.24 1.6-.1 2.29-.384.87-.345 1.72-.89 2.492-1.338.343-.202.687-.24 1.012-.447.243-.162.607-.443.892-.565.223-.08.952-.202 1.154-.262h.83c.77-.205 1.743-.55 2.615-.77.628-.04 1.276-.084 1.904-.123 1.073-.305 1.58-1.255 2.796-1.52.85-.183 1.073.83 1.844.63.242-.06.547-.286.77-.385.345-.143.71-.104 1.094-.266.446-.182.933-.605 1.4-.83.242-.1.424-.04.708-.123.81-.28 1.62-.688 2.492-.89.203.02.426.04.628.062.688-.162 1.5-.368 2.107-.507.588-.143.83.345 1.155.507.344.182.73.118 1.094.32.244.123.547.407.83.507l.628.122c.224.104.386.364.628.447.83.242 1.438-.343 1.904-.505.346-.123.75-.222 1.013-.325h1.135c.365-.143.587-.427 1.155-.506.85.91 1.642.162 2.492-.123.363-.122.748-.122 1.093-.323.506-.305.567-.768.89-1.274.123-.103.264-.226.386-.324.02-.124.04-.267.06-.385.102-.083.203-.187.325-.266.222-.345.203-.67.324-1.156.08-.364.404-1.092.262-1.6-.08-.225-.223-.265-.263-.628.343-.222.222-.305.384-.772.344-1.072.182-1.11-.243-1.983-.1-.18-.04-.344-.12-.507-.59-.993-1.662-1.62-2.818-2.047-.304-.04-.586-.08-.89-.122-.892-.344-1.196-1.195-1.905-1.66-.284-.183-.73-.164-.952-.386-.608-.607-.588-2.35-1.46-2.674-.242-.143-1.478-.04-1.984-.183-.667-.2-.83-.87-1.66-.89-.487.506-1.115.912-1.54 1.46-.163.222-.285.546-.507.708-.163.122-.324.08-.507.182-.304.182-.485.607-.77.83-.325.243-.79.446-1.013.75-.365.466-1.135 1.723-1.6 1.966-.244.142-.608.04-.832.203-.403.262-.403.83-1.012.89-.486-.465-.91-.952-1.398-1.397.04-1.054.79-1.256 1.398-1.722.79-.587 1.297-1.54 2.168-2.106.526-.324 1.316-.344 1.397-1.073-.87 0-1.378.527-1.965.83-.466.224-.973.144-1.48.325-.384.142-.87.385-1.335.507-.527.14-2.98-.344-3.323-.507-.304-.162-.83-.688-1.276-.628-1.378.182-2.148 1.256-3.445 1.46-.366.06-.65-.285-.892-.386-.73-.304-1.42-.586-2.168-.89-.547-.224-1.256-.122-1.844-.325-.688-.243-1.357-.71-1.985-.953-.364-.142-.87-.142-1.155-.385-.14-.122-.242-.365-.385-.506-.202-.202-.466-.283-.708-.445-.284-.202-.467-.567-.77-.77-.548-.385-1.5-.628-1.905-1.155-.284-.406-.06-1.013-.71-1.094-.282-.162-.728.1-1.153 0-.182-.04-.648-.203-.83-.263-.163-.04-2.25.364-2.432.445-.224.102-.446.385-.628.506-.405.284-.932.244-1.216.65-.08.12-.222.403-.263.505v.77c-.08.14-.69.444-.83.627-.508.688-1.034 1.438-1.662 2.046-.344.324-.81.446-1.094.83-.61.832-1.054 1.784-1.663 2.615-.546.73-1.418 1.256-2.046 1.904-.506.526-1.032 2.127-1.6 2.492-.406.246-1.357.04-1.783.325-.284.182-1.094.89-1.216 1.214-.12.305-.04.61-.18.83-.345.508-.974.59-1.602.832-.365.143-.69.364-1.156.245-.667-.16-1.438-.185-1.66-.77-.386-.447.18-1.824.505-2.046.872-.59 2.127-.67 2.938-1.338.344-.285.567-1.236.83-1.662.162-.122.345-.263.506-.385.67-.934.772-.588 2.048-.832.325-.69.67-.486 1.216-.892.526-.385.75-1.155 1.276-1.54.223-.162.587-.102.83-.243.243-.162 1.034-1.46 1.277-1.784.892-1.236 2.046-2.27 2.877-3.566.223-.365.446-.89.567-1.276l.062-.568.77-.83c.365-.71.223-1.135 1.013-1.48.243-.1.425-.04.71-.12.506-.163 1.255-.468 1.782-.57.223.022.425.042.648.062.102-.04.243-.223.325-.264.75-.385 1.985-.526 2.816-.182.304.122.506.425.77.567.446.264 1.256.425 1.398.953.102.385-.283.587-.324 1.013.08.06.1.12.182.18.203.144.75.305 1.013.326.14-.02.304-.04.445-.06.628.14 1.054.647 1.6.83.488.16.913-.02 1.278.182.588.364.688.77 1.013 1.398.243.445 1.378 1.68 1.784 1.964.607.426 1.722.487 2.614.628l1.216-.06c.385.1.91.424 1.52.262.506-.142 1.235-.365 1.783-.567.243-.08.526-.365.77-.446.85-.284 1.6.08 2.29.263.77.183 1.418-.284 1.843-.506.324-.162.688-.162.83-.506.062-.1.062-.263.062-.445-.67 0-.952.304-1.48.445-.606.162-1.174-.122-1.782 0-.668.14-1.56.203-2.168.06-.04-.06-.08-.12-.12-.202-.184-.243-.103-.568-.063-.89.384-.285.567-.71 1.093-.893.466-.162.993-.08 1.398-.243.123-.466.063-.608.71-.568.284-.163.81.102 1.073.122.568.04 1.155.08 1.722.122.65.162 1.256.487 2.047.507l.06-.182c.224-.465-.425-1.114.386-1.66.224-.162.487-.04.83-.122 1.905-.446 2.513 1.255 4.337.77 2.167-.587 4.822-.83 6.95-1.46.526-.162 1.134-.14 1.6-.323.143-.264.425-.608.506-.892l.063-.688c.06-.142.242-.263.323-.385.365-.587.65-1.216.71-2.107-.264-.284-.467-.77-.832-.953-1.134-.567-2.795.548-3.625.892-.387.1-.772.223-1.136.324-.305.183-.487.608-.77.77-.365.203-1.014-.06-1.46.062-.77.223-1.478.628-2.35.83-.972.223-2.593-1.053-3.443-1.276-.486-.12-1.074.143-1.458.062-.142-.02-.365-.163-.567-.122-.224.04-.426.163-.628.122-.588-.1-1.784.1-2.35.203-.507.08-1.034-.365-1.662-.122-.487.182-1.175 1.216-1.844.77-.243-.08-.91-.79-.952-1.073-.04-.08.02-.203.06-.385.164-.102.326-.325.507-.386.486-.16.993.144 1.52 0 .142-.04.364-.22.507-.262.404-.082 1.073.263 1.66.122.325-.08 1.014.06 1.398-.06 1.662-.507 3.81-.225 5.49.12.873.183.832-.567 1.663-.567.182.122 1.802.304 2.167.182.446-.142.668-.71 1.094-.89l.77-.123c.872-.304 1.56-.668 2.23-1.155.384-.284.343-.972.708-1.276.243-.182 1.135-.486 1.458-.567.143-.324.406-.567.507-.892.608-1.802.06-5.388-.263-7.01l.06-.566c.02-.527-.1-.912-.06-1.338.04-.385.223-.73.122-1.216-.122-.04-.203-.06-.385-.06-.262.202-.687.263-.89.506-.264.324-.426.973-.77 1.215-.426.306-.853.488-1.136.894-.264.364-.446.648-.71 1.013-.243.182-.465.385-.708.567-.1.142-.122.284-.263.385-.284.223-.67.384-.89.648-.285.324-.548.83-.893 1.074-.527.385-1.175.486-1.58.953-.164.182-.245.506-.446.627-.224.163-.466.163-.65.386-.363.486-1.174 1.56-1.66 1.843-.284.184-2.27.467-2.553.447-.2-.263-.566-.284-.687-.628-.344-.588.446-1.4.628-1.723.042-.122.082-.263.123-.385.222-.325 1.458-.953 1.904-1.074h.506c.466-.142.547-.71.83-.892.183-.1.345.08.65 0 .343-.08.627-.385.89-.567 1.48-1.115 2.635-2.615 4.012-3.83.263-.244.587-.365.89-.568.913-.648 2.473-3.12 2.94-4.274.404-.993.04-2.23.323-3.384.405-1.66.344-3.06 0-4.72l-.183-.06c-.485-.264-.89 1.053-1.336 1.215h-.71c-.244.06-.73.18-.953.323-.08.04-.182.223-.263.263-.507.223-.994.182-1.46.445-.363.204-.626.65-.95.893-.386.284-.873.527-1.277.77-.405.224-1.46.467-1.904.183-.73-.263-1.053-1.945-.324-2.35.363-.203.728-.08 1.215-.183.567-.142 1.114-.284 1.72-.506.772-.284 1.4-1.033 2.108-1.338.668-.284 1.54-.405 1.784-1.074.222-.466-.67-.628-.953-.83-.162-.123-.14-.264-.263-.446-.162-.224-.91-.67-1.337-.568-.79.183-1.6.608-2.43.83-.487.326-1.095.063-1.48.144-.345.06-1.378.364-2.046.182-.263-.08-.526-.305-.83-.385-.608-.162-1.338.203-1.784.323-.77.203-1.216-.243-1.986-.06-.688.162-1.48.284-2.167.446-.953.222-2.23-.02-3.06-.183-.425-.102-.77.14-1.094.182-.122-.02-.242-.042-.385-.062-.75.182-1.153.79-1.843 1.013-.567.182-1.053.14-1.66.324-.548.182-1.115.385-1.662.567-.608.183-1.276.06-1.6.506-.144.163-.144.446-.123.77.83.628.932 2.21.324 3.12-.305.446-.912.628-1.155 1.155l-.06.628c-.162.546-.425 1.336-.568 1.843-.142.466-.04.69-.263 1.013-1.054 1.62-2.675 2.796-4.215 3.95-.566.425-.85 1.255-1.52 1.6l-.83.123c-.203.08-.506.243-.77.324h-1.54c-.73.203-1.763.203-2.674.203l-.83-.06c-.426.08-.912-.102-1.398 0-1.297.283-4.174.04-5.29-.446-.14-.06-.242-.263-.384-.325-.547-.243-1.255-.386-1.843-.324"/></svg>