<?xml version="1.0" encoding="utf-8"?><svg version="1.1" xmlns="http://www.w3.org/2000/svg" xmlns:xlink="http://www.w3.org/1999/xlink" x="0" y="0" viewBox="0 0 357.1 112.954" preserveAspectRatio="xMinYMin meet" xml:space="preserve"><path d="M71.495 98.65c0-1.133.204-2.16.61-3.085s.96-1.713 1.655-2.37c.695-.655 1.52-1.16 2.473-1.52s1.967-.536 3.04-.536 2.086.18 3.04.536 1.778.863 2.474 1.52c.695.656 1.247 1.445 1.654 2.37s.612 1.95.612 3.083c0 1.132-.204 2.16-.61 3.083s-.96 1.715-1.655 2.37c-.696.655-1.52 1.16-2.474 1.52-.954.357-1.967.536-3.04.536s-2.086-.18-3.04-.537c-.954-.358-1.778-.864-2.473-1.52-.696-.655-1.247-1.446-1.654-2.37s-.61-1.95-.61-3.084zm3.576 0c0 .556.095 1.093.284 1.608.188.518.466.974.834 1.37.367.398.81.716 1.326.954s1.103.357 1.758.357c.656 0 1.242-.12 1.758-.358s.958-.556 1.326-.953c.367-.398.646-.855.834-1.372.188-.516.283-1.053.283-1.61 0-.555-.095-1.09-.283-1.608-.19-.516-.467-.973-.834-1.37-.368-.397-.81-.716-1.326-.954s-1.103-.357-1.758-.357-1.242.118-1.758.356-.958.557-1.326.954c-.368.397-.646.854-.834 1.37-.188.517-.283 1.053-.283 1.61zM90.448 83.272h3.576v22.53h-3.576V83.27zM96.2 91.497h3.933l3.993 9.924h.06l3.576-9.923h3.725l-6.765 17.374c-.258.676-.542 1.268-.85 1.773-.308.508-.67.934-1.087 1.282-.417.347-.91.605-1.475.774-.566.168-1.247.253-2.042.253-.934 0-1.848-.12-2.742-.357l.447-3.22c.278.1.57.185.88.254s.62.104.938.104c.438 0 .806-.04 1.104-.12.298-.08.55-.203.76-.372.208-.168.382-.387.52-.655.14-.27.29-.59.448-.968l.685-1.7L96.2 91.497zM113.454 91.497h3.397v2.236h.06c.32-.676.83-1.277 1.536-1.804.705-.527 1.654-.79 2.846-.79 2.245 0 3.735.884 4.47 2.65.517-.912 1.163-1.583 1.937-2.01.774-.427 1.698-.642 2.77-.642.954 0 1.758.16 2.414.478.655.317 1.187.755 1.594 1.312.407.556.7 1.207.88 1.95.178.746.268 1.546.268 2.4v8.522h-3.576v-8.105c0-.438-.04-.86-.12-1.267-.08-.407-.218-.765-.416-1.073-.2-.307-.467-.55-.804-.73-.338-.178-.775-.268-1.312-.268-.556 0-1.028.104-1.416.312-.387.208-.705.487-.954.834-.25.348-.427.745-.536 1.192-.11.447-.164.898-.164 1.355v7.75h-3.576v-8.524c0-.894-.19-1.604-.566-2.13-.378-.526-1.003-.79-1.877-.79-.597 0-1.1.1-1.506.3-.408.197-.745.466-1.013.803-.267.338-.46.725-.58 1.162-.12.437-.18.894-.18 1.37v7.808h-3.575V91.497zM139.53 91.497h3.396v2.146h.06c.517-.874 1.21-1.51 2.086-1.907.874-.397 1.817-.597 2.83-.597 1.093 0 2.076.193 2.95.58.875.388 1.62.92 2.235 1.595.616.676 1.083 1.47 1.4 2.385.318.914.478 1.896.478 2.95 0 1.053-.17 2.036-.507 2.95s-.81 1.708-1.415 2.383c-.606.676-1.337 1.207-2.19 1.595-.854.388-1.788.58-2.802.58-.674 0-1.27-.07-1.787-.208s-.974-.316-1.37-.535c-.397-.22-.735-.452-1.014-.7-.28-.25-.508-.493-.687-.73h-.09v8.612h-3.575v-21.1zm11.86 7.152c0-.557-.096-1.093-.284-1.61-.188-.516-.467-.973-.834-1.37-.368-.397-.81-.716-1.326-.954s-1.103-.357-1.76-.357c-.654 0-1.24.118-1.757.356s-.96.557-1.327.954c-.368.397-.646.854-.834 1.37-.19.518-.284 1.054-.284 1.61s.094 1.093.283 1.608c.187.518.465.974.833 1.37.367.398.81.716 1.326.954s1.102.357 1.757.357c.656 0 1.242-.12 1.76-.358s.957-.556 1.325-.953c.367-.398.646-.855.834-1.372.188-.515.283-1.052.283-1.61zM157.855 86.64c0-.576.214-1.077.64-1.505.43-.428.97-.64 1.625-.64.656 0 1.207.202 1.654.61s.67.918.67 1.533c0 .617-.223 1.13-.67 1.535-.447.408-.998.61-1.654.61-.655 0-1.196-.212-1.624-.64-.427-.426-.64-.927-.64-1.504zm.507 4.857h3.576v14.305h-3.576V91.497zM174.99 103.834h-.09c-.516.814-1.172 1.406-1.967 1.773s-1.668.55-2.62.55c-.658 0-1.298-.09-1.924-.267-.626-.18-1.183-.447-1.67-.805-.486-.357-.88-.805-1.177-1.342-.298-.536-.446-1.162-.446-1.877 0-.775.14-1.436.417-1.982.277-.545.65-1.002 1.117-1.37.468-.367 1.01-.66 1.625-.88.615-.218 1.257-.38 1.922-.49.666-.11 1.336-.18 2.012-.21.675-.03 1.31-.044 1.905-.044h.895v-.387c0-.895-.31-1.565-.924-2.012-.615-.446-1.4-.67-2.354-.67-.756 0-1.46.134-2.117.402-.655.27-1.222.63-1.698 1.087l-1.877-1.878c.794-.814 1.723-1.4 2.786-1.758 1.062-.357 2.16-.537 3.292-.537 1.014 0 1.867.115 2.562.344s1.27.522 1.73.88.808.77 1.058 1.236c.248.467.426.94.535 1.416s.174.938.195 1.385c.02.447.03.84.03 1.178v8.225h-3.22v-1.966zm-.21-4.44h-.743c-.498 0-1.053.02-1.67.06-.615.04-1.197.135-1.742.283-.547.148-1.01.368-1.386.656-.38.287-.567.69-.567 1.207 0 .338.075.62.224.85.15.228.343.422.58.58.24.16.508.273.805.343.3.07.596.104.895.104 1.232 0 2.14-.293 2.727-.88s.88-1.386.88-2.398v-.806zM183.244 101.69h3.635l-2.532 7.866h-3.19l2.086-7.867zM197.756 91.497h3.875l3.1 10.014h.06l2.89-10.013h3.874l3.1 10.014h.06l2.98-10.013h3.607l-4.856 14.305h-3.547l-3.396-9.774h-.06l-3.01 9.774h-3.695l-4.98-14.305zM232.354 103.834h-.09c-.516.814-1.172 1.406-1.967 1.773s-1.668.55-2.62.55c-.657 0-1.298-.09-1.925-.267-.625-.18-1.182-.447-1.668-.805s-.88-.805-1.178-1.342c-.297-.536-.445-1.162-.445-1.877 0-.775.14-1.436.417-1.982.277-.545.65-1.002 1.117-1.37.467-.367 1.008-.66 1.625-.88.614-.218 1.255-.38 1.92-.49s1.337-.18 2.013-.21c.676-.03 1.31-.044 1.906-.044h.894v-.387c0-.895-.31-1.565-.924-2.012-.615-.446-1.4-.67-2.354-.67-.756 0-1.46.134-2.117.402-.655.27-1.222.63-1.698 1.087l-1.877-1.878c.793-.814 1.723-1.4 2.785-1.758s2.16-.537 3.293-.537c1.014 0 1.867.115 2.562.344s1.27.522 1.73.88.808.77 1.058 1.236c.248.467.426.94.535 1.416s.174.938.195 1.385c.02.447.03.84.03 1.178v8.225h-3.22v-1.966zm-.21-4.44h-.744c-.498 0-1.053.02-1.67.06-.615.04-1.197.135-1.742.283-.547.148-1.01.368-1.387.656-.376.287-.565.69-.565 1.207 0 .338.076.62.225.85.148.228.342.422.58.58.238.16.508.273.805.343.3.07.596.104.895.104 1.232 0 2.14-.293 2.727-.88s.88-1.386.88-2.398v-.806zM247.045 95.46c-.695-.974-1.63-1.46-2.803-1.46-.477 0-.943.12-1.4.357s-.686.626-.686 1.162c0 .437.19.755.566.952.377.2.855.37 1.432.508s1.195.283 1.86.432 1.288.377 1.864.686 1.053.73 1.43 1.266c.377.537.566 1.272.566 2.206 0 .854-.184 1.575-.55 2.16-.368.587-.847 1.058-1.43 1.415-.59.358-1.25.617-1.983.775-.735.158-1.47.238-2.204.238-1.113 0-2.137-.16-3.07-.477s-1.768-.894-2.502-1.728l2.383-2.234c.457.516.95.938 1.477 1.266.525.328 1.166.492 1.922.492.258 0 .525-.03.805-.09.278-.06.536-.158.774-.298.238-.14.434-.313.582-.52s.223-.453.223-.73c0-.497-.19-.865-.567-1.104s-.854-.432-1.43-.58c-.576-.15-1.197-.29-1.863-.418-.664-.13-1.285-.338-1.86-.625-.577-.288-1.054-.69-1.433-1.206-.377-.518-.564-1.232-.564-2.146 0-.794.162-1.484.49-2.07s.76-1.068 1.297-1.445 1.152-.656 1.848-.835 1.4-.27 2.115-.27c.955 0 1.898.165 2.832.493s1.688.89 2.264 1.685l-2.385 2.145zM256.223 93.494h.06c.278-.596.77-1.137 1.474-1.624.705-.486 1.615-.73 2.73-.73.952 0 1.76.16 2.427.478s1.207.735 1.625 1.25c.415.52.714 1.114.892 1.79.18.675.27 1.38.27 2.115v9.03h-3.576V98.56c0-.397-.02-.84-.06-1.326s-.146-.943-.313-1.37c-.17-.428-.432-.785-.79-1.074-.356-.287-.845-.432-1.46-.432-.596 0-1.098.1-1.504.3-.41.197-.747.466-1.015.803-.27.34-.463.727-.582 1.164-.12.437-.178.894-.178 1.37v7.808h-3.576v-22.53h3.575v10.222zM269.303 86.64c0-.576.215-1.077.64-1.505.43-.428.97-.64 1.626-.64s1.206.202 1.653.61.67.918.67 1.533c0 .617-.223 1.13-.67 1.535-.447.408-.998.61-1.654.61s-1.198-.212-1.626-.64c-.426-.426-.64-.927-.64-1.504zm.508 4.857h3.577v14.305h-3.576V91.497zM277.498 91.497h3.398v2.295h.06c.337-.715.853-1.336 1.55-1.862.693-.526 1.64-.79 2.83-.79.953 0 1.764.16 2.43.478.664.317 1.205.735 1.623 1.25.417.52.714 1.114.894 1.79.178.675.268 1.38.268 2.115v9.03h-3.576V98.56c0-.397-.02-.84-.06-1.326-.04-.487-.144-.943-.313-1.37-.168-.428-.432-.785-.79-1.074-.356-.287-.843-.432-1.458-.432-.598 0-1.1.1-1.506.3-.41.197-.745.466-1.015.803-.268.34-.46.727-.58 1.164-.12.437-.18.894-.18 1.37v7.808H277.5V91.497zM309.324 91.497v13.023c0 1.29-.16 2.46-.477 3.502-.318 1.043-.81 1.926-1.475 2.65-.666.727-1.506 1.287-2.52 1.686-1.012.396-2.215.596-3.605.596-1.33 0-2.592-.17-3.785-.507-1.19-.34-2.293-.954-3.307-1.848l2.145-2.922c.717.656 1.46 1.162 2.236 1.52.773.358 1.668.537 2.682.537.854 0 1.574-.12 2.16-.357s1.053-.566 1.4-.983.596-.92.746-1.505c.148-.586.223-1.236.223-1.952v-1.043h-.06c-.517.696-1.202 1.218-2.056 1.564-.854.347-1.728.52-2.622.52-1.072 0-2.047-.194-2.92-.58-.875-.388-1.625-.91-2.25-1.565s-1.107-1.43-1.445-2.324-.506-1.847-.506-2.86c0-1.053.158-2.035.477-2.95.316-.913.783-1.708 1.4-2.384.615-.675 1.355-1.207 2.22-1.594.864-.388 1.853-.582 2.966-.582 1.012 0 1.955.2 2.83.597s1.57 1.033 2.086 1.907h.06v-2.146h3.398zm-7.63 2.86c-.636 0-1.21.105-1.728.313-.516.21-.96.498-1.326.865s-.654.814-.863 1.34c-.21.527-.314 1.108-.314 1.744 0 .575.105 1.112.314 1.608s.5.934.88 1.31c.376.38.823.677 1.34.896.517.22 1.073.328 1.67.328.653 0 1.245-.11 1.772-.328.524-.22.972-.512 1.34-.88s.65-.81.85-1.325.298-1.074.298-1.67c0-1.252-.38-2.265-1.133-3.04-.756-.774-1.79-1.162-3.1-1.162zM311.707 94.538v-3.04h2.95v-4.143h3.577v4.142h3.934v3.04h-3.934v6.26c0 .714.133 1.28.402 1.697.268.417.8.626 1.594.626.318 0 .666-.035 1.043-.104s.676-.184.895-.343v3.01c-.38.18-.84.303-1.387.373-.546.068-1.026.104-1.444.104-.953 0-1.732-.104-2.338-.312-.607-.21-1.084-.526-1.432-.953-.348-.428-.586-.96-.715-1.596-.128-.636-.192-1.37-.192-2.206V94.54h-2.95zM324.254 98.65c0-1.133.203-2.16.61-3.085.407-.924.958-1.713 1.653-2.37s1.52-1.16 2.475-1.52c.953-.356 1.967-.536 3.04-.536s2.085.18 3.038.536 1.777.863 2.473 1.52 1.248 1.445 1.654 2.37c.408.923.61 1.95.61 3.083 0 1.132-.202 2.16-.61 3.083-.406.924-.96 1.715-1.654 2.37-.695.655-1.52 1.16-2.473 1.52-.953.357-1.967.536-3.04.536s-2.085-.18-3.038-.537c-.955-.358-1.78-.864-2.475-1.52-.695-.655-1.246-1.446-1.654-2.37-.406-.924-.61-1.95-.61-3.084zm3.574 0c0 .556.096 1.093.283 1.608.19.518.468.974.837 1.37.367.398.81.716 1.326.954s1.102.357 1.758.357c.655 0 1.24-.12 1.76-.358.515-.238.958-.556 1.325-.953s.645-.855.834-1.372c.188-.516.282-1.053.282-1.61 0-.555-.094-1.09-.283-1.608-.19-.516-.468-.973-.835-1.37s-.81-.716-1.326-.954c-.52-.238-1.105-.357-1.76-.357s-1.24.118-1.757.356c-.518.238-.96.557-1.326.954-.37.397-.646.854-.836 1.37-.186.517-.282 1.053-.282 1.61zM343.146 91.497h3.396v2.295h.06c.337-.715.855-1.336 1.55-1.862s1.64-.79 2.832-.79c.953 0 1.762.16 2.428.478s1.207.735 1.625 1.25c.416.52.715 1.114.893 1.79.18.675.27 1.38.27 2.115v9.03h-3.576V98.56c0-.397-.02-.84-.06-1.326s-.146-.943-.313-1.37c-.17-.428-.43-.785-.788-1.074-.357-.287-.846-.432-1.46-.432-.597 0-1.1.1-1.505.3-.408.197-.746.466-1.014.803-.27.34-.463.727-.582 1.164-.118.437-.177.894-.177 1.37v7.808h-3.576V91.497z"/><g fill="#231F20"><path d="M80.678 16.674v-4.5h4.367v-6.13h5.294v6.13h5.822v4.5H90.34v9.265c0 2.116.616 3.44 2.955 3.44.926 0 2.206-.177 2.867-.662v4.455c-1.103.53-2.956.706-4.19.706-5.604 0-6.927-2.515-6.927-7.5v-9.706h-4.367zM105.603 15.13h.088c.84-1.763 2.957-3.484 6.222-3.484 5.69 0 7.72 4.014 7.72 8.337V33.35h-5.294V22.63c0-2.338-.176-6.22-3.882-6.22-3.484 0-4.852 2.56-4.852 5.382V33.35h-5.293V0h5.294v15.13zM127.66 24.616c.353 3.13 2.735 5.028 5.69 5.028 2.648 0 4.368-1.234 5.692-2.867l3.793 2.867c-2.47 3.045-5.602 4.235-8.955 4.235-6.396 0-11.513-4.457-11.513-11.117 0-6.662 5.117-11.117 11.513-11.117 5.91 0 9.926 4.147 9.926 11.514v1.456H127.66zm10.853-3.97c-.044-3.088-2.073-5.03-5.382-5.03-3.13 0-5.072 1.986-5.47 5.03h10.853zM161.628 24.616c.354 3.13 2.735 5.028 5.69 5.028 2.647 0 4.368-1.234 5.69-2.867l3.795 2.867c-2.47 3.045-5.603 4.235-8.955 4.235-6.397 0-11.514-4.457-11.514-11.117 0-6.662 5.117-11.117 11.514-11.117 5.91 0 9.926 4.147 9.926 11.514v1.456h-16.146zm10.85-3.97c-.042-3.088-2.072-5.03-5.38-5.03-3.133 0-5.073 1.986-5.47 5.03h10.85zM177.643 12.175h5.778l5.648 14.822h.087l5.69-14.822h5.427l-8.337 21.175h-5.647l-8.645-21.175zM205.39 24.616c.354 3.13 2.735 5.028 5.69 5.028 2.647 0 4.37-1.234 5.692-2.867l3.792 2.867c-2.468 3.045-5.6 4.235-8.953 4.235-6.395 0-11.514-4.457-11.514-11.117 0-6.662 5.12-11.117 11.515-11.117 5.913 0 9.925 4.147 9.925 11.514v1.456H205.39zm10.852-3.97c-.043-3.088-2.073-5.03-5.38-5.03-3.134 0-5.074 1.986-5.473 5.03h10.852zM224.934 12.175h5.293v3.353h.088c1.147-2.426 3.485-3.882 6.265-3.882.66 0 1.28.133 1.897.31v5.116c-.883-.22-1.72-.397-2.56-.397-4.983 0-5.69 4.19-5.69 5.338V33.35h-5.293V12.175zM262.52 12.175v19.278c0 7.632-3.705 12.484-11.956 12.484-3.925 0-7.5-.838-10.498-3.484l3.177-4.324c2.117 1.94 4.322 3.043 7.276 3.043 5.117 0 6.706-2.912 6.706-7.103v-1.544h-.09c-1.542 2.074-4.278 3.088-6.926 3.088-6.35 0-10.542-4.852-10.542-10.85 0-6.266 3.927-11.118 10.455-11.118 2.955 0 5.735 1.146 7.28 3.706h.087v-3.176h5.03zm-17.56 10.543c0 3.353 2.65 6.132 6.222 6.132 3.926 0 6.31-2.69 6.31-6.22 0-3.66-2.43-6.22-6.266-6.22-3.705 0-6.265 2.56-6.265 6.308zM265.828 12.175h5.294v3.353h.087c1.147-2.426 3.483-3.882 6.265-3.882.66 0 1.28.133 1.896.31v5.116c-.882-.22-1.72-.397-2.558-.397-4.983 0-5.69 4.19-5.69 5.338V33.35h-5.294V12.175zM285.902 24.616c.352 3.13 2.733 5.028 5.69 5.028 2.646 0 4.364-1.234 5.69-2.867l3.793 2.867c-2.47 3.045-5.604 4.235-8.956 4.235-6.397 0-11.513-4.457-11.513-11.117 0-6.662 5.115-11.117 11.512-11.117 5.91 0 9.927 4.147 9.927 11.514v1.456h-16.145zm10.85-3.97c-.043-3.088-2.073-5.03-5.382-5.03-3.132 0-5.072 1.986-5.468 5.03h10.85zM309.898 24.616c.354 3.13 2.734 5.028 5.69 5.028 2.647 0 4.367-1.234 5.69-2.867l3.794 2.867c-2.47 3.045-5.602 4.235-8.956 4.235-6.395 0-11.513-4.457-11.513-11.117 0-6.662 5.118-11.117 11.513-11.117 5.912 0 9.927 4.147 9.927 11.514v1.456h-16.145zm10.852-3.97c-.044-3.088-2.073-5.03-5.38-5.03-3.133 0-5.075 1.986-5.472 5.03h10.852zM329.31 12.175h5.028v3.397h.087c.97-2.118 2.956-3.926 6.485-3.926 5.69 0 7.72 4.014 7.72 8.337V33.35h-5.293V22.63c0-2.338-.178-6.22-3.882-6.22-3.484 0-4.853 2.56-4.853 5.382V33.35h-5.294V12.175z"/></g><g fill="#231F20"><path d="M118.23 57.824c-1.015-1.412-2.338-2.162-4.147-2.162-1.412 0-3.087.662-3.087 2.25 0 3.794 11.425.706 11.425 8.956 0 5.03-4.808 6.793-9.13 6.793-3.265 0-6.088-.836-8.25-3.263l3.53-3.31c1.366 1.5 2.778 2.604 5.027 2.604 1.544 0 3.53-.75 3.53-2.426 0-4.367-11.426-.926-11.426-8.998 0-4.72 4.236-6.838 8.515-6.838 2.823 0 5.823.88 7.544 3.22l-3.53 3.176zM124.052 56.457v-4.5h4.368v-6.132h5.293v6.132h5.823v4.5h-5.823v9.264c0 2.118.618 3.44 2.956 3.44.925 0 2.204-.175 2.866-.66v4.456c-1.103.53-2.956.705-4.19.705-5.604 0-6.926-2.514-6.926-7.498v-9.705h-4.368zM156.918 70.22h-.132c-1.5 2.383-3.97 3.44-6.793 3.44-3.926 0-7.72-2.162-7.72-6.352 0-6.882 8.028-7.368 13.322-7.368h1.323v-.573c0-2.602-2.03-3.972-4.853-3.972-2.206 0-4.235.883-5.646 2.206l-2.78-2.775c2.338-2.383 5.647-3.398 9-3.398 9.043 0 9.043 6.53 9.043 9.528V73.13h-4.765v-2.91zm-.31-6.573h-1.102c-2.91 0-7.94.22-7.94 3.266 0 1.94 1.985 2.778 3.706 2.778 3.617 0 5.337-1.896 5.337-4.852v-1.19zM164.46 56.457v-4.5h4.37v-6.132h5.294v6.132h5.822v4.5h-5.822v9.264c0 2.118.615 3.44 2.955 3.44.924 0 2.204-.175 2.866-.66v4.456c-1.103.53-2.956.705-4.19.705-5.605 0-6.927-2.514-6.927-7.498v-9.705h-4.37zM188.33 64.396c.35 3.133 2.732 5.03 5.69 5.03 2.645 0 4.364-1.235 5.69-2.867l3.79 2.867c-2.468 3.043-5.6 4.233-8.954 4.233-6.396 0-11.512-4.455-11.512-11.116s5.116-11.117 11.512-11.117c5.912 0 9.928 4.147 9.928 11.514v1.455H188.33zm10.85-3.97c-.044-3.087-2.073-5.03-5.38-5.03-3.134 0-5.075 1.987-5.47 5.03h10.85zM234.735 58.31c-1.235-1.28-2.6-2.118-4.014-2.118-3.88 0-6.22 3.044-6.22 6.353 0 3.308 2.34 6.35 6.22 6.35 1.634 0 3.132-.703 4.103-1.98l3.53 3.792c-2.162 2.162-5.78 2.955-7.632 2.955-6.395 0-11.514-4.455-11.514-11.116s5.118-11.117 11.515-11.117c2.692 0 5.647.97 7.677 3.22l-3.662 3.66zM251.544 51.428c6.396 0 11.514 4.456 11.514 11.117S257.94 73.66 251.544 73.66c-6.396 0-11.514-4.454-11.514-11.115s5.118-11.117 11.514-11.117zm0 17.467c3.883 0 6.222-3.043 6.222-6.35 0-3.31-2.34-6.354-6.222-6.354-3.88 0-6.22 3.045-6.22 6.354 0 3.308 2.34 6.35 6.22 6.35zM265.97 39.782h5.294v33.35h-5.294v-33.35zM277.263 39.782h5.294v33.35h-5.294v-33.35zM291.292 64.396c.353 3.133 2.733 5.03 5.69 5.03 2.647 0 4.367-1.235 5.69-2.867l3.793 2.867c-2.47 3.043-5.602 4.233-8.955 4.233-6.396 0-11.513-4.455-11.513-11.116s5.117-11.117 11.513-11.117c5.913 0 9.926 4.147 9.926 11.514v1.455h-16.144zm10.852-3.97c-.044-3.087-2.072-5.03-5.38-5.03-3.134 0-5.075 1.987-5.472 5.03h10.852zM332.714 51.957v19.276c0 7.634-3.705 12.486-11.954 12.486-3.926 0-7.5-.84-10.498-3.487l3.177-4.322c2.114 1.94 4.32 3.044 7.276 3.044 5.117 0 6.705-2.91 6.705-7.1v-1.545h-.088c-1.544 2.07-4.28 3.086-6.925 3.086-6.354 0-10.544-4.852-10.544-10.852 0-6.266 3.927-11.117 10.455-11.117 2.956 0 5.735 1.147 7.278 3.706h.088v-3.176h5.03zM315.157 62.5c0 3.352 2.646 6.132 6.222 6.132 3.924 0 6.305-2.69 6.305-6.22 0-3.663-2.426-6.22-6.263-6.22-3.705 0-6.265 2.558-6.265 6.308zM340.833 64.396c.353 3.133 2.735 5.03 5.69 5.03 2.647 0 4.366-1.235 5.69-2.867l3.794 2.867c-2.47 3.043-5.604 4.233-8.955 4.233-6.397 0-11.514-4.455-11.514-11.116s5.116-11.117 11.514-11.117c5.91 0 9.926 4.147 9.926 11.514v1.455h-16.145zm10.852-3.97c-.045-3.087-2.073-5.03-5.383-5.03-3.132 0-5.072 1.987-5.47 5.03h10.853z"/></g><path fill="#231F20" d="M57.66 73.918c-.498.356-1.97.39-2.17.937-.133.217.045.51-.044.724-.28.673-.667.574-.596 1.616.208.135.465.37.64.55h.425c.113-.176.25-.253.553-.253.136.135.414.364.595.428.61.205.795-.305 1.364-.173.487.116 1.087.213 1.574.385.162.056.537.23.768.17.353-.092.473-.508.765-.637.56-.256 1.45-.115 2.083-.26.55-.12 1.168.12 1.575.217.44-.03.882-.06 1.318-.083.674.148 1.157.535 1.914.55v-.042h.043c.02-.16-.024-.53.043-.724.066-.192.196-.153.213-.466-.186-.144-.37-.422-.595-.515-.48-.2-.935-.048-1.405-.17l-1.02-.382c-.562-.163-1.102.52-1.19.427-.218-.09-.158-.208-.51-.212-.18-.113-.404.034-.597 0-.16-.027-.677-.132-.808-.214-.24-.15-.518-.54-.638-.808-.012-.073-.028-.14-.043-.212-.082-.12-.85-.474-1.02-.51-.138-.033-.33.06-.425.083-.245.06-.39 0-.597.085-.23.1-.55.486-1.022.342-.407-.127-.364-.617-.637-.767-.114-.1-.33-.09-.553-.085M7.754 62.35c-.348.226-.788.21-1.19.38-.252.106-.32.37-.512.51-.33.244-.643-.02-.64.6.358.085.69.09 1.023.208.155.058.386.25.553.302.275.08.982-.2 1.233-.256.102-.116.2-.226.298-.343.008-.4-.175-.484-.255-.72-.104-.312.153-.51-.212-.638-.063-.048-.17-.045-.296-.042m36.12-8.002c-.03.397-.592.52-1.02.513.016-.523.555-.558 1.02-.512m-1.828-1.533c-.388.234-.884.043-1.406.172-.648.16-1.467.253-2.083.51-.422.175-.917.4-1.32.64-.35.208-.53.685-.767 1.022-.037.054-.966.477-1.06.51-.562.175-.796-.368-1.022-.472h-1.02c-.355.206-.874-.105-1.28 0-.496.137-1.172.195-1.658.387-.87.333-1.662 1.02-2.552 1.358-.2.03-.398.058-.596.086-.258.08-.55.244-.81.337-.302.11-.562.092-.85.216-.466.197-.82.596-1.36.722-.252.06-.577-.14-.937-.042-.39.106-.812.352-1.19.468-.27-.012-.54-.026-.81-.04-.252 0-.426.044-.595.082l-1.106.044c-.504.115-.946.268-1.363.385l-1.615.085c-.318.08-.787.188-1.107.257-.328.074-.548-.15-.892-.04-.268.074-.535.286-.81.38-.676.23-1.426.28-2.085.553-.387.16-.806.61-1.104.893-.018.464-.018 1.24.212 1.617.13.206.383.324.512.508.098.143.088.36.21.47.09.08.284.06.342.172.077.142-.042.256.085.34.107.07.225.023.34.085.12.06.21.244.34.297.34.14.57.143.937.256.42.128.88.353 1.317.47.378.096.81-.07 1.065-.13.61-.144 1.43.086 1.957.215.222.052.467-.047.64.04.962.497 2.068.993 2.934 1.617.24.17.388.438.596.636.137.135.357.187.51.3.277.207.483.57.768.766.402.28.905.622 1.36.808.585.24 1.423.087 1.956-.04h.596c.19-.04.587-.08.808-.13h.724c.456-.114.998-.348 1.446-.426.593-.1 1.017.395 1.404.556.187.075.48.127.637.17.475.123 1.612-.02 1.916-.088.64-.14 1.317.276 2.086.09.696-.176.73-.6 1.19-.854.285-.16.55-.112.723-.427.145-.26.052-.666.213-.893.15-.21.487-.224.637-.427.173-.25-.09-.554.3-.637.205.285.68.103 1.063.212.2.062.433.26.596.385.12.093.106.28.21.38.074.075.21.03.255.128v.344c.044.096.23.213.298.295.267.323.394.803.637 1.15.06.084.183.103.256.17.447.416.858.78 1.362 1.147.296.216.296.514.808.554.065-.044.186-.038.258-.085.102-.073.25-.287.338-.387.75-.046.873.248 1.275.64l.3.214c.145.19.252.484.467.598.262.132.72-.08 1.02.04.075.028.188.172.256.214.256.153.674.3.937.382.342.106.88-.062 1.19 0 .35.07.895.65 1.404.297.217-.074.854-.772.94-.98.118-.3.103-1.927.04-2.215v-.978c-.072-.27-.264-.75-.214-1.106.138-.932.18-2.19.427-3.228v-1.365c.21-.945.197-2.054-.042-2.935-.106-.38-.02-.885-.086-1.19-.043-.183.03-.38.04-.508.047-.487-.01-2.5-.166-2.77-.152-.25-1.144-.116-1.406-.168-.332-.07-.565-.348-.85-.47-.312-.13-.626-.044-1.02-.125-.112-.026-.42-.095-.598-.044-.305.09-.404.345-.767.385-.07-.07-.235-.093-.295-.17-.134-.17-.13-.42-.254-.595-.1-.073-.2-.143-.3-.213-.93-.02-1.23.577-1.828.895-.39.203-.71.194-1.193.34-.375.11-.838.335-1.232.465-.156.028-.312.058-.468.088-.767.322-1.565.772-2.254 1.19-.126.042-.255.085-.382.125-.568.36-1.438.86-2.382.682-.093-.17-.217-.426-.3-.597-.303-.643.097-.902.47-1.148.122-.08.236-.234.382-.298.7-.293 1.878-.352 2.253-.934.22-.34-.01-.683.084-.978.078-.24.48-.766.682-.895.436-.28 1.664-.082 1.742-.684-.064-.046-.033-.043-.125-.084-.212-.14-.88-.048-1.187-.045m10.89-.68c-.676.534-1.494.866-2.425 1.15-.41.124-.834-.063-.85.47h.084c.283.19.934.137 1.276.043.673-.192 2.343-.81 2.424-1.49-.145-.14-.188-.18-.51-.174m2.68-3.656c-.17.525.182 1.055 0 1.573-.045.14-.236.24-.295.385l-.172 1.32c.09.422.317.8.34 1.188-.412.383-.262.955-.127 1.49.472.207 1.11.16 1.576.043.333-.08.618.052.894 0 .265-.047.493-.093.81-.166.285-.074.846-.237 1.19-.174.27.05.506.188.724.256.246.073.432-.02.637.084.18.092.348.278.595.342.372.092.896-.03 1.152-.084h.51c.308-.073.627-.126 1.063-.13.127 0 .263-.057.34-.042.098.017.25.178.34.21.54.204 1.512.094 1.872-.167.032-.05.027-.04.042-.13-.256-.115-.717-.103-1.062-.165-.353-.59-.828-.918-1.36-1.322-.228-.254-.455-.51-.682-.767-.073-.016-.142-.025-.215-.04-.068-.084-.142-.17-.212-.258-.194-.108-.412-.094-.595-.21-.16-.103-.35-.27-.55-.34-.144-.015-.288-.03-.43-.043-.066-.026-.182-.148-.252-.17-.155-.05-.378.073-.472.043-.082-.033-.153-.216-.254-.255-.155-.016-.31-.028-.466-.043-.223-.084-.47-.306-.723-.382-.136-.042-.308.033-.384.042-.26.034-.505-.085-.724-.17-.33-.128-.852-.547-1.146-.767-.075-.083-.142-.17-.214-.254-.292-.195-.943-.28-1.19-.468-.234-.18-.084-.38-.557-.428m-.297-9.06c-.075.232-.18.394-.13.678.555.137.806.628 1.362.722.028-.072.04-.133.042-.253-.057-.157-.112-.314-.167-.47-.173-.256-.505-.456-.724-.678h-.382zm-5.53.68v.17c.108.064.253.18.38.21.29.08.457-.136.6-.082.37.103.888.42 1.02.766.127.337.112.617.296.89.142.116.285.23.426.34.1.16.013.362.087.554.06.172.303.3.424.425h.214c.033-.093.044-.23.044-.382-.094-.17.04-.66.04-.977l-.04-2.337c.067-.296.193-1.078 0-1.362-.06-.038-.108-.038-.215-.042-.212.316-.677.41-.98.64-.13.1-.155.24-.253.382-.396.565-1.055.807-2.043.807m-.3 0c-.026-.494-.416-.582-.466-1.147.198-.13.372-.368.384-.682-.7-.018-1.14.305-1.616.508-.296.13-.577.058-.596.47.14.036.232.135.34.17.314.1.59-.033.85.084.41.182.48.577 1.105.597M54.51 24.4c-.17.154-.26.115-.254.468.147.14.19.177.508.17.072-.133.09-.277.085-.51-.035-.047-.016-.013-.044-.088-.076-.026-.166-.038-.297-.04m.042-1.582h-.213c-.055.22-.086.918-.084 1.24.115.06.322.083.524.086.026-.083.042-.166.042-.3-.086-.122-.25-.844-.27-1.026M16.86 20.1c-.46.77-.147 1.73.296 2.342.268.37.636.647 1.15.766h.596c.068.02.185.142.253.17.423.156.95.195 1.363.298l.724.04c.362.083.958.24 1.446.13.392-.088.733-.215 1.105-.297v-.17c-.432-.167-.967-.295-1.447-.427-.326-.03-.65-.056-.978-.087-.547-.162-1.074-.497-1.532-.765-.156-.057-.31-.113-.467-.168-.346-.214-.654-.536-.98-.77-.153-.105-.32-.14-.468-.252-.34-.248-.51-.785-1.063-.81m36.457-1.66h.356c.044-.122.046-.325.044-.51-.034-.042-.158-.153-.187-.227-.064-.023-.074.115-.17.102-.05.15-.044.42-.043.636m-33.522-4.593c-.753.607-2.48 1.054-2.47 2.34.125.152.247.43.3.637v.724c.08.328.273.838.424 1.15.122.25 1.16.67 1.448.893.21.167.334.886.637 1.108.414.303 1.07.552 1.617.68.28.068.6-.15.808-.084.07.085.143.17.213.256.185.122.33.053.594.127.1.027.24.142.343.172.35.094 1.915-.28 2.167-.386.347-.143.8-.375 1.107-.596.15-.11.27-.322.426-.426l.764-.255c.144-.11.184-.362.343-.468.26-.174.598-.166.85-.342.307-.21.393-.723.553-1.106.23-.552.613-1.005.3-1.788-.19-.08-.454-.14-.64-.255-.173-.106-.34-.32-.554-.383-.345-.097-.72.08-.938.127-.343.084-.507-.15-.807-.08-.176.038-.382.2-.68.124-.328-.085-.83-.143-1.148-.296-.113-.057-.27-.176-.424-.216l-1.616.087c-.482-.147-.97-.552-1.447-.68l-.554.04c-.233-.048-.667-.26-.892-.38-.274-.148-.273-.56-.554-.682-.048-.036-.07-.032-.17-.043m3.022-.17c-.064.093-.076.08-.086.257.035.043.016.01.043.085.223.128.535.385.766.465.108.036 1.04.183 1.104.17.098-.02.347-.08.51-.04.413.094.82.163 1.405.168.025-.074.036-.13.04-.254h-.04v-.045c-.198-.02-.354-.138-.597-.083-.115.025-.307.144-.51.083-.85-.256-1.52-.772-2.637-.81m2.764-1.91c-.102.063-.27.003-.425.042-.176.042-.38.226-.51.255-.406.09-.872-.31-1.405-.214-.023.068-.033.104-.042.214.386.09.78.318 1.148.426.43.12.786-.046 1.19.08.267.09.603.29.852.384.354.088.71.174 1.062.258.238.107.33.36.51.512.102.08.234.09.342.168.656.476.572.72 1.787.726.058-.11.08-.15.083-.344-.048-.057-.063-.12-.084-.21-.133-.08-.255-.22-.385-.297-.346-.216-1.047-.276-1.19-.683-.07-.115-.01-.39-.086-.512-.154-.25-.358-.186-.68-.294-.662-.226-1.234-.51-2.17-.51m27.653-6.298c-.454.306-1.14.318-1.703.51-.666.224-1.553.45-2.254.636-.33.09-.533.028-.852.128l-.85.468c-.256.056-.51.112-.765.17-.674.286-.876 1.148-1.49 1.532-.482.3-1.052.528-1.616.725-.128.012-.256.025-.384.04-.584.21-1.176.473-1.745.683-.335.12-.592.103-.936.212-.603.19-1.157.64-1.787.724-.08.01-.28-.073-.34-.086-.093-.02-1.588.003-1.745.043-.13.034-.346.136-.47.17-.35.095-1.802-.22-2.125-.298h-1.66c-.215-.048-.71-.083-.936-.083-.146 0-.39.086-.596.042-.58-.13-1.604-.216-2.296-.085-.028.08-.04.163-.042.297.075.054.1.16.17.213.255.177.753.275.936.51.11.14.077.44.21.55.222.18.596.162.77.383.146.198.195.43.337.638.132.195.354.347.51.514.924.014 2.173-.798 2.893-1.104.27-.116.452-.08.767-.17.694-.204 1.564-.542 2.298-.725.98-.243 1.67.465 2.51.255.307-.077 1.443-.425 1.746-.384.518.075 1.02.148 1.486.258h1.278c.303.066.692.045 1.02.042.085.012.17.027.254.042.093-.024.22-.143.297-.17.142-.016.285-.03.428-.043.05-.02.147-.147.21-.17.3-.104.543-.043.81-.17.024-.013.09-.116.128-.13.127-.043 1.072-.146 1.148-.125.16.038.416.222.636.084.168-.06.18-.176.3-.255.233-.16.52-.202.68-.428.104-.142.113-.32.214-.467.287-.42.842-.604 1.02-1.147.016-.213.03-.426.044-.64-.01-.033-.122-.14-.127-.17-.052-.226.17-.292.212-.424.174-.52-.178-1.16.51-1.193.144.09.97.09 1.15.128.257.406.588.688.723 1.234.117.478-.205.843-.297 1.192-.13.483-.008.94.04 1.32.028.203-.083.446-.04.68l.128.043c.182.114.398-.05.553-.087.303-.068.59.21.935.087.064-.023.62-.443.682-.51.214.04.41-.026.597.04.458.16 1.076.457 1.533.597.495.153.935-.29 1.403-.214.566.093 1.18-.063 1.744-.212h.594c.59-.137 1.245-.213 1.958-.297.107-.15.3-.252.385-.424.116-.247.1-.487.256-.68.066-.044.14-.087.21-.127.065-.11.017-.247.087-.34.097-.142.217-.047.382-.13.067-.1.14-.2.21-.297.042-.45-.045-1.225-.425-1.363-.237-.145-.8.02-1.02.085-.304.092-.538.23-.81.34-.378.155-.79.188-1.19.298-.207.056-.578.213-.854.13-.22-.072-.505-.234-.763-.298-.302-.075-.586.04-.81 0-.426-.077-.988-.22-1.315-.426-.474-.297-.743-.826-1.067-1.28-.057-.04-.114-.083-.17-.125-.113-.197-.108-.405-.297-.51-.408-.232-1.04-.013-1.574-.13-.182-.04-.483-.13-.723-.083-.087.018-.31.076-.467.042-.25-.056-.535-.086-.85-.086m-36.8 18.72c-.193-.108-.44-.43-.51-.64v-.765c-.082-.358-.21-.84-.297-1.19-.082-.323-.03-.728-.086-1.022-.052-.287.133-.674.045-1.02-.108-.417-.056-.612.042-.98.083-.32-.088-.696-.042-.934v-1.232c.04-.19.13-.45.167-.6.11-.403-.042-.803.087-1.146.2-.546.717-.733 1.02-1.15.403-.554.942-1 1.53-1.36.166-.1.362-.105.513-.212.172-.12.3-.343.468-.468.43-.326.87-.635 1.234-1.02.492.006 1.332.29 1.702.21.31-.065.722-.02 1.02-.126.188-.067.428-.237.64-.298.213-.016.427-.027.637-.044.134-.035.353-.13.513-.17.53-.123.943.206 1.402.088.175-.045.47-.03.68-.087.356-.092.938-.36 1.448-.253.235.05.647-.023.937.043.765.168 1.638.138 2.467.255.48.066 1.204-.124 1.66-.045.34.058.883-.04 1.276.045.847.178 2.093.123 2.85-.045.467-.103.83.114 1.32 0 .713-.164 1.632-.202 2.423-.466.34-.12.7-.386 1.02-.514.546-.22 1.105-.29 1.573-.596.303-.2.434-.61.72-.808.166-.11.32-.144.47-.256.17-.127.277-.364.468-.466.072-.017.143-.03.216-.045.083-.056.096-.187.168-.257.102-.097.687-.486.808-.553.477-.252 1.082-.273 1.616-.468.38-.134.772-.438 1.15-.55.43-.13.814-.042 1.275-.173.266-.074.537-.283.767-.383.372-.16.706-.072 1.147-.17.408-.092 1.052-.306 1.663-.172.56.127 1.048.213 1.615.342.633.143 1.287.003 1.7.34.045.115.085.228.128.342.072.056.14.113.213.168.25.37.36.852.682 1.15.133.126 1.232.443 1.49.51h.596c.22.077.382.355.64.426.534.147 1.303-.378 1.57-.554.292-.19.685-.227.98-.425.15-.103.19-.27.296-.426.348-.5 1.076-.75 1.872-.552.237.36.46.66.47 1.274.18.11.416.228.597.34-.032.076-.01.044-.046.086-.105.26-.448.315-.552.595-.132.356.188.68.04 1.107-.042.125-.213.23-.253.382-.102.36.162.63.127.852-.043.276-.25.477-.258.893.414-.01.586-.14.894-.212.356-.016.71-.03 1.063-.043.154-.042.33-.207.555-.17.208.033.958.244 1.106.34.098.063.175.202.298.254l.637.13c.436.18.844.527 1.234.765.627.384 1.483.363 1.83 1.02.458.875.298 1.824.553 2.893v.51c.19.834.447 1.668.64 2.426.072.296.11.762.124 1.024v.678c.064.236.18.89.13 1.19-.017.1-.078.344-.043.512.025.116.087.414.043.596-.06.237-.196.474-.254.723-.016.283-.033.565-.043.85-.164.59-.627 1.417-.427 2.297.317 1.403.192 3.07.51 4.51v.85c0 .578.022 1.125.128 1.534v.935c.1.455.05 1.163.127 1.658-.19.49-.253 1.268-.255 1.873v1.022c-.22 1.018-.28 2.952-.04 4.04-.016.964-.033 1.928-.043 2.893.235 1.077.308 2.268.55 3.362.147.648-.052 1.492.088 2.126.03.156-.024.38-.044.47-.075.36.103.64.045.978-.044.25-.138.637-.09.935.055.304.112.724.173 1.02-.014.284-.027.568-.043.854.195.72.293 1.678.128 2.425-.083.39.045.972 0 1.238l.128 2.082c-.016.21-.03.424-.042.636.055.274.18.78.085 1.155-.125.49-.083 1.098.044 1.61v.597c.054.2.198.44.253.683v1.06c.203.913-.14 2.047.087 3.066v.467c.214.974.305 1.715.298 2.725-.005.416 0 .9-.088 1.19l-.042.727c-.086.26-.67.614-.85.976-.155.31-.097.688-.255.98-.137.253-.45.455-.553.722-.03.154-.058.312-.088.468-.11.178-.36.237-.51.383-.1.096-.142.253-.252.34-.3.224-.59.413-.895.636-.367.27-.606.757-1.02.98-.186.042-.37.084-.553.128-.284.104-.548.317-.81.422-.245.107-.465.116-.68.257-.085.1-.17.2-.257.3-.424.286-.91.418-1.403.64-.232.1-.416.263-.722.336h-.64c-1.07.244-2.364-.04-3.532.213l-1.275.046c-.07-.016-.29-.084-.424-.047-.042.012-.165.115-.213.127-.397.013-.796.03-1.19.044-1.175.27-2.34.283-3.53.428-.155.016-.618-.055-.768-.084-.166-.036-.414.022-.51.038-.097.022-.874-.073-.937-.085-.502-.093-1.147.11-1.576.048-.25-.044-.57-.21-.935-.13-.968.205-2.59.36-3.617.214-.54.027-1.078.055-1.615.08-.31-.064-.69-.15-.938-.21-.216-.053-.95.113-1.233.084-.31-.026-.73-.144-1.022-.212-.384-.09-.9-.013-1.19-.083h-1.19c-.202-.046-.664-.16-.853-.13-.063.01-.242.12-.3.13-.15.022-.496-.097-.722-.046-.376.09-1.02.06-1.487-.04-.386-.083-.903.03-1.233-.044-.535-.115-.883.198-1.406.084-.228-.046-.52.05-.764 0-.514-.096-1.442-.096-1.958 0-.406.08-.71-.23-1.19-.123-.887.19-1.877-.05-2.852.17-.255-.013-.51-.03-.766-.046-1.214.27-2.696.153-3.913.388-.39.072-.948-.14-1.404-.046-.63.133-1.417.117-1.96 0-.123-.023-.23.034-.296.046-.356.052-.783-.03-1.02-.084h-.936c-.74-.196-1.868-.31-2.68-.13-.398.086-1.03-.084-1.318 0-.196.06-.257.345-.555.295-.242-.034-.578-.194-.807-.252h-.55c-.285-.07-.813-.15-1.064-.216-.297.017-.595.033-.892.047-.607-.16-1.53-.117-2.128-.257h-.64c-.61-.164-1.18-.7-1.7-1.022-.307-.187-.673-.163-1.022-.335-.264-.136-.516-.4-.766-.554-.252-.154-.554-.182-.81-.34-.196-.124-.198-.29-.337-.47-.103-.132-.38-.163-.47-.3-.01-.082-.026-.167-.04-.254-.08-.18-.263-.342-.342-.508-.105-.234-.07-.464-.168-.724-.174-.456-.397-.968-.512-1.532-.074-.367.183-.748.086-1.19-.125-.556-.087-1.353-.212-1.915l-.044-1.873c-.12-.555-.023-1.208-.126-1.66v-.81c-.072-.297.01-.647-.085-1.06-.24-1.027-.356-2.26-.426-3.403-.007-.125.06-.478.087-.596V63.71c.097-.46.072-1.098.168-1.53v-.64c.08-.362.138-1.14.042-1.57-.278-1.282.058-2.687-.254-3.96-.096-.39.03-.93-.043-1.272.015-.412.027-.822.043-1.235-.176-.796-.115-1.845-.298-2.684v-.595c-.083-.355-.064-.814-.17-1.23-.344-1.36-.643-3.522-.383-5.32.124-.86-.335-1.512-.127-2.427.103-.453.054-1.03.17-1.53.135-.58.28-1.204.424-1.79v-.976c.193-.886.017-2.037.212-2.935.063-.295-.067-1.493-.127-1.788l.042-1.363c-.03-.858-.042-1.863-.21-2.635-.145-.657.01-1.574.126-2.085.014-.312.026-.624.042-.935.196-.772.247-1.843.426-2.596l.084-1.49-.042-.34c.198-1.035.213-2.145.213-3.317l-.043-2c.09-.4.13-.884.214-1.236v-.507c.26-1.046.426-2.032.68-3.107.112-.48.037-.82.17-1.28.03-.1.143-.24.17-.343v-.38c.05-.112.25-.212.297-.34v-.3c.095-.29.24-.586.386-.808.154-.248.083-.655.38-.767.08.114.102-.023.298-.017.03-.08.04-.025.043-.154-.107-.064-.134-.064-.17-.213.1-.104.136-.3.256-.384.296-.098.595-.196.893-.297.143-.098.232-.284.338-.427.103-.133.24-.154.385-.256.267-.185.46-.535.723-.722.14-.102.303-.083.468-.17.32-.166.71-.44 1.02-.595h.214c.386-.267.772-.717 1.233-.895l.34-.04c.145-.06.31-.21.47-.26l.468-.04c.79-.26 1.704-.607 2.51-.852.443-.134 1.04-.024 1.447-.21.1.008.164.13.34.082.074-.02.265-.148.34-.17L17.71.74c.63-.118 2.41-.042 3.19.13.185.04.39-.057.512-.044.768.08 1.724.175 2.467.34h.81c.988.224 2.336 0 3.316.212.24.055.637-.003.808-.042.65-.142 1.36.046 1.958-.084.418-.093.864.06 1.19 0 .79-.145 1.96-.114 2.767-.298.565.015 1.134.028 1.7.042.375-.08.704.056 1.15-.042.547-.12 1.677-.128 2.17-.042.353.06.942-.145 1.23-.213.3-.072.642-.002.853 0 .686.008 1.322-.005 1.873-.13h.723c.27-.06.754-.106 1.02-.167h.596c.52-.122 1.146-.225 1.614-.34h.893c.174-.04.658-.12.894-.043.104.033.24.175.34.21.23.084.665.04.895.087L51.787.27c.36.084 1.253.176 1.575.132.44-.067.955-.185 1.363-.085h1.487c1.174.26 2.422.055 3.533.043.534-.006 1.16.017 1.658.127.253.053.583-.062.764-.044.464.048 1.035.12 1.406.214.752-.072 1.505-.145 2.253-.214.383.086.907.12 1.323.255.257.086.534.27.804.34.39.102.694.03 1.022.168.205.088.433.295.637.385.375.166.702.152 1.105.3.207.073.703.405.894.55.34.258.525.706.77 1.065.067.057.138.115.21.17.12.188.044.397.126.64.05.138.21.27.255.423.03.425.055.85.086 1.276.193.11.65.334.722.555.206.645-.523 1.032-.68 1.317-.06.102.012.247-.084.297h-.683c-.06-.048-.123-.062-.213-.084-.09-.255-.368-.335-.467-.597-.044-.282-.088-.568-.13-.85-.056-.162-.205-.356-.253-.554-.093-.365.082-.638-.043-.978-.03-.073-.143-.183-.17-.257l-.044-.298c-.066-.112-.262-.186-.343-.296-.105-.156-.146-.317-.294-.425-.328-.238-.63-.375-.98-.595-.11-.072-.222-.24-.34-.3-.054-.025-.417-.088-.425 0-.12-.146-.096-.233-.298-.298-.34-.04-.68-.083-1.022-.125-.247-.072-.553-.23-.81-.297h-.763c-.632-.14-1.445-.148-2.087-.3-.534-.124-1.37.015-1.786.084-.214.04-.81-.037-1.02-.083-.344-.08-.816.025-1.107-.04-.31-.072-.862-.014-1.106.04-.526.122-.898-.16-1.404-.082-.395.056-1.004-.056-1.448.042-.066.014-.25.07-.382.04-.59-.13-1.348-.024-2-.17-.5-.113-1.018-.226-1.49-.34-.55-.132-1.388.177-1.828.255-.17-.014-.34-.03-.51-.042-.255.056-.654.07-.893.127-.257.06-.66-.013-.85-.042-.774-.12-1.762-.02-2.382.13-1.063-.015-2.128-.03-3.19-.043-.614.155-1.376.225-2.045.385h-.98c-.764 0-1.558.017-2.21 0-.186-.014-.37-.03-.556-.042-.525.113-1.16-.044-1.744.086-.435.095-1.2.25-1.743.125-.304-.067-.776-.127-1.193-.085-.694.072-1.6.163-2.51.17l-.51.045c-.405-.08-.94.035-1.49-.046-.073-.01-.207-.07-.34-.04-.16.033-.496.085-.68.127h-.51c-.086.032-.143.18-.213.21-.167.078-.647.03-.765.046-.116.018-.334-.063-.426-.086-.474-.11-1.028-.03-1.446-.127-.51.014-1.022.03-1.532.042-.285-.064-.68-.033-1.02-.126-.348-.097-.81-.28-1.15-.386h-.34c-.854-.194-1.62-.15-2.382.044-.596.15-1.275.08-1.828.21l-1.15.044c-.33.083-.79.124-1.148.253-.252.09-.504.32-.767.427-.54.22-1.212.218-1.744.425-.47.186-.93.587-1.362.81-.127.03-.256.057-.382.084-.156.085-.28.293-.425.385-.203.127-.445.127-.64.256-.33.222-1.283.934-1.488 1.234-.083.123-.082.268-.17.384-.264.345-.704.607-.935.98-.116.184-.28.494-.34.68-.074.225.12.43.083.553-.022.077-.22.195-.256.298-.185.553.06 1.195-.084 1.744-.11.428-.235.99-.34 1.405v.468c-.024.07-.144.183-.17.255-.03.255-.056.51-.085.766-.108.385-.284.717-.384 1.147-.115.494.21.635.3.893.123.357-.148.71-.213.938-.15.53-.013 1.42-.086 1.87v.598c-.026.105-.14.276-.168.382-.162.578-.04 1.256-.17 1.83l-.043 1.447c-.137.613-.155 1.398-.085 2 .01.083-.072.202-.084.257v.68c-.078.283-.303.785-.212 1.19.157.7-.08 1.582.084 2.382.092.447 0 1.06 0 1.66 0 .24.062.59.042.763-.063.65-.085 1.478-.21 2 .013.24.028.483.043.723-.04.434-.072.953-.173 1.402l.042.726c-.005.462-.034 1.083-.128 1.49v1.106c-.106.43-.016 1.122-.126 1.614-.26 1.16-.328 3.14 0 4.427.145.564.042 1.26.17 1.787v.936c.24.91.148 2.1.38 3.02-.013.3-.025.597-.04.895.045.532.06 1.26-.043 1.74l.04.642c-.115.545-.028 2.36.13 2.98.123.48-.003 1.144.084 1.533v.72c.108.493.06 1.29-.042 1.745-.08.34-.02.96.042 1.234.076.342-.06.972-.128 1.23-.07.273.096.65.043.85-.03.02-.06.03-.088.047-.124.373.062.914.087 1.187-.016.286-.03.57-.044.854.11.473.087 1.264.212 1.828.03.137-.03.267-.043.34.016.54.028 1.075.043 1.616.137.57.11 1.282.257 1.918v.766c.09.34.043.904.168 1.274.086.25.234.59.297.894l-.042.598c.226.93.548 1.846.937 2.597.055.167.112.343.17.51.096.145.793.848.936.934.178.11.35.067.553.172.77.384 1.572.91 2.425 1.237.256.037.512.08.766.12.598.175 1.303.364 1.956.515.355.08.625-.09.895-.087.382.01.998.128 1.318.214.313-.012.626-.026.936-.04.27.06.586.15.852.212.12.028.286-.035.34-.04.09-.02.724.045.894.08.56.128 1.236.215 1.786.13.16-.023.302.193.594.13.25-.06.67 0 .854.04.736-.028 1.473-.055 2.21-.085.3-.046.82.106 1.277 0 .508-.114 1.035-.295 1.534-.426.36-.094.92 0 1.232-.04.14.028.285.056.426.082.493.05 1.06.053 1.403-.042.4-.105.967.04 1.32-.04.938-.214 1.586.368 2.427.17.56-.134 1.413-.068 2.04-.213h.426c.14-.036.368-.144.51-.168.085.015.17.025.255.04.498-.015.995-.025 1.49-.04.64-.14 1.562-.107 2.21.04.476.108 1.174.008 1.49-.04.113-.02.412.093.596.04.086-.025.188-.16.34-.128.073.02.214.145.297.17.2.014.4.032.6.044.14.052.305.213.465.257.162.04.196-.067.257-.09.035-.012 1.197.063 1.32.09 1.574.362 4.01.258 5.612.04.155-.02.457.064.68.042.858-.076 1.752.057 2.468-.082.426-.086.94.05 1.235.125.35.093 1.06 0 1.532 0 .67 0 1.23-.102 1.827-.084.748.022 1.758.077 2.385-.088.1-.023 1.16-.015 1.233 0 .13.03.34.146.55.088.324-.088.77-.258 1.108-.34h.765c.088-.01.16-.072.21-.084.108-.024.72.093.855.126.4.092.81-.066 1.06-.126.214.015.428.025.643.04.287-.07.717-.178 1.02-.254h.47c.24-.066.514-.27.722-.34.155.015.31.027.467.045.05-.018.14-.115.17-.13.115-.017.228-.03.34-.044.268-.1.554-.375.806-.51.454-.244.993-.318 1.407-.597.236-.16.423-.46.68-.6.304-.16.587-.22.85-.423.015-.042.028-.084.044-.126.128-.16.312-.252.47-.384.055-.045.07-.162.126-.214.14-.132.49-.292.596-.424.14-.174.17-.457.34-.593.13-.114.38-.153.466-.304.087-.144.03-.34.128-.466.055-.073.204-.094.256-.17.102-.156.17-.514.21-.686v-.72c.054-.24.128-.458.13-.766v-.678c.322-1.1.306-2.802.042-3.87v-.556c-.112-.47-.092-1.062-.212-1.573.013-.154.026-.31.042-.467-.083-.538-.11-1.302-.21-1.828-.06-.307.098-.663 0-1.02-.052-.185-.137-.522-.172-.77-.025-.18.046-.608 0-.81v-.762c-.076-.34-.208-.818-.126-1.236.065-.34-.07-.918-.13-1.32-.024-.16.096-.525.043-.764-.098-.447.052-.956-.044-1.405-.006-.028-.082-.215-.083-.255-.014-.4.094-.946.168-1.274.025-.115-.032-.257-.04-.302-.035-.167.058-.35.086-.465.032-.143-.027-.35-.044-.428-.06-.262.035-1.035.085-1.274.022-.102-.033-.22-.04-.258v-.848c-.047-.2-.15-.596-.13-.81.04-.428-.05-.813 0-1.36.02-.226.052-.586 0-.81-.082-.352.06-.708 0-.978-.11-.478.008-1.105-.084-1.486v-.85c-.036-.143-.104-.435-.127-.598l.042-.252c-.057-.296-.167-.58-.214-.896-.035-.25.076-.64 0-.98-.083-.377-.077-.903-.17-1.318.015-.23.03-.454.043-.682-.018-.206-.07-.45 0-.678.024-.082.147-.198.17-.255.204-.512-.258-1.084-.17-1.53.127-.648.426-2 .257-2.767-.26-1.167 0-2.52-.257-3.617-.13-.558.225-.99.086-1.573-.156-.652-.33-1.293-.47-1.958-.094-.46.25-1.035.17-1.446-.07-.373-.094-.765-.21-1.148-.042-.137-.187-.326-.213-.472.015-.14.028-.282.04-.422-.014-.204-.147-.438-.082-.724.06-.28.125-.504.127-.85 1.03-.71 1.276-2.266.81-3.79v-.51c-.094-.38-.165-.924-.257-1.32v-.677c-.107-.45-.265-.924-.384-1.365-.2-.728-.18-1.458-.552-1.997-.167-.242-.903-.887-1.19-.977-.2-.066-.374.124-.554 0-.028-.06-.057-.116-.085-.17-.114-.122-.45-.372-.597-.426-.216-.082-.386-.02-.596-.085-1.07-.35-2.153-.625-3.445-.342-.58.13-1.216-.072-1.7.13-.488.2-.94.57-1.277.936-.292-.01-.59-.184-.937-.087-.26.077-.67.34-1.02.298-.115-.01-.255-.134-.34-.168-.25-.102-1.64-.457-1.96-.38-.272.063-.506 0-.806.084-.273.072-.68.186-1.02.255-.23.046-.32-.087-.556-.087-.228.003-.4.07-.678 0-.254-.058-.54-.12-.723-.25-.213-.156-.143-.357-.514-.384-.106.065-.378.047-.553.04-.122.184-.405.487-.21.852.14.275.457.548.594.852.178.4.086.877.21 1.36.043.164.146.416.172.596.043.288-.196.72-.254.98-.084.376.113 1.16.212 1.402.163.07.52.14.596.297l.044.384c.147.27.78.548 1.104.637.613.168 1.217-.262 1.45.3.202.223.1.677.083 1.02-.78.52-1.183.215-1.87-.084-.312-.136-.626-.067-.938-.17-.332-.107-.55-.286-.98-.213v.086c-.376.588.42.943.513 1.232.105.336-.103.568 0 .936.083.293.328.653.425.935.106.317.033.887.042 1.278.194.123.383.21.598.342.167.198.34.395.51.596.223.164.46.252.68.424.235.184.45.54.767.64.2-.017.396-.03.596-.044.262.08.418.288.764.213.58-.127 1.648.2 1.875-.34.096-.158.13-.562.17-.724.428-.2 1.032-.498 1.572-.552.44.45 1.37.803 1.405 1.617-.308.446-.413 1.242-1.108 1.277-.106-.075-.32-.11-.468-.13-.322.346-.682.65-1.02.98-.382.003-.884-.015-1.15-.17-.146-.086-.288-.28-.467-.34-.53-.17-.916.372-1.317.423-.027.006-1.178-.33-1.32-.38-.267-.1-.57-.39-.852-.512-.255-.07-.51-.142-.766-.21-.228-.153-.243-.423-.593-.47-.047.035-.015.017-.09.04-.156.312-.327.625-.425 1.024v.68c-.034.127-.174.272-.212.386-.13.395-.127.87-.21 1.23l.04.767c-.068.334-.263 1.523-.126 1.916.032.092.163.14.21.212.194.295.266.59.47.85.137.18.386.213.466.47.102.32-.104.763-.042 1.107.153.07.394.107.555.21.29.186.518.573.81.768.266.17.576.162.895.292.196.082.47.276.68.34.345.106 1.26-.246 1.49-.34 1.012-.415 2.333-.93 3.53-.638.15.292.33.437.337.893-.068.116-.14.227-.212.34-.36.255-.882.292-.935.85.123.045.327.046.51.045.224.14.458-.042.598-.085.28-.09.548.01.723.04.144.385.62.29.64.766-.035.052-.033.073-.044.17-.216.137-.382.37-.552.556-.355-.003-.572.07-.807.125-.247.06-.65-.04-.855-.083-.783-.17-1.754.008-2.422-.13-.57-.11-1.442.075-1.573.427-.038.05-.035.074-.043.17.215.123.737.233.892.428.224.277.162.828.3 1.19.27.126.538.254.81.382.125.158.253.313.382.468.284.19.7.27 1.02.426.113.055.2.214.34.257h.595c.383.096.844.156 1.19.255.143.04.292-.017.387.04.542.168.653 1.104.508 1.703-.333.23-.264.307-.894.3-.18-.113-.44-.08-.636-.173-.117-.05-.204-.19-.3-.255-.368-.243-.793-.303-1.23-.468-.1-.036-.208-.176-.3-.21-.21-.083-.518-.124-.68-.173h-.382c-.096-.04-.176-.198-.255-.252-.248-.167-.61-.16-.853-.34-.255-.194-.103-.41-.595-.426-.124.168-.373.27-.467.468-.096.198 0 .44-.173.55-.114.08-.32.022-.423 0-.1.017-.2.032-.297.044-.43.018-.773-.134-.94-.382-.45-.584.42-1.263.556-1.574.082-.203-.003-.38 0-.64-.495-.322-.668-1-1.28-1.19-.953-.302-.84 1.406-.977 2.042-.145.666.043 1.44.383 1.874.175.223.524.352.682.596.164.257.17.56.34.807.215.317.64.357.936.598.07.098.143.196.21.298.106.07.218.017.34.083.074.087.145.17.214.255.588.383 1.274.517 1.874.894.2.125.3.385.55.467l1.275.127c.443.163.818.562 1.193.808.357.228.82.305 1.15.553.166.125.3.51.425.595.082.014.17.03.255.042.118.064.25.253.383.3h.765c.256.082.48.334.68.468.16.104.896.414 1.064.468h.595c.34-.015.682-.03 1.022-.042.087-.034.176-.167.253-.214.113-.068.2-.032.34-.084.194-.077.357-.26.553-.34.28-.113.688-.008.94.04.213.042.314-.052.465-.04.03.084-.005.306.044.424.087.21.453.262.34.683-.145.542-.607.722-.893 1.108-.17.223-.277.564-.554.675-.61.258-1.434.068-2.125.258-.274.075-.582.27-.852.343-.562.15-1.338-.06-1.915.083-.15.036-.54.144-.68.168-.173.034-.52-.1-.764-.04-.45.11-.886.272-1.406.38-.34.074-1.908-.11-2.172-.21-.068-.027-.18-.145-.254-.17-.225-.03-.452-.058-.678-.087-.23-.063-.668-.217-1.024-.124-.305.074-.636.293-.89.38h-.684c-.668.177-.802.077-1.405-.087-.26-.07-.534.14-.594.297-.195.267.148 1.165.214 1.534.025.15-.13.784-.172.98-.014.68-.03 1.36-.042 2.04-.09.41.028.978-.042 1.446-.08.538-.04 1.22-.04 1.832-.004.372.023.846-.046 1.146v.643c-.102.467-.146.92-.254 1.4-.015.354-.03.71-.042 1.067-.136.547-.303 1.112-.426 1.658l-.086 1.826c-.077.352-.16.76-.167 1.195.125.1.2.293.338.382.19.12 1.27.38 1.66.256.11-.036.227-.135.38-.172.045-.28.092-.47.342-.55.307-.233 1.076.01 1.404-.213.19-.13.514-.486.596-.726.07-.202.02-.43.127-.594.17-.14.342-.283.512-.427.183-.265.283-.498.467-.766.228-.185.45-.37.68-.554h.212c.208.2.473.212.51.594.06.09.027.478-.042.725-.153.54-.32 1.248-.172 1.875.3.175.61.382.895.593.4.296.56.82 1.064 1.02.533.215.808-.336 1.402-.21.605.127 1.38.074 2 0 .082-.01.242.07.3.085.443.103 1.08.036 1.488.042.16.198.223.232.214.642.035.043.016.01.043.082.537.267.906.713 1.32 1.108v.508c-.676.43-.148.653 0 1.104v.472c.06.243.137.455.085.766-.216.07-.36.243-.596.296-.262.058-.572-.114-.767-.17-.186-.015-.368-.03-.553-.042-.31-.096-.677-.215-1.062-.297-.457-.1-1.625-.13-2.043-.045-.27.06-.74-.034-.98-.083l-1.657.083c-.162.272-.59.758-1.104.642-.236-.054-.538-.207-.894-.132-.642.144-1.333.218-2.09.215-.09.146-.22.26-.335.38-.412-.03-.71-.043-1.023-.255-.072-.045-.12-.176-.213-.208-.205-.073-.42.057-.51.083-.227.06-.394-.096-.556-.127-.14.027-.282.056-.422.086-.21-.03-.43-.224-.598-.3-.666-.296-1.44-.54-1.618-1.318-.094-.42.205-1.355.34-1.617.048-.09.183-.194.214-.302.094-.288-.135-.688-.213-.89-.172-.06-.482-.043-.723-.04-.184.148-.364.13-.638.21-1.566.457-2.557-.772-3.66-1.15-.718-.245-1.192.316-1.785.172-.69-.167-1.034-.52-1.657-.726-.586-.19-1.347.068-1.83-.297-.072-.096-.142-.197-.213-.297-.1-.06-.21-.016-.298-.083-.062-.05-.213-.277-.254-.34-.042-.13-.086-.26-.126-.386-.146-.192-.572-.368-.726-.553-.115-.14-.1-.362-.21-.513-.088-.11-.654-.4-.81-.508-.114-.142-.228-.283-.342-.427-.204-.13-.82-.213-1.146-.215-.215.21-.488.373-.725.557-.138.105-.15.318-.298.423-.237.172-1.136.01-1.532.127-.3.096-.73.253-1.063.342h-.64l-.81.13c-.207.06-.476.2-.722.257-.147.03-.238-.035-.34-.047-.2.018-.397.032-.595.048-.173-.035-.483-.057-.722-.047-.42.026-1.728.232-2 .086-.28-.097-.484-.405-.723-.553-.22-.14-.625-.153-.894-.215-.666-.145-1.513.06-2 .173-.472.11-2.232-.238-2.51-.385-.794-.41-1.73-.897-2.424-1.444-.41-.325-.837-.856-1.15-1.277-.113-.156-.234-.397-.383-.51-.172-.134-1.142-.535-1.36-.6-.58-.156-1.432-.1-2-.082h-1.192c-.27.064-.673.125-1.02.043-.288-.066-.69-.094-.98-.212-.216-.09-.42-.27-.64-.342-.412-.138-.85-.035-1.19-.212-.092-.05-.168-.206-.252-.253-.255-.146-.467-.18-.684-.34-.108-.08-.167-.242-.297-.3-.317-.142-.877-.15-1.193-.214-.464-.086-1.266.486-1.702.597-.204.053-.414-.058-.553-.084-.14.015-.283.027-.425.042-.15-.04-.4-.097-.596-.17-.42-.16-.786-.524-1.232-.64-.794-.2-1.087.338-1.83.17-.107-.162-.198-.194-.214-.468.052-.084-.01-.264.042-.385.073-.157.377-.618.555-.675.476-.347 1.333-.213 1.997-.388.455-.117.82-.36 1.244-.55.108-.044.435-.21.556-.25.485-.157 1.003-.02 1.265-.392.19-.253-.063-.468 0-.722.055-.235.313-1.064.468-1.192.528-.443 1.522-.304 2.21-.595.486-.206 1.1-.485 1.575-.68.41-.17.822-.185 1.235-.342.263-.098.54-.294.85-.34.123-.02.186.065.255.084h.68c.132.036.257.17.468.127.513-.097 1.078-.04 1.66-.17h.723c1.02-.25 2.27-.267 3.278-.552 1.145-.325 2.523-.604 3.616-.935.505-.156 1.068-.07 1.53-.255.582-.236 1.145-.59 1.66-.894.23-.138.458-.16.68-.302.17-.103.41-.302.596-.382.145-.06.638-.135.765-.17h.555c.516-.14 1.166-.362 1.743-.512.426-.026.85-.053 1.277-.085.718-.198 1.06-.842 1.874-1.02.57-.125.71.555 1.233.424.16-.04.36-.187.51-.252.233-.096.466-.07.724-.172.296-.12.622-.402.935-.55.157-.08.286-.025.467-.088.538-.184 1.073-.466 1.66-.594.143.012.284.027.427.042.454-.1 1-.24 1.4-.34.397-.1.564.233.768.34.223.12.483.086.724.213.156.082.366.262.552.338l.425.087c.148.062.257.246.424.294.557.165.956-.222 1.277-.338.237-.088.5-.158.68-.212h.765c.244-.098.396-.29.767-.34.57.605 1.094.11 1.66-.086.25-.086.5-.082.725-.215.345-.2.372-.52.596-.85.084-.07.168-.143.253-.212l.044-.255c.068-.058.14-.116.212-.17.152-.232.135-.453.215-.765.057-.247.274-.73.167-1.068-.05-.154-.15-.175-.167-.422.224-.15.153-.208.253-.51.235-.712.12-.74-.17-1.32-.06-.115-.022-.235-.083-.34-.395-.663-1.106-1.08-1.874-1.362-.198-.027-.396-.054-.596-.083-.598-.224-.797-.792-1.275-1.108-.186-.118-.486-.103-.64-.254-.4-.4-.397-1.57-.978-1.787-.16-.098-.992-.034-1.317-.125-.45-.13-.555-.58-1.107-.598-.32.333-.742.61-1.02.98-.11.144-.196.358-.34.467-.11.08-.215.056-.34.127-.208.12-.322.41-.512.555-.213.158-.52.297-.68.506-.242.316-.752 1.148-1.065 1.32-.167.093-.404.03-.553.126-.268.18-.267.554-.68.596-.322-.305-.613-.632-.934-.937.02-.707.52-.834.935-1.147.53-.398.867-1.033 1.446-1.404.35-.22.875-.23.938-.723-.584.007-.925.356-1.32.553-.308.154-.643.086-.98.212-.258.096-.588.263-.89.34-.36.093-1.99-.23-2.212-.34-.205-.102-.557-.465-.853-.425-.917.125-1.44.842-2.298.98-.24.037-.44-.19-.597-.258-.485-.207-.943-.39-1.446-.594-.362-.15-.84-.08-1.234-.215-.464-.158-.902-.474-1.318-.636-.242-.096-.58-.096-.765-.257-.1-.083-.16-.247-.255-.337-.134-.132-.318-.19-.47-.298-.184-.138-.316-.375-.51-.51-.363-.257-1-.423-1.277-.767-.185-.268-.036-.68-.466-.723-.19-.113-.48.073-.764 0-.13-.034-.43-.142-.555-.17-.112-.026-1.497.243-1.617.297-.15.07-.295.254-.423.34-.28.18-.628.154-.81.424-.053.078-.148.27-.17.34v.512c-.048.09-.458.295-.553.422-.34.467-.695.967-1.106 1.363-.223.218-.54.3-.724.555-.403.553-.698 1.196-1.106 1.743-.36.486-.94.845-1.362 1.278-.342.35-.687 1.428-1.064 1.658-.274.17-.908.028-1.19.212-.19.125-.726.6-.81.81-.078.2-.02.4-.127.554-.23.33-.653.384-1.062.55-.236.098-.456.242-.766.172-.443-.1-.96-.128-1.106-.51-.252-.298.125-1.216.34-1.362.58-.397 1.424-.447 1.958-.892.227-.188.385-.827.553-1.106.113-.085.227-.17.34-.257.45-.627.508-.4 1.36-.55.22-.46.448-.332.81-.6.35-.258.498-.772.85-1.02.15-.1.393-.065.553-.17.166-.105.696-.975.85-1.19.595-.825 1.37-1.51 1.916-2.383.15-.243.294-.59.382-.85.015-.13.03-.256.043-.385l.51-.553c.25-.472.148-.752.68-.98.166-.07.278-.028.47-.083.338-.1.832-.315 1.19-.383l.426.043c.067-.02.158-.143.213-.17.5-.252 1.32-.355 1.872-.127.202.084.337.28.51.383.298.18.837.286.936.638.074.255-.192.398-.213.68.05.047.072.086.13.13.127.096.495.2.677.21l.3-.04c.416.088.707.434 1.063.553.32.106.61-.02.85.127.387.234.46.517.683.937.158.302.914 1.125 1.19 1.318.406.29 1.155.33 1.745.426.27-.015.54-.03.806-.04.258.06.615.278 1.022.17.34-.093.828-.244 1.192-.387.162-.06.347-.24.51-.295.565-.196 1.077.058 1.533.17.51.125.953-.197 1.234-.344.218-.108.457-.1.55-.34.046-.064.046-.17.044-.295-.438.006-.63.208-.98.295-.406.108-.786-.085-1.19 0-.443.097-1.034.134-1.445.045-.03-.045-.058-.085-.084-.127-.128-.158-.066-.375-.045-.596.252-.19.384-.48.725-.598.318-.107.664-.062.937-.168.087-.307.042-.403.466-.383.188-.112.54.064.726.086.38.028.764.055 1.146.085.437.113.837.32 1.363.34.014-.04.03-.085.042-.126.142-.307-.277-.75.254-1.106.15-.11.322-.03.553-.086 1.272-.3 1.68.84 2.894.51 1.45-.392 3.218-.55 4.635-.978.36-.108.763-.09 1.065-.213.1-.168.276-.41.34-.595.015-.155.027-.312.043-.468.036-.1.162-.177.212-.256.25-.386.436-.804.468-1.402-.183-.19-.315-.513-.554-.635-.753-.385-1.87.36-2.425.595l-.765.21c-.2.118-.328.408-.51.51-.244.14-.672-.04-.978.044-.515.142-.99.416-1.573.553-.644.153-1.736-.707-2.297-.852-.325-.083-.717.093-.978.043-.098-.018-.242-.116-.386-.085-.155.035-.283.11-.423.086-.398-.068-1.196.073-1.575.128-.34.05-.686-.24-1.106-.084-.323.117-.79.804-1.235.51-.163-.054-.605-.533-.637-.722-.03-.057.017-.14.043-.257.107-.067.215-.215.34-.255.322-.1.668.1 1.02 0 .098-.027.245-.152.34-.168.276-.052.714.168 1.108.083.222-.047.67.043.936-.04 1.106-.343 2.546-.15 3.66.083.58.12.553-.373 1.106-.38.117.074 1.204.198 1.447.126.298-.095.45-.477.722-.6.168-.026.337-.054.51-.083.583-.195 1.04-.442 1.487-.765.257-.186.222-.652.468-.854.167-.12.765-.33.98-.38.1-.212.268-.382.34-.597.402-1.204.046-3.592-.17-4.678l.043-.383c.008-.347-.073-.603-.043-.896.025-.257.147-.485.085-.808-.074-.025-.136-.036-.256-.042-.173.137-.458.17-.596.34-.173.215-.285.65-.508.807-.284.205-.566.322-.767.598-.175.237-.297.438-.47.68-.157.127-.31.256-.466.384-.07.088-.085.192-.172.252-.185.143-.444.252-.594.43-.19.22-.364.547-.594.72-.348.26-.782.32-1.062.638-.11.125-.167.333-.3.426-.15.107-.32.11-.425.255-.242.326-.786 1.04-1.108 1.232-.195.118-1.516.31-1.704.298-.143-.174-.38-.19-.466-.425-.23-.387.29-.934.426-1.15.027-.086.055-.17.084-.255.153-.222.974-.637 1.276-.722h.342c.304-.1.358-.478.552-.594.126-.072.227.056.43 0 .223-.06.417-.25.593-.38.987-.747 1.764-1.743 2.678-2.554.18-.16.398-.24.595-.383.604-.44 1.646-2.086 1.958-2.853.27-.66.026-1.48.214-2.256.27-1.104.23-2.04 0-3.146-.045-.014-.086-.027-.128-.044-.328-.17-.59.702-.892.81h-.47c-.16.044-.483.12-.638.215-.046.024-.123.148-.17.167-.333.145-.67.12-.98.3-.236.137-.42.432-.635.593-.25.188-.582.36-.85.512-.27.15-.978.318-1.276.127-.49-.182-.7-1.298-.214-1.574.248-.14.485-.05.81-.125.383-.095.748-.196 1.145-.344.51-.18.936-.684 1.405-.89.442-.195 1.03-.275 1.192-.722.15-.316-.44-.426-.638-.553-.116-.08-.09-.182-.173-.3-.105-.153-.602-.45-.892-.38-.532.12-1.066.402-1.616.55-.322.087-.72-.095-.978-.042-.233.047-.923.248-1.36.128-.183-.05-.358-.206-.556-.256-.413-.102-.894.136-1.19.214-.513.137-.817-.156-1.318-.045-.47.107-.993.195-1.447.3-.636.148-1.49-.008-2.042-.128-.29-.064-.517.093-.723.127l-.255-.042c-.507.114-.773.526-1.234.684-.375.123-.71.09-1.105.21l-1.103.382c-.408.117-.85.04-1.063.34-.092.11-.092.297-.087.51.56.417.627 1.47.213 2.085-.198.294-.606.417-.765.767l-.044.425c-.11.368-.28.888-.382 1.237-.09.306-.025.458-.17.677-.708 1.086-1.784 1.867-2.808 2.64-.382.285-.572.835-1.02 1.063-.186.027-.37.054-.555.085-.14.05-.33.167-.51.213h-1.02c-.49.127-1.17.127-1.79.127-.183-.015-.367-.03-.55-.043-.286.05-.614-.066-.936 0-.867.183-2.787.028-3.533-.297-.093-.042-.16-.172-.256-.213-.36-.164-.836-.252-1.232-.213"/><g><path d="M80.61 16.675v-4.5h4.37V6.036h5.298v6.137h5.827v4.5h-5.827v9.272c0 2.118.618 3.443 2.957 3.443.928 0 2.207-.177 2.87-.664v4.458c-1.102.53-2.957.706-4.193.706-5.607 0-6.93-2.513-6.93-7.503v-9.712H80.61zM105.554 15.13h.086c.84-1.765 2.958-3.486 6.225-3.486 5.694 0 7.725 4.018 7.725 8.344v13.375h-5.297V22.636c0-2.338-.176-6.225-3.883-6.225-3.487 0-4.855 2.56-4.855 5.387v11.565h-5.3V-.01h5.3v15.14zM127.625 24.623c.352 3.133 2.736 5.03 5.692 5.03 2.65 0 4.372-1.234 5.697-2.868l3.795 2.87c-2.472 3.045-5.607 4.236-8.96 4.236-6.402 0-11.52-4.456-11.52-11.12 0-6.667 5.12-11.126 11.52-11.126 5.915 0 9.93 4.15 9.93 11.52v1.458h-16.155zm10.86-3.975c-.045-3.09-2.075-5.03-5.388-5.03-3.133 0-5.075 1.985-5.472 5.03h10.86zM161.615 24.623c.354 3.133 2.736 5.03 5.695 5.03 2.648 0 4.368-1.234 5.692-2.868l3.798 2.87c-2.473 3.045-5.607 4.236-8.96 4.236-6.4 0-11.523-4.456-11.523-11.12 0-6.667 5.122-11.126 11.522-11.126 5.915 0 9.93 4.15 9.93 11.52v1.458h-16.155zm10.858-3.975c-.042-3.09-2.073-5.03-5.383-5.03-3.136 0-5.077 1.985-5.475 5.03h10.858zM177.64 12.174h5.782l5.65 14.833h.09l5.693-14.833h5.432l-8.347 21.19h-5.647l-8.653-21.19zM205.407 24.623c.353 3.133 2.74 5.03 5.693 5.03 2.65 0 4.372-1.234 5.698-2.868l3.795 2.87c-2.47 3.045-5.607 4.236-8.963 4.236-6.4 0-11.52-4.456-11.52-11.12 0-6.667 5.12-11.126 11.52-11.126 5.917 0 9.933 4.15 9.933 11.52v1.458h-16.156zm10.862-3.975c-.048-3.09-2.077-5.03-5.39-5.03-3.132 0-5.076 1.985-5.473 5.03h10.862zM224.964 12.174h5.297v3.354h.09c1.146-2.428 3.488-3.883 6.27-3.883.662 0 1.28.134 1.895.308v5.122c-.883-.222-1.72-.398-2.56-.398-4.988 0-5.694 4.195-5.694 5.342v11.344h-5.296v-21.19zM262.573 12.174v19.29c0 7.638-3.71 12.496-11.962 12.496-3.928 0-7.5-.84-10.505-3.488l3.178-4.327c2.12 1.942 4.326 3.045 7.282 3.045 5.123 0 6.715-2.913 6.715-7.107v-1.545h-.09c-1.545 2.075-4.283 3.09-6.934 3.09-6.356 0-10.546-4.856-10.546-10.858 0-6.27 3.93-11.126 10.457-11.126 2.955 0 5.74 1.147 7.283 3.707h.09v-3.176h5.033zm-17.567 10.55c0 3.355 2.648 6.136 6.224 6.136 3.928 0 6.312-2.69 6.312-6.224 0-3.666-2.428-6.225-6.27-6.225-3.706 0-6.266 2.56-6.266 6.315zM265.89 12.174h5.29v3.354h.095c1.145-2.428 3.484-3.883 6.27-3.883.66 0 1.274.134 1.895.308v5.122c-.883-.222-1.724-.398-2.562-.398-4.986 0-5.696 4.195-5.696 5.342v11.344h-5.292v-21.19zM285.974 24.623c.35 3.133 2.738 5.03 5.69 5.03 2.648 0 4.37-1.234 5.695-2.868l3.797 2.87c-2.474 3.045-5.605 4.236-8.964 4.236-6.396 0-11.518-4.456-11.518-11.12 0-6.667 5.122-11.126 11.518-11.126 5.917 0 9.937 4.15 9.937 11.52v1.458h-16.156zm10.858-3.975c-.046-3.09-2.077-5.03-5.387-5.03-3.133 0-5.075 1.985-5.472 5.03h10.86zM309.988 24.623c.348 3.133 2.732 5.03 5.69 5.03 2.65 0 4.372-1.234 5.692-2.868l3.8 2.87c-2.474 3.045-5.604 4.236-8.962 4.236-6.398 0-11.52-4.456-11.52-11.12 0-6.667 5.122-11.126 11.52-11.126 5.914 0 9.932 4.15 9.932 11.52v1.458h-16.152zm10.856-3.975c-.043-3.09-2.072-5.03-5.385-5.03-3.136 0-5.077 1.985-5.472 5.03h10.856zM329.41 12.174h5.03v3.4h.09c.97-2.12 2.958-3.93 6.488-3.93 5.697 0 7.73 4.018 7.73 8.344v13.375h-5.3V22.636c0-2.338-.178-6.225-3.886-6.225-3.485 0-4.855 2.56-4.855 5.387v11.565h-5.297V12.174z"/><g><path d="M118.188 57.85c-1.016-1.41-2.34-2.16-4.15-2.16-1.412 0-3.09.66-3.09 2.25 0 3.8 11.434.707 11.434 8.96 0 5.034-4.813 6.8-9.14 6.8-3.266 0-6.088-.838-8.252-3.27l3.53-3.308c1.368 1.5 2.78 2.605 5.032 2.605 1.546 0 3.533-.752 3.533-2.43 0-4.368-11.434-.927-11.434-9.005 0-4.724 4.238-6.842 8.52-6.842 2.828 0 5.827.883 7.55 3.22l-3.532 3.18zM124.015 56.484V51.98h4.37v-6.134h5.298v6.133h5.827v4.504h-5.827v9.27c0 2.117.616 3.444 2.958 3.444.928 0 2.208-.18 2.87-.664v4.46c-1.103.53-2.958.707-4.194.707-5.606 0-6.93-2.517-6.93-7.504v-9.712h-4.37zM156.9 70.257h-.13c-1.502 2.386-3.974 3.443-6.8 3.443-3.928 0-7.724-2.164-7.724-6.356 0-6.886 8.034-7.373 13.332-7.373h1.323v-.573c0-2.604-2.028-3.975-4.854-3.975-2.208 0-4.24.887-5.65 2.21l-2.78-2.78c2.338-2.385 5.647-3.4 9.003-3.4 9.047 0 9.047 6.534 9.047 9.534v12.186H156.9v-2.915zm-.308-6.58h-1.102c-2.915 0-7.947.224-7.947 3.27 0 1.942 1.986 2.78 3.708 2.78 3.62 0 5.34-1.9 5.34-4.856V63.68zM164.45 56.484V51.98h4.372v-6.134h5.296v6.133h5.825v4.504h-5.825v9.27c0 2.117.62 3.444 2.96 3.444.924 0 2.203-.18 2.865-.664v4.46c-1.104.53-2.957.707-4.19.707-5.608 0-6.93-2.517-6.93-7.504v-9.712h-4.372zM188.334 64.43c.352 3.13 2.737 5.03 5.694 5.03 2.646 0 4.37-1.233 5.694-2.868l3.794 2.87c-2.47 3.047-5.604 4.238-8.958 4.238-6.4 0-11.524-4.46-11.524-11.125 0-6.666 5.123-11.124 11.524-11.124 5.91 0 9.93 4.15 9.93 11.523v1.455h-16.154zm10.858-3.972c-.044-3.094-2.076-5.036-5.386-5.036-3.133 0-5.078 1.988-5.473 5.036h10.86zM234.772 58.338c-1.234-1.28-2.604-2.118-4.016-2.118-3.886 0-6.226 3.044-6.226 6.355 0 3.31 2.34 6.356 6.226 6.356 1.634 0 3.134-.704 4.106-1.983l3.53 3.794c-2.162 2.163-5.783 2.96-7.637 2.96-6.4 0-11.52-4.46-11.52-11.125 0-6.666 5.12-11.124 11.52-11.124 2.692 0 5.65.972 7.682 3.22l-3.665 3.668zM251.59 51.452c6.403 0 11.527 4.458 11.527 11.124 0 6.665-5.124 11.125-11.526 11.125-6.397 0-11.52-4.46-11.52-11.124 0-6.666 5.122-11.124 11.52-11.124zm0 17.48c3.888 0 6.228-3.047 6.228-6.356 0-3.312-2.34-6.355-6.227-6.355-3.883 0-6.22 3.045-6.22 6.356 0 3.31 2.337 6.356 6.22 6.356zM266.028 39.797h5.297v33.375h-5.297V39.797zM277.327 39.797h5.3v33.375h-5.3V39.797zM291.365 64.43c.354 3.13 2.738 5.03 5.697 5.03 2.648 0 4.367-1.233 5.692-2.868l3.8 2.87c-2.47 3.047-5.607 4.238-8.964 4.238-6.4 0-11.52-4.46-11.52-11.125 0-6.666 5.118-11.124 11.52-11.124 5.916 0 9.933 4.15 9.933 11.523v1.455h-16.158zm10.86-3.972c-.043-3.094-2.075-5.036-5.385-5.036-3.136 0-5.075 1.988-5.475 5.036h10.86zM332.82 51.98v19.29c0 7.64-3.71 12.494-11.97 12.494-3.925 0-7.497-.84-10.503-3.485l3.18-4.326c2.12 1.942 4.326 3.044 7.28 3.044 5.12 0 6.713-2.913 6.713-7.11v-1.54h-.086c-1.548 2.073-4.284 3.09-6.933 3.09-6.354 0-10.548-4.86-10.548-10.86 0-6.268 3.926-11.125 10.463-11.125 2.953 0 5.734 1.147 7.283 3.708h.087v-3.18h5.035zM315.248 62.53c0 3.354 2.648 6.136 6.223 6.136 3.933 0 6.316-2.693 6.316-6.224 0-3.666-2.43-6.224-6.27-6.224-3.704 0-6.268 2.558-6.268 6.312zM340.94 64.43c.354 3.13 2.736 5.03 5.694 5.03 2.65 0 4.37-1.233 5.693-2.868l3.8 2.87c-2.473 3.047-5.607 4.238-8.962 4.238-6.4 0-11.518-4.46-11.518-11.125 0-6.666 5.116-11.124 11.518-11.124 5.914 0 9.934 4.15 9.934 11.523v1.455h-16.16zm10.86-3.972c-.043-3.094-2.075-5.036-5.388-5.036-3.133 0-5.072 1.988-5.472 5.036h10.86z"/></g></g></svg>