<?xml version="1.0" encoding="utf-8"?>
<!-- Generator: Adobe Illustrator 21.1.0, SVG Export Plug-In . SVG Version: 6.00 Build 0)  -->
<svg version="1.1" xmlns="http://www.w3.org/2000/svg" xmlns:xlink="http://www.w3.org/1999/xlink" x="0px" y="0px"
	 viewBox="0 0 500 500" style="enable-background:new 0 0 500 500;" xml:space="preserve">
<style type="text/css">
	.st0{fill:#CCCCCC;}
	.st1{fill:#FFFFFF;}
	.st2{fill:none;stroke:#FFFFFF;stroke-width:2;stroke-linecap:round;stroke-miterlimit:10;}
</style>
<g id="Layer_3">
	<path class="st0" d="M434.634,385.474c-0.661-0.617-4.024-3.721-5.989-4.871c-0.553-0.523-1.472-2.726-1.969-3.918
		c-0.372-0.891-0.757-1.812-1.155-2.609c-0.859-1.717-2.29-3.427-3.392-4.605c0.354-1.637,0.046-3.457-1.421-4.924
		c-0.806-0.806-1.979-1.506-3.127-2.066c-0.045-0.726-0.354-1.414-0.873-1.934c-0.474-0.474-2.973-2.872-5.644-3.539
		c-0.652-0.163-1.454-0.386-2.228-0.606l0.87-2.86c0.246-0.81,0.14-1.687-0.296-2.413c-0.435-0.727-1.155-1.235-1.986-1.401
		c-0.113-0.023-2.822-0.559-5.588-0.559c-2.185,0-3.435,0.961-4.136,1.707c-0.899-0.464-2.272-1.295-3.352-1.947
		c-2.504-1.516-5.342-3.233-7.765-4.089c-2.485-0.877-7.193-1.428-11.172-1.755l4.795-4.795c3.099-3.099,9.45-8.235,9.514-8.287
		c0.771-0.623,1.185-1.586,1.105-2.574c-0.04-0.505-0.207-0.983-0.476-1.396c0.906-1.166,1.965-2.498,2.743-3.388
		c1.745-1.994,5.733-6.481,5.734-6.482c0.642-0.722,0.873-1.671,0.704-2.557c11.054-7.925,11.054-8.206,11.054-9.937
		c0-0.892-0.396-1.736-1.081-2.307c-0.686-0.568-1.587-0.802-2.465-0.644c-3.384,0.631-5.506-0.313-8.442-1.614
		c-1.85-0.82-3.946-1.749-6.587-2.358c-3.786-0.874-7.463-1.115-10.049-1.152c-0.055-0.18-0.121-0.359-0.202-0.54
		c-0.4-0.896-1.485-2.46-4.25-2.854c-2.561-0.37-5.068,0.443-6.86,1.292c-0.831-0.788-2.062-1.047-3.156-0.616l-9.277,3.63
		c-2.406-3.31-3.514-3.587-4.152-3.746c-2.446-0.611-4.735,1.352-7.382,3.627l-0.298,0.256c-1.422,1.219-3.428,3.442-4.45,4.605
		c-2.035,0.552-6.649,1.96-9.398,4.021c-1.4,1.051-3.072,2.318-4.46,3.373l-4.592-8.632c-0.405-0.762-1.118-1.312-1.957-1.51
		l-0.434-1.013c-0.366-0.854-1.108-1.491-2.009-1.724c-0.899-0.232-1.857-0.034-2.591,0.537c0,0-2.271,1.767-3.532,2.775
		c-1.299,1.039-2.7,2.618-3.073,3.048c-1.264,1.261-2.849,2.774-3.217,3.049c-0.405,0.27-1.002,0.668-2.049,2.754
		c-0.983,0.069-1.877,0.62-2.379,1.48c-0.311,0.533-1.89,3.262-2.443,4.647c-0.203,0.507-0.391,1.223-0.556,1.984
		c-0.105,0.031-0.21,0.067-0.312,0.11c-1.031,0.43-1.738,1.396-1.835,2.51l-0.688,7.906c-0.107,0.035-0.213,0.076-0.317,0.123
		c-0.877,0.399-1.51,1.196-1.698,2.143c-0.065,0.323-1.581,7.997-1.045,13.622c0.371,3.895,1.611,8.822,2.333,11.463
		c-0.239,0.333-0.446,0.719-0.59,1.162c-0.363,1.125-0.214,2.326,0.421,3.385c0.24,0.4,0.624,1.243,0.999,2.126
		c-3.07,2.789-9.427,8.802-11.549,12.623c-2.742,4.936-3.538,14.871-3.62,15.988c-0.095,1.304,0.664,2.519,1.878,3.004l0.532,0.213
		c-0.073,1.969-0.168,4.862-0.168,6.752c0,3.645,2.112,7.71,2.353,8.162c0.418,0.783,1.155,1.331,2.002,1.518
		c0.734,2.662,2.249,6.818,4.958,9.11c1.763,1.491,2.18,5.449,2.188,6.71c0,0.929,0.43,1.805,1.164,2.373
		c0.735,0.567,1.694,0.764,2.589,0.531c1.228-0.318,7.481-2.009,10.089-4.036c0.972-0.756,1.937-1.822,2.782-2.892
		c1.388,2.172,3.194,4.906,4.961,7.303c3.77,5.116,12.865,11.21,13.251,11.467c0.866,0.578,1.97,0.665,2.912,0.231
		c0.429-0.195,0.798-0.486,1.085-0.841c2.174,0.766,4.452,1.609,5.326,2.047c1.335,0.667,7.258,4.533,10.678,6.812
		c0.717,0.478,1.603,0.624,2.435,0.403c0.311-0.083,0.604-0.214,0.867-0.386c3.219,2.125,7.544,3.808,8.317,3.936
		c0.588,0.149,2.519,1.224,4.132,2.298c0.821,0.546,1.862,0.655,2.782,0.286c0.886-0.356,1.548-1.112,1.785-2.033h2.997
		c0.988,0.279,3.601,2.595,5.545,4.922c0.588,0.703,1.439,1.077,2.305,1.077c0.505,0,1.015-0.127,1.479-0.391
		c1.261-0.716,1.83-2.23,1.352-3.6l-3.297-9.418l0.34-4.925c1.202-0.619,1.843-1.969,1.559-3.295l-1.348-6.286l0.559-2.046
		c0.201-0.74,0.112-1.529-0.25-2.206l-2.77-5.17l0.383-0.438c0.575-0.658,0.836-1.534,0.712-2.399
		c-0.119-0.835-1.309-8.271-6.312-12.392c-1.289-1.062-2.739-2.432-4.118-3.805c0.896,0.073,1.676,0.12,2.211,0.12
		c0.92,0,1.96-0.192,3.165-0.414c2.478-0.456,5.87-1.084,9.328-0.183c5.224,1.363,9.478,0.804,13.001-1.712
		c1.41-1.008,2.112-2.315,2.456-3.479l8.965-2.037c0.855-0.195,1.583-0.754,1.991-1.531c0.012-0.023,0.024-0.047,0.035-0.07
		l4.232-0.604c1.295-0.185,2.32-1.187,2.535-2.477l0.17-1.016c1.144-0.231,2.767-0.519,4.722-0.748
		c2.4-0.287,6.78,1.484,8.978,2.662c1.328,0.715,2.98,0.333,3.859-0.893S435.736,386.503,434.634,385.474z"/>
	<g>
		<path class="st1" d="M426.503,384.999c-0.18,0-0.361-0.032-0.538-0.1c-0.107-0.041-10.816-4.128-21.684-5.75
			c-2.614-0.39-6.916-0.934-11.896-1.563c-16.943-2.143-42.55-5.38-54.644-8.982c-15.418-4.593-37.809-9.088-38.033-9.133
			c-0.615-0.123-1.088-0.615-1.188-1.234c-0.099-0.619,0.198-1.234,0.743-1.542c0.297-0.168,29.791-16.796,46.372-23.097
			c7.252-2.755,16.593-8.622,25.627-14.295c11.886-7.465,23.112-14.516,30.415-15.294c0.812-0.089,1.562,0.508,1.65,1.332
			s-0.509,1.562-1.332,1.65c-6.613,0.705-18.064,7.897-29.138,14.852c-9.158,5.752-18.628,11.698-26.156,14.56
			c-12.993,4.937-34.128,16.359-42.444,20.946c7.19,1.516,22.714,4.916,34.341,8.38c11.857,3.532,37.316,6.751,54.163,8.881
			c5.204,0.658,9.315,1.178,11.963,1.573c11.202,1.672,21.868,5.744,22.316,5.916c0.773,0.298,1.159,1.165,0.862,1.938
			C427.674,384.634,427.105,384.999,426.503,384.999z"/>
		<path class="st1" d="M376.17,449.667c-0.467,0-0.928-0.218-1.221-0.626c-0.238-0.334-24.057-33.478-38.894-45.543
			c-15.158-12.328-37.51-44.611-38.454-45.979c-0.471-0.682-0.3-1.615,0.383-2.086c0.682-0.47,1.616-0.299,2.086,0.383
			c0.229,0.331,23.053,33.298,37.878,45.354c15.148,12.319,38.455,44.749,39.44,46.123c0.482,0.674,0.327,1.611-0.346,2.094
			C376.778,449.576,376.473,449.667,376.17,449.667z"/>
		<path class="st1" d="M362.086,399.917c-0.216,0-0.435-0.07-0.617-0.214c-5.964-4.695-35.66-28.443-34.62-34.944
			c1.043-6.522,34.692-17.84,41.428-20.042c0.525-0.172,1.09,0.115,1.261,0.64c0.172,0.524-0.114,1.089-0.64,1.261
			c-16.265,5.32-39.451,14.563-40.074,18.458c-0.626,3.91,19.437,21.685,33.882,33.056c0.435,0.342,0.509,0.971,0.168,1.404
			C362.676,399.786,362.382,399.917,362.086,399.917z"/>
		<path class="st1" d="M395.337,398.167c-0.133,0-0.267-0.026-0.396-0.081c-0.112-0.049-11.348-4.894-22.315-10.594
			c-20.39-10.599-22.339-14.896-22.03-17.207c0.308-2.306,3.131-5.943,24.01-10.903c11.221-2.666,22.465-4.436,22.577-4.453
			c0.55-0.081,1.058,0.289,1.143,0.834s-0.288,1.057-0.834,1.143c-32.063,5.016-44.564,11.031-44.913,13.644
			c-0.621,4.655,24.861,17.831,43.154,25.699c0.507,0.219,0.741,0.807,0.523,1.314C396.093,397.94,395.724,398.167,395.337,398.167z
			"/>
		<path class="st1" d="M412.337,390.167c-0.122,0-0.245-0.021-0.365-0.069c-7.547-2.956-24.956-10.334-23.594-14.963
			c1.33-4.524,22.787-7.619,29.332-8.46c0.555-0.06,1.049,0.317,1.119,0.865c0.07,0.547-0.317,1.049-0.865,1.119
			c-12.793,1.644-27.01,4.803-27.668,7.04c-0.527,1.795,9.942,7.653,22.406,12.537c0.514,0.201,0.768,0.781,0.565,1.296
			C413.113,389.926,412.736,390.167,412.337,390.167z"/>
		<path class="st1" d="M363.57,336.687c-6.226,0-14.357-1.96-14.72-2.048c-0.537-0.131-0.866-0.671-0.735-1.208
			c0.131-0.536,0.674-0.868,1.208-0.735c0.091,0.022,9.203,2.216,15.224,1.973c6.021-0.241,14.605-3.406,14.691-3.438
			c0.519-0.193,1.094,0.072,1.286,0.589c0.192,0.519-0.071,1.094-0.589,1.286c-0.364,0.135-8.973,3.309-15.309,3.562
			C364.282,336.68,363.929,336.687,363.57,336.687z"/>
		<path class="st1" d="M301.834,408.667c-0.693,0-1.315-0.483-1.466-1.188c-1.598-7.533-5.335-42.497,0.441-51.85
			c5.068-8.205,12.002-35.798,12.071-36.076c0.2-0.803,1.009-1.291,1.819-1.091c0.804,0.201,1.292,1.016,1.091,1.819
			c-0.288,1.152-7.117,28.324-12.429,36.924c-4.7,7.609-2.01,40.455-0.059,49.65c0.172,0.811-0.346,1.607-1.156,1.779
			C302.042,408.656,301.938,408.667,301.834,408.667z"/>
		<path class="st1" d="M366.499,406.476c-0.188-0.138-19.081-13.681-35.181-9.836l-0.465-1.945
			c8.922-2.131,18.472,0.757,24.913,3.556c6.928,3.009,11.708,6.463,11.908,6.608L366.499,406.476z"/>
		<path class="st1" d="M373.802,418.262c-0.202-0.128-20.313-12.759-31.547-10.859l-0.336-1.971
			c11.987-2.045,32.104,10.602,32.953,11.141L373.802,418.262z"/>
		<path class="st1" d="M329.835,435.334c-0.445,0-0.853-0.3-0.968-0.752c-0.037-0.144-3.698-14.418-7.309-24.923
			c-3.675-10.691-4.041-25.991-4.055-26.637c-0.012-0.553,0.427-1.01,0.979-1.021c0.008,0,0.015,0,0.021,0
			c0.543,0,0.988,0.434,1,0.979c0.003,0.155,0.374,15.637,3.945,26.029c3.638,10.583,7.318,24.934,7.355,25.077
			c0.137,0.535-0.186,1.08-0.721,1.217C330.001,435.324,329.917,435.334,329.835,435.334z"/>
	</g>
	<g>
		<g>
			<path class="st0" d="M331.334,215.667c0,0-27.333,4.667-27.333,13.333c0,8.666,31.999,21.334,86.666,21.334
				s102-18.002,102-24.667c0-6.667-36-15.334-36-15.334s28.084,7.167,28.167,15c0.083,7.834-40.333,20.333-95,20.333
				s-81.167-8.75-81.167-16.999C308.667,220.417,331.334,215.667,331.334,215.667z"/>
			<path class="st0" d="M390.667,252.335c-53.038,0-88.666-12.066-88.666-23.334c0-9.855,24.154-14.478,28.996-15.305
				c1.083-0.18,2.097,0.528,2.302,1.598c0.203,1.071-0.487,2.107-1.555,2.332c-8.752,1.838-21.077,6.479-21.077,11.042
				c0,4.894,19.352,15,79.167,15c27.944,0,49.004-3.188,61.749-5.862c18.044-3.786,27.536-8.23,30.402-11.127
				c0.63-0.637,0.851-1.111,0.849-1.323c-0.032-3.025-10.234-8.888-26.662-13.083c-1.064-0.272-1.711-1.353-1.446-2.419
				s1.343-1.719,2.409-1.463c0.091,0.022,9.188,2.221,18.165,5.214c17.066,5.689,19.367,9.291,19.367,12.064
				c0,7.077-24.455,14.615-31.95,16.756C449.763,246.125,423.176,252.335,390.667,252.335z M352.715,246.064
				c10.682,1.396,23.302,2.271,37.952,2.271c14.411,0,27.651-1.247,38.972-2.935c-12.097,1.42-25.559,2.267-39.805,2.267
				C376.025,247.667,363.551,247.109,352.715,246.064z M306.899,226.943c-0.579,0.681-0.898,1.37-0.898,2.057
				c0,0.694,0.442,1.537,1.343,2.477c-0.448-0.907-0.677-1.844-0.677-2.81C306.667,228.074,306.747,227.5,306.899,226.943z
				 M485.729,222.026c0.695,1.053,1.093,2.151,1.104,3.286c0.015,1.413-0.66,2.819-2.005,4.179c-0.287,0.29-0.607,0.581-0.96,0.872
				c4.261-2.139,6.46-3.85,6.789-4.738C490.478,224.769,488.729,223.506,485.729,222.026z"/>
		</g>
		<path class="st0" d="M387.334,239c-16.764,0-30.97-0.668-41.081-1.932c-12.327-1.541-17.586-3.754-17.586-7.401
			c0-3.106,3.659-5.376,11.863-7.361c5.213-1.261,10.332-1.928,10.548-1.956c1.086-0.146,2.098,0.631,2.239,1.728
			c0.142,1.095-0.632,2.098-1.728,2.239c-10.807,1.396-17.754,3.932-18.833,5.295c2.098,2.233,17.959,5.389,54.577,5.389
			c30.755,0,67.067-8.251,73.983-11.623c-2.294-1.54-8.868-3.972-15.818-5.774c-1.069-0.277-1.711-1.369-1.434-2.438
			s1.369-1.709,2.438-1.434c19.498,5.055,19.498,8.729,19.498,9.936c0,1.359,0,4.542-27.452,9.88
			C420.726,237.013,402.058,239,387.334,239z"/>
		<path class="st0" d="M379.332,222.834c-0.36,0-0.727-0.078-1.074-0.244c-1.246-0.594-1.774-2.086-1.181-3.333l88.667-186
			c0.594-1.246,2.085-1.776,3.333-1.181c1.246,0.594,1.774,2.086,1.181,3.333l-88.667,186
			C381.162,222.308,380.266,222.834,379.332,222.834z"/>
		<path class="st0" d="M405.333,213.834c-0.217,0-0.438-0.047-0.646-0.147c-0.747-0.358-1.063-1.253-0.705-2.001l33.833-70.667
			c0.356-0.747,1.252-1.064,2-0.705c0.747,0.358,1.063,1.253,0.705,2.001l-33.833,70.667
			C406.43,213.52,405.893,213.834,405.333,213.834z"/>
		<path class="st0" d="M444.166,132.667c-0.198,0-0.4-0.04-0.594-0.124c-0.761-0.329-1.11-1.211-0.782-1.972l5.834-13.5
			c0.329-0.76,1.212-1.112,1.972-0.782c0.761,0.329,1.11,1.211,0.782,1.972l-5.834,13.5
			C445.299,132.329,444.746,132.667,444.166,132.667z"/>
		<path class="st0" d="M456,109.834c-0.211,0-0.425-0.045-0.629-0.139c-0.752-0.348-1.079-1.24-0.731-1.991l37.333-80.667
			c0.349-0.751,1.239-1.077,1.991-0.731c0.752,0.348,1.079,1.24,0.731,1.991l-37.333,80.667
			C457.108,109.511,456.566,109.834,456,109.834z"/>
	</g>
	<g>
		<path class="st0" d="M51.654,483.663c-37.413,0-37.413-4.626-37.413-6.146c0-1.951,2.499-4.601,14.406-6.136
			c0.819-0.11,1.574,0.475,1.68,1.295c0.106,0.822-0.474,1.574-1.296,1.68c-5.271,0.682-10.405,2.073-11.616,3.106
			c1.917,1.365,12.102,3.201,34.24,3.201c18.727,0,41.222-4.967,46.391-7.166c-1.675-0.959-5.552-2.355-9.586-3.401
			c-0.802-0.208-1.283-1.026-1.076-1.828c0.208-0.802,1.024-1.28,1.829-1.076c12.531,3.248,12.531,5.627,12.531,6.522
			c0,0.997,0,3.07-17.586,6.489C72.847,482.402,61,483.663,51.654,483.663z"/>
		<path class="st0" d="M63.061,468.03c-0.217,0-0.438-0.047-0.647-0.147c-0.747-0.357-1.062-1.253-0.705-2l21.442-44.785
			c0.358-0.746,1.253-1.064,2.001-0.705c0.747,0.357,1.062,1.253,0.705,2l-21.442,44.785C64.157,467.716,63.62,468.03,63.061,468.03
			z"/>
		<path class="st0" d="M87.671,416.591c-0.198,0-0.4-0.039-0.594-0.123c-0.76-0.329-1.11-1.212-0.782-1.972l3.697-8.555
			c0.329-0.76,1.21-1.111,1.972-0.782c0.76,0.329,1.11,1.212,0.782,1.972l-3.697,8.555
			C88.804,416.252,88.251,416.591,87.671,416.591z"/>
		<path class="st0" d="M95.171,402.12c-0.211,0-0.425-0.044-0.629-0.139c-0.752-0.348-1.079-1.239-0.731-1.991l23.66-51.123
			c0.348-0.752,1.241-1.08,1.991-0.731c0.752,0.348,1.079,1.239,0.731,1.991l-23.66,51.123
			C96.28,401.798,95.737,402.12,95.171,402.12z"/>
	</g>
	<g>
		<path class="st0" d="M132.328,333.44c-5.479-2.728-26.37-11.975-49.19-44.392c-13.701-20.396-9.46-30.558-8.165-34.268
			c1.161-3.329,4.431-14.122,19.064-18.161c5.699-1.572,8.258-0.936,8.258-0.936s-8.426,3.191-10.896,5.393
			c-4.09,3.643-9.104,7.818-10.635,16.621c-1.634,9.383,2.984,20.025,14.518,32.054c11.533,12.029,24.751,15.782,27.305,16.621
			c2.95,0.97,11.952,1.972,11.952,1.972s-17.009-4.019-25.551-11.311c-8.541-7.292-14.605-14.386-16.903-18.811
			c-2.297-4.425-10.013-18.158-2.964-28.854c6.737-10.221,15.793-15.469,25.875-10.319c9.646,4.929,7.89,15.811,6.758,19.055
			c-1.075,3.085-3.192,7.128-10.029,7.173c-7.813,0.049-12.261-4.789-13.88-6.84c0,0,3.093,9.017,13.615,15
			c9.697,5.516,20.325,3.037,22.516-4.871c3.167-11.434-4.522-22.622-8.634-26.644c-3.214-3.144-12.994-11.101-31.014-10.684
			c-12.296,0.285-22.396,9.017-25.885,16.143c-3.391,6.924-6.192,20.299,6.032,39.92c12.225,19.621,26.116,31.404,43.106,41.86
			c23.997,14.768,47.239,16.666,47.239,16.666S144.575,340.031,132.328,333.44z M127.826,249.62
			c3.865,6.846,4.149,12.138,1.928,16.733c-2.22,4.596-6.298,5.936-10.636,5.566c-4.336-0.369-6.17-1.1-9.164-2.752
			c-2.995-1.652-4.426-3.215-4.426-3.215s3.883,1.485,7.756,1.459c3.872-0.025,9.293-2.298,11.126-5.267
			c1.833-2.97,2.783-6.158,2.014-9.991c-1.419-7.072-6.075-10.816-6.075-10.816S123.961,242.774,127.826,249.62z"/>
		<path class="st0" d="M281.906,185.184c-3.711-4.336-9.162-8.94-23.557-10.851c-11.955-1.587-25.352,1.028-37.656,9.68
			c-7.156,5.032-11.047,10.774-13.782,20.807c-2.783,10.205-4.774,23.167-4.689,24.234c-1.958,0.357-8.27,3.413-14.692,9.112
			c-3.553-0.346-8.451-1.537-13.547,3.952c-3.241,3.584-3.256,10.872-3.475,13.585c-0.217,2.713-0.301,7.844-4.604,14.084
			c-4.302,6.24-7.589,15-8.602,18.081c-1.292,2.953-1.844,11.698-0.209,17.3c1.635,5.603,1.797,6.817,1.797,6.817
			s-4.083,2.305-7.856,2.85c-17.366,2.505-36.04-4.789-36.04-4.789s4.827,6.92,11.997,12.461
			c2.347,1.435,11.713,9.749,32.823,13.039c15.491,2.414,24.482,0.484,27.201,0.212c2.764-0.275,9.07-2.709,9.07-2.709
			s5.868,2.258,8.884,2.188c3.017-0.07,13.458,0.716,28.678-11.048c13.898-10.744,20.91-24.099,20.91-24.099
			s11.996-18.249,9.385-34.461c-0.67-12.389-7.463-17.865-14.164-20.015c-4.297-10.006-6.037-18.614-6.289-21.607
			c-0.742-8.733,9.418-14.281,11.545-14.875c0,0,2.822,0.241,9.643,0.362c6.436,0.114,15.592-2.626,18.385-8.005
			C286.025,195.883,285.904,189.853,281.906,185.184z M174.986,332.054c-8.549,0.462-15.613,0.596-30.219-4.183
			c-14.607-4.777-21.922-13.358-21.922-13.358s10.976,3.443,24.049,3.817c6.926,0.197,15.271-1.782,15.271-1.782
			s1.792,2.675,7.293,7.461c5.502,4.786,12.857,6.484,12.857,6.484S180.04,331.78,174.986,332.054z M199.409,328.251
			c-3.576,0.539-7.268,0.477-7.268,0.477s10.58-2.898,22.447-14.766c11.867-11.867,15.306-23.246,15.941-26.021
			c0.637-2.776,0.662-4.702,0.662-4.702s-7.564,16.901-14.577,24.005c-7.013,7.102-16.425,15.63-23.37,17.479
			c-6.944,1.848-10.079,5.714-22.725-4.374c-11.877-9.475-10.831-23.991-10.571-27.251c0.262-3.259,3.56-15.751,8.721-23.936
			c2.983-5.728,4.158-9.379,4.028-13.674c-0.228-7.594,6.575-16.59,13.114-14.84c4.979,1.988,6.88,8.363,6.666,12.259
			c-0.198,3.597-0.83,5.598-3.425,8.89c-3.136,3.228-4.553,4.305-7.233,4.014c-2.376-0.258-5.287-1.658-6.022-4.64
			c0,0-1.763,11.064,8.017,7.804c2.828-1.086,4.896-2.998,6.463-4.982c4.647-5.881,4.755-14.031,3.13-18.115
			c-1.544-3.88-4.208-5.9-4.208-5.9s6.796-3.771,14.826,1.743c9.179,6.304,11.641,21.327,4.694,36.644
			c-7.251,15.986-18.467,19.083-25.412,19.718c-2.59-0.031-5.927-1.079-8.814-2.796c-2.319-1.38-4.397-4.213-5.05-9.1
			c-0.878,0.784-1.643,11.348,5.762,14c7.663,2.694,17.769,5.8,31.656-12.323c13.822-17.011,8.325-35.757,7.392-37.981
			c-0.933-2.226-4.94-13.159-16.843-14.572c0,0,13.786-8.454,22.263,6.021c8.477,14.474,7.303,28.428,2.087,39.251
			c-5.099,11.219-17.995,28.818-33.252,28.949c-13.62,1.467-20.294-8.686-20.294-8.686s1.923,9.656,14.002,11.893
			c12.554,2.325,23.265-5.468,32.47-14.875c4.503-5.797,10.037-12.109,13.04-22.298c2.779-9.432,3.455-18.322,0.781-26.994
			c-4.108-13.757-16.79-17.918-16.79-17.918s12.97-2.996,21.206,4.582c7.688,7.074,10.178,19.926,10.523,26.494
			c0.453,8.588-2.703,26.47-10.816,38.527c-8.701,11.422-14.651,17.361-17.782,19.837
			C211.718,322.566,204.298,327.516,199.409,328.251z M261.072,275.26c-1.766,14.952-11.568,27.947-15.221,32.643
			c-3.65,4.694-8.844,9-10.338,10.408c-2.898,3.111-14.955,11.443-22.523,12.387c-6.386,0.798-8.02-0.285-8.02-0.285
			s14.549-8.45,24.842-17.815c10.506-9.561,18.213-16.776,22.037-37.034c2.648-14.018-0.836-23.697-0.836-23.697
			S263.139,257.795,261.072,275.26z M277.762,203.317c-5.213,4.21-11.842,3.505-18.435,3.344
			c-10.453-0.255-17.518-3.286-17.518-3.286s0.807-3.013,0.094-3.846c-0.857,4.164-1.238,4.831-3.832,8.233
			c1.809-0.571,3.107-2.821,3.107-2.821l9.742,2.92l-2.158,1.561c-9.154,5.68-8.48,10.212-8.189,13.421
			c0.342,3.756,1.924,14.114,6.969,28.511c4.379,12.493,2.148,24.11-1.191,34.715c-2.664,8.452-11.277,16.662-11.277,16.662
			c2.727-2.46,8.305-16.87,9.064-20.25c0.498-2.215,4.27-14.706,1.566-28.858c-2.703-14.151-11.129-21.137-13.049-22.333
			c-1.199-0.747-8.266-5.919-16.633-4.601c-9.36,2.085-9.717,1.614-9.717,1.614s2.463-16.99,4.253-22.76
			c2.154-6.937,6.161-14.771,16.826-21.308c14.374-8.81,29.204-7.341,29.204-7.341c12.664,0.806,18.924,5.007,23.275,9.316
			C284.217,190.519,282.975,199.107,277.762,203.317z"/>
		<g>
			<path class="st0" d="M255.121,187.845c3.322,0.823,7.545,2.595,8.916,4.81c0.953,1.542,0.852,4.342-0.365,5.108
				c-1.246,0.78-3.148,0.652-4.312,0.345c-1.922-0.506-3.561-2.18-4.932-3.191c-1.598-1.179-3.322-2.467-4.951-3.407
				c-0.705-0.406-3.809-1.998-4.555-2.236c-1.023-0.328-2.143-0.394-3.279-0.582c0.471-0.554,3.738-1.332,4.572-1.44
				C249.803,186.795,252.482,187.191,255.121,187.845z M250.727,190.576c1.381,0.813,2.545,1.842,3.93,2.598
				c0.244-1.419,0.889-2.488,2.101-3.038c-2.664-1.419-6.5-1.994-10.576-1.477C247.795,189.297,249.348,189.762,250.727,190.576z
				 M257.477,195.29c-0.199-2.264,0.959-3.311,2.598-3.93c-1.699-1.148-4.223,0.679-3.975,2.489
				C256.174,194.397,256.586,195.304,257.477,195.29z"/>
			<path class="st0" d="M267.449,183.329c3.016,1.024,6.787,2.997,7.885,5.159c0.758,1.504,0.443,4.087-0.746,4.699
				c-1.211,0.626-2.963,0.357-4.018-0.018c-1.74-0.621-3.125-2.298-4.318-3.345c-1.389-1.219-2.883-2.551-4.317-3.547
				c-0.619-0.432-3.373-2.149-4.045-2.431c-0.92-0.385-1.953-0.531-2.988-0.795c0.479-0.477,3.568-0.939,4.346-0.972
				C262.609,181.937,265.062,182.518,267.449,183.329z M263.164,185.511c1.217,0.865,2.215,1.909,3.434,2.716
				c0.34-1.292,1.021-2.232,2.191-2.645c-2.354-1.525-5.863-2.359-9.682-2.199C260.547,184.099,261.953,184.65,263.164,185.511z
				 M269.043,190.41c-0.006-2.112,1.156-2.988,2.717-3.434c-1.483-1.197-3.961,0.296-3.877,1.991
				C267.91,189.48,268.223,190.351,269.043,190.41z"/>
		</g>
	</g>
	<path class="st0" d="M77.015,348.138c0.154-0.595,0.125-1.238-0.111-1.843l-0.665-1.7c0.409-0.461,0.65-0.92,0.782-1.44
		c0.453-1.812-0.692-3.145-1.612-4.215l-0.079-0.092c-0.338-0.395-0.836-0.87-1.25-1.248c-0.241-0.78-0.627-1.83-1.168-2.703
		l0.735-0.392c0.405-0.216,0.751-0.519,1.016-0.881c0.678-0.402,1.176-1.06,1.375-1.833c0.232-0.9,0.033-1.857-0.538-2.591
		c0,0-0.585-0.752-0.915-1.163c-0.403-0.507-0.936-0.996-1.191-1.22c-0.315-0.318-0.65-0.667-0.777-0.812
		c-0.204-0.281-0.452-0.537-0.841-0.802c-0.258-0.467-0.64-0.865-1.117-1.144c-0.436-0.254-1.245-0.712-1.782-0.927
		c-0.035-0.015-0.071-0.028-0.109-0.042c-0.5-0.551-1.196-0.906-1.962-0.973l-1.68-0.146c-0.393-0.35-0.876-0.596-1.406-0.701
		c-0.294-0.06-2.932-0.569-5.021-0.37c-1.112,0.106-2.405,0.393-3.361,0.635c-0.605-0.182-1.247-0.185-1.843-0.021
		c-1.094-1.134-2.515-2.48-3.626-3.098c-1.895-1.052-5.098-1.357-6.034-1.426c-0.829-0.051-1.616,0.223-2.207,0.745
		c-0.427-0.012-0.854-0.021-1.184-0.021c-1.601,0-3.166,0.768-3.607,1.003c-0.354,0.189-0.66,0.442-0.906,0.742
		c-1.002,0.356-2.175,0.938-3.019,1.857c-0.179,0.068-0.533,0.133-0.762,0.138c-0.928,0-1.805,0.43-2.373,1.164
		c-0.568,0.734-0.765,1.69-0.531,2.589c0.214,0.828,0.622,2.2,1.193,3.262c-0.188,0.133-0.375,0.267-0.556,0.4
		c-1.875,1.381-3.839,4.255-4.213,4.816c-0.52,0.78-0.643,1.752-0.345,2.629c-0.106,0.285-0.194,0.506-0.243,0.607
		c-0.188,0.356-1.236,1.978-2.096,3.269c-0.375,0.562-0.546,1.229-0.495,1.893c-0.729,1.351-1.103,2.672-1.106,2.695
		c0.038-0.228,0.094-0.361,0.096-0.366c-0.064,0.152-0.321,0.591-0.527,0.9c-0.549,0.823-0.657,1.864-0.288,2.782
		c0.069,0.171,0.152,0.334,0.249,0.486c-0.19,0.194-0.409,0.4-0.605,0.565c-1.114,0.929-1.404,2.521-0.688,3.784
		c0.715,1.262,2.232,1.829,3.601,1.351l2.67-0.935l0.41,0.028c0.675,0.498,1.551,0.705,2.412,0.521l1.561-0.335l0.188,0.052
		c0.741,0.202,1.532,0.114,2.211-0.249l0.739-0.396c0.385,0.104,0.792,0.13,1.195,0.07c0.372-0.053,1.749-0.291,3.158-1.048
		c-0.57,2.253-0.271,4.217,0.889,5.84c0.295,0.414,0.642,0.74,1.014,0.995l0.453,1.991c0.103,0.453,0.309,0.871,0.595,1.224
		l0.093,0.649c0.125,0.879,0.628,1.635,1.342,2.097c0.009,0.066,0.018,0.134,0.026,0.202c-0.006,0.318-0.316,1.192-0.633,1.79
		c-0.715,1.328-0.333,2.98,0.892,3.86c0.527,0.378,1.14,0.562,1.749,0.562c0.807,0,1.607-0.324,2.194-0.953
		c0.405-0.434,1.068-1.171,1.542-1.835c0.187-0.088,0.442-0.194,0.617-0.267c0.35-0.146,0.688-0.291,0.972-0.433
		c0.475-0.236,0.927-0.55,1.319-0.863c0.812-0.066,1.626-0.398,2.311-1.084c0.235-0.236,0.446-0.509,0.631-0.796
		c0.243-0.135,0.468-0.304,0.668-0.504c0.274-0.274,0.817-0.869,1.233-1.643c0.501-0.018,0.996-0.16,1.435-0.423
		c0.727-0.435,1.236-1.155,1.402-1.985c0.023-0.113,0.222-1.137,0.222-2.216c0-0.487-0.076-0.941-0.229-1.363
		c0.005-0.008,0.01-0.017,0.015-0.024c0.542-0.895,1.154-1.908,1.503-2.89c0.558,0.646,1.093,1.296,1.346,1.609
		c0.578,0.715,1.479,1.136,2.357,1.114c0.104,0.085,0.199,0.165,0.278,0.234c0.645,0.563,2.094,1.852,2.095,1.854
		c0.312,0.276,0.666,0.478,1.038,0.603c2.413,3.348,2.866,3.733,4.371,3.733c0.891,0,1.736-0.396,2.306-1.081
		c0.57-0.686,0.806-1.588,0.644-2.465c-0.083-0.449-0.018-0.647,0.385-1.558c0.288-0.65,0.647-1.46,0.888-2.507
		c0.213-0.921,0.325-1.818,0.38-2.596c0.601-0.573,0.999-1.365,1.13-2.288C77.369,349.693,77.237,348.854,77.015,348.138z"/>
	<g>
		<path class="st1" d="M45.543,367.225c-0.119,0-0.241-0.021-0.358-0.066c-0.516-0.198-0.773-0.776-0.575-1.292
			c0.013-0.034,1.322-3.47,1.841-6.945c0.127-0.851,0.299-2.209,0.507-3.855c0.699-5.528,1.755-13.883,2.939-17.856
			c1.488-4.992,2.945-12.252,2.959-12.325c0.082-0.409,0.41-0.726,0.823-0.791c0.408-0.069,0.822,0.131,1.028,0.495
			c0.223,0.395,5.482,9.724,7.545,15.152c0.878,2.312,2.772,5.328,4.604,8.245c2.46,3.917,4.784,7.617,5.05,10.11
			c0.059,0.55-0.339,1.042-0.888,1.101c-0.546,0.057-1.042-0.339-1.101-0.888c-0.217-2.034-2.524-5.707-4.755-9.26
			c-1.884-3-3.832-6.102-4.78-8.598c-1.394-3.667-4.395-9.356-6.123-12.532c-0.568,2.617-1.5,6.683-2.447,9.86
			c-1.137,3.817-2.223,12.405-2.872,17.537c-0.21,1.665-0.385,3.039-0.513,3.899c-0.552,3.699-1.896,7.22-1.952,7.367
			C46.324,366.98,45.945,367.225,45.543,367.225z"/>
		<path class="st1" d="M24.51,350.854c-0.312,0-0.619-0.146-0.814-0.418c-0.322-0.448-0.218-1.073,0.23-1.395
			c0.108-0.078,10.833-7.785,14.714-12.558c4.055-4.986,14.613-12.298,15.061-12.606c0.454-0.312,1.077-0.2,1.391,0.255
			c0.313,0.455,0.199,1.078-0.255,1.392c-0.107,0.074-10.77,7.457-14.645,12.222c-4.05,4.98-14.651,12.6-15.101,12.921
			C24.915,350.793,24.712,350.854,24.51,350.854z"/>
		<path class="st1" d="M54.513,357.238c-0.242,0-0.455-0.176-0.494-0.423c-1.067-6.822-3.011-14.292-4.288-14.462
			c-0.995-0.166-4.401,5.158-8.175,13.932c-0.11,0.255-0.406,0.372-0.657,0.262c-0.253-0.108-0.371-0.403-0.262-0.656
			c5.949-13.829,8.568-14.596,9.226-14.529c0.659,0.088,2.977,1.451,5.144,15.3c0.042,0.272-0.144,0.528-0.417,0.571
			C54.565,357.236,54.539,357.238,54.513,357.238z"/>
		<path class="st2" d="M50.691,363.406"/>
		<path class="st1" d="M62.238,351.465c-0.203,0-0.394-0.124-0.469-0.326c-0.044-0.119-1.085-2.944-1.169-5.032
			c-0.083-2.079,0.634-5.054,0.665-5.18c0.065-0.269,0.335-0.433,0.604-0.367c0.269,0.064,0.433,0.335,0.368,0.604
			c-0.007,0.029-0.715,2.966-0.638,4.903c0.078,1.928,1.098,4.696,1.108,4.725c0.096,0.259-0.036,0.547-0.295,0.643
			C62.355,351.455,62.296,351.465,62.238,351.465z"/>
		<path class="st1" d="M66.224,330.742c-0.081,0-0.162-0.01-0.244-0.03c-0.378-0.094-9.291-2.335-12.155-4.104
			c-2.326-1.437-12.921-0.558-15.773,0.047c-0.541,0.113-1.071-0.23-1.186-0.771c-0.115-0.541,0.23-1.071,0.771-1.187
			c1.866-0.396,13.863-1.878,17.239,0.209c2.601,1.605,11.5,3.843,11.589,3.865c0.536,0.134,0.861,0.677,0.728,1.212
			C67.079,330.439,66.671,330.742,66.224,330.742z"/>
		<path class="st1" d="M34.933,349.524l-0.845-0.535c0.042-0.065,4.118-6.55,3.508-10.137l0.986-0.168
			C39.256,342.649,35.11,349.246,34.933,349.524z"/>
		<path class="st1" d="M29.008,335.283c-0.223,0-0.426-0.15-0.484-0.376c-0.068-0.268,0.093-0.54,0.36-0.608
			c0.046-0.012,4.683-1.201,8.093-2.373c3.503-1.204,8.505-1.323,8.716-1.328c0.32,0.018,0.505,0.214,0.511,0.489
			c0.006,0.276-0.213,0.505-0.489,0.511c-0.05,0.001-5.059,0.121-8.413,1.273c-3.449,1.186-8.123,2.385-8.17,2.396
			C29.091,335.278,29.049,335.283,29.008,335.283z"/>
	</g>
</g>
<g id="Layer_1">
	<g>
		<g>
			<path class="st0" d="M5.018,255.209c1.818-2.574,2.75-3.843,4.661-6.334c1.156-1.51,2.426-2.807,3.792-3.89
				c1.367-1.083,2.789-1.827,4.247-2.232c1.46-0.406,2.943-0.431,4.444-0.08c1.5,0.351,2.972,1.178,4.425,2.464
				c1.288,1.139,2.197,2.399,2.743,3.764c0.545,1.365,0.793,2.758,0.751,4.18c-0.041,1.423-0.339,2.834-0.892,4.241
				c-0.552,1.408-1.307,2.73-2.271,3.979c-1.868,2.421-2.78,3.653-4.551,6.161C15.427,262.561,11.958,260.11,5.018,255.209z
				 M21.659,261.082c0.596-0.799,0.896-1.195,1.502-1.984c0.673-0.877,1.22-1.754,1.64-2.637c0.42-0.881,0.654-1.752,0.702-2.616
				c0.047-0.865-0.116-1.717-0.495-2.559c-0.379-0.842-1.025-1.65-1.945-2.421c-0.797-0.668-1.624-1.091-2.482-1.263
				c-0.86-0.171-1.71-0.141-2.549,0.098c-0.84,0.236-1.662,0.656-2.462,1.26c-0.8,0.604-1.529,1.333-2.183,2.182
				c-0.737,0.956-1.101,1.438-1.824,2.406C15.602,256.561,17.62,258.068,21.659,261.082z"/>
			<path class="st0" d="M21.833,237.54c-0.533-0.484-0.8-1.106-0.794-1.867c0.006-0.762,0.283-1.439,0.83-2.024
				c0.547-0.586,1.204-0.909,1.963-0.965c0.759-0.057,1.396,0.168,1.915,0.667c0.519,0.499,0.77,1.126,0.756,1.879
				c-0.014,0.753-0.287,1.412-0.819,1.982c-0.533,0.569-1.172,0.886-1.922,0.952C23.009,238.229,22.365,238.023,21.833,237.54z
				 M25.491,240.339c1.301-1.429,1.961-2.135,3.295-3.529c4.211,4.035,6.316,6.053,10.527,10.088
				c-1.234,1.288-1.843,1.94-3.046,3.262C31.957,246.232,29.801,244.269,25.491,240.339z"/>
			<path class="st0" d="M51.854,233.399c1.787,2.104,2.623,4.14,2.555,6.093c-0.068,1.954-1.092,3.806-3.062,5.643
				c-0.901,0.842-1.879,1.572-2.94,2.201c-1.062,0.629-2.244,1.01-3.558,1.145c-0.385-1.727-0.568-2.597-0.915-4.343
				c0.897-0.068,1.731-0.239,2.508-0.513c0.775-0.273,1.487-0.716,2.14-1.326c0.979-0.914,1.48-1.82,1.501-2.743
				c0.021-0.922-0.308-1.772-1.001-2.548c-0.376-0.421-0.564-0.631-0.94-1.052c-0.018,0.016-0.027,0.024-0.044,0.04
				c0.08,0.868-0.063,1.663-0.43,2.39c-0.366,0.728-0.793,1.319-1.283,1.777c-0.778,0.728-1.604,1.263-2.489,1.603
				c-0.883,0.34-1.784,0.496-2.702,0.464c-0.92-0.032-1.827-0.248-2.724-0.652c-0.896-0.403-1.737-0.987-2.52-1.76
				c-0.683-0.674-1.242-1.449-1.665-2.327c-0.425-0.878-0.669-1.78-0.734-2.702c-0.065-0.922,0.065-1.845,0.395-2.764
				c0.33-0.918,0.899-1.766,1.71-2.528c0.499-0.47,1.007-0.845,1.518-1.128c0.512-0.281,1.007-0.49,1.486-0.628
				c0.48-0.138,0.93-0.213,1.347-0.225c0.417-0.012,0.782,0.017,1.097,0.085c0.019-0.017,0.028-0.026,0.047-0.043
				c-0.511-0.574-0.766-0.859-1.276-1.433c1.321-1.175,1.989-1.756,3.335-2.9C46.668,227.294,48.396,229.33,51.854,233.399z
				 M39.227,236.538c0.333,0.345,0.716,0.608,1.147,0.792c0.43,0.183,0.881,0.276,1.351,0.284c0.471,0.007,0.932-0.064,1.385-0.217
				c0.453-0.153,0.872-0.407,1.257-0.764c0.37-0.343,0.652-0.735,0.846-1.183c0.194-0.446,0.303-0.906,0.332-1.375
				c0.028-0.47-0.032-0.925-0.181-1.368c-0.15-0.443-0.382-0.845-0.701-1.204c-0.32-0.359-0.691-0.638-1.117-0.835
				c-0.425-0.196-0.875-0.302-1.352-0.317c-0.476-0.016-0.952,0.058-1.427,0.22c-0.476,0.163-0.907,0.422-1.292,0.778
				c-0.4,0.371-0.696,0.785-0.887,1.239c-0.19,0.455-0.298,0.92-0.32,1.396c-0.021,0.477,0.05,0.937,0.214,1.375
				C38.645,235.8,38.893,236.192,39.227,236.538z"/>
			<path class="st0" d="M50.19,209.236c2.496-1.828,3.76-2.719,6.323-4.448c1.551-1.047,3.146-1.861,4.767-2.442
				c1.621-0.582,3.19-0.827,4.69-0.743c1.501,0.085,2.908,0.537,4.214,1.349c1.305,0.811,2.435,2.064,3.407,3.745
				c0.861,1.488,1.326,2.968,1.417,4.433c0.091,1.465-0.107,2.86-0.586,4.189c-0.48,1.33-1.195,2.566-2.149,3.715
				s-2.072,2.151-3.364,3.015c-2.502,1.676-3.737,2.541-6.167,4.322C57.721,219.518,55.21,216.091,50.19,209.236z M64.03,220.148
				c0.805-0.559,1.21-0.836,2.022-1.384c0.903-0.608,1.687-1.258,2.354-1.954c0.666-0.695,1.157-1.441,1.469-2.24
				c0.311-0.8,0.421-1.656,0.325-2.573c-0.097-0.917-0.456-1.888-1.085-2.91c-0.544-0.886-1.192-1.55-1.948-1.987
				c-0.757-0.438-1.567-0.682-2.43-0.729c-0.864-0.046-1.769,0.085-2.708,0.396c-0.938,0.312-1.848,0.763-2.724,1.351
				c-0.988,0.663-1.48,0.997-2.458,1.674C59.72,213.934,61.157,216.007,64.03,220.148z"/>
			<path class="st0" d="M92.154,206.102c-0.267,1.137-0.781,2.162-1.542,3.084c-0.763,0.921-1.654,1.642-2.689,2.165
				c-0.983,0.497-1.986,0.812-3.015,0.948c-1.031,0.137-2.025,0.087-2.982-0.153c-0.959-0.241-1.849-0.666-2.677-1.281
				c-0.828-0.615-1.53-1.424-2.099-2.435c-0.569-1.01-0.896-2.032-0.972-3.066c-0.076-1.034,0.06-2.03,0.416-2.988
				c0.355-0.957,0.916-1.844,1.68-2.654c0.764-0.81,1.682-1.488,2.749-2.028c0.99-0.501,1.975-0.787,2.946-0.859
				c0.971-0.072,1.886,0.065,2.733,0.405c0.849,0.34,1.623,0.87,2.32,1.583c0.697,0.713,1.286,1.6,1.77,2.654
				c0.235,0.513,0.352,0.769,0.587,1.281c-3.866,1.773-5.772,2.716-9.523,4.706c0.564,0.675,1.232,1.095,2.003,1.267
				c0.771,0.172,1.546,0.061,2.333-0.337c0.661-0.335,1.148-0.762,1.461-1.285c0.313-0.523,0.529-1.101,0.649-1.737
				C89.852,205.648,90.623,205.794,92.154,206.102z M85.894,201.971c-0.315-0.691-0.832-1.16-1.559-1.403
				c-0.728-0.243-1.479-0.171-2.246,0.218c-0.468,0.238-0.841,0.521-1.121,0.847c-0.281,0.325-0.488,0.665-0.622,1.017
				c-0.134,0.353-0.192,0.711-0.176,1.075c0.017,0.364,0.102,0.712,0.252,1.038C82.593,203.611,83.686,203.051,85.894,201.971z"/>
			<path class="st0" d="M108.125,199.606c-0.376,1.107-0.991,2.081-1.841,2.927c-0.85,0.846-1.809,1.479-2.892,1.903
				c-1.029,0.402-2.061,0.622-3.102,0.661c-1.042,0.04-2.026-0.102-2.958-0.432c-0.933-0.33-1.782-0.837-2.549-1.528
				c-0.766-0.69-1.388-1.562-1.858-2.623c-0.47-1.06-0.7-2.107-0.677-3.145c0.023-1.036,0.256-2.016,0.703-2.936
				c0.446-0.919,1.09-1.751,1.93-2.486c0.839-0.734,1.822-1.323,2.939-1.76c1.037-0.406,2.049-0.599,3.025-0.58
				c0.976,0.02,1.877,0.242,2.69,0.66c0.815,0.418,1.536,1.019,2.164,1.794c0.627,0.776,1.129,1.714,1.51,2.809
				c0.185,0.533,0.278,0.799,0.464,1.332c-4.033,1.404-6.027,2.165-9.962,3.794c0.498,0.725,1.124,1.205,1.878,1.45
				c0.752,0.244,1.537,0.205,2.36-0.118c0.692-0.271,1.22-0.651,1.583-1.141c0.363-0.492,0.633-1.048,0.814-1.67
				C105.868,198.938,106.625,199.155,108.125,199.606z M102.272,194.904c-0.249-0.719-0.722-1.235-1.423-1.545
				c-0.702-0.311-1.459-0.31-2.263,0.006c-0.49,0.193-0.89,0.439-1.201,0.736c-0.311,0.298-0.548,0.617-0.716,0.955
				c-0.167,0.337-0.26,0.691-0.279,1.056c-0.018,0.365,0.032,0.717,0.151,1.057C98.817,196.226,99.963,195.773,102.272,194.904z"/>
			<path class="st0" d="M108.011,186.905c1.687-0.554,2.533-0.821,4.234-1.337c0.223,0.735,0.334,1.102,0.558,1.838
				c0.024-0.008,0.036-0.012,0.06-0.019c0.108-0.304,0.272-0.631,0.491-0.979c0.219-0.347,0.499-0.686,0.838-1.014
				c0.339-0.328,0.728-0.628,1.165-0.898c0.436-0.27,0.928-0.48,1.469-0.63c1.121-0.309,2.191-0.401,3.2-0.28
				c1.009,0.122,1.922,0.431,2.735,0.921c0.813,0.491,1.5,1.146,2.06,1.957c0.561,0.812,0.961,1.757,1.211,2.828
				c0.231,0.994,0.298,1.979,0.203,2.957c-0.095,0.979-0.338,1.882-0.725,2.719c-0.387,0.835-0.924,1.562-1.609,2.181
				c-0.685,0.619-1.522,1.062-2.518,1.334c-0.9,0.246-1.775,0.34-2.628,0.285c-0.854-0.055-1.628-0.341-2.328-0.861
				c-0.023,0.007-0.035,0.011-0.058,0.018c0.969,3.217,1.452,4.825,2.421,8.042c-1.646,0.495-2.464,0.752-4.094,1.288
				C112.021,199.116,110.684,195.046,108.011,186.905z M114.36,192.545c0.319,1.053,0.886,1.809,1.696,2.278
				c0.809,0.469,1.763,0.544,2.876,0.23c1.113-0.313,1.888-0.874,2.335-1.696c0.448-0.823,0.539-1.766,0.263-2.831
				c-0.277-1.064-0.819-1.845-1.633-2.331c-0.814-0.488-1.806-0.572-2.963-0.246c-1.158,0.326-1.96,0.915-2.399,1.756
				C114.095,190.544,114.041,191.493,114.36,192.545z"/>
			<path class="st0" d="M132.029,192.925c-0.076-0.373-0.079-0.74-0.006-1.103c0.072-0.362,0.209-0.69,0.412-0.985
				c0.202-0.295,0.461-0.544,0.779-0.749c0.317-0.205,0.667-0.343,1.052-0.416c0.385-0.073,0.765-0.073,1.134,0.001
				c0.369,0.075,0.703,0.216,1,0.417c0.296,0.201,0.545,0.457,0.744,0.767c0.199,0.311,0.331,0.654,0.395,1.028
				c0.064,0.374,0.055,0.741-0.026,1.101c-0.081,0.359-0.226,0.684-0.43,0.974c-0.204,0.291-0.46,0.534-0.77,0.731
				c-0.311,0.199-0.652,0.333-1.025,0.404c-0.374,0.069-0.741,0.069-1.101-0.003c-0.361-0.072-0.689-0.207-0.984-0.403
				c-0.294-0.196-0.545-0.446-0.751-0.751C132.247,193.635,132.105,193.297,132.029,192.925z M136.26,187.602
				c-1.847,0.324-2.767,0.497-4.601,0.866c-1.123-5.577-1.684-8.364-2.807-13.941c1.975-0.398,2.965-0.585,4.954-0.934
				C134.788,179.196,135.278,181.999,136.26,187.602z"/>
		</g>
	</g>
	<g>
		<g>
			<path class="st0" d="M177.059,176.614c-0.422,0-0.85-0.049-1.278-0.151c-2.955-0.704-4.78-3.669-4.077-6.625
				c0.281-1.178,7.171-29.395,33.563-77.308c26.727-48.518,64.083-79.37,65.66-80.66c2.351-1.922,5.816-1.576,7.739,0.776
				c1.923,2.352,1.575,5.816-0.776,7.739c-0.368,0.302-37.328,30.871-62.988,77.452c-25.678,46.617-32.432,74.274-32.497,74.548
				C181.803,174.913,179.547,176.614,177.059,176.614z"/>
			<path class="st0" d="M250.868,40.41c-0.38,0-0.744-0.219-0.911-0.588c-0.107-0.236-2.598-5.896-0.667-15.837
				c1.934-9.957,7.298-14.881,7.525-15.086c0.407-0.369,1.042-0.338,1.412,0.074c0.369,0.41,0.337,1.042-0.072,1.411l0,0
				c-0.051,0.046-5.104,4.722-6.902,13.983c-1.811,9.322,0.502,14.578,0.525,14.63c0.228,0.503,0.005,1.096-0.498,1.323
				C251.146,40.381,251.006,40.41,250.868,40.41z"/>
			<path class="st0" d="M257.861,32.347c-0.127,0-0.256-0.024-0.381-0.076c-0.511-0.21-0.754-0.794-0.544-1.305L268.601,2.62
				c0.211-0.511,0.795-0.754,1.306-0.544s0.754,0.794,0.544,1.305l-11.664,28.347C258.627,32.113,258.254,32.347,257.861,32.347z"/>
			<path class="st0" d="M258.398,35.788c-0.396,0-0.771-0.238-0.928-0.628c-0.206-0.513,0.043-1.095,0.556-1.301l27.762-11.142
				c0.512-0.206,1.095,0.044,1.3,0.556c0.206,0.513-0.043,1.095-0.556,1.301l-27.762,11.142
				C258.648,35.764,258.522,35.788,258.398,35.788z"/>
			<path class="st0" d="M250.918,50.52c-3.496,0-6.042-0.757-6.234-0.816c-0.528-0.161-0.824-0.719-0.664-1.247
				c0.161-0.528,0.722-0.825,1.248-0.666c0.079,0.024,7.995,2.355,14.809-1.567c7.048-4.057,13.386-11.908,13.449-11.987
				c0.345-0.43,0.977-0.5,1.405-0.155c0.432,0.346,0.501,0.975,0.155,1.406c-0.268,0.334-6.641,8.226-14.012,12.469
				C257.582,49.968,253.904,50.52,250.918,50.52z"/>
			<path class="st0" d="M233.978,60.514c-0.345,0-0.68-0.178-0.866-0.498c-0.185-0.318-4.5-7.918-2.404-18.702
				c1.919-9.878,8.615-18.082,8.899-18.426c0.351-0.426,0.981-0.488,1.407-0.135c0.426,0.351,0.487,0.981,0.136,1.408
				c-0.066,0.081-6.66,8.167-8.479,17.536c-1.955,10.054,2.129,17.245,2.17,17.316c0.277,0.478,0.115,1.089-0.363,1.367
				C234.321,60.47,234.148,60.514,233.978,60.514z"/>
			<path class="st0" d="M224.466,74.062c-0.239,0-0.479-0.085-0.67-0.258c-0.309-0.279-7.554-6.961-7.173-18.182
				c0.379-11.168,8.915-19.354,9.278-19.698c0.4-0.379,1.032-0.361,1.413,0.04c0.379,0.401,0.362,1.034-0.039,1.414
				c-0.083,0.079-8.302,7.981-8.653,18.312c-0.35,10.302,6.447,16.568,6.515,16.63c0.41,0.37,0.442,1.002,0.071,1.412
				C225.011,73.952,224.739,74.062,224.466,74.062z"/>
			<path class="st0" d="M216.009,86.43c-0.247,0-0.494-0.091-0.688-0.274c-0.336-0.318-8.24-7.894-9.776-17.028
				c-1.588-9.446,3.917-19.296,4.151-19.71c0.272-0.481,0.881-0.648,1.363-0.377c0.48,0.272,0.649,0.882,0.377,1.363
				c-0.054,0.096-5.388,9.657-3.919,18.393c1.426,8.482,9.102,15.835,9.179,15.908c0.401,0.38,0.418,1.013,0.039,1.414
				C216.538,86.326,216.273,86.43,216.009,86.43z"/>
			<path class="st0" d="M203.726,106.189c-0.245,0-0.491-0.09-0.684-0.271c-0.266-0.25-6.544-6.249-8.411-16.652
				c-1.863-10.381,2.61-20.481,2.801-20.906c0.226-0.503,0.816-0.73,1.322-0.501c0.503,0.226,0.728,0.818,0.502,1.322
				c-0.044,0.099-4.407,9.974-2.656,19.732c1.745,9.724,7.752,15.492,7.812,15.549c0.401,0.379,0.42,1.012,0.042,1.413
				C204.258,106.083,203.992,106.189,203.726,106.189z"/>
			<path class="st0" d="M195.964,122.772c-0.092,0-0.187-0.013-0.279-0.04c-0.376-0.109-9.249-2.836-12.833-16.799
				c-3.593-13.996,3.529-20.633,3.833-20.909c0.41-0.37,1.042-0.339,1.413,0.071s0.339,1.042-0.071,1.413
				c-0.265,0.243-6.515,6.165-3.238,18.928c3.303,12.87,11.372,15.352,11.453,15.375c0.531,0.154,0.835,0.709,0.682,1.239
				C196.797,122.488,196.398,122.772,195.964,122.772z"/>
			<path class="st0" d="M187.805,142.177c-0.167,0-0.335-0.042-0.49-0.129c-0.37-0.208-9.074-5.255-11.154-18.231
				c-2.166-13.501,4.021-21,4.285-21.313c0.356-0.42,0.987-0.475,1.41-0.118c0.421,0.357,0.474,0.988,0.118,1.41
				c-0.057,0.068-5.85,7.159-3.837,19.705c1.93,12.034,10.08,16.759,10.162,16.805c0.481,0.271,0.651,0.881,0.38,1.362
				C188.493,141.994,188.154,142.177,187.805,142.177z"/>
			<path class="st0" d="M243.332,65.276c-5.871,0-10.286-2.19-10.554-2.326c-0.492-0.25-0.688-0.85-0.439-1.343
				c0.249-0.492,0.851-0.688,1.343-0.441c0.087,0.045,8.938,4.408,17.825,0.379c9.134-4.142,15.156-11.496,15.216-11.57
				c0.348-0.429,0.978-0.497,1.406-0.148c0.43,0.348,0.496,0.978,0.148,1.407c-0.257,0.316-6.384,7.797-15.944,12.132
				C249.197,64.789,246.103,65.276,243.332,65.276z"/>
			<path class="st0" d="M233.879,81.524c-6.039,0-11.019-2.685-11.296-2.837c-0.484-0.266-0.66-0.873-0.395-1.357
				s0.872-0.663,1.357-0.396c0.084,0.045,8.421,4.524,16.053,1.568c7.828-3.032,15.957-13.1,16.038-13.201
				c0.345-0.43,0.975-0.5,1.405-0.155s0.501,0.974,0.155,1.405c-0.345,0.431-8.543,10.588-16.876,13.816
				C238.146,81.208,235.95,81.524,233.879,81.524z"/>
			<path class="st0" d="M222.643,96.889c-6.097,0-9.571-3.403-9.761-3.595c-0.389-0.392-0.387-1.025,0.005-1.414
				c0.391-0.388,1.022-0.386,1.412,0.002l0,0c0.217,0.215,5.419,5.23,14.437,1.813c9.459-3.584,18.484-12.871,18.574-12.964
				c0.383-0.398,1.018-0.408,1.414-0.026c0.397,0.383,0.409,1.016,0.026,1.414c-0.38,0.395-9.42,9.701-19.305,13.446
				C226.912,96.525,224.637,96.889,222.643,96.889z"/>
			<path class="st0" d="M215.408,112.525c-6.015,0-11.088-2.372-11.396-2.518c-0.499-0.238-0.709-0.834-0.473-1.333
				c0.238-0.498,0.834-0.71,1.333-0.473c0.102,0.048,10.258,4.777,18.245,0.54c8.196-4.348,12.913-12.414,12.96-12.495
				c0.276-0.479,0.887-0.644,1.366-0.367c0.479,0.276,0.643,0.887,0.367,1.366c-0.202,0.351-5.056,8.647-13.755,13.262
				C221.227,112.008,218.215,112.525,215.408,112.525z"/>
			<path class="st0" d="M202.765,122.297c-2.25,0-3.762-0.172-3.935-0.193c-0.548-0.065-0.939-0.563-0.874-1.111
				c0.065-0.549,0.555-0.934,1.111-0.875c0.117,0.016,11.739,1.326,19.416-3.708c8.063-5.289,15.445-19.377,15.519-19.519
				c0.254-0.491,0.856-0.682,1.348-0.426c0.49,0.254,0.681,0.858,0.426,1.348c-0.31,0.598-7.7,14.697-16.196,20.27
				C214.125,121.66,207.086,122.297,202.765,122.297z"/>
			<path class="st0" d="M198.49,135.729c-5.161,0-8.378-1.896-8.593-2.026c-0.472-0.287-0.623-0.901-0.335-1.374
				c0.287-0.471,0.899-0.621,1.371-0.337l0,0c0.314,0.188,7.822,4.542,18.569-1.282c10.963-5.94,15.923-18.427,15.972-18.553
				c0.2-0.514,0.778-0.77,1.294-0.569c0.514,0.2,0.77,0.779,0.57,1.293c-0.209,0.54-5.26,13.289-16.883,19.587
				C205.86,134.958,201.78,135.729,198.49,135.729z"/>
		</g>
		<path class="st0" d="M254.766,38.758c-1.291,0-2.118-0.087-2.209-0.097c-0.549-0.061-0.943-0.555-0.883-1.104
			c0.06-0.549,0.542-0.949,1.103-0.885c0.058,0.006,5.828,0.604,11.177-1.598c5.345-2.2,13.826-13.557,13.911-13.671
			c0.33-0.443,0.955-0.536,1.399-0.207c0.443,0.33,0.535,0.956,0.206,1.399c-0.36,0.486-8.899,11.917-14.755,14.329
			C260.956,38.472,257.102,38.758,254.766,38.758z"/>
		<path class="st0" d="M244.333,45.333c-0.446,0-0.853-0.3-0.968-0.752c-0.105-0.411-2.553-10.136-1.176-16.622
			c1.242-5.856,12.163-12.533,12.626-12.814c0.473-0.287,1.087-0.135,1.374,0.336c0.286,0.472,0.135,1.087-0.337,1.374
			c-2.957,1.793-10.825,7.359-11.708,11.52c-1.28,6.033,1.133,15.616,1.158,15.711c0.137,0.535-0.186,1.08-0.721,1.216
			C244.499,45.324,244.415,45.333,244.333,45.333z"/>
		<path class="st0" d="M248.701,54.413c-4.554,0-8.773-1.383-9.018-1.464c-0.523-0.175-0.807-0.741-0.632-1.265
			c0.174-0.523,0.739-0.806,1.265-0.633c0.077,0.025,7.75,2.532,13.018,0.673c5.248-1.852,10.406-11.114,10.457-11.207
			c0.267-0.483,0.875-0.659,1.359-0.393c0.483,0.267,0.659,0.875,0.393,1.358c-0.226,0.409-5.586,10.024-11.543,12.127
			C252.33,54.199,250.489,54.413,248.701,54.413z"/>
		<path class="st0" d="M230.334,65c-0.297,0-0.591-0.132-0.788-0.384c-0.254-0.325-6.226-8.038-5.877-14.669
			c0.354-6.728,12.873-16.026,13.405-16.419c0.444-0.328,1.071-0.233,1.398,0.212c0.328,0.444,0.233,1.07-0.211,1.398
			c-3.417,2.52-12.342,10.11-12.595,14.914c-0.31,5.891,5.398,13.257,5.456,13.331c0.34,0.435,0.264,1.063-0.171,1.404
			C230.767,64.931,230.55,65,230.334,65z"/>
		<path class="st0" d="M226.752,84.079c-4.708,0-8.385-0.719-8.615-0.765c-0.541-0.108-0.892-0.635-0.784-1.176
			c0.108-0.542,0.635-0.895,1.176-0.785c0.081,0.016,8.228,1.603,15.592,0.003c7.096-1.542,12.262-12.021,12.313-12.126
			c0.241-0.496,0.839-0.705,1.336-0.463c0.497,0.241,0.704,0.839,0.463,1.336c-0.227,0.467-5.639,11.458-13.688,13.207
			C231.895,83.887,229.186,84.079,226.752,84.079z"/>
		<path class="st0" d="M209.667,94.333c-0.289,0-0.576-0.125-0.774-0.367c-0.254-0.311-6.226-7.705-6.226-15.967
			c0-8.294,7.607-16.658,7.931-17.01c0.375-0.406,1.005-0.433,1.413-0.059c0.406,0.374,0.433,1.006,0.06,1.413
			c-0.074,0.081-7.403,8.147-7.403,15.656c0,7.538,5.717,14.63,5.774,14.701c0.349,0.428,0.286,1.058-0.142,1.407
			C210.114,94.259,209.89,94.333,209.667,94.333z"/>
		<path class="st0" d="M214.808,102.137c-4.114,0-7.191-0.783-7.394-0.836c-0.534-0.14-0.854-0.685-0.715-1.219
			c0.138-0.535,0.683-0.855,1.219-0.716c0.073,0.02,7.488,1.896,14.445-0.319c6.795-2.162,11.002-12.321,11.044-12.424
			c0.208-0.512,0.792-0.758,1.303-0.549c0.511,0.208,0.757,0.791,0.549,1.303c-0.184,0.453-4.598,11.129-12.29,13.577
			C220.142,101.853,217.287,102.137,214.808,102.137z"/>
		<path class="st0" d="M199.999,113.333c-0.226,0-0.452-0.076-0.639-0.232c-0.342-0.285-8.374-7.082-8.025-15.808
			c0.34-8.504,6.556-18.411,6.821-18.829c0.295-0.466,0.912-0.605,1.379-0.31c0.467,0.295,0.605,0.913,0.31,1.379
			c-0.062,0.098-6.194,9.876-6.512,17.839c-0.309,7.731,7.232,14.128,7.308,14.192c0.424,0.354,0.48,0.984,0.127,1.408
			C200.569,113.211,200.285,113.333,199.999,113.333z"/>
		<path class="st0" d="M195.478,128.011c-0.482,0-0.781-0.009-0.846-0.011c-0.552-0.019-0.983-0.482-0.965-1.034
			c0.019-0.552,0.5-0.983,1.034-0.965c0.097,0.005,9.448,0.282,14.792-2.862c5.173-3.043,6.178-8.583,6.188-8.639
			c0.094-0.543,0.612-0.907,1.152-0.818c0.543,0.092,0.911,0.605,0.82,1.149c-0.044,0.264-1.146,6.501-7.146,10.031
			C205.591,127.754,198.014,128.011,195.478,128.011z"/>
		<path class="st0" d="M191,131.333c-0.277,0-0.553-0.115-0.751-0.339c-0.311-0.354-7.609-8.745-6.912-16.418
			c0.665-7.31,2.335-15.045,2.352-15.122c0.117-0.54,0.647-0.881,1.189-0.765c0.54,0.117,0.882,0.65,0.765,1.189
			c-0.017,0.076-1.661,7.694-2.314,14.878c-0.62,6.813,6.351,14.836,6.421,14.917c0.364,0.415,0.324,1.046-0.091,1.411
			C191.47,131.251,191.235,131.333,191,131.333z"/>
		<path class="st0" d="M241.001,50c-0.044,0-0.089-0.003-0.134-0.009c-0.547-0.073-0.932-0.576-0.859-1.124
			c0.342-2.561,2.17-15.459,4.618-17.908c2.33-2.33,7.496-6.854,7.715-7.045c0.414-0.364,1.045-0.323,1.411,0.094
			c0.363,0.416,0.321,1.047-0.095,1.411c-0.053,0.046-5.334,4.671-7.617,6.955c-1.525,1.525-3.293,11.089-4.05,16.758
			C241.924,49.635,241.495,50,241.001,50z"/>
		<path class="st0" d="M229.303,70.008c-0.377,0-0.611-0.007-0.669-0.009c-0.552-0.019-0.984-0.48-0.966-1.032
			c0.019-0.552,0.468-1.003,1.033-0.967c0.094,0.003,9.714,0.271,14.7-3.467c5.16-3.87,9.095-9.082,9.134-9.134
			c0.331-0.44,0.958-0.532,1.399-0.2c0.442,0.331,0.532,0.958,0.2,1.4c-0.167,0.222-4.147,5.494-9.534,9.533
			C239.804,69.73,231.695,70.008,229.303,70.008z"/>
		<path class="st0" d="M216,90.167c-0.546,0-0.992-0.438-0.999-0.986c-0.008-0.552,0.434-1.006,0.986-1.014
			c0.12-0.001,12.082-0.231,18.729-5.453c6.632-5.211,8.618-14.976,8.637-15.073c0.106-0.542,0.634-0.897,1.174-0.788
			c0.542,0.106,0.895,0.632,0.788,1.174c-0.084,0.43-2.154,10.596-9.364,16.26c-7.184,5.645-19.42,5.874-19.938,5.881
			C216.009,90.167,216.004,90.167,216,90.167z"/>
		<path class="st0" d="M206,108.833c-0.534,0-0.977-0.421-0.999-0.959c-0.022-0.551,0.407-1.017,0.958-1.04
			c0.08-0.003,8.094-0.383,13.76-4.791c5.593-4.351,6.618-9.988,6.628-10.044c0.093-0.542,0.612-0.908,1.152-0.818
			c0.544,0.092,0.911,0.605,0.82,1.149c-0.043,0.261-1.136,6.441-7.373,11.292c-6.182,4.809-14.554,5.195-14.907,5.209
			C206.026,108.833,206.013,108.833,206,108.833z"/>
		<path class="st0" d="M198,118c-0.269,0-0.537-0.108-0.734-0.321c-0.354-0.382-8.647-9.433-7.588-16.494
			c1.026-6.844,7.584-15.433,7.863-15.795c0.336-0.438,0.963-0.521,1.402-0.183c0.438,0.336,0.52,0.964,0.184,1.402
			c-0.065,0.085-6.521,8.542-7.471,14.873c-0.918,6.121,6.998,14.752,7.078,14.839c0.375,0.405,0.351,1.038-0.055,1.413
			C198.487,117.912,198.243,118,198,118z"/>
	</g>
	<g>
		<g>
			<path class="st0" d="M247.582,153.88c-1.443,0-2.885-0.564-3.964-1.687c-2.106-2.189-2.038-5.671,0.151-7.777
				c0.873-0.839,21.922-20.854,70.026-46.898c48.711-26.372,96.816-32.136,98.84-32.369c3.029-0.354,5.745,1.819,6.092,4.836
				s-1.818,5.745-4.836,6.091c-0.474,0.055-48.092,5.795-94.859,31.114c-46.802,25.339-67.434,44.957-67.637,45.152
				C250.327,153.37,248.954,153.88,247.582,153.88z"/>
			<path class="st0" d="M380.873,78.476c-0.048,0-0.097-0.003-0.146-0.011c-0.546-0.08-0.924-0.588-0.844-1.134
				c0.037-0.256,1.002-6.365,8-13.685c7.009-7.331,14.185-8.575,14.486-8.625c0.548-0.087,1.059,0.28,1.148,0.826
				c0.089,0.544-0.28,1.058-0.824,1.147l0,0c-0.067,0.012-6.846,1.215-13.365,8.033c-6.562,6.864-7.458,12.537-7.467,12.593
				C381.788,78.118,381.361,78.476,380.873,78.476z"/>
			<path class="st0" d="M391.115,75.473c-0.315,0-0.627-0.149-0.821-0.428c-0.315-0.453-0.205-1.076,0.248-1.392l25.136-17.543
				c0.453-0.316,1.077-0.205,1.393,0.248s0.205,1.076-0.248,1.392l-25.136,17.543C391.513,75.415,391.312,75.473,391.115,75.473z"/>
			<path class="st0" d="M419.087,84.29c-0.062,0-0.126-0.006-0.189-0.018l-29.379-5.632c-0.542-0.104-0.897-0.628-0.794-1.17
				s0.628-0.898,1.171-0.793l29.379,5.632c0.542,0.104,0.897,0.628,0.794,1.17C419.977,83.957,419.558,84.29,419.087,84.29z"/>
			<path class="st0" d="M386.402,90.222c-0.523,0-1.045-0.012-1.562-0.037c-8.739-0.428-14.494-7.106-14.734-7.391
				c-0.357-0.421-0.305-1.051,0.116-1.408c0.419-0.356,1.052-0.306,1.408,0.114c0.054,0.063,5.453,6.302,13.308,6.687
				c8.115,0.4,17.698-2.783,17.794-2.814c0.524-0.176,1.09,0.106,1.267,0.629c0.176,0.523-0.106,1.09-0.63,1.266
				C402.987,87.396,394.474,90.222,386.402,90.222z"/>
			<path class="st0" d="M355.796,86.258c-0.016,0-0.032,0-0.048-0.001c-0.551-0.026-0.977-0.492-0.952-1.043
				c0.017-0.368,0.494-9.095,8.086-17.033c6.955-7.274,17.022-10.556,17.448-10.692c0.528-0.171,1.089,0.122,1.257,0.647
				c0.169,0.526-0.121,1.089-0.646,1.257c-0.1,0.032-10.018,3.271-16.613,10.169c-7.051,7.373-7.529,15.66-7.533,15.743
				C356.768,85.841,356.326,86.258,355.796,86.258z"/>
			<path class="st0" d="M340.469,92.518c-0.44,0-0.844-0.292-0.964-0.738c-0.109-0.401-2.594-9.94,3.793-19.174
				c6.355-9.191,17.963-11.464,18.454-11.557c0.545-0.1,1.064,0.255,1.167,0.797s-0.255,1.065-0.797,1.168
				c-0.112,0.021-11.3,2.227-17.18,10.729c-5.841,8.446-3.531,17.425-3.507,17.515c0.143,0.533-0.173,1.082-0.706,1.225
				C340.643,92.506,340.555,92.518,340.469,92.518z"/>
			<path class="st0" d="M326.667,98.351c-0.449,0-0.857-0.305-0.97-0.761c-0.111-0.449-2.665-11.095,0.981-19.61
				c3.769-8.806,13.725-14.117,14.146-14.338c0.487-0.257,1.093-0.069,1.35,0.42c0.257,0.488,0.069,1.093-0.419,1.35
				c-0.098,0.051-9.753,5.211-13.239,13.355c-3.386,7.907-0.903,18.242-0.878,18.345c0.132,0.537-0.195,1.078-0.731,1.21
				C326.827,98.341,326.746,98.351,326.667,98.351z"/>
			<path class="st0" d="M305.654,108.335c-0.447,0-0.855-0.303-0.969-0.757c-0.089-0.354-2.128-8.795,1.925-18.556
				c4.044-9.741,13.267-15.821,13.657-16.075c0.463-0.301,1.082-0.169,1.383,0.293s0.17,1.082-0.292,1.383
				c-0.091,0.059-9.1,6.009-12.9,15.165c-3.802,9.157-1.853,17.223-1.833,17.304c0.135,0.536-0.191,1.079-0.727,1.213
				C305.816,108.326,305.735,108.335,305.654,108.335z"/>
			<path class="st0" d="M290.158,118.089c-0.278,0-0.555-0.116-0.752-0.342c-0.257-0.295-6.247-7.385-1.715-21.07
				c4.543-13.716,14.121-15.452,14.527-15.519c0.543-0.091,1.06,0.279,1.149,0.823c0.091,0.545-0.278,1.06-0.823,1.15
				c-0.354,0.062-8.812,1.666-12.955,14.175c-4.151,12.535,1.102,18.866,1.327,19.13c0.358,0.418,0.312,1.049-0.104,1.409
				C290.623,118.009,290.39,118.089,290.158,118.089z"/>
			<path class="st0" d="M272.809,130.006c-0.359,0-0.706-0.193-0.885-0.533c-0.198-0.375-4.793-9.325,0.47-21.367
				c5.477-12.53,14.734-15.495,15.126-15.615c0.527-0.162,1.088,0.135,1.249,0.663c0.162,0.528-0.135,1.087-0.663,1.25
				c-0.085,0.026-8.791,2.861-13.88,14.503c-4.88,11.168-0.578,19.549-0.534,19.632c0.259,0.489,0.071,1.094-0.417,1.352
				C273.126,129.969,272.966,130.006,272.809,130.006z"/>
			<path class="st0" d="M375.25,98.854c-1.941,0-3.993-0.123-6.095-0.431c-10.625-1.555-16.003-10.539-16.227-10.92
				c-0.279-0.476-0.12-1.088,0.355-1.367c0.476-0.281,1.089-0.12,1.369,0.354c0.05,0.085,5.138,8.541,14.791,9.955
				c9.902,1.449,18.967-1.479,19.057-1.509c0.528-0.172,1.09,0.112,1.263,0.637s-0.111,1.089-0.636,1.263
				C388.819,96.937,382.903,98.854,375.25,98.854z"/>
			<path class="st0" d="M354.791,106.682c-1.701,0-3.373-0.131-4.932-0.45c-8.943-1.827-13.812-10.627-14.015-11.001
				c-0.264-0.485-0.084-1.091,0.401-1.355c0.485-0.264,1.093-0.084,1.355,0.4c0.046,0.083,4.641,8.358,12.658,9.996
				c8.234,1.684,20.506-2.396,20.628-2.437c0.527-0.177,1.092,0.105,1.268,0.629s-0.105,1.09-0.629,1.267
				C371.096,103.876,362.647,106.682,354.791,106.682z"/>
			<path class="st0" d="M341.083,113.95c-2.842,0-5.799-0.218-8.589-0.81c-10.75-2.277-12.633-10.513-12.707-10.863
				c-0.116-0.54,0.228-1.072,0.768-1.188c0.546-0.116,1.07,0.228,1.188,0.766c0.069,0.314,1.742,7.331,11.166,9.328
				c9.907,2.101,22.507-0.836,22.635-0.867c0.535-0.127,1.076,0.206,1.203,0.742c0.128,0.538-0.204,1.077-0.742,1.204
				C355.615,112.355,348.773,113.95,341.083,113.95z"/>
			<path class="st0" d="M322.376,122.901c-0.819,0-1.651-0.032-2.493-0.103c-10.026-0.837-16.329-10.832-16.592-11.256
				c-0.291-0.469-0.146-1.085,0.322-1.376c0.47-0.292,1.086-0.147,1.377,0.322c0.06,0.096,6.047,9.565,15.059,10.317
				c9.223,0.767,17.575-3.464,17.658-3.507c0.49-0.255,1.093-0.061,1.347,0.431c0.253,0.491,0.061,1.093-0.43,1.347
				C338.295,119.246,331.105,122.901,322.376,122.901z"/>
			<path class="st0" d="M311.842,126.753c-9.85,0-19.061-7.512-19.45-7.834c-0.426-0.352-0.486-0.981-0.135-1.407
				c0.352-0.426,0.98-0.487,1.408-0.135c0.09,0.074,9.194,7.454,18.339,7.375c9.636-0.092,23.47-7.954,23.608-8.034
				c0.477-0.274,1.09-0.109,1.364,0.371c0.275,0.479,0.109,1.09-0.37,1.365c-0.584,0.335-14.423,8.202-24.583,8.298
				C311.963,126.753,311.902,126.753,311.842,126.753z"/>
			<path class="st0" d="M298.837,134.008c-0.748,0-1.503-0.027-2.267-0.084c-13.387-1-17.782-9.704-17.963-10.074
				c-0.242-0.496-0.036-1.095,0.46-1.337c0.496-0.242,1.094-0.035,1.336,0.458c0.168,0.338,4.134,8.049,16.315,8.959
				c12.463,0.922,23.357-6.896,23.466-6.975c0.446-0.325,1.071-0.227,1.397,0.219c0.325,0.446,0.227,1.072-0.22,1.397
				C320.922,126.892,311.007,134.008,298.837,134.008z"/>
		</g>
		<path class="st0" d="M395.969,83.038c-0.762,0-1.469-0.052-2.104-0.167c-6.209-1.133-10.969-4.95-11.168-5.112
			c-0.429-0.348-0.494-0.977-0.146-1.405c0.347-0.429,0.977-0.496,1.406-0.148c0.045,0.036,4.576,3.659,10.268,4.697
			c5.691,1.042,18.959-3.933,19.093-3.983c0.516-0.195,1.093,0.066,1.288,0.583s-0.065,1.094-0.582,1.289
			C413.515,78.982,402.684,83.038,395.969,83.038z"/>
		<path class="st0" d="M372.714,79.087c-0.104,0-0.211-0.017-0.315-0.051c-0.524-0.174-0.808-0.74-0.634-1.264
			c0.134-0.402,3.331-9.908,7.994-14.621c4.212-4.252,17.01-3.968,17.552-3.955c0.552,0.014,0.987,0.474,0.974,1.025
			c-0.015,0.552-0.513,0.997-1.026,0.974c-3.458-0.081-13.085,0.341-16.077,3.363c-4.333,4.378-7.486,13.751-7.518,13.845
			C373.523,78.822,373.133,79.087,372.714,79.087z"/>
		<path class="st0" d="M378.224,91.371c-0.835,0-1.641-0.078-2.393-0.256c-6.111-1.442-11.461-8.015-11.687-8.294
			c-0.346-0.43-0.278-1.059,0.152-1.405c0.43-0.347,1.06-0.279,1.405,0.151c0.051,0.063,5.149,6.319,10.588,7.603
			c5.412,1.277,14.762-3.726,14.855-3.776c0.488-0.264,1.092-0.082,1.355,0.404c0.263,0.486,0.082,1.093-0.404,1.355
			C391.736,87.347,384.216,91.371,378.224,91.371z"/>
		<path class="st0" d="M350.303,88.064c-0.511,0-0.946-0.389-0.995-0.907c-0.038-0.411-0.892-10.128,2.984-15.519
			c3.936-5.468,19.493-6.525,20.154-6.567c0.538-0.042,1.026,0.383,1.062,0.934c0.035,0.551-0.383,1.026-0.934,1.062
			c-4.237,0.272-15.849,1.835-18.659,5.739c-3.443,4.789-2.624,14.072-2.615,14.165c0.051,0.55-0.354,1.037-0.903,1.088
			C350.365,88.063,350.334,88.064,350.303,88.064z"/>
		<path class="st0" d="M347.892,106.337c-1.535,0-3.055-0.217-4.481-0.75c-7.461-2.783-13.551-8.62-13.807-8.867
			c-0.396-0.384-0.407-1.016-0.023-1.414c0.384-0.396,1.018-0.407,1.413-0.024c0.061,0.058,6.055,5.797,13.116,8.431
			c6.798,2.537,16.813-3.485,16.914-3.545c0.469-0.287,1.086-0.139,1.374,0.333c0.287,0.471,0.139,1.086-0.332,1.374
			C361.704,102.096,354.662,106.337,347.892,106.337z"/>
		<path class="st0" d="M317.06,101.572c-0.501,0-0.934-0.376-0.992-0.886c-0.046-0.399-1.074-9.848,3.392-16.798
			c4.484-6.979,15.405-9.902,15.868-10.023c0.532-0.141,1.08,0.179,1.22,0.714c0.141,0.534-0.18,1.081-0.713,1.221
			c-0.106,0.028-10.633,2.852-14.691,9.17c-4.085,6.356-3.099,15.398-3.089,15.489c0.063,0.548-0.33,1.044-0.879,1.108
			C317.136,101.57,317.098,101.572,317.06,101.572z"/>
		<path class="st0" d="M327.402,114.585c-1.103,0-2.201-0.125-3.268-0.412c-7.624-2.053-13.048-7.869-13.275-8.116
			c-0.374-0.406-0.349-1.038,0.058-1.413c0.406-0.374,1.039-0.348,1.413,0.057c0.052,0.056,5.273,5.642,12.324,7.54
			c6.903,1.859,15.917-4.418,16.007-4.482c0.45-0.318,1.076-0.21,1.394,0.241c0.318,0.452,0.21,1.076-0.241,1.394
			C341.468,109.638,334.354,114.585,327.402,114.585z"/>
		<path class="st0" d="M298.658,112.333c-0.425,0-0.819-0.273-0.954-0.7c-0.134-0.425-3.217-10.485,1.793-17.638
			c4.883-6.971,15.468-11.945,15.916-12.153c0.504-0.234,1.096-0.015,1.328,0.485c0.233,0.501,0.016,1.096-0.484,1.329
			c-0.105,0.049-10.55,4.96-15.121,11.487c-4.451,6.354-1.554,15.795-1.523,15.89c0.166,0.527-0.127,1.088-0.654,1.254
			C298.858,112.317,298.758,112.333,298.658,112.333z"/>
		<path class="st0" d="M301.315,127.563c-0.194,0-0.391-0.004-0.589-0.012c-6.783-0.267-14.718-5.71-15.053-5.941
			c-0.454-0.314-0.567-0.937-0.253-1.391c0.313-0.455,0.937-0.568,1.392-0.253c0.077,0.053,7.795,5.344,13.992,5.588
			c6.045,0.225,9.836-3.88,9.873-3.921c0.37-0.41,1.004-0.44,1.413-0.069c0.409,0.371,0.44,1.003,0.069,1.412
			C311.985,123.168,307.923,127.563,301.315,127.563z"/>
		<path class="st0" d="M281.355,122.611c-0.486,0-0.912-0.355-0.987-0.85c-0.071-0.465-1.676-11.471,3.059-17.549
			c4.512-5.791,10.097-11.395,10.153-11.451c0.391-0.391,1.023-0.39,1.414,0c0.391,0.391,0.391,1.023,0,1.415
			c-0.055,0.055-5.556,5.575-9.989,11.266c-4.204,5.397-2.676,15.915-2.66,16.021c0.083,0.546-0.293,1.055-0.839,1.138
			C281.455,122.607,281.405,122.611,281.355,122.611z"/>
		<path class="st0" d="M367.386,81.21c-0.229,0-0.458-0.078-0.646-0.237c-0.421-0.357-0.473-0.989-0.115-1.41
			c1.672-1.97,10.181-11.833,13.565-12.57c3.218-0.702,10.012-1.715,10.299-1.758c0.546-0.079,1.056,0.296,1.137,0.842
			c0.081,0.546-0.296,1.055-0.842,1.136c-0.07,0.01-7.015,1.046-10.168,1.733c-2.108,0.458-8.766,7.548-12.466,11.91
			C367.951,81.09,367.67,81.21,367.386,81.21z"/>
		<path class="st0" d="M360.264,96.603c-6.72,0-14.3-5.18-14.633-5.41c-0.454-0.313-0.568-0.936-0.255-1.391
			c0.314-0.456,0.937-0.567,1.392-0.255c0.079,0.055,8.026,5.476,14.242,5.029c6.433-0.466,12.56-2.724,12.621-2.747
			c0.517-0.193,1.092,0.07,1.286,0.588c0.192,0.518-0.071,1.093-0.589,1.286c-0.261,0.097-6.459,2.381-13.174,2.868
			C360.859,96.592,360.562,96.603,360.264,96.603z"/>
		<path class="st0" d="M342.333,107.249c-8.637,0-17.81-5.653-18.221-5.91c-0.469-0.292-0.611-0.909-0.319-1.377
			s0.91-0.612,1.377-0.32c0.103,0.063,10.304,6.343,18.706,5.536c8.377-0.796,15.346-7.94,15.415-8.013
			c0.383-0.396,1.015-0.411,1.414-0.027c0.397,0.382,0.41,1.015,0.027,1.413c-0.303,0.316-7.54,7.75-16.667,8.618
			C343.492,107.223,342.914,107.249,342.333,107.249z"/>
		<path class="st0" d="M319.196,115.406c-7.086,0-13.283-3.589-13.564-3.754c-0.476-0.28-0.635-0.892-0.355-1.368
			c0.28-0.477,0.892-0.635,1.368-0.357c0.069,0.041,7.006,4.06,14.166,3.408c7.1-0.641,10.965-4.824,11.003-4.866
			c0.371-0.41,1.004-0.44,1.413-0.07c0.409,0.371,0.44,1.003,0.069,1.413c-0.178,0.196-4.437,4.805-12.306,5.516
			C320.389,115.381,319.789,115.406,319.196,115.406z"/>
		<path class="st0" d="M294.452,115.177c-0.476,0-0.897-0.34-0.983-0.825c-0.091-0.512-2.177-12.611,2.53-17.979
			c4.563-5.204,14.724-8.884,15.154-9.038c0.517-0.187,1.092,0.084,1.278,0.604s-0.084,1.092-0.604,1.279
			c-0.1,0.036-10.104,3.662-14.324,8.474c-4.074,4.646-2.086,16.195-2.065,16.311c0.097,0.544-0.266,1.063-0.81,1.159
			C294.568,115.172,294.51,115.177,294.452,115.177z"/>
	</g>
	<g>
		<g>
			<path class="st0" d="M458.735,494.024c-0.576,0-1.162-0.092-1.738-0.283c-2.882-0.96-4.44-4.074-3.481-6.956
				c0.15-0.452,15.048-46.044,11.835-99.128c-3.203-52.913-12.293-80.111-12.385-80.38c-0.978-2.874,0.556-5.999,3.428-6.98
				c2.873-0.981,5.996,0.547,6.98,3.419c0.393,1.146,9.65,28.676,12.957,83.277c3.346,55.29-11.734,101.334-12.378,103.267
				C463.186,492.565,461.038,494.024,458.735,494.024z"/>
			<path class="st0" d="M476.506,485.959c-0.09,0-0.181-0.012-0.271-0.037c-0.531-0.149-0.841-0.7-0.692-1.231
				c0.021-0.08,1.785-6.729-1.642-15.508c-3.43-8.788-8.218-12.054-8.266-12.086c-0.459-0.306-0.585-0.926-0.281-1.385
				c0.306-0.46,0.923-0.585,1.382-0.285c0.217,0.143,5.347,3.595,9.028,13.029c3.688,9.448,1.787,16.479,1.704,16.773
				C477.344,485.671,476.942,485.959,476.506,485.959z"/>
			<path class="st0" d="M469.878,498.008c-0.477,0-0.898-0.342-0.984-0.827l-5.294-30.191c-0.095-0.544,0.269-1.062,0.812-1.158
				c0.549-0.094,1.062,0.27,1.158,0.812l5.294,30.191c0.095,0.544-0.269,1.062-0.812,1.158
				C469.993,498.003,469.936,498.008,469.878,498.008z"/>
			<path class="st0" d="M444.783,489.451c-0.203,0-0.407-0.062-0.584-0.189c-0.448-0.323-0.549-0.948-0.226-1.396l17.508-24.256
				c0.322-0.449,0.948-0.55,1.396-0.226c0.448,0.323,0.549,0.948,0.226,1.396l-17.508,24.256
				C445.399,489.308,445.094,489.451,444.783,489.451z"/>
			<path class="st0" d="M448.808,473.635c-0.037,0-0.074-0.002-0.112-0.006c-0.549-0.062-0.944-0.557-0.883-1.105
				c0.048-0.426,1.215-10.503,5.178-18.028c4.076-7.742,12.56-10.14,12.919-10.238c0.531-0.143,1.081,0.168,1.228,0.7
				s-0.167,1.082-0.699,1.229c-0.079,0.022-8.015,2.283-11.678,9.241c-3.784,7.187-4.948,17.219-4.959,17.319
				C449.743,473.257,449.31,473.635,448.808,473.635z"/>
			<path class="st0" d="M483.543,465.082c-0.041,0-0.084-0.003-0.126-0.008c-0.548-0.069-0.936-0.569-0.867-1.117
				c0.013-0.104,1.262-10.463-2.208-19.354c-3.721-9.541-11.016-13.435-11.089-13.473c-0.489-0.256-0.679-0.859-0.424-1.35
				c0.256-0.489,0.855-0.68,1.35-0.424c0.326,0.17,8.035,4.286,12.026,14.52c3.658,9.375,2.385,19.888,2.329,20.33
				C484.47,464.713,484.04,465.082,483.543,465.082z"/>
			<path class="st0" d="M488.18,446.615c-0.082,0-0.165-0.01-0.248-0.031c-0.534-0.136-0.857-0.681-0.722-1.216
				c0.027-0.11,2.751-11.183-2.475-20.102c-5.21-8.895-14.304-10.558-14.395-10.573c-0.545-0.094-0.909-0.611-0.815-1.155
				c0.094-0.545,0.613-0.906,1.155-0.815c0.41,0.07,10.105,1.846,15.781,11.532c5.648,9.643,2.81,21.124,2.686,21.607
				C489.032,446.314,488.626,446.615,488.18,446.615z"/>
			<path class="st0" d="M494.632,426.846c-0.529,0-0.972-0.417-0.998-0.951c-0.005-0.11-0.606-11.041-6.519-17.64
				c-5.738-6.407-16.156-8.519-16.261-8.539c-0.542-0.107-0.895-0.633-0.788-1.175c0.106-0.541,0.624-0.897,1.175-0.788
				c0.453,0.09,11.184,2.268,17.364,9.168c6.392,7.135,7.003,18.4,7.026,18.877c0.026,0.551-0.399,1.02-0.95,1.047
				C494.665,426.845,494.648,426.846,494.632,426.846z"/>
			<path class="st0" d="M494.881,404.373c-0.49,0-0.918-0.36-0.989-0.859c-0.015-0.106-1.606-10.784-8.302-18.095
				c-6.696-7.312-14.831-8.949-14.913-8.965c-0.542-0.104-0.897-0.629-0.793-1.172c0.105-0.542,0.624-0.892,1.172-0.793
				c0.358,0.069,8.87,1.783,16.009,9.578c7.123,7.778,8.742,18.704,8.808,19.165c0.077,0.547-0.303,1.053-0.85,1.131
				C494.975,404.369,494.928,404.373,494.881,404.373z"/>
			<path class="st0" d="M495.085,384.137c-0.089,0-0.18-0.012-0.27-0.037c-0.532-0.147-0.843-0.699-0.694-1.231
				c0.094-0.347,2.209-8.691-7.382-17.729c-9.612-9.055-17.568-6.963-17.902-6.871c-0.526,0.149-1.083-0.159-1.233-0.689
				c-0.15-0.529,0.153-1.08,0.683-1.233c0.377-0.108,9.333-2.545,19.824,7.339c10.518,9.908,8.047,19.324,7.937,19.721
				C495.924,383.848,495.522,384.137,495.085,384.137z"/>
			<path class="st0" d="M490.988,366.157c-0.046,0-0.092-0.003-0.139-0.01c-0.547-0.076-0.929-0.581-0.853-1.128
				c0.012-0.088,1.118-9.177-7.29-18.703c-8.062-9.138-17.472-8.786-17.571-8.772c-0.552,0.022-1.021-0.397-1.049-0.949
				c-0.027-0.551,0.397-1.021,0.949-1.049c0.419-0.023,10.477-0.408,19.171,9.446c9.049,10.253,7.827,19.897,7.771,20.303
				C491.908,365.795,491.479,366.157,490.988,366.157z"/>
			<path class="st0" d="M446.146,456.691c-0.039,0-0.078-0.002-0.117-0.007c-0.549-0.064-0.941-0.561-0.877-1.109
				c0.047-0.404,1.227-10.002,6.99-18.777c5.896-8.974,16.309-10.059,16.749-10.1c0.561-0.071,1.037,0.351,1.09,0.899
				c0.053,0.55-0.351,1.038-0.899,1.091c-0.099,0.01-9.911,1.054-15.268,9.207c-5.507,8.384-6.665,17.818-6.676,17.912
				C447.078,456.316,446.646,456.691,446.146,456.691z"/>
			<path class="st0" d="M447.324,437.818c-0.037,0-0.074-0.002-0.112-0.006c-0.549-0.062-0.943-0.557-0.883-1.105
				c0.062-0.548,1.562-13.515,6.879-20.697c5.432-7.336,15.464-8.035,15.889-8.062c0.541-0.022,1.025,0.385,1.06,0.936
				s-0.385,1.025-0.936,1.061c-0.095,0.006-9.536,0.679-14.405,7.255c-4.995,6.747-6.484,19.602-6.498,19.73
				C448.26,437.44,447.827,437.818,447.324,437.818z"/>
			<path class="st0" d="M446.126,420.236c-0.066,0-0.135-0.007-0.203-0.021c-0.54-0.111-0.889-0.641-0.777-1.181
				c0.11-0.537,2.776-13.233,9.131-21.684c6.599-8.783,14.862-7.017,15.21-6.934c0.539,0.123,0.875,0.659,0.752,1.197
				c-0.122,0.538-0.661,0.872-1.195,0.753c-0.322-0.073-7.385-1.51-13.168,6.185c-6.081,8.087-8.744,20.758-8.771,20.886
				C447.007,419.911,446.591,420.236,446.126,420.236z"/>
			<path class="st0" d="M447.306,401.362c-0.533,0-0.977-0.421-0.998-0.959c-0.017-0.405-0.351-10.012,4.534-18.562
				c4.992-8.736,16.713-10.23,17.209-10.29c0.566-0.065,1.046,0.326,1.111,0.874c0.066,0.548-0.325,1.046-0.873,1.112
				c-0.111,0.014-11.224,1.443-15.711,9.296c-4.602,8.056-4.276,17.394-4.272,17.487c0.022,0.552-0.406,1.018-0.958,1.04
				C447.334,401.362,447.319,401.362,447.306,401.362z"/>
			<path class="st0" d="M448.718,399.752c-0.514,0-0.951-0.394-0.995-0.915c-0.058-0.671-1.349-16.538,2.854-25.788
				c4.102-9.03,14.929-14.272,15.388-14.491c0.504-0.239,1.096-0.025,1.333,0.472c0.237,0.498,0.026,1.095-0.472,1.333
				c-0.105,0.051-10.632,5.155-14.429,13.513c-3.987,8.78-2.695,24.633-2.682,24.792c0.047,0.551-0.361,1.034-0.911,1.081
				C448.774,399.751,448.746,399.752,448.718,399.752z"/>
			<path class="st0" d="M447.777,382.398c-0.469,0-0.887-0.33-0.98-0.808c-0.111-0.567-2.655-14.043,3.8-25.579
				c6.557-11.714,16.304-12.023,16.715-12.031c0.007,0,0.013,0,0.019,0c0.544,0,0.99,0.436,1,0.981
				c0.01,0.552-0.428,1.007-0.979,1.019l0,0c-0.366,0.009-9.039,0.341-15.009,11.008c-6.101,10.902-3.609,24.086-3.583,24.218
				c0.106,0.542-0.247,1.067-0.789,1.174C447.906,382.393,447.841,382.398,447.777,382.398z"/>
		</g>
		<path class="st0" d="M451.999,486.836c-0.025,0-0.051-0.001-0.076-0.003c-0.551-0.041-0.963-0.521-0.922-1.072
			c0.045-0.603,1.15-14.828,4.811-19.996c3.647-5.15,9.117-7.854,9.349-7.967c0.497-0.241,1.094-0.035,1.336,0.461
			s0.036,1.095-0.46,1.337c-0.052,0.025-5.249,2.604-8.592,7.325c-3.344,4.72-4.438,18.848-4.449,18.99
			C452.956,486.437,452.518,486.836,451.999,486.836z"/>
		<path class="st0" d="M474.923,479.436c-0.149,0-0.302-0.033-0.444-0.104c-0.494-0.246-0.696-0.847-0.45-1.341
			c1.54-3.097,5.215-12.007,3.738-15.994c-2.144-5.784-9.306-12.592-9.378-12.659c-0.401-0.38-0.42-1.013-0.041-1.414
			c0.38-0.4,1.012-0.419,1.414-0.041c0.309,0.292,7.576,7.201,9.88,13.419c2.079,5.614-3.581,17.095-3.822,17.58
			C475.645,479.232,475.291,479.436,474.923,479.436z"/>
		<path class="st0" d="M453.673,463.294c-0.525,0-0.966-0.409-0.997-0.94c-0.028-0.465-0.638-11.456,3.273-16.419
			c3.887-4.931,12.104-7.006,12.451-7.092c0.534-0.129,1.077,0.193,1.211,0.73c0.133,0.536-0.194,1.078-0.73,1.211
			c-0.078,0.02-7.902,2.001-11.361,6.389c-3.44,4.365-2.854,14.955-2.848,15.062c0.033,0.551-0.388,1.024-0.938,1.058
			C453.713,463.293,453.693,463.294,453.673,463.294z"/>
		<path class="st0" d="M480.056,454.496c-0.121,0-0.244-0.021-0.363-0.068c-0.515-0.2-0.769-0.78-0.568-1.295
			c1.541-3.956,5.026-15.142,2.674-19.337c-2.882-5.134-11.648-8.318-11.737-8.351c-0.52-0.186-0.79-0.758-0.604-1.278
			c0.187-0.519,0.76-0.791,1.277-0.604c0.389,0.139,9.559,3.466,12.809,9.255c3.295,5.876-2.314,20.426-2.555,21.042
			C480.833,454.255,480.455,454.496,480.056,454.496z"/>
		<path class="st0" d="M452.998,429.802c-0.502,0-0.935-0.377-0.993-0.888c-0.058-0.516-1.358-12.697,4.509-18.478
			c5.673-5.591,13.533-8.647,13.865-8.774c0.516-0.197,1.093,0.06,1.292,0.575c0.197,0.516-0.06,1.094-0.575,1.292
			c-0.077,0.029-7.81,3.041-13.178,8.331c-5.183,5.105-3.938,16.713-3.925,16.829c0.062,0.549-0.333,1.044-0.882,1.106
			C453.073,429.8,453.035,429.802,452.998,429.802z"/>
		<path class="st0" d="M487.702,417.319c-0.059,0-0.119-0.005-0.18-0.017c-0.543-0.099-0.903-0.618-0.806-1.162
			c0.02-0.107,1.902-10.843-2.11-17.189c-4.039-6.385-12.652-9.308-12.738-9.336c-0.524-0.175-0.808-0.741-0.634-1.265
			c0.174-0.524,0.742-0.805,1.265-0.634c0.381,0.127,9.381,3.184,13.797,10.166c4.434,7.01,2.475,18.145,2.389,18.615
			C488.598,416.981,488.177,417.319,487.702,417.319z"/>
		<path class="st0" d="M454.72,408.204c-0.475,0-0.896-0.339-0.983-0.823c-0.087-0.481-2.062-11.863,3.131-18.044
			c5.079-6.044,12.642-8.507,12.961-8.609c0.524-0.17,1.088,0.123,1.256,0.648c0.168,0.526-0.122,1.089-0.647,1.257
			c-0.073,0.023-7.341,2.4-12.038,7.991c-4.597,5.47-2.713,16.294-2.693,16.403c0.098,0.543-0.264,1.063-0.808,1.161
			C454.838,408.199,454.778,408.204,454.72,408.204z"/>
		<path class="st0" d="M488.859,396.078C488.859,396.078,488.859,396.078,488.859,396.078c-0.553,0-1-0.448-1-1.001
			c0-0.115-0.043-11.656-4.031-18.557c-3.881-6.717-13.663-8.074-13.761-8.088c-0.548-0.071-0.934-0.574-0.861-1.121
			c0.072-0.548,0.573-0.938,1.121-0.861c0.442,0.058,10.863,1.509,15.233,9.07c4.259,7.368,4.299,19.064,4.299,19.559
			C489.859,395.631,489.411,396.078,488.859,396.078z"/>
		<path class="st0" d="M454.862,375.377c-0.39,0-0.76-0.229-0.921-0.61c-0.104-0.247-2.506-6.107,0.679-12.298
			c3.104-6.036,11.389-10.932,11.74-11.138c0.474-0.278,1.088-0.12,1.368,0.358c0.278,0.477,0.118,1.089-0.358,1.368
			c-0.081,0.047-8.136,4.811-10.971,10.326c-2.746,5.338-0.636,10.556-0.613,10.608c0.211,0.509-0.028,1.095-0.537,1.307
			C455.122,375.353,454.991,375.377,454.862,375.377z"/>
		<path class="st0" d="M488.236,372.019c-0.408,0-0.791-0.252-0.939-0.657c-0.026-0.073-2.708-7.39-5.996-13.811
			c-3.119-6.089-13.299-9.145-13.401-9.175c-0.529-0.155-0.833-0.711-0.677-1.241c0.155-0.529,0.709-0.831,1.24-0.678
			c0.452,0.133,11.105,3.324,14.618,10.182c3.346,6.534,6.067,13.963,6.095,14.037c0.189,0.519-0.078,1.093-0.597,1.282
			C488.466,371.999,488.351,372.019,488.236,372.019z"/>
		<path class="st0" d="M472.264,470.862c-0.094,0-0.189-0.013-0.284-0.041c-0.529-0.157-0.831-0.714-0.675-1.243
			c0.021-0.067,2.013-6.8,2.721-9.948c0.475-2.104-3.143-11.133-5.534-16.329c-0.231-0.502-0.012-1.096,0.49-1.326
			c0.504-0.231,1.096-0.011,1.326,0.49c1.08,2.347,6.431,14.225,5.669,17.604c-0.723,3.213-2.672,9.799-2.754,10.077
			C473.094,470.581,472.695,470.862,472.264,470.862z"/>
		<path class="st0" d="M455.234,444.56c-0.026,0-0.054-0.001-0.08-0.003c-0.551-0.044-0.962-0.526-0.918-1.076
			c0.022-0.277,0.569-6.859,2.962-13.152c2.466-6.487,11.063-11.59,11.429-11.804c0.478-0.281,1.088-0.12,1.368,0.356
			c0.279,0.476,0.12,1.089-0.356,1.368c-0.083,0.049-8.356,4.964-10.571,10.79c-2.292,6.028-2.832,12.535-2.837,12.6
			C456.188,444.162,455.751,444.56,455.234,444.56z"/>
		<path class="st0" d="M456.515,429.748c-0.4,0-0.779-0.242-0.933-0.639c-0.158-0.408-3.843-10.107-0.778-18.747
			c3.057-8.611,13.275-15.345,13.709-15.627c0.464-0.299,1.081-0.171,1.384,0.292c0.301,0.462,0.171,1.082-0.292,1.384
			c-0.101,0.065-10.088,6.652-12.916,14.62c-2.819,7.947,0.723,17.263,0.759,17.355c0.199,0.515-0.057,1.094-0.571,1.294
			C456.757,429.727,456.635,429.748,456.515,429.748z"/>
		<path class="st0" d="M457.876,400.095c-0.39,0-0.761-0.229-0.922-0.611c-0.103-0.244-2.482-6.05,0.195-13.483
			c2.655-7.369,9.521-12.17,9.812-12.371c0.454-0.313,1.075-0.2,1.391,0.255c0.313,0.454,0.2,1.077-0.254,1.391
			c-0.066,0.046-6.635,4.65-9.068,11.403c-2.415,6.706-0.255,11.977-0.232,12.028c0.214,0.509-0.024,1.096-0.533,1.311
			C458.138,400.069,458.006,400.095,457.876,400.095z"/>
		<path class="st0" d="M485.682,389.805c-0.03,0-0.062-0.001-0.093-0.004c-0.55-0.051-0.954-0.538-0.904-1.088
			c0.01-0.106,0.946-10.704-1.635-16.562c-2.496-5.664-13.8-8.727-13.914-8.757c-0.534-0.143-0.852-0.69-0.71-1.224
			c0.143-0.533,0.692-0.85,1.224-0.71c0.503,0.134,12.352,3.351,15.23,9.884c2.791,6.333,1.839,17.097,1.797,17.552
			C486.629,389.415,486.192,389.805,485.682,389.805z"/>
	</g>
	<g>
		<g>
			<path class="st0" d="M129.979,489.154c-1.98,0-3.894-1.073-4.877-2.949c-1.409-2.691-0.37-6.015,2.321-7.424
				c0.331-0.174,33.66-17.875,60.813-49.688c27.092-31.745,36.808-52.118,36.902-52.32c1.291-2.746,4.563-3.931,7.312-2.645
				c2.748,1.287,3.936,4.554,2.652,7.304c-0.408,0.874-10.311,21.772-38.5,54.802c-28.589,33.494-62.642,51.539-64.078,52.291
				C131.712,488.952,130.839,489.154,129.979,489.154z"/>
			<path class="st0" d="M142.053,492.379c-0.343,0-0.678-0.177-0.864-0.494c-0.279-0.476-0.12-1.088,0.355-1.367l0,0
				c0.046-0.027,4.651-2.818,7.491-9.634c2.841-6.815,1.925-11.252,1.916-11.296c-0.117-0.538,0.222-1.071,0.76-1.191
				c0.537-0.114,1.07,0.217,1.192,0.754c0.045,0.203,1.086,5.047-2.022,12.503c-3.112,7.469-8.112,10.465-8.323,10.588
				C142.398,492.335,142.225,492.379,142.053,492.379z"/>
			<path class="st0" d="M131.663,495.604c-0.192,0-0.387-0.056-0.558-0.171c-0.458-0.309-0.579-0.931-0.27-1.389l13.559-20.102
				c0.309-0.457,0.931-0.577,1.388-0.27c0.458,0.309,0.579,0.931,0.27,1.389l-13.559,20.102
				C132.3,495.449,131.984,495.604,131.663,495.604z"/>
			<path class="st0" d="M122.068,476.955c-0.475,0-0.896-0.339-0.983-0.822c-0.098-0.544,0.263-1.063,0.806-1.162l23.286-4.203
				c0.546-0.098,1.063,0.264,1.162,0.807c0.098,0.544-0.263,1.063-0.806,1.162l-23.286,4.203
				C122.187,476.95,122.126,476.955,122.068,476.955z"/>
			<path class="st0" d="M133.042,470.155c-0.288,0-0.573-0.123-0.771-0.362c-0.353-0.425-0.293-1.056,0.132-1.407
				c0.262-0.218,6.488-5.341,12.912-7.463c6.656-2.203,12.882,1.132,13.144,1.274c0.484,0.265,0.662,0.871,0.398,1.355
				c-0.264,0.484-0.87,0.666-1.356,0.4c-0.057-0.029-5.744-3.052-11.559-1.132c-6.07,2.006-12.203,7.053-12.264,7.104
				C133.494,470.08,133.268,470.155,133.042,470.155z"/>
			<path class="st0" d="M157.521,484.352c-0.292,0-0.582-0.127-0.779-0.372c-0.347-0.431-0.279-1.06,0.151-1.406
				c0.063-0.052,6.421-5.235,9.304-12.152c3.089-7.405,1.096-13.552,1.075-13.613c-0.175-0.523,0.107-1.091,0.631-1.266
				c0.525-0.176,1.09,0.106,1.266,0.631c0.093,0.279,2.249,6.928-1.126,15.018c-3.082,7.396-9.618,12.717-9.895,12.94
				C157.962,484.279,157.741,484.352,157.521,484.352z"/>
			<path class="st0" d="M170.299,476.38c-0.335,0-0.662-0.168-0.851-0.474c-0.291-0.469-0.146-1.085,0.323-1.376
				c0.076-0.048,7.634-4.818,9.533-12.679c1.893-7.833-2.318-13.694-2.36-13.752c-0.327-0.445-0.23-1.071,0.215-1.398
				c0.446-0.327,1.072-0.229,1.397,0.215c0.197,0.269,4.801,6.679,2.692,15.404c-2.096,8.675-10.085,13.7-10.424,13.91
				C170.66,476.332,170.478,476.38,170.299,476.38z"/>
			<path class="st0" d="M184.826,468.663c-0.233,0-0.468-0.081-0.658-0.247c-0.416-0.363-0.458-0.995-0.095-1.411
				c0.057-0.064,5.666-6.569,5.918-13.494c0.246-6.73-4.487-13.595-4.535-13.663c-0.316-0.453-0.206-1.076,0.248-1.393
				c0.455-0.313,1.077-0.204,1.392,0.248c0.211,0.302,5.165,7.488,4.895,14.88c-0.278,7.646-6.161,14.452-6.412,14.738
				C185.381,468.548,185.104,468.663,184.826,468.663z"/>
			<path class="st0" d="M197.303,456c-0.203,0-0.408-0.062-0.585-0.189c-0.447-0.323-0.548-0.948-0.225-1.396
				c0.049-0.068,4.967-6.975,5.166-14.745c0.197-7.737-3.499-13.114-3.536-13.168c-0.316-0.452-0.207-1.075,0.245-1.393
				c0.451-0.315,1.074-0.209,1.392,0.242c0.168,0.239,4.113,5.943,3.898,14.369c-0.215,8.403-5.327,15.565-5.544,15.866
				C197.918,455.856,197.613,456,197.303,456z"/>
			<path class="st0" d="M208.527,444.586c-0.343,0-0.676-0.176-0.863-0.492c-0.28-0.477-0.122-1.09,0.354-1.369
				c0.238-0.144,5.921-3.688,5.425-13.959c-0.501-10.38-6.252-13.534-6.31-13.565c-0.489-0.258-0.675-0.862-0.417-1.351
				c0.258-0.489,0.862-0.676,1.351-0.417c0.278,0.146,6.818,3.729,7.374,15.237c0.557,11.541-6.124,15.61-6.408,15.777
				C208.875,444.541,208.7,444.586,208.527,444.586z"/>
			<path class="st0" d="M216.063,432.098c-0.296,0-0.59-0.131-0.787-0.383c-0.341-0.435-0.265-1.062,0.169-1.403
				c0.054-0.043,5.6-4.565,6.037-14.5c0.417-9.479-5.068-14.427-5.124-14.476c-0.414-0.364-0.455-0.995-0.092-1.41
				c0.362-0.414,0.992-0.459,1.408-0.096c0.256,0.223,6.268,5.585,5.806,16.069c-0.479,10.902-6.542,15.782-6.799,15.984
				C216.497,432.028,216.279,432.098,216.063,432.098z"/>
			<path class="st0" d="M140.827,459.044c-0.29,0-0.577-0.125-0.774-0.366c-0.35-0.427-0.288-1.057,0.139-1.407
				c0.25-0.205,6.228-5.054,14.375-6.898c8.379-1.896,14.983,3.263,15.26,3.482c0.432,0.344,0.502,0.972,0.16,1.403
				c-0.343,0.433-0.972,0.505-1.404,0.162c-0.061-0.049-6.152-4.78-13.574-3.097c-7.67,1.736-13.49,6.447-13.548,6.494
				C141.274,458.97,141.05,459.044,140.827,459.044z"/>
			<path class="st0" d="M151.858,448.942c-0.287,0-0.572-0.123-0.77-0.361c-0.353-0.425-0.294-1.056,0.131-1.408
				c0.338-0.28,8.352-6.877,15.378-8.058c7.216-1.212,13.385,3.956,13.644,4.177c0.42,0.358,0.471,0.988,0.113,1.409
				c-0.357,0.419-0.988,0.473-1.409,0.114c-0.057-0.048-5.734-4.79-12.017-3.728c-6.501,1.092-14.354,7.559-14.432,7.624
				C152.31,448.867,152.083,448.942,151.858,448.942z"/>
			<path class="st0" d="M160.828,438.271c-0.319,0-0.632-0.152-0.826-0.435c-0.312-0.456-0.196-1.078,0.259-1.391
				c0.359-0.246,8.885-6.039,17.188-7.371c8.709-1.404,12.519,4.251,12.677,4.492c0.302,0.462,0.172,1.082-0.29,1.384
				c-0.46,0.302-1.079,0.173-1.382-0.286c-0.136-0.204-3.309-4.804-10.688-3.615c-7.854,1.26-16.29,6.989-16.375,7.047
				C161.219,438.215,161.022,438.271,160.828,438.271z"/>
			<path class="st0" d="M171.859,428.17c-0.236,0-0.473-0.083-0.664-0.252c-0.413-0.367-0.45-0.999-0.083-1.412
				c0.214-0.241,5.337-5.938,12.869-8.144c7.738-2.262,15.316,3.38,15.635,3.621c0.44,0.333,0.527,0.959,0.194,1.399
				c-0.333,0.439-0.959,0.526-1.4,0.195c-0.07-0.053-7.103-5.276-13.867-3.296c-6.985,2.045-11.886,7.497-11.935,7.552
				C172.41,428.057,172.135,428.17,171.859,428.17z"/>
			<path class="st0" d="M173.548,428.027c-0.222,0-0.445-0.073-0.63-0.224c-0.429-0.349-0.494-0.979-0.146-1.407
				c0.337-0.415,8.345-10.199,15.866-13.183c7.365-2.92,16.478,0.062,16.863,0.191c0.523,0.175,0.806,0.74,0.631,1.265
				c-0.174,0.523-0.74,0.807-1.264,0.632c-0.087-0.028-8.815-2.876-15.493-0.229c-7.041,2.792-14.972,12.487-15.051,12.585
				C174.127,427.901,173.838,428.027,173.548,428.027z"/>
			<path class="st0" d="M182.538,417.629c-0.186,0-0.374-0.052-0.542-0.16c-0.464-0.299-0.597-0.918-0.298-1.382
				c0.25-0.388,6.238-9.521,16.321-12.57c10.277-3.105,16.084,2.145,16.326,2.37c0.405,0.376,0.428,1.009,0.052,1.413
				c-0.375,0.403-1.007,0.427-1.41,0.055l0,0c-0.21-0.192-5.26-4.683-14.389-1.924c-9.387,2.84-15.162,11.651-15.219,11.74
				C183.188,417.468,182.866,417.629,182.538,417.629z"/>
		</g>
		<path class="st0" d="M127.613,479.425c-0.275,0-0.549-0.112-0.747-0.334c-0.368-0.412-0.332-1.044,0.08-1.412
			c0.358-0.32,8.839-7.852,13.817-8.796c4.955-0.943,9.605,0.537,9.8,0.601c0.525,0.17,0.812,0.733,0.643,1.259
			c-0.169,0.525-0.731,0.814-1.259,0.644c-0.043-0.014-4.371-1.381-8.811-0.538c-3.683,0.698-10.53,6.245-12.858,8.323
			C128.088,479.341,127.85,479.425,127.613,479.425z"/>
		<path class="st0" d="M144.732,487.795c-0.411,0-0.796-0.255-0.942-0.665c-0.186-0.52,0.086-1.092,0.606-1.277
			c2.554-0.909,9.47-3.931,10.788-6.942c1.932-4.421,1.594-12.188,1.59-12.266c-0.026-0.552,0.4-1.02,0.952-1.046
			c0.546-0.041,1.02,0.399,1.046,0.952c0.016,0.337,0.365,8.31-1.755,13.16c-1.901,4.345-10.927,7.662-11.949,8.026
			C144.957,487.776,144.844,487.795,144.732,487.795z"/>
		<path class="st0" d="M141.489,466.938c-0.23,0-0.461-0.079-0.649-0.24c-0.419-0.358-0.469-0.989-0.11-1.409
			c0.242-0.283,5.979-6.937,11.008-7.626c4.99-0.691,10.869,2.679,11.118,2.823c0.478,0.276,0.641,0.888,0.364,1.365
			c-0.276,0.479-0.888,0.645-1.366,0.365c-0.055-0.031-5.541-3.164-9.845-2.572c-4.276,0.586-9.705,6.88-9.76,6.944
			C142.052,466.818,141.771,466.938,141.489,466.938z"/>
		<path class="st0" d="M161.346,476.409c-0.378,0-0.74-0.215-0.909-0.581c-0.231-0.502-0.012-1.096,0.489-1.327
			c3.024-1.396,11.081-5.807,12.022-9.408c1.16-4.439-2.053-10.987-2.085-11.054c-0.246-0.494-0.044-1.095,0.451-1.34
			c0.496-0.248,1.095-0.045,1.34,0.451c0.147,0.295,3.576,7.292,2.229,12.448c-1.35,5.161-11.918,10.165-13.119,10.719
			C161.628,476.38,161.486,476.409,161.346,476.409z"/>
		<path class="st0" d="M159.491,447.492c-0.213,0-0.427-0.067-0.608-0.207c-0.438-0.336-0.521-0.964-0.185-1.401
			c0.252-0.329,6.259-8.059,12.874-8.132c0.083-0.001,0.167-0.001,0.25-0.001c6.254,0,12.29,2.523,12.547,2.632
			c0.508,0.215,0.746,0.802,0.531,1.311c-0.214,0.507-0.8,0.747-1.31,0.531c-0.061-0.024-6.059-2.566-11.996-2.473
			c-5.653,0.062-11.253,7.276-11.309,7.349C160.088,447.357,159.791,447.492,159.491,447.492z"/>
		<path class="st0" d="M186.107,459.432c-0.311,0-0.617-0.145-0.812-0.415c-0.323-0.448-0.221-1.073,0.227-1.396
			c0.069-0.05,6.97-5.085,8.151-10.82c1.19-5.781-2.076-12.108-2.109-12.172c-0.256-0.489-0.067-1.094,0.421-1.35
			c0.491-0.259,1.094-0.067,1.35,0.422c0.149,0.284,3.629,7.03,2.297,13.502c-1.339,6.505-8.631,11.818-8.941,12.041
			C186.514,459.37,186.31,459.432,186.107,459.432z"/>
		<path class="st0" d="M172.326,436.137c-0.191,0-0.384-0.055-0.555-0.169c-0.459-0.307-0.583-0.928-0.276-1.387
			c0.217-0.325,5.393-7.971,11.839-8.649c6.271-0.662,11.982,2.112,12.222,2.231c0.495,0.244,0.698,0.843,0.455,1.338
			c-0.244,0.495-0.843,0.699-1.338,0.456c-0.054-0.027-5.444-2.635-11.128-2.037c-5.511,0.581-10.338,7.701-10.387,7.772
			C172.965,435.98,172.649,436.137,172.326,436.137z"/>
		<path class="st0" d="M198.426,447.97c-0.25,0-0.5-0.093-0.694-0.28c-0.397-0.384-0.409-1.017-0.025-1.414
			c0.063-0.065,6.336-6.623,7.839-12.686c1.447-5.838-3.312-11.921-3.36-11.982c-0.343-0.432-0.271-1.061,0.161-1.404
			s1.06-0.273,1.404,0.159c0.223,0.278,5.423,6.904,3.737,13.708c-1.633,6.589-8.068,13.311-8.341,13.594
			C198.95,447.867,198.688,447.97,198.426,447.97z"/>
		<path class="st0" d="M190.427,417.519c-0.121,0-0.243-0.022-0.362-0.068c-0.514-0.2-0.769-0.776-0.571-1.291
			c0.078-0.201,1.962-4.945,7.265-6.753c5.139-1.756,12.602,0.019,12.917,0.095c0.537,0.13,0.866,0.67,0.736,1.207
			c-0.129,0.536-0.672,0.87-1.207,0.736c-0.072-0.017-7.217-1.711-11.801-0.146c-4.396,1.499-6.03,5.543-6.046,5.584
			C191.204,417.276,190.826,417.519,190.427,417.519z"/>
		<path class="st0" d="M211.277,433.926c-0.135,0-0.273-0.027-0.405-0.086c-0.505-0.224-0.733-0.814-0.509-1.319
			c0.025-0.056,2.51-5.685,4.159-11.134c1.543-5.104-2.537-12.343-2.578-12.415c-0.273-0.48-0.106-1.091,0.373-1.364
			c0.479-0.276,1.09-0.107,1.364,0.372c0.186,0.327,4.544,8.068,2.755,13.986c-1.685,5.57-4.219,11.308-4.245,11.365
			C212.027,433.704,211.661,433.926,211.277,433.926z"/>
		<path class="st0" d="M147.924,481.453c-0.349,0-0.687-0.182-0.871-0.507c-0.272-0.48-0.104-1.091,0.377-1.363
			c0.048-0.027,4.873-2.765,6.999-4.165c1.31-0.862,4.138-7.673,5.729-12.232c0.182-0.522,0.75-0.797,1.274-0.615
			c0.521,0.182,0.796,0.752,0.615,1.273c-0.677,1.94-4.173,11.7-6.517,13.244c-2.182,1.438-6.913,4.122-7.113,4.235
			C148.261,481.411,148.091,481.453,147.924,481.453z"/>
		<path class="st0" d="M152.663,457.124c-0.277,0-0.552-0.114-0.75-0.338c-0.366-0.414-0.327-1.045,0.086-1.411
			c0.166-0.146,4.112-3.614,8.956-5.897c5.032-2.372,12.798-0.542,13.126-0.464c0.537,0.13,0.867,0.67,0.738,1.206
			c-0.129,0.537-0.667,0.868-1.206,0.739c-0.073-0.019-7.413-1.741-11.805,0.327c-4.577,2.158-8.445,5.553-8.484,5.587
			C153.134,457.041,152.898,457.124,152.663,457.124z"/>
		<path class="st0" d="M161.521,449.392c-0.129,0-0.261-0.025-0.387-0.078c-0.509-0.215-0.748-0.8-0.534-1.309
			c0.135-0.323,3.391-7.938,9.947-11.211c6.53-3.259,16.114-1.472,16.518-1.394c0.542,0.104,0.897,0.628,0.793,1.17
			c-0.104,0.543-0.625,0.896-1.17,0.795c-0.092-0.018-9.328-1.733-15.249,1.218c-5.882,2.937-8.966,10.124-8.997,10.196
			C162.283,449.161,161.912,449.392,161.521,449.392z"/>
		<path class="st0" d="M178.575,433.249c-0.121,0-0.243-0.022-0.362-0.068c-0.514-0.2-0.769-0.776-0.571-1.291
			c0.077-0.197,1.938-4.885,7.615-7.684c5.617-2.769,12.228-1.724,12.506-1.678c0.545,0.089,0.914,0.603,0.824,1.147
			c-0.089,0.544-0.61,0.912-1.147,0.826c-0.063-0.012-6.269-0.981-11.299,1.497c-4.947,2.44-6.618,6.572-6.634,6.614
			C179.353,433.007,178.975,433.248,178.575,433.249z"/>
		<path class="st0" d="M200.06,442.653c-0.281,0-0.56-0.117-0.757-0.347c-0.361-0.418-0.314-1.049,0.104-1.41
			c0.063-0.055,6.375-5.544,8.1-10.245c1.372-3.736-1.772-10.251-3.1-12.445c-0.286-0.473-0.135-1.088,0.338-1.373
			c0.473-0.284,1.086-0.134,1.373,0.338c0.215,0.355,5.247,8.775,3.267,14.17c-1.905,5.189-8.396,10.832-8.671,11.069
			C200.524,442.573,200.292,442.653,200.06,442.653z"/>
	</g>
	<g>
		
			<ellipse transform="matrix(0.7071 -0.7071 0.7071 0.7071 -249.5525 313.3932)" class="st0" cx="253.523" cy="457.933" rx="3.962" ry="8.883"/>
		
			<ellipse transform="matrix(0.7071 -0.7071 0.7071 0.7071 -261.2306 321.5595)" class="st0" cx="257.541" cy="476.113" rx="5.645" ry="8.106"/>
		
			<ellipse transform="matrix(0.7071 -0.7071 0.7071 0.7071 -247.4656 324.5741)" class="st0" cx="268.063" cy="461.004" rx="3.739" ry="7.126"/>
	</g>
	<g>
		
			<ellipse transform="matrix(0.3827 -0.9239 0.9239 0.3827 91.16 435.4747)" class="st0" cx="371.436" cy="149.524" rx="8.883" ry="3.962"/>
		
			<ellipse transform="matrix(0.3827 -0.9239 0.9239 0.3827 71.8825 427.9654)" class="st0" cx="356.178" cy="160.195" rx="8.106" ry="5.645"/>
		
			<ellipse transform="matrix(0.3827 -0.9239 0.9239 0.3827 79.347 447.0127)" class="st0" cx="374.163" cy="164.133" rx="7.126" ry="3.739"/>
	</g>
	<g>
		<path class="st0" d="M59.255,104.572c-1.85-0.255-3.678-0.139-5.436,0.279c-1.58-0.878-3.308-1.484-5.158-1.739
			c-9.438-1.3-18.344,6.758-19.893,17.998c-1.549,11.241,4.847,21.407,14.285,22.707c1.851,0.255,3.678,0.139,5.436-0.279
			c1.58,0.878,3.307,1.484,5.158,1.739c9.438,1.3,18.344-6.758,19.893-17.998C75.088,116.038,68.692,105.872,59.255,104.572z"/>
		<path class="st0" d="M103.025,100.528c-1.842,0.309-3.551,0.966-5.105,1.89c-1.77-0.366-3.6-0.428-5.442-0.119
			c-9.395,1.577-15.489,11.927-13.611,23.117c1.879,11.19,11.018,18.983,20.413,17.406c1.842-0.309,3.552-0.966,5.105-1.89
			c1.77,0.366,3.6,0.428,5.442,0.119c9.395-1.577,15.489-11.927,13.611-23.117C121.56,106.744,112.421,98.951,103.025,100.528z"/>
		<path class="st0" d="M53.82,106.852c-0.748,0-1.464-0.421-1.807-1.141c-0.475-0.996-0.052-2.188,0.942-2.664l0,0
			c0.768-0.369,18.815-9.299,18.815-31.421c0-21.411-11.197-31.951-12.407-33.026l-6.556-3.846c-0.779-0.457-1.155-1.378-0.918-2.25
			c0.237-0.871,1.027-1.476,1.93-1.476h15c0.935,0,1.745,0.648,1.951,1.56c0.206,0.912-0.248,1.845-1.093,2.247l-3.172,1.507
			c8.652,2.485,25.007,8.921,33.29,23.482c11.397,20.038,0.389,42.54-0.085,43.487c-0.494,0.987-1.693,1.388-2.681,0.894
			c-0.988-0.493-1.389-1.693-0.897-2.682c0.106-0.213,10.513-21.567,0.187-39.722C89.11,49.129,74.64,43.057,66.369,40.512
			c4.078,5.551,9.402,15.742,9.402,31.114c0,24.701-20.23,34.621-21.092,35.031C54.401,106.789,54.108,106.852,53.82,106.852z"/>
	</g>
</g>
</svg>
