<?xml version="1.0" encoding="utf-8"?>
<!-- Generator: Adobe Illustrator 21.1.0, SVG Export Plug-In . SVG Version: 6.00 Build 0)  -->
<svg version="1.1" xmlns="http://www.w3.org/2000/svg" xmlns:xlink="http://www.w3.org/1999/xlink" x="0px" y="0px"
	 viewBox="0 0 500 500" style="enable-background:new 0 0 500 500;" xml:space="preserve">
<style type="text/css">
	.st0{stroke:#000000;stroke-width:6;stroke-linecap:round;stroke-linejoin:round;stroke-miterlimit:10;}
	.st1{fill:none;stroke:#FFFFFF;stroke-width:3;stroke-linecap:round;stroke-linejoin:round;stroke-miterlimit:10;}
	.st2{fill:none;stroke:#FFFFFF;stroke-width:2;stroke-linecap:round;stroke-miterlimit:10;}
	.st3{fill:none;stroke:#FFFFFF;stroke-width:3;stroke-linecap:round;stroke-miterlimit:10;}
	.st4{fill:none;stroke:#FFFFFF;stroke-width:2;stroke-miterlimit:10;}
	.st5{stroke:#000000;stroke-width:4;stroke-linecap:round;stroke-linejoin:round;stroke-miterlimit:10;}
	.st6{fill:none;stroke:#000000;stroke-width:4;stroke-linecap:round;stroke-linejoin:round;stroke-miterlimit:10;}
	.st7{fill:none;stroke:#000000;stroke-width:5;stroke-linecap:round;stroke-linejoin:round;stroke-miterlimit:10;}
	.st8{fill:none;stroke:#000000;stroke-width:3;stroke-linecap:round;stroke-linejoin:round;stroke-miterlimit:10;}
	.st9{fill:#231F20;}
	.st10{fill:none;stroke:#FFFFFF;stroke-width:2;stroke-linecap:round;stroke-linejoin:round;stroke-miterlimit:10;}
	.st11{fill:none;stroke:#FFFFFF;stroke-linecap:round;stroke-miterlimit:10;}
	.st12{fill:none;stroke:#FFFFFF;stroke-miterlimit:10;}
	.st13{fill:none;stroke:#000000;stroke-width:11;stroke-linecap:round;stroke-miterlimit:10;}
	.st14{fill:none;stroke:#000000;stroke-width:2;stroke-linecap:round;stroke-miterlimit:10;}
	.st15{fill:none;stroke:#000000;stroke-width:4;stroke-linecap:round;stroke-miterlimit:10;}
</style>
<g id="Layer_3">
	<g>
		<path class="st0" d="M299.086,354.917c0,0-2.25-7.5-2.75-12.75s1-12.75,1-12.75l1.75,1l1-11.5l1.5,1.25c0,0,0.5-3.75,1-5
			s2.25-4.25,2.25-4.25l1,1.75c0,0,1.75-4.5,2.5-5s3.75-3.5,3.75-3.5s1.5-1.75,2.75-2.75s3.5-2.75,3.5-2.75l1.5,3.5l1-0.75
			l6.25,11.75c0,0,4.25-3.25,7.25-5.5s9.251-3.75,9.251-3.75s3-3.5,4.75-5s4-3.5,5-3.25s3.75,4.5,3.75,4.5l11.5-4.5l1.25,1.75
			c0,0,3.75-2.75,7.25-2.25s1.5,3.5,1.5,3.5s6.25-0.5,12.75,1s9.5,5.25,16.25,4c0,0.5-12.25,9.25-12.25,9.25l1.25,1.25
			c0,0-4,4.5-5.75,6.5s-4.75,6-4.75,6l1.75,1c0,0-6.5,5.25-9.75,8.5s-9.5,9.5-9.5,9.5s12.75,0.5,17,2s10.75,6.5,12.5,6.5
			s1.25-2,3.75-2s5,0.5,5,0.5l-1.75,5.75c0,0,3.25,1,5.25,1.5s4.25,2.75,4.25,2.75l-1.5,1.25c0,0,4,1.25,5.5,2.75s0,3.5,0,3.5
			s3,2.75,4.25,5.25s2.5,6.75,4.25,7.75s5.5,4.5,5.5,4.5s-6.5-3.5-10.75-3s-7,1.25-7,1.25l-0.5,3l-7,1l0.5,1.25l-11,2.5
			c0,0,0.25,2.25-1.5,3.5s-4.75,2.75-10.5,1.25s-11,0.5-13.25,0.5s-10-1-10-1s5.75,6.5,10,10s5.25,10.5,5.25,10.5l-1.75,2l3.75,7
			l-0.75,2.75l1.5,7l-1.5,0.75l-0.5,7.25l3.5,10c0,0-5-6-7.75-6s-5.5,0-5.5,0l-0.5,2.25c0,0-3.75-2.5-5.25-2.75s-9-4-9.5-5.5l-1,2
			c0,0-9-6-11.001-7c-2-1-8.75-3.25-8.75-3.25l-0.25,2c0,0-9-6-12.5-10.75s-7.25-11-7.25-11s-2.5,4.25-4.75,6s-9,3.5-9,3.5
			s0-6.25-3.25-9s-4.5-9.75-4.5-9.75h-1.75c0,0-2-3.75-2-6.75s0.25-8.75,0.25-8.75l-2.5-1c0,0,0.75-10.25,3.25-14.75
			s12.5-13.25,12.5-13.25s-1.25-3.25-2-4.5S299.086,354.917,299.086,354.917z"/>
		<g>
			<path class="st1" d="M426.503,383.499c0,0-10.832-4.166-22-5.833c-11.166-1.667-50.666-5.833-66.333-10.5
				c-15.666-4.667-38.168-9.166-38.168-9.166s29.5-16.667,46.167-23c16.668-6.333,43.168-28.167,55.668-29.5"/>
			<path class="st1" d="M376.169,448.167c0,0-24-33.499-39.167-45.833c-15.166-12.334-38.166-45.667-38.166-45.667"/>
			<path class="st2" d="M368.587,345.667c0,0-39.751,13-40.751,19.25c-1,6.25,34.251,34,34.251,34"/>
			<path class="st2" d="M397.337,355.917c0,0-44.75,7-45.75,14.5s43.75,26.75,43.75,26.75"/>
			<path class="st2" d="M417.837,367.667c0,0-27.25,3.5-28.5,7.75s23,13.75,23,13.75"/>
			<path class="st2" d="M379.587,332.167c0,0-8.75,3.25-15,3.5s-15.5-2-15.5-2"/>
			<path class="st3" d="M314.336,319.917c0,0-7,28-12.25,36.5s-2,42.5-0.25,50.75"/>
			<path class="st4" d="M367.087,405.667c0,0-19.25-14-36.001-10"/>
			<path class="st4" d="M374.337,417.417c0,0-20.5-13-32.25-11"/>
			<path class="st2" d="M318.504,383.001c0,0,0.334,15.666,4,26.333c3.666,10.667,7.332,25,7.332,25"/>
		</g>
	</g>
	<g>
		<path class="st5" d="M331.334,215.667c0,0-27.333,4.667-27.333,13.333c0,8.666,31.999,21.334,86.666,21.334s102-18.002,102-24.667
			c0-6.667-36-15.334-36-15.334s28.084,7.167,28.167,15c0.083,7.834-40.333,20.333-95,20.333s-81.167-8.75-81.167-16.999
			C308.667,220.417,331.334,215.667,331.334,215.667z"/>
		<path class="st6" d="M351.334,222.333c0,0-20.667,2.667-20.667,7.334c0,4.667,23.334,7.333,56.667,7.333s76.667-10,76.667-13.333
			c0-3.334-18-8-18-8"/>
		<line class="st7" x1="379.334" y1="220.333" x2="468.001" y2="34.333"/>
		<line class="st8" x1="405.334" y1="212.333" x2="439.167" y2="141.667"/>
		<line class="st8" x1="444.167" y1="131.167" x2="450.001" y2="117.667"/>
		<line class="st8" x1="456.001" y1="108.334" x2="493.334" y2="27.667"/>
	</g>
	<g>
		<path class="st8" d="M28.838,472.868c0,0-13.098,1.689-13.098,4.648c0,2.957,14.788,4.646,35.913,4.646s48.588-6.336,48.588-8.449
			c0-2.113-11.408-5.07-11.408-5.07"/>
		<line class="st8" x1="63.062" y1="466.53" x2="84.503" y2="421.745"/>
		<line class="st8" x1="87.672" y1="415.091" x2="91.369" y2="406.536"/>
		<line class="st8" x1="95.172" y1="400.62" x2="118.832" y2="349.497"/>
	</g>
	<g>
		<path class="st9" d="M132.328,333.44c-5.479-2.728-26.37-11.975-49.19-44.392c-13.701-20.396-9.46-30.558-8.165-34.268
			c1.161-3.329,4.431-14.122,19.064-18.161c5.699-1.572,8.258-0.936,8.258-0.936s-8.426,3.191-10.896,5.393
			c-4.09,3.643-9.104,7.818-10.635,16.621c-1.634,9.383,2.984,20.025,14.518,32.054c11.533,12.029,24.751,15.782,27.305,16.621
			c2.95,0.97,11.952,1.972,11.952,1.972s-17.009-4.019-25.551-11.311c-8.541-7.292-14.605-14.386-16.903-18.811
			c-2.297-4.425-10.013-18.158-2.964-28.854c6.737-10.221,15.793-15.469,25.875-10.319c9.646,4.929,7.89,15.811,6.758,19.055
			c-1.075,3.085-3.192,7.128-10.029,7.173c-7.813,0.049-12.261-4.789-13.88-6.84c0,0,3.093,9.017,13.615,15
			c9.697,5.516,20.325,3.037,22.516-4.871c3.167-11.434-4.522-22.622-8.634-26.644c-3.214-3.144-12.994-11.101-31.014-10.684
			c-12.296,0.285-22.396,9.017-25.885,16.143c-3.391,6.924-6.192,20.299,6.032,39.92c12.225,19.621,26.116,31.404,43.106,41.86
			c23.997,14.768,47.239,16.666,47.239,16.666S144.575,340.031,132.328,333.44z M127.826,249.62
			c3.865,6.846,4.149,12.138,1.928,16.733c-2.22,4.596-6.298,5.936-10.636,5.566c-4.336-0.369-6.17-1.1-9.164-2.752
			c-2.995-1.652-4.426-3.215-4.426-3.215s3.883,1.485,7.756,1.459c3.872-0.025,9.293-2.298,11.126-5.267
			c1.833-2.97,2.783-6.158,2.014-9.991c-1.419-7.072-6.075-10.816-6.075-10.816S123.961,242.774,127.826,249.62z"/>
		<path class="st9" d="M281.906,185.184c-3.711-4.336-9.162-8.94-23.557-10.851c-11.955-1.587-25.352,1.028-37.656,9.68
			c-7.156,5.032-11.047,10.774-13.782,20.807c-2.783,10.205-4.774,23.167-4.689,24.234c-1.958,0.357-8.27,3.413-14.692,9.112
			c-3.553-0.346-8.451-1.537-13.547,3.952c-3.241,3.584-3.256,10.872-3.475,13.585c-0.217,2.713-0.301,7.844-4.604,14.084
			c-4.302,6.24-7.589,15-8.602,18.081c-1.292,2.953-1.844,11.698-0.209,17.3c1.635,5.603,1.797,6.817,1.797,6.817
			s-4.083,2.305-7.856,2.85c-17.366,2.505-36.04-4.789-36.04-4.789s4.827,6.92,11.997,12.461
			c2.347,1.435,11.713,9.749,32.823,13.039c15.491,2.414,24.482,0.484,27.201,0.212c2.764-0.275,9.07-2.709,9.07-2.709
			s5.868,2.258,8.884,2.188c3.017-0.07,13.458,0.716,28.678-11.048c13.898-10.744,20.91-24.099,20.91-24.099
			s11.996-18.249,9.385-34.461c-0.67-12.389-7.463-17.865-14.164-20.015c-4.297-10.006-6.037-18.614-6.289-21.607
			c-0.742-8.733,9.418-14.281,11.545-14.875c0,0,2.822,0.241,9.643,0.362c6.436,0.114,15.592-2.626,18.385-8.005
			C286.025,195.883,285.904,189.853,281.906,185.184z M174.986,332.054c-8.549,0.462-15.613,0.596-30.219-4.183
			c-14.607-4.777-21.922-13.358-21.922-13.358s10.976,3.443,24.049,3.817c6.926,0.197,15.271-1.782,15.271-1.782
			s1.792,2.675,7.293,7.461c5.502,4.786,12.857,6.484,12.857,6.484S180.04,331.78,174.986,332.054z M199.409,328.251
			c-3.576,0.539-7.268,0.477-7.268,0.477s10.58-2.898,22.447-14.766c11.867-11.867,15.306-23.246,15.941-26.021
			c0.637-2.776,0.662-4.702,0.662-4.702s-7.564,16.901-14.577,24.005c-7.013,7.102-16.425,15.63-23.37,17.479
			c-6.944,1.848-10.079,5.714-22.725-4.374c-11.877-9.475-10.831-23.991-10.571-27.251c0.262-3.259,3.56-15.751,8.721-23.936
			c2.983-5.728,4.158-9.379,4.028-13.674c-0.228-7.594,6.575-16.59,13.114-14.84c4.979,1.988,6.88,8.363,6.666,12.259
			c-0.198,3.597-0.83,5.598-3.425,8.89c-3.136,3.228-4.553,4.305-7.233,4.014c-2.376-0.258-5.287-1.658-6.022-4.64
			c0,0-1.763,11.064,8.017,7.804c2.828-1.086,4.896-2.998,6.463-4.982c4.647-5.881,4.755-14.031,3.13-18.115
			c-1.544-3.88-4.208-5.9-4.208-5.9s6.796-3.771,14.826,1.743c9.179,6.304,11.641,21.327,4.694,36.644
			c-7.251,15.986-18.467,19.083-25.412,19.718c-2.59-0.031-5.927-1.079-8.814-2.796c-2.319-1.38-4.397-4.213-5.05-9.1
			c-0.878,0.784-1.643,11.348,5.762,14c7.663,2.694,17.769,5.8,31.656-12.323c13.822-17.011,8.325-35.757,7.392-37.981
			c-0.933-2.226-4.94-13.159-16.843-14.572c0,0,13.786-8.454,22.263,6.021c8.477,14.474,7.303,28.428,2.087,39.251
			c-5.099,11.219-17.995,28.818-33.252,28.949c-13.62,1.467-20.294-8.686-20.294-8.686s1.923,9.656,14.002,11.893
			c12.554,2.325,23.265-5.468,32.47-14.875c4.503-5.797,10.037-12.109,13.04-22.298c2.779-9.432,3.455-18.322,0.781-26.994
			c-4.108-13.757-16.79-17.918-16.79-17.918s12.97-2.996,21.206,4.582c7.688,7.074,10.178,19.926,10.523,26.494
			c0.453,8.588-2.703,26.47-10.816,38.527c-8.701,11.422-14.651,17.361-17.782,19.837
			C211.718,322.566,204.298,327.516,199.409,328.251z M261.072,275.26c-1.766,14.952-11.568,27.947-15.221,32.643
			c-3.65,4.694-8.844,9-10.338,10.408c-2.898,3.111-14.955,11.443-22.523,12.387c-6.386,0.798-8.02-0.285-8.02-0.285
			s14.549-8.45,24.842-17.815c10.506-9.561,18.213-16.776,22.037-37.034c2.648-14.018-0.836-23.697-0.836-23.697
			S263.139,257.795,261.072,275.26z M277.762,203.317c-5.213,4.21-11.842,3.505-18.435,3.344
			c-10.453-0.255-17.518-3.286-17.518-3.286s0.807-3.013,0.094-3.846c-0.857,4.164-1.238,4.831-3.832,8.233
			c1.809-0.571,3.107-2.821,3.107-2.821l9.742,2.92l-2.158,1.561c-9.154,5.68-8.48,10.212-8.189,13.421
			c0.342,3.756,1.924,14.114,6.969,28.511c4.379,12.493,2.148,24.11-1.191,34.715c-2.664,8.452-11.277,16.662-11.277,16.662
			c2.727-2.46,8.305-16.87,9.064-20.25c0.498-2.215,4.27-14.706,1.566-28.858c-2.703-14.151-11.129-21.137-13.049-22.333
			c-1.199-0.747-8.266-5.919-16.633-4.601c-9.36,2.085-9.717,1.614-9.717,1.614s2.463-16.99,4.253-22.76
			c2.154-6.937,6.161-14.771,16.826-21.308c14.374-8.81,29.204-7.341,29.204-7.341c12.664,0.806,18.924,5.007,23.275,9.316
			C284.217,190.519,282.975,199.107,277.762,203.317z"/>
		<g>
			<path class="st9" d="M255.121,187.845c3.322,0.823,7.545,2.595,8.916,4.81c0.953,1.542,0.852,4.342-0.365,5.108
				c-1.246,0.78-3.148,0.652-4.312,0.345c-1.922-0.506-3.561-2.18-4.932-3.191c-1.598-1.179-3.322-2.467-4.951-3.407
				c-0.705-0.406-3.809-1.998-4.555-2.236c-1.023-0.328-2.143-0.394-3.279-0.582c0.471-0.554,3.738-1.332,4.572-1.44
				C249.803,186.795,252.482,187.191,255.121,187.845z M250.727,190.576c1.381,0.813,2.545,1.842,3.93,2.598
				c0.244-1.419,0.889-2.488,2.101-3.038c-2.664-1.419-6.5-1.994-10.576-1.477C247.795,189.297,249.348,189.762,250.727,190.576z
				 M257.477,195.29c-0.199-2.264,0.959-3.311,2.598-3.93c-1.699-1.148-4.223,0.679-3.975,2.489
				C256.174,194.397,256.586,195.304,257.477,195.29z"/>
			<path class="st9" d="M267.449,183.329c3.016,1.024,6.787,2.997,7.885,5.159c0.758,1.504,0.443,4.087-0.746,4.699
				c-1.211,0.626-2.963,0.357-4.018-0.018c-1.74-0.621-3.125-2.298-4.318-3.345c-1.389-1.219-2.883-2.551-4.317-3.547
				c-0.619-0.432-3.373-2.149-4.045-2.431c-0.92-0.385-1.953-0.531-2.988-0.795c0.479-0.477,3.568-0.939,4.346-0.972
				C262.609,181.937,265.062,182.518,267.449,183.329z M263.164,185.511c1.217,0.865,2.215,1.909,3.434,2.716
				c0.34-1.292,1.021-2.232,2.191-2.645c-2.354-1.525-5.863-2.359-9.682-2.199C260.547,184.099,261.953,184.65,263.164,185.511z
				 M269.043,190.41c-0.006-2.112,1.156-2.988,2.717-3.434c-1.483-1.197-3.961,0.296-3.877,1.991
				C267.91,189.48,268.223,190.351,269.043,190.41z"/>
		</g>
	</g>
	<g>
		<path class="st0" d="M54.839,324.782c0,0,2.439-0.731,4.147-0.895c1.707-0.163,4.146,0.325,4.146,0.325l-0.325,0.569l3.74,0.325
			l-0.407,0.488c0,0,1.221,0.162,1.627,0.324c0.406,0.163,1.383,0.732,1.383,0.732l-0.569,0.325c0,0,1.463,0.569,1.626,0.813
			c0.163,0.243,1.139,1.219,1.139,1.219s0.569,0.488,0.894,0.896c0.325,0.406,0.894,1.138,0.894,1.138l-1.138,0.488l0.243,0.325
			l-3.821,2.032c0,0,1.057,1.383,1.789,2.358c0.732,0.976,1.22,3.009,1.22,3.009s1.138,0.976,1.626,1.545
			c0.488,0.569,1.139,1.302,1.058,1.626c-0.082,0.325-1.464,1.22-1.464,1.22l1.464,3.741l-0.569,0.406c0,0,0.895,1.22,0.731,2.358
			c-0.162,1.138-1.139,0.487-1.139,0.487s0.163,2.033-0.325,4.148c-0.487,2.113-1.707,3.089-1.301,5.285
			c-0.162,0-3.009-3.984-3.009-3.984l-0.406,0.406c0,0-1.463-1.301-2.114-1.87c-0.65-0.569-1.951-1.545-1.951-1.545l-0.325,0.569
			c0,0-1.708-2.114-2.765-3.172c-1.058-1.057-3.09-3.089-3.09-3.089s-0.163,4.147-0.65,5.528c-0.488,1.383-2.114,3.497-2.114,4.066
			c0,0.569,0.65,0.406,0.65,1.22c0,0.812-0.163,1.626-0.163,1.626l-1.869-0.569c0,0-0.326,1.058-0.489,1.707
			c-0.162,0.65-0.893,1.383-0.893,1.383l-0.406-0.487c0,0-0.407,1.3-0.895,1.788c-0.488,0.488-1.139,0-1.139,0
			s-0.894,0.977-1.708,1.383c-0.813,0.406-2.195,0.812-2.521,1.382c-0.325,0.569-1.464,1.789-1.464,1.789s1.139-2.114,0.976-3.496
			c-0.163-1.383-0.407-2.277-0.407-2.277l-0.976-0.162l-0.325-2.277l-0.407,0.163l-0.813-3.577c0,0-0.732,0.08-1.138-0.488
			c-0.407-0.569-0.895-1.546-0.407-3.415c0.488-1.871-0.163-3.578-0.163-4.31c0-0.732,0.325-3.253,0.325-3.253
			s-2.114,1.87-3.252,3.253c-1.139,1.382-3.416,1.707-3.416,1.707l-0.65-0.569l-2.277,1.221l-0.894-0.245l-2.277,0.488l-0.244-0.488
			l-2.358-0.162l-3.252,1.139c0,0,1.951-1.627,1.951-2.521c0-0.895,0-1.789,0-1.789l-0.732-0.163c0,0,0.813-1.22,0.895-1.707
			c0.081-0.488,1.301-2.928,1.789-3.091l-0.651-0.325c0,0,1.951-2.927,2.277-3.578c0.325-0.65,1.057-2.846,1.057-2.846l-0.65-0.081
			c0,0,1.951-2.927,3.497-4.065c1.545-1.139,3.578-2.358,3.578-2.358s-1.383-0.814-1.951-1.545
			c-0.569-0.731-1.139-2.927-1.139-2.927s2.033,0,2.927-1.058c0.895-1.057,3.171-1.463,3.171-1.463v-0.569c0,0,1.22-0.65,2.195-0.65
			s2.846,0.081,2.846,0.081l0.325-0.814c0,0,3.333,0.244,4.797,1.057c1.464,0.814,4.31,4.066,4.31,4.066s1.057-0.407,1.464-0.65
			C54.595,324.213,54.839,324.782,54.839,324.782z"/>
		<g>
			<path class="st10" d="M45.543,366.225c0,0,1.354-3.523,1.896-7.156c0.542-3.631,1.897-16.479,3.415-21.574
				c1.519-5.096,2.981-12.414,2.981-12.414s5.421,9.595,7.482,15.016c2.06,5.421,9.16,14.04,9.595,18.106"/>
			<path class="st10" d="M24.509,349.853c0,0,10.896-7.806,14.907-12.739C43.428,332.182,54.27,324.7,54.27,324.7"/>
			<path class="st11" d="M54.514,356.738c0,0-2.277-14.556-4.716-14.881c-2.441-0.324-8.701,14.23-8.701,14.23"/>
			<path class="st2" d="M50.691,363.406"/>
			<path class="st11" d="M62.238,350.965c0,0-1.057-2.846-1.139-4.879c-0.081-2.032,0.651-5.041,0.651-5.041"/>
			<path class="st2" d="M66.223,329.742c0,0-9.108-2.277-11.872-3.984c-2.764-1.707-13.823-0.65-16.506-0.081"/>
			<path class="st12" d="M34.511,349.257c0,0,4.228-6.667,3.578-10.488"/>
			<path class="st11" d="M45.704,331.098c0,0-5.095,0.108-8.565,1.301c-3.469,1.192-8.131,2.385-8.131,2.385"/>
		</g>
	</g>
</g>
<g id="Layer_1">
	<g>
		<g>
			<path d="M5.018,255.209c1.818-2.574,2.75-3.843,4.661-6.334c1.156-1.51,2.426-2.807,3.792-3.89
				c1.367-1.083,2.789-1.827,4.247-2.232c1.46-0.406,2.943-0.431,4.444-0.08c1.5,0.351,2.972,1.178,4.425,2.464
				c1.288,1.139,2.197,2.399,2.743,3.764c0.545,1.365,0.793,2.758,0.751,4.18c-0.041,1.423-0.339,2.834-0.892,4.241
				c-0.552,1.408-1.307,2.73-2.271,3.979c-1.868,2.421-2.78,3.653-4.551,6.161C15.427,262.561,11.958,260.11,5.018,255.209z
				 M21.659,261.082c0.596-0.799,0.896-1.195,1.502-1.984c0.673-0.877,1.22-1.754,1.64-2.637c0.42-0.881,0.654-1.752,0.702-2.616
				c0.047-0.865-0.116-1.717-0.495-2.559c-0.379-0.842-1.025-1.65-1.945-2.421c-0.797-0.668-1.624-1.091-2.482-1.263
				c-0.86-0.171-1.71-0.141-2.549,0.098c-0.84,0.236-1.662,0.656-2.462,1.26c-0.8,0.604-1.529,1.333-2.183,2.182
				c-0.737,0.956-1.101,1.438-1.824,2.406C15.602,256.561,17.62,258.068,21.659,261.082z"/>
			<path d="M21.833,237.54c-0.533-0.484-0.8-1.106-0.794-1.867c0.006-0.762,0.283-1.439,0.83-2.024
				c0.547-0.586,1.204-0.909,1.963-0.965c0.759-0.057,1.396,0.168,1.915,0.667c0.519,0.499,0.77,1.126,0.756,1.879
				c-0.014,0.753-0.287,1.412-0.819,1.982c-0.533,0.569-1.172,0.886-1.922,0.952C23.009,238.229,22.365,238.023,21.833,237.54z
				 M25.491,240.339c1.301-1.429,1.961-2.135,3.295-3.529c4.211,4.035,6.316,6.053,10.527,10.088
				c-1.234,1.288-1.843,1.94-3.046,3.262C31.957,246.232,29.801,244.269,25.491,240.339z"/>
			<path d="M51.854,233.399c1.787,2.104,2.623,4.14,2.555,6.093c-0.068,1.954-1.092,3.806-3.062,5.643
				c-0.901,0.842-1.879,1.572-2.94,2.201c-1.062,0.629-2.244,1.01-3.558,1.145c-0.385-1.727-0.568-2.597-0.915-4.343
				c0.897-0.068,1.731-0.239,2.508-0.513c0.775-0.273,1.487-0.716,2.14-1.326c0.979-0.914,1.48-1.82,1.501-2.743
				c0.021-0.922-0.308-1.772-1.001-2.548c-0.376-0.421-0.564-0.631-0.94-1.052c-0.018,0.016-0.027,0.024-0.044,0.04
				c0.08,0.868-0.063,1.663-0.43,2.39c-0.366,0.728-0.793,1.319-1.283,1.777c-0.778,0.728-1.604,1.263-2.489,1.603
				c-0.883,0.34-1.784,0.496-2.702,0.464c-0.92-0.032-1.827-0.248-2.724-0.652c-0.896-0.403-1.737-0.987-2.52-1.76
				c-0.683-0.674-1.242-1.449-1.665-2.327c-0.425-0.878-0.669-1.78-0.734-2.702c-0.065-0.922,0.065-1.845,0.395-2.764
				c0.33-0.918,0.899-1.766,1.71-2.528c0.499-0.47,1.007-0.845,1.518-1.128c0.512-0.281,1.007-0.49,1.486-0.628
				c0.48-0.138,0.93-0.213,1.347-0.225c0.417-0.012,0.782,0.017,1.097,0.085c0.019-0.017,0.028-0.026,0.047-0.043
				c-0.511-0.574-0.766-0.859-1.276-1.433c1.321-1.175,1.989-1.756,3.335-2.9C46.668,227.294,48.396,229.33,51.854,233.399z
				 M39.227,236.538c0.333,0.345,0.716,0.608,1.147,0.792c0.43,0.183,0.881,0.276,1.351,0.284c0.471,0.007,0.932-0.064,1.385-0.217
				c0.453-0.153,0.872-0.407,1.257-0.764c0.37-0.343,0.652-0.735,0.846-1.183c0.194-0.446,0.303-0.906,0.332-1.375
				c0.028-0.47-0.032-0.925-0.181-1.368c-0.15-0.443-0.382-0.845-0.701-1.204c-0.32-0.359-0.691-0.638-1.117-0.835
				c-0.425-0.196-0.875-0.302-1.352-0.317c-0.476-0.016-0.952,0.058-1.427,0.22c-0.476,0.163-0.907,0.422-1.292,0.778
				c-0.4,0.371-0.696,0.785-0.887,1.239c-0.19,0.455-0.298,0.92-0.32,1.396c-0.021,0.477,0.05,0.937,0.214,1.375
				C38.645,235.8,38.893,236.192,39.227,236.538z"/>
			<path d="M50.19,209.236c2.496-1.828,3.76-2.719,6.323-4.448c1.551-1.047,3.146-1.861,4.767-2.442
				c1.621-0.582,3.19-0.827,4.69-0.743c1.501,0.085,2.908,0.537,4.214,1.349c1.305,0.811,2.435,2.064,3.407,3.745
				c0.861,1.488,1.326,2.968,1.417,4.433c0.091,1.465-0.107,2.86-0.586,4.189c-0.48,1.33-1.195,2.566-2.149,3.715
				s-2.072,2.151-3.364,3.015c-2.502,1.676-3.737,2.541-6.167,4.322C57.721,219.518,55.21,216.091,50.19,209.236z M64.03,220.148
				c0.805-0.559,1.21-0.836,2.022-1.384c0.903-0.608,1.687-1.258,2.354-1.954c0.666-0.695,1.157-1.441,1.469-2.24
				c0.311-0.8,0.421-1.656,0.325-2.573c-0.097-0.917-0.456-1.888-1.085-2.91c-0.544-0.886-1.192-1.55-1.948-1.987
				c-0.757-0.438-1.567-0.682-2.43-0.729c-0.864-0.046-1.769,0.085-2.708,0.396c-0.938,0.312-1.848,0.763-2.724,1.351
				c-0.988,0.663-1.48,0.997-2.458,1.674C59.72,213.934,61.157,216.007,64.03,220.148z"/>
			<path d="M92.154,206.102c-0.267,1.137-0.781,2.162-1.542,3.084c-0.763,0.921-1.654,1.642-2.689,2.165
				c-0.983,0.497-1.986,0.812-3.015,0.948c-1.031,0.137-2.025,0.087-2.982-0.153c-0.959-0.241-1.849-0.666-2.677-1.281
				c-0.828-0.615-1.53-1.424-2.099-2.435c-0.569-1.01-0.896-2.032-0.972-3.066c-0.076-1.034,0.06-2.03,0.416-2.988
				c0.355-0.957,0.916-1.844,1.68-2.654c0.764-0.81,1.682-1.488,2.749-2.028c0.99-0.501,1.975-0.787,2.946-0.859
				c0.971-0.072,1.886,0.065,2.733,0.405c0.849,0.34,1.623,0.87,2.32,1.583c0.697,0.713,1.286,1.6,1.77,2.654
				c0.235,0.513,0.352,0.769,0.587,1.281c-3.866,1.773-5.772,2.716-9.523,4.706c0.564,0.675,1.232,1.095,2.003,1.267
				c0.771,0.172,1.546,0.061,2.333-0.337c0.661-0.335,1.148-0.762,1.461-1.285c0.313-0.523,0.529-1.101,0.649-1.737
				C89.852,205.648,90.623,205.794,92.154,206.102z M85.894,201.971c-0.315-0.691-0.832-1.16-1.559-1.403
				c-0.728-0.243-1.479-0.171-2.246,0.218c-0.468,0.238-0.841,0.521-1.121,0.847c-0.281,0.325-0.488,0.665-0.622,1.017
				c-0.134,0.353-0.192,0.711-0.176,1.075c0.017,0.364,0.102,0.712,0.252,1.038C82.593,203.611,83.686,203.051,85.894,201.971z"/>
			<path d="M108.125,199.606c-0.376,1.107-0.991,2.081-1.841,2.927c-0.85,0.846-1.809,1.479-2.892,1.903
				c-1.029,0.402-2.061,0.622-3.102,0.661c-1.042,0.04-2.026-0.102-2.958-0.432c-0.933-0.33-1.782-0.837-2.549-1.528
				c-0.766-0.69-1.388-1.562-1.858-2.623c-0.47-1.06-0.7-2.107-0.677-3.145c0.023-1.036,0.256-2.016,0.703-2.936
				c0.446-0.919,1.09-1.751,1.93-2.486c0.839-0.734,1.822-1.323,2.939-1.76c1.037-0.406,2.049-0.599,3.025-0.58
				c0.976,0.02,1.877,0.242,2.69,0.66c0.815,0.418,1.536,1.019,2.164,1.794c0.627,0.776,1.129,1.714,1.51,2.809
				c0.185,0.533,0.278,0.799,0.464,1.332c-4.033,1.404-6.027,2.165-9.962,3.794c0.498,0.725,1.124,1.205,1.878,1.45
				c0.752,0.244,1.537,0.205,2.36-0.118c0.692-0.271,1.22-0.651,1.583-1.141c0.363-0.492,0.633-1.048,0.814-1.67
				C105.868,198.938,106.625,199.155,108.125,199.606z M102.272,194.904c-0.249-0.719-0.722-1.235-1.423-1.545
				c-0.702-0.311-1.459-0.31-2.263,0.006c-0.49,0.193-0.89,0.439-1.201,0.736c-0.311,0.298-0.548,0.617-0.716,0.955
				c-0.167,0.337-0.26,0.691-0.279,1.056c-0.018,0.365,0.032,0.717,0.151,1.057C98.817,196.226,99.963,195.773,102.272,194.904z"/>
			<path d="M108.011,186.905c1.687-0.554,2.533-0.821,4.234-1.337c0.223,0.735,0.334,1.102,0.558,1.838
				c0.024-0.008,0.036-0.012,0.06-0.019c0.108-0.304,0.272-0.631,0.491-0.979c0.219-0.347,0.499-0.686,0.838-1.014
				c0.339-0.328,0.728-0.628,1.165-0.898c0.436-0.27,0.928-0.48,1.469-0.63c1.121-0.309,2.191-0.401,3.2-0.28
				c1.009,0.122,1.922,0.431,2.735,0.921c0.813,0.491,1.5,1.146,2.06,1.957c0.561,0.812,0.961,1.757,1.211,2.828
				c0.231,0.994,0.298,1.979,0.203,2.957c-0.095,0.979-0.338,1.882-0.725,2.719c-0.387,0.835-0.924,1.562-1.609,2.181
				c-0.685,0.619-1.522,1.062-2.518,1.334c-0.9,0.246-1.775,0.34-2.628,0.285c-0.854-0.055-1.628-0.341-2.328-0.861
				c-0.023,0.007-0.035,0.011-0.058,0.018c0.969,3.217,1.452,4.825,2.421,8.042c-1.646,0.495-2.464,0.752-4.094,1.288
				C112.021,199.116,110.684,195.046,108.011,186.905z M114.36,192.545c0.319,1.053,0.886,1.809,1.696,2.278
				c0.809,0.469,1.763,0.544,2.876,0.23c1.113-0.313,1.888-0.874,2.335-1.696c0.448-0.823,0.539-1.766,0.263-2.831
				c-0.277-1.064-0.819-1.845-1.633-2.331c-0.814-0.488-1.806-0.572-2.963-0.246c-1.158,0.326-1.96,0.915-2.399,1.756
				C114.095,190.544,114.041,191.493,114.36,192.545z"/>
			<path d="M132.029,192.925c-0.076-0.373-0.079-0.74-0.006-1.103c0.072-0.362,0.209-0.69,0.412-0.985
				c0.202-0.295,0.461-0.544,0.779-0.749c0.317-0.205,0.667-0.343,1.052-0.416c0.385-0.073,0.765-0.073,1.134,0.001
				c0.369,0.075,0.703,0.216,1,0.417c0.296,0.201,0.545,0.457,0.744,0.767c0.199,0.311,0.331,0.654,0.395,1.028
				c0.064,0.374,0.055,0.741-0.026,1.101c-0.081,0.359-0.226,0.684-0.43,0.974c-0.204,0.291-0.46,0.534-0.77,0.731
				c-0.311,0.199-0.652,0.333-1.025,0.404c-0.374,0.069-0.741,0.069-1.101-0.003c-0.361-0.072-0.689-0.207-0.984-0.403
				c-0.294-0.196-0.545-0.446-0.751-0.751C132.247,193.635,132.105,193.297,132.029,192.925z M136.26,187.602
				c-1.847,0.324-2.767,0.497-4.601,0.866c-1.123-5.577-1.684-8.364-2.807-13.941c1.975-0.398,2.965-0.585,4.954-0.934
				C134.788,179.196,135.278,181.999,136.26,187.602z"/>
		</g>
	</g>
	<g>
		<g>
			<path class="st13" d="M177.054,171.112c0,0,6.695-28.118,33.03-75.928c26.521-48.145,64.324-79.056,64.324-79.056"/>
			<path class="st14" d="M257.484,9.642c0,0-5.32,4.792-7.213,14.534c-1.893,9.743,0.596,15.234,0.596,15.234"/>
			<line class="st14" x1="257.861" y1="31.347" x2="269.525" y2="3"/>
			<line class="st14" x1="258.398" y1="34.787" x2="286.16" y2="23.645"/>
			<path class="st14" d="M274.307,34.863c0,0-6.438,8.03-13.73,12.228c-7.295,4.198-15.6,1.657-15.6,1.657"/>
			<path class="st14" d="M233.977,59.514c0,0-4.336-7.47-2.287-18.009c1.893-9.743,8.689-17.981,8.689-17.981"/>
			<path class="st14" d="M224.467,73.062c0,0-7.214-6.521-6.844-17.406c0.37-10.886,8.965-19.005,8.965-19.005"/>
			<path class="st14" d="M210.566,49.911c0,0-5.582,9.847-4.035,19.051c1.499,8.91,9.477,16.468,9.477,16.468"/>
			<path class="st14" d="M203.727,105.189c0,0-6.282-5.903-8.111-16.1c-1.83-10.196,2.729-20.319,2.729-20.319"/>
			<path class="st14" d="M195.964,121.771c0,0-8.66-2.516-12.143-16.087c-3.484-13.571,3.536-19.918,3.536-19.918"/>
			<path class="st14" d="M187.806,141.177c0,0-8.63-4.869-10.658-17.518c-2.118-13.204,4.061-20.509,4.061-20.509"/>
			<path class="st14" d="M233.23,62.059c0,0,9.234,4.685,18.689,0.397c9.455-4.287,15.58-11.851,15.58-11.851"/>
			<path class="st14" d="M223.064,77.811c0,0,8.719,4.791,16.895,1.624c8.178-3.167,16.457-13.508,16.457-13.508"/>
			<path class="st14" d="M213.591,92.59c0,0,5.712,5.75,15.499,2.041c9.789-3.709,18.939-13.205,18.939-13.205"/>
			<path class="st14" d="M204.442,109.104c0,0,10.6,5.054,19.143,0.521c8.545-4.533,13.357-12.878,13.357-12.878"/>
			<path class="st14" d="M198.949,121.111c0,0,11.999,1.437,20.083-3.865c8.375-5.494,15.857-19.895,15.857-19.895"/>
			<path class="st14" d="M190.416,132.849c0,0,8.129,4.937,19.562-1.259c11.434-6.196,16.428-19.07,16.428-19.07"/>
		</g>
		<path class="st14" d="M252.667,37.667c0,0,6.001,0.666,11.667-1.667c5.666-2.333,14.333-14,14.333-14"/>
		<path class="st14" d="M244.334,44.333c0,0-2.511-9.835-1.167-16.167C244.334,22.667,255.334,16,255.334,16"/>
		<path class="st14" d="M240,52c0,0,8,2.667,13.667,0.667s11-11.667,11-11.667"/>
		<path class="st14" d="M230.333,64c0,0-5.999-7.667-5.666-14c0.333-6.333,13-15.667,13-15.667"/>
		<path class="st14" d="M218.333,82.334c0,0,8.334,1.666,16,0c7.667-1.667,13.001-12.667,13.001-12.667"/>
		<path class="st14" d="M209.667,93.334c0,0-6-7.334-6-15.334s7.666-16.333,7.666-16.333"/>
		<path class="st14" d="M207.666,100.334c0,0,7.667,2,15-0.334c7.334-2.334,11.667-13,11.667-13"/>
		<path class="st14" d="M200,112.334c0,0-8-6.667-7.667-15C192.666,89,199,79,199,79"/>
		<path class="st14" d="M194.666,127c0,0,9.667,0.334,15.334-3c5.666-3.334,6.666-9.334,6.666-9.334"/>
		<path class="st14" d="M191,130.333c0,0-7.333-8.334-6.667-15.667c0.667-7.333,2.333-15,2.333-15"/>
		<path class="st14" d="M241,49c0,0,2.001-15,4.334-17.333c2.333-2.333,7.666-7,7.666-7"/>
		<path class="st14" d="M228.667,69c0,0,9.999,0.334,15.333-3.666S253.334,56,253.334,56"/>
		<path class="st14" d="M216,89.167c0,0,12.333-0.167,19.333-5.667s9.001-15.666,9.001-15.666"/>
		<path class="st14" d="M206,107.834c0,0,8.333-0.333,14.333-5c6-4.667,7-10.667,7-10.667"/>
		<path class="st14" d="M198,117c0,0-8.333-8.999-7.333-15.666c1-6.667,7.666-15.334,7.666-15.334"/>
	</g>
	<g>
		<g>
			<path class="st13" d="M247.581,148.38c0,0,20.831-20.037,68.831-46.025c48.337-26.169,96.85-31.741,96.85-31.741"/>
			<path class="st14" d="M402.53,56.008c0,0-7.066,1.155-13.925,8.329c-6.858,7.174-7.733,13.139-7.733,13.139"/>
			<line class="st14" x1="391.114" y1="74.473" x2="416.25" y2="56.929"/>
			<line class="st14" x1="389.707" y1="77.658" x2="419.086" y2="83.29"/>
			<path class="st14" d="M403.05,86.32c0,0-9.757,3.276-18.161,2.866c-8.406-0.412-14.021-7.038-14.021-7.038"/>
			<path class="st14" d="M355.795,85.259c0,0,0.39-8.628,7.81-16.387c6.859-7.174,17.03-10.431,17.03-10.431"/>
			<path class="st14" d="M340.47,91.518c0,0-2.545-9.386,3.65-18.344c6.195-8.959,17.816-11.143,17.816-11.143"/>
			<path class="st14" d="M341.29,64.526c0,0-10.02,5.266-13.692,13.847c-3.557,8.306-0.93,18.978-0.93,18.978"/>
			<path class="st14" d="M305.655,107.335c0,0-2.094-8.362,1.879-17.93c3.972-9.567,13.278-15.62,13.278-15.62"/>
			<path class="st14" d="M290.16,117.09c0,0-5.925-6.797-1.52-20.098c4.405-13.301,13.741-14.847,13.741-14.847"/>
			<path class="st14" d="M272.808,129.006c0,0-4.628-8.761,0.502-20.5c5.355-12.253,14.503-15.059,14.503-15.059"/>
			<path class="st14" d="M353.791,86.997c0,0,5.237,8.933,15.509,10.437c10.272,1.504,19.515-1.549,19.515-1.549"/>
			<path class="st14" d="M336.724,94.754c0,0,4.746,8.743,13.336,10.498c8.593,1.756,21.147-2.469,21.147-2.469"/>
			<path class="st14" d="M320.765,102.068c0,0,1.698,7.925,11.937,10.094c10.241,2.171,23.072-0.872,23.072-0.872"/>
			<path class="st14" d="M304.141,111.016c0,0,6.186,9.981,15.825,10.787c9.64,0.805,18.199-3.615,18.199-3.615"/>
			<path class="st14" d="M293.028,118.148c0,0,9.319,7.695,18.985,7.604c10.016-0.095,24.096-8.166,24.096-8.166"/>
			<path class="st14" d="M279.506,123.411c0,0,4.171,8.547,17.139,9.516c12.969,0.968,24.129-7.164,24.129-7.164"/>
		</g>
		<path class="st14" d="M383.327,76.982c0,0,4.69,3.805,10.718,4.904c6.028,1.1,19.625-4.031,19.625-4.031"/>
		<path class="st14" d="M372.714,78.087c0,0,3.203-9.632,7.756-14.233c3.956-3.996,16.814-3.659,16.814-3.659"/>
		<path class="st14" d="M364.924,82.194c0,0,5.289,6.568,11.137,7.948c5.85,1.381,15.561-3.87,15.561-3.87"/>
		<path class="st14" d="M350.304,87.064c0,0-0.902-9.693,2.8-14.842c3.705-5.147,19.406-6.153,19.406-6.153"/>
		<path class="st14" d="M330.299,96.002c0,0,6.109,5.906,13.461,8.648c7.351,2.742,17.784-3.629,17.784-3.629"/>
		<path class="st14" d="M317.06,100.572c0,0-1.084-9.413,3.24-16.144c4.324-6.73,15.279-9.597,15.279-9.597"/>
		<path class="st14" d="M311.595,105.38c0,0,5.368,5.827,12.8,7.828c7.432,2.001,16.843-4.63,16.843-4.63"/>
		<path class="st14" d="M298.658,111.332c0,0-3.127-9.933,1.658-16.764c4.784-6.831,15.519-11.82,15.519-11.82"/>
		<path class="st14" d="M286.243,120.788c0,0,7.952,5.506,14.522,5.765c6.568,0.258,10.653-4.249,10.653-4.249"/>
		<path class="st14" d="M281.356,121.611c0,0-1.665-10.976,2.859-16.785c4.525-5.809,10.071-11.358,10.071-11.358"/>
		<path class="st14" d="M367.387,80.21c0,0,9.79-11.538,13.016-12.24c3.223-0.703,10.233-1.746,10.233-1.746"/>
		<path class="st14" d="M346.199,90.37c0,0,8.232,5.686,14.883,5.204c6.649-0.482,12.897-2.807,12.897-2.807"/>
		<path class="st14" d="M324.642,100.49c0,0,10.466,6.525,19.329,5.683c8.862-0.843,16.041-8.315,16.041-8.315"/>
		<path class="st14" d="M306.139,110.79c0,0,7.19,4.224,14.762,3.541c7.57-0.684,11.654-5.191,11.654-5.191"/>
		<path class="st14" d="M294.453,114.177c0,0-2.147-12.077,2.298-17.145c4.445-5.068,14.739-8.756,14.739-8.756"/>
	</g>
	<g>
		<g>
			<path class="st13" d="M458.171,305.499c0,0,9.371,27.342,12.67,81.826c3.32,54.865-12.106,101.197-12.106,101.197"/>
			<path class="st14" d="M476.505,484.959c0,0,1.936-6.895-1.673-16.14c-3.608-9.246-8.646-12.557-8.646-12.557"/>
			<line class="st14" x1="464.585" y1="466.816" x2="469.879" y2="497.008"/>
			<line class="st14" x1="462.292" y1="464.195" x2="444.784" y2="488.451"/>
			<path class="st14" d="M448.807,472.635c0,0,1.148-10.228,5.068-17.674c3.921-7.447,12.298-9.739,12.298-9.739"/>
			<path class="st14" d="M469.716,430.244c0,0,7.657,3.995,11.558,13.996c3.608,9.246,2.269,19.842,2.269,19.842"/>
			<path class="st14" d="M470.511,413.708c0,0,9.582,1.655,15.088,11.053c5.506,9.398,2.58,20.854,2.58,20.854"/>
			<path class="st14" d="M494.633,425.846c0,0-0.544-11.306-6.772-18.258c-6.028-6.73-16.812-8.853-16.812-8.853"/>
			<path class="st14" d="M470.866,375.472c0,0,8.464,1.631,15.461,9.271c6.996,7.639,8.555,18.63,8.555,18.63"/>
			<path class="st14" d="M468.563,357.307c0,0,8.663-2.501,18.861,7.105c10.198,9.608,7.659,18.725,7.659,18.725"/>
			<path class="st14" d="M465.086,336.545c0,0,9.895-0.497,18.371,9.109c8.849,10.026,7.53,19.503,7.53,19.503"/>
			<path class="st14" d="M468.985,427.693c0,0-10.309,0.978-16.008,9.653c-5.7,8.679-6.833,18.345-6.833,18.345"/>
			<path class="st14" d="M469.158,408.946c0,0-9.93,0.612-15.147,7.658c-5.219,7.049-6.689,20.214-6.689,20.214"/>
			<path class="st14" d="M469.264,391.393c0,0-7.901-1.807-14.189,6.559c-6.292,8.368-8.95,21.284-8.95,21.284"/>
			<path class="st14" d="M468.17,372.545c0,0-11.66,1.394-16.46,9.793c-4.798,8.398-4.403,18.024-4.403,18.024"/>
			<path class="st14" d="M466.395,359.46c0,0-10.91,5.2-14.908,14.002c-4.142,9.119-2.768,25.29-2.768,25.29"/>
			<path class="st14" d="M467.33,344.98c0,0-9.509,0.172-15.86,11.52c-6.351,11.349-3.691,24.898-3.691,24.898"/>
		</g>
		<path class="st14" d="M465.598,458.697c0,0-5.429,2.645-8.97,7.646c-3.542,5.001-4.63,19.493-4.63,19.493"/>
		<path class="st14" d="M469.075,448.609c0,0,7.38,6.969,9.629,13.039c1.952,5.272-3.78,16.787-3.78,16.787"/>
		<path class="st14" d="M468.641,439.814c0,0-8.188,2.022-11.906,6.74c-3.721,4.721-3.061,15.74-3.061,15.74"/>
		<path class="st14" d="M470.397,424.504c0,0,9.168,3.273,12.272,8.803c3.102,5.531-2.614,20.189-2.614,20.189"/>
		<path class="st14" d="M470.737,402.596c0,0-7.933,3.045-13.521,8.553c-5.589,5.506-4.217,17.653-4.217,17.653"/>
		<path class="st14" d="M472.184,388.666c0,0,8.991,2.99,13.268,9.751c4.275,6.761,2.25,17.902,2.25,17.902"/>
		<path class="st14" d="M470.132,381.681c0,0-7.548,2.407-12.499,8.3c-4.951,5.892-2.912,17.224-2.912,17.224"/>
		<path class="st14" d="M470.197,367.441c0,0,10.324,1.357,14.497,8.579c4.174,7.221,4.165,19.058,4.165,19.058"/>
		<path class="st14" d="M466.865,352.194c0,0-8.35,4.885-11.355,10.732c-3.008,5.846-0.647,11.451-0.647,11.451"/>
		<path class="st14" d="M468.182,347.417c0,0,10.652,3.124,14.01,9.678c3.355,6.555,6.045,13.924,6.045,13.924"/>
		<path class="st14" d="M469.399,442.883c0,0,6.327,13.746,5.602,16.967c-0.724,3.218-2.737,10.013-2.737,10.013"/>
		<path class="st14" d="M469.133,419.387c0,0-8.631,5.064-11,11.297c-2.369,6.231-2.899,12.876-2.899,12.876"/>
		<path class="st14" d="M469.059,395.573c0,0-10.334,6.732-13.312,15.123c-2.976,8.39,0.768,18.052,0.768,18.052"/>
		<path class="st14" d="M467.53,374.452c0,0-6.863,4.735-9.44,11.887c-2.576,7.151-0.214,12.756-0.214,12.756"/>
		<path class="st14" d="M469.393,362.428c0,0,11.854,3.151,14.572,9.32c2.719,6.169,1.716,17.057,1.716,17.057"/>
	</g>
	<g>
		<g>
			<path class="st13" d="M230.121,379.106c0,0-9.671,20.716-37.7,53.558c-28.227,33.07-62.445,50.99-62.445,50.99"/>
			<path class="st14" d="M142.052,491.378c0,0,4.887-2.864,7.906-10.11c3.021-7.247,1.969-11.898,1.969-11.898"/>
			<line class="st14" x1="145.222" y1="474.502" x2="131.664" y2="494.603"/>
			<line class="st14" x1="145.355" y1="471.752" x2="122.069" y2="475.955"/>
			<path class="st14" d="M133.042,469.155c0,0,6.269-5.196,12.588-7.284c6.321-2.09,12.351,1.204,12.351,1.204"/>
			<path class="st14" d="M168.22,456.49c0,0,2.168,6.479-1.1,14.316c-3.02,7.247-9.6,12.546-9.6,12.546"/>
			<path class="st14" d="M177.749,447.508c0,0,4.549,6.203,2.526,14.577c-2.023,8.375-9.978,13.294-9.978,13.294"/>
			<path class="st14" d="M184.826,467.663c0,0,5.896-6.738,6.165-14.116c0.261-7.142-4.715-14.271-4.715-14.271"/>
			<path class="st14" d="M198.941,425.926c0,0,3.925,5.576,3.717,13.768c-0.209,8.19-5.355,15.307-5.355,15.307"/>
			<path class="st14" d="M207.601,414.317c0,0,6.307,3.331,6.842,14.401c0.535,11.07-5.916,14.868-5.916,14.868"/>
			<path class="st14" d="M217.017,400.584c0,0,5.909,5.148,5.464,15.272c-0.464,10.568-6.418,15.242-6.418,15.242"/>
			<path class="st14" d="M169.204,454.637c0,0-6.408-5.103-14.417-3.289c-8.01,1.814-13.962,6.697-13.962,6.697"/>
			<path class="st14" d="M179.593,444.054c0,0-5.991-5.101-12.83-3.953c-6.842,1.15-14.905,7.841-14.905,7.841"/>
			<path class="st14" d="M189.289,434.114c0,0-3.509-5.366-11.682-4.052c-8.177,1.312-16.781,7.209-16.781,7.209"/>
			<path class="st14" d="M199.012,422.78c0,0-7.406-5.607-14.75-3.458c-7.343,2.149-12.402,7.848-12.402,7.848"/>
			<path class="st14" d="M205.184,414.353c0,0-9.068-3.027-16.177-0.209c-7.365,2.921-15.459,12.884-15.459,12.884"/>
			<path class="st14" d="M213.665,406.619c0,0-5.51-5.121-15.356-2.145c-9.847,2.978-15.77,12.155-15.77,12.155"/>
		</g>
		<path class="st14" d="M150.255,470.434c0,0-4.543-1.474-9.306-0.569c-4.762,0.904-13.337,8.56-13.337,8.56"/>
		<path class="st14" d="M157.774,466.598c0,0,0.378,8.021-1.673,12.713c-1.782,4.074-11.368,7.485-11.368,7.485"/>
		<path class="st14" d="M162.355,461.35c0,0-5.773-3.342-10.481-2.697c-4.71,0.646-10.384,7.284-10.384,7.284"/>
		<path class="st14" d="M171.759,453.595c0,0,3.425,6.897,2.157,11.751c-1.27,4.853-12.571,10.064-12.571,10.064"/>
		<path class="st14" d="M183.979,441.304c0,0-6.19-2.619-12.396-2.551c-6.205,0.068-12.092,7.739-12.092,7.739"/>
		<path class="st14" d="M192.449,434.164c0,0,3.479,6.639,2.204,12.837c-1.276,6.198-8.546,11.431-8.546,11.431"/>
		<path class="st14" d="M195.114,429.059c0,0-5.62-2.772-11.674-2.134c-6.055,0.638-11.113,8.211-11.113,8.211"/>
		<path class="st14" d="M202.968,420.986c0,0,5.135,6.441,3.548,12.845c-1.587,6.403-8.09,13.14-8.09,13.14"/>
		<path class="st14" d="M209.44,410.473c0,0-7.437-1.801-12.359-0.12c-4.921,1.678-6.654,6.167-6.654,6.167"/>
		<path class="st14" d="M212.813,408.475c0,0,4.352,7.627,2.667,13.202c-1.687,5.575-4.201,11.249-4.201,11.249"/>
		<path class="st14" d="M161.102,463.515c0,0-3.942,11.302-6.123,12.738c-2.179,1.435-7.055,4.2-7.055,4.2"/>
		<path class="st14" d="M173.847,449.986c0,0-7.695-1.854-12.465,0.395c-4.77,2.249-8.72,5.742-8.72,5.742"/>
		<path class="st14" d="M186.877,436.382c0,0-9.581-1.838-15.883,1.306c-6.3,3.145-9.472,10.703-9.472,10.703"/>
		<path class="st14" d="M197.601,423.515c0,0-6.508-1.071-11.902,1.588c-5.393,2.659-7.124,7.148-7.124,7.148"/>
		<path class="st14" d="M205.262,417.689c0,0,5.021,8.302,3.183,13.307c-1.838,5.006-8.386,10.657-8.386,10.657"/>
	</g>
	<g>
		<path class="st13" d="M929.748,282.069c0,0-12.646,25.991-48.748,66.931c-36.354,41.227-79.975,63.18-79.975,63.18"/>
		<path class="st15" d="M816.135,422.191c0,0,6.234-3.521,10.2-12.618c3.966-9.098,2.731-15,2.731-15"/>
		<line class="st15" x1="820.487" y1="400.923" x2="802.938" y2="426.056"/>
		<line class="st15" x1="820.711" y1="397.448" x2="791.19" y2="402.286"/>
		<path class="st15" d="M805.199,393.916c0,0,8.029-6.44,16.062-8.951c8.032-2.511,15.587,1.774,15.587,1.774"/>
		<path class="st15" d="M849.924,378.623c0,0,2.607,8.234-1.682,18.076c-3.967,9.098-12.393,15.661-12.393,15.661"/>
		<path class="st15" d="M862.152,367.466c0,0,5.623,7.934,2.895,18.478c-2.727,10.546-12.883,16.602-12.883,16.602"/>
		<path class="st15" d="M873.097,357.233c0,0,6.146,9.112,5.67,18.135c-0.49,9.321-8.081,17.719-8.081,17.719"/>
		<path class="st15" d="M889.381,340.617c0,0,4.848,7.129,4.416,17.478c-0.431,10.351-7.081,19.24-7.081,19.24"/>
		<path class="st15" d="M900.564,326.12c0,0,7.904,4.338,8.354,18.342c0.449,14.005-7.783,18.674-7.783,18.674"/>
		<path class="st15" d="M912.746,308.952c0,0,7.363,6.629,6.594,19.417c-0.803,13.348-8.424,19.135-8.424,19.135"/>
		<path class="st15" d="M851.205,376.301c0,0-7.994-6.58-18.155-4.451c-10.161,2.129-17.785,8.18-17.785,8.18"/>
		<path class="st15" d="M864.552,363.136c0,0-7.468-6.571-16.137-5.258c-8.671,1.314-18.999,9.608-18.999,9.608"/>
		<path class="st15" d="M877.013,350.77c0,0-4.325-6.854-14.685-5.361c-10.359,1.492-21.355,8.772-21.355,8.772"/>
		<path class="st15" d="M889.533,336.641c0,0-9.246-7.238-18.572-4.671c-9.326,2.567-15.837,9.666-15.837,9.666"/>
		<path class="st15" d="M897.506,326.115c0,0-11.398-4.011-20.441-0.594c-9.37,3.54-19.803,15.97-19.803,15.97"/>
		<path class="st15" d="M908.387,316.515c0,0-6.861-6.587-19.367-3.025c-12.508,3.561-20.182,15.04-20.182,15.04"/>
	</g>
	<g>
		<ellipse transform="matrix(0.7071 -0.7071 0.7071 0.7071 -249.5525 313.3932)" cx="253.523" cy="457.933" rx="3.962" ry="8.883"/>
		<ellipse transform="matrix(0.7071 -0.7071 0.7071 0.7071 -261.2306 321.5595)" cx="257.541" cy="476.113" rx="5.645" ry="8.106"/>
		<ellipse transform="matrix(0.7071 -0.7071 0.7071 0.7071 -247.4656 324.5741)" cx="268.063" cy="461.004" rx="3.739" ry="7.126"/>
	</g>
	<g>
		<ellipse transform="matrix(0.3827 -0.9239 0.9239 0.3827 91.16 435.4747)" cx="371.436" cy="149.524" rx="8.883" ry="3.962"/>
		<ellipse transform="matrix(0.3827 -0.9239 0.9239 0.3827 71.8825 427.9654)" cx="356.178" cy="160.195" rx="8.106" ry="5.645"/>
		<ellipse transform="matrix(0.3827 -0.9239 0.9239 0.3827 79.347 447.0127)" cx="374.163" cy="164.133" rx="7.126" ry="3.739"/>
	</g>
	<g>
		<path d="M59.255,104.572c-1.85-0.255-3.678-0.139-5.436,0.279c-1.58-0.878-3.308-1.484-5.158-1.739
			c-9.438-1.3-18.344,6.758-19.893,17.998c-1.549,11.241,4.847,21.407,14.285,22.707c1.851,0.255,3.678,0.139,5.436-0.279
			c1.58,0.878,3.307,1.484,5.158,1.739c9.438,1.3,18.344-6.758,19.893-17.998C75.088,116.038,68.692,105.872,59.255,104.572z"/>
		<path d="M103.025,100.528c-1.842,0.309-3.551,0.966-5.105,1.89c-1.77-0.366-3.6-0.428-5.442-0.119
			c-9.395,1.577-15.489,11.927-13.611,23.117c1.879,11.19,11.018,18.983,20.413,17.406c1.842-0.309,3.552-0.966,5.105-1.89
			c1.77,0.366,3.6,0.428,5.442,0.119c9.395-1.577,15.489-11.927,13.611-23.117C121.56,106.744,112.421,98.951,103.025,100.528z"/>
		<path class="st6" d="M53.819,104.851c0,0,19.952-9.502,19.952-33.225S60.532,36.967,60.532,36.967l-6.714-3.938h6.714h8.286
			l-8.286,3.938c0,0,26.524,4.507,37.524,23.847s-0.136,41.604-0.136,41.604"/>
	</g>
</g>
</svg>
