<?xml version="1.0" encoding="utf-8"?>
<!-- Generator: Adobe Illustrator 22.0.0, SVG Export Plug-In . SVG Version: 6.00 Build 0)  -->
<svg version="1.1" id="Layer_1" xmlns="http://www.w3.org/2000/svg" xmlns:xlink="http://www.w3.org/1999/xlink" x="0px" y="0px"
	 viewBox="0 0 24 24" style="enable-background:new 0 0 24 24;" xml:space="preserve">
<style type="text/css">
	.st0{fill:#B6AABF;}
	.st1{fill:#3B7FC2;}
</style>
<path class="st0" d="M12,2c5.51402,0,10,4.48598,10,10s-4.48598,10-10,10S2,17.51402,2,12S6.48598,2,12,2 M12,0
	C5.37258,0,0,5.37258,0,12s5.37258,12,12,12s12-5.37258,12-12S18.62742,0,12,0L12,0z"/>
<g>
	<path class="st1" d="M8.69922,11.75293c0-0.72217,0.05859-1.33887,0.17383-1.85059C8.98926,9.39111,9.1416,8.96143,9.33105,8.61328
		S9.73242,7.98584,9.96973,7.7749c0.23633-0.21045,0.47656-0.36914,0.72168-0.47705
		c0.24512-0.10742,0.48145-0.17822,0.70898-0.21289C11.62793,7.05078,11.82812,7.03369,12,7.03369s0.37207,0.01709,0.59961,0.05127
		c0.22754,0.03467,0.46484,0.10547,0.70898,0.21289c0.24512,0.10791,0.48633,0.2666,0.72266,0.47705
		c0.23633,0.21094,0.44922,0.49023,0.6377,0.83838c0.18945,0.34814,0.3418,0.77783,0.45801,1.28906
		c0.11621,0.51172,0.17383,1.12842,0.17383,1.85059s-0.05762,1.33887-0.17383,1.84961
		c-0.11621,0.51172-0.26855,0.94141-0.45801,1.29004c-0.18848,0.34766-0.40137,0.62793-0.6377,0.83789
		c-0.23633,0.21094-0.47754,0.37012-0.72266,0.47754c-0.24414,0.10742-0.48145,0.17773-0.70898,0.21289
		C12.37207,16.45508,12.17188,16.47168,12,16.47168s-0.37207-0.0166-0.59961-0.05078
		c-0.22754-0.03516-0.46387-0.10547-0.70898-0.21289s-0.48535-0.2666-0.72168-0.47754
		c-0.2373-0.20996-0.44922-0.49023-0.63867-0.83789c-0.18945-0.34863-0.3418-0.77832-0.45801-1.29004
		C8.75781,13.0918,8.69922,12.4751,8.69922,11.75293z M10.24707,11.75293c0,0.28369,0.01855,0.6123,0.05762,0.98633
		s0.11816,0.72852,0.23828,1.06348s0.29688,0.61914,0.5293,0.85059c0.23145,0.23242,0.54102,0.34863,0.92773,0.34863
		s0.69629-0.11621,0.92871-0.34863c0.23242-0.23145,0.4082-0.51562,0.52832-0.85059s0.2002-0.68945,0.23926-1.06348
		c0.03809-0.37402,0.05762-0.70264,0.05762-0.98633s-0.01953-0.6123-0.05762-0.98633
		c-0.03906-0.37402-0.11914-0.72852-0.23926-1.06396c-0.12012-0.33496-0.2959-0.61865-0.52832-0.85107
		C12.69629,8.61963,12.38672,8.50342,12,8.50342s-0.69629,0.11621-0.92773,0.34814c-0.23242,0.23242-0.40918,0.51611-0.5293,0.85107
		c-0.12012,0.33545-0.19922,0.68994-0.23828,1.06396S10.24707,11.46924,10.24707,11.75293z"/>
</g>
</svg>
