<?xml version="1.0" encoding="utf-8"?>
<!-- Generator: Adobe Illustrator 22.0.0, SVG Export Plug-In . SVG Version: 6.00 Build 0)  -->
<svg version="1.1" id="Layer_1" xmlns="http://www.w3.org/2000/svg" xmlns:xlink="http://www.w3.org/1999/xlink" x="0px" y="0px"
	 viewBox="0 0 24 24" style="enable-background:new 0 0 24 24;" xml:space="preserve">
<style type="text/css">
	.st0{fill:#B6AABF;}
	.st1{fill:#3B7FC2;}
</style>
<path class="st0" d="M5.85551,19.24504c-0.37768,0.07412-0.72716,0.29221-0.95851,0.63653
	c-0.46053,0.68539-0.27943,1.61233,0.40375,2.07433c0.01991,0.0134,0.03938,0.02641,0.05936,0.03969
	c0.34128,0.22546,0.74093,0.2931,1.11298,0.22011c0.37793-0.07415,0.72739-0.2935,0.95784-0.63987
	c0.4589-0.68972,0.27263-1.62212-0.41604-2.08259l-0.03437-0.02298C6.6367,19.24037,6.23209,19.17114,5.85551,19.24504
	L5.85551,19.24504z M9.63934,20.82442c-0.57891,0.11362-1.06137,0.56441-1.18534,1.17809
	c-0.16354,0.80955,0.35844,1.59696,1.16661,1.76243c0.00224,0.00045,0.0042,0.00085,0.00644,0.0013
	c0.0003,0.00006,0.00062,0.00013,0.00092,0.00019c0.00169,0.00034,0.00338,0.00068,0.00507,0.00103
	c0.01456,0.00293,0.02923,0.00586,0.04381,0.00874c0.0017,0.00034,0.0034,0.00067,0.0051,0.00101
	c0.0003,0.00006,0.00058,0.00011,0.00088,0.00017c0.00187,0.00037,0.0041,0.00081,0.00596,0.00117
	c0.19578,0.03815,0.38998,0.03632,0.57433,0.00015c0.57834-0.11347,1.05883-0.56495,1.18002-1.17954
	c0.16029-0.81277-0.36836-1.60312-1.18077-1.76528l-0.0404-0.00806C10.02355,20.78621,9.82645,20.7877,9.63934,20.82442
	L9.63934,20.82442z M13.77732,20.82277c-0.00114,0.00022-0.00229,0.00045-0.00343,0.00068l-0.04084,0.00811
	c-0.81256,0.16135-1.34195,0.95115-1.18243,1.76408c0.15901,0.81029,0.94241,1.33772,1.75217,1.18133
	c0.00238-0.00047,0.00508-0.00099,0.00746-0.00146c0.00317-0.00062,0.00589-0.00116,0.00906-0.00178
	c0.0004-0.00008,0.00079-0.00016,0.00119-0.00023c0.00238-0.00047,0.00562-0.00111,0.008-0.00158
	c0.0004-0.00008,0.0008-0.00016,0.00121-0.00024c0.01507-0.00298,0.02945-0.00586,0.0445-0.00889
	c0.80724-0.16553,1.32897-0.9518,1.16642-1.76087C15.37768,21.19085,14.58869,20.66358,13.77732,20.82277L13.77732,20.82277z
	 M17.56058,19.25113c-0.18928,0.03714-0.37451,0.11156-0.54477,0.22535l-0.03424,0.02289
	c-0.68876,0.46033-0.87521,1.39272-0.41647,2.08254c0.34554,0.51959,0.95853,0.75334,1.5344,0.64036
	c0.18698-0.03668,0.37004-0.10992,0.53875-0.22181c0.00095-0.00063,0.00182-0.00121,0.00277-0.00184
	c0.00059-0.00039,0.00122-0.00081,0.00181-0.00121c0.00922-0.00613,0.01843-0.01227,0.02764-0.01843
	c0.00063-0.00042,0.00124-0.00083,0.00187-0.00125c0.00107-0.00072,0.00214-0.00143,0.00321-0.00215
	c0.00696-0.00466,0.01361-0.00912,0.02056-0.0138c0.68255-0.46207,0.86341-1.38845,0.40318-2.07362
	C18.75155,19.37044,18.13702,19.13801,17.56058,19.25113L17.56058,19.25113z"/>
<g>
	<path class="st1" d="M12.50293,14.45996H8.62207v-1.53369l3.6748-5.73779h1.75391v5.87891h1.32812v1.39258h-1.32812v1.85742
		h-1.54785V14.45996z M12.50293,9.38037h-0.02539l-2.28223,3.68701h2.30762V9.38037z"/>
</g>
</svg>
