<?xml version="1.0" encoding="utf-8"?>
<!-- Generator: Adobe Illustrator 22.0.0, SVG Export Plug-In . SVG Version: 6.00 Build 0)  -->
<svg version="1.1" id="Layer_1" xmlns="http://www.w3.org/2000/svg" xmlns:xlink="http://www.w3.org/1999/xlink" x="0px" y="0px"
	 viewBox="0 0 24 24" style="enable-background:new 0 0 24 24;" xml:space="preserve">
<style type="text/css">
	.st0{fill:#B6AABF;}
	.st1{fill:#3B7FC2;}
</style>
<path class="st0" d="M9.68974,0.22449c-0.00278,0.00055-0.0054,0.00106-0.00818,0.00161
	C9.6804,0.22632,9.67925,0.22655,9.67809,0.22678C9.6769,0.22701,9.67527,0.22733,9.67408,0.22757
	C9.6681,0.22875,9.66212,0.22994,9.65614,0.23113c-0.0004,0.00008,0,0-0.00039,0.00008
	c-0.00205,0.00041-0.0041,0.00082-0.00616,0.00123c-0.00753,0.0015-0.01498,0.003-0.0225,0.00452
	C8.81941,0.40212,8.29722,1.18861,8.45978,1.99793c0.16292,0.81112,0.95187,1.3384,1.7633,1.1792
	c0.00109-0.00021,0.0023-0.00045,0.00339-0.00067l0.04084-0.0081c0.81257-0.16132,1.342-0.9511,1.18251-1.76404
	c-0.15898-0.81034-0.94235-1.33784-1.75217-1.18139C9.69486,0.22348,9.69252,0.22394,9.68974,0.22449L9.68974,0.22449z
	 M5.90085,1.7775c-0.18623,0.03655-0.36866,0.10937-0.5368,0.22052C5.36183,1.99949,5.35961,2.00097,5.35739,2.00245
	C5.35655,2.00301,5.35571,2.00357,5.35486,2.00412C5.34282,2.01214,5.33059,2.02031,5.31858,2.02836
	c-0.00025,0.00017-0.00049,0.00033-0.00074,0.0005C5.31341,2.03183,5.30955,2.03442,5.30513,2.0374
	c-0.68329,0.46185-0.86451,1.38868-0.4041,2.07417c0.34772,0.51771,0.9623,0.75015,1.53875,0.63706
	C6.62906,4.71149,6.81423,4.6371,6.98449,4.52331l0.03425-0.02289C7.7075,4.04012,7.894,3.10775,7.43529,2.41792
	C7.08974,1.89827,6.47676,1.66445,5.90085,1.7775L5.90085,1.7775z M2.9957,4.67015c-0.37411,0.07341-0.7203,0.289-0.9509,0.62955
	c-0.00754,0.0112-0.01473,0.02192-0.02223,0.03314C2.01812,5.33951,2.01366,5.3462,2.00922,5.35288
	c-0.00053,0.0008-0.00103,0.00154-0.00156,0.00234C2.00724,5.35585,2.0068,5.35651,2.00639,5.35713
	c-0.45685,0.68823-0.27039,1.61564,0.41788,2.0736c0.34334,0.22844,0.74669,0.29701,1.12217,0.22334
	c0.37879-0.07432,0.72917-0.2935,0.96043-0.63935l0.02298-0.03437c0.46048-0.68866,0.27634-1.62148-0.41126-2.08353
	C3.77528,4.66615,3.37142,4.59642,2.9957,4.67015L2.9957,4.67015z M1.41299,8.45161C0.83864,8.56431,0.36061,9.01027,0.23541,9.6189
	c-0.00219,0.01082-0.00433,0.02144-0.0065,0.03228C0.22875,9.65199,0.22858,9.6528,0.22842,9.65362
	c-0.00045,0.00224-0.00087,0.00436-0.00132,0.0066C0.22694,9.66104,0.22678,9.66185,0.22662,9.66267
	C0.2261,9.66529,0.22566,9.66748,0.22514,9.6701C0.22509,9.67038,0.22503,9.67066,0.22498,9.67094
	C0.22364,9.67766,0.22248,9.68354,0.22116,9.69027c-0.15683,0.8094,0.36975,1.59293,1.17969,1.75268
	c0.19734,0.03892,0.39327,0.03723,0.5793,0.00073c0.58016-0.11382,1.0632-0.56632,1.18599-1.18147l0.00806-0.0404
	c0.16217-0.8124-0.36463-1.60396-1.17665-1.76801C1.79837,8.41356,1.60056,8.41481,1.41299,8.45161L1.41299,8.45161z
	 M1.40435,12.55041c-0.8103,0.15899-1.33771,0.9425-1.18135,1.75227c0.00047,0.00238,0.00102,0.00519,0.00148,0.00758
	c0.00055,0.00278,0.00115,0.00585,0.0017,0.00862c0.00015,0.00077,0.0003,0.00155,0.00046,0.00232
	c0.00039,0.00198,0.00079,0.00402,0.00119,0.00601c0.00021,0.00105,0.00042,0.00211,0.00063,0.00316
	c0.00047,0.00238,0.00099,0.00501,0.00147,0.00739c0.00023,0.00117,0.00046,0.00234,0.0007,0.0035
	c0.00039,0.00198,0.00075,0.00375,0.00114,0.00574c0.00013,0.00067,0.00027,0.00133,0.0004,0.002
	c0.00158,0.00793,0.00333,0.01666,0.00493,0.02458c0.16492,0.80518,0.9473,1.32647,1.75413,1.16818
	c0.00223-0.00044,0.00456-0.0009,0.00679-0.00135c0.81221-0.16315,1.33984-0.95414,1.17851-1.7667L3.1684,13.73288
	C3.00707,12.92031,2.21727,12.3909,1.40435,12.55041L1.40435,12.55041z M2.95989,16.34149
	c-0.1882,0.03692-0.37237,0.11069-0.54188,0.22341c-0.68748,0.45717-0.87461,1.3826-0.42026,2.07064
	c0.00295,0.00444,0.00588,0.00886,0.00884,0.01329c0.00879,0.0132,0.0176,0.02637,0.02645,0.03954
	c0.00048,0.00071,0.00095,0.00141,0.00142,0.00212c0.00064,0.00095,0.00126,0.00187,0.00189,0.00282
	c0.34663,0.51435,0.95639,0.74495,1.5292,0.63257c0.18974-0.03723,0.37545-0.1121,0.54616-0.22676
	c0.68769-0.4619,0.87202-1.39471,0.4117-2.08347l-0.02287-0.03424C4.15333,16.4619,3.53757,16.22815,2.95989,16.34149
	L2.95989,16.34149z M5.85551,19.24504c-0.37768,0.07412-0.72716,0.29221-0.95851,0.63653
	c-0.46053,0.68539-0.27943,1.61233,0.40375,2.07433c0.01991,0.0134,0.03938,0.02641,0.05936,0.03969
	c0.34128,0.22546,0.74093,0.2931,1.11298,0.22011c0.37793-0.07415,0.72739-0.2935,0.95784-0.63987
	c0.4589-0.68972,0.27263-1.62212-0.41604-2.08259l-0.03437-0.02298C6.6367,19.24037,6.23209,19.17114,5.85551,19.24504
	L5.85551,19.24504z M9.63934,20.82442c-0.57891,0.11362-1.06137,0.56441-1.18534,1.17809
	c-0.16354,0.80955,0.35844,1.59696,1.16661,1.76243c0.00224,0.00045,0.0042,0.00085,0.00644,0.0013
	c0.0003,0.00006,0.00062,0.00013,0.00092,0.00019c0.00169,0.00034,0.00338,0.00068,0.00507,0.00103
	c0.01456,0.00293,0.02923,0.00586,0.04381,0.00874c0.0017,0.00034,0.0034,0.00067,0.0051,0.00101
	c0.0003,0.00006,0.00058,0.00011,0.00088,0.00017c0.00187,0.00037,0.0041,0.00081,0.00596,0.00117
	c0.19578,0.03815,0.38998,0.03632,0.57433,0.00015c0.57834-0.11347,1.05883-0.56495,1.18002-1.17954
	c0.16029-0.81277-0.36836-1.60312-1.18077-1.76528l-0.0404-0.00806C10.02355,20.78621,9.82645,20.7877,9.63934,20.82442
	L9.63934,20.82442z M13.77732,20.82277c-0.00114,0.00022-0.00229,0.00045-0.00343,0.00068l-0.04084,0.00811
	c-0.81256,0.16135-1.34195,0.95115-1.18243,1.76408c0.15901,0.81029,0.94241,1.33772,1.75217,1.18133
	c0.00238-0.00047,0.00508-0.00099,0.00746-0.00146c0.00317-0.00062,0.00589-0.00116,0.00906-0.00178
	c0.0004-0.00008,0.00079-0.00016,0.00119-0.00023c0.00238-0.00047,0.00562-0.00111,0.008-0.00158
	c0.0004-0.00008,0.0008-0.00016,0.00121-0.00024c0.01507-0.00298,0.02945-0.00586,0.0445-0.00889
	c0.80724-0.16553,1.32897-0.9518,1.16642-1.76087C15.37768,21.19085,14.58869,20.66358,13.77732,20.82277L13.77732,20.82277z
	 M17.56058,19.25113c-0.18928,0.03714-0.37451,0.11156-0.54477,0.22535l-0.03424,0.02289
	c-0.68876,0.46033-0.87521,1.39272-0.41647,2.08254c0.34554,0.51959,0.95853,0.75334,1.5344,0.64036
	c0.18698-0.03668,0.37004-0.10992,0.53875-0.22181c0.00095-0.00063,0.00182-0.00121,0.00277-0.00184
	c0.00059-0.00039,0.00122-0.00081,0.00181-0.00121c0.00922-0.00613,0.01843-0.01227,0.02764-0.01843
	c0.00063-0.00042,0.00124-0.00083,0.00187-0.00125c0.00107-0.00072,0.00214-0.00143,0.00321-0.00215
	c0.00696-0.00466,0.01361-0.00912,0.02056-0.0138c0.68255-0.46207,0.86341-1.38845,0.40318-2.07362
	C18.75155,19.37044,18.13702,19.13801,17.56058,19.25113L17.56058,19.25113z M20.45381,16.34556
	c-0.37883,0.07434-0.7292,0.29351-0.96046,0.63941l-0.02297,0.03435c-0.46045,0.68869-0.27628,1.6215,0.41134,2.08352
	c0.34331,0.23067,0.7471,0.30037,1.12282,0.22665c0.37531-0.07363,0.72255-0.29041,0.95312-0.63285
	c0.00021-0.00031,0.00036-0.00055,0.00057-0.00086c0.00076-0.00113,0.00149-0.00222,0.00225-0.00336
	c0.00242-0.00359,0.00483-0.00719,0.00724-0.01079c0.00042-0.00062,0.00077-0.00115,0.00119-0.00177
	c0.00062-0.00093,0.00124-0.00185,0.00186-0.00278c0.00292-0.00436,0.00616-0.0092,0.00907-0.01357
	c0.00118-0.00176,0.00235-0.00353,0.00353-0.00529l0.00006-0.0001c0.00254-0.00381,0.00508-0.00762,0.00761-0.01143
	c0.00022-0.00034,0.00042-0.00064,0.00065-0.00097c0.00104-0.00156,0.00196-0.00295,0.003-0.00451
	c0.45586-0.68813,0.26912-1.61468-0.41879-2.07235C21.23261,16.34047,20.82923,16.27189,20.45381,16.34556L20.45381,16.34556z
	 M22.01992,12.5559c-0.58014,0.11387-1.06322,0.56637-1.18599,1.18153l-0.00806,0.0404
	c-0.16215,0.8124,0.3647,1.60395,1.17672,1.76796c0.19919,0.04023,0.39693,0.03898,0.58451,0.00218
	c0.57435-0.11268,1.05244-0.55883,1.17762-1.16748c0.0022-0.01082,0.00427-0.02113,0.00643-0.03196
	c0.00015-0.00074,0.0003-0.00148,0.00044-0.00222c0.0003-0.00149,0.0006-0.00298,0.00089-0.00447
	c0.0016-0.00801,0.00319-0.01602,0.00476-0.02404c0.00008-0.0004,0.00015-0.00076,0.00023-0.00116
	c0.00037-0.00187,0.00063-0.00317,0.00099-0.00504c0.15821-0.81019-0.36861-1.59512-1.17931-1.75498
	C22.40183,12.51771,22.20595,12.51939,22.01992,12.5559L22.01992,12.5559z M22.0087,8.4578
	c-0.00228,0.00045-0.00457,0.0009-0.00685,0.00136c-0.81219,0.16319-1.33979,0.9542-1.17843,1.76676l0.00811,0.04083
	c0.16137,0.81256,0.95118,1.34194,1.76411,1.1824l0,0c0.81028-0.15903,1.33768-0.94252,1.18127-1.75228
	c-0.00047-0.00238-0.00093-0.00476-0.0014-0.00714c-0.00062-0.00318-0.00124-0.00633-0.00187-0.00951
	c0-0.00002-0.00001-0.00003-0.00001-0.00005c-0.0036-0.01825-0.00727-0.03667-0.01095-0.05489
	C23.59747,8.8205,22.81526,8.29955,22.0087,8.4578L22.0087,8.4578z M20.43419,4.67375
	C20.24446,4.71098,20.0587,4.78587,19.888,4.90054c-0.68768,0.46195-0.87197,1.39476-0.41161,2.0835l0.02289,0.03423
	c0.34722,0.5195,0.96292,0.75321,1.5406,0.63988c0.1882-0.03692,0.37243-0.11072,0.54193-0.22345
	c0.68762-0.45731,0.87466-1.38304,0.41986-2.07111c-0.00168-0.00254-0.00313-0.00471-0.00482-0.00725
	c-0.00042-0.00063-0.00084-0.00126-0.00126-0.00189c-0.00084-0.00127-0.00188-0.00282-0.00272-0.00409
	c-0.00106-0.0016-0.00213-0.00319-0.00319-0.00479l-0.0001-0.00015C21.98197,5.334,21.97434,5.3226,21.96669,5.31122
	c-0.00031-0.00046-0.00064-0.00095-0.00094-0.00141c-0.00106-0.00158-0.00207-0.00309-0.00314-0.00467
	C21.61582,4.7916,21.00657,4.56142,20.43419,4.67375L20.43419,4.67375z M17.52655,1.78406
	c-0.37797,0.07417-0.72741,0.2935-0.95788,0.63992c-0.45886,0.68973-0.27256,1.62213,0.41614,2.08257l0.03436,0.02298
	c0.3438,0.22985,0.74843,0.29906,1.12496,0.22519c0.37773-0.07411,0.72718-0.29221,0.95855-0.63658
	c0.46014-0.68486,0.2797-1.61084-0.40216-2.07319c-0.00902-0.00607-0.0185-0.01243-0.02753-0.01848
	c-0.00654-0.00438-0.01309-0.00875-0.01964-0.01312c-0.00468-0.00312-0.00937-0.00624-0.01405-0.00935
	C18.29807,1.77865,17.89851,1.71107,17.52655,1.78406L17.52655,1.78406z M13.73645,0.22121
	c-0.57839,0.11348-1.05887,0.56496-1.18005,1.1796c-0.16024,0.81278,0.36843,1.60309,1.18084,1.76522l0.0404,0.00806
	c0.19839,0.03959,0.39553,0.0381,0.5826,0.0014c0.57897-0.11359,1.06139-0.56442,1.18534-1.17815
	c0.16342-0.80916-0.35799-1.59616-1.1655-1.76214c-0.00784-0.00159-0.01534-0.0031-0.02318-0.00468
	c-0.00065-0.00013-0.0013-0.00026-0.00194-0.00039c-0.00224-0.00045-0.00362-0.00072-0.00586-0.00117
	c-0.00098-0.0002-0.00196-0.00039-0.00294-0.00059c-0.0127-0.00254-0.02524-0.00502-0.03795-0.00751
	C14.11334,0.18324,13.91996,0.18521,13.73645,0.22121L13.73645,0.22121z"/>
<g>
	<path class="st1" d="M8.14453,8.96777l-1.71484,1.58594L5.52637,9.4834l2.76074-2.29492h1.4043v9.12891H8.14453V8.96777z"/>
	<path class="st1" d="M17.3125,7.18848l-2.19238,3.37793l0.02637,0.02588c0.09473-0.05127,0.2207-0.09033,0.37988-0.11572
		c0.15918-0.02588,0.31641-0.03906,0.4707-0.03906c0.4043,0,0.77344,0.07764,1.10938,0.23242
		c0.33496,0.15479,0.625,0.36523,0.87012,0.63184c0.24512,0.26611,0.43359,0.57568,0.56738,0.92822
		c0.13281,0.35254,0.2002,0.72656,0.2002,1.12158c0,0.47266-0.08203,0.90234-0.24512,1.28906
		c-0.16406,0.38672-0.38965,0.71582-0.67676,0.9873c-0.28906,0.27051-0.63184,0.47852-1.03223,0.625
		c-0.39941,0.14648-0.83105,0.21875-1.2959,0.21875c-0.48145,0-0.91992-0.07031-1.31543-0.21289
		c-0.39453-0.14062-0.73633-0.3457-1.02441-0.61133c-0.28809-0.26758-0.51172-0.59375-0.6709-0.98047
		s-0.23828-0.82129-0.23828-1.30273c0-0.48096,0.0791-0.91699,0.23828-1.30859c0.15918-0.39062,0.36328-0.78857,0.6123-1.19238
		l2.33398-3.6748H17.3125z M13.87012,13.33887c0,0.23145,0.04297,0.44922,0.12891,0.65137
		c0.08594,0.20117,0.2041,0.37793,0.35449,0.52832s0.32617,0.26855,0.52832,0.35449s0.41895,0.12891,0.65137,0.12891
		s0.44922-0.04297,0.65137-0.12891c0.20117-0.08594,0.37793-0.2041,0.52832-0.35449s0.26855-0.32715,0.35449-0.52832
		c0.08594-0.20215,0.12891-0.41992,0.12891-0.65137c0-0.23242-0.04297-0.44922-0.12891-0.65137
		c-0.08594-0.20166-0.2041-0.37793-0.35449-0.52832s-0.32715-0.26855-0.52832-0.35498
		c-0.20215-0.08545-0.41895-0.12891-0.65137-0.12891s-0.44922,0.04346-0.65137,0.12891
		c-0.20215,0.08643-0.37793,0.20459-0.52832,0.35498s-0.26855,0.32666-0.35449,0.52832
		C13.91309,12.88965,13.87012,13.10645,13.87012,13.33887z"/>
</g>
</svg>
