<?xml version="1.0" encoding="utf-8"?>
<!-- Generator: Adobe Illustrator 22.0.0, SVG Export Plug-In . SVG Version: 6.00 Build 0)  -->
<svg version="1.1" id="Layer_1" xmlns="http://www.w3.org/2000/svg" xmlns:xlink="http://www.w3.org/1999/xlink" x="0px" y="0px"
	 viewBox="0 0 24 24" style="enable-background:new 0 0 24 24;" xml:space="preserve">
<style type="text/css">
	.st0{fill:#3B7FC2;}
	.st1{fill:#B6AABF;}
</style>
<g>
	<path class="st0" d="M8.11279,9.07714l-1.729,1.59912l-0.90967-1.0791l2.78174-2.31397h1.41699v9.2041H8.11279V9.07714z"/>
	<path class="st0" d="M17.35547,7.28319l-2.20996,3.40625l0.02637,0.02588c0.09473-0.05225,0.22266-0.09082,0.38379-0.11719
		c0.16016-0.02588,0.31836-0.03906,0.47461-0.03906c0.40723,0,0.7793,0.07812,1.11719,0.23438
		c0.33789,0.15576,0.63086,0.36816,0.87793,0.63672c0.24707,0.26904,0.4375,0.58154,0.57227,0.93604
		c0.13379,0.35547,0.20117,0.73242,0.20117,1.13086c0,0.47754-0.08203,0.91016-0.24707,1.30078
		c-0.16504,0.38965-0.39258,0.72168-0.68262,0.99414c-0.29004,0.27344-0.63672,0.4834-1.04004,0.63086
		c-0.40234,0.14648-0.83789,0.2207-1.30664,0.2207c-0.48535,0-0.92676-0.07129-1.3252-0.21484
		c-0.39941-0.14258-0.74414-0.34863-1.03418-0.61719c-0.29004-0.26856-0.51562-0.59766-0.67578-0.98828
		c-0.16113-0.38965-0.24121-0.82715-0.24121-1.3125s0.08008-0.9248,0.24121-1.31934
		c0.16016-0.39502,0.36621-0.79541,0.61719-1.20312l2.35352-3.70508C15.45802,7.28319,17.35547,7.28319,17.35547,7.28319z
		 M13.88477,13.48437c0,0.23438,0.04297,0.45312,0.12988,0.65625c0.08691,0.2041,0.20605,0.38184,0.35742,0.5332
		c0.15137,0.15234,0.3291,0.27148,0.5332,0.35742c0.20312,0.08691,0.42285,0.12988,0.65625,0.12988
		c0.23438,0,0.45312-0.04297,0.65723-0.12988c0.20312-0.08594,0.38086-0.20508,0.53223-0.35742
		c0.15234-0.15137,0.27148-0.3291,0.35742-0.5332c0.08691-0.20312,0.13086-0.42188,0.13086-0.65625
		c0-0.2334-0.04395-0.45215-0.13086-0.65625c-0.08594-0.20312-0.20508-0.38086-0.35742-0.5332
		c-0.15137-0.15137-0.3291-0.27051-0.53223-0.35742c-0.2041-0.08691-0.42285-0.13037-0.65723-0.13037
		c-0.2334,0-0.45312,0.04346-0.65625,0.13037c-0.2041,0.08691-0.38184,0.20605-0.5332,0.35742
		c-0.15137,0.15234-0.27051,0.33008-0.35742,0.5332C13.92773,13.03222,13.88477,13.25097,13.88477,13.48437z"/>
</g>
<circle class="st1" cx="9.9479" cy="1.6984" r="1.52388"/>
<circle class="st1" cx="14.05166" cy="1.6984" r="1.52388"/>
<circle class="st1" cx="17.83379" cy="3.26311" r="1.52388"/>
<circle class="st1" cx="20.7304" cy="6.16219" r="1.52388"/>
<circle class="st1" cx="22.30154" cy="9.95349" r="1.52388"/>
<circle class="st1" cx="6.1624" cy="3.26946" r="1.52388"/>
<circle class="st1" cx="3.26325" cy="6.16219" r="1.52388"/>
<circle class="st1" cx="1.69853" cy="9.94769" r="1.52388"/>
<circle class="st1" cx="1.69853" cy="14.05186" r="1.52388"/>
<circle class="st1" cx="22.30154" cy="14.04605" r="1.52388"/>
<circle class="st1" cx="20.73652" cy="17.8336" r="1.52388"/>
<circle class="st1" cx="17.83379" cy="20.73026" r="1.52388"/>
<circle class="st1" cx="14.05166" cy="22.30148" r="1.52388"/>
<circle class="st1" cx="9.95415" cy="22.30148" r="1.52388"/>
<circle class="st1" cx="6.16655" cy="20.73026" r="1.52388"/>
<circle class="st1" cx="3.26986" cy="17.83742" r="1.52388"/>
</svg>
