<?xml version="1.0" encoding="utf-8"?>
<!-- Generator: Adobe Illustrator 22.0.0, SVG Export Plug-In . SVG Version: 6.00 Build 0)  -->
<svg version="1.1" id="Layer_1" xmlns="http://www.w3.org/2000/svg" xmlns:xlink="http://www.w3.org/1999/xlink" x="0px" y="0px"
	 viewBox="0 0 24 24" style="enable-background:new 0 0 24 24;" xml:space="preserve">
<style type="text/css">
	.st0{fill:#B6AABF;}
	.st1{fill:#3B7FC2;}
</style>
<path class="st0" d="M2.95989,16.34149c-0.1882,0.03692-0.37237,0.11069-0.54188,0.22341
	c-0.68748,0.45717-0.87461,1.3826-0.42026,2.07064c0.00295,0.00444,0.00588,0.00886,0.00884,0.01329
	c0.00879,0.0132,0.0176,0.02637,0.02645,0.03954c0.00048,0.00071,0.00095,0.00141,0.00142,0.00212
	c0.00064,0.00095,0.00126,0.00187,0.00189,0.00282c0.34663,0.51435,0.95639,0.74495,1.5292,0.63257
	c0.18974-0.03723,0.37545-0.1121,0.54616-0.22676c0.68769-0.4619,0.87202-1.39471,0.4117-2.08347l-0.02287-0.03424
	C4.15333,16.4619,3.53757,16.22815,2.95989,16.34149L2.95989,16.34149z M5.85551,19.24504
	c-0.37768,0.07412-0.72716,0.29221-0.95851,0.63653c-0.46053,0.68539-0.27943,1.61233,0.40375,2.07433
	c0.01991,0.0134,0.03938,0.02641,0.05936,0.03969c0.34128,0.22546,0.74093,0.2931,1.11298,0.22011
	c0.37793-0.07415,0.72739-0.2935,0.95784-0.63987c0.4589-0.68972,0.27263-1.62212-0.41604-2.08259l-0.03437-0.02298
	C6.6367,19.24037,6.23209,19.17114,5.85551,19.24504L5.85551,19.24504z M9.63934,20.82442
	c-0.57891,0.11362-1.06137,0.56441-1.18534,1.17809c-0.16354,0.80955,0.35844,1.59696,1.16661,1.76243
	c0.00224,0.00045,0.0042,0.00085,0.00644,0.0013c0.0003,0.00006,0.00062,0.00013,0.00092,0.00019
	c0.00169,0.00034,0.00338,0.00068,0.00507,0.00103c0.01456,0.00293,0.02923,0.00586,0.04381,0.00874
	c0.0017,0.00034,0.0034,0.00067,0.0051,0.00101c0.0003,0.00006,0.00058,0.00011,0.00088,0.00017
	c0.00187,0.00037,0.0041,0.00081,0.00596,0.00117c0.19578,0.03815,0.38998,0.03632,0.57433,0.00015
	c0.57834-0.11347,1.05883-0.56495,1.18002-1.17954c0.16029-0.81277-0.36836-1.60312-1.18077-1.76528l-0.0404-0.00806
	C10.02355,20.78621,9.82645,20.7877,9.63934,20.82442L9.63934,20.82442z M13.77732,20.82277
	c-0.00114,0.00022-0.00229,0.00045-0.00343,0.00068l-0.04084,0.00811c-0.81256,0.16135-1.34195,0.95115-1.18243,1.76408
	c0.15901,0.81029,0.94241,1.33772,1.75217,1.18133c0.00238-0.00047,0.00508-0.00099,0.00746-0.00146
	c0.00317-0.00062,0.00589-0.00116,0.00906-0.00178c0.0004-0.00008,0.00079-0.00016,0.00119-0.00023
	c0.00238-0.00047,0.00562-0.00111,0.008-0.00158c0.0004-0.00008,0.0008-0.00016,0.00121-0.00024
	c0.01507-0.00298,0.02945-0.00586,0.0445-0.00889c0.80724-0.16553,1.32897-0.9518,1.16642-1.76087
	C15.37768,21.19085,14.58869,20.66358,13.77732,20.82277L13.77732,20.82277z M17.56058,19.25113
	c-0.18928,0.03714-0.37451,0.11156-0.54477,0.22535l-0.03424,0.02289c-0.68876,0.46033-0.87521,1.39272-0.41647,2.08254
	c0.34554,0.51959,0.95853,0.75334,1.5344,0.64036c0.18698-0.03668,0.37004-0.10992,0.53875-0.22181
	c0.00095-0.00063,0.00182-0.00121,0.00277-0.00184c0.00059-0.00039,0.00122-0.00081,0.00181-0.00121
	c0.00922-0.00613,0.01843-0.01227,0.02764-0.01843c0.00063-0.00042,0.00124-0.00083,0.00187-0.00125
	c0.00107-0.00072,0.00214-0.00143,0.00321-0.00215c0.00696-0.00466,0.01361-0.00912,0.02056-0.0138
	c0.68255-0.46207,0.86341-1.38845,0.40318-2.07362C18.75155,19.37044,18.13702,19.13801,17.56058,19.25113L17.56058,19.25113z
	 M20.45381,16.34556c-0.37883,0.07434-0.7292,0.29351-0.96046,0.63941l-0.02297,0.03435
	c-0.46045,0.68869-0.27628,1.6215,0.41134,2.08352c0.34331,0.23067,0.7471,0.30037,1.12282,0.22665
	c0.37531-0.07363,0.72255-0.29041,0.95312-0.63285c0.00021-0.00031,0.00036-0.00055,0.00057-0.00086
	c0.00076-0.00113,0.00149-0.00222,0.00225-0.00336c0.00242-0.00359,0.00483-0.00719,0.00724-0.01079
	c0.00042-0.00062,0.00077-0.00115,0.00119-0.00177c0.00062-0.00093,0.00124-0.00185,0.00186-0.00278
	c0.00292-0.00436,0.00616-0.0092,0.00907-0.01357c0.00118-0.00176,0.00235-0.00353,0.00353-0.00529l0.00006-0.0001
	c0.00254-0.00381,0.00508-0.00762,0.00761-0.01143c0.00022-0.00034,0.00042-0.00064,0.00065-0.00097
	c0.00104-0.00156,0.00196-0.00295,0.003-0.00451c0.45586-0.68813,0.26912-1.61468-0.41879-2.07235
	C21.23261,16.34047,20.82923,16.27189,20.45381,16.34556L20.45381,16.34556z M22.01992,12.5559
	c-0.58014,0.11387-1.06322,0.56637-1.18599,1.18153l-0.00806,0.0404c-0.16215,0.8124,0.3647,1.60395,1.17672,1.76796
	c0.19919,0.04023,0.39693,0.03898,0.58451,0.00218c0.57435-0.11268,1.05244-0.55883,1.17762-1.16748
	c0.0022-0.01082,0.00427-0.02113,0.00643-0.03196c0.00015-0.00074,0.0003-0.00148,0.00044-0.00222
	c0.0003-0.00149,0.0006-0.00298,0.00089-0.00447c0.0016-0.00801,0.00319-0.01602,0.00476-0.02404
	c0.00008-0.0004,0.00015-0.00076,0.00023-0.00116c0.00037-0.00187,0.00063-0.00317,0.00099-0.00504
	c0.15821-0.81019-0.36861-1.59512-1.17931-1.75498C22.40183,12.51771,22.20595,12.51939,22.01992,12.5559L22.01992,12.5559z"/>
<g>
	<path class="st1" d="M8.69775,7.2832h6.25342v1.43018l-3.6792,7.77393H9.43896l3.75635-7.72217H8.69775V7.2832z"/>
</g>
</svg>
