<?xml version="1.0" encoding="utf-8"?>
<!-- Generator: Adobe Illustrator 22.0.0, SVG Export Plug-In . SVG Version: 6.00 Build 0)  -->
<svg version="1.1" id="Layer_1" xmlns="http://www.w3.org/2000/svg" xmlns:xlink="http://www.w3.org/1999/xlink" x="0px" y="0px"
	 viewBox="0 0 24 24" style="enable-background:new 0 0 24 24;" xml:space="preserve">
<style type="text/css">
	.st0{fill:#B6AABF;}
	.st1{fill:#3B7FC2;}
</style>
<path class="st0" d="M9.63934,20.82442c-0.57891,0.11362-1.06137,0.56441-1.18534,1.17809
	c-0.16354,0.80955,0.35844,1.59696,1.16661,1.76243c0.00224,0.00045,0.0042,0.00085,0.00644,0.0013
	c0.0003,0.00006,0.00062,0.00013,0.00092,0.00019c0.00169,0.00034,0.00338,0.00068,0.00507,0.00103
	c0.01456,0.00293,0.02923,0.00586,0.04381,0.00874c0.0017,0.00034,0.0034,0.00067,0.0051,0.00101
	c0.0003,0.00006,0.00058,0.00011,0.00088,0.00017c0.00187,0.00037,0.0041,0.00081,0.00596,0.00117
	c0.19578,0.03815,0.38998,0.03632,0.57433,0.00015c0.57834-0.11347,1.05883-0.56495,1.18002-1.17954
	c0.16029-0.81277-0.36836-1.60312-1.18077-1.76528l-0.0404-0.00806C10.02355,20.78621,9.82645,20.7877,9.63934,20.82442
	L9.63934,20.82442z M13.77732,20.82277c-0.00114,0.00022-0.00229,0.00045-0.00343,0.00068l-0.04084,0.00811
	c-0.81256,0.16135-1.34195,0.95115-1.18243,1.76408c0.15901,0.81029,0.94241,1.33772,1.75217,1.18133
	c0.00238-0.00047,0.00508-0.00099,0.00746-0.00146c0.00317-0.00062,0.00589-0.00116,0.00906-0.00178
	c0.0004-0.00008,0.00079-0.00016,0.00119-0.00023c0.00238-0.00047,0.00562-0.00111,0.008-0.00158
	c0.0004-0.00008,0.0008-0.00016,0.00121-0.00024c0.01507-0.00298,0.02945-0.00586,0.0445-0.00889
	c0.80724-0.16553,1.32897-0.9518,1.16642-1.76087C15.37768,21.19085,14.58869,20.66358,13.77732,20.82277L13.77732,20.82277z
	 M17.56058,19.25113c-0.18928,0.03714-0.37451,0.11156-0.54477,0.22535l-0.03424,0.02289
	c-0.68876,0.46033-0.87521,1.39272-0.41647,2.08254c0.34554,0.51959,0.95853,0.75334,1.5344,0.64036
	c0.18698-0.03668,0.37004-0.10992,0.53875-0.22181c0.00095-0.00063,0.00182-0.00121,0.00277-0.00184
	c0.00059-0.00039,0.00122-0.00081,0.00181-0.00121c0.00922-0.00613,0.01843-0.01227,0.02764-0.01843
	c0.00063-0.00042,0.00124-0.00083,0.00187-0.00125c0.00107-0.00072,0.00214-0.00143,0.00321-0.00215
	c0.00696-0.00466,0.01361-0.00912,0.02056-0.0138c0.68255-0.46207,0.86341-1.38845,0.40318-2.07362
	C18.75155,19.37044,18.13702,19.13801,17.56058,19.25113L17.56058,19.25113z"/>
<g>
	<path class="st1" d="M11.03809,10.98828h0.40283c0.2251,0,0.44385-0.01318,0.65674-0.03906s0.40234-0.08203,0.57227-0.16895
		c0.16797-0.08643,0.30469-0.2124,0.4082-0.37695c0.10547-0.16455,0.15625-0.38574,0.15625-0.66309
		c0-0.35498-0.12109-0.64551-0.36328-0.87109c-0.24219-0.2251-0.55859-0.33789-0.94922-0.33789
		c-0.31201,0-0.59131,0.08887-0.83838,0.2666s-0.42725,0.42676-0.53955,0.74756L8.89307,9.10352
		c0.104-0.33838,0.25098-0.63281,0.44189-0.88428c0.19043-0.25098,0.41602-0.45703,0.67578-0.61768
		c0.26025-0.16016,0.5459-0.2793,0.85791-0.35742c0.31201-0.07764,0.63721-0.1167,0.9751-0.1167
		c0.39844,0,0.77539,0.05176,1.13086,0.15576s0.66797,0.2583,0.93555,0.46143c0.26953,0.2041,0.48438,0.45947,0.64453,0.76709
		s0.24023,0.66553,0.24023,1.07275c0,0.49365-0.13867,0.93359-0.41602,1.31934s-0.66211,0.63916-1.15625,0.76025v0.02637
		c0.58789,0.08643,1.03516,0.33789,1.33789,0.75391s0.45508,0.91016,0.45508,1.48242c0,0.44141-0.08398,0.83203-0.25391,1.16992
		c-0.16797,0.33789-0.39648,0.62207-0.68164,0.85156c-0.28711,0.22949-0.61719,0.40234-0.99414,0.51953
		s-0.76953,0.17578-1.17725,0.17578c-0.38135,0-0.74072-0.04102-1.07861-0.12402c-0.33838-0.08203-0.64355-0.20996-0.9165-0.38281
		c-0.27344-0.17383-0.50928-0.39648-0.7085-0.66992C9.00537,15.19434,8.854,14.86719,8.75,14.48535l1.66406-0.44141
		c0.09521,0.38086,0.26416,0.67578,0.50684,0.88379s0.57178,0.31152,0.98779,0.31152c0.2085,0,0.40576-0.03418,0.59131-0.10352
		c0.1875-0.06934,0.35156-0.16699,0.49414-0.29297c0.14258-0.125,0.25586-0.27734,0.33789-0.45508
		c0.08203-0.17676,0.12305-0.37402,0.12305-0.59082c0-0.29492-0.0625-0.53516-0.1875-0.72168s-0.28711-0.3291-0.48047-0.42871
		c-0.19531-0.09961-0.41406-0.16699-0.65723-0.20215c-0.24268-0.03418-0.48096-0.05176-0.71484-0.05176h-0.37695V10.98828z"/>
</g>
</svg>
