<?xml version="1.0" encoding="utf-8"?>
<!-- Generator: Adobe Illustrator 22.0.0, SVG Export Plug-In . SVG Version: 6.00 Build 0)  -->
<svg version="1.1" id="Layer_1" xmlns="http://www.w3.org/2000/svg" xmlns:xlink="http://www.w3.org/1999/xlink" x="0px" y="0px"
	 viewBox="0 0 24 24" style="enable-background:new 0 0 24 24;" xml:space="preserve">
<style type="text/css">
	.st0{fill:#B6AABF;}
	.st1{fill:#3B7FC2;}
</style>
<path class="st0" d="M1.40435,12.55041c-0.8103,0.15899-1.33771,0.9425-1.18135,1.75227
	c0.00047,0.00238,0.00102,0.00519,0.00148,0.00758c0.00055,0.00278,0.00115,0.00585,0.0017,0.00862
	c0.00015,0.00077,0.0003,0.00155,0.00046,0.00232c0.00039,0.00198,0.00079,0.00402,0.00119,0.00601
	c0.00021,0.00105,0.00042,0.00211,0.00063,0.00316c0.00047,0.00238,0.00099,0.00501,0.00147,0.00739
	c0.00023,0.00117,0.00046,0.00234,0.0007,0.0035c0.00039,0.00198,0.00075,0.00375,0.00114,0.00574
	c0.00013,0.00067,0.00027,0.00133,0.0004,0.002c0.00158,0.00793,0.00333,0.01666,0.00493,0.02458
	c0.16492,0.80518,0.9473,1.32647,1.75413,1.16818c0.00223-0.00044,0.00456-0.0009,0.00679-0.00135
	c0.81221-0.16315,1.33984-0.95414,1.17851-1.7667L3.1684,13.73288C3.00707,12.92031,2.21727,12.3909,1.40435,12.55041
	L1.40435,12.55041z M2.95989,16.34149c-0.1882,0.03692-0.37237,0.11069-0.54188,0.22341
	c-0.68748,0.45717-0.87461,1.3826-0.42026,2.07064c0.00295,0.00444,0.00588,0.00886,0.00884,0.01329
	c0.00879,0.0132,0.0176,0.02637,0.02645,0.03954c0.00048,0.00071,0.00095,0.00141,0.00142,0.00212
	c0.00064,0.00095,0.00126,0.00187,0.00189,0.00282c0.34663,0.51435,0.95639,0.74495,1.5292,0.63257
	c0.18974-0.03723,0.37545-0.1121,0.54616-0.22676c0.68769-0.4619,0.87202-1.39471,0.4117-2.08347l-0.02287-0.03424
	C4.15333,16.4619,3.53757,16.22815,2.95989,16.34149L2.95989,16.34149z M5.85551,19.24504
	c-0.37768,0.07412-0.72716,0.29221-0.95851,0.63653c-0.46053,0.68539-0.27943,1.61233,0.40375,2.07433
	c0.01991,0.0134,0.03938,0.02641,0.05936,0.03969c0.34128,0.22546,0.74093,0.2931,1.11298,0.22011
	c0.37793-0.07415,0.72739-0.2935,0.95784-0.63987c0.4589-0.68972,0.27263-1.62212-0.41604-2.08259l-0.03437-0.02298
	C6.6367,19.24037,6.23209,19.17114,5.85551,19.24504L5.85551,19.24504z M9.63934,20.82442
	c-0.57891,0.11362-1.06137,0.56441-1.18534,1.17809c-0.16354,0.80955,0.35844,1.59696,1.16661,1.76243
	c0.00224,0.00045,0.0042,0.00085,0.00644,0.0013c0.0003,0.00006,0.00062,0.00013,0.00092,0.00019
	c0.00169,0.00034,0.00338,0.00068,0.00507,0.00103c0.01456,0.00293,0.02923,0.00586,0.04381,0.00874
	c0.0017,0.00034,0.0034,0.00067,0.0051,0.00101c0.0003,0.00006,0.00058,0.00011,0.00088,0.00017
	c0.00187,0.00037,0.0041,0.00081,0.00596,0.00117c0.19578,0.03815,0.38998,0.03632,0.57433,0.00015
	c0.57834-0.11347,1.05883-0.56495,1.18002-1.17954c0.16029-0.81277-0.36836-1.60312-1.18077-1.76528l-0.0404-0.00806
	C10.02355,20.78621,9.82645,20.7877,9.63934,20.82442L9.63934,20.82442z M13.77732,20.82277
	c-0.00114,0.00022-0.00229,0.00045-0.00343,0.00068l-0.04084,0.00811c-0.81256,0.16135-1.34195,0.95115-1.18243,1.76408
	c0.15901,0.81029,0.94241,1.33772,1.75217,1.18133c0.00238-0.00047,0.00508-0.00099,0.00746-0.00146
	c0.00317-0.00062,0.00589-0.00116,0.00906-0.00178c0.0004-0.00008,0.00079-0.00016,0.00119-0.00023
	c0.00238-0.00047,0.00562-0.00111,0.008-0.00158c0.0004-0.00008,0.0008-0.00016,0.00121-0.00024
	c0.01507-0.00298,0.02945-0.00586,0.0445-0.00889c0.80724-0.16553,1.32897-0.9518,1.16642-1.76087
	C15.37768,21.19085,14.58869,20.66358,13.77732,20.82277L13.77732,20.82277z M17.56058,19.25113
	c-0.18928,0.03714-0.37451,0.11156-0.54477,0.22535l-0.03424,0.02289c-0.68876,0.46033-0.87521,1.39272-0.41647,2.08254
	c0.34554,0.51959,0.95853,0.75334,1.5344,0.64036c0.18698-0.03668,0.37004-0.10992,0.53875-0.22181
	c0.00095-0.00063,0.00182-0.00121,0.00277-0.00184c0.00059-0.00039,0.00122-0.00081,0.00181-0.00121
	c0.00922-0.00613,0.01843-0.01227,0.02764-0.01843c0.00063-0.00042,0.00124-0.00083,0.00187-0.00125
	c0.00107-0.00072,0.00214-0.00143,0.00321-0.00215c0.00696-0.00466,0.01361-0.00912,0.02056-0.0138
	c0.68255-0.46207,0.86341-1.38845,0.40318-2.07362C18.75155,19.37044,18.13702,19.13801,17.56058,19.25113L17.56058,19.25113z
	 M20.45381,16.34556c-0.37883,0.07434-0.7292,0.29351-0.96046,0.63941l-0.02297,0.03435
	c-0.46045,0.68869-0.27628,1.6215,0.41134,2.08352c0.34331,0.23067,0.7471,0.30037,1.12282,0.22665
	c0.37531-0.07363,0.72255-0.29041,0.95312-0.63285c0.00021-0.00031,0.00036-0.00055,0.00057-0.00086
	c0.00076-0.00113,0.00149-0.00222,0.00225-0.00336c0.00242-0.00359,0.00483-0.00719,0.00724-0.01079
	c0.00042-0.00062,0.00077-0.00115,0.00119-0.00177c0.00062-0.00093,0.00124-0.00185,0.00186-0.00278
	c0.00292-0.00436,0.00616-0.0092,0.00907-0.01357c0.00118-0.00176,0.00235-0.00353,0.00353-0.00529l0.00006-0.0001
	c0.00254-0.00381,0.00508-0.00762,0.00761-0.01143c0.00022-0.00034,0.00042-0.00064,0.00065-0.00097
	c0.00104-0.00156,0.00196-0.00295,0.003-0.00451c0.45586-0.68813,0.26912-1.61468-0.41879-2.07235
	C21.23261,16.34047,20.82923,16.27189,20.45381,16.34556L20.45381,16.34556z M22.01992,12.5559
	c-0.58014,0.11387-1.06322,0.56637-1.18599,1.18153l-0.00806,0.0404c-0.16215,0.8124,0.3647,1.60395,1.17672,1.76796
	c0.19919,0.04023,0.39693,0.03898,0.58451,0.00218c0.57435-0.11268,1.05244-0.55883,1.17762-1.16748
	c0.0022-0.01082,0.00427-0.02113,0.00643-0.03196c0.00015-0.00074,0.0003-0.00148,0.00044-0.00222
	c0.0003-0.00149,0.0006-0.00298,0.00089-0.00447c0.0016-0.00801,0.00319-0.01602,0.00476-0.02404
	c0.00008-0.0004,0.00015-0.00076,0.00023-0.00116c0.00037-0.00187,0.00063-0.00317,0.00099-0.00504
	c0.15821-0.81019-0.36861-1.59512-1.17931-1.75498C22.40183,12.51771,22.20595,12.51939,22.01992,12.5559L22.01992,12.5559z"/>
<g>
	<path class="st1" d="M12,7.03369c0.38672,0,0.75,0.05371,1.08984,0.16113s0.63574,0.26221,0.88965,0.46436
		c0.25391,0.20166,0.45312,0.45117,0.59961,0.74756c0.14648,0.29688,0.21875,0.63818,0.21875,1.02539
		c0,0.48975-0.11328,0.91992-0.34082,1.28906c-0.22852,0.36963-0.57422,0.62354-1.03809,0.76074v0.02588
		c0.21484,0.04297,0.42285,0.13135,0.625,0.26416c0.20215,0.13379,0.38086,0.29688,0.53516,0.49023s0.27734,0.41504,0.36719,0.66406
		c0.09082,0.24951,0.13574,0.51514,0.13574,0.79932c0,0.45508-0.08203,0.85352-0.24512,1.19238
		c-0.16309,0.33984-0.38281,0.62598-0.65723,0.8584c-0.27539,0.23145-0.60254,0.40625-0.98047,0.52148
		C12.82129,16.41406,12.4209,16.47168,12,16.47168c-0.42969,0-0.83105-0.05762-1.20508-0.17383
		c-0.37402-0.11523-0.69922-0.29004-0.97363-0.52148c-0.27539-0.23242-0.49414-0.51855-0.6582-0.8584
		C9,14.5791,8.91895,14.18066,8.91895,13.72559c0-0.28418,0.04492-0.5498,0.13477-0.79932
		c0.09082-0.24902,0.21289-0.4707,0.36816-0.66406c0.1543-0.19336,0.33301-0.35645,0.53418-0.49023
		c0.20215-0.13281,0.41113-0.22119,0.62598-0.26416v-0.02588c-0.46387-0.13721-0.81055-0.39111-1.03809-0.76074
		c-0.22754-0.36914-0.3418-0.79932-0.3418-1.28906c0-0.38721,0.07324-0.72852,0.21973-1.02539
		c0.14551-0.29639,0.3457-0.5459,0.59961-0.74756c0.25293-0.20215,0.5498-0.35693,0.88965-0.46436
		C11.25,7.0874,11.61328,7.03369,12,7.03369z M12,12.10107c-0.20605,0-0.4043,0.03418-0.59277,0.10303
		c-0.18945,0.06885-0.35254,0.16748-0.49023,0.29639c-0.1377,0.12939-0.24707,0.28174-0.3291,0.45801
		c-0.08105,0.17627-0.12207,0.36768-0.12207,0.57373c0,0.43848,0.14355,0.79297,0.43164,1.06348S11.55273,15.00195,12,15.00195
		s0.81445-0.13574,1.10254-0.40625s0.43164-0.625,0.43164-1.06348c0-0.20605-0.04004-0.39746-0.12207-0.57373
		s-0.19141-0.32861-0.3291-0.45801c-0.1377-0.12891-0.30078-0.22754-0.48926-0.29639
		C12.4043,12.13525,12.20703,12.10107,12,12.10107z M12,8.34863c-0.39551,0-0.70215,0.12061-0.92188,0.36133
		C10.85938,8.95068,10.75,9.24316,10.75,9.58643c0,0.36133,0.11133,0.66406,0.33496,0.90918S11.61328,10.86328,12,10.86328
		c0.17188,0,0.33301-0.03223,0.4834-0.09668s0.28418-0.15479,0.40039-0.271s0.20605-0.25146,0.27051-0.40625
		s0.09668-0.32227,0.09668-0.50293c0-0.34326-0.11816-0.63574-0.35449-0.87646S12.36133,8.34863,12,8.34863z"/>
</g>
</svg>
