<?xml version="1.0" encoding="utf-8"?>
<!-- Generator: Adobe Illustrator 22.0.0, SVG Export Plug-In . SVG Version: 6.00 Build 0)  -->
<svg version="1.1" id="Layer_1" xmlns="http://www.w3.org/2000/svg" xmlns:xlink="http://www.w3.org/1999/xlink" x="0px" y="0px"
	 viewBox="0 0 24 24" style="enable-background:new 0 0 24 24;" xml:space="preserve">
<style type="text/css">
	.st0{fill:#B6AABF;}
	.st1{fill:#3B7FC2;}
</style>
<path class="st0" d="M5.85551,19.24504c-0.37768,0.07412-0.72716,0.29221-0.95851,0.63653
	c-0.46053,0.68539-0.27943,1.61233,0.40375,2.07433c0.01991,0.0134,0.03938,0.02641,0.05936,0.03969
	c0.34128,0.22546,0.74093,0.2931,1.11298,0.22011c0.37793-0.07415,0.72739-0.2935,0.95784-0.63987
	c0.4589-0.68972,0.27263-1.62212-0.41604-2.08259l-0.03437-0.02298C6.6367,19.24037,6.23209,19.17114,5.85551,19.24504
	L5.85551,19.24504z M9.63934,20.82442c-0.57891,0.11362-1.06137,0.56441-1.18534,1.17809
	c-0.16354,0.80955,0.35844,1.59696,1.16661,1.76243c0.00224,0.00045,0.0042,0.00085,0.00644,0.0013
	c0.0003,0.00006,0.00062,0.00013,0.00092,0.00019c0.00169,0.00034,0.00338,0.00068,0.00507,0.00103
	c0.01456,0.00293,0.02923,0.00586,0.04381,0.00874c0.0017,0.00034,0.0034,0.00067,0.0051,0.00101
	c0.0003,0.00006,0.00058,0.00011,0.00088,0.00017c0.00187,0.00037,0.0041,0.00081,0.00596,0.00117
	c0.19578,0.03815,0.38998,0.03632,0.57433,0.00015c0.57834-0.11347,1.05883-0.56495,1.18002-1.17954
	c0.16029-0.81277-0.36836-1.60312-1.18077-1.76528l-0.0404-0.00806C10.02355,20.78621,9.82645,20.7877,9.63934,20.82442
	L9.63934,20.82442z M13.77732,20.82277c-0.00114,0.00022-0.00229,0.00045-0.00343,0.00068l-0.04084,0.00811
	c-0.81256,0.16135-1.34195,0.95115-1.18243,1.76408c0.15901,0.81029,0.94241,1.33772,1.75217,1.18133
	c0.00238-0.00047,0.00508-0.00099,0.00746-0.00146c0.00317-0.00062,0.00589-0.00116,0.00906-0.00178
	c0.0004-0.00008,0.00079-0.00016,0.00119-0.00023c0.00238-0.00047,0.00562-0.00111,0.008-0.00158
	c0.0004-0.00008,0.0008-0.00016,0.00121-0.00024c0.01507-0.00298,0.02945-0.00586,0.0445-0.00889
	c0.80724-0.16553,1.32897-0.9518,1.16642-1.76087C15.37768,21.19085,14.58869,20.66358,13.77732,20.82277L13.77732,20.82277z
	 M17.56058,19.25113c-0.18928,0.03714-0.37451,0.11156-0.54477,0.22535l-0.03424,0.02289
	c-0.68876,0.46033-0.87521,1.39272-0.41647,2.08254c0.34554,0.51959,0.95853,0.75334,1.5344,0.64036
	c0.18698-0.03668,0.37004-0.10992,0.53875-0.22181c0.00095-0.00063,0.00182-0.00121,0.00277-0.00184
	c0.00059-0.00039,0.00122-0.00081,0.00181-0.00121c0.00922-0.00613,0.01843-0.01227,0.02764-0.01843
	c0.00063-0.00042,0.00124-0.00083,0.00187-0.00125c0.00107-0.00072,0.00214-0.00143,0.00321-0.00215
	c0.00696-0.00466,0.01361-0.00912,0.02056-0.0138c0.68255-0.46207,0.86341-1.38845,0.40318-2.07362
	C18.75155,19.37044,18.13702,19.13801,17.56058,19.25113L17.56058,19.25113z M20.45381,16.34556
	c-0.37883,0.07434-0.7292,0.29351-0.96046,0.63941l-0.02297,0.03435c-0.46045,0.68869-0.27628,1.6215,0.41134,2.08352
	c0.34331,0.23067,0.7471,0.30037,1.12282,0.22665c0.37531-0.07363,0.72255-0.29041,0.95312-0.63285
	c0.00021-0.00031,0.00036-0.00055,0.00057-0.00086c0.00076-0.00113,0.00149-0.00222,0.00225-0.00336
	c0.00242-0.00359,0.00483-0.00719,0.00724-0.01079c0.00042-0.00062,0.00077-0.00115,0.00119-0.00177
	c0.00062-0.00093,0.00124-0.00185,0.00186-0.00278c0.00292-0.00436,0.00616-0.0092,0.00907-0.01357
	c0.00118-0.00176,0.00235-0.00353,0.00353-0.00529l0.00006-0.0001c0.00254-0.00381,0.00508-0.00762,0.00761-0.01143
	c0.00022-0.00034,0.00042-0.00064,0.00065-0.00097c0.00104-0.00156,0.00196-0.00295,0.003-0.00451
	c0.45586-0.68813,0.26912-1.61468-0.41879-2.07235C21.23261,16.34047,20.82923,16.27189,20.45381,16.34556L20.45381,16.34556z"/>
<g>
	<path class="st1" d="M14.7168,8.6875h-3.70508l-0.03906,1.83301c0.12158-0.04346,0.27539-0.07373,0.46191-0.09131
		c0.18604-0.01709,0.36133-0.02588,0.52637-0.02588c0.45117,0,0.86523,0.07129,1.24219,0.21436s0.69922,0.34912,0.9668,0.61768
		c0.26953,0.26855,0.48047,0.58936,0.63086,0.96191c0.15234,0.37305,0.22852,0.79297,0.22852,1.26172
		c0,0.49316-0.08398,0.9375-0.25391,1.33203s-0.40234,0.72852-0.70117,1.00098c-0.30078,0.27344-0.65234,0.4834-1.06055,0.63086
		c-0.4082,0.14648-0.8457,0.2207-1.31299,0.2207c-0.73633,0-1.36279-0.17285-1.87842-0.51953s-0.88184-0.87598-1.09863-1.58691
		l1.63818-0.44141c0.104,0.3291,0.28174,0.58887,0.5332,0.78027c0.25098,0.19043,0.57617,0.28516,0.97461,0.28516
		c0.23389,0,0.44873-0.03906,0.64404-0.11621c0.19531-0.07812,0.36328-0.18848,0.50586-0.33203
		c0.14453-0.14258,0.25391-0.30957,0.33203-0.5s0.11719-0.39844,0.11719-0.62402c0-0.32129-0.05859-0.59375-0.17578-0.81934
		s-0.27539-0.40918-0.47461-0.55273c-0.19922-0.14258-0.42773-0.24707-0.68848-0.31201
		c-0.26025-0.06494-0.5332-0.09766-0.81885-0.09766c-0.33838,0-0.67432,0.03906-1.00781,0.11719
		c-0.3335,0.07861-0.63916,0.18701-0.9165,0.32568l0.09131-4.9668h5.23877V8.6875z"/>
</g>
</svg>
