<?xml version="1.0" encoding="utf-8"?>
<!-- Generator: Adobe Illustrator 22.0.0, SVG Export Plug-In . SVG Version: 6.00 Build 0)  -->
<svg version="1.1" id="Layer_1" xmlns="http://www.w3.org/2000/svg" xmlns:xlink="http://www.w3.org/1999/xlink" x="0px" y="0px"
	 viewBox="0 0 24 24" style="enable-background:new 0 0 24 24;" xml:space="preserve">
<style type="text/css">
	.st0{fill:#B6AABF;}
	.st1{fill:#3B7FC2;}
</style>
<path class="st0" d="M2.9957,4.67015c-0.37411,0.07341-0.7203,0.289-0.9509,0.62955
	c-0.00754,0.0112-0.01473,0.02192-0.02223,0.03314C2.01812,5.33951,2.01366,5.3462,2.00922,5.35288
	c-0.00053,0.0008-0.00103,0.00154-0.00156,0.00234C2.00724,5.35585,2.0068,5.35651,2.00639,5.35713
	c-0.45685,0.68823-0.27039,1.61564,0.41788,2.0736c0.34334,0.22844,0.74669,0.29701,1.12217,0.22334
	c0.37879-0.07432,0.72917-0.2935,0.96043-0.63935l0.02298-0.03437c0.46048-0.68866,0.27634-1.62148-0.41126-2.08353
	C3.77528,4.66615,3.37142,4.59642,2.9957,4.67015L2.9957,4.67015z M1.41299,8.45161C0.83864,8.56431,0.36061,9.01027,0.23541,9.6189
	c-0.00219,0.01082-0.00433,0.02144-0.0065,0.03228C0.22875,9.65199,0.22858,9.6528,0.22842,9.65362
	c-0.00045,0.00224-0.00087,0.00436-0.00132,0.0066C0.22694,9.66104,0.22678,9.66185,0.22662,9.66267
	C0.2261,9.66529,0.22566,9.66748,0.22514,9.6701C0.22509,9.67038,0.22503,9.67066,0.22498,9.67094
	C0.22364,9.67766,0.22248,9.68354,0.22116,9.69027c-0.15683,0.8094,0.36975,1.59293,1.17969,1.75268
	c0.19734,0.03892,0.39327,0.03723,0.5793,0.00073c0.58016-0.11382,1.0632-0.56632,1.18599-1.18147l0.00806-0.0404
	c0.16217-0.8124-0.36463-1.60396-1.17665-1.76801C1.79837,8.41356,1.60056,8.41481,1.41299,8.45161L1.41299,8.45161z
	 M1.40435,12.55041c-0.8103,0.15899-1.33771,0.9425-1.18135,1.75227c0.00047,0.00238,0.00102,0.00519,0.00148,0.00758
	c0.00055,0.00278,0.00115,0.00585,0.0017,0.00862c0.00015,0.00077,0.0003,0.00155,0.00046,0.00232
	c0.00039,0.00198,0.00079,0.00402,0.00119,0.00601c0.00021,0.00105,0.00042,0.00211,0.00063,0.00316
	c0.00047,0.00238,0.00099,0.00501,0.00147,0.00739c0.00023,0.00117,0.00046,0.00234,0.0007,0.0035
	c0.00039,0.00198,0.00075,0.00375,0.00114,0.00574c0.00013,0.00067,0.00027,0.00133,0.0004,0.002
	c0.00158,0.00793,0.00333,0.01666,0.00493,0.02458c0.16492,0.80518,0.9473,1.32647,1.75413,1.16818
	c0.00223-0.00044,0.00456-0.0009,0.00679-0.00135c0.81221-0.16315,1.33984-0.95414,1.17851-1.7667L3.1684,13.73288
	C3.00707,12.92031,2.21727,12.3909,1.40435,12.55041L1.40435,12.55041z M2.95989,16.34149
	c-0.1882,0.03692-0.37237,0.11069-0.54188,0.22341c-0.68748,0.45717-0.87461,1.3826-0.42026,2.07064
	c0.00295,0.00444,0.00588,0.00886,0.00884,0.01329c0.00879,0.0132,0.0176,0.02637,0.02645,0.03954
	c0.00048,0.00071,0.00095,0.00141,0.00142,0.00212c0.00064,0.00095,0.00126,0.00187,0.00189,0.00282
	c0.34663,0.51435,0.95639,0.74495,1.5292,0.63257c0.18974-0.03723,0.37545-0.1121,0.54616-0.22676
	c0.68769-0.4619,0.87202-1.39471,0.4117-2.08347l-0.02287-0.03424C4.15333,16.4619,3.53757,16.22815,2.95989,16.34149
	L2.95989,16.34149z M5.85551,19.24504c-0.37768,0.07412-0.72716,0.29221-0.95851,0.63653
	c-0.46053,0.68539-0.27943,1.61233,0.40375,2.07433c0.01991,0.0134,0.03938,0.02641,0.05936,0.03969
	c0.34128,0.22546,0.74093,0.2931,1.11298,0.22011c0.37793-0.07415,0.72739-0.2935,0.95784-0.63987
	c0.4589-0.68972,0.27263-1.62212-0.41604-2.08259l-0.03437-0.02298C6.6367,19.24037,6.23209,19.17114,5.85551,19.24504
	L5.85551,19.24504z M9.63934,20.82442c-0.57891,0.11362-1.06137,0.56441-1.18534,1.17809
	c-0.16354,0.80955,0.35844,1.59696,1.16661,1.76243c0.00224,0.00045,0.0042,0.00085,0.00644,0.0013
	c0.0003,0.00006,0.00062,0.00013,0.00092,0.00019c0.00169,0.00034,0.00338,0.00068,0.00507,0.00103
	c0.01456,0.00293,0.02923,0.00586,0.04381,0.00874c0.0017,0.00034,0.0034,0.00067,0.0051,0.00101
	c0.0003,0.00006,0.00058,0.00011,0.00088,0.00017c0.00187,0.00037,0.0041,0.00081,0.00596,0.00117
	c0.19578,0.03815,0.38998,0.03632,0.57433,0.00015c0.57834-0.11347,1.05883-0.56495,1.18002-1.17954
	c0.16029-0.81277-0.36836-1.60312-1.18077-1.76528l-0.0404-0.00806C10.02355,20.78621,9.82645,20.7877,9.63934,20.82442
	L9.63934,20.82442z M13.77732,20.82277c-0.00114,0.00022-0.00229,0.00045-0.00343,0.00068l-0.04084,0.00811
	c-0.81256,0.16135-1.34195,0.95115-1.18243,1.76408c0.15901,0.81029,0.94241,1.33772,1.75217,1.18133
	c0.00238-0.00047,0.00508-0.00099,0.00746-0.00146c0.00317-0.00062,0.00589-0.00116,0.00906-0.00178
	c0.0004-0.00008,0.00079-0.00016,0.00119-0.00023c0.00238-0.00047,0.00562-0.00111,0.008-0.00158
	c0.0004-0.00008,0.0008-0.00016,0.00121-0.00024c0.01507-0.00298,0.02945-0.00586,0.0445-0.00889
	c0.80724-0.16553,1.32897-0.9518,1.16642-1.76087C15.37768,21.19085,14.58869,20.66358,13.77732,20.82277L13.77732,20.82277z
	 M17.56058,19.25113c-0.18928,0.03714-0.37451,0.11156-0.54477,0.22535l-0.03424,0.02289
	c-0.68876,0.46033-0.87521,1.39272-0.41647,2.08254c0.34554,0.51959,0.95853,0.75334,1.5344,0.64036
	c0.18698-0.03668,0.37004-0.10992,0.53875-0.22181c0.00095-0.00063,0.00182-0.00121,0.00277-0.00184
	c0.00059-0.00039,0.00122-0.00081,0.00181-0.00121c0.00922-0.00613,0.01843-0.01227,0.02764-0.01843
	c0.00063-0.00042,0.00124-0.00083,0.00187-0.00125c0.00107-0.00072,0.00214-0.00143,0.00321-0.00215
	c0.00696-0.00466,0.01361-0.00912,0.02056-0.0138c0.68255-0.46207,0.86341-1.38845,0.40318-2.07362
	C18.75155,19.37044,18.13702,19.13801,17.56058,19.25113L17.56058,19.25113z M20.45381,16.34556
	c-0.37883,0.07434-0.7292,0.29351-0.96046,0.63941l-0.02297,0.03435c-0.46045,0.68869-0.27628,1.6215,0.41134,2.08352
	c0.34331,0.23067,0.7471,0.30037,1.12282,0.22665c0.37531-0.07363,0.72255-0.29041,0.95312-0.63285
	c0.00021-0.00031,0.00036-0.00055,0.00057-0.00086c0.00076-0.00113,0.00149-0.00222,0.00225-0.00336
	c0.00242-0.00359,0.00483-0.00719,0.00724-0.01079c0.00042-0.00062,0.00077-0.00115,0.00119-0.00177
	c0.00062-0.00093,0.00124-0.00185,0.00186-0.00278c0.00292-0.00436,0.00616-0.0092,0.00907-0.01357
	c0.00118-0.00176,0.00235-0.00353,0.00353-0.00529l0.00006-0.0001c0.00254-0.00381,0.00508-0.00762,0.00761-0.01143
	c0.00022-0.00034,0.00042-0.00064,0.00065-0.00097c0.00104-0.00156,0.00196-0.00295,0.003-0.00451
	c0.45586-0.68813,0.26912-1.61468-0.41879-2.07235C21.23261,16.34047,20.82923,16.27189,20.45381,16.34556L20.45381,16.34556z
	 M22.01992,12.5559c-0.58014,0.11387-1.06322,0.56637-1.18599,1.18153l-0.00806,0.0404
	c-0.16215,0.8124,0.3647,1.60395,1.17672,1.76796c0.19919,0.04023,0.39693,0.03898,0.58451,0.00218
	c0.57435-0.11268,1.05244-0.55883,1.17762-1.16748c0.0022-0.01082,0.00427-0.02113,0.00643-0.03196
	c0.00015-0.00074,0.0003-0.00148,0.00044-0.00222c0.0003-0.00149,0.0006-0.00298,0.00089-0.00447
	c0.0016-0.00801,0.00319-0.01602,0.00476-0.02404c0.00008-0.0004,0.00015-0.00076,0.00023-0.00116
	c0.00037-0.00187,0.00063-0.00317,0.00099-0.00504c0.15821-0.81019-0.36861-1.59512-1.17931-1.75498
	C22.40183,12.51771,22.20595,12.51939,22.01992,12.5559L22.01992,12.5559z M22.0087,8.4578
	c-0.00228,0.00045-0.00457,0.0009-0.00685,0.00136c-0.81219,0.16319-1.33979,0.9542-1.17843,1.76676l0.00811,0.04083
	c0.16137,0.81256,0.95118,1.34194,1.76411,1.1824l0,0c0.81028-0.15903,1.33768-0.94252,1.18127-1.75228
	c-0.00047-0.00238-0.00093-0.00476-0.0014-0.00714c-0.00062-0.00318-0.00124-0.00633-0.00187-0.00951
	c0-0.00002-0.00001-0.00003-0.00001-0.00005c-0.0036-0.01825-0.00727-0.03667-0.01095-0.05489
	C23.59747,8.8205,22.81526,8.29955,22.0087,8.4578L22.0087,8.4578z M20.43419,4.67375
	C20.24446,4.71098,20.0587,4.78587,19.888,4.90054c-0.68768,0.46195-0.87197,1.39476-0.41161,2.0835l0.02289,0.03423
	c0.34722,0.5195,0.96292,0.75321,1.5406,0.63988c0.1882-0.03692,0.37243-0.11072,0.54193-0.22345
	c0.68762-0.45731,0.87466-1.38304,0.41986-2.07111c-0.00168-0.00254-0.00313-0.00471-0.00482-0.00725
	c-0.00042-0.00063-0.00084-0.00126-0.00126-0.00189c-0.00084-0.00127-0.00188-0.00282-0.00272-0.00409
	c-0.00106-0.0016-0.00213-0.00319-0.00319-0.00479l-0.0001-0.00015C21.98197,5.334,21.97434,5.3226,21.96669,5.31122
	c-0.00031-0.00046-0.00064-0.00095-0.00094-0.00141c-0.00106-0.00158-0.00207-0.00309-0.00314-0.00467
	C21.61582,4.7916,21.00657,4.56142,20.43419,4.67375L20.43419,4.67375z"/>
<g>
	<path class="st1" d="M8.14453,8.96777l-1.71484,1.58594L5.52637,9.4834l2.76074-2.29492h1.4043v9.12891H8.14453V8.96777z"/>
	<path class="st1" d="M12.43848,14.67969l3.5459-3.42969c0.10352-0.10303,0.21094-0.21289,0.32227-0.32861
		c0.11133-0.11621,0.21289-0.23877,0.30273-0.36768c0.09082-0.12891,0.16602-0.26416,0.22559-0.40625
		c0.06055-0.1416,0.09082-0.29004,0.09082-0.44482c0-0.18896-0.03711-0.35645-0.10938-0.50293
		c-0.07324-0.146-0.16992-0.27051-0.29004-0.37402c-0.12109-0.10303-0.26074-0.18213-0.41992-0.23828
		c-0.15918-0.05566-0.32812-0.08398-0.50879-0.08398c-0.38672,0-0.70508,0.11182-0.9541,0.33545
		c-0.25,0.22363-0.39941,0.52441-0.45117,0.90234l-1.625-0.12891c0.03418-0.4209,0.13574-0.79297,0.30273-1.11523
		c0.16797-0.32227,0.38477-0.59082,0.65137-0.80566s0.57617-0.37842,0.92871-0.49023
		c0.35254-0.11133,0.73438-0.16748,1.14746-0.16748c0.41211,0,0.79688,0.05371,1.1543,0.16113
		c0.35645,0.10742,0.66797,0.2666,0.93457,0.47705c0.2666,0.21094,0.47656,0.47949,0.63184,0.80566
		c0.1543,0.32715,0.23242,0.70947,0.23242,1.14795c0,0.57568-0.13184,1.07227-0.39355,1.48926
		c-0.2627,0.41699-0.59961,0.81445-1.0127,1.19238l-2.82324,2.61768h4.22949v1.39258h-6.1123V14.67969z"/>
</g>
</svg>
