<?xml version="1.0" encoding="utf-8"?>
<!-- Generator: Adobe Illustrator 22.0.0, SVG Export Plug-In . SVG Version: 6.00 Build 0)  -->
<svg version="1.1" id="Layer_1" xmlns="http://www.w3.org/2000/svg" xmlns:xlink="http://www.w3.org/1999/xlink" x="0px" y="0px"
	 viewBox="0 0 24 24" style="enable-background:new 0 0 24 24;" xml:space="preserve">
<style type="text/css">
	.st0{fill:#B6AABF;}
	.st1{fill:#3B7FC2;}
</style>
<path class="st0" d="M9.63934,20.82442c-0.57891,0.11362-1.06137,0.56441-1.18534,1.17809
	c-0.16354,0.80955,0.35844,1.59696,1.16661,1.76243c0.00224,0.00045,0.0042,0.00085,0.00644,0.0013
	c0.0003,0.00006,0.00062,0.00013,0.00092,0.00019c0.00169,0.00034,0.00338,0.00068,0.00507,0.00103
	c0.01456,0.00293,0.02923,0.00586,0.04381,0.00874c0.0017,0.00034,0.0034,0.00067,0.0051,0.00101
	c0.0003,0.00006,0.00058,0.00011,0.00088,0.00017c0.00187,0.00037,0.0041,0.00081,0.00596,0.00117
	c0.19578,0.03815,0.38998,0.03632,0.57433,0.00015c0.57834-0.11347,1.05883-0.56495,1.18002-1.17954
	c0.16029-0.81277-0.36836-1.60312-1.18077-1.76528l-0.0404-0.00806C10.02355,20.78621,9.82645,20.7877,9.63934,20.82442
	L9.63934,20.82442z M13.77732,20.82277c-0.00114,0.00022-0.00229,0.00045-0.00343,0.00068l-0.04084,0.00811
	c-0.81256,0.16135-1.34195,0.95115-1.18243,1.76408c0.15901,0.81029,0.94241,1.33772,1.75217,1.18133
	c0.00238-0.00047,0.00508-0.00099,0.00746-0.00146c0.00317-0.00062,0.00589-0.00116,0.00906-0.00178
	c0.0004-0.00008,0.00079-0.00016,0.00119-0.00023c0.00238-0.00047,0.00562-0.00111,0.008-0.00158
	c0.0004-0.00008,0.0008-0.00016,0.00121-0.00024c0.01507-0.00298,0.02945-0.00586,0.0445-0.00889
	c0.80724-0.16553,1.32897-0.9518,1.16642-1.76087C15.37768,21.19085,14.58869,20.66358,13.77732,20.82277L13.77732,20.82277z"/>
<g>
	<path class="st1" d="M8.94434,14.67969l3.5459-3.42969c0.10352-0.10303,0.21094-0.21289,0.32227-0.32861
		c0.11133-0.11621,0.21289-0.23877,0.30273-0.36768c0.09082-0.12891,0.16602-0.26416,0.22559-0.40625
		c0.06055-0.1416,0.09082-0.29004,0.09082-0.44482c0-0.18896-0.03711-0.35645-0.10938-0.50293
		c-0.07324-0.146-0.16992-0.27051-0.29004-0.37402c-0.12109-0.10303-0.26074-0.18213-0.41992-0.23828
		c-0.15918-0.05566-0.32812-0.08398-0.50879-0.08398c-0.38672,0-0.70508,0.11182-0.9541,0.33545
		c-0.25,0.22363-0.39941,0.52441-0.45117,0.90234l-1.625-0.12891c0.03418-0.4209,0.13574-0.79297,0.30273-1.11523
		c0.16797-0.32227,0.38477-0.59082,0.65137-0.80566s0.57617-0.37842,0.92871-0.49023
		c0.35254-0.11133,0.73438-0.16748,1.14746-0.16748c0.41211,0,0.79688,0.05371,1.1543,0.16113
		c0.35645,0.10742,0.66797,0.2666,0.93457,0.47705c0.2666,0.21094,0.47656,0.47949,0.63184,0.80566
		c0.1543,0.32715,0.23242,0.70947,0.23242,1.14795c0,0.57568-0.13184,1.07227-0.39355,1.48926
		c-0.2627,0.41699-0.59961,0.81445-1.0127,1.19238l-2.82324,2.61768h4.22949v1.39258h-6.1123V14.67969z"/>
</g>
</svg>
