<?xml version="1.0" encoding="utf-8"?>
<!-- Generator: Adobe Illustrator 22.0.0, SVG Export Plug-In . SVG Version: 6.00 Build 0)  -->
<svg version="1.1" id="Layer_1" xmlns="http://www.w3.org/2000/svg" xmlns:xlink="http://www.w3.org/1999/xlink" x="0px" y="0px"
	 viewBox="0 0 24 24" style="enable-background:new 0 0 24 24;" xml:space="preserve">
<style type="text/css">
	.st0{fill:#B6AABF;}
	.st1{fill:#3B7FC2;}
</style>
<path class="st0" d="M2.95989,16.34149c-0.1882,0.03692-0.37237,0.11069-0.54188,0.22341
	c-0.68748,0.45717-0.87461,1.3826-0.42026,2.07064c0.00295,0.00444,0.00588,0.00886,0.00884,0.01329
	c0.00879,0.0132,0.0176,0.02637,0.02645,0.03954c0.00048,0.00071,0.00095,0.00141,0.00142,0.00212
	c0.00064,0.00095,0.00126,0.00187,0.00189,0.00282c0.34663,0.51435,0.95639,0.74495,1.5292,0.63257
	c0.18974-0.03723,0.37545-0.1121,0.54616-0.22676c0.68769-0.4619,0.87202-1.39471,0.4117-2.08347l-0.02287-0.03424
	C4.15333,16.4619,3.53757,16.22815,2.95989,16.34149L2.95989,16.34149z M5.85551,19.24504
	c-0.37768,0.07412-0.72716,0.29221-0.95851,0.63653c-0.46053,0.68539-0.27943,1.61233,0.40375,2.07433
	c0.01991,0.0134,0.03938,0.02641,0.05936,0.03969c0.34128,0.22546,0.74093,0.2931,1.11298,0.22011
	c0.37793-0.07415,0.72739-0.2935,0.95784-0.63987c0.4589-0.68972,0.27263-1.62212-0.41604-2.08259l-0.03437-0.02298
	C6.6367,19.24037,6.23209,19.17114,5.85551,19.24504L5.85551,19.24504z M9.63934,20.82442
	c-0.57891,0.11362-1.06137,0.56441-1.18534,1.17809c-0.16354,0.80955,0.35844,1.59696,1.16661,1.76243
	c0.00224,0.00045,0.0042,0.00085,0.00644,0.0013c0.0003,0.00006,0.00062,0.00013,0.00092,0.00019
	c0.00169,0.00034,0.00338,0.00068,0.00507,0.00103c0.01456,0.00293,0.02923,0.00586,0.04381,0.00874
	c0.0017,0.00034,0.0034,0.00067,0.0051,0.00101c0.0003,0.00006,0.00058,0.00011,0.00088,0.00017
	c0.00187,0.00037,0.0041,0.00081,0.00596,0.00117c0.19578,0.03815,0.38998,0.03632,0.57433,0.00015
	c0.57834-0.11347,1.05883-0.56495,1.18002-1.17954c0.16029-0.81277-0.36836-1.60312-1.18077-1.76528l-0.0404-0.00806
	C10.02355,20.78621,9.82645,20.7877,9.63934,20.82442L9.63934,20.82442z M13.77732,20.82277
	c-0.00114,0.00022-0.00229,0.00045-0.00343,0.00068l-0.04084,0.00811c-0.81256,0.16135-1.34195,0.95115-1.18243,1.76408
	c0.15901,0.81029,0.94241,1.33772,1.75217,1.18133c0.00238-0.00047,0.00508-0.00099,0.00746-0.00146
	c0.00317-0.00062,0.00589-0.00116,0.00906-0.00178c0.0004-0.00008,0.00079-0.00016,0.00119-0.00023
	c0.00238-0.00047,0.00562-0.00111,0.008-0.00158c0.0004-0.00008,0.0008-0.00016,0.00121-0.00024
	c0.01507-0.00298,0.02945-0.00586,0.0445-0.00889c0.80724-0.16553,1.32897-0.9518,1.16642-1.76087
	C15.37768,21.19085,14.58869,20.66358,13.77732,20.82277L13.77732,20.82277z M17.56058,19.25113
	c-0.18928,0.03714-0.37451,0.11156-0.54477,0.22535l-0.03424,0.02289c-0.68876,0.46033-0.87521,1.39272-0.41647,2.08254
	c0.34554,0.51959,0.95853,0.75334,1.5344,0.64036c0.18698-0.03668,0.37004-0.10992,0.53875-0.22181
	c0.00095-0.00063,0.00182-0.00121,0.00277-0.00184c0.00059-0.00039,0.00122-0.00081,0.00181-0.00121
	c0.00922-0.00613,0.01843-0.01227,0.02764-0.01843c0.00063-0.00042,0.00124-0.00083,0.00187-0.00125
	c0.00107-0.00072,0.00214-0.00143,0.00321-0.00215c0.00696-0.00466,0.01361-0.00912,0.02056-0.0138
	c0.68255-0.46207,0.86341-1.38845,0.40318-2.07362C18.75155,19.37044,18.13702,19.13801,17.56058,19.25113L17.56058,19.25113z
	 M20.45381,16.34556c-0.37883,0.07434-0.7292,0.29351-0.96046,0.63941l-0.02297,0.03435
	c-0.46045,0.68869-0.27628,1.6215,0.41134,2.08352c0.34331,0.23067,0.7471,0.30037,1.12282,0.22665
	c0.37531-0.07363,0.72255-0.29041,0.95312-0.63285c0.00021-0.00031,0.00036-0.00055,0.00057-0.00086
	c0.00076-0.00113,0.00149-0.00222,0.00225-0.00336c0.00242-0.00359,0.00483-0.00719,0.00724-0.01079
	c0.00042-0.00062,0.00077-0.00115,0.00119-0.00177c0.00062-0.00093,0.00124-0.00185,0.00186-0.00278
	c0.00292-0.00436,0.00616-0.0092,0.00907-0.01357c0.00118-0.00176,0.00235-0.00353,0.00353-0.00529l0.00006-0.0001
	c0.00254-0.00381,0.00508-0.00762,0.00761-0.01143c0.00022-0.00034,0.00042-0.00064,0.00065-0.00097
	c0.00104-0.00156,0.00196-0.00295,0.003-0.00451c0.45586-0.68813,0.26912-1.61468-0.41879-2.07235
	C21.23261,16.34047,20.82923,16.27189,20.45381,16.34556L20.45381,16.34556z"/>
<g>
	<path class="st1" d="M13.83203,7.2832l-2.20898,3.40625l0.02588,0.02588c0.09521-0.05225,0.22314-0.09082,0.3833-0.11719
		c0.16113-0.02588,0.31934-0.03906,0.47559-0.03906c0.40625,0,0.7793,0.07812,1.11719,0.23438
		c0.33789,0.15576,0.63086,0.36816,0.87695,0.63672c0.24805,0.26904,0.4375,0.58154,0.57227,0.93604
		c0.13477,0.35547,0.20117,0.73242,0.20117,1.13086c0,0.47754-0.08203,0.91016-0.24609,1.30078
		c-0.16602,0.38965-0.39258,0.72168-0.68359,0.99414c-0.28906,0.27344-0.63672,0.4834-1.03906,0.63086
		c-0.40234,0.14648-0.83789,0.2207-1.30664,0.2207c-0.48584,0-0.92773-0.07129-1.32617-0.21484
		c-0.39893-0.14258-0.74316-0.34863-1.03369-0.61719c-0.29004-0.26855-0.51562-0.59766-0.67578-0.98828
		c-0.16064-0.38965-0.24072-0.82715-0.24072-1.3125s0.08008-0.9248,0.24072-1.31934
		c0.16016-0.39502,0.36621-0.79541,0.61768-1.20312l2.35303-3.70508H13.83203z M10.36182,13.48438
		c0,0.23438,0.04346,0.45312,0.12988,0.65625c0.08691,0.2041,0.20605,0.38184,0.35742,0.5332
		c0.15186,0.15234,0.32959,0.27148,0.5332,0.35742c0.20361,0.08691,0.42236,0.12988,0.65674,0.12988
		s0.45312-0.04297,0.65625-0.12988c0.20312-0.08594,0.38086-0.20508,0.5332-0.35742c0.15234-0.15137,0.27148-0.3291,0.35742-0.5332
		c0.08594-0.20312,0.13086-0.42188,0.13086-0.65625c0-0.2334-0.04492-0.45215-0.13086-0.65625
		c-0.08594-0.20312-0.20508-0.38086-0.35742-0.5332c-0.15234-0.15137-0.33008-0.27051-0.5332-0.35742
		s-0.42188-0.13037-0.65625-0.13037s-0.45312,0.04346-0.65674,0.13037s-0.38135,0.20605-0.5332,0.35742
		c-0.15137,0.15234-0.27051,0.33008-0.35742,0.5332C10.40527,13.03223,10.36182,13.25098,10.36182,13.48438z"/>
</g>
</svg>
