<?xml version="1.0" encoding="utf-8"?>
<!-- Generator: Adobe Illustrator 22.0.0, SVG Export Plug-In . SVG Version: 6.00 Build 0)  -->
<svg version="1.1" id="Layer_1" xmlns="http://www.w3.org/2000/svg" xmlns:xlink="http://www.w3.org/1999/xlink" x="0px" y="0px"
	 viewBox="0 0 24 24" style="enable-background:new 0 0 24 24;" xml:space="preserve">
<style type="text/css">
	.st0{fill:url(#SVGID_1_);}
	.st1{clip-path:url(#SVGID_3_);}
	.st2{fill:#FFFFFF;}
</style>
<linearGradient id="SVGID_1_" gradientUnits="userSpaceOnUse" x1="12" y1="0" x2="12" y2="24">
	<stop  offset="0" style="stop-color:#339EF1"/>
	<stop  offset="1" style="stop-color:#50AA28"/>
</linearGradient>
<circle class="st0" cx="12" cy="12" r="12"/>
<g>
	<defs>
		<rect id="SVGID_2_" x="4.5" y="4" width="15" height="15"/>
	</defs>
	<clipPath id="SVGID_3_">
		<use xlink:href="#SVGID_2_"  style="overflow:visible;"/>
	</clipPath>
	<g class="st1">
		<path class="st2" d="M17.55187,13.96187c1.1175,0.27188,1.94813,1.27969,1.94813,2.4825c0,1.41-1.14094,2.55281-2.54906,2.55562
			l0,0H7.33781C5.77031,19,4.5,17.72875,4.5,16.16031s1.27031-2.83969,2.83781-2.83969c0.1725,0,0.34219,0.01594,0.50625,0.04594
			c-0.01312-0.09094-0.01969-0.18375-0.01969-0.2775c0-1.08187,0.87656-1.95844,1.9575-1.95844
			c0.63,0,1.19063,0.29813,1.54875,0.76125c0.63844-0.80906,1.62656-1.32938,2.7375-1.32938
			c1.89562,0,3.43687,1.51406,3.48469,3.39937l0,0H17.55187z"/>
		<path class="st2" d="M9.78187,10.4275c0.55406,0,1.08,0.16781,1.51969,0.47531c0.70875-0.62625,1.60781-0.99375,2.56594-1.03875
			c-0.11812-1.70531-1.53844-3.05156-3.27281-3.05156c-1.81219,0-3.28125,1.46906-3.28125,3.28125
			c0,0.51,0.11625,0.99281,0.32438,1.42406c0.48469-0.66,1.26562-1.09031,2.145-1.09031H9.78187z"/>
		<path class="st2" d="M10.59375,4c0.25875,0,0.46875,0.21,0.46875,0.46875v0.9375c0,0.25875-0.21,0.46875-0.46875,0.46875
			S10.125,5.665,10.125,5.40625v-0.9375C10.125,4.21,10.335,4,10.59375,4z"/>
		<path class="st2" d="M4.5,10.09375C4.5,9.835,4.71,9.625,4.96875,9.625h0.9375c0.25875,0,0.46875,0.21,0.46875,0.46875
			s-0.21,0.46875-0.46875,0.46875h-0.9375C4.71,10.5625,4.5,10.3525,4.5,10.09375z"/>
		<path class="st2" d="M14.34375,6.8125c-0.12,0-0.24-0.04594-0.33187-0.13688c-0.18281-0.18281-0.18281-0.48,0-0.66281
			l0.9375-0.9375c0.18281-0.18281,0.48-0.18281,0.66281,0c0.18281,0.18281,0.18281,0.48,0,0.66281l-0.9375,0.9375
			C14.58281,6.7675,14.46281,6.8125,14.34281,6.8125H14.34375z"/>
		<path class="st2" d="M6.84375,6.8125c-0.12,0-0.24-0.04594-0.33187-0.13688l-0.9375-0.9375
			c-0.18281-0.18281-0.18281-0.48,0-0.66281c0.18281-0.18281,0.48-0.18281,0.66281,0l0.9375,0.9375
			c0.18281,0.18281,0.18281,0.48,0,0.66281C7.08281,6.7675,6.96281,6.8125,6.84281,6.8125H6.84375z"/>
	</g>
</g>
</svg>
