<?xml version="1.0" standalone="no"?><!-- Generator: Gravit.io --><svg xmlns="http://www.w3.org/2000/svg" xmlns:xlink="http://www.w3.org/1999/xlink" style="isolation:isolate" viewBox="0 0 16 16" width="16" height="16"><defs><clipPath id="_clipPath_9XZjibVRDCjjMAF5dSsod94fCoZfWv0T"><rect width="16" height="16"/></clipPath></defs><g clip-path="url(#_clipPath_9XZjibVRDCjjMAF5dSsod94fCoZfWv0T)"><path d=" M 13.922 10.626 C 15.114 10.916 16 11.991 16 13.274 C 16 14.778 14.783 15.997 13.281 16 L 13.281 16 L 3.027 16 C 1.355 16 0 14.644 0 12.971 C 0 11.298 1.355 9.942 3.027 9.942 C 3.211 9.942 3.392 9.959 3.567 9.991 C 3.553 9.894 3.546 9.795 3.546 9.695 C 3.546 8.541 4.481 7.606 5.634 7.606 C 6.306 7.606 6.904 7.924 7.286 8.418 C 7.967 7.555 9.021 7 10.206 7 C 12.228 7 13.872 8.615 13.923 10.626 L 13.923 10.626 L 13.922 10.626 Z " fill="rgb(255,255,255)"/><path d=" M 5.634 6.856 C 6.225 6.856 6.786 7.035 7.255 7.363 C 8.011 6.695 8.97 6.303 9.992 6.255 C 9.866 4.436 8.351 3 6.501 3 C 4.568 3 3.001 4.567 3.001 6.5 C 3.001 7.044 3.125 7.559 3.347 8.019 C 3.864 7.315 4.697 6.856 5.635 6.856 L 5.634 6.856 Z " fill="rgb(255,255,255)"/><path d=" M 6.5 0 C 6.776 0 7 0.224 7 0.5 L 7 1.5 C 7 1.776 6.776 2 6.5 2 C 6.224 2 6 1.776 6 1.5 L 6 0.5 C 6 0.224 6.224 0 6.5 0 Z " fill="rgb(255,255,255)"/><path d=" M 0 6.5 C 0 6.224 0.224 6 0.5 6 L 1.5 6 C 1.776 6 2 6.224 2 6.5 C 2 6.776 1.776 7 1.5 7 L 0.5 7 C 0.224 7 0 6.776 0 6.5 Z " fill="rgb(255,255,255)"/><path d=" M 10.5 3 C 10.372 3 10.244 2.951 10.146 2.854 C 9.951 2.659 9.951 2.342 10.146 2.147 L 11.146 1.147 C 11.341 0.952 11.658 0.952 11.853 1.147 C 12.048 1.342 12.048 1.659 11.853 1.854 L 10.853 2.854 C 10.755 2.952 10.627 3 10.499 3 L 10.5 3 Z " fill="rgb(255,255,255)"/><path d=" M 2.5 3 C 2.372 3 2.244 2.951 2.146 2.854 L 1.146 1.854 C 0.951 1.659 0.951 1.342 1.146 1.147 C 1.341 0.952 1.658 0.952 1.853 1.147 L 2.853 2.147 C 3.048 2.342 3.048 2.659 2.853 2.854 C 2.755 2.952 2.627 3 2.499 3 L 2.5 3 Z " fill="rgb(255,255,255)"/></g></svg>