<?xml version="1.0" standalone="no"?><!-- Generator: Gravit.io --><svg xmlns="http://www.w3.org/2000/svg" xmlns:xlink="http://www.w3.org/1999/xlink" style="isolation:isolate" viewBox="0 0 16 16" width="16" height="16"><defs><clipPath id="_clipPath_1NNq2p0bBisgyA8KHNlLDmFDRHfFDojH"><rect width="16" height="16"/></clipPath></defs><g clip-path="url(#_clipPath_1NNq2p0bBisgyA8KHNlLDmFDRHfFDojH)"><path d=" M 15.802 13.914 C 14.072 15.226 11.409 16.01 8.678 16.01 C 5.301 16.01 2.549 14.83 1.129 12.772 C 0.462 11.806 0.093 10.661 0.032 9.37 C -0.022 8.221 0.171 6.95 0.605 5.583 C 2.087 10.031 6.227 13.514 11 13.514 C 11 13.514 6.534 12.337 3.726 8.693 C 3.724 8.691 3.687 8.645 3.623 8.557 C 3.059 7.802 2.568 6.943 2.2 5.971 C 1.577 4.487 1 2.452 1 0 L 3 0 C 3 0 2.696 1.912 3.224 4.11 C 4.097 3.992 4.878 3.933 5.581 3.933 C 7.42 3.933 8.727 4.331 9.696 5.186 C 10.564 5.952 11.043 6.982 11.55 8.071 C 12.324 9.736 13.201 11.622 15.748 13.078 C 15.894 13.161 15.988 13.312 15.999 13.48 C 16.01 13.649 15.936 13.81 15.802 13.912 L 15.802 13.914 Z " fill="rgb(255,255,255)"/></g></svg>