<?xml version="1.0" encoding="utf-8"?>
<!-- Generator: Adobe Illustrator 22.0.0, SVG Export Plug-In . SVG Version: 6.00 Build 0)  -->
<svg version="1.1" id="Layer_1" xmlns="http://www.w3.org/2000/svg" xmlns:xlink="http://www.w3.org/1999/xlink" x="0px" y="0px"
	 viewBox="0 0 24 24" style="enable-background:new 0 0 24 24;" xml:space="preserve">
<style type="text/css">
	.st0{fill:#C09A00;}
	.st1{clip-path:url(#SVGID_2_);}
	.st2{fill:#FFFFFF;}
</style>
<circle class="st0" cx="12" cy="12" r="12"/>
<g>
	<defs>
		<rect id="SVGID_1_" x="4" y="4.5" width="16" height="16"/>
	</defs>
	<clipPath id="SVGID_2_">
		<use xlink:href="#SVGID_1_"  style="overflow:visible;"/>
	</clipPath>
	<g class="st1">
		<path class="st2" d="M19.802,18.414c-1.73,1.312-4.393,2.096-7.124,2.096c-3.377,0-6.129-1.18-7.549-3.238
			c-0.667-0.966-1.036-2.111-1.097-3.402c-0.054-1.149,0.139-2.42,0.573-3.787c1.482,4.448,5.622,7.931,10.395,7.931
			c0,0-4.466-1.177-7.274-4.821c-0.002-0.002-0.039-0.048-0.103-0.136c-0.564-0.755-1.055-1.614-1.423-2.586
			C5.577,8.987,5,6.952,5,4.5h2c0,0-0.304,1.912,0.224,4.11c0.873-0.118,1.654-0.177,2.357-0.177c1.839,0,3.146,0.398,4.115,1.253
			c0.868,0.766,1.347,1.796,1.854,2.885c0.774,1.665,1.651,3.551,4.198,5.007c0.146,0.083,0.24,0.234,0.251,0.402
			c0.011,0.169-0.063,0.33-0.197,0.432V18.414z"/>
	</g>
</g>
</svg>
