<?xml version="1.0" encoding="utf-8"?>
<!-- Generator: Adobe Illustrator 22.0.0, SVG Export Plug-In . SVG Version: 6.00 Build 0)  -->
<svg version="1.1" id="Layer_1" xmlns="http://www.w3.org/2000/svg" xmlns:xlink="http://www.w3.org/1999/xlink" x="0px" y="0px"
	 viewBox="0 0 24 24" style="enable-background:new 0 0 24 24;" xml:space="preserve">
<style type="text/css">
	.st0{fill:#64953F;}
</style>
<g>
	<path class="st0" d="M11.3,9v14c0,0.5-0.4,1-1,1h-3c-0.5,0-1-0.4-1-1V9c0-0.5,0.4-1,1-1h3C10.9,8,11.3,8.4,11.3,9z"/>
</g>
<g>
	<path class="st0" d="M17.7,5v18c0,0.5-0.4,1-1,1h-3c-0.5,0-1-0.4-1-1V5c0-0.5,0.4-1,1-1h3C17.2,4,17.7,4.4,17.7,5z"/>
</g>
<g>
	<path class="st0" d="M5,13v10c0,0.5-0.4,1-1,1H1c-0.5,0-1-0.4-1-1V13c0-0.5,0.4-1,1-1h3C4.6,12,5,12.4,5,13z"/>
</g>
<g>
	<path class="st0" d="M24,1v22c0,0.5-0.4,1-1,1h-3c-0.5,0-1-0.4-1-1V1c0-0.5,0.4-1,1-1h3C23.6,0,24,0.4,24,1z"/>
</g>
</svg>
