<?xml version="1.0" encoding="utf-8"?>
<!-- Generator: Adobe Illustrator 22.0.0, SVG Export Plug-In . SVG Version: 6.00 Build 0)  -->
<svg version="1.1" id="Layer_1" xmlns="http://www.w3.org/2000/svg" xmlns:xlink="http://www.w3.org/1999/xlink" x="0px" y="0px"
	 viewBox="0 0 24 24" style="enable-background:new 0 0 24 24;" xml:space="preserve">
<style type="text/css">
	.st0{fill:#B6AABF;}
	.st1{fill:#64933A;}
	.st2{fill:#64953F;}
</style>
<g>
	<path class="st0" d="M23.00257,0.49998c0.27428,0,0.49743,0.22315,0.49743,0.49744v3.00513
		c0,0.27428-0.22315,0.49743-0.49744,0.49743H0.99744C0.72315,4.49998,0.5,4.27682,0.5,4.00253V0.99742
		c0-0.27429,0.22315-0.49744,0.49744-0.49744H23.00257 M23.00257-0.00002H0.99744C0.44885-0.00002,0,0.44883,0,0.99742v3.00512
		c0,0.54859,0.44885,0.99744,0.99744,0.99744h22.00512C23.55115,4.99998,24,4.55112,24,4.00254V0.99742
		C24,0.44883,23.55115-0.00002,23.00257-0.00002L23.00257-0.00002z"/>
</g>
<g>
	<path class="st0" d="M23.00257,6.83331c0.27428,0,0.49743,0.22315,0.49743,0.49744v3.00513
		c0,0.27428-0.22315,0.49743-0.49744,0.49743H0.99744c-0.27429,0-0.49744-0.22315-0.49744-0.49744V7.33075
		c0-0.27429,0.22315-0.49744,0.49744-0.49744H23.00257 M23.00257,6.33331H0.99744C0.44885,6.33331,0,6.78216,0,7.33075v3.00512
		c0,0.54859,0.44885,0.99744,0.99744,0.99744h22.00512c0.54859,0,0.99744-0.44885,0.99744-0.99743V7.33075
		C24,6.78216,23.55115,6.33331,23.00257,6.33331L23.00257,6.33331z"/>
</g>
<path class="st1" d="M23.00256,17.66664H0.99744C0.44885,17.66664,0,17.21778,0,16.6692v-3.00513
	c0-0.54859,0.44885-0.99744,0.99744-0.99744h22.00513c0.54859,0,0.99744,0.44885,0.99744,0.99744v3.00513
	C24,17.21778,23.55115,17.66664,23.00256,17.66664z"/>
<path class="st2" d="M23.00256,23.99997H0.99744C0.44885,23.99997,0,23.55112,0,23.00253v-3.00513
	c0-0.54858,0.44885-0.99743,0.99744-0.99743h22.00513C23.55115,18.99996,24,19.44881,24,19.9974v3.00513
	C24,23.55112,23.55115,23.99997,23.00256,23.99997z"/>
</svg>
