<?xml version="1.0" encoding="utf-8"?>
<!-- Generator: Adobe Illustrator 22.0.0, SVG Export Plug-In . SVG Version: 6.00 Build 0)  -->
<svg version="1.1" id="Layer_1" xmlns="http://www.w3.org/2000/svg" xmlns:xlink="http://www.w3.org/1999/xlink" x="0px" y="0px"
	 viewBox="0 0 24 24" style="enable-background:new 0 0 24 24;" xml:space="preserve">
<style type="text/css">
	.st0{fill:#80404E;}
	.st1{fill:#64933A;}
	.st2{fill:#64953F;}
</style>
<path class="st0" d="M23.00256,5H0.99744C0.44885,5,0,4.55115,0,4.00256V0.99744C0,0.44885,0.44885,0,0.99744,0l22.00513,0
	C23.55115,0,24,0.44885,24,0.99744v3.00513C24,4.55115,23.55115,5,23.00256,5z"/>
<path class="st0" d="M23.00256,11.33333H0.99744C0.44885,11.33333,0,10.88448,0,10.33589V7.33077
	c0-0.54859,0.44885-0.99744,0.99744-0.99744h22.00513C23.55115,6.33333,24,6.78218,24,7.33077v3.00513
	C24,10.88448,23.55115,11.33333,23.00256,11.33333z"/>
<path class="st1" d="M23.00256,17.66667H0.99744C0.44885,17.66667,0,17.21782,0,16.66923v-3.00513
	c0-0.54859,0.44885-0.99744,0.99744-0.99744h22.00513c0.54859,0,0.99744,0.44885,0.99744,0.99744v3.00513
	C24,17.21782,23.55115,17.66667,23.00256,17.66667z"/>
<path class="st2" d="M23.00256,24H0.99744C0.44885,24,0,23.55115,0,23.00256v-3.00513C0,19.44885,0.44885,19,0.99744,19h22.00513
	C23.55115,19,24,19.44885,24,19.99744v3.00513C24,23.55115,23.55115,24,23.00256,24z"/>
</svg>
