<?xml version="1.0" encoding="utf-8"?>
<!-- Generator: Adobe Illustrator 22.0.0, SVG Export Plug-In . SVG Version: 6.00 Build 0)  -->
<svg version="1.1" id="Layer_1" xmlns="http://www.w3.org/2000/svg" xmlns:xlink="http://www.w3.org/1999/xlink" x="0px" y="0px"
	 viewBox="0 0 24 24" style="enable-background:new 0 0 24 24;" xml:space="preserve">
<style type="text/css">
	.st0{fill:#B6AABF;}
	.st1{fill:#64953F;}
</style>
<g>
	<path class="st0" d="M23.00257,0.49998c0.27428,0,0.49743,0.22315,0.49743,0.49744v3.00513
		c0,0.27428-0.22315,0.49743-0.49744,0.49743H0.99744C0.72315,4.49998,0.5,4.27683,0.5,4.00254V0.99743
		c0-0.27429,0.22315-0.49744,0.49744-0.49744H23.00257 M23.00257-0.00002H0.99744C0.44885-0.00002,0,0.44884,0,0.99743v3.00512
		c0,0.54859,0.44885,0.99744,0.99744,0.99744h22.00512C23.55115,4.99998,24,4.55113,24,4.00255V0.99743
		C24,0.44884,23.55115-0.00002,23.00257-0.00002L23.00257-0.00002z"/>
</g>
<g>
	<path class="st0" d="M23.00257,6.83331c0.27428,0,0.49743,0.22315,0.49743,0.49744v3.00513
		c0,0.27428-0.22315,0.49743-0.49744,0.49743H0.99744c-0.27429,0-0.49744-0.22315-0.49744-0.49744V7.33076
		c0-0.27429,0.22315-0.49744,0.49744-0.49744H23.00257 M23.00257,6.33331H0.99744C0.44885,6.33331,0,6.78217,0,7.33076v3.00512
		c0,0.54859,0.44885,0.99744,0.99744,0.99744h22.00512c0.54859,0,0.99744-0.44885,0.99744-0.99743V7.33076
		C24,6.78217,23.55115,6.33331,23.00257,6.33331L23.00257,6.33331z"/>
</g>
<g>
	<path class="st0" d="M23.00257,13.16665c0.27429,0,0.49744,0.22315,0.49744,0.49744v3.0051
		c-0.00001,0.27431-0.22317,0.49747-0.49746,0.49747H0.99744C0.72315,17.16666,0.5,16.9435,0.5,16.66921v-3.00512
		c0-0.27429,0.22315-0.49744,0.49744-0.49744H23.00257 M23.00257,12.66665H0.99744C0.44885,12.66665,0,13.1155,0,13.66409v3.00512
		c0,0.54859,0.44885,0.99745,0.99744,0.99745h22.00512c0.54859,0,0.99744-0.44886,0.99746-0.99745v-3.00512
		C24.00002,13.11549,23.55117,12.66665,23.00257,12.66665L23.00257,12.66665z"/>
</g>
<path class="st1" d="M23.00256,23.99998H0.99744C0.44885,23.99998,0,23.55113,0,23.00254v-3.00513
	c0-0.54858,0.44885-0.99743,0.99744-0.99743h22.00513c0.54858,0,0.99743,0.44885,0.99743,0.99744v3.00513
	C24,23.55113,23.55115,23.99998,23.00256,23.99998z"/>
</svg>
