<?xml version="1.0" encoding="utf-8"?>
<!-- Generator: Adobe Illustrator 22.0.0, SVG Export Plug-In . SVG Version: 6.00 Build 0)  -->
<svg version="1.1" id="Layer_1" xmlns="http://www.w3.org/2000/svg" xmlns:xlink="http://www.w3.org/1999/xlink" x="0px" y="0px"
	 viewBox="0 0 24 24" style="enable-background:new 0 0 24 24;" xml:space="preserve">
<style type="text/css">
	.st0{fill:#64933F;}
	.st1{fill:#649640;}
	.st2{fill:#48502B;}
</style>
<path class="st0" d="M23.00256,5H0.99744C0.44885,5,0,4.55115,0,4.00256V0.99744C0,0.44885,0.44885,0,0.99744,0h22.00513
	C23.55115,0,24,0.44885,24,0.99744v3.00513C24,4.55115,23.55115,5,23.00256,5z"/>
<path class="st1" d="M23.00256,24H0.99744C0.44885,24,0,23.55115,0,23.00256v-3.00513C0,19.44885,0.44885,19,0.99744,19h22.00513
	C23.55115,19,24,19.44885,24,19.99744v3.00513C24,23.55115,23.55115,24,23.00256,24z"/>
<g>
	<path class="st2" d="M4.2526,11.99957V9.36672h1.22101v2.63285h2.63188v1.22003H5.47361v2.63285H4.2526v-2.63285H1.62072v-1.22003
		H4.2526z"/>
	<path class="st2" d="M17.19925,15.79209c-0.43037,0.2074-0.90358,0.36903-1.41769,0.4849
		c-0.51459,0.1149-1.10757,0.17332-1.77747,0.17332c-0.68645,0-1.31253-0.11003-1.87825-0.32911
		c-0.56669-0.21908-1.05256-0.52677-1.45956-0.92111c-0.407-0.39532-0.72442-0.86561-0.95129-1.41185
		C9.48715,13.242,9.3742,12.63734,9.3742,11.97523c0-0.67769,0.11684-1.29014,0.35248-1.83638
		c0.23563-0.54673,0.55792-1.01118,0.96882-1.39432c0.4109-0.38266,0.89579-0.67769,1.45372-0.88508
		c0.5589-0.2074,1.16453-0.31109,1.81885-0.31109c0.67769,0,1.2989,0.09786,1.86121,0.29308
		c0.56279,0.19571,1.01458,0.45276,1.3583,0.77165L16.1467,9.73769c-0.21616-0.23904-0.51703-0.44254-0.90407-0.61002
		c-0.38753-0.16747-0.80816-0.25121-1.2619-0.25121c-0.44692,0-0.85198,0.07984-1.21516,0.23904
		c-0.36319,0.15968-0.67185,0.37925-0.92695,0.65821c-0.25511,0.27945-0.45276,0.60612-0.592,0.98099
		c-0.14021,0.37487-0.20934,0.78187-0.20934,1.22052c0,0.45471,0.06913,0.87145,0.20934,1.25022
		c0.13924,0.37974,0.33884,0.70787,0.59784,0.98732c0.259,0.27945,0.57448,0.49658,0.94545,0.65237
		c0.37098,0.15579,0.79161,0.23271,1.2619,0.23271c0.64653,0,1.20835-0.09932,1.68789-0.29892v-2.1538h-1.78331v-1.24437h3.24287
		V15.79209z"/>
	<path class="st2" d="M18.95774,10.49182h1.37582v0.95714h0.02337c0.15969-0.33544,0.38363-0.60612,0.67087-0.814
		c0.28626-0.20691,0.62219-0.31109,1.00485-0.31109c0.0555,0,0.11489,0.00243,0.17916,0.00633
		c0.06426,0.00389,0.11976,0.01412,0.16747,0.0297v1.31643c-0.09542-0.02434-0.17721-0.03992-0.24537-0.0482
		c-0.06718-0.00779-0.13339-0.01168-0.19766-0.01168c-0.32716,0-0.59006,0.05988-0.78966,0.17916
		c-0.19863,0.11976-0.35442,0.26338-0.4664,0.43086c-0.11197,0.16747-0.18695,0.33982-0.22687,0.51508
		s-0.06037,0.3145-0.06037,0.41869v3.07491h-1.43522V10.49182z"/>
</g>
</svg>
