<?xml version="1.0" encoding="utf-8"?>
<!-- Generator: Adobe Illustrator 22.0.0, SVG Export Plug-In . SVG Version: 6.00 Build 0)  -->
<svg version="1.1" id="Layer_1" xmlns="http://www.w3.org/2000/svg" xmlns:xlink="http://www.w3.org/1999/xlink" x="0px" y="0px"
	 viewBox="0 0 24 24" style="enable-background:new 0 0 24 24;" xml:space="preserve">
<style type="text/css">
	.st0{fill:#669640;}
	.st1{fill:#004A2C;}
</style>
<path class="st0" d="M22.00418,5.99694H1.99581C1.44812,5.99694,1,5.54882,1,5.00113V2.00091
	C1,1.45321,1.44812,1.0051,1.99581,1.0051H22.0042C22.55188,1.00509,23,1.45321,23,2.00091v3.00023
	C23,5.54882,22.55188,5.99694,22.00418,5.99694z"/>
<path class="st0" d="M22.00486,22.96343L1.99514,22.99419C1.44781,22.99419,1,22.54638,1,21.99905v-2.99819
	c0-0.54731,0.44781-0.99512,0.99514-0.99512l20.00974-0.03075C22.55219,17.97499,23,18.4228,23,18.97012v2.99819
	C23,22.51562,22.55219,22.96343,22.00486,22.96343z"/>
<g>
	<path class="st1" d="M4.89893,11.92578V9.60449H5.9751v2.32129h2.32129v1.07617H5.9751v2.32129H4.89893v-2.32129H2.57764v-1.07617
		H4.89893z"/>
	<path class="st1" d="M16.42188,15.1123c-0.92188,0.49219-1.95215,0.73828-3.0918,0.73828
		c-0.57715,0-1.10645-0.09277-1.58838-0.2793s-0.89697-0.4502-1.24512-0.79102c-0.34814-0.3418-0.62109-0.75098-0.81787-1.22949
		S9.3833,12.54102,9.3833,11.95752c0-0.59766,0.09863-1.14111,0.29541-1.63037c0.19678-0.48877,0.46973-0.90576,0.81787-1.25049
		c0.34814-0.34424,0.76318-0.60986,1.24512-0.79639s1.01123-0.27979,1.58838-0.27979c0.56934,0,1.10449,0.06885,1.60352,0.20605
		c0.5,0.13721,0.94629,0.38135,1.33984,0.73291l-0.98047,0.99219c-0.23926-0.23242-0.53027-0.41162-0.87109-0.53809
		c-0.34082-0.12695-0.70117-0.18994-1.08105-0.18994c-0.3877,0-0.7373,0.06836-1.0498,0.20557
		c-0.31396,0.13721-0.58301,0.32715-0.80811,0.56982s-0.39893,0.52588-0.52197,0.84961
		c-0.12354,0.32324-0.18457,0.67188-0.18457,1.04443c0,0.40039,0.06104,0.77051,0.18457,1.1084
		c0.12305,0.33691,0.29688,0.62891,0.52197,0.875c0.2251,0.24707,0.49414,0.44043,0.80811,0.58105
		c0.3125,0.14062,0.66211,0.21094,1.0498,0.21094c0.33691,0,0.65527-0.03223,0.9541-0.0957
		c0.2998-0.0625,0.56543-0.16113,0.79688-0.29492v-1.76172h-1.5293v-1.20361h2.85938v3.81983H16.42188z"/>
	<path class="st1" d="M17.87695,10.59619h1.2666v0.80225h0.02148c0.14062-0.29541,0.34082-0.52393,0.60156-0.68604
		c0.25977-0.16162,0.55859-0.24268,0.89648-0.24268c0.07715,0,0.15332,0.00684,0.22656,0.021
		c0.07422,0.01416,0.14941,0.03174,0.22754,0.05273v1.22412c-0.10547-0.02783-0.20996-0.05078-0.31152-0.06885
		c-0.10254-0.01709-0.20215-0.02637-0.30078-0.02637c-0.2959,0-0.5332,0.05469-0.71191,0.16357
		c-0.17969,0.10938-0.31738,0.23438-0.41211,0.375s-0.1582,0.28125-0.18945,0.42188
		c-0.03223,0.14062-0.04785,0.24609-0.04785,0.31641v2.71191h-1.2666C17.87695,15.66112,17.87695,10.59619,17.87695,10.59619z"/>
</g>
</svg>
