<?xml version="1.0" encoding="utf-8"?>
<!-- Generator: Adobe Illustrator 22.0.0, SVG Export Plug-In . SVG Version: 6.00 Build 0)  -->
<svg version="1.1" id="Layer_1" xmlns="http://www.w3.org/2000/svg" xmlns:xlink="http://www.w3.org/1999/xlink" x="0px" y="0px"
	 width="24px" height="24px" viewBox="0 0 24 24" style="enable-background:new 0 0 24 24;" xml:space="preserve">
<style type="text/css">
	.st0{fill:#B6AABE;}
</style>
<rect x="-0.02689" class="st0" width="24" height="24"/>
<g>
	<path d="M10.12842,14.82422c-1.13574,0.60645-2.40527,0.91016-3.80908,0.91016c-0.71094,0-1.36279-0.11523-1.95654-0.34473
		s-1.10498-0.55469-1.53418-0.97559c-0.42871-0.41992-0.76465-0.9248-1.00732-1.51367
		c-0.24268-0.58984-0.36377-1.24414-0.36377-1.96338c0-0.73633,0.12109-1.40625,0.36377-2.0083
		C2.06396,8.32617,2.3999,7.8125,2.82861,7.38818c0.4292-0.4248,0.94043-0.75195,1.53418-0.98145
		C4.95654,6.17676,5.6084,6.06201,6.31934,6.06201c0.70215,0,1.36035,0.08447,1.97607,0.25342
		c0.61523,0.16895,1.16553,0.47021,1.65088,0.90381L8.7373,8.44092C8.44238,8.15479,8.08496,7.93408,7.66504,7.77783
		c-0.4209-0.15576-0.86475-0.23389-1.33252-0.23389c-0.47705,0-0.9082,0.08447-1.29395,0.25342
		c-0.38525,0.16895-0.7168,0.40332-0.99414,0.70215S3.55225,9.14746,3.40088,9.5459
		c-0.15186,0.39893-0.22754,0.82764-0.22754,1.28711c0,0.49414,0.07568,0.94922,0.22754,1.36523
		c0.15137,0.41504,0.36621,0.77539,0.64355,1.0791c0.27734,0.30273,0.60889,0.54102,0.99414,0.71484
		c0.38574,0.17383,0.81689,0.25977,1.29395,0.25977c0.41602,0,0.80762-0.03906,1.17627-0.11719
		c0.36816-0.07812,0.69531-0.19922,0.98145-0.36328V11.6001H6.60547v-1.48193h3.52295V14.82422z"/>
	<path d="M11.92188,9.25977h1.56055v0.98828h0.02637c0.17285-0.36426,0.41992-0.64551,0.74023-0.84521
		C14.57031,9.20361,14.93848,9.104,15.35449,9.104c0.09473,0,0.18848,0.00879,0.2793,0.02588
		c0.09082,0.01758,0.18359,0.03906,0.2793,0.06494v1.5083c-0.12988-0.03467-0.25781-0.06299-0.38281-0.08447
		c-0.12598-0.02148-0.25-0.03271-0.37109-0.03271c-0.36426,0-0.65625,0.06738-0.87695,0.20166
		c-0.22168,0.13428-0.39062,0.28809-0.50781,0.46143c-0.11621,0.17334-0.19434,0.34668-0.2334,0.52002
		s-0.05859,0.30322-0.05859,0.39014V15.5h-1.56055V9.25977z"/>
	<path d="M20.87988,14.64258h-0.03906c-0.22559,0.35547-0.51172,0.6123-0.8584,0.77246
		c-0.34668,0.16113-0.72754,0.24121-1.14355,0.24121c-0.28613,0-0.56543-0.03906-0.83887-0.11719s-0.51562-0.19434-0.72852-0.35156
		c-0.21191-0.15527-0.38281-0.35059-0.5127-0.58398c-0.12988-0.23438-0.19531-0.50781-0.19531-0.81934
		c0-0.33887,0.06055-0.62598,0.18164-0.86426c0.12207-0.23828,0.28418-0.4375,0.48828-0.59863
		c0.20312-0.16016,0.43945-0.28809,0.70801-0.3833s0.54785-0.16699,0.83887-0.21436
		c0.29004-0.04785,0.58301-0.07812,0.87695-0.09131c0.29492-0.0127,0.57227-0.01953,0.83203-0.01953h0.39062v-0.16895
		c0-0.38965-0.13477-0.68213-0.40332-0.87744c-0.26855-0.19482-0.61133-0.29248-1.02734-0.29248
		c-0.3291,0-0.63672,0.05859-0.92285,0.17578c-0.28613,0.1167-0.5332,0.2749-0.74121,0.47412l-0.81836-0.81885
		c0.34668-0.35547,0.75098-0.61084,1.21582-0.76709C18.64551,9.18213,19.125,9.104,19.61914,9.104
		c0.44141,0,0.81445,0.0498,1.11719,0.14941c0.30371,0.09961,0.55469,0.22754,0.75391,0.38379
		c0.2002,0.15576,0.35352,0.33594,0.46191,0.53906c0.1084,0.2041,0.18652,0.40967,0.23438,0.61768
		c0.04688,0.20801,0.0752,0.40967,0.08398,0.60449s0.01367,0.36621,0.01367,0.51367V15.5h-1.4043V14.64258z M20.78906,12.70508
		h-0.3252c-0.2168,0-0.45996,0.00879-0.72852,0.02539c-0.26855,0.01758-0.52148,0.05859-0.75977,0.12402
		c-0.23926,0.06543-0.44043,0.16113-0.60449,0.28613c-0.16504,0.125-0.24707,0.30078-0.24707,0.52637
		c0,0.14746,0.03223,0.27051,0.09766,0.37012c0.06445,0.09961,0.14941,0.18457,0.25293,0.25391
		c0.10449,0.06934,0.2207,0.11914,0.35156,0.14941c0.12988,0.03027,0.25977,0.0459,0.38965,0.0459
		c0.53711,0,0.93359-0.12793,1.18945-0.38379c0.25586-0.25488,0.38379-0.60449,0.38379-1.0459V12.70508z"/>
</g>
</svg>
