<?xml version="1.0" encoding="utf-8"?>
<!-- Generator: Adobe Illustrator 22.0.0, SVG Export Plug-In . SVG Version: 6.00 Build 0)  -->
<svg version="1.1" id="Layer_1" xmlns="http://www.w3.org/2000/svg" xmlns:xlink="http://www.w3.org/1999/xlink" x="0px" y="0px"
	 viewBox="0 0 24 24" style="enable-background:new 0 0 24 24;" xml:space="preserve">
<style type="text/css">
	.st0{fill:#B6AABE;}
</style>
<polygon class="st0" points="1,1 23,1 23,23 5.01937,23 1,23 "/>
<g>
	<path d="M11.33057,14.82422c-1.13574,0.60645-2.40527,0.91016-3.80908,0.91016c-0.71094,0-1.36279-0.11523-1.95654-0.34473
		s-1.10498-0.55469-1.53418-0.97461c-0.42871-0.4209-0.76465-0.92578-1.00732-1.51465
		c-0.24268-0.58984-0.36377-1.24414-0.36377-1.96338c0-0.73633,0.12109-1.40625,0.36377-2.0083
		c0.24266-0.60254,0.5786-1.11621,1.00731-1.54053c0.4292-0.4248,0.94043-0.75195,1.53418-0.98145
		C6.15869,6.17675,6.81055,6.062,7.52148,6.062c0.70215,0,1.36035,0.08447,1.97607,0.25342
		c0.61523,0.16895,1.16553,0.47021,1.65088,0.90381L9.93945,8.44092C9.64453,8.15479,9.28711,7.93408,8.86719,7.77783
		c-0.4209-0.15576-0.86475-0.23389-1.33252-0.23389c-0.47705,0-0.9082,0.08447-1.29395,0.25342
		c-0.38525,0.16895-0.7168,0.40332-0.99414,0.70215S4.75439,9.14746,4.60303,9.5459
		c-0.15186,0.39893-0.22754,0.82764-0.22754,1.28711c0,0.49414,0.07568,0.94922,0.22754,1.36523
		c0.15137,0.41602,0.36621,0.77539,0.64355,1.0791s0.60889,0.54199,0.99414,0.71484
		c0.38574,0.17383,0.81689,0.25977,1.29395,0.25977c0.41602,0,0.80762-0.03906,1.17627-0.11719
		c0.36816-0.07715,0.69531-0.19922,0.98145-0.36328V11.6001H7.80762v-1.48193h3.52295V14.82422z"/>
	<path d="M13.26758,6.2959h1.6377v3.66602h4.30273V6.2959h1.63867V15.5h-1.63867v-4.05615h-4.30273V15.5h-1.6377
		C13.26758,15.5,13.26758,6.2959,13.26758,6.2959z"/>
</g>
</svg>
