<?xml version="1.0" encoding="utf-8"?>
<!-- Generator: Adobe Illustrator 22.0.0, SVG Export Plug-In . SVG Version: 6.00 Build 0)  -->
<svg version="1.1" id="Layer_1" xmlns="http://www.w3.org/2000/svg" xmlns:xlink="http://www.w3.org/1999/xlink" x="0px" y="0px"
	 viewBox="0 0 24 24" style="enable-background:new 0 0 24 24;" xml:space="preserve">
<style type="text/css">
	.st0{fill:#B6AABE;}
</style>
<rect x="0" class="st0" width="24" height="24"/>
<g>
	<path d="M11.3,14.8c-1.1,0.6-2.4,0.9-3.8,0.9c-0.7,0-1.4-0.1-2-0.3s-1.1-0.6-1.5-1c-0.4-0.4-0.8-0.9-1-1.5c-0.2-0.6-0.4-1.2-0.4-2
		c0-0.7,0.1-1.4,0.4-2c0.2-0.6,0.6-1.1,1-1.5C4.5,7,5,6.6,5.6,6.4c0.6-0.2,1.2-0.3,2-0.3c0.7,0,1.4,0.1,2,0.3
		c0.6,0.2,1.2,0.5,1.7,0.9L9.9,8.4C9.6,8.2,9.3,7.9,8.9,7.8C8.4,7.6,8,7.5,7.5,7.5c-0.5,0-0.9,0.1-1.3,0.3C5.9,8,5.5,8.2,5.2,8.5
		s-0.5,0.6-0.6,1c-0.2,0.4-0.2,0.8-0.2,1.3c0,0.5,0.1,0.9,0.2,1.4C4.8,12.6,5,13,5.2,13.3s0.6,0.5,1,0.7c0.4,0.2,0.8,0.3,1.3,0.3
		c0.4,0,0.8,0,1.2-0.1c0.4-0.1,0.7-0.2,1-0.4v-2.2H7.8v-1.5h3.5V14.8z"/>
	<path d="M13.3,6.3h1.6V10h4.3V6.3h1.6v9.2h-1.6v-4.1h-4.3v4.1h-1.6V6.3z"/>
</g>
</svg>
