<?xml version="1.0" encoding="utf-8"?>
<!-- Generator: Adobe Illustrator 22.0.0, SVG Export Plug-In . SVG Version: 6.00 Build 0)  -->
<svg version="1.1" id="Layer_1" xmlns="http://www.w3.org/2000/svg" xmlns:xlink="http://www.w3.org/1999/xlink" x="0px" y="0px"
	 viewBox="0 0 24 24" style="enable-background:new 0 0 24 24;" xml:space="preserve">
<style type="text/css">
	.st0{fill:#64933A;}
	.st1{fill:#64953F;}
	.st2{fill:#47502B;}
</style>
<path class="st0" d="M23.00256,4.99999H0.99744C0.44885,4.99999,0,4.55114,0,4.00255V0.99743
	c0-0.54859,0.44885-0.99744,0.99744-0.99744h22.00513C23.55115-0.00001,24,0.44884,24,0.99743v3.00513
	C24,4.55114,23.55115,4.99999,23.00256,4.99999z"/>
<path class="st1" d="M23.00256,23.99998H0.99744C0.44885,23.99998,0,23.55113,0,23.00254v-3.00513
	c0-0.54858,0.44885-0.99743,0.99744-0.99743h22.00513c0.54858,0,0.99743,0.44885,0.99743,0.99744v3.00513
	C24,23.55113,23.55115,23.99998,23.00256,23.99998z"/>
<g>
	<path class="st2" d="M0,7.76308h2.29805l2.26209,5.93664l2.28591-5.93664h2.27423v8.47384H7.684V9.19936H7.66017l-2.57362,7.03756
		H4.03328L1.46011,9.19936H1.43628v7.03756H0V7.76308z"/>
	<path class="st2" d="M10.44823,7.76308h2.84919c0.40639,0,0.79928,0.04001,1.1787,0.11958
		c0.37851,0.08002,0.71207,0.21398,0.99888,0.40099c0.28771,0.18791,0.51697,0.4392,0.6887,0.75433
		c0.17172,0.31513,0.25714,0.70803,0.25714,1.1787c0,0.5345-0.09171,0.96561-0.27512,1.29288s-0.43066,0.58036-0.74174,0.75972
		c-0.31198,0.17982-0.67251,0.30119-1.08339,0.36503s-0.83974,0.09575-1.28659,0.09575h-1.0771v3.50687h-1.50866V7.76308z
		 M12.86586,11.43762c0.21578,0,0.43875-0.00809,0.67071-0.02383c0.23106-0.01618,0.44505-0.06384,0.64015-0.14385
		c0.1951-0.07957,0.35514-0.19915,0.47921-0.35918c0.12317-0.15959,0.18521-0.38301,0.18521-0.67027
		c0-0.26298-0.05574-0.47247-0.16723-0.62801c-0.11239-0.15554-0.25624-0.27557-0.43156-0.35918
		c-0.17532-0.08361-0.37042-0.13756-0.5862-0.16183c-0.21578-0.02383-0.42257-0.03551-0.62216-0.03551h-1.0771v2.38167H12.86586z"/>
	<path class="st2" d="M19.01827,7.76308h1.30457l3.65027,8.47384h-1.72354l-0.78939-1.93842h-3.67455l-0.76602,1.93842h-1.68758
		L19.01827,7.76308z M20.93332,13.00562l-1.30457-3.44708l-1.32884,3.44708H20.93332z"/>
</g>
</svg>
