<?xml version="1.0" encoding="utf-8"?>
<!-- Generator: Adobe Illustrator 22.0.0, SVG Export Plug-In . SVG Version: 6.00 Build 0)  -->
<svg version="1.1" id="Layer_1" xmlns="http://www.w3.org/2000/svg" xmlns:xlink="http://www.w3.org/1999/xlink" x="0px" y="0px"
	 viewBox="0 0 24 24" style="enable-background:new 0 0 24 24;" xml:space="preserve">
<style type="text/css">
	.st0{fill:#669640;}
	.st1{fill:#004A2C;}
</style>
<path class="st0" d="M22.00418,5.99694H1.99581C1.44812,5.99694,1,5.54882,1,5.00113V2.00091
	c0-0.5477,0.44812-0.99581,0.99581-0.99581H22.0042C22.55188,1.00509,23,1.45321,23,2.00091v3.00023
	C23,5.54882,22.55188,5.99694,22.00418,5.99694z"/>
<path class="st0" d="M22.00486,22.96343L1.99514,22.99419C1.44781,22.99419,1,22.54638,1,21.99905v-2.99819
	c0-0.54731,0.44781-0.99512,0.99514-0.99512l20.00974-0.03075C22.55219,17.97499,23,18.4228,23,18.97012v2.99819
	C23,22.51562,22.55219,22.96343,22.00486,22.96343z"/>
<g>
	<path class="st1" d="M1.45898,8.19043h2.02588l1.99414,5.2334l2.01562-5.2334h2.00488v7.4707H8.2334V9.45654H8.21191
		l-2.26855,6.20459H5.01514L2.74609,9.45654h-0.021v6.20459H1.45898V8.19043z"/>
	<path class="st1" d="M10.67041,8.19043h2.51123c0.35938,0,0.70508,0.03516,1.04004,0.10547
		c0.33398,0.07031,0.62793,0.18848,0.88086,0.35352c0.25293,0.16553,0.45508,0.38721,0.60645,0.66504
		s0.22754,0.62402,0.22754,1.03906c0,0.47168-0.08105,0.85156-0.24316,1.13965c-0.16211,0.28857-0.37988,0.51172-0.6543,0.66992
		s-0.59277,0.26562-0.95508,0.32129c-0.3623,0.05664-0.74023,0.08496-1.13379,0.08496H12v3.0918h-1.32959V8.19043z
		 M12.80176,11.42969c0.19043,0,0.3877-0.00684,0.5918-0.021c0.20312-0.01416,0.3916-0.05615,0.56445-0.12646
		c0.17188-0.07031,0.3125-0.17578,0.42188-0.31641c0.1084-0.14062,0.16309-0.33789,0.16309-0.59131
		c0-0.23193-0.04883-0.4165-0.14746-0.55371s-0.22559-0.24268-0.37988-0.31641c-0.15527-0.07422-0.32715-0.12158-0.5166-0.14258
		c-0.19043-0.021-0.37305-0.03174-0.54883-0.03174H12v2.09961H12.80176z"/>
	<path class="st1" d="M18.22559,8.19043h1.15039l3.21777,7.4707H21.0752l-0.69727-1.70898h-3.23926l-0.6748,1.70898h-1.48828
		L18.22559,8.19043z M19.91406,12.8125l-1.15039-3.03906l-1.1709,3.03906H19.91406z"/>
</g>
</svg>
