<?xml version="1.0" encoding="utf-8"?>
<!-- Generator: Adobe Illustrator 22.0.0, SVG Export Plug-In . SVG Version: 6.00 Build 0)  -->
<svg version="1.1" id="Layer_1" xmlns="http://www.w3.org/2000/svg" xmlns:xlink="http://www.w3.org/1999/xlink" x="0px" y="0px"
	 viewBox="0 0 24 24" style="enable-background:new 0 0 24 24;" xml:space="preserve">
<style type="text/css">
	.st0{fill:#669640;}
	.st1{fill:#004A2C;}
</style>
<path class="st0" d="M22.00418,5.99694H1.99581C1.44812,5.99694,1,5.54882,1,5.00113V2.00091
	c0-0.5477,0.44812-0.99581,0.99581-0.99581H22.0042C22.55188,1.00509,23,1.45321,23,2.00091v3.00023
	C23,5.54882,22.55188,5.99694,22.00418,5.99694z"/>
<path class="st0" d="M22.00486,22.96343L1.99514,22.99419C1.44781,22.99419,1,22.54638,1,21.99905v-2.99819
	c0-0.54731,0.44781-0.99512,0.99514-0.99512l20.00974-0.03075C22.55219,17.97499,23,18.4228,23,18.97012v2.99819
	C23,22.51562,22.55219,22.96343,22.00486,22.96343z"/>
<g>
	<path class="st1" d="M3.44775,8.19043h2.02588l1.99414,5.2334l2.01562-5.2334h2.00488v7.4707h-1.26611V9.45654h-0.02148
		l-2.26855,6.20459H7.00391L4.73486,9.45654h-0.021v6.20459H3.44775V8.19043z"/>
	<path class="st1" d="M12.38525,8.87646c0-0.2041,0.0752-0.38184,0.22656-0.53271c0.15137-0.15137,0.34277-0.22705,0.5752-0.22705
		s0.42773,0.07227,0.58594,0.21631s0.2373,0.3252,0.2373,0.54346s-0.0791,0.39941-0.2373,0.54346s-0.35352,0.21631-0.58594,0.21631
		s-0.42383-0.07568-0.5752-0.22705S12.38525,9.08057,12.38525,8.87646z M12.56494,10.59619h1.26562v5.06494h-1.26562V10.59619z"/>
	<path class="st1" d="M16.93311,9.39355h-2.29004V8.19043h5.90918v1.20312h-2.29004v6.26758h-1.3291V9.39355z"/>
</g>
</svg>
