<?xml version="1.0" encoding="utf-8"?>
<!-- Generator: Adobe Illustrator 22.0.0, SVG Export Plug-In . SVG Version: 6.00 Build 0)  -->
<svg version="1.1" id="Layer_1" xmlns="http://www.w3.org/2000/svg" xmlns:xlink="http://www.w3.org/1999/xlink" x="0px" y="0px"
	 viewBox="0 0 24 24" style="enable-background:new 0 0 24 24;" xml:space="preserve">
<style type="text/css">
	.st0{fill:#669640;}
	.st1{fill:#004A2C;}
</style>
<path class="st0" d="M22.00418,5.99694H1.99581C1.44812,5.99694,1,5.54882,1,5.00113V2.00091
	c0-0.5477,0.44812-0.99581,0.99581-0.99581H22.0042C22.55188,1.00509,23,1.45321,23,2.00091v3.00023
	C23,5.54882,22.55188,5.99694,22.00418,5.99694z"/>
<path class="st0" d="M22.00486,22.96343L1.99514,22.99419C1.44781,22.99419,1,22.54638,1,21.99905v-2.99819
	c0-0.54731,0.44781-0.99512,0.99514-0.99512l20.00974-0.03075C22.55219,17.97499,23,18.4228,23,18.97012v2.99819
	C23,22.51562,22.55219,22.96343,22.00486,22.96343z"/>
<g>
	<path class="st1" d="M2.09741,8.19043h2.02588l1.99414,5.2334l2.01562-5.2334h2.00488v7.4707H8.87183V9.45654H8.85034
		l-2.26855,6.20459H5.65356L3.38452,9.45654h-0.021v6.20459H2.09741V8.19043z"/>
	<path class="st1" d="M11.30884,8.19043h4.94922v1.20312h-3.61914v1.83594h3.42871v1.20215h-3.42871v2.02637h3.80859v1.20312
		h-5.13867V8.19043z"/>
	<path class="st1" d="M20.88989,9.79443c-0.14062-0.2041-0.3291-0.35352-0.56445-0.44873
		c-0.23535-0.09473-0.4834-0.14209-0.74414-0.14209c-0.1543,0-0.30371,0.01758-0.44824,0.05273s-0.27441,0.09131-0.39062,0.16895
		c-0.11621,0.07715-0.20898,0.17773-0.2793,0.30029c-0.07031,0.12354-0.10547,0.26904-0.10547,0.43799
		c0,0.25342,0.08789,0.44678,0.26367,0.58057s0.39355,0.24951,0.6543,0.34814c0.25977,0.09863,0.54492,0.19336,0.85449,0.28467
		c0.30957,0.0918,0.59473,0.21826,0.85449,0.37988c0.26074,0.16211,0.47852,0.37598,0.6543,0.64355s0.26367,0.62305,0.26367,1.06641
		c0,0.40039-0.07324,0.75098-0.2207,1.0498c-0.14844,0.29883-0.34668,0.54688-0.59668,0.74316
		c-0.25,0.19727-0.54004,0.34473-0.87012,0.44336c-0.33105,0.09863-0.67969,0.14746-1.04492,0.14746
		c-0.46387,0-0.91113-0.07715-1.33984-0.23145c-0.42969-0.15527-0.79883-0.41504-1.1084-0.78125l1.00293-0.9707
		c0.16113,0.24609,0.37402,0.43848,0.6377,0.5752s0.54395,0.20605,0.83887,0.20605c0.15527,0,0.30957-0.02148,0.46484-0.06348
		c0.1543-0.04199,0.29492-0.10547,0.42188-0.19043c0.12695-0.08398,0.22852-0.19141,0.30566-0.32129
		c0.07812-0.12988,0.11621-0.2793,0.11621-0.44824c0-0.27441-0.08789-0.48535-0.26367-0.63379
		c-0.17578-0.14746-0.39355-0.27246-0.6543-0.37402c-0.25977-0.10156-0.54492-0.19922-0.85449-0.29102
		c-0.30957-0.09082-0.59473-0.21582-0.85449-0.37402c-0.26074-0.1582-0.47852-0.36914-0.6543-0.63281
		c-0.17578-0.26416-0.26367-0.61768-0.26367-1.06055c0-0.38672,0.0791-0.72119,0.2373-1.00244s0.36523-0.51514,0.62207-0.70166
		s0.55078-0.3252,0.88184-0.41699c0.33008-0.09131,0.66797-0.13721,1.0127-0.13721c0.39355,0,0.77539,0.06006,1.14453,0.17969
		S21.56567,8.49658,21.8606,8.771L20.88989,9.79443z"/>
</g>
</svg>
