<?xml version="1.0" encoding="utf-8"?>
<!-- Generator: Adobe Illustrator 22.0.0, SVG Export Plug-In . SVG Version: 6.00 Build 0)  -->
<svg version="1.1" id="Layer_1" xmlns="http://www.w3.org/2000/svg" xmlns:xlink="http://www.w3.org/1999/xlink" x="0px" y="0px"
	 viewBox="0 0 63.47724 25.162" style="enable-background:new 0 0 63.47724 25.162;" xml:space="preserve">
<style type="text/css">
	.st0{fill:#47502B;}
</style>
<g>
	<path class="st0" d="M0,0.60844h6.49342l6.3918,16.77467l6.45912-16.77467h6.4261v23.94385h-4.05839V4.66683h-0.06732
		l-7.27207,19.88546h-2.97615L4.12571,4.66683H4.05839v19.88546H0V0.60844z"/>
	<path class="st0" d="M29.5227,0.60844h15.86137v3.85515H33.78432v5.88498H44.7769v3.85515H33.78432v6.49469h12.20946v3.85388
		H29.5227V0.60844z"/>
	<path class="st0" d="M60.23053,5.74906c-0.4522-0.65417-1.05175-1.13305-1.80881-1.43663
		c-0.75706-0.30486-1.54968-0.45728-2.38295-0.45728c-0.49793,0-0.97554,0.05716-1.4379,0.16894
		c-0.46236,0.11305-0.879,0.29342-1.24991,0.54112c-0.37599,0.24897-0.67068,0.57033-0.89932,0.96411
		c-0.22356,0.39504-0.33534,0.86249-0.33534,1.4036c0,0.81168,0.27945,1.43155,0.84343,1.85962
		c0.56398,0.42934,1.26515,0.80025,2.09842,1.11653c0.83327,0.31629,1.74784,0.61987,2.73862,0.9133
		c0.99078,0.29342,1.90535,0.69863,2.73862,1.21688c0.83327,0.51952,1.53444,1.20672,2.09842,2.06285
		c0.56398,0.85741,0.84343,1.99553,0.84343,3.41565c0,1.28547-0.23372,2.40709-0.71133,3.36611
		c-0.47253,0.95775-1.10764,1.75292-1.91043,2.38295c-0.79771,0.63258-1.72752,1.1051-2.78943,1.42012
		c-1.05683,0.31502-2.17463,0.47507-3.34833,0.47507c-1.48871,0-2.91645-0.24897-4.29338-0.74436
		c-1.37693-0.49793-2.56078-1.3312-3.55156-2.50235l3.21114-3.11207c0.51825,0.78881,1.20418,1.40361,2.04761,1.84311
		c0.84343,0.44077,1.74276,0.65925,2.68781,0.65925c0.49793,0,0.99078-0.06605,1.48871-0.20324
		c0.49793-0.13464,0.94505-0.33788,1.35153-0.60844c0.40647-0.27056,0.73165-0.61352,0.98062-1.03143
		c0.24896-0.41664,0.37599-0.89551,0.37599-1.43663c0-0.88027-0.28453-1.55603-0.84851-2.02983
		c-0.56398-0.4738-1.26007-0.87392-2.09334-1.20037c-0.83835-0.32645-1.74784-0.63639-2.7437-0.92981
		c-0.99078-0.29342-1.90535-0.69355-2.73862-1.20037c-0.83327-0.50809-1.53444-1.18386-2.09334-2.02983
		c-0.56652-0.8447-0.84851-1.97775-0.84851-3.39787c0-1.23975,0.25404-2.31182,0.76214-3.21368
		c0.50809-0.90059,1.17369-1.6513,1.9968-2.24831c0.82311-0.59701,1.76308-1.04286,2.81991-1.33628
		C54.29093,0.14735,55.37317,0,56.47573,0c1.26515,0,2.48965,0.1918,3.67351,0.57541
		c1.18385,0.38361,2.24577,1.01364,3.1959,1.89391L60.23053,5.74906z"/>
</g>
</svg>
