<?xml version="1.0" encoding="utf-8"?>
<!-- Generator: Adobe Illustrator 22.0.0, SVG Export Plug-In . SVG Version: 6.00 Build 0)  -->
<svg version="1.1" id="Layer_1" xmlns="http://www.w3.org/2000/svg" xmlns:xlink="http://www.w3.org/1999/xlink" x="0px" y="0px"
	 viewBox="0 0 24 24" style="enable-background:new 0 0 24 24;" xml:space="preserve">
<style type="text/css">
	.st0{fill:#64933A;}
	.st1{fill:#64953F;}
	.st2{fill:#47502B;}
</style>
<path class="st0" d="M23.00256,4.99999H0.99744C0.44885,4.99999,0,4.55114,0,4.00255V0.99743
	c0-0.54859,0.44885-0.99744,0.99744-0.99744h22.00513C23.55115-0.00001,24,0.44884,24,0.99743v3.00513
	C24,4.55114,23.55115,4.99999,23.00256,4.99999z"/>
<path class="st1" d="M23.00256,23.99998H0.99744C0.44885,23.99998,0,23.55113,0,23.00254v-3.00513
	c0-0.54858,0.44885-0.99743,0.99744-0.99743h22.00513c0.54858,0,0.99743,0.44885,0.99743,0.99744v3.00513
	C24,23.55113,23.55115,23.99998,23.00256,23.99998z"/>
<g>
	<path class="st2" d="M0.76587,7.74903h2.2984l2.26243,5.93753l2.28626-5.93753h2.27457v8.47511h-1.4365V9.18553H8.42719
		l-2.57401,7.03862H4.79975L2.22619,9.18553H2.20236v7.03862h-1.4365V7.74903z"/>
	<path class="st2" d="M11.21566,7.74903h5.61426v1.36456h-4.10582v2.08303H16.615v1.36456h-3.89091v2.29885h4.32163v1.36411
		h-5.83007V7.74903z"/>
	<path class="st2" d="M22.08494,9.56859c-0.16006-0.23155-0.37228-0.40105-0.64024-0.50851
		c-0.26797-0.10791-0.54852-0.16186-0.84346-0.16186c-0.17625,0-0.3453,0.02023-0.50896,0.0598
		c-0.16366,0.04002-0.31113,0.10386-0.44241,0.19153c-0.13309,0.08812-0.23739,0.20187-0.31832,0.34125
		c-0.07913,0.13983-0.1187,0.30528-0.1187,0.49682c0,0.2873,0.09891,0.50671,0.29854,0.65823
		c0.19963,0.15197,0.44781,0.28325,0.74275,0.39521s0.61866,0.21941,0.96935,0.32327
		c0.35069,0.10386,0.67441,0.24728,0.96935,0.43073c0.29494,0.18389,0.54313,0.42713,0.74275,0.73016
		c0.19963,0.30349,0.29854,0.70633,0.29854,1.209c0,0.455-0.08273,0.85246-0.25178,1.19146
		c-0.16725,0.339-0.39206,0.62046-0.67621,0.84346c-0.28235,0.22391-0.61147,0.39116-0.98734,0.50266
		c-0.37407,0.1115-0.76973,0.16815-1.18517,0.16815c-0.52694,0-1.0323-0.08812-1.51968-0.26347
		c-0.48738-0.17625-0.90641-0.47119-1.2571-0.88573l1.13661-1.10154c0.18344,0.27966,0.42623,0.49727,0.72477,0.65283
		c0.29854,0.15556,0.61686,0.2329,0.95137,0.2329c0.17625,0,0.35069-0.02338,0.52694-0.07194
		c0.17625-0.04766,0.33451-0.1196,0.47838-0.21491c0.14388-0.09622,0.25897-0.21761,0.3471-0.36508s0.13308-0.31742,0.13308-0.50896
		c0-0.31113-0.10071-0.55032-0.30034-0.71847c-0.19963-0.16725-0.44601-0.30933-0.74096-0.42488
		c-0.29674-0.11555-0.61866-0.22525-0.97115-0.32911c-0.35069-0.10386-0.67441-0.24549-0.96935-0.42488
		c-0.29494-0.17984-0.54313-0.41903-0.74096-0.71847c-0.20053-0.29899-0.30034-0.70004-0.30034-1.2027
		c0-0.43882,0.08992-0.81829,0.26976-1.13751c0.17984-0.31877,0.41544-0.58449,0.70678-0.79581
		c0.29135-0.21132,0.62406-0.36913,0.99813-0.47299c0.37587-0.10341,0.75894-0.15556,1.1492-0.15556
		c0.44781,0,0.88123,0.06789,1.30027,0.20367s0.79491,0.35879,1.13121,0.67037L22.08494,9.56859z"/>
</g>
</svg>
