<?xml version="1.0" encoding="utf-8"?>
<!-- Generator: Adobe Illustrator 22.0.0, SVG Export Plug-In . SVG Version: 6.00 Build 0)  -->
<svg version="1.1" id="Layer_1" xmlns="http://www.w3.org/2000/svg" xmlns:xlink="http://www.w3.org/1999/xlink" x="0px" y="0px"
	 viewBox="0 0 60.54581 24" style="enable-background:new 0 0 60.54581 24;" xml:space="preserve">
<style type="text/css">
	.st0{fill:#47502B;}
</style>
<g>
	<path class="st0" d="M0,0.58034h6.19355l6.09662,16l6.16084-16h6.12933v22.8381h-3.87097V4.45131h-0.06421l-6.93624,18.96714
		h-2.83871L3.93518,4.45131H3.87097v18.96714H0V0.58034z"/>
	<path class="st0" d="M28.15932,0.58034H43.2882v3.67712H32.22414v5.61321h10.48493v3.67712H32.22414v6.19476h11.64561v3.67591
		H28.15932V0.58034z"/>
	<path class="st0" d="M57.44904,5.48357c-0.43132-0.62396-1.00318-1.08072-1.72528-1.37029
		c-0.7221-0.29078-1.47812-0.43617-2.27291-0.43617c-0.47493,0-0.93048,0.05452-1.3715,0.16114
		c-0.44101,0.10783-0.83841,0.27987-1.19218,0.51613c-0.35862,0.23747-0.63971,0.54399-0.85779,0.91958
		c-0.21324,0.3768-0.31985,0.82266-0.31985,1.33879c0,0.77419,0.26654,1.36544,0.80448,1.77374
		c0.53794,0.40951,1.20673,0.76329,2.00151,1.06497c0.79479,0.30168,1.66712,0.59125,2.61215,0.87112
		c0.94502,0.27987,1.81736,0.66636,2.61214,1.16068c0.79479,0.49553,1.46358,1.15099,2.00151,1.96759
		c0.53794,0.81781,0.80448,1.90338,0.80448,3.25791c0,1.22611-0.22293,2.29593-0.67848,3.21066
		c-0.4507,0.91352-1.05649,1.67197-1.8222,2.27291c-0.76087,0.60336-1.64774,1.05407-2.66061,1.35454
		C54.3765,23.84734,53.31031,24,52.19082,24c-1.41996,0-2.78176-0.23747-4.09511-0.70998
		c-1.31334-0.47494-2.44253-1.26973-3.38755-2.3868l3.06285-2.96835c0.49432,0.75239,1.14857,1.33879,1.95305,1.75799
		c0.80449,0.42041,1.66228,0.62881,2.56368,0.62881c0.47494,0,0.94503-0.063,1.41996-0.19385
		c0.47493-0.12843,0.90141-0.32228,1.28911-0.58034s0.69786-0.58519,0.93533-0.9838
		c0.23747-0.39739,0.35862-0.85416,0.35862-1.37029c0-0.83962-0.27139-1.48417-0.80933-1.93609s-1.20188-0.83356-1.99667-1.14493
		c-0.79964-0.31137-1.66712-0.607-2.61699-0.88687c-0.94502-0.27987-1.81736-0.66152-2.61214-1.14493
		c-0.79479-0.48463-1.46358-1.12918-1.99667-1.93609c-0.54036-0.80569-0.80933-1.88642-0.80933-3.24095
		c0-1.18249,0.24231-2.20506,0.72694-3.06527c0.48463-0.859,1.11949-1.57504,1.90459-2.14448
		c0.7851-0.56944,1.68166-0.9947,2.68969-1.27457C51.78373,0.14054,52.81599,0,53.86764,0
		c1.20672,0,2.37468,0.18295,3.50386,0.54884s2.14206,0.96683,3.04831,1.80645L57.44904,5.48357z"/>
</g>
</svg>
