<?xml version="1.0" encoding="utf-8"?>
<!-- Generator: Adobe Illustrator 22.0.0, SVG Export Plug-In . SVG Version: 6.00 Build 0)  -->
<svg version="1.1" id="Layer_1" xmlns="http://www.w3.org/2000/svg" xmlns:xlink="http://www.w3.org/1999/xlink" x="0px" y="0px"
	 viewBox="0 0 53.07081 24.235" style="enable-background:new 0 0 53.07081 24.235;" xml:space="preserve">
<style type="text/css">
	.st0{fill:#47502B;}
</style>
<g>
	<path class="st0" d="M0,0.2368h6.44505l6.34419,16.81274L19.20151,0.2368h6.37697V24.235h-4.0269V4.3044h-0.06808L14.26686,24.235
		h-2.95524L4.09498,4.3044H4.02942V24.235H0V0.2368z"/>
	<path class="st0" d="M27.75961,2.44056c0-0.65565,0.24207-1.22601,0.72116-1.71234C28.96239,0.24316,29.5726,0,30.31141,0
		c0.73881,0,1.35911,0.23171,1.86342,0.69512c0.50179,0.46341,0.75394,1.04523,0.75394,1.74544S32.67661,3.72259,32.17483,4.186
		c-0.50431,0.46341-1.12461,0.69512-1.86342,0.69512c-0.73881,0-1.34902-0.24316-1.83064-0.72949
		C28.00168,3.66657,27.75961,3.09621,27.75961,2.44056z M28.332,7.9646h4.0269V24.235H28.332V7.9646z"/>
	<path class="st0" d="M41.55747,4.1007h-7.28472V0.2368h18.79807v3.8639h-7.28472V24.235h-4.22862V4.1007z"/>
</g>
</svg>
