<?xml version="1.0" encoding="utf-8"?>
<!-- Generator: Adobe Illustrator 22.0.0, SVG Export Plug-In . SVG Version: 6.00 Build 0)  -->
<svg version="1.1" id="Layer_1" xmlns="http://www.w3.org/2000/svg" xmlns:xlink="http://www.w3.org/1999/xlink" x="0px" y="0px"
	 viewBox="0 0 53.07081 24" style="enable-background:new 0 0 53.07081 24;" xml:space="preserve">
<style type="text/css">
	.st0{fill:#47502B;}
</style>
<g>
	<path class="st0" d="M0,0.2345h6.44505l6.34419,16.64972L19.20151,0.2345h6.37697V24h-4.0269V4.26266h-0.06808L14.26686,24
		h-2.95524L4.09498,4.26266H4.02942V24H0V0.2345z"/>
	<path class="st0" d="M27.75961,2.41689c0-0.6493,0.24207-1.21412,0.72116-1.69573C28.96239,0.24081,29.5726,0,30.31141,0
		c0.73881,0,1.35911,0.22946,1.86342,0.68838c0.50179,0.45892,0.75394,1.03509,0.75394,1.72851s-0.25216,1.26959-0.75394,1.72851
		c-0.50431,0.45892-1.12461,0.68838-1.86342,0.68838c-0.73881,0-1.34902-0.24081-1.83064-0.72242
		C28.00168,3.63101,27.75961,3.06619,27.75961,2.41689z M28.332,7.88737h4.0269V24H28.332V7.88737z"/>
	<path class="st0" d="M41.55747,4.06094h-7.28472V0.2345h18.79807v3.82643h-7.28472V24h-4.22862V4.06094z"/>
</g>
</svg>
