<?xml version="1.0" encoding="utf-8"?>
<!-- Generator: Adobe Illustrator 22.0.0, SVG Export Plug-In . SVG Version: 6.00 Build 0)  -->
<svg version="1.1" id="Layer_1" xmlns="http://www.w3.org/2000/svg" xmlns:xlink="http://www.w3.org/1999/xlink" x="0px" y="0px"
	 viewBox="0 0 24 24" style="enable-background:new 0 0 24 24;" xml:space="preserve">
<style type="text/css">
	.st0{fill:#64933A;}
	.st1{fill:#64953F;}
	.st2{fill:#47502B;}
</style>
<path class="st0" d="M23.00256,4.99999H0.99744C0.44885,4.99999,0,4.55114,0,4.00255V0.99743
	c0-0.54859,0.44885-0.99744,0.99744-0.99744h22.00513C23.55115-0.00001,24,0.44884,24,0.99743v3.00513
	C24,4.55114,23.55115,4.99999,23.00256,4.99999z"/>
<path class="st1" d="M23.00256,23.99998H0.99744C0.44885,23.99998,0,23.55113,0,23.00254v-3.00513
	c0-0.54858,0.44885-0.99743,0.99744-0.99743h22.00513c0.54858,0,0.99743,0.44885,0.99743,0.99744v3.00513
	C24,23.55113,23.55115,23.99998,23.00256,23.99998z"/>
<g>
	<path class="st2" d="M2.53737,7.76206H4.8357l2.26236,5.93735l2.28619-5.93735h2.2745v8.47486H10.2223V9.19851h-0.02383
		l-2.57393,7.03841h-1.0534L3.99766,9.19851H3.97383v7.03841H2.53737V7.76206z"/>
	<path class="st2" d="M12.43656,8.54031c0-0.23154,0.08632-0.43296,0.25717-0.60471c0.17175-0.1713,0.38935-0.25717,0.65281-0.25717
		c0.26346,0,0.48466,0.08183,0.6645,0.24548c0.17894,0.16365,0.26886,0.36912,0.26886,0.61639s-0.08992,0.45274-0.26886,0.61639
		C13.8312,9.32035,13.61,9.40218,13.34654,9.40218c-0.26346,0-0.48107-0.08587-0.65281-0.25762
		C12.52288,8.97326,12.43656,8.77185,12.43656,8.54031z M12.64067,10.4911h1.43601v5.74582h-1.43601V10.4911z"/>
	<path class="st2" d="M17.35692,9.12658h-2.59776V7.76206h6.70346v1.36452h-2.59776v7.11034h-1.50794V9.12658z"/>
</g>
</svg>
