<?xml version="1.0" encoding="utf-8"?>
<!-- Generator: Adobe Illustrator 22.0.0, SVG Export Plug-In . SVG Version: 6.00 Build 0)  -->
<svg version="1.1" id="Layer_1" xmlns="http://www.w3.org/2000/svg" xmlns:xlink="http://www.w3.org/1999/xlink" x="0px" y="0px"
	 viewBox="0 0 67.89772 24" style="enable-background:new 0 0 67.89772 24;" xml:space="preserve">
<style type="text/css">
	.st0{fill:#47502B;}
</style>
<g>
	<path class="st0" d="M0,0h6.50865l6.40679,16.814L19.39098,0h6.43989v24h-4.06663V4.0679h-0.06875L14.40764,24h-2.9844
		L4.13538,4.0679H4.06918V24H0V0z"/>
	<path class="st0" d="M29.59194,0h8.0696c1.15098,0,2.26377,0.11332,3.33836,0.33867
		c1.07204,0.22663,2.01677,0.60605,2.82907,1.1357c0.81485,0.5322,1.46419,1.24393,1.95056,2.13645s0.72828,2.00531,0.72828,3.33836
		c0,1.51385-0.25974,2.73485-0.7792,3.66175c-0.51947,0.9269-1.21974,1.64371-2.1008,2.15172
		c-0.88361,0.50928-1.90472,0.85305-3.06844,1.03385c-1.16372,0.1808-2.37836,0.27119-3.64393,0.27119h-3.05061V24h-4.27289V0z
		 M36.43926,10.40722c0.61114,0,1.24265-0.02292,1.89963-0.06748c0.65443-0.04584,1.26048-0.1808,1.81305-0.40743
		c0.55257-0.22536,1.00584-0.56403,1.35724-1.01729c0.34886-0.45199,0.52456-1.08477,0.52456-1.89836
		c0-0.74483-0.15788-1.33814-0.47364-1.77867c-0.3183-0.44053-0.72573-0.78048-1.22228-1.01729
		c-0.49655-0.23682-1.04913-0.3896-1.66027-0.45836c-0.61114-0.06748-1.19682-0.10058-1.76212-0.10058h-3.05061v6.74546H36.43926z"
		/>
	<path class="st0" d="M53.8644,0h3.69485l10.33846,24h-4.88149l-2.23576-5.49135H50.37326L48.20371,24h-4.77963L53.8644,0z
		 M59.28828,14.84817L55.59342,5.0852l-3.76361,9.76297H59.28828z"/>
</g>
</svg>
