<?xml version="1.0" encoding="utf-8"?>
<!-- Generator: Adobe Illustrator 22.0.0, SVG Export Plug-In . SVG Version: 6.00 Build 0)  -->
<svg version="1.1" id="Layer_1" xmlns="http://www.w3.org/2000/svg" xmlns:xlink="http://www.w3.org/1999/xlink" x="0px" y="0px"
	 viewBox="0 0 24 24" style="enable-background:new 0 0 24 24;" xml:space="preserve">
<style type="text/css">
	.st0{fill:#B7ABBF;}
	.st1{fill:#010101;}
</style>
<polygon class="st0" points="1,1 23,1 23,23 5.01937,23 1,23 "/>
<polygon class="st1" points="5,4.91999 15.65192,4 20,4.91999 20,23 5,23 "/>
<polygon class="st0" points="11.75,13.13489 15.15,13.01293 15.15,21 11.75,20.95611 "/>
<polygon class="st0" points="15.15,21.98991 11.75,21.94131 11.75,22.98814 15.15,23 "/>
<polygon class="st0" points="15.15,4.95357 15.15,12.0289 8.06544,12.29167 8.06544,5.48859 "/>
<polygon class="st0" points="16.15,13.02211 16.15,20.97328 18.99621,20.91342 18.99621,13.26443 "/>
<polygon class="st0" points="19.00495,21.87194 19.00495,22.98814 16.15,22.98814 16.15,21.98558 "/>
<g>
	<path class="st1" d="M11.54869,11.53891l-0.00284,0.00004c-0.15911,0.00229-0.31944-0.00728-0.47644-0.02844l0.05331-0.6203
		c0.12262,0.015,0.24771,0.0208,0.3716,0.01741L11.54869,11.53891z M12.62362,11.33463l-0.29811-0.59515
		c0.11776-0.04656,0.23192-0.10225,0.33976-0.16598l0.40132,0.55112C12.92591,11.20589,12.77689,11.27653,12.62362,11.33463z
		 M10.06094,11.19382c-0.1364-0.07027-0.268-0.15115-0.39106-0.24032l0.35744-0.48517
		c0.09715,0.06895,0.20076,0.13097,0.3081,0.18471L10.06094,11.19382z M13.89984,10.41142l-0.59976-0.39335
		c0.07718-0.09827,0.14621-0.2035,0.2047-0.31255l0.6649,0.30062C14.09221,10.14754,14.00153,10.28405,13.89984,10.41142z
		 M8.97102,10.23628c-0.0824-0.12108-0.15505-0.24842-0.21606-0.37886l0.54727-0.2433
		c0.04855,0.10211,0.1062,0.20161,0.17143,0.29625L8.97102,10.23628z M14.4883,8.97032l-0.74265-0.05815
		c0.01116-0.12172,0.01153-0.24618,0.00093-0.36985l0.7423-0.06512l0.00098,0.01128
		C14.50385,8.64933,14.50339,8.81166,14.4883,8.97032z M8.50826,8.92677L8.50788,8.92177
		C8.4971,8.78168,8.49743,8.64019,8.50857,8.5012l0.59753,0.04536C9.09718,8.65615,9.09697,8.76788,9.10559,8.87848L8.50826,8.92677
		z M13.50902,7.73822c-0.05885-0.10992-0.12716-0.21537-0.20365-0.31335l0.6012-0.39144
		c0.10045,0.12695,0.19086,0.26342,0.26811,0.40576L13.50902,7.73822z M9.30517,7.81694L8.759,7.57103
		C8.82048,7.4414,8.89357,7.31429,8.97609,7.19329L9.4783,7.52002C9.41261,7.61509,9.35432,7.71499,9.30517,7.81694z
		 M12.67136,6.8678c-0.10759-0.06434-0.2216-0.12061-0.33887-0.16731l0.30009-0.5946
		c0.15319,0.0588,0.30228,0.13011,0.44304,0.21206L12.67136,6.8678z M10.03342,6.96363L9.67723,6.47739
		c0.12343-0.08882,0.25522-0.16932,0.39174-0.2392l0.27277,0.54171C10.23433,6.8333,10.13058,6.8951,10.03342,6.96363z
		 M11.50498,6.5291c-0.12215-0.00367-0.24556,0.0018-0.36677,0.01605L11.07918,5.9253l0.02103-0.00244
		c0.14267-0.02271,0.30079-0.02785,0.45773-0.02522L11.50498,6.5291z"/>
	<g>
		<polygon class="st1" points="11.18652,8.9624 11.18652,6.19141 11.43652,6.19141 11.43652,8.51221 12.64746,7.75977 
			12.78027,7.97168 		"/>
	</g>
</g>
</svg>
