<?xml version="1.0" encoding="utf-8"?>
<!-- Generator: Adobe Illustrator 22.0.0, SVG Export Plug-In . SVG Version: 6.00 Build 0)  -->
<svg version="1.1" id="Layer_1" xmlns="http://www.w3.org/2000/svg" xmlns:xlink="http://www.w3.org/1999/xlink" x="0px" y="0px"
	 width="24px" height="24px" viewBox="0 0 24 24" style="enable-background:new 0 0 24 24;" xml:space="preserve">
<style type="text/css">
	.st0{fill:#B6AABE;}
</style>
<rect x="0" class="st0" width="24" height="24"/>
<rect x="0" class="st0" width="24" height="24"/>
<g>
	<path d="M2.1,10.9c0-0.7,0.1-1.4,0.4-2c0.2-0.6,0.6-1.1,1-1.5C3.9,7,4.4,6.6,5,6.4c0.6-0.2,1.2-0.3,2-0.3c0.7,0,1.4,0.1,2,0.3
		c0.6,0.2,1.1,0.5,1.5,1c0.4,0.4,0.8,0.9,1,1.5c0.2,0.6,0.4,1.3,0.4,2c0,0.7-0.1,1.4-0.4,2c-0.2,0.6-0.6,1.1-1,1.5
		c-0.4,0.4-0.9,0.8-1.5,1s-1.3,0.4-2,0.4c-0.7,0-1.4-0.1-2-0.3s-1.1-0.6-1.5-1c-0.4-0.4-0.8-0.9-1-1.5C2.2,12.3,2.1,11.7,2.1,10.9z
		 M3.8,10.8c0,0.5,0.1,0.9,0.2,1.4c0.2,0.4,0.4,0.8,0.6,1.1c0.3,0.3,0.6,0.5,1,0.7c0.4,0.2,0.8,0.3,1.3,0.3c0.5,0,0.9-0.1,1.3-0.3
		s0.7-0.4,1-0.7c0.3-0.3,0.5-0.7,0.6-1.1c0.2-0.4,0.2-0.9,0.2-1.4c0-0.5-0.1-0.9-0.2-1.3c-0.2-0.4-0.4-0.7-0.6-1S8.6,8,8.2,7.8
		S7.4,7.5,6.9,7.5C6.5,7.5,6,7.6,5.6,7.8C5.3,8,4.9,8.2,4.6,8.5S4.1,9.1,4,9.5C3.8,9.9,3.8,10.4,3.8,10.8z"/>
	<path d="M13.3,5.7h1.6v9.8h-1.6V5.7z"/>
	<path d="M15.8,9.3h1.7l1.7,4.3h0l1.6-4.3h1.6l-3,7.6c-0.1,0.3-0.2,0.6-0.4,0.8c-0.1,0.2-0.3,0.4-0.5,0.6c-0.2,0.2-0.4,0.3-0.6,0.3
		c-0.2,0.1-0.5,0.1-0.9,0.1c-0.4,0-0.8-0.1-1.2-0.2l0.2-1.4c0.1,0,0.2,0.1,0.4,0.1c0.1,0,0.3,0,0.4,0c0.2,0,0.4,0,0.5-0.1
		c0.1,0,0.2-0.1,0.3-0.2c0.1-0.1,0.2-0.2,0.2-0.3c0.1-0.1,0.1-0.3,0.2-0.4l0.3-0.7L15.8,9.3z"/>
</g>
</svg>
