<?xml version="1.0" encoding="utf-8"?>
<!-- Generator: Adobe Illustrator 22.0.0, SVG Export Plug-In . SVG Version: 6.00 Build 0)  -->
<svg version="1.1" id="Layer_1" xmlns="http://www.w3.org/2000/svg" xmlns:xlink="http://www.w3.org/1999/xlink" x="0px" y="0px"
	 viewBox="0 0 24 24" style="enable-background:new 0 0 24 24;" xml:space="preserve">
<style type="text/css">
	.st0{fill:#B6AABE;}
</style>
<rect x="-0.02689" class="st0" width="24" height="24"/>
<g>
	<path d="M4,12.06454c0-1.20763,0.19853-2.30429,0.59645-3.29172C4.9935,7.78539,5.54486,6.94447,6.24707,6.24833
		c0.70394-0.69614,1.5414-1.23277,2.51409-1.60902c0.97269-0.37625,2.04248-0.56437,3.20763-0.56437
		c1.17729-0.01387,2.25748,0.15951,3.2371,0.52189c0.98136,0.36238,1.82575,0.8912,2.53663,1.58734
		c0.70915,0.69614,1.26398,1.53359,1.66103,2.51409C19.80061,9.67789,20,10.77195,20,11.97958
		c0,1.17902-0.19939,2.25141-0.59645,3.2163c-0.39705,0.96662-0.95189,1.79714-1.66103,2.49328
		c-0.71088,0.69614-1.55527,1.2397-2.53663,1.62982c-0.97963,0.39012-2.05982,0.59298-3.2371,0.60685
		c-1.16515,0-2.23494-0.18812-3.20763-0.56437s-1.81014-0.90854-2.51409-1.59775c-0.70221-0.68921-1.25358-1.51625-1.65063-2.48201
		C4.19853,14.31595,4,13.24356,4,12.06454z M6.81231,11.89375c0,0.80971,0.1231,1.55527,0.37278,2.23754
		c0.24794,0.6814,0.59991,1.27091,1.05418,1.76853c0.45427,0.49675,0.9987,0.88773,1.62982,1.17122
		c0.63286,0.28435,1.33854,0.42653,2.1205,0.42653c0.78023,0,1.49111-0.14218,2.13091-0.42653
		c0.63806-0.28348,1.18596-0.67447,1.64023-1.17122c0.45427-0.49762,0.80624-1.08713,1.05418-1.76853
		c0.24794-0.68227,0.37278-1.42783,0.37278-2.23754c0-0.75249-0.12484-1.45557-0.37278-2.10923
		c-0.24794-0.6528-0.59991-1.22497-1.05418-1.71478c-0.45427-0.48981-1.00217-0.87386-1.64023-1.15041
		c-0.63979-0.27742-1.35067-0.41613-2.1309-0.41613c-0.78197,0-1.48765,0.13871-2.1205,0.41612
		c-0.63112,0.27655-1.17555,0.6606-1.62982,1.15041C7.785,8.55955,7.43303,9.13172,7.18509,9.78452
		C6.93541,10.43818,6.81231,11.14126,6.81231,11.89375z"/>
</g>
</svg>
