<?xml version="1.0" encoding="utf-8"?>
<!-- Generator: Adobe Illustrator 22.0.0, SVG Export Plug-In . SVG Version: 6.00 Build 0)  -->
<svg version="1.1" id="Layer_1" xmlns="http://www.w3.org/2000/svg" xmlns:xlink="http://www.w3.org/1999/xlink" x="0px" y="0px"
	 viewBox="0 0 24 24" style="enable-background:new 0 0 24 24;" xml:space="preserve">
<style type="text/css">
	.st0{fill:#B6AABE;}
</style>
<rect y="-0.00001" class="st0" width="24" height="24"/>
<rect y="-0.00001" class="st0" width="24" height="24"/>
<g>
	<path d="M2.1,10.89999c0-0.7,0.1-1.4,0.4-2c0.2-0.6,0.6-1.1,1-1.5c0.4-0.4,0.9-0.8,1.5-1s1.2-0.3,2-0.3c0.7,0,1.4,0.1,2,0.3
		c0.6,0.2,1.1,0.5,1.5,1c0.4,0.4,0.8,0.9,1,1.5c0.2,0.6,0.4,1.3,0.4,2s-0.1,1.4-0.4,2c-0.2,0.6-0.6,1.1-1,1.5s-0.9,0.8-1.5,1
		s-1.3,0.4-2,0.4s-1.4-0.1-2-0.3s-1.1-0.6-1.5-1s-0.8-0.9-1-1.5C2.2,12.29999,2.1,11.69999,2.1,10.89999z M3.8,10.79999
		c0,0.5,0.1,0.9,0.2,1.4c0.2,0.4,0.4,0.8,0.6,1.1c0.3,0.3,0.6,0.5,1,0.7s0.8,0.3,1.3,0.3s0.9-0.1,1.3-0.3c0.4-0.2,0.7-0.4,1-0.7
		s0.5-0.7,0.6-1.1c0.2-0.4,0.2-0.9,0.2-1.4s-0.1-0.9-0.2-1.3c-0.2-0.4-0.4-0.7-0.6-1s-0.6-0.5-1-0.7s-0.8-0.3-1.3-0.3
		c-0.4,0-0.9,0.1-1.3,0.3c-0.3,0.2-0.7,0.4-1,0.7s-0.5,0.6-0.6,1C3.8,9.89999,3.8,10.39999,3.8,10.79999z"/>
	<path d="M13.3,5.69999h1.6v9.8h-1.6V5.69999z"/>
	<path d="M15.8,9.29999h1.7l1.7,4.3l0,0l1.6-4.3h1.6l-3,7.6c-0.1,0.3-0.2,0.6-0.4,0.8c-0.1,0.2-0.3,0.4-0.5,0.6s-0.4,0.3-0.6,0.3
		c-0.2,0.1-0.5,0.1-0.9,0.1s-0.8-0.1-1.2-0.2l0.2-1.4c0.1,0,0.2,0.1,0.4,0.1c0.1,0,0.3,0,0.4,0c0.2,0,0.4,0,0.5-0.1
		c0.1,0,0.2-0.1,0.3-0.2c0.1-0.1,0.2-0.2,0.2-0.3c0.1-0.1,0.1-0.3,0.2-0.4l0.3-0.7L15.8,9.29999z"/>
</g>
</svg>
