<?xml version="1.0" encoding="utf-8"?>
<!-- Generator: Adobe Illustrator 22.0.0, SVG Export Plug-In . SVG Version: 6.00 Build 0)  -->
<svg version="1.1" id="Layer_1" xmlns="http://www.w3.org/2000/svg" xmlns:xlink="http://www.w3.org/1999/xlink" x="0px" y="0px"
	 viewBox="0 0 24 24" style="enable-background:new 0 0 24 24;" xml:space="preserve">
<style type="text/css">
	.st0{fill:#B6AABF;}
	.st1{fill:#64953F;}
	.st2{fill:#64933A;}
</style>
<g>
	<path class="st0" d="M23.00257,0.49998c0.27428,0,0.49743,0.22315,0.49743,0.49744v3.00513
		c0,0.27428-0.22315,0.49743-0.49744,0.49743H0.99744C0.72315,4.49998,0.5,4.27683,0.5,4.00254V0.99743
		c0-0.27429,0.22315-0.49744,0.49744-0.49744H23.00257 M23.00257-0.00002H0.99744C0.44885-0.00002,0,0.44884,0,0.99743v3.00512
		c0,0.54859,0.44885,0.99744,0.99744,0.99744h22.00512C23.55115,4.99998,24,4.55113,24,4.00255V0.99743
		C24,0.44884,23.55115-0.00002,23.00257-0.00002L23.00257-0.00002z"/>
</g>
<path class="st1" d="M23.00256,11.33332H0.99744C0.44885,11.33332,0,10.88447,0,10.33588V7.33076
	c0-0.54859,0.44885-0.99744,0.99744-0.99744h22.00513C23.55115,6.33332,24,6.78217,24,7.33076v3.00513
	C24,10.88447,23.55115,11.33332,23.00256,11.33332z"/>
<path class="st2" d="M23.00256,17.66665H0.99744C0.44885,17.66665,0,17.2178,0,16.66921v-3.00513
	c0-0.54859,0.44885-0.99744,0.99744-0.99744h22.00513c0.54859,0,0.99744,0.44885,0.99744,0.99744v3.00513
	C24,17.2178,23.55115,17.66665,23.00256,17.66665z"/>
<g>
	<path class="st0" d="M23.00257,19.49998c0.27428,0,0.49743,0.22315,0.49743,0.49744v3.00513
		c0,0.27428-0.22315,0.49743-0.49744,0.49743H0.99744c-0.27429,0-0.49744-0.22315-0.49744-0.49744v-3.00513
		c0-0.27428,0.22315-0.49743,0.49744-0.49743H23.00257 M23.00257,18.99998H0.99744C0.44885,18.99998,0,19.44884,0,19.99742v3.00513
		c0,0.54859,0.44885,0.99744,0.99744,0.99744h22.00512c0.54859,0,0.99744-0.44885,0.99744-0.99743v-3.00513
		C24,19.44884,23.55115,18.99998,23.00257,18.99998L23.00257,18.99998z"/>
</g>
</svg>
