<?xml version="1.0" encoding="utf-8"?>
<!-- Generator: Adobe Illustrator 22.0.0, SVG Export Plug-In . SVG Version: 6.00 Build 0)  -->
<svg version="1.1" id="Layer_1" xmlns="http://www.w3.org/2000/svg" xmlns:xlink="http://www.w3.org/1999/xlink" x="0px" y="0px"
	 viewBox="0 0 24 24" style="enable-background:new 0 0 24 24;" xml:space="preserve">
<style type="text/css">
	.st0{fill:#64953F;}
	.st1{fill:#ECE9ED;}
	.st2{fill:#B6AABF;}
</style>
<g>
	<path class="st0" d="M11.3,9v14c0,0.5-0.4,1-1,1h-3c-0.5,0-1-0.4-1-1V9c0-0.5,0.4-1,1-1h3C10.9,8,11.3,8.4,11.3,9z"/>
</g>
<g>
	<path class="st1" d="M13.7,23.9c-0.5,0-0.9-0.4-0.9-0.9V5c0-0.5,0.4-0.9,0.9-0.9h3c0.5,0,0.9,0.4,0.9,0.9v18c0,0.5-0.4,0.9-0.9,0.9
		H13.7z"/>
	<path class="st2" d="M16.7,4.2L16.7,4.2c0.4,0,0.7,0.3,0.7,0.7v18c0,0.4-0.3,0.7-0.7,0.7h-3c-0.4,0-0.7-0.3-0.7-0.7V5
		c0-0.4,0.3-0.7,0.7-0.7H16.7 M16.7,4h-3c-0.5,0-1,0.4-1,1v18c0,0.5,0.4,1,1,1h3c0.5,0,1-0.4,1-1V5C17.7,4.4,17.2,4,16.7,4L16.7,4z"
		/>
</g>
<g>
	<path class="st1" d="M1,23.9c-0.5,0-0.9-0.4-0.9-0.9V13c0-0.5,0.4-0.9,0.9-0.9h3c0.5,0,0.9,0.4,0.9,0.9v10c0,0.5-0.4,0.9-0.9,0.9H1
		z"/>
	<path class="st2" d="M4,12.2c0.4,0,0.7,0.3,0.7,0.7v10c0,0.4-0.3,0.7-0.7,0.7H1c-0.4,0-0.7-0.3-0.7-0.7V13c0-0.4,0.3-0.7,0.7-0.7H4
		 M4,12H1c-0.5,0-1,0.4-1,1v10c0,0.5,0.4,1,1,1h3c0.5,0,1-0.4,1-1V13C5,12.4,4.6,12,4,12L4,12z"/>
</g>
<g>
	<path class="st1" d="M20,23.9c-0.5,0-0.9-0.4-0.9-0.9V1c0-0.5,0.4-0.9,0.9-0.9h3c0.5,0,0.9,0.4,0.9,0.9v22c0,0.5-0.4,0.9-0.9,0.9
		H20z"/>
	<path class="st2" d="M23,0.2c0.4,0,0.7,0.3,0.7,0.7v22c0,0.4-0.3,0.7-0.7,0.7h-3c-0.4,0-0.7-0.3-0.7-0.7V1c0-0.4,0.3-0.7,0.7-0.7
		H23 M23,0h-3c-0.5,0-1,0.4-1,1v22c0,0.5,0.4,1,1,1h3c0.5,0,1-0.4,1-1V1C24,0.4,23.6,0,23,0L23,0z"/>
</g>
</svg>
