<?xml version="1.0" encoding="utf-8"?>
<!-- Generator: Adobe Illustrator 22.0.0, SVG Export Plug-In . SVG Version: 6.00 Build 0)  -->
<svg version="1.1" id="Layer_1" xmlns="http://www.w3.org/2000/svg" xmlns:xlink="http://www.w3.org/1999/xlink" x="0px" y="0px"
	 viewBox="0 0 24 24" style="enable-background:new 0 0 24 24;" xml:space="preserve">
<style type="text/css">
	.st0{fill:#64933A;}
	.st1{fill:#B6AABF;}
</style>
<path class="st0" d="M23.00256,4.99998H0.99744C0.44885,4.99998,0,4.55113,0,4.00254V0.99742
	c0-0.54859,0.44885-0.99744,0.99744-0.99744h22.00513C23.55115-0.00002,24,0.44883,24,0.99742v3.00513
	C24,4.55113,23.55115,4.99998,23.00256,4.99998z"/>
<path class="st0" d="M23.00256,11.33331H0.99744C0.44885,11.33331,0,10.88446,0,10.33587V7.33075
	c0-0.54859,0.44885-0.99744,0.99744-0.99744h22.00513C23.55115,6.33331,24,6.78216,24,7.33075v3.00513
	C24,10.88446,23.55115,11.33331,23.00256,11.33331z"/>
<path class="st0" d="M23.00256,17.66664H0.99744C0.44885,17.66664,0,17.21778,0,16.6692v-3.00513
	c0-0.54859,0.44885-0.99744,0.99744-0.99744h22.00513c0.54859,0,0.99744,0.44885,0.99744,0.99744v3.00513
	C24,17.21778,23.55115,17.66664,23.00256,17.66664z"/>
<g>
	<path class="st1" d="M23.00257,19.49997c0.27428,0,0.49743,0.22315,0.49743,0.49744v3.00513
		c0,0.27428-0.22315,0.49743-0.49744,0.49743H0.99744c-0.27429,0-0.49744-0.22315-0.49744-0.49744v-3.00513
		c0-0.27428,0.22315-0.49743,0.49744-0.49743H23.00257 M23.00257,18.99997H0.99744C0.44885,18.99997,0,19.44882,0,19.99739v3.00513
		c0,0.54859,0.44885,0.99744,0.99744,0.99744h22.00512c0.54859,0,0.99744-0.44885,0.99744-0.99743v-3.00513
		C24,19.44882,23.55115,18.99997,23.00257,18.99997L23.00257,18.99997z"/>
</g>
</svg>
