<?xml version="1.0" standalone="no"?><!-- Generator: Gravit.io --><svg xmlns="http://www.w3.org/2000/svg" xmlns:xlink="http://www.w3.org/1999/xlink" style="isolation:isolate" viewBox="0 0 16 16" width="16" height="16"><defs><clipPath id="_clipPath_P2uiXX2K8w7xqS0I0rgfw5q2fWT32GhX"><rect width="16" height="16"/></clipPath></defs><g clip-path="url(#_clipPath_P2uiXX2K8w7xqS0I0rgfw5q2fWT32GhX)"><path d=" M 15.801 5.902 C 14.966 3.334 12.433 3.074 10.478 5.026 C 11.73 2.563 10.7 0.234 8 0.234 C 5.3 0.234 4.27 2.563 5.522 5.026 C 3.567 3.075 1.034 3.334 0.199 5.902 C -0.636 8.47 1.261 10.169 3.99 9.74 C 1.53 10.997 0.994 13.486 3.179 15.073 C 5.364 16.66 7.565 15.381 8 12.653 C 8.435 15.381 10.637 16.66 12.822 15.073 C 15.007 13.486 14.47 10.996 12.01 9.74 C 14.739 10.169 16.636 8.47 15.802 5.902 L 15.801 5.902 Z  M 8 10.717 C 6.723 10.717 5.687 9.682 5.687 8.404 C 5.687 7.126 6.722 6.091 8 6.091 C 9.277 6.091 10.313 7.126 10.313 8.404 C 10.313 9.682 9.277 10.717 8 10.717 Z " fill="rgb(255,255,255)"/></g></svg>