<?xml version="1.0" encoding="utf-8"?>
<!-- Generator: Adobe Illustrator 22.0.0, SVG Export Plug-In . SVG Version: 6.00 Build 0)  -->
<svg version="1.1" id="Layer_1" xmlns="http://www.w3.org/2000/svg" xmlns:xlink="http://www.w3.org/1999/xlink" x="0px" y="0px"
	 viewBox="0 0 24 24" style="enable-background:new 0 0 24 24;" xml:space="preserve">
<style type="text/css">
	.st0{fill:#64933A;}
	.st1{clip-path:url(#SVGID_2_);}
	.st2{fill:#FFFFFF;}
</style>
<path class="st0" d="M23.99863,24H11.99862C5.37121,24-0.00137,18.62742-0.00137,12.00001v-0.00002
	C-0.00137,5.37258,5.37121,0,11.99862,0l12.00001,0V24z"/>
<g>
	<g>
		<defs>
			<rect id="SVGID_1_" x="4" y="4" width="16" height="16"/>
		</defs>
		<clipPath id="SVGID_2_">
			<use xlink:href="#SVGID_1_"  style="overflow:visible;"/>
		</clipPath>
		<g class="st1">
			<path class="st2" d="M18.374,12l1.425-1.78l-2.056-0.986l0.512-2.222l-2.28,0.004l-0.503-2.224l-2.053,0.993l-1.418-1.786
				l-1.418,1.786L8.53,4.792L8.027,7.016l-2.28-0.004l0.512,2.222L4.203,10.22L5.628,12l-1.425,1.78l2.056,0.986l-0.512,2.222
				l2.28-0.004l0.503,2.224l2.053-0.993l1.418,1.786l1.418-1.786l2.053,0.993l0.503-2.224l2.28,0.004l-0.512-2.222l2.056-0.986
				L18.374,12z M12,17.141c-2.743,0-4.966-2.302-4.966-5.141S9.257,6.859,12,6.859S16.966,9.161,16.966,12S14.743,17.141,12,17.141z
				 M8,12c0-2.209,1.791-4,4-4s4,1.791,4,4s-1.791,4-4,4S8,14.209,8,12z"/>
		</g>
	</g>
</g>
</svg>
