<?xml version="1.0" standalone="no"?><!-- Generator: Gravit.io --><svg xmlns="http://www.w3.org/2000/svg" xmlns:xlink="http://www.w3.org/1999/xlink" style="isolation:isolate" viewBox="0 0 16 16" width="16" height="16"><defs><clipPath id="_clipPath_3sr7zvkrrmexdoJQen48N1r5eH49xQtM"><rect width="16" height="16"/></clipPath></defs><g clip-path="url(#_clipPath_3sr7zvkrrmexdoJQen48N1r5eH49xQtM)"><path d=" M 14.374 8 L 15.799 6.22 L 13.743 5.234 L 14.255 3.012 L 11.975 3.016 L 11.472 0.792 L 9.419 1.785 L 8.001 -0.001 L 6.583 1.785 L 4.53 0.792 L 4.027 3.016 L 1.747 3.012 L 2.259 5.234 L 0.203 6.22 L 1.628 8 L 0.203 9.78 L 2.259 10.766 L 1.747 12.988 L 4.027 12.984 L 4.53 15.208 L 6.583 14.215 L 8.001 16.001 L 9.419 14.215 L 11.472 15.208 L 11.975 12.984 L 14.255 12.988 L 13.743 10.766 L 15.799 9.78 L 14.374 8 Z  M 8 13.141 C 5.257 13.141 3.034 10.839 3.034 8 C 3.034 5.161 5.257 2.859 8 2.859 C 10.743 2.859 12.966 5.161 12.966 8 C 12.966 10.839 10.743 13.141 8 13.141 Z  M 4 8 C 4 5.791 5.791 4 8 4 C 10.209 4 12 5.791 12 8 C 12 10.209 10.209 12 8 12 C 5.791 12 4 10.209 4 8 Z " fill="rgb(255,255,255)"/></g></svg>