<?xml version="1.0" encoding="utf-8"?>
<!-- Generator: Adobe Illustrator 22.0.0, SVG Export Plug-In . SVG Version: 6.00 Build 0)  -->
<svg version="1.1" id="Layer_1" xmlns="http://www.w3.org/2000/svg" xmlns:xlink="http://www.w3.org/1999/xlink" x="0px" y="0px"
	 width="24px" height="24px" viewBox="0 0 24 24" style="enable-background:new 0 0 24 24;" xml:space="preserve">
<style type="text/css">
	.st0{fill:#B6AABE;}
</style>
<rect x="0" class="st0" width="24" height="24"/>
<g>
	<path d="M5.2,7.8H2.4V6.3h7.3v1.5H6.8v7.7H5.2V7.8z"/>
	<path d="M13.2,14.6L13.2,14.6c-0.3,0.4-0.6,0.6-0.9,0.8c-0.3,0.2-0.7,0.2-1.1,0.2c-0.3,0-0.6,0-0.8-0.1c-0.3-0.1-0.5-0.2-0.7-0.4
		c-0.2-0.2-0.4-0.4-0.5-0.6c-0.1-0.2-0.2-0.5-0.2-0.8c0-0.3,0.1-0.6,0.2-0.9s0.3-0.4,0.5-0.6c0.2-0.2,0.4-0.3,0.7-0.4
		c0.3-0.1,0.5-0.2,0.8-0.2c0.3,0,0.6-0.1,0.9-0.1c0.3,0,0.6,0,0.8,0h0.4v-0.2c0-0.4-0.1-0.7-0.4-0.9c-0.3-0.2-0.6-0.3-1-0.3
		c-0.3,0-0.6,0.1-0.9,0.2c-0.3,0.1-0.5,0.3-0.7,0.5l-0.8-0.8c0.3-0.4,0.8-0.6,1.2-0.8C11,9.2,11.5,9.1,12,9.1c0.4,0,0.8,0,1.1,0.1
		s0.6,0.2,0.8,0.4c0.2,0.2,0.4,0.3,0.5,0.5c0.1,0.2,0.2,0.4,0.2,0.6c0,0.2,0.1,0.4,0.1,0.6s0,0.4,0,0.5v3.6h-1.4V14.6z M13.2,12.7
		h-0.3c-0.2,0-0.5,0-0.7,0c-0.3,0-0.5,0.1-0.8,0.1s-0.4,0.2-0.6,0.3s-0.2,0.3-0.2,0.5c0,0.1,0,0.3,0.1,0.4s0.1,0.2,0.3,0.3
		s0.2,0.1,0.4,0.1s0.3,0,0.4,0c0.5,0,0.9-0.1,1.2-0.4c0.3-0.3,0.4-0.6,0.4-1V12.7z"/>
	<path d="M20.6,11.1c-0.2-0.2-0.4-0.3-0.6-0.5c-0.2-0.1-0.4-0.2-0.6-0.2c-0.3,0-0.5,0.1-0.8,0.2c-0.2,0.1-0.4,0.2-0.6,0.4
		s-0.3,0.4-0.4,0.6c-0.1,0.2-0.1,0.5-0.1,0.7c0,0.2,0,0.5,0.1,0.7c0.1,0.2,0.2,0.4,0.4,0.6c0.2,0.2,0.4,0.3,0.6,0.4
		c0.2,0.1,0.5,0.2,0.8,0.2c0.2,0,0.5,0,0.7-0.1s0.4-0.2,0.5-0.4l1,1.1c-0.2,0.2-0.3,0.3-0.5,0.4c-0.2,0.1-0.4,0.2-0.6,0.3
		s-0.4,0.1-0.6,0.1s-0.4,0-0.5,0c-0.5,0-0.9-0.1-1.3-0.2c-0.4-0.2-0.8-0.4-1.1-0.7s-0.5-0.6-0.7-1S16,12.9,16,12.4
		c0-0.5,0.1-0.9,0.3-1.3c0.2-0.4,0.4-0.7,0.7-1s0.7-0.5,1.1-0.7c0.4-0.2,0.9-0.2,1.3-0.2c0.4,0,0.8,0.1,1.2,0.2
		c0.4,0.2,0.8,0.4,1.1,0.7L20.6,11.1z"/>
</g>
</svg>
