<?xml version="1.0" encoding="utf-8"?>
<!-- Generator: Adobe Illustrator 22.0.0, SVG Export Plug-In . SVG Version: 6.00 Build 0)  -->
<svg version="1.1" id="Layer_1" xmlns="http://www.w3.org/2000/svg" xmlns:xlink="http://www.w3.org/1999/xlink" x="0px" y="0px"
	 viewBox="0 0 24 24" style="enable-background:new 0 0 24 24;" xml:space="preserve">
<style type="text/css">
	.st0{fill:#B6AABE;}
</style>
<rect x="-0.02689" class="st0" width="24" height="24"/>
<g>
	<path d="M7.88773,7.59286H4V5.55021h10.03244v2.04265h-3.88701v10.64188h-2.2577C7.88773,18.23474,7.88773,7.59286,7.88773,7.59286
		z"/>
	<path d="M18.06524,17.05231H18.0113c-0.31055,0.48989-0.70421,0.84491-1.18243,1.06579
		c-0.47822,0.22089-1.0031,0.33169-1.57609,0.33169c-0.39512,0-0.78003-0.05395-1.15619-0.16111
		c-0.37616-0.10789-0.71004-0.269-1.0031-0.48405c-0.29306-0.21505-0.52779-0.48332-0.70713-0.80627
		c-0.17933-0.32222-0.26973-0.69838-0.26973-1.12849c0-0.46583,0.08456-0.86313,0.25077-1.19118
		c0.16767-0.32878,0.3922-0.60288,0.67213-0.82449c0.28139-0.22089,0.60652-0.39657,0.97685-0.52852
		c0.37033-0.13122,0.75524-0.22963,1.15473-0.29524c0.40095-0.06561,0.80335-0.10789,1.21013-0.12539
		c0.40532-0.01822,0.78877-0.02697,1.14598-0.02697h0.538V12.6448c0-0.53727-0.18517-0.9404-0.55549-1.2094
		c-0.37033-0.26827-0.84126-0.40313-1.41571-0.40313c-0.45343,0-0.87771,0.08092-1.27137,0.24203s-0.73483,0.37981-1.02205,0.65391
		l-1.12849-1.12849c0.47822-0.48989,1.03663-0.84199,1.67523-1.05704s1.29907-0.32222,1.97995-0.32222
		c0.60944,0,1.12265,0.06853,1.5411,0.20558c0.41699,0.13778,0.76399,0.31347,1.03955,0.52852
		c0.2741,0.21505,0.48551,0.46291,0.63568,0.74358c0.14872,0.28066,0.25661,0.56424,0.32222,0.85074
		c0.06561,0.28722,0.10497,0.56497,0.11664,0.83324C19.99417,12.8511,20,13.0873,20,13.28996v4.94478h-1.93476V17.05231z
		 M17.93986,14.38272h-0.4476c-0.29889,0-0.63423,0.01239-1.0031,0.03572c-0.37033,0.02406-0.72025,0.08092-1.0483,0.17058
		c-0.32951,0.08967-0.60652,0.22089-0.83397,0.39366c-0.22599,0.1735-0.33971,0.41553-0.33971,0.72608
		c0,0.20339,0.0452,0.37325,0.13414,0.5103c0.0904,0.13778,0.20558,0.25369,0.34992,0.34919
		c0.14288,0.09623,0.30472,0.16475,0.4826,0.2063c0.17933,0.04228,0.35867,0.06269,0.538,0.06269
		c0.74066,0,1.28741-0.17569,1.63878-0.52852c0.35283-0.3521,0.52925-0.83324,0.52925-1.44195v-0.48405H17.93986z"/>
</g>
</svg>
