<?xml version="1.0" encoding="utf-8"?>
<!-- Generator: Adobe Illustrator 22.0.0, SVG Export Plug-In . SVG Version: 6.00 Build 0)  -->
<svg version="1.1" id="Layer_1" xmlns="http://www.w3.org/2000/svg" xmlns:xlink="http://www.w3.org/1999/xlink" x="0px" y="0px"
	 viewBox="0 0 24 24" style="enable-background:new 0 0 24 24;" xml:space="preserve">
<style type="text/css">
	.st0{fill:#B7ABBF;}
	.st1{fill-rule:evenodd;clip-rule:evenodd;}
</style>
<polygon class="st0" points="1,1 23,1 23,23 5.01937,23 1,23 "/>
<path class="st1" d="M14.1308,3.33649c-1.31793,0.04761-2.63123,0.54669-2.95624,1.56506
	c-0.43005,1.34814,0.14111,3.03986-0.08691,4.69501c-0.83258,0.89178-0.09125,2.36981,1.04309,1.99951
	c0.60565-0.19739,0.7691-1.36011,0.34808-1.99951c-0.32635-0.14758-0.6416-0.22504-1.04358-0.08704
	c0.20215-0.23279,0.59839-0.81201,0.91895-0.92621c0.26147,0.26038,0.15912,1.15247,0.47235,1.36115
	c0.74481-1.21271,1.53351-3.45093,3.30371-3.65186c1.32129-0.14978,2.55847,0.72119,2.3476,1.99969
	c-0.25732,1.55853-3.40369,3.53845-4.95563,3.73846c-0.84601,0.10919-2.95587,0.07971-3.73859-0.08679
	C7.33124,11.422,6.74121,6.44922,4.82776,5.51007C4.2254,5.21454,3.60577,5.34827,3.34967,5.77112
	C3.8125,7.47919,5.76215,8.21722,6.04169,9.9375C4.83936,9.77808,3.75,6.77081,2.48035,6.64044
	C2.10492,6.60187,1.79523,7.02533,1.78461,7.42303C1.75958,8.38574,4.25903,9.5849,4.33331,10.1875
	C3.87683,10.42548,2.09161,9.12079,1,8.77411v1.3175c0.76776,0.35059,1.82306,0.59204,2.20831,0.9917
	C2.69232,11.15015,1.69617,10.86139,1,10.88019v1.14417c0.6875,0.03998,1.54742-0.09247,1.91504,0.26752
	c0.15326,0.11627-0.14227,0.50299,0.08679,0.6955c0.42633,0.15332,0.86719,0.29199,1.3042,0.43445
	c-0.11578,0.31909-0.68439,0.18512-0.60846,0.69574c0.112,0.40942,0.72998,0.31299,0.78229,0.78247
	c0.00708,0.32574-0.37476,0.26282-0.26062,0.69531c0.31061,0.26892,0.93512,0.22412,1.12994,0.60895
	c-0.04834,0.26398-0.32306,0.58936-0.08679,0.86938c0.57104,0.1142,1.10211-0.26367,1.39105,0.08679
	c-0.08136,0.52734-0.4585,0.75848-0.34766,1.47821c0.5069,0.44916,2.09198-0.17938,2.26068,0.60858
	C8.70593,20.36346,8.40735,21.91833,8.58185,23h0.94019c0.17267-0.90454-0.10193-2.25653,0.2616-2.97028
	c0.32849-0.11127,1.10138-0.18787,1.30402,0.08679c0.11688,0.85504-0.12488,2.06873,0.03217,2.88348h0.91534
	c0.06592-0.84015-0.04541-1.85767,0.00879-2.70966c2.41254-0.64221,4.65088-1.19788,6.34662-2.78204
	c1.78168-1.66406,3.43005-4.1712,3.13025-7.39008C21.18372,6.50153,18.13959,3.19214,14.1308,3.33649z M14.39136,6.11871
	c-0.27429,0.36792-1.37756,0.36792-1.65161,0C11.95062,4.48834,15.15051,4.55719,14.39136,6.11871z M8.82697,17.68207
	c-0.42303-0.32587-2.69141-2.57373-2.60797-3.30371c0.12006-1.05188,3.31317-1.3573,4.52094-1.47803
	c0.91345-0.09125,2.31976-0.18256,3.2168,0c-1.04443,0.40967-2.67731,1.05542-4.0863,1.21722
	c-1.14111,0.13062-2.68494-0.133-2.86914,0.78247c-0.35632,1.77173,3.19269,0.14532,3.99927-0.08722
	c1.39978-0.40283,2.60944-0.75848,3.65186-0.78204c-0.159,0.5752-0.7757,0.72888-1.3067,0.86688
	c-1.10492,0.28607-2.1015,0.51959-3.30389,0.95636c-0.3974,0.14441-1.42969,0.23071-1.47534,0.61115
	c-0.05432,0.44739,0.58575,0.83954,0.86926,0.86914c0.65869,0.06812,1.97192-0.67224,2.95618-1.04321
	c1.07892-0.40662,2.02277-0.87683,3.0426-0.9563c-0.63727,0.86334-1.63892,1.13617-3.01208,1.50885
	c-0.71741,0.19476-1.63391,0.40613-1.65186,0.95636c-0.01471,0.46136,0.45215,0.47742,0.66467,0.49084
	c1.36304,0.08569,2.81299-1.62189,4.26056-1.6521C14.51611,18.51184,11.06354,19.40527,8.82697,17.68207z"/>
</svg>
