<?xml version="1.0" encoding="utf-8"?>
<!-- Generator: Adobe Illustrator 22.0.0, SVG Export Plug-In . SVG Version: 6.00 Build 0)  -->
<svg version="1.1" id="Layer_1" xmlns="http://www.w3.org/2000/svg" xmlns:xlink="http://www.w3.org/1999/xlink" x="0px" y="0px"
	 width="24px" height="24px" viewBox="0 0 24 24" style="enable-background:new 0 0 24 24;" xml:space="preserve">
<style type="text/css">
	.st0{fill:#B6AABE;}
</style>
<rect x="0" class="st0" width="24" height="24"/>
<g>
	<path d="M7.6,7.8H4.7V6.3H12v1.5H9.2v7.7H7.6V7.8z"/>
	<path d="M11.8,9.3h1.6v1h0c0.2-0.4,0.4-0.6,0.7-0.8c0.3-0.2,0.7-0.3,1.1-0.3c0.1,0,0.2,0,0.3,0c0.1,0,0.2,0,0.3,0.1v1.5
		c-0.1,0-0.3-0.1-0.4-0.1s-0.2,0-0.4,0c-0.4,0-0.7,0.1-0.9,0.2s-0.4,0.3-0.5,0.5s-0.2,0.3-0.2,0.5s-0.1,0.3-0.1,0.4v3.3h-1.6V9.3z"
		/>
	<path d="M16.7,7.1c0-0.3,0.1-0.5,0.3-0.7c0.2-0.2,0.4-0.3,0.7-0.3s0.5,0.1,0.7,0.3s0.3,0.4,0.3,0.7s-0.1,0.5-0.3,0.7
		s-0.4,0.3-0.7,0.3S17.1,8,16.9,7.8C16.8,7.6,16.7,7.4,16.7,7.1z M16.9,9.3h1.6v6.2h-1.6V9.3z"/>
</g>
</svg>
