<?xml version="1.0" encoding="utf-8"?>
<!-- Generator: Adobe Illustrator 22.0.0, SVG Export Plug-In . SVG Version: 6.00 Build 0)  -->
<svg version="1.1" id="Layer_1" xmlns="http://www.w3.org/2000/svg" xmlns:xlink="http://www.w3.org/1999/xlink" x="0px" y="0px"
	 viewBox="0 0 24 24" style="enable-background:new 0 0 24 24;" xml:space="preserve">
<style type="text/css">
	.st0{fill:#B6AABE;}
</style>
<rect x="-0.02689" class="st0" width="24" height="24"/>
<g>
	<path d="M8.36064,7.18736H4.0452V4.91999h11.13696v2.26737h-4.31463V19H8.36064V7.18736z"/>
	<path d="M13.85023,9.45473h2.38551v1.51077h0.04046c0.26542-0.55673,0.6425-0.98722,1.13287-1.29228
		c0.49037-0.30507,1.05519-0.4572,1.69122-0.4572c0.14565,0,0.28807,0.01295,0.42726,0.03965
		c0.13918,0.0267,0.2816,0.05907,0.42726,0.09953v2.30621c-0.19906-0.0526-0.39489-0.09548-0.58586-0.12866
		c-0.19259-0.03318-0.38194-0.05017-0.56644-0.05017c-0.55834,0-1.00502,0.10277-1.34326,0.3083
		c-0.33825,0.20553-0.59719,0.44101-0.77521,0.70643c-0.17964,0.26542-0.29778,0.53002-0.35767,0.79544
		c-0.05988,0.26542-0.09063,0.46367-0.09063,0.59638V19h-2.38551V9.45473z"/>
</g>
</svg>
