<?xml version="1.0" encoding="utf-8"?>
<!-- Generator: Adobe Illustrator 22.0.0, SVG Export Plug-In . SVG Version: 6.00 Build 0)  -->
<svg version="1.1" id="Layer_1" xmlns="http://www.w3.org/2000/svg" xmlns:xlink="http://www.w3.org/1999/xlink" x="0px" y="0px"
	 viewBox="0 0 24 24" style="enable-background:new 0 0 24 24;" xml:space="preserve">
<style type="text/css">
	.st0{fill:#B6AABE;}
</style>
<polygon class="st0" points="1,1 23,1 23,23 5.01937,23 1,23 "/>
<g>
	<path d="M7.56055,7.77783H4.73926V6.2959h7.28027v1.48193H9.19824V15.5h-1.6377V7.77783H7.56055z"/>
	<path d="M11.79834,9.25977h1.56006v0.98828h0.02637c0.17285-0.36426,0.41992-0.64551,0.74121-0.84521
		C14.44629,9.20361,14.81445,9.104,15.23047,9.104c0.0957,0,0.18848,0.00879,0.28027,0.02588
		c0.09082,0.01758,0.18359,0.03906,0.2793,0.06494v1.5083c-0.12988-0.03467-0.25781-0.06299-0.38379-0.08447
		s-0.24902-0.03271-0.37012-0.03271c-0.36426,0-0.65723,0.06738-0.87793,0.20166s-0.38965,0.28809-0.50684,0.46143
		s-0.19531,0.34668-0.23438,0.52002s-0.05859,0.30322-0.05859,0.39014V15.5h-1.56006
		C11.79833,15.5,11.79833,9.25977,11.79834,9.25977z"/>
	<path d="M16.66016,7.14111c0-0.25146,0.09375-0.47021,0.2793-0.65674c0.18652-0.18604,0.42285-0.2793,0.70898-0.2793
		s0.52637,0.08887,0.72168,0.2666s0.29297,0.40088,0.29297,0.66943s-0.09766,0.4917-0.29297,0.66943s-0.43555,0.2666-0.72168,0.2666
		s-0.52246-0.09326-0.70898-0.27979C16.75391,7.61133,16.66016,7.39258,16.66016,7.14111z M16.88184,9.25977h1.56055V15.5h-1.56055
		V9.25977z"/>
</g>
</svg>
