<?xml version="1.0" encoding="utf-8"?>
<!-- Generator: Adobe Illustrator 22.0.0, SVG Export Plug-In . SVG Version: 6.00 Build 0)  -->
<svg version="1.1" id="Layer_1" xmlns="http://www.w3.org/2000/svg" xmlns:xlink="http://www.w3.org/1999/xlink" x="0px" y="0px"
	 width="24px" height="24px" viewBox="0 0 24 24" style="enable-background:new 0 0 24 24;" xml:space="preserve">
<style type="text/css">
	.st0{fill:url(#SVGID_1_);}
	.st1{fill:#FFFFFF;}
</style>
<linearGradient id="SVGID_1_" gradientUnits="userSpaceOnUse" x1="12" y1="24" x2="12" y2="0" gradientTransform="matrix(1 0 0 -1 0 24)">
	<stop  offset="0" style="stop-color:#600F21"/>
	<stop  offset="1" style="stop-color:#492C5D"/>
</linearGradient>
<circle class="st0" cx="12" cy="12" r="12"/>
<g>
	<path class="st1" d="M5,17.125C5,17.608,5.392,18,5.875,18h12.25C18.608,18,19,17.608,19,17.125V9.25H5V17.125z M15.60339,14.5
		l2.52161-1.2608V14.5H15.60339z M15.60339,11.875l2.52161-1.2608v1.2608H15.60339z M17.14661,12.75L14.625,14.0108V12.75H17.14661z
		 M17.14661,15.375L14.625,16.6358V15.375H17.14661z M15.60339,17.125l2.52161-1.2608v1.2608H15.60339z M17.14661,10.125
		L14.625,11.3858V10.125H17.14661z M10.25,10.125h3.5v1.75h-3.5V10.125z M10.25,12.75h3.5v1.75h-3.5V12.75z M10.25,15.375h3.5v1.75
		h-3.5V15.375z M5.875,10.125h3.5v1.75h-3.5V10.125z M5.875,12.75h3.5v1.75h-3.5V12.75z M5.875,15.375h3.5v1.75h-3.5V15.375z"/>
	<path class="st1" d="M18.125,5.75h-1.75V4.49961C16.375,4.22313,16.179,4,15.9375,4S15.5,4.22398,15.5,4.49961V5.75h-7V4.49961
		C8.5,4.22313,8.304,4,8.0625,4S7.625,4.22398,7.625,4.49961V5.75h-1.75C5.392,5.75,5,6.142,5,6.625v1.75h14v-1.75
		C19,6.142,18.608,5.75,18.125,5.75z M8.0625,7.9375c-0.483,0-0.875-0.392-0.875-0.875c0-0.32375,0.17587-0.60637,0.4375-0.75777
		V7.0625C7.625,7.304,7.821,7.5,8.0625,7.5S8.5,7.304,8.5,7.0625V6.30473C8.76163,6.45613,8.9375,6.73875,8.9375,7.0625
		C8.9375,7.5455,8.5455,7.9375,8.0625,7.9375z M15.9375,7.9375c-0.483,0-0.875-0.392-0.875-0.875
		c0-0.32375,0.17587-0.60637,0.4375-0.75777V7.0625C15.5,7.304,15.696,7.5,15.9375,7.5s0.4375-0.196,0.4375-0.4375V6.30473
		c0.26163,0.15141,0.4375,0.43403,0.4375,0.75777C16.8125,7.5455,16.4205,7.9375,15.9375,7.9375z"/>
</g>
</svg>
