<?xml version="1.0" encoding="utf-8"?>
<!-- Generator: Adobe Illustrator 22.0.0, SVG Export Plug-In . SVG Version: 6.00 Build 0)  -->
<svg version="1.1" id="Layer_1" xmlns="http://www.w3.org/2000/svg" xmlns:xlink="http://www.w3.org/1999/xlink" x="0px" y="0px"
	 viewBox="0 0 24 24" style="enable-background:new 0 0 24 24;" xml:space="preserve">
<style type="text/css">
	.st0{fill:url(#SVGID_1_);}
	.st1{fill:#FFFFFF;}
</style>
<linearGradient id="SVGID_1_" gradientUnits="userSpaceOnUse" x1="12" y1="0" x2="12" y2="24">
	<stop  offset="0" style="stop-color:#600F21"/>
	<stop  offset="1" style="stop-color:#492C5D"/>
</linearGradient>
<circle class="st0" cx="12" cy="12" r="12"/>
<g>
	<g>
		<path class="st1" d="M8.33993,6.95934C8.23805,6.8118,8.102,6.70339,7.93179,6.63475
			C7.76095,6.5661,7.58172,6.53162,7.39349,6.53162c-0.11213,0-0.22023,0.01305-0.32459,0.03821
			C6.96453,6.59561,6.87041,6.63599,6.78655,6.69221C6.70268,6.74812,6.63497,6.82081,6.58434,6.90964
			C6.5334,6.99879,6.50793,7.1044,6.50793,7.22647c0,0.18326,0.06368,0.32335,0.19103,0.41995
			C6.826,7.74302,6.98379,7.82689,7.17202,7.89833C7.36025,7.96946,7.5665,8.03811,7.79046,8.10427
			c0.22395,0.06616,0.42989,0.15779,0.61843,0.27489c0.18823,0.1171,0.34603,0.27241,0.47307,0.46561
			c0.12766,0.19351,0.19103,0.45039,0.19103,0.77095c0,0.29011-0.05343,0.54327-0.16028,0.75976
			c-0.10685,0.21619-0.25098,0.39572-0.43144,0.53799c-0.18078,0.14257-0.39075,0.24942-0.62962,0.32055
			c-0.23948,0.07144-0.49139,0.10685-0.75604,0.10685c-0.33577,0-0.65881-0.05591-0.96943-0.16773
			c-0.3103-0.11182-0.57743-0.30037-0.80139-0.56501l0.72529-0.7023c0.11679,0.17829,0.27086,0.31683,0.46157,0.41591
			c0.19103,0.0994,0.39324,0.14909,0.60694,0.14909c0.11182,0,0.22395-0.01522,0.33609-0.04597
			c0.11182-0.03044,0.2137-0.07641,0.30533-0.13729c0.09163-0.06119,0.16525-0.13853,0.22116-0.23296
			C8.03708,9.9605,8.06535,9.85241,8.06535,9.73034c0-0.19848-0.06368-0.35131-0.19103-0.45816
			C7.74728,9.16533,7.58918,9.07525,7.40126,9.00132C7.21271,8.92771,7.00677,8.85751,6.78282,8.79135
			C6.55887,8.72519,6.35262,8.6348,6.16439,8.52049C5.97615,8.40587,5.81836,8.25305,5.69132,8.06233
			C5.56397,7.87162,5.50029,7.61567,5.50029,7.29511c0-0.27986,0.05715-0.52152,0.17177-0.72529
			c0.11462-0.20345,0.26464-0.37274,0.45039-0.50754C6.3082,5.92748,6.52066,5.82684,6.75984,5.76068
			c0.23917-0.06585,0.48332-0.09909,0.73274-0.09909c0.28514,0,0.56128,0.04318,0.82841,0.12984
			c0.26713,0.08635,0.50754,0.22892,0.72094,0.42741L8.33993,6.95934z"/>
		<path class="st1" d="M11.8652,5.79888h0.83183l2.32837,5.4047h-1.09958L13.422,9.96702h-2.34328l-0.48829,1.23656H9.51384
			L11.8652,5.79888z M13.08653,9.14234l-0.83245-2.19822l-0.84736,2.19822H13.08653z"/>
		<path class="st1" d="M16.22598,6.66923h-1.65682V5.79888h4.27468v0.87034h-1.6562v4.53436h-0.96166V6.66923z"/>
	</g>
	<g>
		<path class="st1" d="M7.64889,13.95687c-0.10188-0.14754-0.23793-0.25595-0.40815-0.32459
			c-0.17084-0.06865-0.35006-0.10312-0.5383-0.10312c-0.11213,0-0.22023,0.01305-0.32459,0.03821
			c-0.10437,0.02578-0.19848,0.06616-0.28235,0.12238c-0.08387,0.05591-0.15158,0.1286-0.20221,0.21743
			c-0.05094,0.08915-0.07641,0.19476-0.07641,0.31683c0,0.18326,0.06368,0.32335,0.19103,0.41995
			c0.12704,0.0966,0.28483,0.18047,0.47307,0.25191c0.18823,0.07113,0.39448,0.13978,0.61843,0.20594
			c0.22395,0.06616,0.42989,0.15779,0.61843,0.27489c0.18823,0.1171,0.34602,0.27241,0.47307,0.46561
			c0.12735,0.1932,0.19103,0.45039,0.19103,0.77095c0,0.29012-0.05343,0.54358-0.16028,0.75977
			C8.11481,17.5892,7.97068,17.76874,7.79022,17.911c-0.18078,0.14226-0.39075,0.24973-0.62962,0.32055
			c-0.23948,0.07144-0.49139,0.10685-0.75604,0.10685c-0.33577,0-0.65881-0.05591-0.96943-0.16773
			c-0.3103-0.11182-0.57743-0.30005-0.80139-0.5647l0.72529-0.70261c0.11679,0.17829,0.27086,0.31683,0.46157,0.41622
			c0.19103,0.09878,0.39324,0.14847,0.60694,0.14847c0.11182,0,0.22395-0.01491,0.33609-0.04535
			c0.11182-0.03106,0.2137-0.07641,0.30533-0.13791c0.09163-0.06088,0.16525-0.13853,0.22116-0.23234
			c0.05591-0.09443,0.08418-0.20252,0.08418-0.3249c0-0.19817-0.06368-0.351-0.19103-0.45785
			c-0.12704-0.10685-0.28514-0.19693-0.47307-0.27086c-0.18854-0.07393-0.39448-0.1435-0.61843-0.20998
			c-0.22395-0.06585-0.4302-0.15655-0.61843-0.27086c-0.18823-0.11462-0.34602-0.26744-0.47307-0.45816
			c-0.12735-0.19072-0.19103-0.44666-0.19103-0.76722c0-0.27986,0.05715-0.52152,0.17177-0.72529
			c0.11462-0.20345,0.26464-0.37274,0.45039-0.50754c0.18575-0.13481,0.39821-0.23545,0.63738-0.30161
			c0.23917-0.06585,0.48332-0.09909,0.73274-0.09909c0.28514,0,0.56128,0.04317,0.82841,0.12984
			c0.26713,0.08635,0.50754,0.22892,0.72125,0.42741L7.64889,13.95687z"/>
		<path class="st1" d="M13.32879,16.21629c0,0.32553-0.05591,0.61999-0.16773,0.88153
			c-0.11306,0.26216-0.26464,0.48518-0.45847,0.66844c-0.19382,0.18264-0.42244,0.32428-0.68708,0.42368
			c-0.26464,0.09877-0.55165,0.14847-0.86227,0.14847c-0.31062,0-0.59887-0.0497-0.86351-0.14847
			c-0.26464-0.0994-0.4945-0.24104-0.69019-0.42368c-0.196-0.18326-0.34882-0.40628-0.45816-0.66844
			c-0.10934-0.26154-0.164-0.556-0.164-0.88153v-3.41987h0.96197v3.38943c0,0.13232,0.01988,0.27086,0.06088,0.41623
			c0.041,0.14475,0.10809,0.27831,0.20252,0.40069c0.09443,0.12176,0.21867,0.2224,0.37398,0.3013
			c0.15531,0.0789,0.34665,0.11865,0.5765,0.11865c0.22861,0,0.42119-0.03976,0.5765-0.11865
			c0.15531-0.0789,0.27955-0.17954,0.37398-0.3013c0.09318-0.12238,0.16152-0.25595,0.20128-0.40069
			c0.041-0.14537,0.06212-0.2839,0.06212-0.41623v-3.38943h0.96166V16.21629z"/>
		<path class="st1" d="M14.13018,12.79642h1.27476l2.61848,4.01563h0.01491v-4.01563H19v5.4047h-1.22134l-2.67129-4.14516h-0.01553
			v4.14516h-0.96166V12.79642z"/>
	</g>
</g>
</svg>
