<?xml version="1.0" encoding="utf-8"?>
<!-- Generator: Adobe Illustrator 22.0.0, SVG Export Plug-In . SVG Version: 6.00 Build 0)  -->
<svg version="1.1" id="Layer_1" xmlns="http://www.w3.org/2000/svg" xmlns:xlink="http://www.w3.org/1999/xlink" x="0px" y="0px"
	 viewBox="0 0 16 16" style="enable-background:new 0 0 16 16;" xml:space="preserve">
<style type="text/css">
	.st0{fill:#FFFFFF;}
</style>
<path class="st0" d="M3.50879,2.4509C3.39391,2.304,3.24295,2.1876,3.0569,2.10119C2.87086,2.01477,2.69143,1.97157,2.5186,1.97157
	c-0.08895,0-0.17943,0.00762-0.27144,0.02338C2.15567,2.01071,2.07332,2.0407,1.99962,2.08543
	C1.92642,2.12965,1.86492,2.1876,1.8151,2.25825C1.76529,2.32891,1.74038,2.41939,1.74038,2.52918
	c0,0.09455,0.01982,0.17333,0.05896,0.23586c0.03914,0.06303,0.09709,0.11793,0.17283,0.1652
	c0.07625,0.04727,0.16622,0.09048,0.27144,0.12962c0.10471,0.03965,0.22264,0.08031,0.35378,0.12199
	c0.18858,0.06303,0.38479,0.13216,0.58913,0.20841C3.39086,3.466,3.57691,3.56715,3.74465,3.69271
	c0.16774,0.12606,0.30651,0.2816,0.41681,0.46764c0.1098,0.18604,0.1652,0.41834,0.1652,0.69588
	c0,0.31973-0.05896,0.59625-0.17689,0.82905C4.03184,5.91859,3.87325,6.11124,3.67399,6.26323
	C3.47473,6.41521,3.24701,6.52806,2.99032,6.60125c-0.2567,0.0732-0.52153,0.10979-0.79398,0.10979
	c-0.39851,0-0.78331-0.06913-1.15539-0.2079S0.3593,6.16614,0.11328,5.90944l0.88039-0.89615
	c0.13623,0.16774,0.31566,0.30804,0.5383,0.42037c0.22264,0.11284,0.44426,0.16927,0.66436,0.16927
	c0.09963,0,0.19672-0.01067,0.29075-0.03152c0.09455-0.02084,0.17689-0.0549,0.24755-0.10217
	C2.80529,5.42198,2.86171,5.35945,2.9039,5.28067c0.04168-0.07879,0.06252-0.17283,0.06252-0.28313
	c0-0.10471-0.02592-0.19367-0.07828-0.26737c-0.05236-0.0732-0.12708-0.13979-0.22416-0.20027
	c-0.09709-0.05998-0.21756-0.11539-0.36141-0.1652C2.15821,4.31488,1.99454,4.2615,1.81104,4.20356
	C1.63313,4.14612,1.45878,4.078,1.28849,3.99922C1.11821,3.92094,0.96623,3.81978,0.83254,3.69677
	C0.69885,3.57376,0.5916,3.42432,0.51027,3.24844C0.42894,3.07308,0.38828,2.85959,0.38828,2.60797
	c0-0.30905,0.06303-0.57388,0.18858-0.79398c0.12606-0.2201,0.29126-0.40055,0.4956-0.54237
	c0.20434-0.14131,0.43461-0.24501,0.6913-0.31058c0.2567-0.06506,0.51644-0.0981,0.77822-0.0981
	c0.31464,0,0.63539,0.05795,0.96325,0.17283C3.83259,1.15116,4.11927,1.32144,4.3658,1.54662L3.50879,2.4509z"/>
<path class="st0" d="M9.56886,6.56974L9.1368,5.47687H6.98309L6.57441,6.56974h-1.4619l2.33416-5.56549H8.7515l2.31179,5.56549
	H9.56886z M8.07545,2.49004L7.36839,4.40027h1.39887L8.07545,2.49004z"/>
<path class="st0" d="M14.42729,2.15202v4.41772h-1.34397V2.15202h-1.57169V1.00425H16v1.14776H14.42729z"/>
<path class="st0" d="M3.50879,10.86655c-0.11488-0.1469-0.26585-0.2633-0.45189-0.34972
	c-0.18604-0.08641-0.36547-0.12962-0.5383-0.12962c-0.08895,0-0.17943,0.00762-0.27144,0.02338
	c-0.0915,0.01576-0.17384,0.04575-0.24755,0.09048c-0.0732,0.04422-0.1347,0.10217-0.18452,0.17282
	s-0.07472,0.16113-0.07472,0.27093c0,0.09455,0.01982,0.17384,0.05896,0.23586c0.03914,0.06303,0.09709,0.11793,0.17283,0.16571
	c0.07625,0.04676,0.16622,0.09048,0.27144,0.12911c0.10471,0.03965,0.22264,0.08031,0.35378,0.12199
	c0.18858,0.06303,0.38479,0.13216,0.58913,0.20841c0.20434,0.07625,0.39038,0.17689,0.55812,0.30295
	c0.16774,0.12606,0.30651,0.2816,0.41681,0.46764c0.1098,0.18604,0.1652,0.41783,0.1652,0.69537
	c0,0.32024-0.05896,0.59676-0.17689,0.82956c-0.11793,0.23382-0.27652,0.42596-0.47578,0.57744
	c-0.19926,0.15249-0.42698,0.26534-0.68368,0.33853S2.46879,15.1272,2.19634,15.1272c-0.39851,0-0.78331-0.06913-1.15539-0.20841
	c-0.37208-0.13826-0.68164-0.3365-0.92767-0.59371l0.88039-0.89564c0.13623,0.16774,0.31566,0.30804,0.5383,0.41986
	c0.22264,0.11285,0.44426,0.16978,0.66436,0.16978c0.09963,0,0.19672-0.01118,0.29075-0.03152
	c0.09455-0.02135,0.17689-0.0549,0.24755-0.10268c0.07066-0.04676,0.12708-0.10979,0.16927-0.18807
	c0.04168-0.0793,0.06252-0.17283,0.06252-0.28364c0-0.10471-0.02592-0.19316-0.07828-0.26737
	c-0.05236-0.0732-0.12708-0.13928-0.22416-0.20027c-0.09709-0.05998-0.21756-0.11488-0.36141-0.16469
	c-0.14436-0.04981-0.30804-0.10369-0.49154-0.16164c-0.17791-0.05693-0.35226-0.12504-0.52254-0.20434
	c-0.17028-0.07828-0.32227-0.17893-0.45595-0.30194c-0.13369-0.12301-0.24094-0.27245-0.32227-0.44833
	c-0.08133-0.17587-0.12199-0.38937-0.12199-0.64047c0-0.30956,0.06303-0.57439,0.18858-0.79449
	c0.12606-0.2201,0.29126-0.40055,0.4956-0.54237c0.20434-0.14131,0.43461-0.24501,0.6913-0.31058
	c0.2567-0.06506,0.51644-0.0981,0.77822-0.0981c0.31464,0,0.63539,0.05795,0.96325,0.17282
	C3.83259,9.5668,4.11927,9.73709,4.3658,9.96227L3.50879,10.86655z"/>
<path class="st0" d="M9.71424,13.80255c-0.11183,0.2755-0.27347,0.51136-0.48289,0.70757
	c-0.20993,0.19722-0.46256,0.34972-0.7584,0.45951c-0.29634,0.11081-0.62522,0.16571-0.98663,0.16571
	c-0.367,0-0.69689-0.0549-0.9907-0.16571c-0.29329-0.1098-0.54237-0.26229-0.74671-0.45951
	c-0.20434-0.19621-0.36141-0.43206-0.47171-0.70757c-0.1098-0.2755-0.16469-0.58049-0.16469-0.91597V9.4199h1.33635v3.35688
	c0,0.15249,0.01932,0.29584,0.05846,0.43206c0.03965,0.13623,0.09963,0.25822,0.18096,0.36598
	C6.7696,13.68259,6.87685,13.76697,7.01054,13.83c0.13369,0.06303,0.29482,0.09455,0.4834,0.09455
	c0.18858,0,0.34972-0.03152,0.4834-0.09455c0.13369-0.06303,0.24246-0.14741,0.32633-0.25517
	c0.08387-0.10776,0.14385-0.22976,0.18096-0.36598c0.0366-0.13623,0.0549-0.27957,0.0549-0.43206V9.4199h1.34448v3.46667
	C9.88402,13.22206,9.82708,13.52704,9.71424,13.80255z"/>
<path class="st0" d="M14.47507,14.98589l-2.24063-3.6395h-0.02338l0.03152,3.6395h-1.30534V9.4199h1.53306l2.2325,3.63238h0.02338
	L14.69466,9.4199H16v5.56599H14.47507z"/>
</svg>
