<?xml version="1.0" encoding="utf-8"?>
<!-- Generator: Adobe Illustrator 22.0.0, SVG Export Plug-In . SVG Version: 6.00 Build 0)  -->
<svg version="1.1" id="Layer_1" xmlns="http://www.w3.org/2000/svg" xmlns:xlink="http://www.w3.org/1999/xlink" x="0px" y="0px"
	 width="24px" height="24px" viewBox="0 0 24 24" style="enable-background:new 0 0 24 24;" xml:space="preserve">
<style type="text/css">
	.st0{fill:url(#SVGID_1_);}
	.st1{fill:#FFFFFF;}
</style>
<linearGradient id="SVGID_1_" gradientUnits="userSpaceOnUse" x1="12" y1="24" x2="12" y2="0" gradientTransform="matrix(1 0 0 -1 0 24)">
	<stop  offset="0" style="stop-color:#600F21"/>
	<stop  offset="1" style="stop-color:#492C5D"/>
</linearGradient>
<circle class="st0" cx="12" cy="12" r="12"/>
<g>
	<path class="st1" d="M5,17.125C5,17.608,5.392,18,5.875,18h12.25C18.608,18,19,17.608,19,17.125V9.25H5V17.125z M14.625,10.125h3.5
		v1.75h-3.5V10.125z M14.625,12.75h3.5v1.75h-3.5V12.75z M14.625,15.375h3.5v1.75h-3.5V15.375z M10.25,10.125h3.5v1.75h-3.5V10.125z
		 M10.25,12.75h3.5v1.75h-3.5V12.75z M10.25,15.375h3.5v1.75h-3.5V15.375z M5.875,10.125h3.5v1.75h-3.5V10.125z M5.875,12.75h3.5
		v1.75h-3.5V12.75z M5.875,15.375h3.5v1.75h-3.5V15.375z M18.125,5.75h-1.75V4.49963C16.375,4.22312,16.179,4,15.9375,4
		C15.696,4,15.5,4.224,15.5,4.49963V5.75h-7V4.49963C8.5,4.22312,8.304,4,8.0625,4S7.625,4.224,7.625,4.49963V5.75h-1.75
		C5.392,5.75,5,6.142,5,6.625v1.75h14v-1.75C19,6.142,18.608,5.75,18.125,5.75z M8.0625,7.9375c-0.483,0-0.875-0.392-0.875-0.875
		c0-0.32375,0.17588-0.60638,0.4375-0.75775V7.0625C7.625,7.304,7.821,7.5,8.0625,7.5S8.5,7.304,8.5,7.0625V6.30475
		c0.26162,0.15138,0.4375,0.434,0.4375,0.75775C8.9375,7.5455,8.5455,7.9375,8.0625,7.9375z M15.9375,7.9375
		c-0.483,0-0.875-0.392-0.875-0.875c0-0.32375,0.17587-0.60638,0.4375-0.75775V7.0625C15.5,7.304,15.696,7.5,15.9375,7.5
		c0.2415,0,0.4375-0.196,0.4375-0.4375V6.30475c0.26163,0.15138,0.4375,0.434,0.4375,0.75775
		C16.8125,7.5455,16.4205,7.9375,15.9375,7.9375z"/>
	<polygon class="st1" points="14.72241,12.07068 14.52759,11.67932 18.02759,9.92932 18.22241,10.32068 	"/>
	<polygon class="st1" points="14.72241,14.69568 14.52759,14.30432 18.02759,12.55432 18.22241,12.94568 	"/>
	<polygon class="st1" points="14.72241,17.32068 14.52759,16.92932 18.02759,15.17932 18.22241,15.57068 	"/>
</g>
</svg>
