<?xml version="1.0" encoding="utf-8"?>
<!-- Generator: Adobe Illustrator 22.0.0, SVG Export Plug-In . SVG Version: 6.00 Build 0)  -->
<svg version="1.1" id="Layer_1" xmlns="http://www.w3.org/2000/svg" xmlns:xlink="http://www.w3.org/1999/xlink" x="0px" y="0px"
	 width="24px" height="24px" viewBox="0 0 24 24" style="enable-background:new 0 0 24 24;" xml:space="preserve">
<style type="text/css">
	.st0{fill:url(#SVGID_1_);}
	.st1{fill:#FFFFFF;}
</style>
<linearGradient id="SVGID_1_" gradientUnits="userSpaceOnUse" x1="12" y1="24" x2="12" y2="0" gradientTransform="matrix(1 0 0 -1 0 24)">
	<stop  offset="0" style="stop-color:#600F21"/>
	<stop  offset="1" style="stop-color:#492C5D"/>
</linearGradient>
<circle class="st0" cx="12" cy="12" r="12"/>
<g>
	<g>
		<path class="st1" d="M19,4.91436h-2V3.48535c0-0.31598-0.224-0.57098-0.5-0.57098S16,3.17035,16,3.48535v1.42902H8V3.48535
			c0-0.31598-0.224-0.57098-0.5-0.57098S7,3.17035,7,3.48535v1.42902H5c-0.552,0-1,0.448-1,1v2h16v-2
			C20,5.36236,19.552,4.91436,19,4.91436z M7.5,7.41436c-0.552,0-1-0.448-1-1c0-0.37,0.20099-0.69299,0.5-0.86603v0.86603
			c0,0.276,0.224,0.5,0.5,0.5s0.5-0.224,0.5-0.5V5.54834c0.29901,0.17303,0.5,0.49603,0.5,0.86603
			C8.5,6.96637,8.052,7.41436,7.5,7.41436z M16.5,7.41436c-0.552,0-1-0.448-1-1c0-0.37,0.20099-0.69299,0.5-0.86603v0.86603
			c0,0.276,0.224,0.5,0.5,0.5s0.5-0.224,0.5-0.5V5.54834c0.29901,0.17303,0.5,0.49603,0.5,0.86603
			C17.5,6.96637,17.052,7.41436,16.5,7.41436z"/>
		<path class="st1" d="M4,17.91436c0,0.552,0.448,1,1,1h14c0.552,0,1-0.448,1-1v-9H4V17.91436z M17,9.91436h2v2h-2V9.91436z
			 M17,12.91436h2v2h-2V12.91436z M17,15.91436h2v2h-2V15.91436z M13,9.91436h3v2h-3V9.91436z M13,12.91436h3v2h-3V12.91436z
			 M13,15.91436h3v2h-3V15.91436z M9.01819,9.91436H12v2H9.01819V9.91436z M9.01819,12.91436H12v2H9.01819V12.91436z
			 M9.01819,15.91436H12v2H9.01819V15.91436z M5,9.91436h3.00116v2H5V9.91436z M5,12.91436h3.00116v2H5V12.91436z M5,15.91436
			h3.00116v2H5V15.91436z"/>
	</g>
	
		<rect x="16.58579" y="10.66439" transform="matrix(0.70711 -0.70711 0.70711 0.70711 -2.44554 15.92467)" class="st1" width="2.82843" height="0.49995"/>
	
		<rect x="16.58579" y="13.66439" transform="matrix(0.70711 -0.70711 0.70711 0.70711 -4.56686 16.80334)" class="st1" width="2.82843" height="0.49995"/>
	
		<rect x="16.58579" y="16.66439" transform="matrix(0.70711 -0.70711 0.70711 0.70711 -6.68818 17.68202)" class="st1" width="2.82843" height="0.49995"/>
</g>
</svg>
