<?xml version="1.0" encoding="utf-8"?>
<!-- Generator: Adobe Illustrator 22.0.0, SVG Export Plug-In . SVG Version: 6.00 Build 0)  -->
<svg version="1.1" id="Layer_1" xmlns="http://www.w3.org/2000/svg" xmlns:xlink="http://www.w3.org/1999/xlink" x="0px" y="0px"
	 viewBox="0 0 24 24" style="enable-background:new 0 0 24 24;" xml:space="preserve">
<style type="text/css">
	.st0{fill:#006BBE;}
	.st1{clip-path:url(#SVGID_2_);}
	.st2{fill:#FFFFFF;}
</style>
<circle class="st0" cx="12" cy="12" r="12"/>
<g>
	<defs>
		<rect id="SVGID_1_" x="4" y="4" width="16" height="16"/>
	</defs>
	<clipPath id="SVGID_2_">
		<use xlink:href="#SVGID_1_"  style="overflow:visible;"/>
	</clipPath>
	<g class="st1">
		<path class="st2" d="M19.31,15.339l-1.727-0.997l1.499-0.863l-0.757-1.315l-2.261,1.301l-2.547-1.47l2.537-1.465l2.271,1.307
			l0.757-1.315l-1.509-0.868l1.732-1L18.546,7.34l-1.727,0.997l0.002-1.73l-1.518-0.002l-0.004,2.609l-2.547,1.47V7.755l2.267-1.313
			l-0.761-1.313l-1.507,0.873v-2h-1.518v1.994L9.736,5.129L8.975,6.442l2.257,1.308v2.941L8.695,9.226l-0.004-2.62L7.173,6.608
			l0.002,1.741l-1.732-1L4.684,8.663L6.411,9.66l-1.499,0.863l0.757,1.315l2.261-1.301l2.547,1.47L7.94,13.472l-2.271-1.307
			L4.912,13.48l1.509,0.868l-1.732,1l0.759,1.314l1.727-0.997l-0.002,1.73l1.518,0.002l0.004-2.609l2.547-1.47v2.929L8.975,17.56
			l0.761,1.313L11.243,18v2h1.518v-1.994l1.497,0.867l0.761-1.313l-2.257-1.308v-2.941l2.537,1.465l0.004,2.62l1.518-0.002
			l-0.002-1.741l1.732,1L19.31,15.339z"/>
	</g>
</g>
</svg>
