<?xml version="1.0" standalone="no"?><!-- Generator: Gravit.io --><svg xmlns="http://www.w3.org/2000/svg" xmlns:xlink="http://www.w3.org/1999/xlink" style="isolation:isolate" viewBox="0 0 16 16" width="16" height="16"><defs><clipPath id="_clipPath_EInziQAleCRZEF16IbvIg9LRNk67CLGI"><rect width="16" height="16"/></clipPath></defs><g clip-path="url(#_clipPath_EInziQAleCRZEF16IbvIg9LRNk67CLGI)"><path d=" M 15.31 11.339 L 13.583 10.342 L 15.082 9.479 L 14.325 8.164 L 12.064 9.465 L 9.517 7.995 L 12.054 6.53 L 14.325 7.837 L 15.082 6.522 L 13.573 5.654 L 15.305 4.654 L 14.546 3.34 L 12.819 4.337 L 12.821 2.607 L 11.303 2.605 L 11.299 5.214 L 8.752 6.684 L 8.752 3.755 L 11.019 2.442 L 10.258 1.129 L 8.751 2.002 L 8.751 0.002 L 7.233 0.002 L 7.233 1.996 L 5.736 1.129 L 4.975 2.442 L 7.232 3.75 L 7.232 6.691 L 4.695 5.226 L 4.691 2.606 L 3.173 2.608 L 3.175 4.349 L 1.443 3.349 L 0.684 4.663 L 2.411 5.66 L 0.912 6.523 L 1.669 7.838 L 3.93 6.537 L 6.477 8.007 L 3.94 9.472 L 1.669 8.165 L 0.912 9.48 L 2.421 10.348 L 0.689 11.348 L 1.448 12.662 L 3.175 11.665 L 3.173 13.395 L 4.691 13.397 L 4.695 10.788 L 7.242 9.318 L 7.242 12.247 L 4.975 13.56 L 5.736 14.873 L 7.243 14 L 7.243 16 L 8.761 16 L 8.761 14.006 L 10.258 14.873 L 11.019 13.56 L 8.762 12.252 L 8.762 9.311 L 11.299 10.776 L 11.303 13.396 L 12.821 13.394 L 12.819 11.653 L 14.551 12.653 L 15.31 11.339 Z " fill="rgb(255,255,255)"/></g></svg>