<?xml version="1.0" encoding="utf-8"?>
<!-- Generator: Adobe Illustrator 16.0.4, SVG Export Plug-In . SVG Version: 6.00 Build 0)  -->
<!DOCTYPE svg PUBLIC "-//W3C//DTD SVG 1.1//EN" "http://www.w3.org/Graphics/SVG/1.1/DTD/svg11.dtd">
<svg version="1.1" xmlns="http://www.w3.org/2000/svg" xmlns:xlink="http://www.w3.org/1999/xlink" x="0px" y="0px"
	 width="700.665px" height="188.639px" viewBox="0 0 700.665 188.639" enable-background="new 0 0 700.665 188.639"
	 xml:space="preserve">
<g id="Layer_3">
	<g>
		<g>
			<path d="M117.557,52.082h-3.254c0-8,7.966-18.154,22.729-18.154c10.614,0,18.921,2.143,26.956,4.154
				c8.088,2.025,15.727,3.97,25.769,3.97c11.268,0,20.494-4.269,24.68-11.443l4.232,1.014c-5.566,9.539-14.862,17.619-28.913,17.619
				c-10.924,0-19.355-2.108-27.508-4.148c-7.964-1.994-15.486-4.007-25.217-4.007C125.689,41.086,117.557,49.082,117.557,52.082z"/>
		</g>
		<g>
			<path d="M5.905,152.324c0,18.662,14.312,31.107,30.26,31.107c18.444,0,44.73-16.35,44.73-119.35h8.837
				c0,81-19.909,124.557-50.991,124.557C15.309,188.639,2,174.249,2,152.535 M62.118,115.969c-18.564,0-38.266-14.341-38.266-40.647
				c0-22.35,16.83-64.981,46.771-64.981c8.79,0,17.258,5.853,17.258,12.525c0,13.777-14.805,21.463-27.39,21.463
				c-12.584,0-26.631-3.482-26.631-16.555c0-9.986,8.584-21.155,16.537-25.773l3.596,6.188
				c-5.573,3.236-16.068,12.021-16.065,19.623c0.002,10.45,9.359,12.267,21.755,12.267c9.167,0,18.117-7.106,18.117-17.141
				c0-4.829-2.387-8.766-7.162-8.766c-17.898,0-36.342,19.613-36.342,61.001c0,21.698,15.298,36.892,27.878,36.892
				c17.15,0,18.723-15.982,18.723-44.982h8.619C89.514,92.082,82.354,115.969,62.118,115.969z"/>
		</g>
		<g>
			<path d="M93.895,98.392v-34.31h6.604l-0.04,1.19c2.907-3.245,6.963-5.401,12.672-5.401c5.317,0,9.386,4.139,9.833,4.625
				l-5.263,4.807c-0.587-0.62-0.521-5.712-4.588-5.712c-9.061,0-9.716,11.503-9.716,34.812L93.895,98.392z"/>
		</g>
		<path d="M168.64,99.364c-5.566,0-7.433-2.755-8.762-12.42c-2.103,7.995-5.646,12.422-12.285,12.422
			c-3.891,0-6.983-4.231-8.49-8.63c-2.073,4.724-6.269,8.63-11.791,8.63c-10.062,0-16.068-5.433-16.068-14.53
			c0-6.542,2.954-12.966,8.317-18.088c4.481-4.279,10.174-7.121,14.503-7.121c3.075,0,4.896,0.396,6.292,1.256l-3.101,2.843
			c0,0-0.713-0.193-2.463-0.193c-3.295,0-13.133,7.355-13.133,21.304c0,3.431,2.515,10.574,5.653,10.574
			c9.067,0,9.933-10.69,9.933-30.218l5.859,3.255c0,0-0.107,27.013,4.489,27.013c5.71,0,9.157-5.532,9.157-77.134l7.619,4.004
			c0,59.353,0.217,73.998,6.211,73.998L168.64,99.364z"/>
		<path d="M170.919,96.328c-2.441,0-5.614-11.685-6.371-25.127l-4.67,15.798c1.329,9.665,3.847,12.42,9.413,12.42
			c7.527,0,13.672-8.354,13.504-21.186c-0.091-6.925-1.284-10.438-3.041-13.505c7.877,2.285,21.389,10.36,21.389,16.729
			c0,8.483-8.54,13.731-14.968,13.731c-8.406,0-13.017-1.032-11.986-4.448c1.031-3.417,4.891-2.516,10.468-1.247
			c10.021,2.277,17.649,9.872,28.691,9.872c11.421,0,11.433-15.926,11.433-15.926l-5.574,2.169c0,0,0.213,9.98-6.734,9.98
			c-11.588,0-17.877-10.856-33.54-10.856c-8.309,0-9.923,3.62-9.923,6.332c0,6.021,8.271,8.349,21.129,8.349
			c5.962,0,21.417-1.662,21.417-16.004c0-12.161-15.673-17.459-20.771-19.303s-13.626-3.566-13.626-5.634
			c0-2.069,2.18-4.78,2.18-4.78c0-0.001-1.843-1.79-1.843-1.79c-1.79,0.909-4.884,4.664-4.884,6.677
			c0,4.822,5.203,9.324,5.203,18.383C177.816,90.903,173.36,96.328,170.919,96.328z"/>
		<g>
			<path d="M7.781,41.37l1.279-3.127c3.076,0,9.308-2.017,9.308-7.165c-0.924,0.383-1.954,0.592-3.058,0.592
				c-4.363,0-7.214-3.776-7.214-8.082c0-4.574,2.966-7.648,7.865-7.648c6.767,0,9.576,4.095,9.576,9.509
				C25.536,34.844,19.594,41.37,7.781,41.37z"/>
		</g>
		<g>
			<path d="M264.895,109.088c-16,0-26.463,11.881-26.463,24.768c0,14.896,9.593,25.152,22.321,25.152
				c14.72,0,34.611-13.926,34.611-94.926h8.312c0,64-15.89,99.084-40.696,99.084c-18.702,0-29.665-11.646-29.665-28.978
				c0-14.128,12.58-29.853,31.58-29.853V109.088z M281.636,104.97c-14.816,0-32.541-11.293-32.541-32.507
				s15.432-51.894,39.328-51.894c7.016,0,13.774,4.655,13.774,9.98c0,10.997-11.816,17.121-21.86,17.121
				s-23.255-1.782-23.255-12.216c0-7.971,8.851-17.888,15.198-21.572l2.87,4.938c-4.448,2.582-12.824,9.593-12.822,15.661
				c0.002,8.341,7.47,9.79,17.363,9.79c7.315,0,14.458-5.672,14.458-13.681c0-3.854-1.904-6.996-5.716-6.996
				c-14.285,0-29.005,15.654-29.005,48.687c0,17.317,12.209,29.571,22.25,29.571c13.688,0,13.685-12.771,13.685-35.771h8.138
				C303.501,86.082,297.786,104.97,281.636,104.97z"/>
		</g>
		<path d="M387.949,68.395c0-4.211-4.643-8.234-10.366-8.234c-11.608,0-19.904,10.825-19.904,22.029
			c0,11.097,8.066,17.975,17.704,17.975c14.471,0,20.085-9.956,20.085-28.099h-3.888c0,14.254-2.051,23.239-14.9,23.239
			c-6.588,0-10.335-8.059-10.335-15.356c0-7.451,4.449-16.197,8.822-16.197c2.537,0,4.394,2.051,4.394,5.778
			c0,14.564-19.296,25.538-29.608,25.538c-7.695,0-14.472-7.938-14.472-15.117c0-8.059,3.781-16.308,8.802-16.308
			c2.754,0,4.212,2.106,4.212,5.346c0,15.321-19.438,23.867-24.89,23.867l-1.431,3.185c12.5,0,34.83-11.339,34.83-27.565
			c0-4.792-5.131-8.314-9.871-8.314c-15.347,0-20.533,8.449-20.533,22.095c0,7.751,6.345,17.349,20.762,17.349
			C363.395,99.604,387.949,82.756,387.949,68.395z"/>
		<g>
			<path d="M422.938,99.602c-2.011,0-8.573-0.899-8.573-12.486c0-2.974,0.064-5.64,0.121-7.992
				c0.126-5.346-0.147-15.158-4.939-15.158s-7.6,3.239-7.6,34.665H391.58V63.643h7.128v1.83c3.63-4.414,8.229-5.394,12.783-5.394
				c3.199,0,5.581,0.846,7.282,2.587c3.156,3.231,5.627,8.274,5.429,16.627c-0.055,2.312-0.358,15.774,2.624,15.774
				c5.68,0,23.26-10.217,23.26-24.183c0-3.657-1.488-7.134-4.081-7.134c-4.428,0-9.07,8.465-9.07,16.022
				c0,7.56,5.912,15.617,11.879,15.617c15.227,0,15.895-23.258,15.915-23.462h3.853c0,16.112-9.618,27.673-21.361,27.673
				c-11.742,0-19.06-9.448-19.06-19.653c0-10.434,8.774-19.741,20.673-19.741c5.959,0,9.719,3.692,9.719,8.208
				C458.551,82.107,436.934,99.602,422.938,99.602z"/>
		</g>
		<g>
			<path d="M464.714,98.633V63.641h6.235v1.604c2.591-3.23,6.871-5.166,12.554-5.166c5.293,0,9.312,4.227,9.757,4.708l-5.254,4.838
				c0,0-1.507-5.658-5.871-5.658c-7.784,0-8.084,11.463-8.084,34.663L464.714,98.633z"/>
		</g>
		<g>
			<path d="M307.028,98.633V63.645l6.028-0.004l-0.018,1.604c2.896-3.229,6.943-5.166,12.625-5.166c5.293,0,9.349,4.227,9.793,4.708
				l-5.236,4.838c-0.584-0.616-0.516-5.658-4.565-5.658c-6.805,0-9.305,11.463-9.305,34.663L307.028,98.633z"/>
		</g>
		<path d="M658.882,99.683c-5.922,0-8.79-4.69-10.213-10.171c-2.565,4.844-7.172,10.171-14.328,10.171
			c-8.385,0-16.87-6.677-16.87-15.739c0-14.828,8.754-23.652,20.817-23.652c2.523,0,4.461,0.404,6.464,1.51l-3.442,3.117
			c-0.787-0.491-1.832-0.752-3.021-0.752c-8.076,0-10.701,8.167-10.701,19.051c0,9.148,4.037,12.591,6.754,12.591
			c9.577,0,9.619-12.395,9.78-14.197c0.326-3.662,1.953-22.995,1.953-44.136l6.457,3.229c0,0,0,25.659,0.729,35.736
			c1.033,14.268,3.6,19.314,5.858,19.314c5.275,0,8.268-3.112,8.414-7.612c0.278-8.555-3.999-12.676-3.999-12.676v-2.664
			c0,0,6.989,5.517,7.013,14.77C670.565,94.144,667.185,99.683,658.882,99.683z"/>
		<path d="M561.413,98.716V63.842h6.101l-0.018,1.6c2.886-3.219,6.921-5.15,12.584-5.15c5.275,0,9.316,4.215,9.76,4.693
			l-5.218,4.822c-0.583-0.615-0.515-5.641-4.55-5.641c-9.601,0-9.274,11.427-9.274,34.55H561.413z"/>
		<path d="M624.529,87.36c-2.084,7.932-4.309,12.322-10.895,12.322c-3.967,0-7.464-3.228-8.421-7.27
			c-1.815,3.961-6.221,7.27-11.698,7.27c-9.982,0-15.94-5.389-15.94-14.415c0-6.49,2.931-12.863,8.251-17.942
			c4.445-4.246,10.094-7.02,14.389-7.065c2.34-0.027,4.211,0.394,5.595,1.246l-3.076,2.821c0,0-0.698-0.193-1.797-0.193
			c-2.946,0-13.028,7.298-13.028,21.134c0,3.404,2.494,10.491,5.607,10.491c9.317,0,9.854-10.605,9.854-29.979l5.166,3.229
			c0,0,0.54,26.798,5.099,26.798c0.056,0,3.943-1.291,3.998-11.622L624.529,87.36z"/>
		<g>
			<path d="M602.079,104.85c34.441,0,72.057,13.075,78.81,13.075c6.148,0,12.351-2.744,12.351-10.978s-10.494-15.257-15.104-18.23
				c-4.534-2.928-17.722-12.101-17.722-21.24c0-8.74,6.996-14.611,17.407-14.611c4.952,0,9.807,1.887,12.67,4.926l-4.698,4.429
				c-1.359-1.441-4.016-6.125-7.972-6.125c-3.955,0-10.948,1.936-10.948,9.767s11.866,12.46,15.687,14.625
				c3.818,2.164,18.105,11.297,18.105,22.264c0,11.786-8.703,20.019-19.776,20.019c-13.156,0-38.127-8.233-78.81-8.233
				C557.551,114.535,579.887,104.85,602.079,104.85z"/>
		</g>
		<g>
			<path d="M544.38,75.086c0-7.96-1.36-11.188-3.97-11.188c-13.845,0-24.755,11.366-24.755,21.471
				c0,5.354,4.036,10.764,10.548,10.764c16.816,0,22.1-13.128,22.1-13.128l6.017,3.371c0,0-10.17,12.985-34.573,12.985
				c-8.949,0-13.776-7.208-13.776-13.992c0-6.262,4.158-12.599,11.413-17.384c7.148-4.719,16.242-7.314,25.61-7.314
				c11.072,0,11.072,9.737,11.072,14.416c0,38.803,7.571,42.996,7.571,78.549c0,16.92-19.613,32.902-47.057,32.902
				c-21.393,0-41.552-12.273-41.552-35.731c0-9.057,3.2-45.956,129.05-45.956v9.686c-97.517,0-124.362,25.88-124.362,36.271
				c0,17.276,16.028,31.003,36.864,31.003s39.985-12.514,39.985-30.111c0-33.282-10.186-37.484-10.186-63.318
				C544.38,82.59,544.38,75.086,544.38,75.086z"/>
		</g>
		<ellipse transform="matrix(0.6896 0.7241 -0.7241 0.6896 257.4654 -478.7095)" cx="687.214" cy="61.015" rx="4.047" ry="4.587"/>
		<ellipse transform="matrix(0.6896 0.7241 -0.7241 0.6896 201.2875 -333.701)" cx="489.953" cy="67.979" rx="4.047" ry="4.587"/>
		<g>
			<path d="M258.562,186.749c-13.713,0-49.228-7.396-90.351-15.959c-34.107-7.102-72.766-15.151-103.537-19.849
				c-47.702-7.283-58.768-5.026-58.768,1.383L2,152.535c0-2.823,3.458-15.377,25.458-15.377c27.146,0,76.133,9.962,142.791,23.843
				c38.894,8.099,75.63,15.748,88.312,15.748c46.707,0,53.681-22.986,53.681-36.688c0-19.833-17.294-31.685-34.013-31.685
				c-17.016,0-31.845,2.066-38.556,17.882l-4.603-1.428c5.574-13.874,16.762-20.812,37.137-20.812
				c36.5,0,50.035,24.093,50.035,36.042c0,14.557-5.935,26.54-17.162,34.654C294.032,182.7,278.381,186.749,258.562,186.749z"/>
		</g>
	</g>
</g>
<g id="Inline">
	<g>
		<path fill="#FFFFFF" d="M115.557,50.082h-3.254c0-8,7.966-18.154,22.729-18.154c10.614,0,18.921,2.143,26.956,4.154
			c8.088,2.025,15.727,3.97,25.769,3.97c11.268,0,20.494-4.269,24.68-11.443l4.232,1.014c-5.566,9.539-14.862,17.619-28.913,17.619
			c-10.924,0-19.355-2.108-27.508-4.148c-7.964-1.994-15.486-4.007-25.217-4.007C123.689,39.086,115.557,47.082,115.557,50.082z"/>
	</g>
	<g>
		<path fill="#FFFFFF" d="M3.905,150.324c0,18.662,14.312,31.107,30.26,31.107c18.444,0,44.73-16.35,44.73-119.35h8.837
			c0,81-19.909,124.557-50.991,124.557C13.309,186.639,0,172.249,0,150.535 M60.118,113.969c-18.564,0-38.266-14.341-38.266-40.647
			c0-22.35,16.83-64.981,46.771-64.981c8.79,0,17.258,5.853,17.258,12.525c0,13.777-14.805,21.463-27.39,21.463
			c-12.584,0-26.631-3.482-26.631-16.555c0-9.986,8.584-21.155,16.537-25.773l3.596,6.188c-5.573,3.236-16.068,12.021-16.065,19.623
			c0.002,10.45,9.359,12.267,21.755,12.267c9.167,0,18.117-7.106,18.117-17.141c0-4.829-2.387-8.766-7.162-8.766
			c-17.898,0-36.342,19.613-36.342,61.001c0,21.698,15.298,36.892,27.878,36.892c17.15,0,18.723-15.982,18.723-44.982h8.619
			C87.514,90.082,80.354,113.969,60.118,113.969z"/>
	</g>
	<g>
		<path fill="#FFFFFF" d="M91.895,96.392v-34.31h6.604l-0.04,1.19c2.907-3.245,6.963-5.401,12.672-5.401
			c5.317,0,9.386,4.139,9.833,4.625l-5.263,4.807c-0.587-0.62-0.521-5.712-4.588-5.712c-9.061,0-9.716,11.503-9.716,34.812
			L91.895,96.392z"/>
	</g>
	<path fill="#FFFFFF" d="M166.64,97.364c-5.566,0-7.433-2.755-8.762-12.42c-2.103,7.995-5.646,12.422-12.285,12.422
		c-3.891,0-6.983-4.231-8.49-8.63c-2.073,4.724-6.269,8.63-11.791,8.63c-10.062,0-16.068-5.433-16.068-14.53
		c0-6.542,2.954-12.966,8.317-18.088c4.481-4.279,10.174-7.121,14.503-7.121c3.075,0,4.896,0.396,6.292,1.256l-3.101,2.843
		c0,0-0.713-0.193-2.463-0.193c-3.295,0-13.133,7.355-13.133,21.304c0,3.431,2.515,10.574,5.653,10.574
		c9.067,0,9.933-10.69,9.933-30.218l5.859,3.255c0,0-0.107,27.013,4.489,27.013c5.71,0,9.157-5.532,9.157-77.134l7.619,4.004
		c0,59.353,0.217,73.998,6.211,73.998L166.64,97.364z"/>
	<path fill="#FFFFFF" d="M168.919,94.328c-2.441,0-5.614-11.685-6.371-25.127l-4.67,15.798c1.329,9.665,3.847,12.42,9.413,12.42
		c7.527,0,13.672-8.354,13.504-21.186c-0.091-6.925-1.284-10.438-3.041-13.505c7.877,2.285,21.389,10.36,21.389,16.729
		c0,8.483-8.54,13.731-14.968,13.731c-8.406,0-13.017-1.032-11.986-4.448c1.031-3.417,4.891-2.516,10.468-1.247
		c10.021,2.277,17.649,9.872,28.691,9.872c11.421,0,11.433-15.926,11.433-15.926l-5.574,2.169c0,0,0.213,9.98-6.734,9.98
		c-11.588,0-17.877-10.856-33.54-10.856c-8.309,0-9.923,3.62-9.923,6.332c0,6.021,8.271,8.349,21.129,8.349
		c5.962,0,21.417-1.662,21.417-16.004c0-12.161-15.673-17.459-20.771-19.303s-13.626-3.566-13.626-5.634
		c0-2.069,2.18-4.78,2.18-4.78c0-0.001-1.843-1.79-1.843-1.79c-1.79,0.909-4.884,4.664-4.884,6.677
		c0,4.822,5.203,9.324,5.203,18.383C175.816,88.903,171.36,94.328,168.919,94.328z"/>
	<g>
		<path fill="#FFFFFF" d="M5.781,39.37l1.279-3.127c3.076,0,9.308-2.017,9.308-7.165c-0.924,0.383-1.954,0.592-3.058,0.592
			c-4.363,0-7.214-3.776-7.214-8.082c0-4.574,2.966-7.648,7.865-7.648c6.767,0,9.576,4.095,9.576,9.509
			C23.536,32.844,17.594,39.37,5.781,39.37z"/>
	</g>
	<g>
		<path fill="#FFFFFF" d="M262.895,107.088c-16,0-26.463,11.881-26.463,24.768c0,14.896,9.593,25.152,22.321,25.152
			c14.72,0,34.611-13.926,34.611-94.926h8.312c0,64-15.89,99.084-40.696,99.084c-18.702,0-29.665-11.646-29.665-28.978
			c0-14.128,12.58-29.853,31.58-29.853V107.088z M279.636,102.97c-14.816,0-32.541-11.293-32.541-32.507
			s15.432-51.894,39.328-51.894c7.016,0,13.774,4.655,13.774,9.98c0,10.997-11.816,17.121-21.86,17.121s-23.255-1.782-23.255-12.216
			c0-7.971,8.851-17.888,15.198-21.572l2.87,4.938c-4.448,2.582-12.824,9.593-12.822,15.661c0.002,8.341,7.47,9.79,17.363,9.79
			c7.315,0,14.458-5.672,14.458-13.681c0-3.854-1.904-6.996-5.716-6.996c-14.285,0-29.005,15.654-29.005,48.687
			c0,17.317,12.209,29.571,22.25,29.571c13.688,0,13.685-12.771,13.685-35.771h8.138C301.501,84.082,295.786,102.97,279.636,102.97z
			"/>
	</g>
	<path fill="#FFFFFF" d="M385.949,66.395c0-4.211-4.643-8.234-10.366-8.234c-11.608,0-19.904,10.825-19.904,22.029
		c0,11.097,8.066,17.975,17.704,17.975c14.471,0,20.085-9.956,20.085-28.099h-3.888c0,14.254-2.051,23.239-14.9,23.239
		c-6.588,0-10.335-8.059-10.335-15.356c0-7.451,4.449-16.197,8.822-16.197c2.537,0,4.394,2.051,4.394,5.778
		c0,14.564-19.296,25.538-29.608,25.538c-7.695,0-14.472-7.938-14.472-15.117c0-8.059,3.781-16.308,8.802-16.308
		c2.754,0,4.212,2.106,4.212,5.346c0,15.321-19.438,23.867-24.89,23.867l-1.431,3.185c12.5,0,34.83-11.339,34.83-27.565
		c0-4.792-5.131-8.314-9.871-8.314c-15.347,0-20.533,8.449-20.533,22.095c0,7.751,6.345,17.349,20.762,17.349
		C361.395,97.604,385.949,80.756,385.949,66.395z"/>
	<g>
		<path fill="#FFFFFF" d="M420.938,97.602c-2.011,0-8.573-0.899-8.573-12.486c0-2.974,0.064-5.64,0.121-7.992
			c0.126-5.346-0.147-15.158-4.939-15.158s-7.6,3.239-7.6,34.665H389.58V61.643h7.128v1.83c3.63-4.414,8.229-5.394,12.783-5.394
			c3.199,0,5.581,0.846,7.282,2.587c3.156,3.231,5.627,8.274,5.429,16.627c-0.055,2.312-0.358,15.774,2.624,15.774
			c5.68,0,23.26-10.217,23.26-24.183c0-3.657-1.488-7.134-4.081-7.134c-4.428,0-9.07,8.465-9.07,16.022
			c0,7.56,5.912,15.617,11.879,15.617c15.227,0,15.895-23.258,15.915-23.462h3.853c0,16.112-9.618,27.673-21.361,27.673
			c-11.742,0-19.06-9.448-19.06-19.653c0-10.434,8.774-19.741,20.673-19.741c5.959,0,9.719,3.692,9.719,8.208
			C456.551,80.107,434.934,97.602,420.938,97.602z"/>
	</g>
	<g>
		<path fill="#FFFFFF" d="M462.714,96.633V61.641h6.235v1.604c2.591-3.23,6.871-5.166,12.554-5.166c5.293,0,9.312,4.227,9.757,4.708
			l-5.254,4.838c0,0-1.507-5.658-5.871-5.658c-7.784,0-8.084,11.463-8.084,34.663L462.714,96.633z"/>
	</g>
	<g>
		<path fill="#FFFFFF" d="M305.028,96.633V61.645l6.028-0.004l-0.018,1.604c2.896-3.229,6.943-5.166,12.625-5.166
			c5.293,0,9.349,4.227,9.793,4.708l-5.236,4.838c-0.584-0.616-0.516-5.658-4.565-5.658c-6.805,0-9.305,11.463-9.305,34.663
			L305.028,96.633z"/>
	</g>
	<path fill="#FFFFFF" d="M656.882,97.683c-5.922,0-8.79-4.69-10.213-10.171c-2.565,4.844-7.172,10.171-14.328,10.171
		c-8.385,0-16.87-6.677-16.87-15.739c0-14.828,8.754-23.652,20.817-23.652c2.523,0,4.461,0.404,6.464,1.51l-3.442,3.117
		c-0.787-0.491-1.832-0.752-3.021-0.752c-8.076,0-10.701,8.167-10.701,19.051c0,9.148,4.037,12.591,6.754,12.591
		c9.577,0,9.619-12.395,9.78-14.197c0.326-3.662,1.953-22.995,1.953-44.136l6.457,3.229c0,0,0,25.659,0.729,35.736
		c1.033,14.268,3.6,19.314,5.858,19.314c5.275,0,8.268-3.112,8.414-7.612c0.278-8.555-3.999-12.676-3.999-12.676v-2.664
		c0,0,6.989,5.517,7.013,14.77C668.565,92.144,665.185,97.683,656.882,97.683z"/>
	<path fill="#FFFFFF" d="M559.413,96.716V61.842h6.101l-0.018,1.6c2.886-3.219,6.921-5.15,12.584-5.15
		c5.275,0,9.316,4.215,9.76,4.693l-5.218,4.822c-0.583-0.615-0.515-5.641-4.55-5.641c-9.601,0-9.274,11.427-9.274,34.55H559.413z"/>
	<path fill="#FFFFFF" d="M622.529,85.36c-2.084,7.932-4.309,12.322-10.895,12.322c-3.967,0-7.464-3.228-8.421-7.27
		c-1.815,3.961-6.221,7.27-11.698,7.27c-9.982,0-15.94-5.389-15.94-14.415c0-6.49,2.931-12.863,8.251-17.942
		c4.445-4.246,10.094-7.02,14.389-7.065c2.34-0.027,4.211,0.394,5.595,1.246l-3.076,2.821c0,0-0.698-0.193-1.797-0.193
		c-2.946,0-13.028,7.298-13.028,21.134c0,3.404,2.494,10.491,5.607,10.491c9.317,0,9.854-10.605,9.854-29.979l5.166,3.229
		c0,0,0.54,26.798,5.099,26.798c0.056,0,3.943-1.291,3.998-11.622L622.529,85.36z"/>
	<g>
		<path fill="#FFFFFF" d="M600.079,102.85c34.441,0,72.057,13.075,78.81,13.075c6.148,0,12.351-2.744,12.351-10.978
			s-10.494-15.257-15.104-18.23c-4.534-2.928-17.722-12.101-17.722-21.24c0-8.74,6.996-14.611,17.407-14.611
			c4.952,0,9.807,1.887,12.67,4.926l-4.698,4.429c-1.359-1.441-4.016-6.125-7.972-6.125c-3.955,0-10.948,1.936-10.948,9.767
			s11.866,12.46,15.687,14.625c3.818,2.164,18.105,11.297,18.105,22.264c0,11.786-8.703,20.019-19.776,20.019
			c-13.156,0-38.127-8.233-78.81-8.233C555.551,112.535,577.887,102.85,600.079,102.85z"/>
	</g>
	<g>
		<path fill="#FFFFFF" d="M542.38,73.086c0-7.96-1.36-11.188-3.97-11.188c-13.845,0-24.755,11.366-24.755,21.471
			c0,5.354,4.036,10.764,10.548,10.764c16.816,0,22.1-13.128,22.1-13.128l6.017,3.371c0,0-10.17,12.985-34.573,12.985
			c-8.949,0-13.776-7.208-13.776-13.992c0-6.262,4.158-12.599,11.413-17.384c7.148-4.719,16.242-7.314,25.61-7.314
			c11.072,0,11.072,9.737,11.072,14.416c0,38.803,7.571,42.996,7.571,78.549c0,16.92-19.613,32.902-47.057,32.902
			c-21.393,0-41.552-12.273-41.552-35.731c0-9.057,3.2-45.956,129.05-45.956v9.686c-97.517,0-124.362,25.88-124.362,36.271
			c0,17.276,16.028,31.003,36.864,31.003s39.985-12.514,39.985-30.111c0-33.282-10.186-37.484-10.186-63.318
			C542.38,80.59,542.38,73.086,542.38,73.086z"/>
	</g>
	
		<ellipse transform="matrix(0.6896 0.7241 -0.7241 0.6896 255.3964 -477.882)" fill="#FFFFFF" cx="685.214" cy="59.015" rx="4.047" ry="4.587"/>
	
		<ellipse transform="matrix(0.6896 0.7241 -0.7241 0.6896 199.2185 -332.8734)" fill="#FFFFFF" cx="487.953" cy="65.979" rx="4.047" ry="4.587"/>
</g>
<g id="Inline_swash">
	<g>
		<path fill="#FFFFFF" d="M256.562,184.749c-13.713,0-49.228-7.396-90.351-15.959c-34.107-7.102-72.766-15.151-103.537-19.849
			c-47.702-7.283-58.768-5.026-58.768,1.383L0,150.535c0-2.823,3.458-15.377,25.458-15.377c27.146,0,76.133,9.962,142.791,23.843
			c38.894,8.099,75.63,15.748,88.312,15.748c46.707,0,53.681-22.986,53.681-36.688c0-19.833-17.294-31.685-34.013-31.685
			c-17.016,0-31.845,2.066-38.556,17.882l-4.603-1.428c5.574-13.874,16.762-20.812,37.137-20.812
			c36.5,0,50.035,24.093,50.035,36.042c0,14.557-5.935,26.54-17.162,34.654C292.032,180.7,276.381,184.749,256.562,184.749z"/>
	</g>
</g>
</svg>
