<?xml version="1.0" encoding="utf-8"?>
<!-- Generator: Adobe Illustrator 16.0.4, SVG Export Plug-In . SVG Version: 6.00 Build 0)  -->
<!DOCTYPE svg PUBLIC "-//W3C//DTD SVG 1.1//EN" "http://www.w3.org/Graphics/SVG/1.1/DTD/svg11.dtd">
<svg version="1.1" xmlns="http://www.w3.org/2000/svg" xmlns:xlink="http://www.w3.org/1999/xlink" x="0px" y="0px"
	 width="534.43px" height="511.83px" viewBox="0 0 534.43 511.83" enable-background="new 0 0 534.43 511.83" xml:space="preserve">
<g id="Layer_6">
	
		<ellipse transform="matrix(0.7071 -0.7071 0.7071 0.7071 -102.6937 263.905)" opacity="0.85" fill="#64933A" cx="267.215" cy="255.915" rx="234.325" ry="274.113"/>
</g>
<g id="Layer_5">
	<g>
		<g>
			<path d="M179.528,79.09h-5c0-13,12.238-27.961,34.918-27.961c16.306,0,29.068,3.259,41.412,6.349
				c12.426,3.11,24.161,6.08,39.588,6.08c17.312,0,31.485-6.565,37.916-17.589l6.502,1.552
				c-8.55,14.655-22.833,27.065-44.418,27.065c-16.783,0-29.734-3.24-42.26-6.375c-12.234-3.062-23.791-6.084-38.74-6.084
				C192.022,62.127,179.528,73.09,179.528,79.09z"/>
		</g>
		<path d="M370.341,213.423c0-6.5-7.165-12.709-15.998-12.709c-17.917,0-30.722,16.71-30.722,34
			c0,17.128,12.45,27.743,27.325,27.743c22.333,0,31-15.367,31-43.367h-6c0,22-3.166,35.867-23,35.867
			c-10.166,0-15.949-12.438-15.949-23.701c0-11.499,6.866-25,13.616-25c3.917,0,6.782,3.167,6.782,8.918
			c0,22.48-29.783,39.418-45.699,39.418c-11.875,0-22.336-12.251-22.336-23.333c0-12.438,5.836-25.169,13.586-25.169
			c4.25,0,6.5,3.25,6.5,8.25c0,23.648-30.001,36.836-38.416,36.836l-2.208,4.916c19.291,0,53.757-17.501,53.757-42.545
			c0-7.395-7.921-12.833-15.235-12.833c-23.686,0-31.69,13.042-31.69,34.102c0,11.963,9.793,26.776,32.043,26.776
			C332.446,261.592,370.341,235.59,370.341,213.423z"/>
		<g>
			<path d="M424.345,261.59c-3.104,0-13.231-1.39-13.231-19.271c0-4.592,0.098-8.706,0.185-12.336
				c0.196-8.25-0.226-23.395-7.622-23.395s-11.729,5-11.729,53.502h-16v-54h11v2.822c5.603-6.812,12.702-8.324,19.729-8.324
				c4.939,0,8.616,1.307,11.24,3.994c4.87,4.988,8.686,12.77,8.379,25.662c-0.085,3.568-0.552,24.346,4.05,24.346
				c8.767,0,35.898-15.77,35.898-37.322c0-5.646-2.297-11.011-6.298-11.011c-6.832,0-14,13.064-14,24.73s9.126,24.104,18.336,24.104
				c23.499,0,24.53-35.896,24.562-36.213h5.945c0,24.869-14.843,42.713-32.968,42.713s-29.417-14.584-29.417-30.333
				c0-16.105,13.541-30.471,31.907-30.471c9.196,0,14.998,5.7,14.998,12.668C479.31,234.59,445.945,261.59,424.345,261.59z"/>
		</g>
		<g>
			<path d="M488.821,260.093v-54.006h9.625v2.476c4-4.985,10.605-7.973,19.375-7.973c8.17,0,14.373,6.523,15.061,7.267l-8.109,7.467
				c0,0-2.326-8.733-9.061-8.733c-12.015,0-12.478,17.691-12.478,53.5L488.821,260.093z"/>
		</g>
		<g>
			<path d="M245.446,260.093v-54l9.305-0.006l-0.026,2.476c4.468-4.984,10.716-7.973,19.485-7.973c8.17,0,14.428,6.523,15.115,7.267
				l-8.081,7.467c-0.901-0.952-0.797-8.733-7.046-8.733c-10.502,0-14.361,17.691-14.361,53.5L245.446,260.093z"/>
		</g>
		<path d="M425.743,356.59c-9.172,0-13.613-7.263-15.814-15.75c-3.975,7.502-11.107,15.75-22.19,15.75
			c-12.982,0-26.125-10.342-26.125-24.375c0-22.96,13.559-36.625,32.239-36.625c3.906,0,6.906,0.625,10.009,2.336l-5.33,4.828
			c-1.218-0.762-2.837-1.164-4.679-1.164c-12.506,0-16.572,12.646-16.572,29.5c0,14.167,6.251,19.5,10.458,19.5
			c14.833,0,14.897-19.193,15.146-21.987c0.505-5.67,3.022-35.609,3.022-68.347l10,5c0,0,0,39.736,1.13,55.342
			c1.601,22.095,5.576,29.909,9.076,29.909c8.166,0,12.8-4.819,13.027-11.79c0.432-13.248-6.194-19.627-6.194-19.627v-4.125
			c0,0,10.826,8.543,10.862,22.871C443.834,348.013,438.598,356.59,425.743,356.59z"/>
		<path d="M409.929,340.84"/>
		<path d="M444.28,344.132"/>
		<path d="M274.806,355.093v-54.006h9.445l-0.026,2.476c4.468-4.984,10.716-7.973,19.485-7.973c8.17,0,14.428,6.523,15.115,7.267
			l-8.081,7.467c-0.901-0.952-0.797-8.733-7.046-8.733c-14.865,0-14.361,17.694-14.361,53.503H274.806z"/>
		<path d="M372.546,337.507c-3.23,12.283-6.674,19.083-16.872,19.083c-6.144,0-11.561-4.999-13.043-11.258
			c-2.81,6.133-9.63,11.258-18.114,11.258c-15.457,0-24.685-8.346-24.685-22.323c0-10.051,4.537-19.919,12.776-27.786
			c6.885-6.574,15.631-10.869,22.281-10.941c3.625-0.042,6.521,0.61,8.666,1.93l-4.764,4.369c0,0-1.082-0.299-2.783-0.299
			c-4.562,0-20.177,11.301-20.177,32.728c0,5.272,3.864,16.246,8.685,16.246c14.43,0,15.261-16.423,15.261-46.423l8,5
			c0,0,0.836,41.499,7.896,41.499c0.084,0,6.106-1.999,6.189-17.999L372.546,337.507z"/>
		<g>
			<path d="M167.244,279.693l-10.048-3.271c0,0-18.75-95-93.75-95C30.28,181.423,8,208.143,8,232.949
				c0,28.67,21.988,47.141,46.488,47.141c28.334,0,66.294-23,66.294-184h16c0,126.25-30.586,192-78.336,192
				c-36,0-56.446-21.781-56.446-55.141c0-27.193,22.946-57.026,61.446-57.026C156.946,175.923,167.244,279.693,167.244,279.693z
				 M94.357,176.646c-28.519,0-58.787-21.808-58.787-62.223c0-34.334,25.855-99.716,71.853-99.716
				c13.504,0,26.513,9.049,26.513,19.299c0,21.167-22.745,33-42.078,33S50.944,61.673,50.944,41.59
				c0-15.342,13.188-32.495,25.405-39.59l5.524,9.514C73.312,16.484,57.189,29.98,57.192,41.66
				c0.004,16.055,14.379,18.847,33.422,18.847c14.083,0,27.833-10.917,27.833-26.333c0-7.417-3.667-13.465-11.002-13.465
				c-27.498,0-55.832,30.132-55.832,93.716c0,33.332,23.501,56.223,42.829,56.223c26.347,0,26.341-24.445,26.341-69.557h15.664
				C136.446,139.756,125.446,176.646,94.357,176.646z"/>
		</g>
		<g>
			<path d="M144.446,150.093V96.09h8.875l-0.062,2.474c4.468-4.984,10.698-7.973,19.468-7.973c8.17,0,14.419,6.523,15.106,7.266
				l-8.085,7.466c-0.901-0.952-0.799-8.733-7.048-8.733c-13.92,0-14.292,17.691-14.292,53.5L144.446,150.093z"/>
		</g>
		<path d="M258.007,151.588c-8.551,0-11.418-4.232-13.461-19.081c-3.23,12.283-8.674,19.083-18.872,19.083
			c-5.978,0-10.728-6.5-13.043-13.258c-3.185,7.258-9.63,13.258-18.114,13.258c-15.457,0-24.685-8.346-24.685-22.323
			c0-10.051,4.537-19.919,12.776-27.786c6.885-6.574,15.63-10.941,22.281-10.941c4.724,0,7.521,0.61,9.666,1.93l-4.764,4.369
			c0,0-1.096-0.299-3.783-0.299c-5.062,0-20.177,11.301-20.177,32.728c0,5.272,3.864,16.246,8.685,16.246
			c13.93,0,15.261-16.423,15.261-46.423l9,5c0,0-0.164,41.499,6.896,41.499c8.772,0,14.066-8.499,14.066-118.499l11.706,6.15
			c0,91.183,0.333,113.683,9.542,113.683L258.007,151.588z"/>
		<path d="M261.509,146.923c-3.75,0-8.625-17.949-9.787-38.602l-7.176,24.269c2.043,14.849,5.91,19.081,14.461,19.081
			c11.564,0,21.005-12.833,20.746-32.547c-0.14-10.638-1.973-16.034-4.672-20.748c12.102,3.512,32.859,15.917,32.859,25.701
			c0,13.033-13.119,21.096-22.994,21.096c-12.914,0-19.998-1.583-18.414-6.833s7.514-3.863,16.082-1.916
			c15.395,3.499,57.582,31.322,93.332,31.322c19.878,0,40.75-14.23,40.75-14.23l-9.488-5.191c0,0-7.881,13.765-33.006,13.765
			c-35.421,0-76.318-32.979-100.381-32.979c-12.766,0-15.245,5.562-15.245,9.729c0,9.25,12.706,12.825,32.461,12.825
			c9.159,0,32.903-2.555,32.903-24.588c0-18.683-24.078-26.82-31.911-29.654s-20.934-5.479-20.934-8.656s3.351-7.344,3.351-7.344
			c0,0-2.833-2.75-2.833-2.75c-2.75,1.397-7.503,7.167-7.503,10.259c0,7.408,7.993,14.324,7.993,28.241
			C272.104,138.59,265.259,146.923,261.509,146.923z"/>
		<g>
			<path d="M10.881,62.492l1.965-4.805c4.726,0,14.299-3.098,14.299-11.008c-1.42,0.59-3.001,0.91-4.699,0.91
				c-6.703,0-11.083-5.802-11.083-12.416c0-7.028,4.557-11.75,12.083-11.75c10.396,0,14.711,6.292,14.711,14.607
				C38.158,52.465,29.03,62.492,10.881,62.492z"/>
		</g>
		<g>
			<path d="M375.446,167.434c-12.146,0-23.79-2.429-35.923-7.441l1.907-4.622c8.438,3.486,17.298,5.717,26.162,5.717
				c32.421,0,64.711-23.709,64.711-64.997c0-25.319-18.109-53.556-40.63-53.556c-22.728,0-44.803,19.825-44.803,40.815
				s9.825,36.867,25.243,36.867c17.332,0,26.497-16.423,26.497-26.62c0-7.473-4.452-14.577-11.77-17.592l3.813-9.243
				c11.09,4.583,17.951,16.645,17.951,26.612s-9.658,32.991-35.159,32.991s-40.097-16.405-40.097-43.777
				s25.597-45.184,58.604-45.184c37.203,0,53.851,30.204,53.851,59.027C445.805,131.423,422.196,167.434,375.446,167.434z"/>
		</g>
		<g>
			<path d="M101.057,443.082l-5.554-8.316c25.587-17.086,67.023-34.716,113.685-48.37c47.355-13.857,94.225-21.805,128.591-21.805
				c53.335,0,111.584,20.249,122.042,20.249c9.52,0,19.125-4.25,19.125-17s-16.25-23.625-23.387-28.231
				c-7.024-4.534-27.445-18.738-27.445-32.895c0-13.532,10.833-22.624,26.957-22.624c7.667,0,15.186,2.922,19.62,7.626l-7.275,6.859
				c-2.105-2.232-6.22-9.485-12.345-9.485s-16.957,2.998-16.957,15.124s18.379,19.296,24.293,22.648s28.039,17.494,28.039,34.478
				c0,18.252-13.477,31-30.625,31c-20.375,0-59.042-12.749-122.042-12.749C268.823,379.591,153.78,407.876,101.057,443.082z"/>
		</g>
		<g>
			<path d="M126.462,421.272c-35.266,0-78.262-26.183-78.262-71.433c0-32.75,26.246-58.893,59.724-58.893
				c35.022,0,53.512,24.893,53.512,44.143c0,23.75-17.739,39.464-41.739,39.464c-19.5,0-33.606-12.714-33.606-29.393
				c0-15.321,12.856-25.899,26.105-25.899c9.433,0,18.511,2.706,22.475,11.885l-9.181,3.965c-2.27-5.258-7.43-10.858-12.825-10.858
				c-9.968,0-16.576,10.587-16.576,20.595c0,9.742,5.857,24.699,23.607,24.699c20.75,0,26.746-16.207,26.746-33.977
				c0-17.98-13.745-39.62-38.243-39.62c-24.252,0-44.992,26.39-44.992,53.888c0,37.502,34.24,61.424,63.99,61.424
				c8.755,0,17.487-1.937,25.768-5.512l3.965,9.18C147.144,419.155,136.809,421.272,126.462,421.272z"/>
		</g>
		<g>
			<path d="M281.792,445.661c0.804-20.914,12.168-40.176,27.514-54.408c15.345-14.231,35.122-16.641,56.038-15.852l-0.186,4.996
				c-18.245-0.688-35.666,5.77-49.054,18.188c-13.389,12.427-18.638,29.385-19.324,47.643c-1.115,29.58,19.354,59.463,48.938,60.565
				c23.114,0.871,40.319-22.318,41.189-45.432c0.675-17.941-10.712-37.972-28.625-38.659c-7.402-0.284-25.356,8.191-26.158,29.083
				c-0.403,10.488,7.828,19.352,18.305,19.737l-0.373,9.992c-15.987-0.604-28.527-14.106-27.924-30.106
				c0.351-9.355,4.323-18.013,11.188-24.38c6.864-6.363,15.797-9.676,25.15-9.323c23.454,0.881,44.307,20.772,43.428,44.223
				c-1.079,28.624-27.741,50.962-56.363,49.862C298.314,509.979,280.686,474.464,281.792,445.661z"/>
		</g>
		<ellipse transform="matrix(0.6896 0.7242 -0.7242 0.6896 360.5065 -248.4667)" cx="470.081" cy="296.284" rx="5.733" ry="6.499"/>
		<ellipse transform="matrix(0.6895 0.7243 -0.7243 0.6895 317.8967 -316.6523)" cx="528.282" cy="212.458" rx="5.734" ry="6.499"/>
		<g>
			<path d="M157.196,276.423c16-18.583,29.608-86.833,29.608-115.728c-8.524,0-12.793,4.895-12.793,12.999
				c0,6.632,19.546,10.396,32.928,10.396c10.008,0,19.004-10.483,19.014-10.511l9.752,5c0,72.761-18.008,109.602-72.75,109.602
				c-26.931,0-44.508-13.555-44.508-36.258c0-18.583,14-40.229,34-40.229c21.5,0,55.006,44.151,73.455,44.151
				c11.128,0,19.881-14.422,19.881-27.563l9.993-0.383c0.367,9.596-2.39,17.734-7.973,23.536
				c-6.079,6.316-13.356,9.655-22.042,9.655c-26.314,0-58.314-43.221-73.179-43.221c-9.135,0-19.135,18.387-19.135,34.054
				s7.125,31.258,29.508,31.258c34.492,0,58.315-27.091,58.315-97.33c-4.12,3.009-9.839,4.739-14.831,4.739
				c-10.8,0-42.428-5.667-42.428-16.896c0-11.271,10.602-17.104,20.936-17.104c4,0,13.925,10.312,13.925,14.645
				c0,27.48-13.175,88.271-26.675,110.188L157.196,276.423z"/>
		</g>
		<g>
			<path d="M248.426,318.5c0-12.41-2.105-17.326-6.146-17.326c-21.439,0-38.333,17.602-38.333,33.25
				c0,8.291,6.25,16.666,16.333,16.666c26.042,0,34.222-20.329,34.222-20.329l9.317,5.219c0,0-15.748,20.11-53.54,20.11
				c-13.856,0-21.333-11.163-21.333-21.666c0-9.699,6.441-19.513,17.673-26.924c11.069-7.304,25.154-11.326,39.661-11.326
				c17.147,0,17.147,15.079,17.147,22.326c0,53.59,12.226,58.226,12.226,113.138c0,22.119-23.206,45.452-73.373,45.452
				c-38.833,0-66.667-21.666-66.667-51.333c0-42.125,27.833-68.667,95.5-68.667c31,0,43.693-22.332,43.693-34.999h10.141
				c0,18.749-16.254,48.499-53.833,48.499c-67.463,0-87,32.031-87,55.167s25.667,43.833,58.167,43.833s59.373-18.833,59.373-40.452
				C261.652,390.091,248.426,380.757,248.426,318.5z"/>
		</g>
	</g>
</g>
<g id="Varied_weight">
	<g>
		<path fill="#FFFFFF" d="M177.528,77.09h-5c0-13,12.238-27.961,34.918-27.961c16.306,0,29.068,3.259,41.412,6.349
			c12.426,3.11,24.161,6.08,39.588,6.08c17.312,0,31.485-6.565,37.916-17.589l6.502,1.552c-8.55,14.655-22.833,27.065-44.418,27.065
			c-16.783,0-29.734-3.24-42.26-6.375c-12.234-3.062-23.791-6.084-38.74-6.084C190.022,60.127,177.528,71.09,177.528,77.09z"/>
	</g>
	<path fill="#FFFFFF" d="M368.341,211.423c0-6.5-7.165-12.709-15.998-12.709c-17.917,0-30.722,16.709-30.722,34
		c0,17.128,12.45,27.743,27.325,27.743c22.333,0,31-15.367,31-43.367h-6c0,22-3.166,35.867-23,35.867
		c-10.166,0-15.949-12.438-15.949-23.701c0-11.499,6.866-25,13.616-25c3.917,0,6.782,3.167,6.782,8.918
		c0,22.48-29.783,39.418-45.699,39.418c-11.875,0-22.336-12.251-22.336-23.333c0-12.438,5.836-25.169,13.586-25.169
		c4.25,0,6.5,3.25,6.5,8.25c0,23.648-30.001,36.836-38.416,36.836l-2.208,4.916c19.291,0,53.757-17.501,53.757-42.545
		c0-7.395-7.921-12.833-15.235-12.833c-23.686,0-31.69,13.042-31.69,34.102c0,11.963,9.793,26.776,32.043,26.776
		C330.446,259.592,368.341,233.59,368.341,211.423z"/>
	<g>
		<path fill="#FFFFFF" d="M422.345,259.59c-3.104,0-13.231-1.39-13.231-19.271c0-4.592,0.098-8.706,0.185-12.336
			c0.196-8.25-0.226-23.395-7.622-23.395s-11.729,5-11.729,53.502h-16v-54h11v2.822c5.603-6.812,12.702-8.324,19.729-8.324
			c4.939,0,8.616,1.307,11.24,3.994c4.87,4.988,8.686,12.77,8.379,25.662c-0.085,3.568-0.552,24.346,4.05,24.346
			c8.767,0,35.898-15.77,35.898-37.323c0-5.645-2.297-11.011-6.298-11.011c-6.832,0-14,13.064-14,24.73s9.126,24.104,18.336,24.104
			c23.499,0,24.53-35.896,24.562-36.213h5.945c0,24.869-14.843,42.713-32.968,42.713s-29.417-14.584-29.417-30.333
			c0-16.105,13.541-30.471,31.907-30.471c9.196,0,14.998,5.7,14.998,12.668C477.31,232.59,443.945,259.59,422.345,259.59z"/>
	</g>
	<g>
		<path fill="#FFFFFF" d="M486.821,258.093v-54.006h9.625v2.476c4-4.985,10.605-7.973,19.375-7.973
			c8.17,0,14.373,6.523,15.061,7.267l-8.109,7.467c0,0-2.326-8.733-9.061-8.733c-12.015,0-12.478,17.691-12.478,53.5
			L486.821,258.093z"/>
	</g>
	<g>
		<path fill="#FFFFFF" d="M243.446,258.093v-54l9.305-0.006l-0.026,2.476c4.468-4.984,10.716-7.973,19.485-7.973
			c8.17,0,14.428,6.523,15.115,7.267l-8.081,7.467c-0.901-0.952-0.797-8.733-7.046-8.733c-10.502,0-14.361,17.691-14.361,53.5
			L243.446,258.093z"/>
	</g>
	<path fill="#FFFFFF" d="M423.743,354.59c-9.172,0-13.613-7.263-15.814-15.75c-3.975,7.502-11.107,15.75-22.19,15.75
		c-12.982,0-26.125-10.342-26.125-24.375c0-22.96,13.559-36.625,32.239-36.625c3.906,0,6.906,0.625,10.009,2.336l-5.33,4.828
		c-1.218-0.762-2.837-1.164-4.679-1.164c-12.506,0-16.572,12.646-16.572,29.5c0,14.167,6.251,19.5,10.458,19.5
		c14.833,0,14.897-19.193,15.146-21.987c0.505-5.67,3.022-35.609,3.022-68.347l10,5c0,0,0,39.736,1.13,55.342
		c1.601,22.095,5.576,29.909,9.076,29.909c8.166,0,12.8-4.819,13.027-11.79c0.432-13.248-6.194-19.627-6.194-19.627v-4.125
		c0,0,10.826,8.543,10.862,22.871C441.834,346.013,436.598,354.59,423.743,354.59z"/>
	<path fill="#FFFFFF" d="M407.929,338.84"/>
	<path fill="#FFFFFF" d="M442.28,342.132"/>
	<path fill="#FFFFFF" d="M272.806,353.093v-54.006h9.445l-0.026,2.476c4.468-4.984,10.716-7.973,19.485-7.973
		c8.17,0,14.428,6.523,15.115,7.267l-8.081,7.467c-0.901-0.952-0.797-8.733-7.046-8.733c-14.865,0-14.361,17.694-14.361,53.503
		H272.806z"/>
	<path fill="#FFFFFF" d="M370.546,335.507c-3.23,12.283-6.674,19.083-16.872,19.083c-6.144,0-11.561-4.999-13.043-11.258
		c-2.81,6.133-9.63,11.258-18.114,11.258c-15.457,0-24.685-8.346-24.685-22.323c0-10.051,4.537-19.919,12.776-27.786
		c6.885-6.574,15.631-10.869,22.281-10.941c3.625-0.042,6.521,0.61,8.666,1.93l-4.764,4.369c0,0-1.082-0.299-2.783-0.299
		c-4.562,0-20.177,11.301-20.177,32.728c0,5.272,3.864,16.246,8.685,16.246c14.43,0,15.261-16.423,15.261-46.423l8,5
		c0,0,0.836,41.499,7.896,41.499c0.084,0,6.106-1.999,6.189-17.999L370.546,335.507z"/>
	<g>
		<path fill="#FFFFFF" d="M165.244,277.693l-10.048-3.271c0,0-18.75-95-93.75-95C28.28,179.423,6,206.143,6,230.949
			c0,28.67,21.988,47.141,46.488,47.141c28.334,0,66.294-23,66.294-184h16c0,126.25-30.586,192-78.336,192
			c-36,0-56.446-21.781-56.446-55.141c0-27.193,22.946-57.026,61.446-57.026C154.946,173.923,165.244,277.693,165.244,277.693z
			 M92.357,174.646c-28.519,0-58.787-21.808-58.787-62.223c0-34.334,25.855-99.716,71.853-99.716
			c13.504,0,26.513,9.049,26.513,19.299c0,21.167-22.745,33-42.078,33S48.944,59.673,48.944,39.59
			c0-15.342,13.188-32.495,25.405-39.59l5.524,9.514C71.312,14.484,55.189,27.98,55.192,39.66
			c0.004,16.055,14.379,18.847,33.422,18.847c14.083,0,27.833-10.917,27.833-26.333c0-7.417-3.667-13.465-11.002-13.465
			c-27.498,0-55.832,30.132-55.832,93.716c0,33.332,23.501,56.223,42.829,56.223c26.347,0,26.341-24.445,26.341-69.557h15.664
			C134.446,137.756,123.446,174.646,92.357,174.646z"/>
	</g>
	<g>
		<path fill="#FFFFFF" d="M142.446,148.093V94.09h8.875l-0.062,2.474c4.468-4.984,10.698-7.973,19.468-7.973
			c8.17,0,14.419,6.523,15.106,7.266l-8.085,7.466c-0.901-0.952-0.799-8.733-7.048-8.733c-13.92,0-14.292,17.691-14.292,53.5
			L142.446,148.093z"/>
	</g>
	<path fill="#FFFFFF" d="M256.007,149.588c-8.551,0-11.418-4.232-13.461-19.081c-3.23,12.283-8.674,19.083-18.872,19.083
		c-5.978,0-10.728-6.5-13.043-13.258c-3.185,7.258-9.63,13.258-18.114,13.258c-15.457,0-24.685-8.346-24.685-22.323
		c0-10.051,4.537-19.919,12.776-27.786c6.885-6.574,15.63-10.941,22.281-10.941c4.724,0,7.521,0.61,9.666,1.93l-4.764,4.369
		c0,0-1.096-0.299-3.783-0.299c-5.062,0-20.177,11.301-20.177,32.728c0,5.272,3.864,16.246,8.685,16.246
		c13.93,0,15.261-16.423,15.261-46.423l9,5c0,0-0.164,41.499,6.896,41.499c8.772,0,14.066-8.499,14.066-118.499l11.706,6.15
		c0,91.183,0.333,113.683,9.542,113.683L256.007,149.588z"/>
	<path fill="#FFFFFF" d="M259.509,144.923c-3.75,0-8.625-17.949-9.787-38.602l-7.176,24.269c2.043,14.849,5.91,19.081,14.461,19.081
		c11.564,0,21.005-12.833,20.746-32.547c-0.14-10.638-1.973-16.034-4.672-20.748c12.102,3.512,32.859,15.917,32.859,25.701
		c0,13.033-13.119,21.096-22.994,21.096c-12.914,0-19.998-1.583-18.414-6.833s7.514-3.863,16.082-1.916
		c15.395,3.499,57.582,31.322,93.332,31.322c19.878,0,40.75-14.23,40.75-14.23l-9.488-5.191c0,0-7.881,13.765-33.006,13.765
		c-35.421,0-76.318-32.979-100.381-32.979c-12.766,0-15.245,5.562-15.245,9.729c0,9.25,12.706,12.825,32.461,12.825
		c9.159,0,32.903-2.555,32.903-24.588c0-18.683-24.078-26.82-31.911-29.654s-20.934-5.479-20.934-8.656s3.351-7.344,3.351-7.344
		c0,0-2.833-2.75-2.833-2.75c-2.75,1.397-7.503,7.167-7.503,10.259c0,7.408,7.993,14.324,7.993,28.241
		C270.104,136.59,263.259,144.923,259.509,144.923z"/>
	<g>
		<path fill="#FFFFFF" d="M8.881,60.492l1.965-4.805c4.726,0,14.299-3.098,14.299-11.008c-1.42,0.59-3.001,0.91-4.699,0.91
			c-6.703,0-11.083-5.802-11.083-12.416c0-7.028,4.557-11.75,12.083-11.75c10.396,0,14.711,6.292,14.711,14.607
			C36.158,50.465,27.03,60.492,8.881,60.492z"/>
	</g>
	<g>
		<path fill="#FFFFFF" d="M373.446,165.434c-12.146,0-23.79-2.429-35.923-7.441l1.907-4.622c8.438,3.486,17.298,5.717,26.162,5.717
			c32.421,0,64.711-23.709,64.711-64.997c0-25.319-18.109-53.556-40.63-53.556c-22.728,0-44.803,19.825-44.803,40.815
			s9.825,36.867,25.243,36.867c17.332,0,26.497-16.423,26.497-26.62c0-7.473-4.452-14.577-11.77-17.592l3.813-9.243
			c11.09,4.583,17.951,16.645,17.951,26.612s-9.658,32.991-35.159,32.991s-40.097-16.405-40.097-43.777s25.597-45.184,58.604-45.184
			c37.203,0,53.851,30.204,53.851,59.027C443.805,129.423,420.196,165.434,373.446,165.434z"/>
	</g>
</g>
<g id="Alternate_S">
	<g>
		<path fill="#FFFFFF" d="M99.057,441.082l-5.554-8.316c25.587-17.086,67.023-34.716,113.685-48.37
			c47.355-13.857,94.225-21.805,128.591-21.805c53.335,0,111.584,20.249,122.042,20.249c9.52,0,19.125-4.25,19.125-17
			s-16.25-23.625-23.387-28.231c-7.024-4.534-27.445-18.738-27.445-32.895c0-13.532,10.833-22.624,26.957-22.624
			c7.667,0,15.186,2.922,19.62,7.626l-7.275,6.859c-2.105-2.232-6.22-9.485-12.345-9.485s-16.957,2.998-16.957,15.124
			s18.379,19.296,24.293,22.648s28.039,17.494,28.039,34.478c0,18.252-13.477,31-30.625,31c-20.375,0-59.042-12.749-122.042-12.749
			C266.823,377.591,151.78,405.876,99.057,441.082z"/>
	</g>
	<g>
		<path fill="#FFFFFF" d="M124.462,419.272c-35.266,0-78.262-26.183-78.262-71.433c0-32.75,26.246-58.893,59.724-58.893
			c35.022,0,53.512,24.893,53.512,44.143c0,23.75-17.739,39.464-41.739,39.464c-19.5,0-33.606-12.714-33.606-29.393
			c0-15.321,12.856-25.899,26.105-25.899c9.433,0,18.511,2.706,22.475,11.885l-9.181,3.965c-2.27-5.258-7.43-10.858-12.825-10.858
			c-9.968,0-16.576,10.587-16.576,20.595c0,9.742,5.857,24.699,23.607,24.699c20.75,0,26.746-16.207,26.746-33.977
			c0-17.98-13.745-39.62-38.243-39.62c-24.252,0-44.992,26.39-44.992,53.888c0,37.502,34.24,61.424,63.99,61.424
			c8.755,0,17.487-1.937,25.768-5.512l3.965,9.18C145.144,417.155,134.809,419.272,124.462,419.272z"/>
	</g>
	<g>
		<path fill="#FFFFFF" d="M279.792,443.661c0.804-20.914,12.168-40.176,27.514-54.408c15.345-14.231,35.122-16.641,56.038-15.852
			l-0.186,4.996c-18.245-0.688-35.666,5.77-49.054,18.188c-13.389,12.427-18.638,29.385-19.324,47.643
			c-1.115,29.58,19.354,59.463,48.938,60.565c23.114,0.871,40.319-22.318,41.189-45.432c0.675-17.941-10.712-37.972-28.625-38.659
			c-7.402-0.284-25.356,8.191-26.158,29.083c-0.403,10.488,7.828,19.352,18.305,19.737l-0.373,9.992
			c-15.987-0.604-28.527-14.106-27.924-30.106c0.351-9.355,4.323-18.013,11.188-24.38c6.864-6.363,15.797-9.676,25.15-9.323
			c23.454,0.881,44.307,20.772,43.428,44.223c-1.079,28.624-27.741,50.962-56.363,49.862
			C296.314,507.979,278.686,472.464,279.792,443.661z"/>
	</g>
	
		<ellipse transform="matrix(0.6896 0.7242 -0.7242 0.6896 358.4371 -247.6392)" fill="#FFFFFF" cx="468.081" cy="294.284" rx="5.733" ry="6.499"/>
	
		<ellipse transform="matrix(0.6895 0.7242 -0.7242 0.6895 315.8115 -315.8187)" fill="#FFFFFF" cx="526.282" cy="210.458" rx="5.734" ry="6.498"/>
</g>
<g id="Alternate_G">
	<g>
		<path fill="#FFFFFF" d="M155.196,274.423c16-18.583,29.608-86.833,29.608-115.728c-8.524,0-12.793,4.895-12.793,12.999
			c0,6.632,19.546,10.396,32.928,10.396c10.008,0,19.004-10.483,19.014-10.511l9.752,5c0,72.761-18.008,109.602-72.75,109.602
			c-26.931,0-44.508-13.555-44.508-36.258c0-18.583,14-40.229,34-40.229c21.5,0,55.006,44.151,73.455,44.151
			c11.128,0,19.881-14.422,19.881-27.563l9.993-0.383c0.367,9.596-2.39,17.734-7.973,23.536c-6.079,6.316-13.356,9.655-22.042,9.655
			c-26.314,0-58.314-43.221-73.179-43.221c-9.135,0-19.135,18.387-19.135,34.054s7.125,31.258,29.508,31.258
			c34.492,0,58.315-27.091,58.315-97.33c-4.12,3.009-9.839,4.739-14.831,4.739c-10.8,0-42.428-5.667-42.428-16.896
			c0-11.271,10.602-17.104,20.936-17.104c4,0,13.925,10.312,13.925,14.645c0,27.48-13.175,88.271-26.675,110.188L155.196,274.423z"
			/>
	</g>
</g>
<g id="Alternate_g">
	<g>
		<path fill="#FFFFFF" d="M246.426,316.5c0-12.41-2.105-17.326-6.146-17.326c-21.439,0-38.333,17.602-38.333,33.25
			c0,8.291,6.25,16.666,16.333,16.666c26.042,0,34.222-20.329,34.222-20.329l9.317,5.219c0,0-15.748,20.11-53.539,20.11
			c-13.856,0-21.333-11.163-21.333-21.666c0-9.699,6.441-19.513,17.673-26.924c11.069-7.304,25.154-11.326,39.661-11.326
			c17.146,0,17.146,15.079,17.146,22.326c0,53.59,12.226,58.226,12.226,113.138c0,22.119-23.206,45.452-73.373,45.452
			c-38.833,0-66.667-21.666-66.667-51.333c0-42.125,27.833-68.667,95.5-68.667c31,0,43.693-22.332,43.693-34.999h10.141
			c0,18.749-16.254,48.499-53.833,48.499c-67.463,0-87,32.031-87,55.167s25.667,43.833,58.167,43.833s59.373-18.833,59.373-40.452
			C259.652,388.091,246.426,378.757,246.426,316.5z"/>
	</g>
</g>
</svg>
